<?xml version="1.0" encoding="utf-8"?>
<!-- Generator: Adobe Illustrator 18.0.0, SVG Export Plug-In . SVG Version: 6.00 Build 0)  -->
<!DOCTYPE svg PUBLIC "-//W3C//DTD SVG 1.1//EN" "http://www.w3.org/Graphics/SVG/1.1/DTD/svg11.dtd">
<svg version="1.1" id="Layer_1" xmlns="http://www.w3.org/2000/svg" xmlns:xlink="http://www.w3.org/1999/xlink" x="0px" y="0px"
	 viewBox="0 0 640 640" enable-background="new 0 0 640 640" xml:space="preserve">
<g>
	<g>
		<g opacity="0.4">
			<path fill="#231F20" d="M91,381.3c0,0-26.4,17-22.3,29.8c4.1,12.8,234,137.9,308.2,96.5s183.1-171.8,193.3-220.5
				s-32.9-58.4-61-65.3"/>
		</g>
		<g>
			<g>
				<path fill="#912951" d="M504.4,176c-4.8-5.1-12.9-6.6-19.4-8.3c-9-2.3-18.1-4.4-27.1-6.4c-26.4-6-52.8-11.5-79.2-17.2
					c-24.3-5.2-48.7-10.4-73.1-15.4c-4.1-0.8-8.3-1.6-12.4-2.4c-1.5-0.3-3.1-0.6-4.6-0.8c-0.6-0.1-1.2-0.2-1.8-0.3
					c-0.3,0-0.5-0.1-0.8-0.1c-1.7-0.3-3.3-0.5-4.9-0.4c0.1,0,0.2-0.1,0.3-0.1c-0.8-0.1-1.7-0.2-2.5-0.2c-6.6,0.2-11.1,4-15.9,8.1
					c0.1-0.1,0.3-0.2,0.4-0.3c-0.8,0.7-1.5,1.3-2.1,2.1c-1.2,1.3-2.4,2.6-3.5,3.9c-1.7,2-3.8,3.6-5.8,5.4c-4.6,4.2-9,8.6-13.4,13.1
					c-10.7,11-20.9,22.5-30.8,34.2c-5.5,6.5-11,13-16.4,19.7c-1.3,1.6-2.6,3.2-3.9,4.8c-0.4,0.5-0.7,0.9-1.1,1.4
					c-0.3,0.4-0.6,0.7-0.8,1.1c-0.8,1-1.5,1.9-2.3,2.9c-3.2,4.1-6.3,8.2-9.5,12.3c-10.1,13.1-19.9,26.4-29.3,40.1
					c-3.4,5-6.8,10-10.1,15.1c-1.5,2.3-3,4.6-4.4,6.9c-1.6,2.5-3.6,5.1-4.5,8c-0.9,2.1-1.8,4.1-2.7,6.2c0.1-0.3,0-0.2-0.2,0.2
					c-0.2,0.6-0.5,1.1-0.7,1.7c0.6-1.2,0.7-1.4,0.4-0.8c-0.3,0.6-0.5,1.2-0.8,1.8c-0.4,0.9-0.8,1.8-1.2,2.7
					c-0.3,0.1-0.5,0.3-0.8,0.5c-8.8,5.3-11.2,16.1-6.5,25c2.3,4.4,6.6,7.2,11.2,8.6c1.4,0.6,2.9,1.1,4.3,1.7
					c1.4,0.5,2.8,1.1,4.2,1.6c4.6,1.8,9.5,3.2,14.2,4.6c5.5,1.7,11.1,3.2,16.7,4.7c13,3.5,26,7,39,10.4c26.5,7,53,13.7,79.8,19.5
					c9.7,2.1,19.5,4.1,29.4,5.5c4.9,0.7,9.8,1.5,14.7,1.6c1.1,0,2.2,0,3.2-0.1c6-0.7,6.5-0.7,11.9-3.2c3-1.3,4.8-3.7,6.8-6
					c2-2.3,4-4.6,5.9-6.8c6.7-7.7,13.5-15.5,20.2-23.2c19.7-22.7,39.4-45.4,59-68.2c10.2-11.9,20.3-23.7,30.3-35.7
					c4.5-5.4,9-10.8,13.5-16.2c4.9-5.9,10.2-11.7,14.6-18.1c5-7.3,10.8-14,15.7-21.4C512.3,192.1,510.1,182.1,504.4,176z"/>
			</g>
			<g>
				<path fill="#F7941E" d="M491.3,307.1c-2.3-8.2-8.3-16.6-15.1-21.9c-5.4-4.2-10.6-6.8-17.5-7.4c-5.7-0.6-12.8,2.2-16.3,6.6
					c-0.4,0.5-0.7,0.9-1.1,1.4c-0.5,0.5-1,1.1-1.4,1.7c-9.3,12.7-14.5,30.8-13.8,46.3c0.4,8.6,7,15.2,16,15.4c6,0.1,12.2-0.5,18-2.1
					c6.8-1.9,12.2-5.3,17.7-9.4c4.6-3.5,8.8-8.4,11.8-13.2C492.8,319.3,492.8,312.8,491.3,307.1z"/>
			</g>
			<g>
				<g>
					<path fill="#631E3A" d="M280.1,127.1c-23.3,1-44.3,15.7-61.6,29.9c-23,18.9-42.4,41.6-60.3,65.2
						c-17.7,23.4-33.6,48.4-46.8,74.7c-5.9,11.7-11.3,23.8-15.6,36.1c-3.4,9.7-6,19.7-6.9,30c-0.6,7.6,0.2,16.8,4.9,23.2
						c3.5,4.6,7.3,7.6,12.8,9.6c3,1.1,6.1,2,9.2,3.1c25,8.4,50.1,16.6,75.3,24.3c31.1,9.5,62.4,18.6,94.3,25.1
						c13,2.7,26.3,5,39.6,5.6c5.3,0.2,10.6-0.1,15.8-1.1c4.7-0.8,9.2-3,13.4-5.3c10.5-5.8,19.9-14,28.7-22.1
						c10.8-10,20.8-20.8,30.6-31.8c10.9-12.3,21.4-25,31.6-37.9c10.6-13.4,21.3-27,31.1-41c7.8-11.1,15.4-22.2,22.7-33.6
						c4.8-7.4,9.5-14.8,13.6-22.5c0.2-0.3,0.3-0.6,0.5-0.9c3.5-6.5,1.7-14.6-4.8-18.4c-6.2-3.6-14.9-1.6-18.4,4.8
						c-4,7.4-9,14.3-13.7,21.2c-7.6,11-15.4,21.7-23.4,32.4c-8.9,11.9-17.6,23.8-26.7,35.6c0.8-1,1.5-2,2.3-3
						c-19.3,24.9-39.2,49.7-61.7,71.8c-5.9,5.8-12.1,11.5-18.7,16.6c0.9-0.7,1.9-1.5,2.8-2.2c-4.7,3.6-9.7,7.1-15.1,9.4
						c1.1-0.5,2.2-0.9,3.3-1.4c-2.3,1-4.7,1.6-7.2,2c1.2-0.2,2.4-0.3,3.7-0.5c-9,1.2-18.3,0.1-27.2-1.1c1.2,0.2,2.4,0.3,3.6,0.5
						c-30.6-4.1-60.8-12.3-90.5-20.5c-28.7-7.9-57.1-16.7-85.4-25.7c-7.6-2.4-15.2-4.7-22.7-7.3c-2-0.7,3.1,1.3,2,0.9
						c-0.3-0.1-0.5-0.3-0.8-0.4c-0.3-0.1-0.5-0.3-0.7-0.4c-1-0.6-2.6-2,1.6,1.3c-0.4-0.4-0.9-0.7-1.2-1.2c-0.2-0.2-0.4-0.4-0.6-0.7
						c3.2,4,1.9,2.6,1.2,1.6c-0.3-0.5-0.6-1-0.9-1.6c-1-2,1.3,3.1,0.8,1.9c-0.1-0.3-0.3-0.7-0.4-1.1c-0.5-1.4-0.8-2.8-0.9-4.2
						c0.1,1.1,0.3,2.2,0.4,3.3c-0.5-4.1-0.3-8.2,0.2-12.2c-0.1,1.1-0.3,2.2-0.4,3.2c1.3-9.8,4.3-19.3,7.7-28.5
						c1-2.8,2.1-5.5,3.2-8.2c0.3-0.7,0.6-1.3,0.8-2c0.7-1.7-1.3,3.2-0.6,1.5c0.1-0.3,0.3-0.7,0.4-1c0.6-1.5,1.3-3,2-4.5
						c2.7-6.1,5.6-12,8.6-18c13.5-26.4,29.6-51.7,47.3-75.5c1.1-1.5,2.2-2.9,3.3-4.4c0.5-0.7,1.1-1.4,1.7-2.2
						c0.3-0.4,0.6-0.7,0.8-1.1c-2.3,3-0.8,1.1-0.3,0.4c2.3-3,4.7-5.9,7-8.8c4.6-5.7,9.4-11.2,14.3-16.7c9-10,18.6-19.6,28.9-28.2
						c0.9-0.8,1.9-1.6,2.9-2.3c0.5-0.4,1-0.8,1.4-1.1c1.2-1-2,1.5-0.8,0.6c0.3-0.2,0.6-0.4,0.9-0.7c2.1-1.6,4.2-3.1,6.3-4.5
						c3.9-2.6,7.9-5.1,12-7.2c1.9-1,3.8-1.9,5.7-2.7c-3.4,1.5,0.2-0.1,1.1-0.4c1-0.4,1.9-0.7,2.9-1c1.8-0.6,3.6-1.1,5.5-1.5
						c0.9-0.2,1.9-0.4,2.8-0.5c1.8-0.3-2.5,0.3-0.7,0.1c0.5-0.1,1-0.1,1.5-0.1c4.5-0.4,8.4-3.5,8.4-8.4
						C288.5,131,284.7,126.9,280.1,127.1L280.1,127.1z"/>
				</g>
			</g>
			<g>
				<path fill="#631E3A" d="M293.3,126.4c-1.5-0.3-3-0.6-4.5-0.8c-0.6-0.1-1.2-0.2-1.8-0.3c-0.3,0-0.6-0.1-0.8-0.2
					c-1.7-0.3-3.3-0.5-4.9-0.4c0.1,0,0.2-0.1,0.3-0.1c-0.9-0.1-1.8-0.2-2.6-0.2c-6.2,0.1-10.6,3.6-15,7.3c-0.1,0.1-0.1,0.1-0.2,0.2
					c-0.2,0.1-0.3,0.3-0.5,0.4c0.1-0.1,0.2-0.1,0.2-0.2c-0.6,0.6-1.2,1.1-1.8,1.8c-1.3,1.3-2.5,2.7-3.7,4.1c-1.7,2-3.8,3.6-5.7,5.4
					c-4.6,4.2-9,8.6-13.3,13c-10.7,11-20.8,22.5-30.8,34.2c-5.5,6.5-11,13-16.3,19.6c-1.3,1.6-2.6,3.2-3.9,4.8c-1.1,1.3-3.9,5-1,1.2
					c-0.3,0.4-0.6,0.8-1,1.2c-0.8,1-1.5,1.9-2.3,2.9c-3.2,4.1-6.3,8.2-9.5,12.3c-10.1,13.1-20,26.4-29.3,40.1
					c-3.4,5-6.8,10.1-10.1,15.1c-1.6,2.4-3.1,4.8-4.7,7.2c-1.6,2.5-3.7,5.2-4.5,8.1c-0.9,2-1.8,4.1-2.6,6.1c0.1-0.3,0.1-0.3-0.2,0.1
					c-0.2,0.6-0.5,1.1-0.7,1.7c0.6-1.2,0.7-1.4,0.4-0.8c-0.3,0.6-0.5,1.2-0.8,1.8c-0.4,0.9-0.8,1.7-1.2,2.6
					c-0.3,0.2-0.6,0.4-0.9,0.6c-2.7,1.6-4.9,3.8-6.5,6.5c-2.3,3.9-3.5,9.7-1.8,14.1c1.7,4.7,4,8.5,8.5,11.1c1.7,1,3.1,1.5,4.7,1.9
					c1.4,0.6,2.8,1.1,4.2,1.6c1,0.4,2.1,0.8,3.1,1.2c4.9,2.2,10.5,3.5,15.6,5.1c2.7,0.8,5.5,1.6,8.2,2.4
					c50.5-35.4,180.1-162.2,178.5-224.5c-9.4-2-18.8-3.9-28.2-5.8C301.4,127.9,297.4,127.1,293.3,126.4z"/>
				<path fill="#631E3A" d="M155.3,359.4l-0.1,0c-3.2-0.9-5.8-1.6-8.2-2.4c-1.3-0.4-2.6-0.8-3.9-1.1c-3.9-1.1-8-2.3-11.7-3.9
					c-0.6-0.2-1.3-0.5-2-0.7c-0.4-0.1-0.8-0.3-1.1-0.4l-0.7-0.2c-1.2-0.4-2.4-0.9-3.5-1.4c-1.7-0.5-3.1-1-4.7-2
					c-5-2.9-7.2-7.3-8.6-11.2c-1.8-4.7-0.3-10.6,1.9-14.3c1.6-2.8,3.9-5,6.7-6.7c0.2-0.2,0.5-0.4,0.8-0.5c0.4-0.8,0.7-1.7,1.1-2.5
					c0.1-0.3,0.3-0.6,0.4-1l0,0l0.7-1.7c0.1-0.2,0.2-0.4,0.3-0.4c0.8-1.9,1.6-3.9,2.5-5.8c0.7-2.3,2.1-4.4,3.5-6.5
					c0.4-0.6,0.7-1.1,1.1-1.6c1.6-2.4,3.1-4.9,4.7-7.2c3.2-4.9,6.6-10,10.2-15.1c8.2-12,17.5-24.7,29.3-40.1
					c3.5-4.5,6.6-8.5,9.5-12.3c0.6-0.8,1.3-1.6,1.9-2.5l0,0c0,0,0,0,0-0.1c0.2-0.4,0.8-1.1,2.2-2.8c0.8-0.9,1.5-1.9,2.3-2.8
					c0.6-0.7,1.1-1.4,1.7-2c5.7-7,11.1-13.4,16.4-19.6c11.7-13.8,21.5-24.6,30.8-34.2c5.1-5.2,9.3-9.4,13.4-13.1
					c0.6-0.5,1.1-1,1.7-1.5c1.4-1.2,2.8-2.4,4-3.8c1.3-1.5,2.5-2.8,3.7-4.1c0.5-0.5,1-1,1.6-1.6l0,0l0.7-0.6
					c4.3-3.6,8.8-7.3,15.2-7.4l0.1,0c0.7,0,1.4,0.1,2,0.1l1.7,0.2l-0.1,0c1.2,0.1,2.3,0.2,3.5,0.4l0.2,0c0.2,0,0.4,0.1,0.6,0.1
					c0.6,0.1,1.2,0.2,1.8,0.3c1.5,0.3,3,0.5,4.5,0.8l2,0.4c3.4,0.6,6.9,1.3,10.3,2c8.3,1.7,17.2,3.5,28.2,5.8l0.2,0l0,0.2
					c0.4,14.6-6.4,33.6-20.1,56.6c-11.8,19.7-28.5,42-49.6,66c-18,20.5-38.5,41.6-59.4,60.9c-18.8,17.4-36.4,32.1-49.5,41.3
					L155.3,359.4z M122.6,310.1c0,0.1-0.1,0.2-0.1,0.3c-0.3,0.6-0.5,1.2-0.8,1.8c-0.4,0.9-0.8,1.7-1.2,2.6l0,0.1l-0.1,0
					c-0.3,0.2-0.6,0.4-0.8,0.6c-2.7,1.6-4.9,3.8-6.5,6.5c-2.1,3.6-3.5,9.3-1.8,13.8c2,5.4,4.5,8.7,8.4,10.9c1.6,0.9,2.9,1.4,4.6,1.9
					c1.2,0.5,2.3,0.9,3.6,1.4l0.7,0.2c0.4,0.1,0.8,0.3,1.2,0.4c0.7,0.3,1.3,0.5,2,0.7c3.7,1.6,7.7,2.8,11.6,3.9
					c1.3,0.4,2.6,0.8,3.9,1.1c2.3,0.7,4.9,1.5,8.1,2.3c24.8-17.4,70-57.9,108.6-102c21.1-24,37.8-46.2,49.6-65.9
					c13.6-22.7,20.4-41.6,20.1-56c-10.9-2.3-19.8-4.1-28-5.8c-3.4-0.7-6.9-1.3-10.3-2l-2-0.4c-1.5-0.3-3-0.5-4.5-0.8
					c-0.6-0.1-1.2-0.2-1.8-0.3c-0.2,0-0.4-0.1-0.6-0.1l-0.2,0c-1.6-0.3-3.1-0.4-4.5-0.4l-1.9,0l0.6-0.3c-0.4,0-0.9-0.1-1.3-0.1
					l-0.1,0c-6.2,0.1-10.6,3.7-14.9,7.2l-0.5,0.4l0,0c-0.7,0.6-1.2,1.1-1.8,1.7c-1.2,1.3-2.4,2.6-3.7,4.1c-1.2,1.4-2.7,2.7-4.1,3.9
					c-0.6,0.5-1.1,1-1.7,1.5c-4,3.7-8.3,7.8-13.3,13c-9.3,9.5-19.1,20.4-30.8,34.1c-5.3,6.2-10.6,12.6-16.3,19.6
					c-0.6,0.7-1.1,1.4-1.7,2c-0.8,0.9-1.5,1.9-2.3,2.8c-0.3,0.3-0.6,0.8-1,1.2l0,0l-1,1.2c-0.8,1-1.5,1.9-2.3,2.9
					c-2.9,3.7-6,7.8-9.5,12.3c-11.8,15.4-21.1,28.1-29.3,40.1c-3.5,5.1-6.9,10.2-10.1,15.1c-1.5,2.4-3.1,4.8-4.7,7.2
					c-0.3,0.5-0.7,1.1-1.1,1.6c-1.4,2-2.8,4.1-3.4,6.4c-0.9,2.1-1.8,4.1-2.6,6.1l-0.1,0c0,0-0.1,0.1-0.1,0.2l-0.1,0.3
					C122.6,309.9,122.6,309.9,122.6,310.1L122.6,310.1C122.6,310.1,122.6,310.1,122.6,310.1z"/>
			</g>
			<g>
				<path fill="#FFCD8A" d="M510.9,193.1c9.6,8.9-3,40.7-3.7,42.9c-0.7,2.2-123.5,208.6-179.7,198.9c-56.2-9.6-199.5-46.4-213-56.5
					c-13.5-10.1-22.2-53.7,14.8-35.2c37,18.5,178.2,56.9,204.5,47.3C360,381,510.9,193.1,510.9,193.1z"/>
			</g>
			<g>
				<g>
					<path fill="#F9AD5A" d="M120.2,353.9c-0.5,0.2-0.3,0.1-0.4,0.1c0.3,0,0.6,0.1,0.9,0.2c0.9,0.2,1.9,0.5,2.8,0.7
						c3.2,0.9,6.4,1.9,9.5,2.9c10.6,3.3,21.1,6.8,31.7,10.1c28.7,9.2,57.5,18.1,86.6,26c13,3.5,26.1,6.8,39.4,9.3
						c8.5,1.6,17.8,3.5,26.5,2.5c8.6-0.9,17.3-3.2,24.9-7.2c7.5-3.9,13.9-9.7,19.9-15.5c7.5-7.2,14.7-14.4,21.5-22.2
						c17.1-19.6,33.5-39.7,49.9-59.9c18-22.1,36-44.4,53.8-66.6c7.4-9.2,14.8-18.5,22.2-27.8c0.8-1.1-0.7-2.6-1.5-1.5
						c-8.7,11-17.5,21.9-26.3,32.9c-18.2,22.7-36.5,45.4-54.9,67.9c-15.7,19.2-31.3,38.5-47.7,57c-8,9-16.6,17.6-25.6,25.4
						c-6.5,5.6-13.8,9.9-22,12.5c-6.1,1.9-12.6,3.3-18.9,3.2c-10.2-0.2-20.5-2.4-30.5-4.5c-13.9-3-27.7-6.7-41.5-10.5
						c-28.4-8-56.6-16.9-84.7-25.9c-8.6-2.7-17.1-5.5-25.7-8.2c-2.4-0.8-4.9-1.5-7.3-2.2c-1-0.3-2.5-0.9-3.5-0.4
						C117.9,352.6,118.9,354.5,120.2,353.9L120.2,353.9z"/>
				</g>
			</g>
			<g>
				<g>
					<path fill="#F9AD5A" d="M115.3,361.9c-0.5,0.2-0.2,0.1-0.4,0.1c0.3,0,0.5,0.1,0.8,0.2c0.9,0.2,1.8,0.4,2.6,0.7
						c3,0.9,6,1.8,9.1,2.7c10.1,3.1,20.2,6.4,30.3,9.6c28.3,9,56.7,17.8,85.3,25.8c13.6,3.8,27.3,7.4,41.1,10.5
						c10.1,2.3,20.5,4.4,30.9,5.1c4.5,0.3,8.7-0.1,13.2-0.9c8.8-1.6,17.3-4.5,24.9-9.3c7.7-4.9,14.2-11.3,20.7-17.6
						c3.6-3.5,7.1-6.9,10.4-10.6c16.1-17.9,30.8-37.1,45.6-56c18.1-23,35.9-46.1,53.7-69.2c5.9-7.6,11.7-15.3,17.5-22.9
						c1.7-2.2,3.4-4.4,5-6.6c0.5-0.7,1.4-1.5,1.8-2.3c0.5-1.2-1.3-2.3-1.8-1.1c-0.4,0.9-1.3,1.8-1.9,2.5c-1.8,2.4-3.6,4.8-5.4,7.1
						c-6.3,8.3-12.7,16.6-19,24.9c-18,23.4-36.1,46.8-54.4,70c-14.3,18.2-28.4,36.8-44.1,53.8c-4.4,4.8-9.1,9.2-13.8,13.7
						c-6.4,6.1-13.1,11.8-21,15.8c-11,5.5-23.4,7.7-35.6,6.3c-11.2-1.2-22.3-3.7-33.3-6.3c-14.2-3.4-28.3-7.2-42.3-11.2
						c-28.1-8-55.9-16.8-83.7-25.6c-8.7-2.8-17.4-5.6-26.2-8.3c-2.5-0.8-5-1.5-7.6-2.2c-1-0.3-2.6-0.9-3.6-0.4
						C113,360.6,114.1,362.5,115.3,361.9L115.3,361.9z"/>
				</g>
			</g>
			<g>
				<g>
					<path fill="#F9AD5A" d="M117.5,371.7c-0.5,0.2-0.2,0.1-0.4,0.1c0.3,0,0.5,0.1,0.8,0.2c0.9,0.2,1.8,0.4,2.6,0.7
						c3,0.9,6,1.8,9.1,2.7c10.1,3.1,20.2,6.4,30.3,9.6c28.3,9,56.7,17.8,85.3,25.8c13.6,3.8,27.3,7.4,41.1,10.5
						c10.1,2.3,20.5,4.4,30.9,5.1c4.5,0.3,8.7-0.1,13.2-0.9c9.1-1.5,18.1-4,26.4-8.1c8.3-4.2,15.5-10.1,22.3-16.3
						c3.8-3.5,7.4-7,10.8-10.8c16.5-18.7,31.3-39.1,46.4-59c17.1-22.6,33.9-45.4,50.7-68.2c5.1-6.9,10.2-13.9,15.2-20.8
						c0.8-1.1-1-2.2-1.8-1.1c-9.1,12.5-18.2,24.9-27.4,37.4c-17.7,24-35.6,48-53.8,71.7c-14.1,18.3-27.8,37.4-45.3,52.7
						c-6.9,6-14.5,11.4-23.1,14.9c-8.2,3.4-17.4,5.6-26.3,6.4c-8.5,0.8-17.3-1-25.6-2.6c-27.9-5.2-55.3-13.4-82.5-21.5
						c-26-7.7-51.8-16-77.6-24.2c-5.2-1.7-10.5-3.3-15.7-4.9c-1.6-0.5-5-2.1-6.7-1.3C115.2,370.4,116.2,372.3,117.5,371.7
						L117.5,371.7z"/>
				</g>
			</g>
			<g>
				<g>
					<g>
						<path fill="#FFCD8A" d="M295.2,262.2c7.1-11.6,13.9-13.4,29.4-16.4c15.2-3.1,24.8-3.4,27-8.4c2.9,14.2,5.5,15.8,0.9,25.1
							c-4.7,9.3-31.7,13.4-39.1,10.5c12.5,4.8,10.1,17-5.5,21.1c-5.6,1.4-16,2.7-17.3,2.6c-1.3-0.1-9.9-12.2-2.9-22.8
							C294.6,263.2,295.2,262.2,295.2,262.2z"/>
					</g>
					<g>
						<path fill="#FFCD8A" d="M292,260.9c7.5-11.5,5.2-16.8-1-28.4c-5.8-11.4-10.9-17.6-7.5-22.1c-14.9,7.3-17.8,6.7-24.2,15.5
							c-6.5,8.7,4,27.5,11.1,30.3c-11.9-4.6-22.9,4.3-18.7,16.1c1.6,4.2,6,11.2,6.9,11.9c0.9,0.7,18.7-1.2,25.8-11.8
							C291.3,261.9,292,260.9,292,260.9z"/>
					</g>
					<g>
						<path fill="#FFCD8A" d="M328.2,238.1c0.3-0.6,0.4-1.3,0.2-2.1c-3.6-13.2-16-18.9-30.9-12.4c-1.9,0.8-3,2.4-2.6,4.1
							c1.1,4.4,3.4,8.2,5.6,12c1.3,2.2,3.3,6.3,1.8,8.6c1.4-2.2,5.3-3.8,8.8-4.3c5.1-0.7,10.7-2.2,15-3.9
							C327.2,239.8,327.9,239,328.2,238.1z M298.3,226.6c13.2-6.2,24-1.4,26.7,10.7C307.9,244,302,241.4,298.3,226.6z"/>
					</g>
					<g>
						<path fill="#FFCD8A" d="M314.2,226.6c-3.2-1.3-7.4,0.2-9.3,3.4c-1.9,3.1-0.8,6.7,2.5,8c3.3,1.3,7.5-0.2,9.4-3.3
							C318.5,231.4,317.4,227.8,314.2,226.6z M309.2,233.2c-1.1-0.4-1.5-1.7-0.9-2.8c0.7-1.1,2.1-1.6,3.3-1.2
							c1.1,0.4,1.5,1.7,0.9,2.8C311.9,233.1,310.4,233.6,309.2,233.2z"/>
					</g>
					<g>
						<path fill="#FFCD8A" d="M345.6,236.1c0.9-3,1.8-5.9,2.7-8.9c0.4-1.4-0.5-2.9-1.8-3.4c-5.1-1.9-9.8-3.1-12.5-7.8
							c-1.8-3.1-2.2-7.5-4.5-10.1c-0.9-1.1-2.2-1.4-3.8-0.9c-3.7,1.2-7.4,2.3-11.1,3.5c-1.5,0.5-3,0.9-4.6,1.4
							c-1-0.4-1.9-0.8-2.9-1.2c-2.2-0.9-7.8-4.6-10.9-2.5c-3.2,2.2-5.8,5.6-8.4,8.4c-1.4,1.5-1.3,3.1-0.4,4.1c0.4,0.9,1.4,1.4,3,1.1
							c9.1-2.1,20.1-2.3,28,0.5c8.3,2.9,15.3,10.9,20.6,17.4C341.1,239.9,344.7,238.9,345.6,236.1z"/>
					</g>
					<g>
						<path fill="#FFCD8A" d="M345.8,278.4c2.1-3.8-4.9-6.5-7-2.7c-12,20.6-41.7,29-67.4,19.7c-25.2-9.2-31.2-33.3-17.2-52.6
							c2.6-3.7-3.7-6.2-6.4-2.5c-12.9,17.4-11.7,36.6,2.2,50c4,4.1,11.7,12.2,13.2,14.7c1.3,2.1,1.2,2.2,4.2,1.6
							c2.1-0.4,13.4-0.6,22.1-0.8c3.3,0.1,6.6,0.1,9.8-0.2c0,0,0.1,0,0.1,0l0,0C319.4,303.7,337.3,293.5,345.8,278.4z"/>
					</g>
				</g>
				<g>
					<g>
						<path fill="#FFCD8A" d="M248.1,320.7c-0.1,0-0.2-0.1-0.3-0.1c-0.4-0.2-0.8-0.3-1.1-0.5c-2.9-1.3-3.6-4.3-1.6-6.7
							c2-2.4,6-3.2,8.9-1.9c0.3,0.1,0.6,0.3,1,0.4c2.9,1.3,3.7,4.3,1.8,6.7C254.8,320.9,251,321.8,248.1,320.7z M268.8,327.1
							c-2.6-1-3.9-3.4-3-5.7c1.1-2.7,4.7-4.3,8-3.7c0.4,0.1,0.7,0.1,1.1,0.2c3.4,0.6,5.3,3.3,4.3,6c-1,2.7-4.5,4.4-8,3.8
							c-0.4-0.1-0.9-0.2-1.3-0.2C269.6,327.4,269.2,327.2,268.8,327.1z M230.2,309.8c-0.6-0.2-1.1-0.5-1.6-0.9
							c-0.3-0.2-0.6-0.5-0.9-0.7c-2.2-1.9-1.6-5,1.2-6.9c2.8-1.9,6.8-1.9,8.9,0c0.2,0.2,0.5,0.4,0.7,0.6c2.2,1.9,1.8,5-0.9,6.9
							C235.4,310.3,232.4,310.7,230.2,309.8z M292.6,329c-2.1-0.8-3.4-2.4-3.4-4.4c0-2.8,2.9-5.1,6.4-5.2c0.4,0,0.8,0,1.2,0
							c3.5-0.2,6.3,2,6.4,4.8c0.1,2.8-2.7,5.2-6.2,5.3c-0.5,0-0.9,0-1.4,0C294.5,329.5,293.5,329.4,292.6,329z M218.1,295.5
							c-1-0.4-1.9-1-2.4-1.9c-0.2-0.3-0.3-0.6-0.5-0.9c-1.2-2.3,0.5-5.2,3.8-6.6c3.3-1.3,6.9-0.5,8.1,1.8c0.1,0.3,0.3,0.5,0.4,0.8
							c1.3,2.3-0.3,5.3-3.5,6.6C221.9,296.1,219.8,296.1,218.1,295.5z M316.2,325.7c-1.5-0.6-2.7-1.6-3.3-3c-1-2.7,0.9-5.5,4.2-6.4
							c0.4-0.1,0.7-0.2,1.1-0.3c3.3-0.9,6.7,0.5,7.8,3.1c1.1,2.7-0.7,5.6-4,6.5c-0.4,0.1-0.8,0.2-1.3,0.3
							C319.2,326.3,317.6,326.2,316.2,325.7z M212.7,278.9c-1.5-0.6-2.5-1.6-2.6-3.1c0-0.3-0.1-0.7-0.1-1c-0.2-2.5,2.4-5.2,5.8-5.8
							c3.4-0.7,6.3,0.8,6.5,3.4c0,0.3,0.1,0.6,0.1,0.8c0.3,2.5-2.2,5.2-5.7,5.9C215.3,279.5,213.9,279.3,212.7,278.9z M337.2,317.2
							c-1-0.4-1.9-1-2.5-1.8c-1.9-2.3-1.1-5.5,1.7-7.1c0.3-0.2,0.6-0.4,0.9-0.5c2.8-1.6,6.5-1.1,8.4,1.2c1.9,2.3,1.3,5.6-1.5,7.2
							c-0.3,0.2-0.7,0.4-1.1,0.6C341.4,317.8,339.1,317.9,337.2,317.2z M214.3,261.2c-1.9-0.7-2.8-2.4-2.3-4.3
							c0.1-0.3,0.2-0.7,0.3-1c0.8-2.6,4.1-4.7,7.3-4.7c3.2,0,5.2,2.1,4.5,4.8c-0.1,0.3-0.2,0.6-0.2,0.9c-0.7,2.6-3.9,4.8-7.2,4.8
							C215.8,261.6,215,261.4,214.3,261.2z M354.1,304.2c-0.5-0.2-1-0.4-1.4-0.7c-2.5-1.8-2.9-5.1-0.8-7.3c0.2-0.2,0.5-0.5,0.7-0.7
							c2-2.2,5.7-2.6,8.3-0.9c2.5,1.8,3,5,1,7.3c-0.3,0.3-0.5,0.6-0.8,0.9C359.4,304.5,356.5,305.1,354.1,304.2z M222.2,243.5
							c-2.3-0.9-3-3.2-1.6-5.5c0.2-0.3,0.4-0.7,0.6-1c1.6-2.5,5.2-4,8-3.3c2.8,0.7,3.8,3.3,2.2,5.8c-0.2,0.3-0.3,0.6-0.5,0.8
							c-1.5,2.5-5.1,4.1-8,3.4C222.7,243.6,222.5,243.6,222.2,243.5z M365.7,287.5c-2.9-1.1-4.3-4.1-3-6.7l0.1-0.2
							c0.1-0.2,0.2-0.5,0.4-0.8c1.2-2.7,4.6-3.9,7.4-2.9c0,0,0.1,0,0.1,0c2.8,1.1,4.2,4.1,3,6.7c-0.2,0.3-0.3,0.7-0.5,1
							C372,287.3,368.6,288.6,365.7,287.5z M235.3,226.9c-0.2-0.1-0.4-0.2-0.5-0.3c-2.2-1.3-2.2-4.2,0-6.4c0.3-0.3,0.6-0.6,0.9-0.9
							c2.3-2.3,5.8-3.1,8-1.8c2.2,1.3,2.2,4.2,0,6.5c-0.2,0.3-0.5,0.5-0.7,0.8C240.9,227,237.6,227.8,235.3,226.9z M371.4,268.6
							c-2.2-0.9-3.6-3-3.3-5.4c0-0.3,0.1-0.6,0.1-0.9c0.4-2.8,3.2-4.9,6.2-4.6c3,0.3,5.1,2.8,4.8,5.7c0,0.4-0.1,0.7-0.1,1.1
							c-0.4,2.9-3.2,4.9-6.2,4.6C372.4,268.9,371.9,268.7,371.4,268.6z M252.1,212.6c-0.6-0.2-1.1-0.6-1.4-1
							c-1.5-1.8-0.6-4.8,2.1-6.7c0.3-0.2,0.7-0.5,1-0.7c2.7-1.9,6-1.9,7.4,0c1.5,1.9,0.5,4.9-2.1,6.8c-0.3,0.2-0.6,0.4-0.9,0.6
							C256.3,212.9,253.8,213.3,252.1,212.6z M371.6,249.1c-1.7-0.6-2.9-2.1-3.1-3.9c0-0.3-0.1-0.6-0.1-0.9c-0.4-2.8,1.7-5.5,4.6-6
							c2.9-0.5,5.6,1.3,6,4.1c0.1,0.4,0.1,0.7,0.2,1.1c0.4,2.8-1.7,5.5-4.6,6C373.4,249.6,372.4,249.5,371.6,249.1z M271,201.5
							c-0.9-0.4-1.6-1.1-2-2c-0.7-2.3,1-5.2,3.8-6.6c0.4-0.2,0.7-0.4,1.1-0.5c2.8-1.3,5.7-0.6,6.4,1.7c0.7,2.3-1,5.3-3.8,6.6
							c-0.3,0.1-0.6,0.3-0.9,0.4C274,202,272.3,202,271,201.5z M366.6,230.7c-1.2-0.5-2.1-1.3-2.6-2.6c-0.1-0.3-0.2-0.6-0.4-0.8
							c-1.1-2.5,0.2-5.6,2.9-6.9c2.6-1.3,5.6-0.3,6.7,2.3c0.1,0.3,0.3,0.7,0.4,1c1.1,2.6-0.2,5.6-2.9,6.9
							C369.3,231.2,367.8,231.2,366.6,230.7z M290.7,194.4c-1.3-0.5-2.2-1.7-2.2-3.2c0-2.6,2.3-5.2,5.1-6c0.4-0.1,0.7-0.2,1.1-0.3
							c2.8-0.7,5.1,0.8,5.1,3.4c0,2.6-2.3,5.3-5.1,6c-0.3,0.1-0.6,0.2-1,0.2C292.6,194.8,291.6,194.8,290.7,194.4z M357.3,214.7
							c-0.7-0.3-1.3-0.7-1.8-1.4c-0.2-0.2-0.4-0.5-0.5-0.7c-1.7-2.1-1.1-5.3,1.1-7.2c2.2-1.9,5.4-1.8,7,0.2c0.2,0.3,0.4,0.5,0.6,0.8
							c1.6,2.1,1.1,5.3-1.1,7.2C361,215.1,358.9,215.4,357.3,214.7z M310,191.9c-1.7-0.7-2.6-2.5-2.1-4.6c0.7-2.7,3.4-4.9,6.1-4.9
							c0.3,0,0.7,0,1,0c2.7,0,4.3,2.2,3.7,5c-0.6,2.7-3.4,4.9-6.1,4.9c-0.3,0-0.6,0-0.9,0C311,192.2,310.4,192.1,310,191.9z
							 M344.4,202.5c-0.3-0.1-0.6-0.3-0.8-0.5c-0.2-0.2-0.5-0.3-0.7-0.5c-2.1-1.4-2.4-4.5-0.6-6.9c1.8-2.4,4.9-3.2,7-1.7
							c0.3,0.2,0.5,0.4,0.8,0.6c2.1,1.5,2.3,4.6,0.6,7C349.1,202.5,346.5,203.3,344.4,202.5z M327.8,194.5c-2.2-0.9-3-3.5-1.8-6
							c1.3-2.6,4.3-4.2,6.7-3.5c0.3,0.1,0.6,0.2,0.9,0.3c2.4,0.8,3.4,3.5,2.1,6.2c-1.3,2.6-4.3,4.2-6.8,3.4
							c-0.3-0.1-0.5-0.2-0.8-0.3C328.1,194.5,328,194.5,327.8,194.5z"/>
					</g>
				</g>
			</g>
		</g>
	</g>
	<g>
		<path fill="#F7941E" d="M465.6,271.9c-2.3-8.2-8.3-16.6-15.1-21.9c-5.4-4.2-10.6-6.8-17.5-7.4c-5.7-0.6-12.8,2.2-16.3,6.6
			c-0.4,0.5-0.7,0.9-1.1,1.4c-0.5,0.5-1,1.1-1.4,1.7c-9.3,12.7-14.5,30.8-13.8,46.3c0.4,8.6,7,15.2,16,15.4c6,0.1,12.2-0.5,18-2.1
			c6.8-1.9,12.2-5.3,17.7-9.4c4.6-3.5,8.8-8.4,11.8-13.2C467.1,284.2,467.1,277.7,465.6,271.9z"/>
	</g>
	<g>
		<path fill="#F9AD5A" d="M460.2,268.1c-1.9-5.9-6.9-11.9-12.6-15.7c-4.5-3-8.8-4.8-14.6-5.3c-4.8-0.4-10.6,1.6-13.6,4.7
			c-0.3,0.3-0.6,0.7-0.9,1c-0.4,0.4-0.8,0.8-1.2,1.2c-7.8,9.1-12.1,22.1-11.5,33.2c0.4,6.1,5.8,10.9,13.4,11.1
			c5,0.1,10.2-0.3,15-1.5c5.7-1.4,10.2-3.8,14.8-6.7c3.9-2.5,7.3-6,9.8-9.5C461.5,276.8,461.5,272.2,460.2,268.1z"/>
	</g>
	<g>
		<path fill="#F7941E" d="M487.2,304.7c-3-3.8-9.2-5-13.1-1.7c-4.5,3.9-8.3,8.7-12,13.3c-4.2,5.1-8.7,10.6-11.5,16.6
			c-2.1,4.6,0.4,10.3,5,12.2c4.8,2,12.4-5.5,12.6-5.8c0,0,0,0,0,0c0.7-1.1,1.5-2.2,2.3-3.3c1.9-2.7,15-18.1,15.1-18.2
			C489.4,314.4,490.5,308.9,487.2,304.7z"/>
	</g>
	<g>
		<path fill="#F9AD5A" d="M478.4,308.9c-1.2-0.8-3.4-0.7-4.5,0.3c-1.3,1.2-10.4,14.2-11.4,15.6c-1.1,1.5-2.3,3.1-2.9,4.8
			c-0.4,1.3,0.8,2.5,2.4,2.7c1.7,0.2,3.8-2,3.9-2.1c0,0,0,0,0,0c0.2-0.3,0.4-0.6,0.6-0.9c0.5-0.8,12.1-16.9,12.1-17
			C479.7,311.2,479.7,309.8,478.4,308.9z"/>
	</g>
</g>
</svg>
