<?xml version="1.0" encoding="utf-8"?>
<!-- Generator: Adobe Illustrator 18.0.0, SVG Export Plug-In . SVG Version: 6.00 Build 0)  -->
<!DOCTYPE svg PUBLIC "-//W3C//DTD SVG 1.1//EN" "http://www.w3.org/Graphics/SVG/1.1/DTD/svg11.dtd">
<svg version="1.1" id="Layer_1" xmlns="http://www.w3.org/2000/svg" xmlns:xlink="http://www.w3.org/1999/xlink" x="0px" y="0px"
	 viewBox="0 0 640 640" enable-background="new 0 0 640 640" xml:space="preserve">
<g>
	<path opacity="0.4" fill="#231F20" d="M507.9,60.6c17,2.5,37.2,0.1,42,12.1c4.8,12,66.9,451.6,16.9,486.8
		c-50,35.2-142.2,59.5-259.1,59.5S99.1,585.8,64.5,538.2C29.9,490.6,89.4,94.8,104.4,67.8S507.9,60.6,507.9,60.6z"/>
	<g>
		<g>
			<path fill="#631E3A" d="M510.6,72.8c7.3,1.7,21.6,4.1,26.6,11.5c19.7,28.8,47.6,408.2,13.5,462.3c-22.7,35.9-137.7,55.9-257,55.3
				C187.1,601.3,73.4,564.7,71.2,495c-3.2-100.2,0.6-185.2,0.6-185.2"/>
		</g>
		<g>
			<g>
				<path fill="#F7941E" d="M505.4,219.1c-21.1,14.8-21.3,51.6-15.2,73.8c3,10.8,8.2,20.1,20.3,21.8c13.3,1.9,57.8-20.5,57.8-53.2
					S526.8,204.1,505.4,219.1z"/>
			</g>
		</g>
		<g>
			<g>
				<path fill="#D37C1E" d="M497.6,223.8c-18.9,13.3-19.1,46.3-13.6,66.2c2.7,9.7,7.4,18,18.2,19.5c11.9,1.7,51.9-18.4,51.9-47.7
					S516.8,210.4,497.6,223.8z"/>
			</g>
		</g>
		<g>
			<g>
				<path fill="#FFCD8A" d="M92.7,472.6C66.6,618,505.1,599.5,541.9,528.1c16.1-31.2,5.7-405-12-427.7S457,67.8,457,67.8"/>
			</g>
			<g>
				<g>
					<path fill="#FFCD8A" d="M91.9,472.4c-3.1,17.7,0.8,35.2,11.8,49.5c12.2,15.8,30.3,26.3,48.3,34c23.3,9.9,48.3,15.8,73.3,19.9
						c28.5,4.6,57.3,6.8,86.2,7.2c29.1,0.5,58.3-0.8,87.3-3.9c25.5-2.7,51-6.8,75.9-13.4c18.2-4.8,37-10.9,52.7-21.5
						c5.3-3.6,10.4-7.9,14-13.3c2.6-4,3.6-8.7,4.4-13.3c3.2-18.8,3.7-38.1,4.3-57.1c0.9-28.8,1-57.7,0.7-86.5
						c-0.3-32.6-1.1-65.1-2.3-97.7c-1.1-30.2-2.7-60.4-4.9-90.5c-1.6-21.7-3.3-43.5-6.9-65c-1-5.8-2-11.8-4.1-17.3
						c-1-2.6-2.4-4.4-4.3-6.4c-5.7-6.1-13.2-10.5-20.6-14.1c-15.7-7.7-33.1-12.9-50.3-16c-1.1-0.2-1.5,1.4-0.4,1.6
						c10.5,1.9,20.9,4.8,31,8.2c8.6,2.9,17.1,6.4,25,10.9c6,3.4,12.9,7.8,16.7,13.6c2.5,3.8,3.2,9,4.1,13.3
						c1.7,8.3,2.8,16.8,3.8,25.2c3,25.3,4.8,50.7,6.3,76.1c1.9,31.7,3.1,63.4,4,95.1c0.9,31.9,1.4,63.9,1.3,95.8
						c-0.1,26.1-0.4,52.2-1.9,78.2c-0.5,8.9-1.2,17.9-2.3,26.7c-0.7,5-1.3,10.6-3.3,15.2c-2.3,5.3-6.9,9.6-11.4,13.1
						c-6.4,5-13.6,8.7-21,12c-20.2,9-42,14.3-63.7,18.5c-27.1,5.2-54.7,8.2-82.3,9.7c-29.4,1.6-59,1.5-88.4-0.5
						c-27.8-2-55.5-5.7-82.6-12.4c-22.4-5.6-44.8-13.3-64.2-25.9c-15.1-9.8-28.5-23.3-33.5-41c-2.5-9-2.6-18.5-1-27.6
						C93.7,471.8,92.1,471.3,91.9,472.4L91.9,472.4z"/>
				</g>
			</g>
		</g>
		<g>
			<path fill="#912951" d="M503.4,48.2c17.7,24.4,57.1,443.5,15.1,469.1c-40.8,24.8-343.5,32.9-403.1-6.9S62.6,83.7,97,43.6
				S486,24.1,503.4,48.2z"/>
		</g>
		<g>
			<path fill="#631E3A" d="M203.7,245.7c0,145.3-31.1,308-88.3,264.8c-36.5-27.5-30.3,17-37.1-12.6C50.3,377.6,69.4,75.8,97,43.6
				C131.4,3.5,203.7,60.9,203.7,245.7z"/>
		</g>
		<g>
			<path fill="#F9AD5A" d="M541.4,516.8c-2.4,6.2-5.1,13.7-10.1,18.3c-1.9,1.7-4.4,2.9-6.7,3.9c-7.2,3.2-15,5.2-22.6,7
				c-11,2.6-22.2,4.5-33.3,6.2c-29.6,4.5-59.5,7-89.4,8.5c-34.2,1.7-68.6,2-102.8,0.5c-32.5-1.4-65.1-4.4-97.1-10.8
				c-23.9-4.8-48.8-11.3-69.7-24.3c1.9,1.9,4,3.8,6.1,5.7c11.5,6.1,24.2,10.3,36.2,13.8c29.4,8.4,60,12.5,90.3,15.1
				c34.2,2.9,68.6,3.6,103,2.9c32-0.7,64.1-2.6,95.9-6.1c23.3-2.6,46.8-5.7,69.4-11.9c6.4-1.8,13.1-3.8,18.9-7.2
				c3.8-2.3,6.2-5.8,8.3-9.7c3.4-6.2,5.8-13,8.1-19.7c0.3-2.4,0.6-5.1,0.8-7.9C545.2,506.3,543.4,511.6,541.4,516.8z"/>
			<path fill="#F9AD5A" d="M489,555.6c-25.5,4.9-51.5,7.8-77.4,9.8c-31.8,2.5-63.7,3.7-95.5,3.5c-32.4-0.2-64.8-1.7-96.9-5.5
				c-27.5-3.3-55.3-8.1-81.5-17.5c-0.5-0.2-1.1-0.4-1.6-0.6c3.4,1.9,6.9,3.6,10.6,5.3c0.6,0.2,1.2,0.4,1.8,0.6
				c27.5,8.3,56.2,12.5,84.7,15.3c32.5,3.2,65.2,4.3,97.8,4c31.3-0.2,62.7-1.7,93.9-4.6c24.5-2.3,49-5.2,73-10.5
				c4.7-1,9.3-2.1,13.9-3.4c3.2-1.5,6.2-3,9-4.6c-1.8,0.6-3.5,1.2-5.3,1.7C506.7,552,497.8,553.9,489,555.6z"/>
			<path fill="#F9AD5A" d="M316,575.7c-32.4-0.2-64.8-1.7-96.9-5.5c-9.5-1.1-18.9-2.4-28.4-4.1c6.9,1.8,14,3.4,21.3,4.9
				c7,0.9,14,1.7,21,2.4c32.5,3.2,65.2,4.3,97.8,4c31.3-0.2,62.7-1.7,93.9-4.6c10.8-1,21.7-2.2,32.5-3.6c6.4-1.4,12.6-2.9,18.5-4.4
				c-21.2,3.5-42.7,5.8-64.2,7.5C379.8,574.7,347.9,575.9,316,575.7z"/>
			<path fill="#F9AD5A" d="M238.1,554.2c33.4,3.3,67.1,4.3,100.7,4c31.7-0.3,63.5-2,95.1-5.2c23.8-2.5,47.9-5.6,71.1-11.6
				c7.2-1.9,14.4-4,21.1-7.4c2.1-1.1,4.5-2.4,6.1-4.2c3.4-3.7,5.3-8.8,6.9-13.5c5.4-16.4,6.8-34.3,8.1-51.4
				c1.8-24.8,2-49.8,1.7-74.6c-0.7-57.5-4.8-115-8.1-172.4c-2-33.9-3.9-67.8-5.9-101.7c-0.7-3.8-1.5-7-2.2-9.6c1.4,24,2.8,48,4.2,72
				c3.3,56.2,7.1,112.4,9.2,168.6c1,27.2,1.5,54.4,1,81.7c-0.4,21.7-1.4,43.6-4.7,65.1c-1.2,7.5-2.6,14.9-5,22.1
				c-1.4,4.4-3.4,9.9-6.9,13c-4.4,3.8-10.4,5.8-15.8,7.6c-20.7,6.9-42.8,10-64.4,12.7c-30.5,3.8-61.2,5.8-91.9,6.7
				c-33.7,1-67.4,0.5-101-2c-30.9-2.2-61.9-6-92-13.4c-22.3-5.5-46.1-12.9-64.2-27.5c-1-0.8-2-1.7-3-2.6c0.9,1.6,1.8,3.1,2.8,4.7
				c14.2,11.4,32.4,18,49.5,23.2C178.8,547,208.6,551.4,238.1,554.2z"/>
			<path fill="#F9AD5A" d="M151.2,532.2c28.8,8.6,58.8,12.9,88.6,15.7c33.5,3.1,67.3,4.1,100.9,3.5c31.4-0.5,62.9-2.3,94.1-5.8
				c22.9-2.6,46.2-5.7,68.4-12.3c6.5-1.9,13.2-4.1,18.9-7.7c9.3-5.9,12.8-18.5,15.4-28.6c5.6-22.3,6.9-45.9,7.6-68.8
				c0.7-22.3,0.3-44.7-0.3-67.1c-1.1-44.2-3.5-88.4-6.5-132.5c-2.4-34.9-5.1-69.9-8.2-104.7c-0.8-8.7-1.6-17.4-2.4-26.1
				c-0.6-0.6-1.2-1.2-1.9-1.9c1.4,14.2,2.6,28.5,3.9,42.8c3.2,37.7,6.1,75.4,8.4,113.1c2.8,44.1,4.9,88.4,5.5,132.6
				c0.3,24.1,0.3,48.2-1.7,72.2c-0.9,11.2-2.3,22.4-4.5,33.4c-1.6,8-3.7,16.2-7.4,23.5c-1.9,3.9-4.4,7.6-8,10.1
				c-2.3,1.6-4.9,2.8-7.5,4c-7.7,3.3-16,5.4-24.2,7.3c-25.1,5.8-50.8,8.8-76.4,11.1c-32.4,2.8-65,4-97.5,3.8
				c-33.3-0.2-66.7-2-99.7-6.2c-28.1-3.6-56.6-8.9-83.2-19.2c-13-5-26-11.5-36.3-21.1l-3-0.7c0,0.1,0.1,0.2,0.1,0.3
				C109.5,518.1,131.1,526.2,151.2,532.2z"/>
			<path fill="#F9AD5A" d="M228.9,541.5c32,3.4,64.2,4.6,96.4,4.5c30.8-0.1,61.7-1.5,92.3-4.4c24-2.3,48.1-5.3,71.6-10.8
				c7.8-1.8,15.6-3.9,23-7c4.7-2,9.2-4.3,12.4-8.3c3.8-4.8,6.1-10.8,7.9-16.6c2.6-8.3,4.1-17,5.3-25.6c3.3-23.6,4.1-47.6,4.3-71.4
				c0.3-29-0.6-58.1-2-87.1c-1.4-29.7-3.4-59.3-5.7-88.9c-2-25.6-4.3-51.2-6.8-76.8c-1.7-17-3.4-33.9-5.3-50.9
				c-0.2-1.9-0.4-3.8-0.6-5.7c-0.6-0.5-1.2-0.9-1.8-1.3c0.7,5.7,1.3,11.3,1.9,17c2.1,19.6,4.1,39.3,5.9,59
				c2.5,27.1,4.8,54.2,6.8,81.3c2.1,29.9,3.9,59.8,5,89.8c1,28.1,1.5,56.3,0.6,84.4c-0.7,21.7-1.9,43.8-6.4,65.1
				c-1.5,7.1-3.4,14.3-6.6,20.9c-2.2,4.5-5.1,8.3-9.4,10.8c-5.8,3.4-12.4,5.5-18.8,7.3c-9.5,2.7-19.2,4.7-29,6.5
				c-26.5,4.7-53.4,7.3-80.2,9.1c-31.8,2.1-63.6,2.7-95.4,1.9c-31.6-0.8-63.2-3.1-94.4-7.9c-25.9-4-52.2-9.6-76.2-20.2
				c-7.1-3.1-14.1-6.8-20.5-11.3l-4.3-1c13.5,10.6,30.5,17.1,46.6,22.1C172.3,534.2,200.7,538.6,228.9,541.5z"/>
		</g>
		<g>
			<g>
				<g>
					<path fill="#FFCD8A" d="M322.3,226.4c-0.3-20.9,7.6-27.4,26.7-40.6c19.1-13.2,32.6-19.1,32.1-27.6
						c14.3,19.1,19.1,19.9,19.1,36.2s-32.9,37.5-45,37.5c20.3,0,26.1,19.1,9.3,33.9c-5.9,5.2-18,12.9-19.7,13.4
						c-1.7,0.5-22.5-12.1-22.5-31.5S322.3,226.4,322.3,226.4z"/>
				</g>
				<g>
					<path fill="#FFCD8A" d="M316.9,226.4c0.3-20.9-7.6-27.4-26.7-40.6c-19.1-13.2-32.6-19.1-32.1-27.6
						c-14.3,19.1-19.1,19.9-19.1,36.2s32.9,37.5,45,37.5c-20.3,0-26.1,19.1-9.3,33.9c5.9,5.2,18,12.9,19.7,13.4
						c1.7,0.5,22.5-12.1,22.5-31.5S316.9,226.4,316.9,226.4z"/>
				</g>
				<g>
					<path fill="#FFCD8A" d="M348,172.8c-0.1-1.1-0.5-2.1-1.4-3.1c-16-17.2-39.3-18.3-55.2-0.4c-2,2.2-2.1,5.3,0,7.5
						c5.6,5.7,12.2,9.9,18.8,14.2c3.7,2.4,10,7.3,10,11.5c0-3.9,4.1-8.6,8.5-11.2c6.6-3.9,13.2-9.3,17.9-14.1
						C347.9,175.7,348.3,174.2,348,172.8z M295.2,173c13.6-16.5,33.6-15.7,47.6,0.4C324.2,192.9,313.6,192.5,295.2,173z"/>
				</g>
				<g>
					<path fill="#FFCD8A" d="M318.2,164c-5.8,0-10.5,4.6-10.5,10.2c0,5.6,4.7,10.2,10.5,10.2s10.5-4.6,10.5-10.2
						C328.6,168.5,324,164,318.2,164z M316.8,176.3c-2,0-3.7-1.6-3.7-3.6c0-2,1.6-3.6,3.7-3.6c2,0,3.7,1.6,3.7,3.6
						C320.4,174.7,318.8,176.3,316.8,176.3z"/>
				</g>
				<g>
					<path fill="#FFCD8A" d="M371.4,159.8c-0.9-4.8-1.8-9.7-2.7-14.5c-0.4-2.3-3-3.9-5.2-3.9c-9,0.1-17,1-24.9-4.2
						c-5.2-3.4-9.5-9.6-15.3-12.1c-2.4-1.1-4.6-0.9-6.6,0.8c-4.6,3.8-9.2,7.6-13.8,11.5c-1.9,1.6-3.7,3.1-5.6,4.7
						c-1.8,0-3.6,0-5.4-0.1c-4.2,0-16.2-2.2-18.7,2.7c-2.6,5-3.2,11.5-4.3,17c-0.6,3,1.1,5.2,3.4,6.1c1.5,1,3.4,1.3,5.4-0.2
						c11.3-8.2,27.4-14.8,41.5-15.4c14.8-0.6,31.4,7.1,44.3,13.5C367.8,168,372.2,164.4,371.4,159.8z"/>
				</g>
				<g>
					<path fill="#FFCD8A" d="M402.2,221.5c0.1-6.8-11.1-6.8-11.3,0c-0.8,36.8-31.7,65.8-71,66.5c-39.3,0.7-70.2-30.8-71-66.5
						c-0.1-6.8-11.4-6.8-11.3,0c0.7,32.3,21.5,59.4,51.2,71c8.6,3.7,25.1,11.1,29.1,14c3.3,2.4,3.3,2.5,6.5,0
						c2.2-1.7,15.8-8.4,26.3-13.4c4.1-1.6,8.1-3.6,11.9-5.8c0,0,0.1,0,0.1-0.1l0,0C386.1,273.4,401.6,248.4,402.2,221.5z"/>
				</g>
			</g>
			<g>
				<g>
					<path fill="#FFCD8A" d="M313.7,337.8c-0.2,0-0.3,0-0.5,0c-0.6,0-1.2-0.1-1.8-0.1c-4.6-0.3-8-4.3-7.7-8.9c0.3-4.6,4.3-8,8.9-7.7
						c0.5,0,1,0.1,1.5,0.1c4.6,0.3,8.1,4.2,7.8,8.7C321.8,334.4,318.1,337.8,313.7,337.8z M343.2,335.7c-3.9,0-7.3-2.7-8.1-6.6
						c-0.9-4.5,2-8.9,6.5-9.8c0.5-0.1,1-0.2,1.5-0.3c4.5-1,8.9,1.8,9.9,6.3c1,4.5-1.8,8.9-6.3,9.9c-0.6,0.1-1.2,0.2-1.7,0.4
						C344.3,335.6,343.7,335.7,343.2,335.7z M283.1,331.9c-0.9,0-1.8-0.1-2.7-0.4c-0.6-0.2-1.1-0.4-1.7-0.6c-4.3-1.5-6.6-6.3-5-10.6
						c1.5-4.3,6.3-6.6,10.6-5c0.5,0.2,1,0.3,1.4,0.5c4.3,1.5,6.7,6.2,5.2,10.5C289.8,329.7,286.6,331.9,283.1,331.9z M372.6,325.3
						c-3,0-5.9-1.6-7.4-4.5c-2.1-4.1-0.5-9.1,3.6-11.2c0.5-0.2,0.9-0.5,1.4-0.7c4-2.2,9.1-0.6,11.2,3.4c2.2,4,0.6,9.1-3.4,11.2
						c-0.5,0.3-1,0.6-1.6,0.8C375.2,325,373.9,325.3,372.6,325.3z M255.3,317.9c-1.6,0-3.3-0.5-4.7-1.5c-0.5-0.3-1-0.7-1.4-1
						c-3.7-2.7-4.6-7.8-2-11.6c2.7-3.7,7.8-4.6,11.6-2c0.4,0.3,0.8,0.6,1.2,0.9c3.8,2.6,4.7,7.8,2.1,11.5
						C260.5,316.6,257.9,317.9,255.3,317.9z M398.1,307.3c-2.2,0-4.4-0.9-6.1-2.6c-3.1-3.4-2.9-8.6,0.4-11.7c0.4-0.3,0.7-0.7,1.1-1
						c3.3-3.2,8.6-3.1,11.7,0.2c3.2,3.3,3.1,8.6-0.2,11.7c-0.4,0.4-0.9,0.8-1.3,1.2C402.1,306.6,400.1,307.3,398.1,307.3z
						 M232.3,296.9c-2.4,0-4.7-1-6.4-3c-0.4-0.5-0.8-0.9-1.1-1.4c-2.9-3.6-2.3-8.8,1.2-11.7c3.6-2.9,8.8-2.3,11.7,1.2
						c0.3,0.4,0.6,0.8,1,1.2c2.9,3.5,2.5,8.7-1,11.7C236,296.3,234.2,296.9,232.3,296.9z M417.8,283.2c-1.5,0-3-0.4-4.3-1.2
						c-3.9-2.4-5.1-7.5-2.8-11.4c0.3-0.4,0.5-0.9,0.8-1.3c2.3-3.9,7.4-5.2,11.4-2.9c3.9,2.3,5.2,7.4,2.9,11.4
						c-0.3,0.5-0.6,1-0.9,1.5C423.3,281.8,420.6,283.2,417.8,283.2z M215.7,270.5c-3.2,0-6.2-1.8-7.6-4.9c-0.2-0.5-0.5-1.1-0.7-1.6
						c-1.8-4.2,0.1-9.1,4.3-10.9c4.2-1.8,9.1,0.1,10.9,4.3c0.2,0.5,0.4,0.9,0.6,1.4c1.9,4.2,0,9.1-4.1,11
						C218,270.3,216.9,270.5,215.7,270.5z M430.3,254.7c-0.7,0-1.5-0.1-2.3-0.3c-4.4-1.2-7-5.8-5.7-10.2c0.1-0.5,0.3-1,0.4-1.5
						c1.2-4.4,5.7-7.1,10.2-5.9c4.4,1.2,7.1,5.7,5.9,10.2c-0.2,0.6-0.3,1.1-0.5,1.7C437.2,252.3,433.9,254.7,430.3,254.7z
						 M206.9,240.6c-4,0-7.6-3-8.2-7.1c-0.1-0.6-0.2-1.2-0.2-1.8c-0.6-4.5,2.6-8.7,7.1-9.3c4.6-0.6,8.7,2.6,9.3,7.1
						c0.1,0.5,0.1,1,0.2,1.5c0.7,4.5-2.4,8.8-7,9.4C207.7,240.6,207.3,240.6,206.9,240.6z M434.6,223.7c-4.6,0-8.3-3.6-8.3-8.2
						l0-0.4c0-0.4,0-0.9,0-1.4c-0.1-4.6,3.6-8.4,8.2-8.4c0,0,0.1,0,0.1,0c4.5,0,8.2,3.6,8.3,8.2c0,0.6,0,1.2,0,1.8
						C442.9,219.8,439.1,223.7,434.6,223.7z M206.5,209.4c-0.3,0-0.7,0-1-0.1c-4.6-0.6-7.8-4.7-7.2-9.2c0.1-0.6,0.1-1.2,0.2-1.8
						c0.6-4.5,4.8-7.7,9.4-7.1c4.5,0.6,7.7,4.8,7.1,9.4c-0.1,0.5-0.1,1-0.2,1.5C214.2,206.4,210.6,209.4,206.5,209.4z M430.3,192.7
						c-3.6,0-7-2.4-8-6.1c-0.1-0.5-0.3-1-0.4-1.5c-1.3-4.4,1.2-9,5.6-10.3c4.4-1.3,9,1.2,10.3,5.6c0.2,0.6,0.3,1.1,0.5,1.7
						c1.2,4.4-1.4,9-5.8,10.2C431.8,192.6,431.1,192.7,430.3,192.7z M214.5,179.3c-1.1,0-2.2-0.2-3.2-0.6c-4.2-1.8-6.2-6.6-4.5-10.9
						c0.2-0.5,0.5-1.1,0.7-1.6c1.8-4.2,6.7-6.1,10.9-4.3c4.2,1.8,6.1,6.7,4.3,10.9c-0.2,0.5-0.4,0.9-0.6,1.4
						C220.8,177.4,217.7,179.3,214.5,179.3z M417.9,164.1c-2.8,0-5.5-1.4-7.1-4c-0.3-0.4-0.5-0.9-0.8-1.3c-2.4-3.9-1.3-9,2.6-11.4
						c3.9-2.4,9-1.3,11.4,2.6c0.3,0.5,0.6,1,0.9,1.5c2.4,3.9,1.1,9-2.8,11.4C420.9,163.7,419.4,164.1,417.9,164.1z M230.3,152.5
						c-1.8,0-3.6-0.6-5.1-1.8c-3.6-2.8-4.2-8.1-1.4-11.7c0.4-0.5,0.7-0.9,1.1-1.4c2.9-3.5,8.1-4.1,11.7-1.2
						c3.5,2.9,4.1,8.1,1.2,11.7c-0.3,0.4-0.6,0.8-0.9,1.2C235.2,151.4,232.8,152.5,230.3,152.5z M398.2,139.9c-2,0-4.1-0.7-5.7-2.2
						c-0.4-0.3-0.7-0.7-1.1-1c-3.4-3.1-3.6-8.3-0.6-11.7c3.1-3.4,8.3-3.6,11.7-0.6c0.4,0.4,0.9,0.8,1.3,1.2
						c3.3,3.1,3.5,8.4,0.4,11.7C402.7,139,400.5,139.9,398.2,139.9z M252.8,130.9c-2.6,0-5.1-1.2-6.7-3.4c-2.7-3.7-1.9-8.9,1.8-11.6
						c0.5-0.3,1-0.7,1.4-1c3.7-2.6,8.9-1.8,11.6,2c2.6,3.7,1.8,8.9-2,11.6c-0.4,0.3-0.8,0.6-1.2,0.9
						C256.2,130.4,254.5,130.9,252.8,130.9z M372.8,121.9c-1.3,0-2.6-0.3-3.8-0.9c-0.4-0.2-0.9-0.5-1.3-0.7c-4.1-2-5.8-7-3.7-11.1
						c2-4.1,7-5.8,11.1-3.7c0.5,0.3,1.1,0.5,1.6,0.8c4.1,2.1,5.6,7.1,3.5,11.2C378.7,120.3,375.8,121.9,372.8,121.9z M280.3,116.2
						c-3.4,0-6.5-2.1-7.8-5.4c-1.6-4.3,0.6-9.1,4.9-10.7c0.6-0.2,1.1-0.4,1.7-0.6c4.3-1.5,9.1,0.7,10.6,5c1.5,4.3-0.7,9.1-5,10.6
						c-0.5,0.2-1,0.3-1.4,0.5C282.2,116,281.3,116.2,280.3,116.2z M343.5,111.5c-0.6,0-1.1-0.1-1.7-0.2c-0.5-0.1-1-0.2-1.5-0.3
						c-4.5-0.9-7.5-5.2-6.6-9.7c0.9-4.5,5.2-7.4,9.7-6.6c0.6,0.1,1.2,0.2,1.7,0.3c4.5,0.9,7.4,5.3,6.4,9.8
						C350.8,108.8,347.3,111.5,343.5,111.5z M310.7,109.5c-4.3,0-7.9-3.3-8.3-7.6c-0.4-4.6,3-8.6,7.6-8.9c0.6,0,1.2-0.1,1.8-0.1
						c4.6-0.3,8.5,3.2,8.8,7.7c0.3,4.6-3.2,8.5-7.7,8.8c-0.5,0-1,0.1-1.5,0.1C311.2,109.4,310.9,109.5,310.7,109.5z"/>
				</g>
			</g>
		</g>
		<g>
			<path fill="#FFCD8A" d="M232.8,449.1c0,3.1-0.6,5.8-1.7,8.1c-1.1,2.3-2.7,4.2-4.6,5.8c-1.9,1.6-4.1,2.9-6.6,3.9
				c-2.5,1-5.1,1.8-7.8,2.3c-2.7,0.6-5.4,0.9-8.2,1.1c-2.7,0.2-5.3,0.3-7.7,0.3c-2.3,0-4.8-0.1-7.3-0.3c-2.5-0.2-5-0.5-7.5-0.9
				c-2.5-0.4-4.9-1-7.3-1.7c-2.4-0.7-4.7-1.6-6.8-2.6l-0.1-72.8c2.1-0.9,4.4-1.6,6.7-2.3c2.4-0.7,4.8-1.3,7.3-1.8
				c2.5-0.5,4.9-0.8,7.4-1.1c2.4-0.2,4.8-0.4,7.1-0.4c2.7,0,5.4,0.2,8.1,0.5c2.7,0.3,5.4,0.9,7.9,1.7c2.5,0.8,4.9,1.8,7.1,3.1
				c2.2,1.3,4.1,2.8,5.7,4.7c1.6,1.8,2.9,4,3.8,6.4c0.9,2.4,1.4,5.3,1.4,8.5c0,2.1-0.3,4.1-0.9,5.9c-0.6,1.8-1.5,3.5-2.6,5
				c-1.1,1.5-2.5,2.7-4.1,3.8c-1.6,1-3.4,1.8-5.5,2.3c2.4,0.6,4.7,1.6,6.7,2.8c2,1.2,3.7,2.8,5.1,4.5c1.4,1.8,2.5,3.8,3.3,6
				C232.4,444.2,232.8,446.6,232.8,449.1z M196.1,435.4c-1.1,0-2.1,0.1-3.2,0.3l-0.2,12.9c0.6,0.1,1.1,0.2,1.7,0.3
				c0.5,0.1,1.1,0.1,1.6,0.1c0.8,0,1.7-0.1,2.6-0.3c0.9-0.2,1.8-0.5,2.7-1c0.8-0.5,1.5-1.2,2.1-2.1c0.5-0.9,0.8-2,0.8-3.4
				c0-1.4-0.3-2.6-0.8-3.5c-0.5-0.9-1.2-1.6-2-2.1s-1.7-0.8-2.6-1C197.8,435.4,196.9,435.4,196.1,435.4z M204.1,416.9
				c0-1.1-0.2-2-0.7-2.8c-0.5-0.8-1-1.4-1.7-1.9c-0.7-0.5-1.4-0.8-2.1-1.1c-0.8-0.2-1.5-0.3-2.1-0.3c-0.8,0-1.5,0.1-2.2,0.3
				c-0.7,0.2-1.4,0.5-2.1,0.8l-0.3,12.5c0.9,0,1.9-0.1,3.2-0.2c1.3-0.2,2.5-0.5,3.7-1c1.2-0.5,2.2-1.3,3-2.3
				C203.7,420,204.1,418.7,204.1,416.9z"/>
			<path fill="#FFCD8A" d="M304.4,426c0,3.4-0.4,6.7-1.2,9.9c-0.8,3.2-1.9,6.2-3.4,9c-1.5,2.8-3.3,5.3-5.4,7.7
				c-2.1,2.3-4.5,4.3-7.2,6c-2.7,1.7-5.5,2.9-8.7,3.9c-3.1,0.9-6.4,1.4-9.9,1.4c-3.4,0-6.6-0.4-9.7-1.3c-3.1-0.9-5.9-2.1-8.6-3.6
				c-2.7-1.6-5.1-3.4-7.3-5.7c-2.2-2.2-4-4.7-5.5-7.3c-1.5-2.7-2.7-5.6-3.6-8.7c-0.8-3.1-1.3-6.3-1.3-9.7c0-3.3,0.4-6.5,1.2-9.6
				c0.8-3.1,1.9-6.1,3.4-8.9c1.5-2.8,3.3-5.3,5.4-7.7c2.1-2.3,4.5-4.4,7.1-6c2.6-1.7,5.5-3,8.5-4c3.1-0.9,6.3-1.4,9.7-1.4
				c5.5,0,10.4,0.8,14.9,2.5c4.5,1.7,8.3,4.1,11.5,7.3c3.2,3.1,5.7,7,7.4,11.4C303.5,415.5,304.4,420.5,304.4,426z M279.3,427.4
				c0-1.6-0.2-3.2-0.7-4.7c-0.5-1.5-1.2-2.9-2.1-4.1c-0.9-1.2-2-2.1-3.4-2.9c-1.3-0.7-2.9-1.1-4.6-1.1c-1.8,0-3.4,0.3-4.7,1
				c-1.4,0.6-2.6,1.5-3.6,2.6c-1,1.1-1.8,2.4-2.3,3.9c-0.5,1.5-0.8,3.1-0.8,4.7c0,1.6,0.2,3.2,0.7,4.7s1.1,3,2,4.3
				c0.9,1.3,2,2.3,3.4,3.1c1.3,0.8,2.9,1.2,4.7,1.2c1.8,0,3.4-0.3,4.8-1c1.4-0.7,2.6-1.6,3.6-2.8c1-1.2,1.7-2.6,2.3-4.1
				C279,430.7,279.3,429.1,279.3,427.4z"/>
			<path fill="#FFCD8A" d="M378.2,426c0,3.4-0.4,6.7-1.2,9.9c-0.8,3.2-1.9,6.2-3.4,9c-1.5,2.8-3.3,5.3-5.4,7.7
				c-2.1,2.3-4.5,4.3-7.2,6c-2.7,1.7-5.5,2.9-8.7,3.9c-3.1,0.9-6.4,1.4-9.9,1.4c-3.4,0-6.6-0.4-9.7-1.3c-3.1-0.9-5.9-2.1-8.6-3.6
				c-2.7-1.6-5.1-3.4-7.3-5.7c-2.2-2.2-4-4.7-5.5-7.3c-1.5-2.7-2.7-5.6-3.6-8.7c-0.8-3.1-1.3-6.3-1.3-9.7c0-3.3,0.4-6.5,1.2-9.6
				c0.8-3.1,1.9-6.1,3.4-8.9c1.5-2.8,3.3-5.3,5.4-7.7c2.1-2.3,4.5-4.4,7.1-6c2.6-1.7,5.5-3,8.5-4c3.1-0.9,6.3-1.4,9.7-1.4
				c5.5,0,10.4,0.8,14.9,2.5c4.5,1.7,8.3,4.1,11.5,7.3c3.2,3.1,5.7,7,7.4,11.4C377.3,415.5,378.2,420.5,378.2,426z M353.1,427.4
				c0-1.6-0.2-3.2-0.7-4.7c-0.5-1.5-1.2-2.9-2.1-4.1c-0.9-1.2-2-2.1-3.4-2.9c-1.3-0.7-2.9-1.1-4.6-1.1c-1.8,0-3.4,0.3-4.7,1
				c-1.4,0.6-2.6,1.5-3.6,2.6c-1,1.1-1.8,2.4-2.3,3.9c-0.5,1.5-0.8,3.1-0.8,4.7c0,1.6,0.2,3.2,0.7,4.7c0.5,1.6,1.1,3,2,4.3
				c0.9,1.3,2,2.3,3.4,3.1c1.3,0.8,2.9,1.2,4.7,1.2c1.8,0,3.4-0.3,4.8-1c1.4-0.7,2.6-1.6,3.6-2.8c1-1.2,1.7-2.6,2.3-4.1
				C352.8,430.7,353.1,429.1,353.1,427.4z"/>
			<path fill="#FFCD8A" d="M451,396.2l-25,29.7l22.9,38.9l-26.2,4.6l-17.2-23.3l-0.9,22.2l-23.5,0.9l1.8-80.9l26.3,1.5l-2,23.3
				l16.4-23.6L451,396.2z"/>
		</g>
		<g>
			<g>
				<path fill="#F7941E" d="M494.2,223.8c-18.9,13.3-19.1,46.3-13.6,66.2c2.7,9.7,7.4,18,18.2,19.5c11.9,1.7,51.9-18.4,51.9-47.7
					S513.4,210.4,494.2,223.8z"/>
			</g>
		</g>
		<g>
			<g>
				<path fill="#F9AD5A" d="M503.4,233.1c-10.2,7.2-10.3,25-7.3,35.8c1.5,5.2,4,9.7,9.8,10.6c6.4,0.9,28.1-9.9,28.1-25.8
					S513.7,225.8,503.4,233.1z"/>
			</g>
		</g>
	</g>
</g>
</svg>
