<?xml version="1.0" encoding="utf-8"?>
<!-- Generator: Adobe Illustrator 18.0.0, SVG Export Plug-In . SVG Version: 6.00 Build 0)  -->
<!DOCTYPE svg PUBLIC "-//W3C//DTD SVG 1.1//EN" "http://www.w3.org/Graphics/SVG/1.1/DTD/svg11.dtd">
<svg version="1.1" id="Layer_1" xmlns="http://www.w3.org/2000/svg" xmlns:xlink="http://www.w3.org/1999/xlink" x="0px" y="0px"
	 viewBox="0 0 640 640" enable-background="new 0 0 640 640" xml:space="preserve">
<g>
	<g>
		
			<ellipse transform="matrix(0.9926 0.1215 -0.1215 0.9926 33.3571 -48.6994)" fill="#C17A2D" cx="415.9" cy="249.1" rx="15.9" ry="10.5"/>
		
			<ellipse transform="matrix(0.9926 0.1215 -0.1215 0.9926 33.3571 -48.6994)" fill="#F7941E" cx="415.9" cy="249.1" rx="13.3" ry="8.8"/>
		<ellipse fill="#C17A2D" cx="410.8" cy="247.9" rx="14.8" ry="11.7"/>
		<ellipse fill="#F7941E" cx="410.8" cy="247.9" rx="12.3" ry="9.8"/>
		<ellipse fill="#C17A2D" cx="405.1" cy="249.6" rx="14.8" ry="11.7"/>
		<ellipse fill="#F7941E" cx="405.1" cy="249.6" rx="12.3" ry="9.8"/>
		<ellipse fill="#C17A2D" cx="400" cy="250.7" rx="14.8" ry="11.7"/>
		<ellipse fill="#F7941E" cx="400" cy="250.7" rx="12.3" ry="9.8"/>
		<path fill="#C17A2D" d="M400.2,251.5c0-1.9,0.7-2.5,2.4-3.6c1.7-1.2,2.9-1.7,2.9-2.5c1.3,1.7,1.7,1.8,1.7,3.2s-2.9,3.4-4,3.4
			c1.8,0,2.3,1.7,0.8,3c-0.5,0.5-1.6,1.2-1.8,1.2s-2-1.1-2-2.8C400.2,251.7,400.2,251.5,400.2,251.5z"/>
		<path fill="#C17A2D" d="M399.7,251.5c0-1.9-0.7-2.5-2.4-3.6c-1.7-1.2-2.9-1.7-2.9-2.5c-1.3,1.7-1.7,1.8-1.7,3.2s2.9,3.4,4,3.4
			c-1.8,0-2.3,1.7-0.8,3c0.5,0.5,1.6,1.2,1.8,1.2s2-1.1,2-2.8C399.7,251.7,399.7,251.5,399.7,251.5z"/>
		<path fill="#C17A2D" d="M402.5,246.7c0-0.1,0-0.2-0.1-0.3c-1.4-1.5-3.5-1.6-4.9,0c-0.2,0.2-0.2,0.5,0,0.7c0.5,0.5,1.1,0.9,1.7,1.3
			c0.3,0.2,0.9,0.7,0.9,1c0-0.4,0.4-0.8,0.8-1c0.6-0.3,1.2-0.8,1.6-1.3C402.5,247,402.6,246.9,402.5,246.7z M397.8,246.8
			c1.2-1.5,3-1.4,4.3,0C400.4,248.5,399.5,248.5,397.8,246.8z"/>
		<path fill="#C17A2D" d="M399.9,246c-0.5,0-0.9,0.4-0.9,0.9c0,0.5,0.4,0.9,0.9,0.9s0.9-0.4,0.9-0.9
			C400.8,246.4,400.4,246,399.9,246z M399.7,247.1c-0.2,0-0.3-0.1-0.3-0.3c0-0.2,0.1-0.3,0.3-0.3s0.3,0.1,0.3,0.3
			C400.1,246.9,399.9,247.1,399.7,247.1z"/>
		<path fill="#C17A2D" d="M404.6,245.6c-0.1-0.4-0.2-0.9-0.2-1.3c0-0.2-0.3-0.3-0.5-0.3c-0.8,0-1.5,0.1-2.2-0.4
			c-0.5-0.3-0.9-0.9-1.4-1.1c-0.2-0.1-0.4-0.1-0.6,0.1c-0.4,0.3-0.8,0.7-1.2,1c-0.2,0.1-0.3,0.3-0.5,0.4c-0.2,0-0.3,0-0.5,0
			c-0.4,0-1.4-0.2-1.7,0.2c-0.2,0.5-0.3,1-0.4,1.5c-0.1,0.3,0.1,0.5,0.3,0.5c0.1,0.1,0.3,0.1,0.5,0c1-0.7,2.5-1.3,3.7-1.4
			c1.3-0.1,2.8,0.6,4,1.2C404.3,246.3,404.7,246,404.6,245.6z"/>
		<path fill="#C17A2D" d="M407.4,251.1c0-0.6-1-0.6-1,0c-0.1,3.3-2.8,5.9-6.4,6c-3.5,0.1-6.3-2.8-6.4-6c0-0.6-1-0.6-1,0
			c0.1,2.9,1.9,5.3,4.6,6.4c0.8,0.3,2.2,1,2.6,1.3c0.3,0.2,0.3,0.2,0.6,0c0.2-0.2,1.4-0.7,2.4-1.2c0.4-0.1,0.7-0.3,1.1-0.5
			c0,0,0,0,0,0l0,0C405.9,255.8,407.3,253.5,407.4,251.1z"/>
		<path opacity="0.4" fill="#231F20" d="M75,442.6c2.6-0.4-19.1,2.2-5.7,13.9c12.1,10.5,94.6,6.7,104.7,1.7c17.1-8.5,2-20.3,2-20.3
			L75,442.6z"/>
		<path opacity="0.4" fill="#231F20" d="M195.6,432.4c0,0-15.1,17.3-17.1,29.6c-1.9,12.3,80.3,39.8,280,39.8
			c116.6,0,112.7-52.1,112.7-52.1"/>
		<g>
			<path fill="#C17A2D" d="M394.4,232.8c0.4,3.2-1.8,6.1-5,6.5l-87.8,11.6c-3.2,0.4-6.1-1.8-6.5-5l0,0c-0.4-3.2,1.8-6.1,5-6.5
				l87.8-11.6C391,227.4,393.9,229.6,394.4,232.8L394.4,232.8z"/>
			<path fill="#F7941E" d="M393.5,230.4c-1.2-1.8-3.3-2.9-5.6-2.6L300,239.4c-2.3,0.3-4.1,1.9-4.7,4L393.5,230.4z"/>
		</g>
		<g>
			<path fill="#C17A2D" d="M392.7,220.3c0.4,3.2-1.8,6.1-5,6.5l-87.8,11.6c-3.2,0.4-6.1-1.8-6.5-5l0,0c-0.4-3.2,1.8-6.1,5-6.5
				l87.8-11.6C389.4,214.9,392.3,217.1,392.7,220.3L392.7,220.3z"/>
			<path fill="#F7941E" d="M391.8,217.9c-1.2-1.8-3.3-2.9-5.6-2.6l-87.8,11.6c-2.3,0.3-4.1,1.9-4.7,4L391.8,217.9z"/>
		</g>
		<g>
			<path fill="#C17A2D" d="M413.3,205c0.4,3.2-1.8,6.1-5,6.5l-87.8,11.6c-3.2,0.4-6.1-1.8-6.5-5l0,0c-0.4-3.2,1.8-6.1,5-6.5
				l87.8-11.6C410,199.6,412.9,201.8,413.3,205L413.3,205z"/>
			<path fill="#F7941E" d="M412.5,202.6c-1.2-1.8-3.3-2.9-5.6-2.6L319,211.6c-2.3,0.3-4.1,1.9-4.7,4L412.5,202.6z"/>
		</g>
		<g>
			<path fill="#C17A2D" d="M411.7,192.5c0.4,3.2-1.8,6.1-5,6.5l-87.8,11.6c-3.2,0.4-6.1-1.8-6.5-5l0,0c-0.4-3.2,1.8-6.1,5-6.5
				l87.8-11.6C408.4,187.1,411.3,189.4,411.7,192.5L411.7,192.5z"/>
			<path fill="#F7941E" d="M410.8,190.1c-1.2-1.8-3.3-2.9-5.6-2.6l-87.8,11.6c-2.3,0.3-4.1,1.9-4.7,4L410.8,190.1z"/>
		</g>
		<path fill="#0E3173" d="M208.9,337.2c-6.1,40-7.1,34.3-14.8,59.3c-7.7,25,5.4,50.1,16.1,54.7s172.9,17.4,208.2,0
			s18.4-97.3,0-135.8c-18.4-38.4-10.8-53.8,1.5-56.9c12.3-3.1-7.7-24.2-33.8-18.2s-116.9,1.2-143.1-1.7s13.2,16.5,2.6,43.3
			C238.9,299.3,212.8,311.9,208.9,337.2z"/>
		<path fill="#0B244C" d="M378,241.7c-33.8,3.6-108.2,2.9-131.8,0.3c-21.9-2.4,2.2,10.8,4.3,31c0.1,0.1,0.1,0.1,0.2,0.2
			c2.7,2.7,5.6-3.8,0.9-10.9c-4.7-7.2-4.2-13.7,0.7-15.5c12.8-4.8,103.9,18.5,124.7,7.7C383.7,250.9,379,243.1,378,241.7z"/>
		<g>
			<g>
				<path fill="#FFCD8A" d="M332.1,372.6c-0.2-12.4,4.5-16.2,15.8-23.9s19.3-11.3,18.9-16.3c8.5,11.3,11.3,11.7,11.3,21.3
					c0,9.6-19.4,22.1-26.6,22.1c12,0,15.4,11.3,5.5,20c-3.5,3-10.6,7.6-11.6,7.9c-1,0.3-13.3-7.2-13.3-18.6S332.1,372.6,332.1,372.6
					z"/>
				<path fill="#FFCD8A" d="M328.8,372.6c0.2-12.4-4.5-16.2-15.8-23.9s-19.3-11.3-18.9-16.3c-8.5,11.3-11.3,11.7-11.3,21.3
					c0,9.6,19.4,22.1,26.6,22.1c-12,0-15.4,11.3-5.5,20c3.5,3,10.6,7.6,11.6,7.9c1,0.3,13.3-7.2,13.3-18.6S328.8,372.6,328.8,372.6z
					"/>
				<path fill="#FFCD8A" d="M347.2,341c-0.1-0.6-0.3-1.3-0.8-1.8c-9.4-10.2-23.2-10.8-32.6-0.2c-1.2,1.3-1.3,3.1,0,4.4
					c3.3,3.4,7.2,5.9,11.1,8.4c2.2,1.4,5.9,4.3,5.9,6.8c0-2.3,2.4-5.1,5-6.6c3.9-2.3,7.8-5.5,10.6-8.3
					C347.2,342.7,347.4,341.8,347.2,341z M316.1,341.1c8-9.7,19.8-9.3,28.1,0.2C333.2,352.9,327,352.6,316.1,341.1z"/>
				<path fill="#FFCD8A" d="M329.6,335.8c-3.4,0-6.2,2.7-6.2,6c0,3.3,2.8,6,6.2,6c3.4,0,6.2-2.7,6.2-6
					C335.8,338.5,333,335.8,329.6,335.8z M328.8,343.1c-1.2,0-2.2-0.9-2.2-2.1c0-1.2,1-2.1,2.2-2.1c1.2,0,2.2,0.9,2.2,2.1
					C331,342.1,330,343.1,328.8,343.1z"/>
				<path fill="#FFCD8A" d="M361,333.3c-0.5-2.9-1.1-5.7-1.6-8.6c-0.2-1.3-1.8-2.3-3.1-2.3c-5.3,0.1-10,0.6-14.7-2.5
					c-3.1-2-5.6-5.7-9-7.2c-1.4-0.6-2.7-0.5-3.9,0.5c-2.7,2.3-5.4,4.5-8.1,6.8c-1.1,0.9-2.2,1.8-3.3,2.7c-1.1,0-2.1,0-3.2,0
					c-2.5,0-9.6-1.3-11,1.6c-1.5,3-1.9,6.8-2.6,10c-0.4,1.8,0.7,3.1,2,3.6c0.9,0.6,2,0.8,3.2-0.1c6.7-4.8,16.2-8.8,24.5-9.1
					c8.7-0.3,18.5,4.2,26.1,8C358.9,338.2,361.5,336,361,333.3z"/>
				<path fill="#FFCD8A" d="M379.2,369.7c0.1-4-6.6-4-6.6,0c-0.5,21.7-18.7,38.8-41.9,39.3c-23.2,0.4-41.4-18.2-41.9-39.3
					c-0.1-4-6.7-4-6.6,0c0.4,19.1,12.7,35,30.2,41.9c5.1,2.2,14.8,6.6,17.2,8.3c2,1.4,1.9,1.5,3.8,0c1.3-1,9.3-4.9,15.5-7.9
					c2.4-1,4.8-2.1,7-3.4c0,0,0,0,0.1,0l0,0C369.7,400.4,378.9,385.6,379.2,369.7z"/>
			</g>
			<g>
				<path fill="#FFCD8A" d="M327,438.4c-0.1,0-0.2,0-0.3,0c-0.3,0-0.7,0-1-0.1c-2.7-0.2-4.7-2.5-4.5-5.2c0.2-2.7,2.5-4.7,5.2-4.5
					c0.3,0,0.6,0,0.9,0.1c2.7,0.1,4.8,2.5,4.6,5.2C331.7,436.4,329.6,438.4,327,438.4z M344.4,437.1c-2.3,0-4.3-1.6-4.8-3.9
					c-0.5-2.6,1.2-5.2,3.8-5.8c0.3-0.1,0.6-0.1,0.9-0.2c2.6-0.6,5.3,1.1,5.8,3.7c0.6,2.6-1.1,5.3-3.7,5.8c-0.3,0.1-0.7,0.1-1,0.2
					C345,437.1,344.7,437.1,344.4,437.1z M308.9,434.9c-0.5,0-1.1-0.1-1.6-0.3c-0.3-0.1-0.7-0.2-1-0.3c-2.5-0.9-3.9-3.7-3-6.3
					c0.9-2.5,3.7-3.9,6.3-3c0.3,0.1,0.6,0.2,0.8,0.3c2.6,0.9,3.9,3.7,3.1,6.2C312.9,433.6,311,434.9,308.9,434.9z M361.7,431
					c-1.8,0-3.5-1-4.4-2.6c-1.2-2.4-0.3-5.4,2.1-6.6c0.3-0.1,0.5-0.3,0.8-0.4c2.4-1.3,5.4-0.4,6.6,2c1.3,2.4,0.4,5.4-2,6.6
					c-0.3,0.2-0.6,0.3-0.9,0.5C363.3,430.8,362.5,431,361.7,431z M292.5,426.6c-1,0-1.9-0.3-2.8-0.9c-0.3-0.2-0.6-0.4-0.9-0.6
					c-2.2-1.6-2.7-4.6-1.2-6.8c1.6-2.2,4.6-2.7,6.8-1.2c0.2,0.2,0.5,0.3,0.7,0.5c2.2,1.5,2.8,4.6,1.3,6.8
					C295.6,425.9,294.1,426.6,292.5,426.6z M376.8,420.4c-1.3,0-2.6-0.5-3.6-1.6c-1.8-2-1.7-5.1,0.3-6.9c0.2-0.2,0.4-0.4,0.7-0.6
					c2-1.9,5.1-1.8,6.9,0.1c1.9,2,1.8,5.1-0.1,6.9c-0.3,0.2-0.5,0.5-0.8,0.7C379.2,420,378,420.4,376.8,420.4z M278.9,414.2
					c-1.4,0-2.8-0.6-3.8-1.7c-0.2-0.3-0.5-0.5-0.7-0.8c-1.7-2.1-1.4-5.2,0.7-6.9c2.1-1.7,5.2-1.4,6.9,0.7c0.2,0.2,0.4,0.5,0.6,0.7
					c1.7,2.1,1.5,5.2-0.6,6.9C281.2,413.9,280,414.2,278.9,414.2z M388.4,406.2c-0.9,0-1.8-0.2-2.6-0.7c-2.3-1.4-3-4.4-1.6-6.7
					c0.2-0.3,0.3-0.5,0.5-0.8c1.4-2.3,4.4-3.1,6.7-1.7c2.3,1.4,3.1,4.4,1.7,6.7c-0.2,0.3-0.4,0.6-0.5,0.9
					C391.7,405.3,390.1,406.2,388.4,406.2z M269.2,398.7c-1.9,0-3.6-1.1-4.5-2.9c-0.1-0.3-0.3-0.6-0.4-1c-1.1-2.5,0.1-5.4,2.5-6.4
					c2.5-1.1,5.4,0.1,6.4,2.5c0.1,0.3,0.2,0.5,0.4,0.8c1.1,2.5,0,5.4-2.4,6.5C270.5,398.5,269.8,398.7,269.2,398.7z M395.8,389.3
					c-0.4,0-0.9-0.1-1.3-0.2c-2.6-0.7-4.1-3.4-3.4-6c0.1-0.3,0.2-0.6,0.2-0.9c0.7-2.6,3.4-4.2,6-3.5c2.6,0.7,4.2,3.4,3.5,6
					c-0.1,0.3-0.2,0.7-0.3,1C399.9,387.9,397.9,389.3,395.8,389.3z M264,381c-2.4,0-4.5-1.7-4.8-4.2c-0.1-0.3-0.1-0.7-0.1-1
					c-0.4-2.7,1.5-5.1,4.2-5.5c2.7-0.4,5.1,1.5,5.5,4.2c0,0.3,0.1,0.6,0.1,0.9c0.4,2.7-1.4,5.2-4.1,5.6C264.4,381,264.2,381,264,381
					z M398.3,371c-2.7,0-4.9-2.1-4.9-4.8l0-0.2c0-0.2,0-0.5,0-0.8c0-2.7,2.1-4.9,4.8-5c0,0,0,0,0.1,0c2.7,0,4.9,2.1,4.9,4.8
					c0,0.3,0,0.7,0,1C403.2,368.7,401,371,398.3,371z M263.7,362.6c-0.2,0-0.4,0-0.6,0c-2.7-0.3-4.6-2.8-4.3-5.5
					c0-0.3,0.1-0.7,0.1-1c0.4-2.7,2.8-4.6,5.5-4.2c2.7,0.4,4.6,2.8,4.2,5.5c0,0.3-0.1,0.6-0.1,0.9
					C268.3,360.8,266.2,362.6,263.7,362.6z M395.8,352.7c-2.1,0-4.1-1.4-4.7-3.6c-0.1-0.3-0.2-0.6-0.2-0.9c-0.8-2.6,0.7-5.3,3.3-6.1
					c2.6-0.8,5.3,0.7,6.1,3.3c0.1,0.3,0.2,0.7,0.3,1c0.7,2.6-0.8,5.3-3.4,6C396.7,352.7,396.3,352.7,395.8,352.7z M268.4,344.9
					c-0.6,0-1.3-0.1-1.9-0.4c-2.5-1-3.7-3.9-2.6-6.4c0.1-0.3,0.3-0.6,0.4-1c1.1-2.5,4-3.6,6.4-2.5c2.5,1.1,3.6,4,2.5,6.5
					c-0.1,0.3-0.2,0.5-0.3,0.8C272.2,343.7,270.3,344.9,268.4,344.9z M388.5,335.8c-1.7,0-3.3-0.8-4.2-2.4c-0.2-0.3-0.3-0.5-0.5-0.8
					c-1.4-2.3-0.8-5.3,1.5-6.8c2.3-1.4,5.3-0.8,6.8,1.5c0.2,0.3,0.4,0.6,0.6,0.9c1.4,2.3,0.7,5.3-1.6,6.7
					C390.2,335.6,389.4,335.8,388.5,335.8z M277.8,329c-1.1,0-2.1-0.3-3-1.1c-2.1-1.7-2.5-4.8-0.8-6.9c0.2-0.3,0.4-0.6,0.7-0.8
					c1.7-2.1,4.8-2.4,6.9-0.7c2.1,1.7,2.4,4.8,0.7,6.9c-0.2,0.2-0.4,0.5-0.6,0.7C280.7,328.4,279.2,329,277.8,329z M376.9,321.6
					c-1.2,0-2.4-0.4-3.3-1.3c-0.2-0.2-0.4-0.4-0.7-0.6c-2-1.8-2.1-4.9-0.3-6.9c1.8-2,4.9-2.2,6.9-0.3c0.3,0.2,0.5,0.5,0.8,0.7
					c2,1.8,2.1,4.9,0.2,6.9C379.5,321.1,378.2,321.6,376.9,321.6z M291.1,316.3c-1.5,0-3-0.7-4-2c-1.6-2.2-1.1-5.3,1.1-6.8
					c0.3-0.2,0.6-0.4,0.8-0.6c2.2-1.6,5.3-1,6.8,1.2c1.6,2.2,1,5.3-1.2,6.8c-0.2,0.2-0.5,0.3-0.7,0.5
					C293.1,316,292.1,316.3,291.1,316.3z M361.9,311c-0.8,0-1.5-0.2-2.3-0.6c-0.3-0.1-0.5-0.3-0.8-0.4c-2.4-1.2-3.4-4.1-2.2-6.6
					c1.2-2.4,4.1-3.4,6.6-2.2c0.3,0.2,0.6,0.3,0.9,0.5c2.4,1.2,3.3,4.2,2.1,6.6C365.3,310,363.6,311,361.9,311z M307.3,307.6
					c-2,0-3.9-1.2-4.6-3.2c-0.9-2.5,0.4-5.4,2.9-6.3c0.3-0.1,0.7-0.2,1-0.4c2.5-0.9,5.3,0.4,6.3,3c0.9,2.5-0.4,5.3-3,6.3
					c-0.3,0.1-0.6,0.2-0.9,0.3C308.4,307.5,307.8,307.6,307.3,307.6z M344.5,304.8c-0.3,0-0.7,0-1-0.1c-0.3-0.1-0.6-0.1-0.9-0.2
					c-2.7-0.5-4.4-3.1-3.9-5.7c0.5-2.7,3.1-4.4,5.7-3.9c0.3,0.1,0.7,0.1,1,0.2c2.6,0.5,4.4,3.1,3.8,5.8
					C348.9,303.2,346.8,304.8,344.5,304.8z M325.2,303.6c-2.5,0-4.7-1.9-4.9-4.5c-0.2-2.7,1.8-5.1,4.5-5.3c0.3,0,0.7-0.1,1-0.1
					c2.7-0.2,5,1.9,5.2,4.6c0.2,2.7-1.9,5-4.6,5.2c-0.3,0-0.6,0-0.9,0.1C325.5,303.6,325.4,303.6,325.2,303.6z"/>
			</g>
		</g>
		<g>
			<path fill="#FFCD8A" d="M239.5,269.5c-4.7,4.9-4.8,10-3.4,16.4c0.8,3.5,1.8,6.9,1.9,10.5c0.2,3.7-1.1,7.5-2,11.1
				c-1.9,7.3-4.8,13.5-10.5,18.5c-4.7,4.2-9.6,7.8-12.4,13.7c-3.3,7-3,15.2-2,22.7c1,7.3,4.3,15.7,3.2,23.1
				c-1.7,11.9-13.2,19.8-11,32.8c0.8,4.7,7.9,2.7,7.1-2c-0.9-5.5,2.6-10.7,5.2-15.2c2.7-4.7,5.3-9.5,6-14.8
				c0.9-6.4-1.2-13.3-2.4-19.5c-1.5-7.9-2.7-17,0.9-24.6c2.5-5.4,8.5-8.8,12.6-12.8c4.4-4.2,7-9.8,9-15.5c2.1-6,3.8-12.5,3.6-18.9
				c-0.3-6.4-5.7-15-0.6-20.3C247.9,271.2,242.7,266,239.5,269.5L239.5,269.5z"/>
		</g>
		<g>
			<path fill="#FFCD8A" d="M242.6,266.2c-9.9,0.1-16.2,8.5-19.1,17.2c-1.5,4.5-1.4,9.1-0.4,13.7c0.7,3.2,1.5,5.9,0.6,9.2
				c-0.9,3.4-3.3,6.8-5.5,9.5c-3.7,4.6-9.2,6.2-14.3,8.9c-5.1,2.7-8.2,7.3-10.2,12.6c-2.1,5.5-2.5,11.6-3.2,17.4
				c-0.8,6.4,1.8,12.9,0,19.2c-1.3,4.6,5.8,6.5,7.1,2c1.5-5.1,0.7-10.3,0.3-15.4c-0.4-5.2,0.4-10.6,1.4-15.7
				c1.1-5.7,3.2-10.6,8.4-13.7c4.7-2.8,9.8-4.2,14-8.1c3.6-3.4,6.5-8.1,8.4-12.6c2.2-5.2,1.5-9.9,0.2-15.1c-2-8,2.7-21.5,12.4-21.6
				C247.4,273.4,247.4,266.1,242.6,266.2L242.6,266.2z"/>
		</g>
		<path fill="#234C8E" d="M377,241.8c-33.8,3.6-110.2-0.5-133.8-3.2c-21.9-2.4,2.2,10.8,4.3,31c0.1,0.1,0.1,0.1,0.2,0.2
			c2.7,2.7,5.6-3.8,0.9-10.9c-4.7-7.2-4.2-13.7,0.7-15.5c12.8-4.8,107.8,19.1,125,3.2C376.1,244.8,377,243.4,377,241.8z"/>
		<path fill="#0B244C" d="M418.5,315.5c-5-10.4-8.1-19.1-9.6-26.3h0c5.8,26.4,25,93.4,15,116.2c-10,22.7-52.5,51-145.3,42.7
			c-42.9-3.9-68.1-10-82.9-15.6c3.7,9.5,9.4,16.6,14.6,18.8c10.8,4.6,172.9,17.4,208.2,0C453.8,433.8,436.9,353.9,418.5,315.5z"/>
		<path fill="#234C8E" d="M406.3,240.8c6.8,6.5,6.6,8.3,5,13.6c-0.8,2.5-0.4,6.1,0.3,9.5c2.2-2.8,5.1-4.5,8.4-5.3
			C428.8,256.4,421.1,244.9,406.3,240.8z"/>
		<g>
			<path fill="#FFCD8A" d="M407.6,264.1c0-0.1-0.4,1-1,1.6c-1.1,1.2-2.3,1.8-4,2.7c-4.3,2.1-9.2,3.1-13.9,4
				c-14.1,2.7-28.6,3.3-42.9,3.6c-28.2,0.7-56.4-0.3-84.5-2.1c-2.6-0.2-5.3-0.3-7.9-0.5c-0.6,0-1.2-0.1-1.8-0.1
				c0.8,0.1-1.4-0.5-1.8-0.6c-0.8-0.3-1.6-0.8-2.4-1.2c-3.1-1.8,1.4,0.2-1.1,1.3c4.3-1.7,2.5-8.8-2-7.1c-3.3,1.3-6,3.5-5,7.4
				c0.9,3.6,5.5,5.5,8.5,6.8c2.4,1,5,1,7.5,1.2c10.1,0.7,20.2,1.3,30.3,1.7c30.7,1.3,62,2.2,92.6-1.3c10.5-1.2,35.2-2.8,36.6-17.2
				C415.4,259.4,408.1,259.4,407.6,264.1L407.6,264.1z"/>
		</g>
		<g>
			<g>
				<path fill="#C17A2D" d="M179.2,443.4c0,3.5-2.8,6.3-6.3,6.3H76.2c-3.5,0-6.3-2.8-6.3-6.3l0,0c0-3.5,2.8-6.3,6.3-6.3h96.7
					C176.4,437.1,179.2,439.9,179.2,443.4L179.2,443.4z"/>
				<path fill="#F7941E" d="M178.6,440.7c-1-2.1-3.2-3.6-5.7-3.6H76.2c-2.5,0-4.7,1.5-5.7,3.6H178.6z"/>
			</g>
			<g>
				<path fill="#C17A2D" d="M179.2,429.6c0,3.5-2.8,6.3-6.3,6.3H76.2c-3.5,0-6.3-2.8-6.3-6.3l0,0c0-3.5,2.8-6.3,6.3-6.3h96.7
					C176.4,423.3,179.2,426.2,179.2,429.6L179.2,429.6z"/>
				<path fill="#F7941E" d="M178.6,426.9c-1-2.1-3.2-3.6-5.7-3.6H76.2c-2.5,0-4.7,1.5-5.7,3.6H178.6z"/>
			</g>
			<g>
				<path fill="#C17A2D" d="M179.2,415.9c0,3.5-2.8,6.3-6.3,6.3H76.2c-3.5,0-6.3-2.8-6.3-6.3l0,0c0-3.5,2.8-6.3,6.3-6.3h96.7
					C176.4,409.6,179.2,412.4,179.2,415.9L179.2,415.9z"/>
				<path fill="#F7941E" d="M178.6,413.2c-1-2.1-3.2-3.6-5.7-3.6H76.2c-2.5,0-4.7,1.5-5.7,3.6H178.6z"/>
			</g>
			<g>
				<path fill="#C17A2D" d="M179.2,402.2c0,3.5-2.8,6.3-6.3,6.3H76.2c-3.5,0-6.3-2.8-6.3-6.3l0,0c0-3.5,2.8-6.3,6.3-6.3h96.7
					C176.4,395.9,179.2,398.7,179.2,402.2L179.2,402.2z"/>
				<path fill="#F7941E" d="M178.6,399.5c-1-2.1-3.2-3.6-5.7-3.6H76.2c-2.5,0-4.7,1.5-5.7,3.6H178.6z"/>
			</g>
			<g>
				<path fill="#C17A2D" d="M179.2,388.4c0,3.5-2.8,6.3-6.3,6.3H76.2c-3.5,0-6.3-2.8-6.3-6.3l0,0c0-3.5,2.8-6.3,6.3-6.3h96.7
					C176.4,382.1,179.2,384.9,179.2,388.4L179.2,388.4z"/>
				<path fill="#F7941E" d="M178.6,385.7c-1-2.1-3.2-3.6-5.7-3.6H76.2c-2.5,0-4.7,1.5-5.7,3.6H178.6z"/>
			</g>
			<g>
				<path fill="#C17A2D" d="M179.2,374.7c0,3.5-2.8,6.3-6.3,6.3H76.2c-3.5,0-6.3-2.8-6.3-6.3l0,0c0-3.5,2.8-6.3,6.3-6.3h96.7
					C176.4,368.4,179.2,371.2,179.2,374.7L179.2,374.7z"/>
				<path fill="#F7941E" d="M178.6,372c-1-2.1-3.2-3.6-5.7-3.6H76.2c-2.5,0-4.7,1.5-5.7,3.6H178.6z"/>
			</g>
		</g>
		<g>
			
				<ellipse transform="matrix(0.9926 0.1215 -0.1215 0.9926 56.2521 -59.2304)" fill="#C17A2D" cx="513.7" cy="431.5" rx="61.7" ry="40.8"/>
			
				<ellipse transform="matrix(0.9926 0.1215 -0.1215 0.9926 56.2521 -59.2304)" fill="#F7941E" cx="513.7" cy="431.5" rx="51.3" ry="33.9"/>
		</g>
		<g>
			<ellipse fill="#C17A2D" cx="493.9" cy="426.9" rx="57.1" ry="45.4"/>
			<ellipse fill="#F7941E" cx="493.9" cy="426.9" rx="47.5" ry="37.8"/>
		</g>
		<g>
			<ellipse fill="#C17A2D" cx="472" cy="433.4" rx="57.1" ry="45.4"/>
			<ellipse fill="#F7941E" cx="472" cy="433.4" rx="47.5" ry="37.8"/>
		</g>
		<g>
			<ellipse fill="#C17A2D" cx="452.3" cy="437.8" rx="57.1" ry="45.4"/>
			<ellipse fill="#F7941E" cx="452.3" cy="437.8" rx="47.5" ry="37.8"/>
		</g>
		<g>
			<path fill="#C17A2D" d="M453.1,441c-0.1-7.2,2.6-9.5,9.2-14s11.3-6.6,11.1-9.6c5,6.6,6.6,6.9,6.6,12.5s-11.4,13-15.6,13
				c7,0,9,6.6,3.2,11.7c-2,1.8-6.2,4.5-6.8,4.7s-7.8-4.2-7.8-10.9S453.1,441,453.1,441z"/>
			<path fill="#C17A2D" d="M451.2,441c0.1-7.2-2.6-9.5-9.2-14s-11.3-6.6-11.1-9.6c-5,6.6-6.6,6.9-6.6,12.5s11.4,13,15.6,13
				c-7,0-9,6.6-3.2,11.7c2,1.8,6.2,4.5,6.8,4.7c0.6,0.2,7.8-4.2,7.8-10.9S451.2,441,451.2,441z"/>
			<path fill="#C17A2D" d="M462,422.4c0-0.4-0.2-0.7-0.5-1.1c-5.5-6-13.6-6.3-19.1-0.1c-0.7,0.8-0.7,1.8,0,2.6
				c1.9,2,4.2,3.4,6.5,4.9c1.3,0.8,3.5,2.5,3.5,4c0-1.4,1.4-3,2.9-3.9c2.3-1.4,4.6-3.2,6.2-4.9C461.9,423.5,462.1,422.9,462,422.4z
				 M443.7,422.5c4.7-5.7,11.6-5.4,16.5,0.1C453.7,429.4,450.1,429.2,443.7,422.5z"/>
			<path fill="#C17A2D" d="M451.6,419.4c-2,0-3.6,1.6-3.6,3.5s1.6,3.5,3.6,3.5s3.6-1.6,3.6-3.5S453.6,419.4,451.6,419.4z
				 M451.1,423.7c-0.7,0-1.3-0.6-1.3-1.2c0-0.7,0.6-1.2,1.3-1.2c0.7,0,1.3,0.6,1.3,1.2C452.4,423.1,451.9,423.7,451.1,423.7z"/>
			<path fill="#C17A2D" d="M470.1,417.9c-0.3-1.7-0.6-3.3-0.9-5c-0.1-0.8-1-1.4-1.8-1.3c-3.1,0-5.9,0.4-8.6-1.4
				c-1.8-1.2-3.3-3.3-5.3-4.2c-0.8-0.4-1.6-0.3-2.3,0.3c-1.6,1.3-3.2,2.6-4.8,4c-0.6,0.5-1.3,1.1-1.9,1.6c-0.6,0-1.3,0-1.9,0
				c-1.5,0-5.6-0.8-6.5,0.9c-0.9,1.7-1.1,4-1.5,5.9c-0.2,1,0.4,1.8,1.2,2.1c0.5,0.4,1.2,0.4,1.9-0.1c3.9-2.8,9.5-5.1,14.4-5.3
				c5.1-0.2,10.9,2.5,15.3,4.7C468.8,420.8,470.4,419.5,470.1,417.9z"/>
			<path fill="#C17A2D" d="M480.7,439.3c0.1-2.4-3.8-2.4-3.9,0c-0.3,12.7-11,22.8-24.6,23c-13.6,0.3-24.3-10.7-24.6-23
				c-0.1-2.4-3.9-2.4-3.9,0c0.2,11.2,7.4,20.6,17.7,24.6c3,1.3,8.7,3.8,10.1,4.8c1.2,0.8,1.1,0.9,2.2,0c0.8-0.6,5.5-2.9,9.1-4.6
				c1.4-0.6,2.8-1.2,4.1-2c0,0,0,0,0,0l0,0C475.2,457.3,480.5,448.6,480.7,439.3z"/>
		</g>
	</g>
	<g>
		<path fill="#EC008C" d="M277.9,182.1l24.2-4.9L278,192.8l4.1,12.8l-16.6-11c0,0-18.8,6.9-24.8,11c6-10.7,21-17.2,21.9-18.2
			c1-0.9-15.3,1.9-15.3,1.9l11.6-5.3L277.9,182.1z"/>
		<path fill="#6B1F50" d="M289.4,179.8l-11.5,2.3l-19,1.9l-5.7,2.6c0.6,0.5,1.2,1,1.8,1.5c4.1-0.6,8.1-1.1,7.7-0.6
			c-0.3,0.3-2,1.1-4.3,2.5C271.4,199.9,284.1,188.1,289.4,179.8z"/>
		<path fill="#EC008C" d="M256.6,184.6c-4.4-3.1-1.9-13.8-1.9-13.8l8.9,8.5c0,0-5.1-6.3,0.8-19.5c7.5,12.2,8.8,11,7.2,18.5
			c6-9.7,10-16.3,10-16.3s5.6,10-1.6,20.1C273.5,192.1,258.4,185.9,256.6,184.6z"/>
	</g>
	<g>
		<path fill="#EC008C" d="M505.4,260.2l24.4,3.4l-27.9,6.7l-0.4,13.5l-12.1-15.8c0,0-20,0.3-27,2.2c9.1-8.1,25.5-9.4,26.7-9.9
			c1.2-0.6-15.1-3.3-15.1-3.3l12.7-1.2L505.4,260.2z"/>
		<path fill="#6B1F50" d="M517,261.8l-11.6-1.6l-18.6-4.5l-6.3,0.6c0.4,0.7,0.8,1.4,1.2,2c4,0.8,8.1,1.6,7.4,1.9
			c-0.4,0.2-2.2,0.4-4.9,0.9C493.4,274.9,509.2,267.9,517,261.8z"/>
		<path fill="#EC008C" d="M484.4,255.6c-3.1-4.4,2.8-13.6,2.8-13.6l5.6,11c0,0-2.8-7.7,7.2-18.1c3.1,14,4.7,13.2,0.7,19.8
			c8.8-7.2,14.8-12.1,14.8-12.1s2,11.3-8.1,18.4C497.9,268.2,485.7,257.3,484.4,255.6z"/>
	</g>
	<g>
		<polygon fill="#6B1F50" points="352.8,149.3 370.8,150.9 361.4,163.2 		"/>
		<path fill="#EC008C" d="M354.8,155.1c-1.5-0.4-12.5-8.8-12.5-8.8l13.8,0.4l7.8-8.5l4.1,9.3c0,0,11.6-0.9,10.9-0.4
			c-0.7,0.6-7.9,8.4-7.9,8.4l-15.4,0.5"/>
	</g>
	<g>
		<polygon fill="#6B1F50" points="430,182.8 442.9,195.4 427.9,199 		"/>
		<path fill="#EC008C" d="M427.9,188.5c-0.9-1.2-4.2-14.7-4.2-14.7l10.5,9l11.4-1.7l-2.7,9.8c0,0,9.6,6.6,8.7,6.6
			c-0.9,0-11.4,1.5-11.4,1.5l-12.3-9.3"/>
	</g>
</g>
</svg>
