<?xml version="1.0" encoding="utf-8"?>
<!-- Generator: Adobe Illustrator 18.0.0, SVG Export Plug-In . SVG Version: 6.00 Build 0)  -->
<!DOCTYPE svg PUBLIC "-//W3C//DTD SVG 1.1//EN" "http://www.w3.org/Graphics/SVG/1.1/DTD/svg11.dtd">
<svg version="1.1" id="Layer_1" xmlns="http://www.w3.org/2000/svg" xmlns:xlink="http://www.w3.org/1999/xlink" x="0px" y="0px"
	 viewBox="0 0 640 640" enable-background="new 0 0 640 640" xml:space="preserve">
<g>
	<path fill="#FFFFFF" d="M510.7,233.1c-1.5-0.9-3.2-1.5-5.2-2c-2.1-0.8-4.1-1.1-6-1.1c-22.1-3.4-42.5,2.5-59.2,18.4
		c-9.5,9-16,21.4-21.7,33.1c-0.3,0.5-0.5,1.1-0.7,1.7c-1.7-0.6-3.5-1-5.5-1.3c-1-0.1-1.9-0.1-2.7-0.1c-0.6-1.3-1.2-2.7-1.8-4
		c-6.1-12.6-14.1-24.8-24.9-33.9c-21.9-18.3-49.3-18.2-74.4-7.1c-9.4,4.2-18.1,10.7-24.4,18.7c-4.1-3.5-8.7-6.6-13.4-8.9
		c-0.9-0.4-1.7-0.8-2.6-1c-0.6-0.3-1.1-0.5-1.7-0.8c-24-9.8-55.4-3.3-77,12.3c-25.5-18.6-63.7-23.3-89.9-5.6
		c-30.1,20.2-27.5,56-7.2,80.1c-9.8,29.6-9.7,66.6,16.4,86.3c17.4,13,42.9,4.5,57.7-8.1c9.1-7.7,16.8-16.9,23.4-26.9
		c18.9,29.1,47.7,54.9,80.3,35c27.3-16.7,25.8-56.9,16.5-85.9c2.9-3.2,5.5-6.7,7.7-10.3c4,3.8,8.3,7.3,12.6,10.7
		c5.5,4.3,11.2,8.5,17,12.6c2.2,1.6,4.5,3.2,6.7,4.8c-2.5,10.9-2.2,23.1-1.3,32.7c1.8,19.3,10,39.7,30,46.2
		c21.4,6.9,44.8-2.8,55-22.5c10.2,19,31,28.1,53.1,23.1c20.4-4.6,29.4-25.9,31.6-44.5c1.3-10.3,1.7-23.5-1-35.2
		c2.2-1.6,4.5-3.1,6.7-4.6c6.9-4.9,13.6-10,20.2-15.2c12.7-9.9,24.2-22.2,28.6-38.1C561.3,262.7,534.4,242.7,510.7,233.1z
		 M335.6,354C338,356.4,336.9,356.6,335.6,354L335.6,354z"/>
	<g>
		<g>
			<path fill="#ED1C24" d="M191.8,300c-2.4,46.8,39.2,102.8,59.2,95.4s13.3-62.1,0-71.8c25.9-7.4,34-37.7,9.6-51
				C236.2,259.3,192.8,281.5,191.8,300z"/>
			<g>
				<path fill="#00AEEF" d="M181.8,300c-0.4,27.1,9.1,52.8,24,75.2c9.3,14,24.5,31.3,42.9,30.9c37.1-1,27.9-72.9,9.4-89.5
					c-1.5,5.6-3,11.2-4.4,16.8c33.3-12,44.8-54.6,8-71.2c-25.5-11.5-74.5,4.9-79.5,35.2c-2.1,12.7,17.2,18.1,19.4,5.3
					c2.5-14.9,24.1-22.2,37-23.8c26-3.4,36.3,25.7,9.8,35.2c-6.6,2.4-10.5,11.4-4.4,16.8c10.4,9.3,15.7,63.7-3.6,52.3
					c-25.5-15.1-38.9-55.5-38.4-83.1C202.1,287,182,287.1,181.8,300z"/>
			</g>
		</g>
		<g>
			<path fill="#ED1C24" d="M187,300c2.4,46.8-39.2,102.8-59.2,95.4s-13.3-62.1,0-71.8c-25.9-7.4-34-37.7-9.6-51
				C142.6,259.3,186.1,281.5,187,300z"/>
			<g>
				<path fill="#00AEEF" d="M177,300c0.5,29.6-13.6,65.4-38.4,83.1c-17.6,12.6-14.3-42.8-3.6-52.3c6.1-5.4,2.2-14.4-4.4-16.8
					c-9.3-3.3-16.3-9.3-16.9-19.8c-0.7-13.6,17.5-15.8,26.7-15.4c12.7,0.5,34.6,9.7,37,23.8c2.1,12.8,21.5,7.3,19.4-5.3
					c-5.1-30.3-54.1-46.7-79.5-35.2c-36.7,16.6-25.3,59.3,8,71.2c-1.5-5.6-3-11.2-4.4-16.8c-18.5,16.5-27.7,88.5,9.4,89.5
					c18.9,0.5,32.9-17,42.9-30.9c15.5-21.4,24.4-48.8,24-75.2C196.8,287.1,176.8,287,177,300z"/>
			</g>
		</g>
		<path fill="#F7941E" d="M191.8,300c-2.4,46.8,39.2,102.8,59.2,95.4s13.3-62.1,0-71.8c25.9-7.4,34-37.7,9.6-51
			C236.2,259.3,192.8,281.5,191.8,300z"/>
		<path fill="#F7941E" d="M187,300c2.4,46.8-39.2,102.8-59.2,95.4s-13.3-62.1,0-71.8c-25.9-7.4-34-37.7-9.6-51
			C142.6,259.3,186.1,281.5,187,300z"/>
		<path fill="#ED1C24" d="M196.5,315c0-35.8-13.3-40.7-13.3,0S196.5,350.9,196.5,315z"/>
		<g>
			<g>
				<path fill="#2BB673" d="M500.7,248.5c-0.8-0.3-1.5-0.4-2.2-0.5c-21.2-4.7-39.6,3.3-52.2,21.3c-6.3,9-11,18.7-15.5,28.7
					c-2.6,6-5.8,19.3-11.1,23.3c-3.6,2.7-6,6.6-4.6,11.3c1.4,4.7,3.7,11.1,7.6,14.2c2.1,1.7,1,24.5,1.5,29
					c1.5,13.3,5.9,31.2,20.9,35.3c39.8,10.9,39.4-37.6,33.9-61.6c-1.8-8.1-4.6-3,0.5-7.9c4.8-4.7,10.6-8.4,16-12.3
					c11.1-8,22.5-16.1,31.7-26.4C550.1,277,526.4,257,500.7,248.5z"/>
				<g>
					<path fill="#F15A29" d="M424.8,330c14.1-8.6,23.9-87.2,73.3-71.8c79.5,24.7-30.4,67.8-31.2,84.3c4.4,19.1,17,59.4-16,59.4
						c-18.4,0-18.2-37-18.2-59.7C427.1,339.2,424.8,330,424.8,330z"/>
					<path fill="#FFCD8A" d="M492.6,271.3c40.5,19-21.5,58.8-34.3,47.8C446.4,308.8,457.9,255,492.6,271.3z"/>
					<path fill="#FFCD8A" d="M460.8,382.4c-13.5,22.2-21.7-33.7-15.3-39.1C451.4,338.2,472.4,363.4,460.8,382.4z"/>
				</g>
			</g>
			<g>
				<path fill="#2BB673" d="M327.6,248.5c0.8-0.3,1.5-0.4,2.2-0.5c21.2-4.7,39.6,3.3,52.2,21.3c6.3,9,11,18.7,15.5,28.7
					c2.6,6,5.8,19.3,11.1,23.3c3.6,2.7,6,6.6,4.6,11.3c-1.4,4.7-3.7,11.1-7.6,14.2c-2.1,1.7-1,24.5-1.5,29
					c-1.5,13.3-5.9,31.2-20.9,35.3c-39.8,10.9-39.4-37.6-33.9-61.6c1.8-8.1,4.6-3-0.5-7.9c-4.8-4.7-10.6-8.4-16-12.3
					c-11.1-8-22.5-16.1-31.7-26.4C278.2,277,301.9,257,327.6,248.5z"/>
				<g>
					<path fill="#F15A29" d="M403.5,330c-14.1-8.6-23.9-87.2-73.3-71.8c-79.5,24.7,30.4,67.8,31.2,84.3c-4.4,19.1-17,59.4,16,59.4
						c18.4,0,18.2-37,18.2-59.7C401.2,339.2,403.5,330,403.5,330z"/>
					<path fill="#FFCD8A" d="M335.7,271.3c-40.5,19,21.5,58.8,34.3,47.8C381.9,308.8,370.4,255,335.7,271.3z"/>
					<path fill="#FFCD8A" d="M367.5,382.4c13.5,22.2,21.7-33.7,15.3-39.1C376.9,338.2,355.9,363.4,367.5,382.4z"/>
				</g>
			</g>
			<g>
				<path fill="#ED1C24" d="M418.7,328.5c0-35.8-13.3-40.7-13.3,0S418.7,364.3,418.7,328.5z"/>
				<path fill="#231F20" d="M417.1,334.3c-1.9-37.3-8.5-41-10.1,0.4C410.2,335.7,413.8,335.5,417.1,334.3z"/>
			</g>
		</g>
	</g>
</g>
</svg>
