<?xml version="1.0" encoding="utf-8"?>
<!-- Generator: Adobe Illustrator 18.0.0, SVG Export Plug-In . SVG Version: 6.00 Build 0)  -->
<!DOCTYPE svg PUBLIC "-//W3C//DTD SVG 1.1//EN" "http://www.w3.org/Graphics/SVG/1.1/DTD/svg11.dtd">
<svg version="1.1" id="Layer_1" xmlns="http://www.w3.org/2000/svg" xmlns:xlink="http://www.w3.org/1999/xlink" x="0px" y="0px"
	 viewBox="0 0 640 640" enable-background="new 0 0 640 640" xml:space="preserve">
<g>
	<g>
		<path opacity="0.4" fill="#231F20" d="M84.6,247l-38.1,13l-13.2,17.7l34.6-2.7c0,0,20.3,21,70.3,17.7c50-3.3,90.5-7.7,90.5-7.7
			l2-52.8"/>
		<path opacity="0.4" fill="#231F20" d="M187.6,365.4l-23.5,13L226,379l-3.5,70l-30.8,8.6l-15.3,19.4h165.2l73-68.1l1.2-29.8
			l49.8-6.7l-10-81.7c0,0,65.9,1.2,84.1-4.8c18.2-6,34.9-14.9,34.9-14.9l32.2,0.3l-9-13.6l-143.8-2.9l-71.3-17.5L226,342l-14.4,15.9
			"/>
		<g>
			<path fill="#D13F8D" d="M148.1,188.3c6.1-3.4,16.1-11.2,16.5-20.3c1.3,12.4,4.9,22.5,8.8,18.6c3.9-3.9,7.5-18.6,7.5-18.6
				s1.6,23.1,8.5,23.1c6.8,0,4.2,10.1,4.2,10.1l-47.5,2.9L148.1,188.3z"/>
			<path fill="#AA3177" d="M189.3,191.1c-1.6,0-2.9-1.2-3.9-3.1c-4.7,2.7-11.3,6.1-15.9,6.8c-6.6,0.9-12.6-3-16-10.1
				c-1.9,1.5-3.8,2.7-5.4,3.5l-0.3,2.7c1.8,3.8,4.9,8.3,10.4,12.4l35.4-2.2C193.6,201.2,196.2,191.1,189.3,191.1z"/>
			<path fill="#D13F8D" d="M76,221.9v23.2c0,0,22.9,18.6,46.3,18.6s72.2,0,87.9,0c36.8,0,36.4-28.5,36.4-28.5L138.9,235"/>
			<polyline fill="#D13F8D" points="76.5,224.3 74.4,226.6 38.6,266 48.8,266 78.3,230.1 			"/>
			<path fill="#D13F8D" d="M76,221.9v35.9c0,0,22.9,18.6,46.3,18.6s83.3,1.3,98.9,1.3c20.5,0,25.4-42.6,25.4-42.6"/>
			<path fill="#D13F8D" d="M246.6,235.1c4.4,1.2-25.5,12.6-53,12.6c-22.3,0-77.6-0.2-88.2-5.9c-15.3-8.1-27.7-14.6-29.6-18.2
				S89.1,216.8,93,210c3.9-6.8,11.2-29,12.7-35.1c0.5-1.9,0.3-1.2,0.3-1.2s5.2,13.6,12.4,13.6c7.2,0,5.2-13,5.2-13
				s8.1,19.5,12.7,19.5s5.2-13.7,5.2-13.7s14.6,21.8,29.6,21.8s29.9-26,30.9-30.9C202,211.3,242.3,233.9,246.6,235.1z"/>
			<g>
				<path fill="#F9AD5A" d="M104.5,182.1c0.5-3.1,1.7-9.1,2-10.4c0-0.1,0.1-0.1,0.2,0c1.2,2.1,4.1,7.5,4.9,9.4
					C112.1,182.8,104.5,182.1,104.5,182.1z"/>
				<g>
					<path fill="#F9AD5A" d="M105.9,182.5c0.6-3.5,1.3-6.9,2-10.4c-0.4,0.4-0.7,0.7-1.1,1.1c0.1,0,0.1,0,0.2,0
						c-0.6-0.2-1.1-0.5-1.7-0.7c1.6,3,3.4,5.9,4.7,9.1c0.6-0.8,0.7-1.2,0.3-1c-0.3,0.1-0.5,0.1-0.8,0.1c-0.7,0.1-1.5,0.1-2.2,0.1
						c-0.9,0-1.9-0.1-2.8-0.2c-2-0.2-1.9,2.9,0,3.1c2,0.2,7.1,1,8.3-1.2c0.8-1.6-0.7-3.6-1.4-5c-1.1-2.2-2.3-4.3-3.4-6.4
						c-0.4-0.7-1-0.8-1.7-0.7c-0.1,0-0.1,0-0.2,0c-0.5,0.1-1,0.6-1.1,1.1c-0.7,3.4-1.4,6.9-2,10.4
						C102.7,183.6,105.6,184.4,105.9,182.5z"/>
				</g>
			</g>
			<g>
				<path fill="#F9AD5A" d="M121,182.9c0.5-3.1,1.7-9.1,2-10.4c0-0.1,0.1-0.1,0.2,0c1.2,2.1,4.1,7.5,4.9,9.4
					C128.7,183.7,121,182.9,121,182.9z"/>
				<g>
					<path fill="#F9AD5A" d="M122.5,183.3c0.6-3.5,1.3-6.9,2-10.4c-0.4,0.4-0.7,0.7-1.1,1.1c0.1,0,0.1,0,0.2,0
						c-0.6-0.2-1.1-0.5-1.7-0.7c1.6,3,3.4,5.9,4.7,9.1c0.6-0.8,0.7-1.2,0.3-1c-0.3,0.1-0.5,0.1-0.8,0.1c-0.7,0.1-1.5,0.1-2.2,0.1
						c-0.9,0-1.9-0.1-2.8-0.2c-2-0.2-1.9,2.9,0,3.1c2,0.2,7.1,1,8.3-1.2c0.8-1.6-0.7-3.6-1.4-5c-1.1-2.2-2.3-4.3-3.4-6.4
						c-0.4-0.7-1-0.8-1.7-0.7c-0.1,0-0.1,0-0.2,0c-0.5,0.1-1,0.6-1.1,1.1c-0.7,3.4-1.4,6.9-2,10.4
						C119.3,184.4,122.2,185.2,122.5,183.3z"/>
				</g>
			</g>
			<g>
				<path fill="#F9AD5A" d="M139,186.2c0.5-3.1,1.7-9.1,2-10.4c0-0.1,0.1-0.1,0.2,0c1.2,2.1,4.1,7.5,4.9,9.4
					C146.7,186.9,139,186.2,139,186.2z"/>
				<g>
					<path fill="#F9AD5A" d="M140.5,186.6c0.6-3.5,1.3-6.9,2-10.4c-0.4,0.4-0.7,0.7-1.1,1.1c0.1,0,0.1,0,0.2,0
						c-0.6-0.2-1.1-0.5-1.7-0.7c1.6,3,3.4,5.9,4.7,9.1c0.6-0.8,0.7-1.2,0.3-1c-0.3,0.1-0.5,0.1-0.8,0.1c-0.7,0.1-1.5,0.1-2.2,0.1
						c-0.9,0-1.9-0.1-2.8-0.2c-2-0.2-1.9,2.9,0,3.1c2,0.2,7.1,1,8.3-1.2c0.8-1.6-0.7-3.6-1.4-5c-1.1-2.2-2.3-4.3-3.4-6.4
						c-0.4-0.7-1-0.8-1.7-0.7c-0.1,0-0.1,0-0.2,0c-0.5,0.1-1,0.6-1.1,1.1c-0.7,3.4-1.4,6.9-2,10.4
						C137.2,187.7,140.2,188.5,140.5,186.6z"/>
				</g>
			</g>
			<g>
				<path fill="#F9AD5A" d="M167.6,177.2c-0.5-3.1-1.7-9.1-2-10.4c0-0.1-0.1-0.1-0.2,0c-1.2,2.1-4.1,7.5-4.9,9.4
					C159.9,178,167.6,177.2,167.6,177.2z"/>
				<g>
					<path fill="#F9AD5A" d="M169.1,176.8c-0.6-3.5-1.3-6.9-2-10.4c-0.1-0.5-0.6-1-1.1-1.1c-0.1,0-0.1,0-0.2,0
						c-0.7-0.1-1.4,0.1-1.7,0.7c-1.2,2.1-2.3,4.3-3.4,6.4c-0.7,1.4-2.2,3.4-1.4,5c1.1,2.3,6.3,1.4,8.3,1.2c1.9-0.2,2-3.2,0-3.1
						c-1.7,0.2-4.3,0.7-5.9-0.1c0.1,1.1,0.3,1.4,0.5,0.8c0.2-0.4,0.3-0.7,0.5-1.1c0.4-0.9,0.9-1.8,1.4-2.7c0.9-1.7,1.8-3.4,2.7-5
						c-0.6,0.2-1.1,0.5-1.7,0.7c0.1,0,0.1,0,0.2,0c-0.4-0.4-0.7-0.7-1.1-1.1c0.7,3.4,1.4,6.9,2,10.4
						C166.4,179.6,169.4,178.7,169.1,176.8z"/>
				</g>
			</g>
			<g>
				<path fill="#F9AD5A" d="M183.4,175.7c-0.5-3.1-1.7-9.1-2-10.4c0-0.1-0.1-0.1-0.2,0c-1.2,2.1-4.1,7.5-4.9,9.4
					C175.8,176.5,183.4,175.7,183.4,175.7z"/>
				<g>
					<path fill="#F9AD5A" d="M184.9,175.3c-0.6-3.5-1.3-6.9-2-10.4c-0.1-0.5-0.6-1-1.1-1.1c-0.1,0-0.1,0-0.2,0
						c-0.7-0.1-1.4,0.1-1.7,0.7c-1.2,2.1-2.3,4.3-3.4,6.4c-0.7,1.4-2.2,3.4-1.4,5c1.1,2.3,6.3,1.4,8.3,1.2c1.9-0.2,2-3.2,0-3.1
						c-1.7,0.2-4.3,0.7-5.9-0.1c0.1,1.1,0.3,1.4,0.5,0.8c0.2-0.4,0.3-0.7,0.5-1.1c0.4-0.9,0.9-1.8,1.4-2.7c0.9-1.7,1.8-3.4,2.7-5
						c-0.6,0.2-1.1,0.5-1.7,0.7c0.1,0,0.1,0,0.2,0c-0.4-0.4-0.7-0.7-1.1-1.1c0.7,3.4,1.4,6.9,2,10.4
						C182.3,178,185.2,177.2,184.9,175.3z"/>
				</g>
			</g>
			<path fill="#F9AD5A" d="M205.8,179.2C205.8,179.2,205.8,179.2,205.8,179.2c0.2-0.4-1-8.1-1.7-11.5c-0.1-0.5-0.6-1-1.1-1.1
				c-0.1,0-1.5,0-1.9,0.7c-1.2,2.1-5.6,9.8-4.8,11.4C197.4,181.1,205.5,179.7,205.8,179.2C205.8,179.3,205.8,179.3,205.8,179.2z"/>
			<g>
				<path fill="#AA3177" d="M75.4,224.6c0.8,4.7,5.5,7.8,9.3,10c6.8,3.7,14.4,6,21.8,7.8c21,5.3,42.9,7.4,64.5,7.9
					c14.8,0.4,29.6-0.2,44.3-2.4c10.7-1.6,22.3-4,31.4-10.2c1.6-1.1,0.1-3.8-1.5-2.6c-6.4,4.4-14.1,6.6-21.6,8.3
					c-10,2.2-20.4,3.2-30.6,3.7c-22.6,1.1-45.6-0.3-67.9-4c-10.9-1.8-22-4.2-32.3-8.2c-4.8-1.9-13.2-5.1-14.2-11
					C78,221.9,75,222.7,75.4,224.6L75.4,224.6z"/>
			</g>
			<g>
				<path fill="#F7941E" d="M76.1,220.8c0.8,4.7,5.5,7.8,9.3,10c6.8,3.7,14.4,6,21.8,7.8c21,5.3,42.9,7.4,64.5,7.9
					c14.8,0.4,29.6-0.2,44.3-2.4c10.7-1.6,22.3-4,31.4-10.2c1.6-1.1,0.1-3.8-1.5-2.6c-6.4,4.4-14.1,6.6-21.6,8.3
					c-10,2.2-20.4,3.2-30.6,3.7c-22.6,1.1-45.6-0.3-67.9-4c-10.9-1.8-22-4.2-32.3-8.2c-4.8-1.9-13.2-5.1-14.2-11
					C78.8,218.1,75.8,218.9,76.1,220.8L76.1,220.8z"/>
			</g>
			<polyline fill="#D13F8D" points="77.3,240.7 76.2,241.9 56.5,263.7 62.1,263.7 78.3,243.9 			"/>
			<path fill="#772C57" d="M139.5,276.5c-2.2-7.1-1-27.6-1-27.6l30.1,0.9c0,0-21.4,9-23.3,16.2C143.4,273.1,139.5,276.5,139.5,276.5
				z"/>
			<path fill="#772C57" d="M197.7,277.5c2.2-7.1,1-27.6,1-27.6l-30.1,0.9c0,0,21.4,9,23.3,16.2C193.8,274,197.7,277.5,197.7,277.5z"
				/>
		</g>
		<g>
			<path fill="#D13F8D" d="M495.9,188.3c-6.1-3.4-16.1-11.2-16.5-20.3c-1.3,12.4-4.9,22.5-8.8,18.6c-3.9-3.9-7.5-18.6-7.5-18.6
				s-1.6,23.1-8.5,23.1s-4.2,10.1-4.2,10.1l47.5,2.9L495.9,188.3z"/>
			<path fill="#AA3177" d="M454.7,191.1c1.6,0,2.9-1.2,3.9-3.1c4.7,2.7,11.3,6.1,15.9,6.8c6.6,0.9,12.6-3,16-10.1
				c1.9,1.5,3.8,2.7,5.4,3.5l0.3,2.7c-1.8,3.8-4.9,8.3-10.4,12.4l-35.4-2.2C450.5,201.2,447.9,191.1,454.7,191.1z"/>
			<path fill="#D13F8D" d="M568,221.9v23.2c0,0-22.9,18.6-46.3,18.6c-23.4,0-72.2,0-87.9,0c-36.8,0-36.4-28.5-36.4-28.5l107.7-0.1"
				/>
			<polyline fill="#D13F8D" points="567.5,224.3 569.6,226.6 605.4,266 595.2,266 565.7,230.1 			"/>
			<path fill="#D13F8D" d="M568,221.9v35.9c0,0-22.9,18.6-46.3,18.6c-23.4,0-83.3,1.3-98.9,1.3c-20.5,0-25.4-42.6-25.4-42.6"/>
			<path fill="#D13F8D" d="M397.5,235.1c-4.4,1.2,25.5,12.6,53,12.6c22.3,0,77.6-0.2,88.2-5.9c15.3-8.1,27.7-14.6,29.6-18.2
				c2-3.6-13.3-6.8-17.2-13.7s-11.2-29-12.7-35.1c-0.5-1.9-0.3-1.2-0.3-1.2s-5.2,13.6-12.4,13.6c-7.2,0-5.2-13-5.2-13
				s-8.1,19.5-12.7,19.5c-4.6,0-5.2-13.7-5.2-13.7s-14.6,21.8-29.6,21.8c-15,0-29.9-26-30.9-30.9C442,211.3,401.8,233.9,397.5,235.1
				z"/>
			<g>
				<path fill="#F9AD5A" d="M539.6,182.1c-0.5-3.1-1.7-9.1-2-10.4c0-0.1-0.1-0.1-0.2,0c-1.2,2.1-4.1,7.5-4.9,9.4
					C531.9,182.8,539.6,182.1,539.6,182.1z"/>
				<g>
					<path fill="#F9AD5A" d="M541.1,181.7c-0.6-3.5-1.3-6.9-2-10.4c-0.1-0.5-0.6-1-1.1-1.1c-0.1,0-0.1,0-0.2,0
						c-0.7-0.1-1.4,0.1-1.7,0.7c-1.2,2.1-2.3,4.3-3.4,6.4c-0.7,1.4-2.2,3.4-1.4,5c1.1,2.3,6.3,1.4,8.3,1.2c1.9-0.2,2-3.2,0-3.1
						c-1.7,0.2-4.3,0.7-5.9-0.1c0.1,1.1,0.3,1.4,0.5,0.8c0.2-0.4,0.3-0.7,0.5-1.1c0.4-0.9,0.9-1.8,1.4-2.7c0.9-1.7,1.8-3.4,2.7-5
						c-0.6,0.2-1.1,0.5-1.7,0.7c0.1,0,0.1,0,0.2,0c-0.4-0.4-0.7-0.7-1.1-1.1c0.7,3.4,1.4,6.9,2,10.4
						C538.4,184.4,541.4,183.6,541.1,181.7z"/>
				</g>
			</g>
			<g>
				<path fill="#F9AD5A" d="M523,182.9c-0.5-3.1-1.7-9.1-2-10.4c0-0.1-0.1-0.1-0.2,0c-1.2,2.1-4.1,7.5-4.9,9.4
					C515.4,183.7,523,182.9,523,182.9z"/>
				<g>
					<path fill="#F9AD5A" d="M524.5,182.5c-0.6-3.5-1.3-6.9-2-10.4c-0.1-0.5-0.6-1-1.1-1.1c-0.1,0-0.1,0-0.2,0
						c-0.7-0.1-1.4,0.1-1.7,0.7c-1.2,2.1-2.3,4.3-3.4,6.4c-0.7,1.4-2.2,3.4-1.4,5c1.1,2.3,6.3,1.4,8.3,1.2c1.9-0.2,2-3.2,0-3.1
						c-1.7,0.2-4.3,0.7-5.9-0.1c0.1,1.1,0.3,1.4,0.5,0.8c0.2-0.4,0.3-0.7,0.5-1.1c0.4-0.9,0.9-1.8,1.4-2.7c0.9-1.7,1.8-3.4,2.7-5
						c-0.6,0.2-1.1,0.5-1.7,0.7c0.1,0,0.1,0,0.2,0c-0.4-0.4-0.7-0.7-1.1-1.1c0.7,3.4,1.4,6.9,2,10.4
						C521.9,185.2,524.8,184.4,524.5,182.5z"/>
				</g>
			</g>
			<g>
				<path fill="#F9AD5A" d="M505,186.2c-0.5-3.1-1.7-9.1-2-10.4c0-0.1-0.1-0.1-0.2,0c-1.2,2.1-4.1,7.5-4.9,9.4
					C497.4,186.9,505,186.2,505,186.2z"/>
				<g>
					<path fill="#F9AD5A" d="M506.5,185.7c-0.6-3.5-1.3-6.9-2-10.4c-0.1-0.5-0.6-1-1.1-1.1c-0.1,0-0.1,0-0.2,0
						c-0.7-0.1-1.4,0.1-1.7,0.7c-1.2,2.1-2.3,4.3-3.4,6.4c-0.7,1.4-2.2,3.4-1.4,5c1.1,2.3,6.3,1.4,8.3,1.2c1.9-0.2,2-3.2,0-3.1
						c-1.7,0.2-4.3,0.7-5.9-0.1c0.1,1.1,0.3,1.4,0.5,0.8c0.2-0.4,0.3-0.7,0.5-1.1c0.4-0.9,0.9-1.8,1.4-2.7c0.9-1.7,1.8-3.4,2.7-5
						c-0.6,0.2-1.1,0.5-1.7,0.7c0.1,0,0.1,0,0.2,0c-0.4-0.4-0.7-0.7-1.1-1.1c0.7,3.4,1.4,6.9,2,10.4
						C503.9,188.5,506.8,187.7,506.5,185.7z"/>
				</g>
			</g>
			<g>
				<path fill="#F9AD5A" d="M476.5,177.2c0.5-3.1,1.7-9.1,2-10.4c0-0.1,0.1-0.1,0.2,0c1.2,2.1,4.1,7.5,4.9,9.4
					C484.1,178,476.5,177.2,476.5,177.2z"/>
				<g>
					<path fill="#F9AD5A" d="M477.9,177.6c0.6-3.5,1.3-6.9,2-10.4c-0.4,0.4-0.7,0.7-1.1,1.1c0.1,0,0.1,0,0.2,0
						c-0.6-0.2-1.1-0.5-1.7-0.7c1.6,3,3.4,5.9,4.7,9.1c0.6-0.8,0.7-1.2,0.3-1c-0.3,0.1-0.5,0.1-0.8,0.1c-0.7,0.1-1.5,0.1-2.2,0.1
						c-0.9,0-1.9-0.1-2.8-0.2c-2-0.2-1.9,2.9,0,3.1c2,0.2,7.1,1,8.3-1.2c0.8-1.6-0.7-3.6-1.4-5c-1.1-2.2-2.3-4.3-3.4-6.4
						c-0.4-0.7-1-0.8-1.7-0.7c-0.1,0-0.1,0-0.2,0c-0.5,0.1-1,0.6-1.1,1.1c-0.7,3.4-1.4,6.9-2,10.4
						C474.7,178.7,477.6,179.6,477.9,177.6z"/>
				</g>
			</g>
			<g>
				<path fill="#F9AD5A" d="M460.6,175.7c0.5-3.1,1.7-9.1,2-10.4c0-0.1,0.1-0.1,0.2,0c1.2,2.1,4.1,7.5,4.9,9.4
					C468.3,176.5,460.6,175.7,460.6,175.7z"/>
				<g>
					<path fill="#F9AD5A" d="M462.1,176.1c0.6-3.5,1.3-6.9,2-10.4c-0.4,0.4-0.7,0.7-1.1,1.1c0.1,0,0.1,0,0.2,0
						c-0.6-0.2-1.1-0.5-1.7-0.7c1.6,3,3.4,5.9,4.7,9.1c0.6-0.8,0.7-1.2,0.3-1c-0.3,0.1-0.5,0.1-0.8,0.1c-0.7,0.1-1.5,0.1-2.2,0.1
						c-0.9,0-1.9-0.1-2.8-0.2c-2-0.2-1.9,2.9,0,3.1c2,0.2,7.1,1,8.3-1.2c0.8-1.6-0.7-3.6-1.4-5c-1.1-2.2-2.3-4.3-3.4-6.4
						c-0.4-0.7-1-0.8-1.7-0.7c-0.1,0-0.1,0-0.2,0c-0.5,0.1-1,0.6-1.1,1.1c-0.7,3.4-1.4,6.9-2,10.4
						C458.9,177.2,461.8,178,462.1,176.1z"/>
				</g>
			</g>
			<g>
				<path fill="#F9AD5A" d="M439.5,178.5c0.5-3.1,1.7-9.1,2-10.4c0-0.1,0.1-0.1,0.2,0c1.2,2.1,4.1,7.5,4.9,9.4
					C447.1,179.3,439.5,178.5,439.5,178.5z"/>
				<g>
					<path fill="#F9AD5A" d="M441,178.9c0.6-3.5,1.3-6.9,2-10.4c-0.4,0.4-0.7,0.7-1.1,1.1c0.1,0,0.1,0,0.2,0
						c-0.6-0.2-1.1-0.5-1.7-0.7c1.6,3,3.4,5.9,4.7,9.1c0.6-0.8,0.7-1.2,0.3-1c-0.3,0.1-0.5,0.1-0.8,0.1c-0.7,0.1-1.5,0.1-2.2,0.1
						c-0.9,0-1.9-0.1-2.8-0.2c-2-0.2-1.9,2.9,0,3.1c2,0.2,7.1,1,8.3-1.2c0.8-1.6-0.7-3.6-1.4-5c-1.1-2.2-2.3-4.3-3.4-6.4
						c-0.4-0.7-1-0.8-1.7-0.7c-0.1,0-0.1,0-0.2,0c-0.5,0.1-1,0.6-1.1,1.1c-0.7,3.4-1.4,6.9-2,10.4C437.7,180,440.6,180.8,441,178.9z
						"/>
				</g>
			</g>
			<g>
				<path fill="#AA3177" d="M565.8,223.8c-0.7,4.6-6.2,7.3-9.9,9.2c-7.4,3.6-15.5,5.7-23.5,7.5c-21.6,4.9-44,6.8-66.1,6.9
					c-13.2,0.1-26.4-0.6-39.4-2.8c-9.5-1.6-19.7-3.9-27.7-9.4c-1.6-1.1-3.2,1.5-1.5,2.6c6.3,4.3,13.9,6.6,21.3,8.3
					c9.8,2.3,19.9,3.3,29.9,3.9c22.5,1.3,45.3,0,67.6-3.4c12.4-1.9,24.9-4.3,36.5-9c5.7-2.3,14.8-6,15.9-13
					C569,222.7,566.1,221.9,565.8,223.8L565.8,223.8z"/>
			</g>
			<g>
				<path fill="#F7941E" d="M565,220c-0.7,4.6-6.2,7.3-9.9,9.2c-7.4,3.6-15.5,5.7-23.5,7.5c-21.6,4.9-44,6.8-66.1,6.9
					c-13.2,0.1-26.4-0.6-39.4-2.8c-9.5-1.6-19.7-3.9-27.7-9.4c-1.6-1.1-3.2,1.5-1.5,2.6c6.3,4.3,13.9,6.6,21.3,8.3
					c9.8,2.3,19.9,3.3,29.9,3.9c22.5,1.3,45.3,0,67.6-3.4c12.4-1.9,24.9-4.3,36.5-9c5.7-2.3,14.8-6,15.9-13
					C568.2,218.9,565.3,218.1,565,220L565,220z"/>
			</g>
			<polyline fill="#D13F8D" points="566.7,240.7 567.9,241.9 587.6,263.7 582,263.7 565.7,243.9 			"/>
			<path fill="#772C57" d="M504.5,276.5c2.2-7.1,1-27.6,1-27.6l-30.1,0.9c0,0,21.4,9,23.3,16.2S504.5,276.5,504.5,276.5z"/>
			<path fill="#772C57" d="M446.3,277.5c-2.2-7.1-1-27.6-1-27.6l30.1,0.9c0,0-21.4,9-23.3,16.2C450.2,274,446.3,277.5,446.3,277.5z"
				/>
		</g>
		<g>
			<g>
				<polygon fill="#A7A9AC" points="334.8,365.4 407,263.5 397.4,265.6 270.4,365.4 				"/>
				<polygon fill="#939598" points="409.5,263.5 300.6,365.4 335.3,365.4 413.4,264.9 				"/>
				<polygon fill="#939598" points="382.5,379 226,379 244.1,365.4 400.6,365.4 				"/>
				<polygon fill="#939598" points="365.1,408.8 208.5,408.8 226.6,395.2 383.2,395.2 				"/>
				<rect x="226" y="379" fill="#A7A9AC" width="156.5" height="17.1"/>
				<rect x="209.4" y="408.8" fill="#A7A9AC" width="156.5" height="17.1"/>
				<polygon fill="#939598" points="347.4,440.4 190.9,440.4 208.9,426.8 365.5,426.8 				"/>
				<rect x="191.7" y="440.4" fill="#A7A9AC" width="156.5" height="17.1"/>
			</g>
			<g>
				<g>
					<polygon fill="#717272" points="285.3,295.5 285.3,297.9 301,297.9 301,308 304.6,308 304.6,295.5 					"/>
					<polygon fill="#A7A9AC" points="304.6,295.5 318.2,285.7 318.2,297.6 304.6,308 					"/>
					<polygon fill="#939598" points="285.3,295.5 304.6,295.5 318.4,285.7 305.6,285.7 					"/>
				</g>
				<g>
					<rect x="288.6" y="296.9" fill="#717272" width="1.7" height="10.3"/>
					<rect x="297.3" y="295.9" fill="#717272" width="1.7" height="7.2"/>
				</g>
			</g>
			<g>
				<g>
					<polygon fill="#717272" points="318.2,276 318.2,278.4 333.9,278.4 333.9,288.5 337.5,288.5 337.5,276 					"/>
					<polygon fill="#A7A9AC" points="337.5,276 351.1,266.2 351.1,278.1 337.5,288.5 					"/>
					<polygon fill="#939598" points="318.2,276 337.5,276 351.3,266.2 338.5,266.2 					"/>
				</g>
				<g>
					<rect x="321.5" y="277.3" fill="#717272" width="1.7" height="10.3"/>
					<rect x="330.2" y="276.4" fill="#717272" width="1.7" height="7.2"/>
				</g>
			</g>
			<g>
				<g>
					<path fill="#286784" d="M203.8,250.6C203.8,250.6,203.7,250.6,203.8,250.6c-0.3,0-0.5,0-0.7,0c-1.7,0.1-2.6,1.5-2.6,2.8
						c0,1.4,0.9,2.7,2.7,2.6c0.2,0,0.4,0,0.5,0c0,0,0.1,0,0.2,0c0.1,0.1,0.3,0.2,0.5,0.4c0,0,0,0,0.1,0.1c0,0,0.1,0.1,0.1,0.2
						c0.1,0.2,0.3,0.4,0.4,0.7c0.1,0.2,0.3,0.6,0.5,1.2c0.9,2.6,1,5.4,1.1,8.2c0.1,5.1-0.3,10.3-1,15c-0.5,3.2,4,4.6,5.1,2
						c1.4,0.7,3.4,0.3,3.7-1.7c0.9-6,0.3-12.3-0.8-18.2C212.4,258.8,210,250.9,203.8,250.6z"/>
					<path fill="#286784" d="M210.3,236.2C210.2,236.2,210.2,236.2,210.3,236.2c-0.3,0-0.5,0-0.7,0c-1.7,0.1-2.6,1.5-2.6,2.8
						c0,1.4,0.9,2.7,2.7,2.6c0.2,0,0.4,0,0.5,0c0,0,0.1,0,0.2,0c0.1,0.1,0.3,0.2,0.5,0.4c0,0,0,0,0.1,0.1c0,0,0.1,0.1,0.1,0.2
						c0.1,0.2,0.3,0.4,0.4,0.7c0.1,0.2,0.3,0.6,0.5,1.2c0.9,2.6,1,5.4,1.1,8.2c0.1,5.1-0.3,10.3-1,15c-0.5,3.2,4,4.6,5.1,2
						c1.4,0.7,3.4,0.3,3.7-1.7c0.9-6,0.3-12.3-0.8-18.2C218.9,244.4,216.5,236.6,210.3,236.2z"/>
					<path fill="#286784" d="M217.5,218.6C217.5,218.6,217.5,218.6,217.5,218.6c-0.3,0-0.5,0-0.7,0c-1.7,0.1-2.6,1.5-2.6,2.8
						c0,1.4,0.9,2.7,2.7,2.6c0.2,0,0.4,0,0.5,0c0,0,0.1,0,0.2,0c0.1,0.1,0.3,0.2,0.5,0.4c0,0,0,0,0.1,0.1c0,0,0.1,0.1,0.1,0.2
						c0.1,0.2,0.3,0.4,0.4,0.7c0.1,0.2,0.3,0.6,0.5,1.2c0.9,2.6,1,5.4,1.1,8.2c0.1,5.1-0.3,10.3-1,15c-0.5,3.2,4,4.6,5.1,2
						c1.4,0.7,3.4,0.3,3.7-1.7c0.9-6,0.3-12.3-0.8-18.2C226.1,226.8,223.8,218.9,217.5,218.6z"/>
					<path fill="#286784" d="M224.9,203.7C224.9,203.7,224.8,203.7,224.9,203.7c-0.3,0-0.5,0-0.7,0c-1.7,0.1-2.6,1.5-2.6,2.8
						c0,1.4,0.9,2.7,2.7,2.6c0.2,0,0.4,0,0.5,0c0,0,0.1,0,0.2,0c0.1,0.1,0.3,0.2,0.5,0.4c0,0,0,0,0.1,0.1c0,0,0.1,0.1,0.1,0.2
						c0.1,0.2,0.3,0.4,0.4,0.7c0.1,0.2,0.3,0.6,0.5,1.2c0.9,2.6,1,5.4,1.1,8.2c0.1,5.1-0.3,10.3-1,15c-0.5,3.2,4,4.6,5.1,2
						c1.4,0.7,3.4,0.3,3.7-1.7c0.9-6,0.3-12.3-0.8-18.2C233.5,211.9,231.1,204,224.9,203.7z"/>
					<path fill="#286784" d="M232.8,195.1C232.8,195.1,232.8,195.1,232.8,195.1c-0.3,0-0.5,0-0.7,0c-1.7,0.1-2.6,1.5-2.6,2.8
						c0,1.4,0.9,2.7,2.7,2.6c0.2,0,0.4,0,0.5,0c0,0,0.1,0,0.2,0c0.1,0.1,0.3,0.2,0.5,0.4c0,0,0,0,0.1,0.1c0,0,0.1,0.1,0.1,0.2
						c0.1,0.2,0.3,0.4,0.4,0.7c0.1,0.2,0.3,0.6,0.5,1.2c0.9,2.6,1,5.4,1.1,8.2c0.1,5.1-0.3,10.3-1,15c-0.5,3.2,4,4.6,5.1,2
						c1.4,0.7,3.4,0.3,3.7-1.7c0.9-6,0.3-12.3-0.8-18.2C241.4,203.2,239.1,195.4,232.8,195.1z"/>
					<path fill="#286784" d="M239.7,188.4C239.7,188.4,239.7,188.4,239.7,188.4c-0.3,0-0.5,0-0.7,0c-1.7,0.1-2.6,1.5-2.6,2.8
						c0,1.4,0.9,2.7,2.7,2.6c0.2,0,0.4,0,0.5,0c0,0,0.1,0,0.2,0c0.1,0.1,0.3,0.2,0.5,0.4c0,0,0,0,0.1,0.1c0,0,0.1,0.1,0.1,0.2
						c0.1,0.2,0.3,0.4,0.4,0.7c0.1,0.2,0.3,0.6,0.5,1.2c0.9,2.6,1,5.4,1.1,8.2c0.1,5.1-0.3,10.3-1,15c-0.5,3.2,4,4.6,5.1,2
						c1.4,0.7,3.4,0.3,3.7-1.7c0.9-6,0.3-12.3-0.8-18.2C248.3,196.5,246,188.7,239.7,188.4z"/>
					<path fill="#286784" d="M247.4,182.1C247.4,182,247.3,182,247.4,182.1c-0.3,0-0.5,0-0.7,0c-1.7,0.1-2.6,1.5-2.6,2.8
						c0,1.4,0.9,2.7,2.7,2.6c0.2,0,0.4,0,0.5,0c0,0,0.1,0,0.2,0c0.1,0.1,0.3,0.2,0.5,0.4c0,0,0,0,0.1,0.1c0,0,0.1,0.1,0.1,0.2
						c0.1,0.2,0.3,0.4,0.4,0.7c0.1,0.2,0.3,0.6,0.5,1.2c0.9,2.6,1,5.4,1.1,8.2c0.1,5.1-0.3,10.3-1,15c-0.5,3.2,4,4.6,5.1,2
						c1.4,0.7,3.4,0.3,3.7-1.7c0.9-6,0.3-12.3-0.8-18.2C256,190.2,253.6,182.4,247.4,182.1z"/>
					<path fill="#286784" d="M256.1,177.6C256,177.6,256,177.6,256.1,177.6c-0.3,0-0.5,0-0.7,0c-1.7,0-2.7,1.4-2.7,2.7
						c0,1.4,0.8,2.7,2.6,2.7c0.2,0,0.4,0,0.5,0c0,0,0.1,0,0.2,0c0.1,0.1,0.2,0.2,0.5,0.5c0,0,0,0,0.1,0.1c0,0,0.1,0.1,0.1,0.2
						c0.1,0.2,0.3,0.5,0.4,0.7c0.1,0.2,0.3,0.6,0.4,1.2c0.8,2.7,0.8,5.5,0.8,8.2c-0.1,5.1-0.7,10.3-1.6,15c-0.6,3.2,3.8,4.7,5,2.2
						c1.4,0.8,3.3,0.5,3.7-1.5c1.1-5.9,0.7-12.3-0.1-18.2C264.4,186.1,262.3,178.2,256.1,177.6z"/>
					<path fill="#286784" d="M265.3,172.1C265.3,172.1,265.3,172.1,265.3,172.1c-0.3,0-0.5-0.1-0.7-0.1c-1.7-0.1-2.7,1.2-2.8,2.5
						c-0.1,1.4,0.6,2.8,2.4,2.9c0.2,0,0.4,0,0.5,0.1c0,0,0.1,0,0.1,0.1c0.1,0.1,0.2,0.2,0.5,0.5c0,0,0,0,0,0.1c0,0,0,0.1,0.1,0.2
						c0.1,0.2,0.2,0.5,0.3,0.7c0.1,0.2,0.2,0.6,0.4,1.2c0.6,2.7,0.5,5.5,0.3,8.3c-0.4,5.1-1.3,10.3-2.5,14.9
						c-0.8,3.1,3.5,4.9,4.8,2.5c1.4,0.9,3.3,0.7,3.8-1.3c1.5-5.8,1.5-12.2,1-18.2C273.1,181.1,271.5,173.1,265.3,172.1z"/>
					<path fill="#286784" d="M276.1,169.7C276,169.7,276,169.7,276.1,169.7c-0.3-0.1-0.5-0.1-0.7-0.2c-1.7-0.3-2.8,0.9-3.1,2.2
						c-0.3,1.3,0.3,2.8,2.1,3.1c0.2,0,0.4,0.1,0.5,0.1c0,0,0.1,0,0.1,0.1c0.1,0.1,0.2,0.2,0.4,0.5c0,0,0,0,0,0.1c0,0,0,0.1,0.1,0.2
						c0.1,0.2,0.2,0.5,0.3,0.7c0.1,0.2,0.1,0.7,0.2,1.3c0.3,2.8-0.1,5.5-0.6,8.2c-0.9,5-2.4,10.1-4.1,14.5c-1.1,3,3,5.3,4.6,3
						c1.3,1,3.2,1,3.9-0.9c2.1-5.6,2.8-12,2.9-18C282.8,179.5,282.1,171.3,276.1,169.7z"/>
					<path fill="#286784" d="M287.3,166.4C287.3,166.4,287.3,166.4,287.3,166.4c-0.3-0.1-0.5-0.2-0.7-0.2c-1.7-0.5-2.9,0.6-3.3,1.9
						c-0.4,1.3,0.1,2.8,1.8,3.3c0.2,0.1,0.4,0.1,0.5,0.2c0,0,0.1,0.1,0.1,0.1c0.1,0.1,0.2,0.3,0.4,0.6c0,0,0,0,0,0.1
						c0,0,0,0.1,0.1,0.2c0.1,0.2,0.1,0.5,0.2,0.8c0,0.2,0.1,0.7,0.1,1.3c0,2.8-0.7,5.5-1.4,8.1c-1.4,4.9-3.4,9.8-5.5,14
						c-1.4,2.9,2.4,5.6,4.2,3.4c1.2,1.1,3.1,1.3,4-0.5c2.6-5.4,3.9-11.7,4.7-17.6C293.1,176.8,293.2,168.6,287.3,166.4z"/>
					<path fill="#286784" d="M297.7,163.5C297.7,163.5,297.7,163.5,297.7,163.5c-0.3-0.1-0.5-0.2-0.7-0.3c-1.7-0.6-2.9,0.4-3.4,1.7
						c-0.5,1.3-0.1,2.8,1.5,3.4c0.2,0.1,0.4,0.1,0.5,0.2c0,0,0.1,0.1,0.1,0.1c0.1,0.1,0.2,0.3,0.3,0.6c0,0,0,0,0,0.1
						c0,0,0,0.1,0,0.2c0.1,0.3,0.1,0.5,0.1,0.8c0,0.2,0,0.7,0,1.3c-0.1,2.8-1,5.4-1.9,8c-1.7,4.8-3.9,9.6-6.3,13.7
						c-1.6,2.8,2.1,5.7,4,3.7c1.1,1.2,3,1.5,4-0.3c3-5.2,4.6-11.4,5.7-17.3C302.9,174.3,303.4,166.1,297.7,163.5z"/>
					<path fill="#286784" d="M308.7,164C308.7,164,308.7,164,308.7,164c-0.3-0.1-0.4-0.2-0.6-0.3c-1.6-0.7-3,0.1-3.6,1.3
						c-0.6,1.2-0.4,2.8,1.2,3.5c0.2,0.1,0.4,0.2,0.5,0.2c0,0,0.1,0.1,0.1,0.1c0.1,0.1,0.1,0.3,0.3,0.6c0,0,0,0.1,0,0.1
						c0,0,0,0.1,0,0.2c0,0.3,0,0.5,0.1,0.8c0,0.2,0,0.7-0.1,1.3c-0.4,2.7-1.6,5.3-2.8,7.8c-2.2,4.6-5,9.1-7.7,12.9
						c-1.9,2.6,1.5,5.9,3.6,4.1c1,1.3,2.8,1.8,4,0.2c3.5-4.9,5.9-10.8,7.6-16.6C312.7,175.2,314.1,167.2,308.7,164z"/>
				</g>
				<g>
					<path fill="#286784" d="M440.3,250.9C440.3,250.9,440.4,250.9,440.3,250.9c0.3,0,0.5,0,0.7,0c1.7,0.1,2.6,1.5,2.6,2.8
						c0,1.4-0.9,2.7-2.7,2.6c-0.2,0-0.4,0-0.5,0c0,0-0.1,0-0.2,0c-0.1,0.1-0.3,0.2-0.5,0.4c0,0,0,0-0.1,0.1c0,0-0.1,0.1-0.1,0.2
						c-0.1,0.2-0.3,0.4-0.4,0.7c-0.1,0.2-0.3,0.6-0.5,1.2c-0.9,2.6-1,5.4-1.1,8.2c-0.1,5.1,0.3,10.3,1,15c0.5,3.2-4,4.6-5.1,2
						c-1.4,0.7-3.4,0.3-3.7-1.7c-0.9-6-0.3-12.3,0.8-18.2C431.7,259.1,434.1,251.3,440.3,250.9z"/>
					<path fill="#286784" d="M433.8,236.6C433.8,236.6,433.9,236.6,433.8,236.6c0.3,0,0.5,0,0.7,0c1.7,0.1,2.6,1.5,2.6,2.8
						c0,1.4-0.9,2.7-2.7,2.6c-0.2,0-0.4,0-0.5,0c0,0-0.1,0-0.2,0c-0.1,0.1-0.3,0.2-0.5,0.4c0,0,0,0-0.1,0.1c0,0-0.1,0.1-0.1,0.2
						c-0.1,0.2-0.3,0.4-0.4,0.7c-0.1,0.2-0.3,0.6-0.5,1.2c-0.9,2.6-1,5.4-1.1,8.2c-0.1,5.1,0.3,10.3,1,15c0.5,3.2-4,4.6-5.1,2
						c-1.4,0.7-3.4,0.3-3.7-1.7c-0.9-6-0.3-12.3,0.8-18.2C425.2,244.8,427.6,236.9,433.8,236.6z"/>
					<path fill="#286784" d="M426.6,219C426.6,219,426.6,219,426.6,219c0.3,0,0.5,0,0.7,0c1.7,0.1,2.6,1.5,2.6,2.8
						c0,1.4-0.9,2.7-2.7,2.6c-0.2,0-0.4,0-0.5,0c0,0-0.1,0-0.2,0c-0.1,0.1-0.3,0.2-0.5,0.4c0,0,0,0-0.1,0.1c0,0-0.1,0.1-0.1,0.2
						c-0.1,0.2-0.3,0.4-0.4,0.7c-0.1,0.2-0.3,0.6-0.5,1.2c-0.9,2.6-1,5.4-1.1,8.2c-0.1,5.1,0.3,10.3,1,15c0.5,3.2-4,4.6-5.1,2
						c-1.4,0.7-3.4,0.3-3.7-1.7c-0.9-6-0.3-12.3,0.8-18.2C418,227.1,420.3,219.3,426.6,219z"/>
					<path fill="#286784" d="M419.2,204C419.2,204,419.3,204,419.2,204c0.3,0,0.5,0,0.7,0c1.7,0.1,2.6,1.5,2.6,2.8
						c0,1.4-0.9,2.7-2.7,2.6c-0.2,0-0.4,0-0.5,0c0,0-0.1,0-0.2,0c-0.1,0.1-0.3,0.2-0.5,0.4c0,0,0,0-0.1,0.1c0,0-0.1,0.1-0.1,0.2
						c-0.1,0.2-0.3,0.4-0.4,0.7c-0.1,0.2-0.3,0.6-0.5,1.2c-0.9,2.6-1,5.4-1.1,8.2c-0.1,5.1,0.3,10.3,1,15c0.5,3.2-4,4.6-5.1,2
						c-1.4,0.7-3.4,0.3-3.7-1.7c-0.9-6-0.3-12.3,0.8-18.2C410.6,212.2,412.9,204.4,419.2,204z"/>
					<path fill="#286784" d="M411.3,195.4C411.3,195.4,411.3,195.4,411.3,195.4c0.3,0,0.5,0,0.7,0c1.7,0.1,2.6,1.5,2.6,2.8
						c0,1.4-0.9,2.7-2.7,2.6c-0.2,0-0.4,0-0.5,0c0,0-0.1,0-0.2,0c-0.1,0.1-0.3,0.2-0.5,0.4c0,0,0,0-0.1,0.1c0,0-0.1,0.1-0.1,0.2
						c-0.1,0.2-0.3,0.4-0.4,0.7c-0.1,0.2-0.3,0.6-0.5,1.2c-0.9,2.6-1,5.4-1.1,8.2c-0.1,5.1,0.3,10.3,1,15c0.5,3.2-4,4.6-5.1,2
						c-1.4,0.7-3.4,0.3-3.7-1.7c-0.9-6-0.3-12.3,0.8-18.2C402.6,203.6,405,195.8,411.3,195.4z"/>
					<path fill="#286784" d="M404.4,188.7C404.4,188.7,404.4,188.7,404.4,188.7c0.3,0,0.5,0,0.7,0c1.7,0.1,2.6,1.5,2.6,2.8
						c0,1.4-0.9,2.7-2.7,2.6c-0.2,0-0.4,0-0.5,0c0,0-0.1,0-0.2,0c-0.1,0.1-0.3,0.2-0.5,0.4c0,0,0,0-0.1,0.1c0,0-0.1,0.1-0.1,0.2
						c-0.1,0.2-0.3,0.4-0.4,0.7c-0.1,0.2-0.3,0.6-0.5,1.2c-0.9,2.6-1,5.4-1.1,8.2c-0.1,5.1,0.3,10.3,1,15c0.5,3.2-4,4.6-5.1,2
						c-1.4,0.7-3.4,0.3-3.7-1.7c-0.9-6-0.3-12.3,0.8-18.2C395.7,196.9,398.1,189.1,404.4,188.7z"/>
					<path fill="#286784" d="M396.7,182.4C396.7,182.4,396.8,182.4,396.7,182.4c0.3,0,0.5,0,0.7,0c1.7,0.1,2.6,1.5,2.6,2.8
						c0,1.4-0.9,2.7-2.7,2.6c-0.2,0-0.4,0-0.5,0c0,0-0.1,0-0.2,0c-0.1,0.1-0.3,0.2-0.5,0.4c0,0,0,0-0.1,0.1c0,0-0.1,0.1-0.1,0.2
						c-0.1,0.2-0.3,0.4-0.4,0.7c-0.1,0.2-0.3,0.6-0.5,1.2c-0.9,2.6-1,5.4-1.1,8.2c-0.1,5.1,0.3,10.3,1,15c0.5,3.2-4,4.6-5.1,2
						c-1.4,0.7-3.4,0.3-3.7-1.7c-0.9-6-0.3-12.3,0.8-18.2C388.1,190.6,390.5,182.8,396.7,182.4z"/>
					<path fill="#286784" d="M388,178C388,178,388.1,178,388,178c0.3,0,0.5,0,0.7,0c1.7,0,2.7,1.4,2.7,2.7c0,1.4-0.8,2.7-2.6,2.7
						c-0.2,0-0.4,0-0.5,0c0,0-0.1,0-0.2,0c-0.1,0.1-0.2,0.2-0.5,0.5c0,0,0,0-0.1,0.1c0,0-0.1,0.1-0.1,0.2c-0.1,0.2-0.3,0.5-0.4,0.7
						c-0.1,0.2-0.3,0.6-0.4,1.2c-0.8,2.7-0.8,5.5-0.8,8.2c0.1,5.1,0.7,10.3,1.6,15c0.6,3.2-3.8,4.7-5,2.2c-1.4,0.8-3.3,0.5-3.7-1.5
						c-1.1-5.9-0.7-12.3,0.1-18.2C379.7,186.5,381.8,178.6,388,178z"/>
					<path fill="#286784" d="M378.8,172.5C378.8,172.5,378.8,172.5,378.8,172.5c0.3,0,0.5-0.1,0.7-0.1c1.7-0.1,2.7,1.2,2.8,2.5
						c0.1,1.4-0.6,2.8-2.4,2.9c-0.2,0-0.4,0-0.5,0.1c0,0-0.1,0-0.1,0.1c-0.1,0.1-0.2,0.2-0.5,0.5c0,0,0,0,0,0.1c0,0,0,0.1-0.1,0.2
						c-0.1,0.2-0.2,0.5-0.3,0.7c-0.1,0.2-0.2,0.6-0.4,1.2c-0.6,2.7-0.5,5.5-0.3,8.3c0.4,5.1,1.3,10.3,2.5,14.9
						c0.8,3.1-3.5,4.9-4.8,2.5c-1.4,0.9-3.3,0.7-3.8-1.3c-1.5-5.8-1.5-12.2-1-18.2C371,181.5,372.6,173.4,378.8,172.5z"/>
					<path fill="#286784" d="M368,170C368.1,170,368.1,170,368,170c0.3-0.1,0.5-0.1,0.7-0.2c1.7-0.3,2.8,0.9,3.1,2.2
						c0.3,1.3-0.3,2.8-2.1,3.1c-0.2,0-0.4,0.1-0.5,0.1c0,0-0.1,0-0.1,0.1c-0.1,0.1-0.2,0.2-0.4,0.5c0,0,0,0,0,0.1c0,0,0,0.1-0.1,0.2
						c-0.1,0.2-0.2,0.5-0.3,0.7c-0.1,0.2-0.1,0.7-0.2,1.3c-0.3,2.8,0.1,5.5,0.6,8.2c0.9,5,2.4,10.1,4.1,14.5c1.1,3-3,5.3-4.6,3
						c-1.3,1-3.2,1-3.9-0.9c-2.1-5.6-2.8-12-2.9-18C361.3,179.8,362,171.7,368,170z"/>
					<path fill="#286784" d="M356.7,166.8C356.8,166.8,356.8,166.8,356.7,166.8c0.3-0.1,0.5-0.2,0.7-0.2c1.7-0.5,2.9,0.6,3.3,1.9
						c0.4,1.3-0.1,2.8-1.8,3.3c-0.2,0.1-0.4,0.1-0.5,0.2c0,0-0.1,0.1-0.1,0.1c-0.1,0.1-0.2,0.3-0.4,0.6c0,0,0,0,0,0.1
						c0,0,0,0.1-0.1,0.2c-0.1,0.2-0.1,0.5-0.2,0.8c0,0.2-0.1,0.7-0.1,1.3c0,2.8,0.7,5.5,1.4,8.1c1.4,4.9,3.4,9.8,5.5,14
						c1.4,2.9-2.4,5.6-4.2,3.4c-1.2,1.1-3.1,1.3-4-0.5c-2.6-5.4-3.9-11.7-4.7-17.6C351,177.2,350.9,169,356.7,166.8z"/>
					<path fill="#286784" d="M346.3,163.9C346.4,163.9,346.4,163.9,346.3,163.9c0.3-0.1,0.5-0.2,0.7-0.3c1.7-0.6,2.9,0.4,3.4,1.7
						c0.5,1.3,0.1,2.8-1.5,3.4c-0.2,0.1-0.4,0.1-0.5,0.2c0,0-0.1,0.1-0.1,0.1c-0.1,0.1-0.2,0.3-0.3,0.6c0,0,0,0,0,0.1
						c0,0,0,0.1,0,0.2c-0.1,0.3-0.1,0.5-0.1,0.8c0,0.2,0,0.7,0,1.3c0.1,2.8,1,5.4,1.9,8c1.7,4.8,3.9,9.6,6.3,13.7
						c1.6,2.8-2.1,5.7-4,3.7c-1.1,1.2-3,1.5-4-0.3c-3-5.2-4.6-11.4-5.7-17.3C341.2,174.6,340.6,166.5,346.3,163.9z"/>
					<path fill="#286784" d="M335.4,164.4C335.4,164.4,335.4,164.3,335.4,164.4c0.3-0.1,0.4-0.2,0.6-0.3c1.6-0.7,3,0.1,3.6,1.3
						c0.6,1.2,0.4,2.8-1.2,3.5c-0.2,0.1-0.4,0.2-0.5,0.2c0,0-0.1,0.1-0.1,0.1c-0.1,0.1-0.1,0.3-0.3,0.6c0,0,0,0.1,0,0.1
						c0,0,0,0.1,0,0.2c0,0.3,0,0.5-0.1,0.8c0,0.2,0,0.7,0.1,1.3c0.4,2.7,1.6,5.3,2.8,7.8c2.2,4.6,5,9.1,7.7,12.9
						c1.9,2.6-1.5,5.9-3.6,4.1c-1,1.3-2.8,1.8-4,0.2c-3.5-4.9-5.9-10.8-7.6-16.6C331.4,175.6,330,167.5,335.4,164.4z"/>
				</g>
				<g>
					<path fill="#F7941E" d="M231,306c0-4.7,0.3-9.4,0.9-14c-0.2,1.2-0.3,2.4-0.5,3.6c1.2-9,3.7-17.8,7.2-26.2
						c-0.5,1.1-0.9,2.2-1.4,3.2c3.5-8.2,8-15.9,13.4-22.9c-0.7,0.9-1.4,1.8-2.1,2.7c5.4-7,11.7-13.2,18.7-18.7
						c-0.9,0.7-1.8,1.4-2.7,2.1c7-5.4,14.7-9.9,22.9-13.4c-1.1,0.5-2.2,0.9-3.2,1.4c8.4-3.5,17.2-5.9,26.2-7.2
						c-1.2,0.2-2.4,0.3-3.6,0.5c9.3-1.2,18.7-1.2,28,0c-1.2-0.2-2.4-0.3-3.6-0.5c9,1.2,17.8,3.7,26.2,7.2c-1.1-0.5-2.2-0.9-3.2-1.4
						c8.2,3.5,15.9,8,22.9,13.4c-0.9-0.7-1.8-1.4-2.7-2.1c7,5.4,13.2,11.7,18.7,18.7c-0.7-0.9-1.4-1.8-2.1-2.7
						c5.4,7,9.9,14.7,13.4,22.9c-0.5-1.1-0.9-2.2-1.4-3.2c3.5,8.4,5.9,17.2,7.2,26.2c-0.2-1.2-0.3-2.4-0.5-3.6
						c0.6,4.7,0.9,9.3,0.9,14c0,7.4,6.1,13.5,13.5,13.5c7.4,0,13.6-6.2,13.5-13.5c0-18.5-4.5-36.6-12.8-53.1
						c-8-16-20-29.5-34.1-40.4c-28.4-21.9-67.1-28.6-101.5-19.1c-17.3,4.8-33.2,13.8-46.6,25.7c-6.7,5.9-12.4,12.7-17.6,19.9
						c-5.3,7.3-9.2,15.3-12.7,23.6c-5.7,13.6-8.4,28.7-8.4,43.4c0,7.4,6.2,13.5,13.5,13.5C224.8,319.6,231,313.4,231,306L231,306z"
						/>
				</g>
				<g>
					<path fill="#286784" d="M341.6,180.3c-8.9-5.9-20.5-6.1-30-1.7c-9.4,4.3-15.9,13.9-17.1,24c-1.3,10.4,2.9,20.9,11,27.5
						c9.4,7.7,22.2,9,33.1,4c10.6-4.9,17.2-16.2,17.4-27.7C355.8,195.7,350.5,186.1,341.6,180.3z"/>
					<circle fill="#00AEEF" cx="325.1" cy="206.3" r="24.5"/>
					<g>
						<g>
							<path fill="#286784" d="M325.4,207.5c0-3.6,1.3-4.7,4.5-6.9c3.3-2.2,5.6-3.3,5.5-4.7c2.4,3.3,3.3,3.4,3.3,6.2
								s-5.6,6.4-7.7,6.4c3.4,0,4.4,3.3,1.6,5.8c-1,0.9-3.1,2.2-3.4,2.3c-0.3,0.1-3.8-2.1-3.8-5.4S325.4,207.5,325.4,207.5z"/>
							<path fill="#286784" d="M324.5,207.5c0-3.6-1.3-4.7-4.5-6.9c-3.3-2.2-5.6-3.3-5.5-4.7c-2.4,3.3-3.3,3.4-3.3,6.2
								s5.6,6.4,7.7,6.4c-3.4,0-4.4,3.3-1.6,5.8c1,0.9,3.1,2.2,3.4,2.3c0.3,0.1,3.8-2.1,3.8-5.4S324.5,207.5,324.5,207.5z"/>
							<path fill="#286784" d="M329.8,198.4c0-0.2-0.1-0.4-0.2-0.5c-2.7-2.9-6.7-3.1-9.4-0.1c-0.3,0.4-0.4,0.9,0,1.3
								c0.9,1,2.1,1.7,3.2,2.4c0.6,0.4,1.7,1.2,1.7,2c0-0.7,0.7-1.5,1.5-1.9c1.1-0.7,2.2-1.6,3.1-2.4
								C329.7,198.9,329.8,198.6,329.8,198.4z M320.8,198.4c2.3-2.8,5.7-2.7,8.1,0.1C325.7,201.8,323.9,201.7,320.8,198.4z"/>
							<path fill="#286784" d="M324.7,196.9c-1,0-1.8,0.8-1.8,1.7c0,1,0.8,1.7,1.8,1.7s1.8-0.8,1.8-1.7
								C326.5,197.7,325.7,196.9,324.7,196.9z M324.4,199c-0.3,0-0.6-0.3-0.6-0.6c0-0.3,0.3-0.6,0.6-0.6c0.3,0,0.6,0.3,0.6,0.6
								C325.1,198.7,324.8,199,324.4,199z"/>
							<path fill="#286784" d="M333.7,196.2c-0.2-0.8-0.3-1.6-0.5-2.5c-0.1-0.4-0.5-0.7-0.9-0.7c-1.5,0-2.9,0.2-4.2-0.7
								c-0.9-0.6-1.6-1.6-2.6-2.1c-0.4-0.2-0.8-0.1-1.1,0.1c-0.8,0.7-1.6,1.3-2.3,2c-0.3,0.3-0.6,0.5-1,0.8c-0.3,0-0.6,0-0.9,0
								c-0.7,0-2.8-0.4-3.2,0.5c-0.4,0.9-0.5,2-0.7,2.9c-0.1,0.5,0.2,0.9,0.6,1c0.2,0.2,0.6,0.2,0.9,0c1.9-1.4,4.7-2.5,7.1-2.6
								c2.5-0.1,5.3,1.2,7.5,2.3C333.1,197.6,333.9,197,333.7,196.2z"/>
							<path fill="#286784" d="M339,206.7c0-1.2-1.9-1.2-1.9,0c-0.1,6.3-5.4,11.2-12.1,11.3c-6.7,0.1-11.9-5.2-12.1-11.3
								c0-1.2-1.9-1.2-1.9,0c0.1,5.5,3.7,10.1,8.7,12.1c1.5,0.6,4.3,1.9,5,2.4c0.6,0.4,0.6,0.4,1.1,0c0.4-0.3,2.7-1.4,4.5-2.3
								c0.7-0.3,1.4-0.6,2-1c0,0,0,0,0,0l0,0C336.3,215.5,338.9,211.3,339,206.7z"/>
						</g>
						<g>
							<path fill="#286784" d="M323.9,226.5C323.9,226.5,323.9,226.5,323.9,226.5c-0.2,0-0.3,0-0.4,0c-0.8-0.1-1.4-0.7-1.3-1.5
								c0.1-0.8,0.7-1.4,1.5-1.3c0.1,0,0.2,0,0.3,0c0.8,0,1.4,0.7,1.3,1.5C325.3,225.9,324.7,226.5,323.9,226.5z M328.9,226.1
								c-0.7,0-1.2-0.5-1.4-1.1c-0.2-0.8,0.3-1.5,1.1-1.7c0.1,0,0.2,0,0.3-0.1c0.8-0.2,1.5,0.3,1.7,1.1c0.2,0.8-0.3,1.5-1.1,1.7
								c-0.1,0-0.2,0-0.3,0.1C329.1,226.1,329,226.1,328.9,226.1z M318.7,225.5c-0.2,0-0.3,0-0.5-0.1c-0.1,0-0.2-0.1-0.3-0.1
								c-0.7-0.3-1.1-1.1-0.9-1.8c0.3-0.7,1.1-1.1,1.8-0.9c0.1,0,0.2,0.1,0.2,0.1c0.7,0.3,1.1,1.1,0.9,1.8
								C319.9,225.1,319.3,225.5,318.7,225.5z M333.9,224.4c-0.5,0-1-0.3-1.3-0.8c-0.4-0.7-0.1-1.5,0.6-1.9c0.1,0,0.2-0.1,0.2-0.1
								c0.7-0.4,1.5-0.1,1.9,0.6c0.4,0.7,0.1,1.5-0.6,1.9c-0.1,0-0.2,0.1-0.3,0.1C334.4,224.3,334.2,224.4,333.9,224.4z M314,223.1
								c-0.3,0-0.6-0.1-0.8-0.2c-0.1-0.1-0.2-0.1-0.2-0.2c-0.6-0.5-0.8-1.3-0.3-2c0.5-0.6,1.3-0.8,2-0.3c0.1,0.1,0.1,0.1,0.2,0.1
								c0.6,0.4,0.8,1.3,0.4,2C314.9,222.9,314.4,223.1,314,223.1z M338.3,221.3c-0.4,0-0.8-0.2-1-0.5c-0.5-0.6-0.5-1.5,0.1-2
								c0.1-0.1,0.1-0.1,0.2-0.2c0.6-0.5,1.5-0.5,2,0c0.5,0.6,0.5,1.5,0,2c-0.1,0.1-0.1,0.1-0.2,0.2
								C339,221.2,338.6,221.3,338.3,221.3z M310.1,219.5c-0.4,0-0.8-0.2-1.1-0.5c-0.1-0.1-0.1-0.2-0.2-0.2c-0.5-0.6-0.4-1.5,0.2-2
								c0.6-0.5,1.5-0.4,2,0.2c0.1,0.1,0.1,0.1,0.2,0.2c0.5,0.6,0.4,1.5-0.2,2C310.7,219.4,310.4,219.5,310.1,219.5z M341.6,217.2
								c-0.3,0-0.5-0.1-0.7-0.2c-0.7-0.4-0.9-1.3-0.5-1.9c0-0.1,0.1-0.1,0.1-0.2c0.4-0.7,1.3-0.9,1.9-0.5c0.7,0.4,0.9,1.3,0.5,1.9
								c-0.1,0.1-0.1,0.2-0.2,0.3C342.6,217,342.1,217.2,341.6,217.2z M307.2,215c-0.5,0-1.1-0.3-1.3-0.8c0-0.1-0.1-0.2-0.1-0.3
								c-0.3-0.7,0-1.5,0.7-1.9c0.7-0.3,1.5,0,1.9,0.7c0,0.1,0.1,0.2,0.1,0.2c0.3,0.7,0,1.5-0.7,1.9C307.6,215,307.4,215,307.2,215z
								 M343.8,212.3c-0.1,0-0.3,0-0.4-0.1c-0.8-0.2-1.2-1-1-1.7c0-0.1,0-0.2,0.1-0.2c0.2-0.8,1-1.2,1.7-1c0.8,0.2,1.2,1,1,1.7
								c0,0.1-0.1,0.2-0.1,0.3C345,211.9,344.4,212.3,343.8,212.3z M305.7,209.9c-0.7,0-1.3-0.5-1.4-1.2c0-0.1,0-0.2,0-0.3
								c-0.1-0.8,0.4-1.5,1.2-1.6c0.8-0.1,1.5,0.4,1.6,1.2c0,0.1,0,0.2,0,0.3c0.1,0.8-0.4,1.5-1.2,1.6
								C305.9,209.9,305.8,209.9,305.7,209.9z M344.5,207.1c-0.8,0-1.4-0.6-1.4-1.4l0-0.1c0-0.1,0-0.1,0-0.2c0-0.8,0.6-1.4,1.4-1.4
								c0,0,0,0,0,0c0.8,0,1.4,0.6,1.4,1.4c0,0.1,0,0.2,0,0.3C345.9,206.4,345.3,207.1,344.5,207.1z M305.7,204.6
								c-0.1,0-0.1,0-0.2,0c-0.8-0.1-1.3-0.8-1.2-1.6c0-0.1,0-0.2,0-0.3c0.1-0.8,0.8-1.3,1.6-1.2c0.8,0.1,1.3,0.8,1.2,1.6
								c0,0.1,0,0.2,0,0.3C307,204.1,306.4,204.6,305.7,204.6z M343.8,201.8c-0.6,0-1.2-0.4-1.4-1c0-0.1,0-0.2-0.1-0.2
								c-0.2-0.7,0.2-1.5,1-1.8c0.7-0.2,1.5,0.2,1.8,1c0,0.1,0.1,0.2,0.1,0.3c0.2,0.8-0.2,1.5-1,1.7
								C344,201.8,343.9,201.8,343.8,201.8z M307,199.5c-0.2,0-0.4,0-0.5-0.1c-0.7-0.3-1.1-1.1-0.8-1.8c0-0.1,0.1-0.2,0.1-0.3
								c0.3-0.7,1.1-1,1.9-0.7c0.7,0.3,1,1.1,0.7,1.9c0,0.1-0.1,0.2-0.1,0.2C308.1,199.2,307.6,199.5,307,199.5z M341.7,196.9
								c-0.5,0-0.9-0.2-1.2-0.7c0-0.1-0.1-0.1-0.1-0.2c-0.4-0.7-0.2-1.5,0.4-1.9c0.7-0.4,1.5-0.2,1.9,0.4c0.1,0.1,0.1,0.2,0.2,0.3
								c0.4,0.7,0.2,1.5-0.5,1.9C342.2,196.8,341.9,196.9,341.7,196.9z M309.7,194.9c-0.3,0-0.6-0.1-0.9-0.3c-0.6-0.5-0.7-1.4-0.2-2
								c0.1-0.1,0.1-0.2,0.2-0.2c0.5-0.6,1.4-0.7,2-0.2c0.6,0.5,0.7,1.4,0.2,2c-0.1,0.1-0.1,0.1-0.2,0.2
								C310.6,194.8,310.1,194.9,309.7,194.9z M338.3,192.8c-0.3,0-0.7-0.1-1-0.4c-0.1-0.1-0.1-0.1-0.2-0.2c-0.6-0.5-0.6-1.4-0.1-2
								c0.5-0.6,1.4-0.6,2-0.1c0.1,0.1,0.1,0.1,0.2,0.2c0.6,0.5,0.6,1.4,0.1,2C339.1,192.6,338.7,192.8,338.3,192.8z M313.6,191.3
								c-0.4,0-0.9-0.2-1.1-0.6c-0.5-0.6-0.3-1.5,0.3-2c0.1-0.1,0.2-0.1,0.2-0.2c0.6-0.4,1.5-0.3,2,0.3c0.5,0.6,0.3,1.5-0.3,2
								c-0.1,0.1-0.1,0.1-0.2,0.2C314.1,191.2,313.8,191.3,313.6,191.3z M334,189.7c-0.2,0-0.4-0.1-0.7-0.2c-0.1,0-0.2-0.1-0.2-0.1
								c-0.7-0.3-1-1.2-0.6-1.9c0.3-0.7,1.2-1,1.9-0.6c0.1,0,0.2,0.1,0.3,0.1c0.7,0.4,1,1.2,0.6,1.9
								C335,189.5,334.5,189.7,334,189.7z M318.2,188.8c-0.6,0-1.1-0.4-1.3-0.9c-0.3-0.7,0.1-1.5,0.8-1.8c0.1,0,0.2-0.1,0.3-0.1
								c0.7-0.3,1.5,0.1,1.8,0.9c0.3,0.7-0.1,1.5-0.9,1.8c-0.1,0-0.2,0.1-0.2,0.1C318.6,188.7,318.4,188.8,318.2,188.8z M329,188
								c-0.1,0-0.2,0-0.3,0c-0.1,0-0.2,0-0.3-0.1c-0.8-0.1-1.3-0.9-1.1-1.7c0.1-0.8,0.9-1.3,1.7-1.1c0.1,0,0.2,0,0.3,0.1
								c0.8,0.2,1.3,0.9,1.1,1.7C330.2,187.5,329.6,188,329,188z M323.4,187.6c-0.7,0-1.3-0.6-1.4-1.3c-0.1-0.8,0.5-1.5,1.3-1.5
								c0.1,0,0.2,0,0.3,0c0.8-0.1,1.5,0.5,1.5,1.3c0.1,0.8-0.5,1.5-1.3,1.5c-0.1,0-0.2,0-0.3,0
								C323.5,187.6,323.5,187.6,323.4,187.6z"/>
						</g>
					</g>
				</g>
				<g>
					<polygon fill="#F15A29" points="243.6,338.8 187.6,338.8 194.8,321.7 236.4,321.7 					"/>
					<polygon fill="#F15A29" points="453.4,338.8 397.4,338.8 404.6,321.7 446.2,321.7 					"/>
					<rect x="397.4" y="338.8" fill="#EF4136" width="56.5" height="26.6"/>
					<rect x="187.6" y="338.8" fill="#EF4136" width="56.5" height="26.6"/>
				</g>
				<g>
					<path fill="#286784" d="M228.7,285.1c-7.2-4.8-16.5-5-24.2-1.4c-7.6,3.5-12.8,11.2-13.8,19.4c-1,8.4,2.4,16.8,8.8,22.2
						c7.5,6.2,17.9,7.3,26.7,3.2c8.6-4,13.9-13.1,14-22.4C240.1,297.5,235.8,289.8,228.7,285.1z"/>
					<circle fill="#00AEEF" cx="215.4" cy="306" r="17.4"/>
					<circle fill="#286784" cx="215.4" cy="306" r="3.8"/>
				</g>
				<g>
					<path fill="#286784" d="M437.8,285.1c-7.2-4.8-16.5-5-24.2-1.4c-7.6,3.5-12.8,11.2-13.8,19.4c-1,8.4,2.4,16.8,8.8,22.2
						c7.5,6.2,17.9,7.3,26.7,3.2c8.6-4,13.9-13.1,14-22.4C449.2,297.5,444.9,289.8,437.8,285.1z"/>
					<circle fill="#00AEEF" cx="424.4" cy="306" r="17.4"/>
					<circle fill="#286784" cx="424.4" cy="306" r="3.8"/>
				</g>
				<g>
					<path fill="#FFCD8A" d="M287.6,213.8c-6.7-0.5-10.1,5.5-11,11.3c-0.4,2.8-0.6,5.6-0.5,8.4c0.1,2.8,0.5,5.6-0.1,8.3
						c-0.6,2.7-2.9,3.6-5.6,3.7c-2.3,0.1-4.3-1-5.8-2.7c-0.5-0.5-1.2-1.7-1.4-2.1c-0.2-0.5-0.3-1.1-0.4-1.6c0.1,0.6,0.1-1.3,0-0.6
						c0-0.2,0.1-0.5,0.2-0.7c-0.2,0.6,0.1-0.1,0.1-0.2c-0.3,0.5,0.1-0.1,0.2-0.2c-0.4,0.4,0.2-0.1,0.3-0.2c0.7-0.4,2.2-0.4,3.4-0.3
						c3.5,0.3,3.5-5.1,0-5.4c-3.1-0.3-6.5,0.4-8.4,3.1c-1.5,2.1-1.4,5-0.6,7.4c2.4,6.5,9,9.6,15.6,8.4c3.7-0.7,6.3-3.2,7.5-6.6
						c1.1-3.1,0.7-6.7,0.6-9.9c-0.1-2.8-0.1-5.6,0.4-8.3c0.4-2.5,1.3-5.2,3.3-6.3c0.5-0.3,1.5-0.3,2.3-0.3
						C291.1,219.4,291.1,214,287.6,213.8L287.6,213.8z"/>
				</g>
				<g>
					<path fill="#FFCD8A" d="M260.7,240.5c-6.7-0.5-10.1,5.5-11,11.3c-0.4,2.8-0.6,5.6-0.5,8.4c0.1,2.8,0.5,5.6-0.1,8.3
						c-0.6,2.7-2.9,3.6-5.6,3.7c-2.3,0.1-4.3-1-5.8-2.7c-0.5-0.5-1.2-1.7-1.4-2.1c-0.2-0.5-0.3-1.1-0.4-1.6c0.1,0.6,0.1-1.3,0-0.6
						c0-0.2,0.1-0.5,0.2-0.7c-0.2,0.6,0.1-0.1,0.1-0.2c-0.3,0.5,0.1-0.1,0.2-0.2c-0.4,0.4,0.2-0.1,0.3-0.2c0.7-0.4,2.2-0.4,3.4-0.3
						c3.5,0.3,3.5-5.1,0-5.4c-3.1-0.3-6.5,0.4-8.4,3.1c-1.5,2.1-1.4,5-0.6,7.4c2.4,6.5,9,9.6,15.6,8.4c3.7-0.7,6.3-3.2,7.5-6.6
						c1.1-3.1,0.7-6.7,0.6-9.9c-0.1-2.8-0.1-5.6,0.4-8.3c0.4-2.5,1.3-5.2,3.3-6.3c0.5-0.3,1.5-0.3,2.3-0.3
						C264.2,246.1,264.2,240.7,260.7,240.5L260.7,240.5z"/>
				</g>
				<g>
					<path fill="#FFCD8A" d="M364.5,225.7c2.6-0.2,3.9,1,4.8,3.4c1,2.7,1.2,5.7,1.3,8.7c0.1,6.2-1.6,13.7,4.3,17.8
						c2.9,2,7.3,2.3,10.7,1.3c3-0.9,5.4-3,7.2-5.5c3.3-4.7,2.5-11.7-3.8-13.1c-1.2-0.3-2.5-0.3-3.8-0.2c-3.5,0.3-3.5,5.7,0,5.4
						c1.1-0.1,2.6,0,3.1,0.2c0.7,0.3,0.5,0.2,0.9,0.6c-0.4-0.4,0,0.1,0.1,0.2c-0.3-0.5,0,0.1,0,0.2c0.1,0.3,0.1,0.3,0,0
						c0,0.2,0,0.5,0,0.8c0,0.8,0.1-0.5,0,0.3c-0.1,0.3-0.1,0.5-0.2,0.8c-0.2,0.7-0.8,1.8-1.4,2.4c-2.7,3.2-10,4.8-11.6-0.4
						c-0.8-2.7-0.4-5.7-0.2-8.4c0.1-2.8,0-5.6-0.4-8.3c-0.9-5.9-4.1-12.1-11-11.7C361,220.5,361,226,364.5,225.7L364.5,225.7z"/>
				</g>
				<g>
					<path fill="#FFCD8A" d="M391.4,252.4c2.6-0.2,3.9,1,4.8,3.4c1,2.7,1.2,5.7,1.3,8.7c0.1,6.2-1.6,13.7,4.3,17.8
						c2.9,2,7.3,2.3,10.7,1.3c3-0.9,5.4-3,7.2-5.5c3.3-4.7,2.5-11.7-3.8-13.1c-1.2-0.3-2.5-0.3-3.8-0.2c-3.5,0.3-3.5,5.7,0,5.4
						c1.1-0.1,2.6,0,3.1,0.2c0.7,0.3,0.5,0.2,0.9,0.6c-0.4-0.4,0,0.1,0.1,0.2c-0.3-0.5,0,0.1,0,0.2c0.1,0.3,0.1,0.3,0,0
						c0,0.2,0,0.5,0,0.8c0,0.8,0.1-0.5,0,0.3c-0.1,0.3-0.1,0.5-0.2,0.8c-0.2,0.7-0.8,1.8-1.4,2.4c-2.7,3.2-10,4.8-11.6-0.4
						c-0.8-2.7-0.4-5.7-0.2-8.4c0.1-2.8,0-5.6-0.4-8.3c-0.9-5.9-4.1-12.1-11-11.7C387.9,247.2,387.9,252.6,391.4,252.4L391.4,252.4z
						"/>
				</g>
				<g>
					<path fill="#286784" d="M370.8,244c-1.1-1.9-3.1-3.2-5.2-3.6c-0.9-0.1-1.8-0.1-2.7,0c1.1-0.3,2.1-0.7,3.2-1
						c0.4-0.1,0.7-0.3,0.9-0.5c1.3-0.6,2.1-1.9,1.4-3.7c-2.2-6-4.5-11.9-6.7-17.9c-0.6-1.6-2.3-3-4.1-2.3
						c-10.6,3.6-21.4,5.6-32.6,5.6c-11.1,0-22.1-2.1-32.6-5.6c-1.9-0.6-3.5,0.7-4.1,2.3c-2.2,6-4.5,11.9-6.7,17.9
						c-0.7,1.8,0.7,3.6,2.3,4.1c2.7,0.9,5.4,1.8,8.2,2.5c1.2,2.3,2.6,4.5,3.2,6.5c0.1,0.4,0.2,0.8,0.3,1.2c0.1,0.3,0.1,0.4,0.1,0.4
						c0,0,0,0,0,0.4c0,0.2,0,0.3,0,0.3c0,0,0,0-0.1,0.2c0,0.1-0.1,0.2-0.1,0.2c-0.1,0.1-0.1,0.3-0.2,0.4c0.1-0.2-0.4,0.3-0.6,0.6
						c-0.1,0-0.1,0.1-0.3,0.2c-0.3,0.2-0.7,0.4-1.1,0.6c-1.3,0.6-2.7,1-4.1,1c-3,0.2-6.1-0.9-7.7-3.6c-1.2-1.9-0.8-5.8,2.1-3.6
						c1.4,1.1,3.3,1.4,4.8,0c1.2-1.2,1.4-3.6,0-4.8c-4-3.1-9.4-3.9-12.7,0.6c-3.1,4.2-1.4,9.5,1.5,13.2c5.2,6.6,16.9,6.2,22.7,0.6
						c3.7-3.6,2.6-8.4,0.7-12.5c14.9,2.9,30.1,3.2,45,0.7c-1.9,4.2-3,8.6,0.3,12.6c2.4,2.9,6.8,4,10.3,4.4c4.4,0.5,9.1-1.2,12.2-4.4
						C372.1,253.8,373.3,248.3,370.8,244z M365,250.8c-1.4,2.9-4.4,4.1-7.4,4.1c-2.4,0-5.2-0.9-6.6-2.4c0.1,0.1-0.2-0.4-0.3-0.6
						c0.1,0.1-0.1-0.3-0.1-0.3c0-0.1,0-0.9,0-0.8c0.1-0.4,0.2-0.8,0.3-1.2c0.5-1.6,1.4-3.3,2.5-5.2c0.3-0.6,0.6-1.1,0.9-1.7
						c2.2-0.5,4.4-1.1,6.7-1.8c-1.1,0.5-2.1,1.1-3.1,1.9c-1.4,1.1-1.2,3.6,0,4.8c1.4,1.4,3.3,1.1,4.8,0
						C365.2,245.7,366,248.7,365,250.8z"/>
					<path fill="#286784" d="M403.8,233.2C403.8,233.2,403.8,233.2,403.8,233.2c1.2-0.5,1.9-1.3,2.3-2.2c0.7-1.4,0.8-3-0.2-4.3
						c-4-5.5-7.2-11.6-11.2-17.1c-1.2-1.7-3.1-2.7-5.2-2.1c-21.5,6.3-43.5,10-65.9,9.9c-21.6-0.1-43-4.2-63.1-12
						c-2-0.8-4,0.6-5.2,2.1c-4.4,5.9-8.8,11.9-13.3,17.8c-1.8,2.4,0.1,6,2.7,6.7c25.5,7.3,51.4,14.5,78.1,15.2
						c27.2,0.7,54-6.5,80-13.8c0.2,0,0.4-0.1,0.7-0.2C403.7,233.2,403.7,233.2,403.8,233.2z"/>
					<g>
						<path fill="#E598C9" d="M402,229c-26.1,7.3-51.3,13.9-76.9,13.8c-25.7-0.2-51.6-7.3-79.1-15.1c4.4-5.9,8.8-11.9,13.3-17.8
							c41.3,16,85,15.7,131.5,2C395.2,217.8,397.5,223.1,402,229z"/>
					</g>
				</g>
			</g>
			<g>
				<g>
					<polygon fill="#717272" points="251.1,312.6 251.1,314.9 266.8,314.9 266.8,325.1 270.4,325.1 270.4,312.6 					"/>
					<polygon fill="#A7A9AC" points="270.4,312.6 284,302.7 284,314.6 270.4,325.1 					"/>
					<polygon fill="#939598" points="251.1,312.6 270.4,312.6 284.2,302.7 271.4,302.7 					"/>
				</g>
				<g>
					<rect x="254.4" y="313.9" fill="#717272" width="1.7" height="10.3"/>
					<rect x="263.1" y="312.9" fill="#717272" width="1.7" height="7.2"/>
				</g>
			</g>
		</g>
	</g>
	<g>
		<polyline opacity="0.4" fill="#231F20" points="514.8,370.4 537.5,382.8 493.8,401 425.2,375.7 451.2,363.1 		"/>
		<g>
			<g>
				<polyline fill="#F9AD5A" points="520.1,294.6 519,376 495.5,384.8 492,348.1 492.7,300.4 				"/>
			</g>
			<polygon fill="#F7941E" points="495.5,384.8 452.8,370.5 451.1,347 492.7,350.1 			"/>
			<polygon fill="#F15A29" points="486,357.3 464.2,363.1 451.6,355.5 451.1,347 486,352.5 			"/>
			<polygon fill="#F9AD5A" points="529.4,282.5 529.4,295.8 493.7,306.7 451.2,289.9 451.5,279.6 			"/>
			<polygon fill="#F7941E" points="529.4,282.5 490.4,293.5 451.5,279.6 492.9,272.8 			"/>
			<polygon fill="#EF4136" points="490.4,293.5 460.4,282.7 491,277.7 519.5,285.3 			"/>
			<polygon fill="#F7941E" points="464.1,358.2 492.7,350.6 492.7,306.7 451.2,289.9 451.2,335.8 437,337.8 437,341.8 			"/>
			<polygon fill="#3DCDF9" points="489,309.2 489,339.6 456.1,328.9 455.9,297 			"/>
			<polygon fill="#86E2F7" points="484.9,309.8 484.9,314.9 465.7,308 465.6,328.4 458.8,326.2 458.8,300.4 			"/>
			<polygon fill="#F9AD5A" points="464.1,354.2 489,347.3 458,335.9 438.8,338.9 			"/>
			<polygon fill="#F9AD5A" points="452.1,287.6 423.8,293.4 423.8,293.4 459.7,309.9 493.8,305 			"/>
			<polygon fill="#F9AD5A" points="489,344.7 456.1,308.2 451.5,305.7 484.9,344.7 489,347.3 			"/>
			<polygon fill="#F9AD5A" points="462.1,332.7 428.5,295 423.8,293.4 457.3,331.4 			"/>
		</g>
	</g>
	<g>
		<polyline opacity="0.4" fill="#231F20" points="187,366.4 209.8,378.8 166,397 94.1,369 123.5,359.2 		"/>
		<g>
			<g>
				<polyline fill="#F9AD5A" points="192.3,290.6 191.2,372.1 167.7,380.8 164.2,344.1 164.9,296.5 				"/>
			</g>
			<polygon fill="#F7941E" points="167.7,380.8 125.1,366.5 123.4,343 164.9,346.1 			"/>
			<polygon fill="#F15A29" points="158.2,353.4 136.4,359.2 123.8,351.5 123.4,343 158.2,348.5 			"/>
			<polygon fill="#F9AD5A" points="201.7,278.6 201.7,291.8 166,302.7 123.5,285.9 123.7,275.6 			"/>
			<polygon fill="#F7941E" points="201.7,278.6 162.7,289.5 123.7,275.6 165.1,268.8 			"/>
			<polygon fill="#EF4136" points="162.7,289.5 132.6,278.8 163.3,273.7 191.7,281.3 			"/>
			<polygon fill="#F7941E" points="136.4,354.2 164.9,346.6 164.9,302.7 123.5,285.9 123.5,331.8 109.2,333.8 109.2,337.8 			"/>
			<polygon fill="#3DCDF9" points="161.3,305.3 161.3,335.6 128.4,324.9 128.1,293 			"/>
			<polygon fill="#86E2F7" points="157.2,305.8 157.2,310.9 137.9,304.1 137.9,324.4 131.1,322.2 131.1,296.5 			"/>
			<polygon fill="#F9AD5A" points="136.4,350.2 161.3,343.3 130.3,332 111,334.9 			"/>
			<polygon fill="#F9AD5A" points="124.3,283.6 96.1,289.5 96.1,289.5 131.9,305.9 166,301 			"/>
			<polygon fill="#F9AD5A" points="161.3,340.7 128.4,304.2 123.7,301.7 157.2,340.7 161.3,343.3 			"/>
			<polygon fill="#F9AD5A" points="134.3,328.7 100.8,291 96.1,289.5 129.6,327.5 			"/>
		</g>
	</g>
</g>
</svg>
