<?xml version="1.0" encoding="utf-8"?>
<!-- Generator: Adobe Illustrator 18.0.0, SVG Export Plug-In . SVG Version: 6.00 Build 0)  -->
<!DOCTYPE svg PUBLIC "-//W3C//DTD SVG 1.1//EN" "http://www.w3.org/Graphics/SVG/1.1/DTD/svg11.dtd">
<svg version="1.1" id="Layer_1" xmlns="http://www.w3.org/2000/svg" xmlns:xlink="http://www.w3.org/1999/xlink" x="0px" y="0px"
	 viewBox="0 0 640 640" enable-background="new 0 0 640 640" xml:space="preserve">
<g>
	<path fill="#FFFFFF" d="M441,217.9c0.4-1.9,0.5-3.8-0.3-5.6c-0.8-1.9-0.9-2.2-0.3-0.7c-0.1-0.7-0.7-1.9-0.9-2.4
		c-0.6-1.2-1.4-2.2-2.2-3.1c-2.6-3-6.9-5-10.8-5.7c-2.4-1.7-5.1-2.7-8.2-1.9c-0.8,0.2-1.6,0.6-2.3,1c-2.2-0.9-4.6-1.3-7.2-0.8
		c-4.9,0.9-7.8,5.2-8.3,9.9c-0.3,3,0.5,5.6,2,7.6c-0.6,1.5-0.9,3.2-0.8,4.9c-3,0.1-6,0.4-9,0.9c-2.8,0.5-5.5,1.6-8,3
		c-0.5-1.6-1-3.1-1.5-4.6c1.3-1.7,2.1-3.8,2.3-6.2c0.4-3.8-1.2-7-3.6-9.5c-0.3-1.5-0.9-3-1.7-4.3c-0.2-0.7-0.4-1.3-0.7-1.9
		c0,0,0,0,0,0c-0.3-0.9-0.7-1.8-1.2-2.6c-1-1.8-2.5-3-4.2-4c-2.9-3.6-7.2-5.6-11.9-5.6c-2.2,0-4.5,0.5-6.6,1.4
		c-1.8-0.4-3.7-0.1-5.4,0.7c-3,1.5-5.6,3.9-7.1,6.9c-3.7,7.1-0.8,14.9,4.1,20.5c0.1,0.1,0.2,0.3,0.4,0.4c-4.2-4.4-11.2-5.5-16.8-2.8
		c-3.1,0.1-6,1.1-8.2,3c-11.4-2.3-23.1-1.9-34.3,1.1c-1.6-1.8-3.4-3.3-5.6-4.4c-3.9-1.9-8.2-2.9-12.6-3c-1.9-0.1-4,0.1-5.8,0.7
		c-3.8,1.2-6.1,4.5-6.4,8.3c-0.4,3.8,2.2,7.3,5.2,9.8c-0.2,2.8,0.7,5.1,2.6,7.5c2.4,3.1,6.4,4.4,10.2,4.1c0.2,0,0.4,0,0.7,0
		c0.9,2.5,2.9,4.5,5,6c2.1,1.5,4.4,2.6,6.9,3.2c-3.3,1.1-6.4,2.5-9.4,4.2c-1-1.6-2.3-3-3.8-4.2c-1.3-1.8-3.1-3.1-5.3-3.5
		c-2.7-0.5-5.4-0.2-8.1,0.6c-0.8,0.2-1.6,0.5-2.4,0.7c-0.3,0.1-0.6,0.2-0.8,0.3c-0.1,0-0.1,0-0.2,0c-0.1,0-0.2,0-0.3,0
		c-0.9-0.2-1.8-0.3-2.7-0.4c-1.3-0.2-2.8,0.1-4,0.5c-2.4,0.9-4.3,2.5-5.7,4.6c-0.1-0.3-0.2-0.6-0.3-0.9c-0.7-1.7-2.1-2.9-3.6-3.8
		c-1.8-1.3-4.1-1.3-6.2-1c0-0.1,0-0.1,0-0.2c0.2-4.9-3.7-7.7-7.8-9.2c-1.3-1.3-2.8-2.3-4.7-2.6c-1.6-0.3-2.9-0.2-4.4,0
		c-1.3-1.4-2.8-2.2-4.8-2.9c-0.7-0.2-0.5-0.2,0.4,0.1c-0.3-0.2-0.5-0.4-0.8-0.5c-0.6-0.4-1.1-0.6-1.7-0.9c-2.2-1-4.6-1.6-6.9-0.7
		c-0.4,0.2-0.8,0.3-1.2,0.6c-0.8-1.1-1.7-2.1-2.5-3.2c-0.8-2.7-2.1-5.1-4.1-7.5c-2.8-3.3-7-5.4-11.3-4.5c-5.1,1.1-8,6.3-6.7,11.2
		c0.3,1.1,0.8,2.2,1.4,3.2c-0.5,0.5-0.9,1-1.4,1.7c-1.1,1.5-1.7,3.3-1.9,5.1c-2.5,1.4-4.4,3.5-5.4,6.4c-0.4,1.1-0.5,2.3-0.4,3.4
		c-0.6,0.4-1.2,0.9-1.8,1.5c-2-0.5-4.1-0.6-6.3-0.2c-1.5,0.3-3,0.8-4.4,1.6c-0.1-0.5-0.2-1-0.3-1.5c-1.2-4.2-4.6-6.7-8.5-8.2
		c-1.1-0.4-2.2-0.6-3.4-0.8c-2.1-0.3-4.2-0.9-6.3-0.3c-2.3,0.6-4.6,2.3-5.6,4.5c-0.2,0.5-0.4,0.9-0.5,1.3c-4.2-0.6-8.4,0-12.3,1.9
		c-1.8,0.9-3.1,2.3-4.2,3.8c-1.9,2.6-1.4,6.1-0.3,8.8c0.1,0.3,0.5,1.1,0.5,1.2c0.2,0.4,0.3,0.9,0.5,1.3c0.4,1,0.8,1.9,1.3,2.7
		c-2.6,0-5.1,0.6-7.5,1.9c-1.1-0.6-2.2-1.2-3.4-1.6c-0.1-0.2-0.2-0.5-0.3-0.7c0.2-1.9-0.1-3.8-1.1-5.4c-1.4-2.3-3.5-4.2-5.9-5.5
		c-5-2.5-10.8-2.8-16.3-1.6c-5.5,1.2-10.9,5.3-12,11.1c-0.7,3.8,0.3,7.1,2.7,9.7c-1.2,1.7-1.9,3.6-2,5.8c-0.3,4.3,2,7.9,5.3,10.4
		c0.3,0.2,0.3,0.2,0.3,0.2c0.8,0.7,1.6,1.3,2.6,1.7c2,0.9,4.1,1.5,6.3,1.3c0.4,0,0.9-0.1,1.3-0.2c0.7,0.7,1.6,1.3,2.3,1.9
		c0.5,0.4,1,0.8,1.5,1.3c0.2,0.2,0.5,0.4,0.7,0.7c1,1.5,1.6,3.1,2.3,4.8c0.1,3,0.6,6.2,1.7,9c-2.1,1.9-4,4.1-5.7,6.4
		c-2.8,3.9-5.9,9.9-4,14.8c2.1,5.6,7.6,8.4,13.4,7.2c2.7-0.6,5-2.7,6.3-4.9c0.4-0.7,0.7-1.6,1-2.4c0-0.1,0.1-0.1,0.1-0.2
		c0.3-0.6,0.7-1.2,1.1-1.8c0.1-0.2,0.4-0.5,0.5-0.6c0.3-0.3,0.6-0.7,0.9-1c0.5-0.5,0.9-0.9,1.4-1.3c0.1-0.1,0.6-0.5,0.8-0.6
		c0.4-0.3,0.8-0.5,1.2-0.8c0.9-0.6,1.9-1.2,2.9-1.7c0.9-0.5,1.7-0.9,2.6-1.3c0.1-0.1,0.5-0.2,0.7-0.3c0.2-0.1,0.5-0.2,0.7-0.3
		c1.8-0.7,3.6-1.3,5.5-1.9c1.1-0.4,2.3-0.7,3.4-0.9c0.5-0.1,1.1-0.2,1.6-0.3c-0.7,0.1,1.1-0.1,1.2-0.1c2.9-0.3,5.8-0.1,8.6,0.2
		c0.1,0,0.1,0,0.2,0c0.1,0,0.3,0.1,0.6,0.1c0.7,0.1,1.3,0.2,2,0.4c1.3,0.3,2.6,0.6,3.9,0.9c2.8,0.7,5.6,1.5,8.3,2.5
		c1.2,0.4,2.4,0.9,3.6,1.4c0.1,0,1,0.4,1.2,0.5c0.6,0.3,1.3,0.6,1.9,0.8c2.5,1.1,5,2.4,7.5,3.6c0.7,0.3,1.3,0.7,2,1
		c-1.3,0.3-2.5,0.6-3.8,0.9c-4.5-2.3-9.7-2.8-14-0.2c-1.1,0.3-2.1,0.7-3.1,1.2c-4.6-0.3-9.4,1.8-11.5,6c-0.6,1.2-0.9,2.4-1,3.6
		c-1.3,0.4-2.5,0.9-3.7,1.6c-2.6,1.6-4,3.8-5.1,6.6c-1,2.5-0.7,5.3,0.2,7.9c0.2,1.3,0.6,2.6,1.3,3.8c0.9,1.4,1.5,1.8,2.8,2.8
		c0.6,0.4,0.5,0.4-0.3-0.2c0.2,0.2,0.5,0.5,0.7,0.7c1.9,1.7,4.1,2.6,6.4,3.2c4.1,3,10.1,1.6,14-1.9c0.1,0,0.1-0.1,0.2-0.1
		c1.7,0.5,3.6,0.6,5.3,0.3c1.1,0.9,2.4,1.6,3.8,1.8c0.3,0,0.6,0.1,0.8,0.1c0.2,0.2,0.3,0.3,0.5,0.5c0.2,0.2,0.5,0.4,0.7,0.5
		c0.1,0.3,0.2,0.6,0.3,0.8c0.2,0.5,0.5,1.1,0.7,1.6c-0.4-0.8-0.5-0.9-0.3-0.1c0.2,0.9,0.7,1.8,1.1,2.6c0.1,0.3,0.3,0.6,0.5,0.8
		c-0.7,1.6-1.1,3.1-1.2,5c-0.2,5,4.7,9,9.5,8.9c3.6-0.1,6.7-1.6,8.9-4.3c1.1,0,2.1-0.1,3.1-0.5c2.3-0.8,4.2-2.3,5.6-4.2
		c0.5-0.1,1.1-0.2,1.6-0.3c4.2-1,6.6-5.5,6.4-9.6c0-0.9-0.2-1.8-0.4-2.6c3.5-1.2,5.5-4.8,5.6-8.4c0.1-3.6-2.1-6.7-5.2-8.3
		c-0.2-0.6-0.6-1.3-0.9-1.8c-0.2-0.3-0.4-0.6-0.7-0.8c0.4-0.3,0.7-0.6,1.1-0.8c1.4-1.2,2.8-2.4,4.2-3.6c0.3-0.3,0.6-0.6,1-0.8
		c0.1-0.1,0.1-0.1,0.2-0.2c0.1-0.1,0.2-0.1,0.3-0.2c0.3-0.2,0.5-0.4,0.8-0.5c5.6,0.4,11.4,0.5,17-0.4c0.3,0.2,0.6,0.4,0.9,0.6
		c2,1.3,4.9,1.5,7.2,0.7c2-0.6,3.9-1.9,5.1-3.7c2.8-0.2,5.6-1.2,7.7-3c0,0,0,0,0,0c3.4,0.5,6.9,0,10.1-1.5c2.1-1,3.7-2.7,4.8-4.6
		c4.6-1,9.1-2.7,12.9-5.5c4.7-3.4,8.4-8,11-13.1c2.9-5.6,4.3-11.5,5.8-17.5c0.3-1.4,0.7-2.7,1.2-4c0.1-0.2,0.1-0.3,0.2-0.5
		c0.1-0.1,0.3-0.8,0.5-1.1c0.1-0.1,0.1-0.2,0.2-0.4c0.1-0.2,0.3-0.4,0.4-0.5c0.3-0.3,0.6-0.5,0.8-0.8c0,0,0,0,0,0
		c0.4-0.2,0.7-0.4,1.1-0.6c0.2-0.1,0.5-0.3,0.7-0.4c0.1,0,0.2-0.1,0.3-0.1c0.2-0.1,0.3-0.1,0.5-0.2c1-0.2,2-0.5,3.1-0.7
		c0.1,0,0.7-0.1,1-0.2c0.5,0,0.9-0.1,1.4-0.1c1.5-0.1,3.1,0,4.6,0.1c1.5,0.1,2.9,0.2,4.4,0.4c0.2,0,0.4,0,0.5,0.1
		c0.2,0,0.3,0,0.5,0.1c0.7,0.1,1.4,0.3,2.1,0.4c2.8,0.5,5.6,1.3,8.4,2c5.7,1.5,11.7,3.6,17.5,1.3c6.1-2.5,9.7-7.7,10.4-13.7
		c1.2-0.4,2.4-0.7,3.6-1c0.1,0,1.4-0.2,1.3-0.2c0.7-0.1,1.4-0.1,2-0.1c1.7-0.1,3.5,0,5.2,0c3.7,0.1,7.2,0,10.9-0.5
		c0.5-0.1,1-0.2,1.5-0.3c0.1,0.2,0.2,0.4,0.2,0.5c1.6,3.4,5.1,4.9,8.6,5.2c3.4,3.3,8.7,4.9,13.1,4.4c2.9-0.4,5.6-1.4,7.8-3.2
		c0.1,0.1,0.3,0.2,0.4,0.3c3.6,2.2,7,3.2,11,1.4c3-1.3,5.3-5.2,4.9-8.5c-0.3-2.4-1-4.5-2.9-6.2c-0.4-0.3-0.7-0.6-1.1-1c0,0,0,0,0,0
		c-0.1-0.2-0.3-0.4-0.4-0.6c-1.2-1.9-2-4.1-3.1-6.1c-0.7-1.4-1.7-2.6-2.7-3.9c-0.4-0.5-0.8-0.9-1.2-1.4c-0.3-0.3-0.6-0.6-0.9-0.9
		c-0.1-0.1-0.1-0.1-0.2-0.2c-0.8-1.6-2.1-3.1-3.5-4.4c4.2-0.1,8.3,0.4,12.5,0.9c2,0.2,4,0.6,5.9,0.5c3.9-0.1,7.2-2.8,8.4-6.4
		c0.9-2.6,0.5-5.1-0.6-7.4c2.4-1,4.4-2.5,5.4-4.9C441.3,225.6,441.9,221.7,441,217.9z M125.3,294.2c-0.5-1.1-1.1-2.2-1.8-3.2
		c-0.3-0.4-0.5-0.8-0.8-1.1c1,0.2,2,0.4,3.1,0.5c0,0.4-0.1,0.8-0.1,1.3c0,0.8,0.1,1.6,0.2,2.4C125.7,294.1,125.5,294.2,125.3,294.2z
		 M186,300.5c-0.3-0.1-0.6-0.3-0.9-0.4c-1.1-0.4-2.1-0.9-3.2-1.3c0.1-0.1,0.1-0.1,0.2-0.2C183.3,299.4,184.7,300,186,300.5
		C186,300.5,186,300.5,186,300.5z M195.6,260.1c-3.1,0.4-5.8,1.7-7.4,4.7c-0.9,1.7-1.3,3.5-1.1,5.4c-1.1,0.8-2,1.8-2.6,3.1
		c-0.5,1-0.9,2.2-1,3.4c-0.1,0.1-0.1,0.1-0.2,0.2c-0.6-0.2-1.2-0.4-1.8-0.5c-1-1.7-2.3-3.3-3.9-4.5c1.4-0.4,2.7-1,3.9-1.7
		c2.4-0.6,4.2-2,5.7-4c0.5-0.6,0.8-1.3,1.1-2c1.2-1,2.1-2.5,2.7-4.1c1.7,0.2,3.5,0,5.3-0.3C196,259.8,195.8,260,195.6,260.1z
		 M203.8,256.3c-0.7,0.1-1.3,0.2-2,0.4c0.7-0.7,1.3-1.4,1.8-2.2c0.3,0.1,0.6,0.2,0.9,0.3C204.3,255.2,204,255.7,203.8,256.3z
		 M237.7,260.5C238.9,260.3,239,260.6,237.7,260.5L237.7,260.5z M234.7,252c-0.2,0.1-0.3,0.2-0.5,0.4
		C234.4,252.2,234.5,252.1,234.7,252z M255.6,294.5C255.3,294.6,255.1,294.7,255.6,294.5C255.6,294.5,255.6,294.5,255.6,294.5z
		 M256.3,293.1C256.3,293.1,256.3,293.1,256.3,293.1c-0.2,0.4-0.3,0.7-0.5,1c0,0.1-0.1,0.2-0.2,0.4c-0.4,0.1-0.8,0.2-1.2,0.3
		c-0.5,0.1-1,0.2-1.4,0.3c-0.1,0-0.2,0-0.2,0c-1.1,0.1-2.1,0.2-3.2,0.4c-2.1,0.2-4.3,0.5-6.4,0.9c-3.9-2.5-7.7-5-11.9-7
		c-1.6-0.7-3.2-1.4-4.8-2c0.3-0.3,0.6-0.6,0.8-0.9c0.3,0.1,0.6,0.3,0.9,0.4c0.9,0.4,1.9,0.7,3,0.7c0.8,0.1,1.5,0,2.2-0.2
		c1.9-0.4,3.6-1.1,5-2.4c2.1-1.1,3.7-2.9,4.5-5.1c0.7,1,1.6,1.9,2.7,2.7c1.8,1.4,4.6,1.8,6.9,2.5c0.2,0.1,0.5,0.2,0.7,0.3
		c0.1,0.1,0.2,0.1,0.3,0.2c0,0,0,0,0,0c0,0,0,0,0,0.1c0.4,0.6,0.6,1.3,1,1.9c0.7,1.4,1.6,2.7,2.5,3.8
		C256.7,292,256.5,292.5,256.3,293.1z M258.6,247.9C258.9,247.9,258.9,247.9,258.6,247.9L258.6,247.9z M265.1,263.9
		C265.1,263.9,265.1,263.9,265.1,263.9C265,264.2,264.9,264.4,265.1,263.9z M298.6,283c0.5-0.2,0.9-0.4,1.4-0.7c0,0,0,0.1,0,0.1
		C299.5,282.6,299,282.8,298.6,283z M348.5,217.4c-0.2-0.3-0.4-0.5-0.6-0.7c0.2,0.2,0.5,0.5,0.7,0.7
		C348.6,217.4,348.5,217.4,348.5,217.4z"/>
	<g>
		<path fill="#A56637" d="M427.3,237.2c-3.7-10.3-21.7-9.6-30.5-8.8c-5.1,0.4-9.5,2.6-13.1,6c-2.4-1.7-4.5-3.6-5.5-6.7
			c-2-6.4-3-12.1-8.7-16.4c-3.3-2.5-7.3-4.1-10.8-6.4c-4.1-2.6-5.3-5-4.4-9.9c0.1-0.4-0.5-0.7-0.8-0.6c-4.5,2.2-6.5,6.3-4.9,11.2
			c1.8,5.3,6.6,8.6,10.8,12c5.1,4.1,4.7,8.9,6.2,14.8c0.6,2.2,1.6,4.7,3.1,7.2c-11.8-2.8-23.1-7.6-34.2-12.3c-9.7-4.1-20-6-30.6-5.5
			c-5.3,0.2-10.6,1.4-15.6,2.8c-5.6,1.6-12,5.1-17.7,2.1c-0.3-0.2-0.6,0.2-0.3,0.4c8,5.9,17,3.8,26.2,3.7
			c10.4-0.1,20.1,1.8,29.4,6.6c8.8,4.6,17.3,9.5,26.4,13.5c-2.8,0.6-5.6,1.6-8.2,2.5c-3.7,1.4-7,3.4-9.9,5.9
			c-15.6-6.3-34.9-8.2-49.8-0.6c-9.2,4.7-14.3,12.6-17.4,21.8c-0.7-0.3-1.3-0.9-1.9-1.6c-3.6-4.6-8.2-5.7-13.6-7.4
			c-3.4-1-5.2,4-1.8,5.2c3.6,1.3,8.2,1.9,9.9,5.6c1.2,2.5,2.6,5,4.8,6.8c0.1,0.1,0.1,0.1,0.2,0.1c-0.9,3.5-1.9,6.9-3.7,9.4
			c-1.8,2.6-7.4,2.9-11.3,3.3c-2.6,0.3-5.1,0.7-7.6,1.4c-2.6-1.5-5.1-3.2-7.6-4.8c-6-3.8-12-5.8-18.6-8c-4.6-1.5-7.8-6.7-11.1-9.9
			c-3.4-3.3-6.5-4.7-11.2-4.9c-0.2,0-0.3,0.3-0.1,0.4c5.1,1.7,7.8,8.1,10.3,12.4c2.4,4.1,5,8,9,10.7c2.5,1.7,5.5,2.9,8,4.7
			c2.7,1.9,5.2,4,7.7,6.1c0.1,0,0.1,0.1,0.2,0.1c-2.3,1.3-4.7,2.3-8.1,2.9c-5.6,0.9-11.2,1-16.8,0.5c-5.9-0.5-10.8-2.8-16.1-5.1
			c-20.2-8.9-41.6-14.3-63.1-7c-11.4,3.8-25.7,11.7-29.6,23.9c-1.5,4.9,5.8,7.5,7.5,2.6c3.2-9.3,15.4-14.2,24.1-16.9
			c10.2-3.1,20.5-1,30.4,2.1c10.1,3.2,19.3,8.4,28.7,13.2c1.6,0.8,3.3,1.6,4.9,2.2c-2.4,2.2-5.1,4.1-8.6,4.8
			c-6.6,1.3-12.5,1.9-18.3,5.8c-2.7,1.8-4.4,4.5-5.7,7.3c-1.5,3.4-0.5,5.8-0.2,9.2c0.2,1.9,2.8,2.3,3.8,0.8c1-1.5,3.1-3,4.4-4.4
			c1.6-1.6,3.6-2.8,5.7-3.4c5.6-1.5,11.4-1.3,16.9-2.9c5.8-1.7,9.9-5.5,14.3-9.4c1.8-1.6,3.5-2.8,5.3-3.9c5.3,0.4,10.6,0.4,15.9,0
			c6.2-0.4,11.4-2.6,16.6-5.9c4.4-2.8,7.3-3.8,12.6-4.4c5.5-0.6,10.8-1.4,15.8-4c6.4-3.3,10.4-9.1,13.2-15.6
			c2.1-4.9,2.9-10.3,4.4-15.3c1.5-5.2,2.6-6.6,6.1-9.2c-1.1,0.8,1.3-0.7,1.5-0.8c0.8-0.4,1.7-0.7,2.5-1.1c-1.1,0.4,1.7-0.4,1.7-0.4
			c1-0.2,2.1-0.4,3.1-0.5c3-0.4,8.1-0.2,12.6,0.4c5.8,0.7,13.5,3.1,18.5,4.3c4.3,1.1,8.6,0.2,11.3-3.7c1.5-2.2,2.1-5.4,1.4-8.2
			c2.4-1.5,5.4-2.5,8-3.1c7.9-2,16.1,0.9,23.9-1.9c1.9-0.7,3.7-1.7,5.3-2.8c3.4,1.2,6.6,2.7,9.5,4.9c3.4,2.5,7.1,1.9,9.8-0.1
			c0.5,0.5,1,0.9,1.6,1.4c2.8,2.6,5.7,4.7,9.1,6.5c2.5,1.3,4.9-1.9,2.5-3.7c-2.9-2.2-4.2-6.5-6-9.5c-1.1-1.9-2.6-3.7-4.3-5.1
			c-0.3-0.7-0.7-1.4-1.2-2c-2.7-3.4-6-5.7-9.7-7.3c0-0.5,0-1-0.2-1.6c0.8-1,1.7-1.9,3-2.5c8.4-4.2,19.4-1.4,28.2-0.8
			C426.9,240.6,427.9,238.8,427.3,237.2z"/>
		<g>
			<path fill="#6F9010" d="M200.4,354.4c-2.4-0.3-4.6,0-6.8,0.6c0.5-1.5,0.6-3-0.2-4.8c-1-2.2-3.9-4.4-6.2-5.1
				c-1.7-0.5-3.1,0.8-3,2.5c0.1,1.7,0.9,3,1.9,4.4c0.4,0.5,1.8,1.6,1.4,2.3c-0.6,1-1,1.4-1.4,1.4c-0.4-0.9-1-1.7-1.7-2.4
				c-1.9-1.8-4.7-0.1-3.8,2.4c0.3,1,0.8,1.8,1.3,2.5c0.5,2,0.4,4.5-1,3.3c-1.2-1.2-3.4-0.6-4,0.6c-1.5-0.4-3.3,0.6-2.7,2.5
				c0.2,0.7,0.5,1.4,0.8,2c0.1,1.3,0.7,2.3,1.6,3.4c0.2,0.3,0.6,0.5,0.9,0.6c0.8,2.3-1.3,4.4-1.7,6.8c-0.2,1.2,0.9,2.4,2.1,2.4
				c2.8,0,4.8-1.4,4.9-4.4c0-1-0.1-2-0.3-3c0.2,0.1,0.3,0.2,0.5,0.3c0.6,0.3,1.2,1.2,1.7,1.7c2.6,2.3,5.8,0.8,6.5-2.5
				c0.1-0.7,0.1-1.4,0-2c1.3,0.7,2.7,1.1,4.2,0.9c1-0.1,1.8-1.1,1.8-2c0.2-3.8-2-5.7-4.9-6.7c2.6-1.7,5.6-3.1,8.3-3.3
				C203.3,358.7,202.8,354.7,200.4,354.4z M186.7,360.3c0.2-0.1,0.5-0.1,0.7-0.2c-0.3,0.2-0.5,0.4-0.7,0.6
				C186.7,360.6,186.7,360.5,186.7,360.3z M181.5,367.4c0.1-0.3,0.2-0.5,0.3-0.8c0,0,0,0,0,0c0.7,0.5,1.4,0.9,2.1,1.4
				C183.1,367.8,182.3,367.5,181.5,367.4z"/>
			<path fill="#6F9010" d="M219.9,278.4c-0.2-0.1-0.4-0.2-0.6-0.3c-2.3-1.1-4.6-2-6.9-2.9c-2-0.8-4.1,2-2.5,3.6
				c0.7,0.7,1.4,1.3,2.1,2c0.1,0.1,0.2,0.3,0.4,0.4c-1,1.3,0,3.9,2.2,3.7c0.4,0,0.7-0.1,1-0.2c0.4,0.2,0.8,0.2,1.3,0.1
				c1.7-0.3,3-1.1,4.5-2C223.8,281.3,222.2,277.5,219.9,278.4z M213.3,282.2C213.3,282.1,213.3,282.1,213.3,282.2
				C213.4,282.2,213.4,282.2,213.3,282.2z"/>
			<path fill="#6F9010" d="M231.2,280.7c0.7,0,1.4-0.1,2.1-0.4c0.5-0.3,0.9-0.7,1.1-1.1c1.2-0.2,2.5-1.2,2.1-2.6
				c-0.4-1.3-1-2.6-1.3-4c-0.6-2.6-4.2-2.2-4.5,0c0,0,0,0,0,0c-1.5,0-3.2,1.6-2.2,3.2c0.3,0.5,0.6,1.1,0.9,1.6
				c-0.2,0.3-0.3,0.6-0.3,0.9C229,279.4,229.9,280.6,231.2,280.7z M230.1,276.6C230.1,276.6,230.1,276.6,230.1,276.6
				C230.1,276.5,230,276.5,230.1,276.6C230,276.5,230.1,276.5,230.1,276.6z"/>
			<path fill="#6F9010" d="M227.7,264.5c0.2,0.1,0.5,0.1,0.8,0.1c2.3,0,3.8,1.3,5,3.1c1.4,2.1,5.1-0.2,3.8-2.4
				c-0.1-0.2-0.2-0.3-0.3-0.5c0,0,0,0,0,0c-0.2-0.4-0.5-0.7-0.8-1.1c-0.5-0.6-1-1.1-1.6-1.6c0.7-0.3,1.4-0.6,2-1
				c1-0.6,1.7-1.8,1.1-2.9c0.3-0.2,0.5-0.4,0.8-0.6c1.9-1.3,0.3-4.5-1.9-4c-2.2,0.5-4.3,1.1-6.5,1.5c-3.4,0.6-4-3.1-5.6-5.3
				c0.9-0.3,1.7-0.7,2.6-1c1.5-0.6,1.8-3.1,0.3-3.9c-1.3-0.7-2.6-1.1-3.9-1.5c-0.8-1.2-1.8-2.2-3.6-1.9c-1,0.1-2,0.4-2.9,0.8
				c-0.9-0.1-1.9-0.2-2.8-0.4c0-0.8-0.2-1.5-0.8-2.2c-0.7-0.8-1.7-1.1-2.6-1.4c-0.9-0.7-1.9-1.3-2.9-1.7c-2.1-0.9-4,2-2.5,3.6
				c0.6,0.7,1.2,1.2,2.1,1.6c0.2,0.1,0.5,0.2,0.7,0.2c0.4,0.3,0.8,0.7,1.1,1c-0.1,0.4-0.1,0.9,0,1.3c-2.4-0.3-5.2-1.6-7-2
				c-0.9-0.2-1.7-0.4-2.6-0.6c0.9-0.6,1.4-1.7,0.8-2.7c-1.7-3-4-5.7-6.1-8.5c-0.3-3.3-3-6.7-5.7-8.2c-1.8-1-4.5,0.6-3.3,2.8
				c1.2,2.3,2.7,4.4,4.3,6.4c-0.2,0.3-0.4,0.5-0.7,0.7c-0.7-0.1-1.4,0.1-1.8,0.5c-0.3,0.3-0.6,0.5-0.8,0.8c-0.1,0-0.2,0.1-0.2,0.1
				c-1.5,0.8-2.6,2.4-2.7,4.1c-0.1,1.3,0.2,2.5,0.8,3.4c-1.6,0.1-3.2,0.7-4.7,1.8c-3.3,2.4-1.7,5,0.7,6.8c-0.1,0.3-0.3,0.5-0.4,0.8
				c-1.7,0-3.6,0.5-5.3,1.7c-1.6,1.2-2.6,2.6-3,4.1c-1.7-0.9-3.4-1.7-5.3-2c-3.4-0.5-6.3,1.8-8.5,4.3c-1.7-3.1-5.5-4.4-8.7-3.7
				c1.6-1.1,2.8-2.7,2.5-4.5c-0.8-4.3-5.7-4.6-9.3-5.2c-1.9-0.3-2.7,1.8-2.2,3.2c0.1,0.5,0.2,0.9,0.2,1.5c-0.1,0-0.2,0-0.3-0.1
				c-1.5-0.2-2.6,1.3-2.4,2.7c-4.4-2.1-10.7-2.1-14,0.5c-0.7,0.6-1.1,1.8-0.6,2.7c1.2,2.2,1.3,4.3,3,6.2c0.1,0.1,0.2,0.2,0.4,0.4
				c0,1.2,0.5,2.3,1.5,3.2c0.7,0.6,1.6,1,2.5,1.2c-0.1,0.1-0.2,0.2-0.3,0.2c-2.9,0.8-5.7,1.6-8,3.6c-0.2,0.2-0.3,0.4-0.5,0.6
				c0,0,0,0,0,0c-2-0.3-4-0.3-6.2,0.8c-1.7,0.9-2.6,2.8-2,4.4c-1.1,1.1-2.1,2.2-2.9,3.2c-2.7,3.2-3,7.2-1.3,10.9
				c1.7,3.5,6.2,6.7,6.1,10.8c-0.1,2.9,4.4,3.3,4.5,0.3c0.2-6.2-5.6-9.2-7.1-14.8c-0.8-3,2-5.8,4.4-7.8c0.7,0.2,1.4,0.2,2.1,0.2
				c2.7,6,11.4,5.6,14.5,0.5c0.5-0.8,0.6-1.9-0.1-2.7c-0.2-0.2-0.3-0.4-0.5-0.6c0.2-0.2,0.4-0.4,0.5-0.6c1.3-0.1,2.5-0.7,3.6-1.8
				c0.9-0.8,1.6-1.8,2.4-2.8c0.7,0,1.4,0,2.1-0.1c0.9,1.9,1.8,5.4,2,5.9c0.4,1,1.5,1.4,2.5,1.3c5.1-0.6,4.1-5.5,2.9-9
				c-0.2-0.5-0.5-1.3-0.9-2.2c0.1-0.6-0.2-1.3-0.7-1.8c-0.3-0.9-0.4-1.8-0.3-2.5c0.3-0.2,0.6-0.5,0.8-0.8c0.8,0.3,2.2,1.6,2.6,1.7
				c1.2,0.4,2.4,0.7,3.6,1c-0.4,1.4-0.6,2.8-0.4,4.2c-0.5,1-0.9,2-0.8,3.1c0,2.5,0.9,4.1,2.1,5.5c0.4,1.7,1.8,3.3,4.4,3.9
				c2.6,0.6,3.9-2.3,2-4c-0.6-0.6-1.4-1.2-2-1.8c0-0.1,0.1-0.2,0.1-0.3c1.8,0.2,3.6-0.5,5-2.2c1.3-1.4-0.2-3.3-1.7-3.5
				c-1.4-0.2-2.7,0-3.8,0.5c-0.2-0.1-0.3-0.2-0.5-0.4c1.3-1.9,3.2-3.4,4.5-5.3c0.5-0.8,0.6-2-0.1-2.7c-0.4-0.4-0.7-0.7-1.1-0.9
				c0.9-0.8,1.9-1.5,3-1.9c1.9-0.6,4.1,0.6,6.2,2c-0.2,0.6-0.3,1.2-0.3,1.8c0,1.2,0.8,2.4,2.1,2.4c1.9,0.1,3.2-0.1,4.8-1.1
				c0.2-0.1,0.4-0.3,0.6-0.5c0.4-0.1,0.9-0.2,1.4-0.3c1.4-0.4,2.2-1.7,1.6-3.2c-1-2.5-3.1-3.4-5.2-3.2c0.1-0.2,0.3-0.4,0.5-0.6
				c0.1-0.1,1.6-0.8,2.6-1.1c0.1,0.9,0.3,1.8,0.8,2.6c0.7,1.3,3,2,3.9,0.3c1.4-2.7,1.2-4.8-0.1-6.2c0.1-0.1,0.1-0.3,0.2-0.4
				c0.3,0.1,0.7,0.2,1,0.3c1.1,0.3,2.2-0.2,2.7-1c1.1,1.2,2.7,1.8,5.1,1.1c1.1-0.3,2.1-1.4,1.8-2.6c-0.2-1-0.6-1.9-1-2.9
				c-0.8-1.8-1.4-1.7,0.3-1.5c2.4,0.3,4.8,1,7.1,1.5c3.3,0.7,7.4,2.8,11,2.3c2.8,1.8,5.5,3.7,7.9,6.1c0.6,0.6,1.8,0.9,2.7,0.6
				c0.9,1.9,1.9,3.6,4.5,4c0.2,0,0.4,0.1,0.6,0.1c-0.5,0.2-1,0.3-1.4,0.5C224.1,261.2,225.3,264.7,227.7,264.5z M153.4,259.9
				c-0.4-0.2-0.8-0.3-1.2-0.6C152.6,259.5,153,259.7,153.4,259.9z M134.5,270.5C134.5,270.6,134.5,270.6,134.5,270.5
				C133.7,271.4,133.5,270.6,134.5,270.5z M184.6,245.6c0.1,0.2,0.2,0.4,0.3,0.6c-0.5,0-1,0.1-1.5,0.3c-0.2-0.1-0.3-0.2-0.5-0.3
				c0.1,0,0.2-0.1,0.7-0.3C183.9,245.8,184.2,245.7,184.6,245.6z M218.1,246.9c0,0,0.1,0,0.1-0.1c-0.1,0.1-0.2,0.1-0.2,0.2
				c0,0-0.1,0.1-0.1,0.1c-0.1,0-0.1-0.1-0.2-0.1C217.8,247,218,247,218.1,246.9z"/>
			<path fill="#6F9010" d="M194.2,282.6C194.2,282.6,194.2,282.6,194.2,282.6c-0.4-0.5-0.7-1.1-1.2-1.6c-0.6-0.8-1.8-1-2.7-0.6
				c-1.7,0.7-2.9,1.8-4.1,3.2c-1.4,1.7-4.9-0.3-6.4-0.7c-1.1-0.3-2.1-0.3-3.1-0.1c-0.5-1.8-1.3-3.5-2.8-5c-1.9-1.9-6.3-3.3-8.8-1.9
				c-2.9,1.6-3.2,4.3-1,6.7c1.1,1.2,2,2.8,3.1,4.1c0.4,0.5,1.4,1.6,2.1,2.6c-1,0.6-1.9,1.3-2.8,1.8c-0.3-0.1-0.6-0.1-0.9-0.1
				c0,0-0.1,0-0.1,0c-1.8,0.2-2.3,2.4-1.3,3.7c0.3,0.4,0.7,0.6,1.1,0.9c0.3,0.2,0.6,0.4,0.9,0.6c0.1,0.1,0.2,0.1,0.3,0.2
				c-0.2,0.2-0.3,0.4-0.5,0.6c-1.3,1.7,0.8,4.5,2.8,3.3c1-0.6,1.9-1.3,2.4-2.3c1.3-1,2.8-1.9,3.7-2.9c0.5,0,1-0.2,1.4-0.5
				c1.9-1.7,2.2-3.6,1.4-5.4c0.3-0.3,0.6-0.6,1-1c0.2-0.2,0.3-0.5,0.4-0.8c1.6,0.2,3.3,1,4.9,1.3c-0.8,0.9-1,2.4,0.4,3.3
				c0.2,0.1,0.4,0.2,0.6,0.4c0.1,0,0.1,0.1,0.2,0.1c0.3,0.2,0.7,0.4,1,0.6c0.3,0.1,0.5,0.3,0.8,0.4c0.2,0.1,0.4,0.2,0.6,0.2
				c0.3,0.1,0.6,0.2,0.9,0.3c2.8,0.8,4.3-3.4,1.5-4.3c-0.1,0-0.3-0.1-0.4-0.1c0-0.1,0.1-0.1,0.2-0.2c0.5-0.4,0.9-0.7,1.4-1.1
				c0,0.2,0,0.5-0.1,0.7c-0.2,2.3,2.8,3.2,4.1,1.5c0.7-0.9,1.2-2,1.6-3c0.1-0.1,0.1-0.3,0.2-0.4c1.1,0.2,2.2,0.4,3.2,0.5
				c2,0.3,4.2-0.2,4.6-2.5c0.5-3.4-5.6-5.9-8.8-8c-0.6-0.6-1.2-1.1-1.9-1.6c-2.1-1.4-4.8,1.4-3,3.3c0.9,1,1.9,1.8,3,2.5
				c0.2,0.2,0.5,0.4,0.7,0.6C194.5,282.2,194.3,282.4,194.2,282.6z M169.7,280.3c-0.3,0.2-0.7,0.5-1,0.9c-0.1-0.1-0.2-0.3-0.3-0.4
				C167.5,279.2,167.9,279.7,169.7,280.3z M166.8,296.6C167,296.8,166.9,296.7,166.8,296.6L166.8,296.6z"/>
			<path fill="#6F9010" d="M204.9,307.5c-1.2,0.4-2.5,0.9-3.9,0.9c0.2-0.4,0.5-0.8,0.7-1.2c0.4-0.8,0.7-1.6,0.9-2.5
				c0.2-1.1-0.7-1.9-1.5-2.3c-0.6-0.3-1.3-0.5-1.9-0.5c0.1-0.4,0.1-0.8,0.1-1.3c-0.1-2.9-4.6-3.3-4.5-0.3c0,1.9-1.5,2.9-2.8,3.9
				c-2,1.5,0.2,5.1,2.4,3.8c0.8-0.5,1.8-1.1,2.7-1.4c-0.3,0.6-0.7,1.2-0.8,1.8c-0.2,0.7-0.1,1.4,0.1,2c-0.3-0.1-0.6-0.2-0.9-0.3
				c-0.9-0.3-2.1,0-2.6,0.8c-1.5,2.4-1.9,5.5,1.1,6.9c2.4,1.1,5.4,0.6,7.7-0.3c0.2-0.1,0.4-0.2,0.5-0.3c1.2,0,2.2-0.5,3.1-1.4
				c2.5-1.1,3.3-3.8,2.8-6.7C207.8,307.6,206.2,307,204.9,307.5z"/>
			<path fill="#6F9010" d="M159.3,334.8c-0.2,0.2-0.5,0.4-0.6,0.6c-1.6,0.2-3.2,0.9-4.6,2.1c-1.9-0.7-4-0.6-5.6,0.7
				c-2.9,2.2-0.9,5.1,1.6,6.3c-0.7,0.4-1.3,0.9-1.9,1.7c0,0,0,0-0.1,0.1c-4.5-0.9-9.8,0.3-10.4,4.9c-0.1,1.2,0.1,2.4,0.6,3.5
				c-0.1,1,0.6,2,1.6,2.4c1.2,1.7,3.5,2.6,6,2.9c0.4,0.8,1.2,1.3,2.3,1.1c4.5-0.9,5.9-4.7,3.9-8.2c1.6-0.3,2.6-2,1.6-3.4
				c0.4,0.2,0.9,0.4,1.4,0.6c1.9,0.6,3.6-1.4,2.8-3.1c0.1,0,0.3-0.1,0.4-0.1c2-0.6,2.4-2.8,0.9-4.1c-0.3-0.3-0.7-0.5-1-0.7
				c0-0.1-0.1-0.3-0.1-0.4c0,0.1,0.1,0.1,0.1,0.2c0.4,0.5,1,0.9,1.6,1.2c0.2,0.3,0.5,0.5,0.9,0.6c2,0.6,3.6,0.6,5.6,0.1
				c0.4-0.1,0.7-0.2,0.9-0.4c1.2,0.8,3.4,0.3,3.7-1.6C171.8,336.4,163.1,332,159.3,334.8z M145.3,350.4c-0.7,0.2-1.4,0.5-2.1,0.8
				c0-0.1-0.1-0.1-0.2-0.2c0.3-0.2,0.6-0.3,1-0.4C144.5,350.5,144.9,350.5,145.3,350.4z"/>
			<path fill="#6F9010" d="M106.7,295.3c-1.1-2.2-2-4.4-3.3-6.5c-0.9-1.5-2.1-2.5-3.4-3.6c1.1-0.1,2.1-0.3,3-1.1
				c1.3-1.1,1-2.7,0.5-4.1c0.7-0.4,1.3-1.1,1.8-2.1c0,0,0,0,0,0c1.6,1,2.9,1.4,5.1-0.3c0.8-0.6,1-1.8,0.6-2.7
				c-1.5-2.9-6.6-5.2-10.1-4.4c-0.4-0.2-0.8-0.5-1.2-0.7c0.2,0,0.4-0.1,0.7-0.1c2.3-0.5,2.4-3.5,0.3-4.4c-0.2-0.1-0.4-0.2-0.6-0.2
				c0,0,0.1,0,0.1,0c1-0.5,1.7-1.9,1.1-3c-3.5-6.1-18-5.7-21,0.6c-2.4,5,2.5,7,7.9,7.3c0.8,2.2,2.6,4.1,4.7,5.8c2.1,1.7,4.5,3,6,5.2
				c-0.5,0-0.9,0.1-1.4,0.2c-1.3,0.2-2.3,0.8-3.4,1.5c-0.9,0.6-1.1,2.4-0.3,3.2c1.6,1.5,3.4,2.8,4.9,4.3c1.9,1.8,2.8,4.8,3.9,7.2
				c0.2,0.4,0.4,0.8,0.6,1.2c0,0,0,0.1,0,0.1c0.3,6,0.8,11.8,7.8,12.2c1.8,0.1,2.8-1.6,2.2-3.2C111.7,303,108.8,299.4,106.7,295.3z
				 M97.4,273.7c-0.2-0.2-0.4-0.3-0.7-0.5c0.2,0.1,0.5,0.2,0.7,0.4C97.5,273.6,97.4,273.7,97.4,273.7z M84.4,263.9
				c0.1-0.4,0.4-0.7,0.9-0.9c-0.3,0.6-0.2,1.4,0.1,2.1C84.7,264.8,84.3,264.5,84.4,263.9z"/>
			<path fill="#6F9010" d="M272.9,257.2c-0.3-0.4-0.5-0.7-0.9-1c-0.6-0.6-1.3-1.1-2-1.5c-0.2-0.9-1.2-1.6-2-1.7
				c-3-0.2-5.5,1-8.3,1.7c-2.2,0.6-4.5-1-6.6,0c-3.5,1.6-4.4,8-1.6,10.6c2.5,2.3,6.5,2.1,9.2,0.2c1-0.7,1.5-1.4,1.7-2.3
				c1.1,0.1,2.1,0.2,3.2,0.5c0.1,0,0.2,0.1,0.4,0.1c0,0.8,0.3,1.7,1.1,2c0.1,2,2.8,3.4,4.1,1.4c0.4-0.7,0.7-1.3,0.8-1.9
				c2.6-1.2,2.9-5.1,1.2-7.6C273.1,257.5,273,257.4,272.9,257.2z"/>
			<path fill="#6F9010" d="M398.3,259.4c-2.6-3.8-6.8-5.7-9.9-9.1c-0.7-0.7-1.8-1.1-2.7-0.6c-3.9,2-6.8,5-8.7,8.9
				c-0.7,1.5,1,3.4,2.5,3c2.3-0.6,4.5-1.9,6.7-2.4c0.1,0.1,0.2,0.2,0.3,0.3c0.2,0.1,0.3,0.2,0.5,0.4c-2.9,1.1-5.1,3.1-4.5,6.4
				c0.6,3.1,3.5,3.6,6.5,2.9c0.6,1.6,2.1,2.9,3.7,3.6c6.5,2.7,12.4,0,12-7.6C404.5,260.9,401.6,259.3,398.3,259.4z M386.2,254.6
				c0,0,0.1,0.1,0.1,0.1c-0.2,0-0.3,0.1-0.5,0.1C386,254.7,386.1,254.6,386.2,254.6z M395.4,265.4c0.1-0.2,0.2-0.3,0.3-0.5
				C395.9,265.2,395.8,265.4,395.4,265.4z M387.6,264.9c-0.1,0-0.1,0-0.2,0c0.5-0.7,1.6-1.1,2.7-1.2c-0.1,0.2-0.2,0.4-0.2,0.6
				c-0.5,0.2-0.9,0.4-1.4,0.5C388.1,264.8,387.8,264.8,387.6,264.9z M397.4,269.5c1.4-0.5,2.3-1.3,2.7-2.3c-0.2,0.8-0.5,1.5-0.7,1.9
				C399.1,269.6,398.3,269.6,397.4,269.5z"/>
			<path fill="#6F9010" d="M433.8,218.2c0-0.1-0.1-0.1-0.1-0.2c0.2-0.3,0.3-0.7,0.4-1c0.4-1.3,0.2-2.4-0.3-3.2
				c-0.4-3.5-5.9-6.4-10.3-7c-0.5-0.5-1.1-1-1.7-1.4c-1.1-0.7-2.4-0.5-3.1,0.6c-0.6,0.7-1.1,1.5-1.6,2.4c-2.4-2.3-5-3.8-7.4-2.9
				c-3.3,1.2-2.9,6.3-0.3,8c1.9,1.3,3.9,1.6,6.2,1.5c0.3,0,0.6-0.1,0.9-0.1c0.2,0.2,0.3,0.4,0.5,0.6c-2.3-0.5-4.7,0-6.7,1.8
				c-2.2,2-2,4-0.8,5.8c-0.4,0.7-0.5,1.4-0.5,2.1c-0.3,0.4-0.6,0.9-0.9,1.5c-0.9,2,1.3,3.3,2.9,2.7c1,1.1,2.2,1.9,3.2,2.4
				c0.9,0.4,1.9,0.5,2.8,0.5c2.4,0.9,5.3,0.9,7.6-0.4c1.8-1,2.5-2.3,2.6-3.7c1.5,0,2.9-0.3,4.3-1.1c0.8-0.4,1.2-1.1,1.3-1.8
				C434.5,223.5,435.4,221,433.8,218.2z M422.3,212.5c-0.3,0.2-0.6,0.5-0.9,0.8c-0.1-0.1-0.1-0.1-0.2-0.2c-0.9-1.1-0.6-1.6,0.3-1.8
				C421.8,211.7,422.1,212.1,422.3,212.5z M415,219.9c-0.3,0.2-0.5,0.5-0.7,0.7c-0.3,0-0.6,0.1-0.9,0.1c0,0,0-0.1-0.1-0.1
				C413.1,220,414,219.8,415,219.9z"/>
			<path fill="#6F9010" d="M378.7,213.2c-0.1-2-1.4-3.9-3.1-5.1c-0.1-0.4-0.3-0.7-0.4-1c0,0,0,0,0,0c0.1-2-0.8-3.5-2.1-4.5
				c0.2-0.8,0.1-1.8-0.5-2.9c-0.6-1.3-1.8-2.1-3.2-2.5c-2.9-5.4-10.5-5.2-14.5-0.8c-2.2,2.4-0.9,5.1,1.7,7.1c-0.1,0.3-0.3,0.7-0.4,1
				c-0.4,1.2,0.1,2.1,0.9,2.6c0.1,0.9,0.6,1.7,1.5,2c0.5,0.1,1.1,0.2,1.7,0.2c0.1,0.3,0.2,0.6,0.4,0.9c0,0.2,0,0.3,0,0.5
				c0.1,1.3,1,1.8,1.9,1.8c0.3,0.2,0.6,0.4,1,0.6c0,0.4,0,0.9,0,1.3c0.6,5.7,6.3,6,10.3,4C376.4,218.2,378.8,216.5,378.7,213.2z
				 M368.3,214.1c-0.1-0.2-0.2-0.7-0.2-1.2c0.3-0.1,0.5-0.3,0.8-0.5c0.2,0.1,0.5,0.2,0.7,0.4c-0.1,0.2-0.1,0.4-0.2,0.6
				c-0.1,0.6-0.1,1.2,0,1.7C369,215,368.6,214.7,368.3,214.1z"/>
			<path fill="#6F9010" d="M357.4,231c-0.3-1.8-0.8-3.3-2.1-4.7c-2.4-2.8-6.5-2.2-9.8-1.8c-0.4-0.3-0.9-0.5-1.4-0.6
				c-0.1-0.3-0.2-0.7-0.3-1c-2.2-4.9-8.6-5-11.4-2.5c-0.6-0.1-1.2-0.1-1.9-0.1c-3.3,0-6.6,2.9-4,6.2c2.6,3.2,6.2,4,10,3.9
				c1.2,1.9,3.8,2.3,5.8,1.6c0.5,0.3,1,0.6,1.5,0.9c-1.5,4.9,3.1,7.3,7.5,6.6c1.7,1.3,3.9,1.2,5.7-0.4c1.8-0.4,3.4-1.1,4.6-2
				c0.9-0.7,0.9-1.7,0.6-2.7C361.5,232.1,359.6,231.1,357.4,231z M331.5,225c-0.1-0.1-0.3-0.2-0.4-0.3c0.1,0,0.2,0,0.3,0
				C331.4,224.8,331.5,224.9,331.5,225z"/>
			<path fill="#6F9010" d="M333.6,248.6c-1.5,0.3-2.9,0.9-4.1,1.8c-0.9,0.1-1.8,0.4-2.7,0.8c-0.1,0-0.2,0-0.3,0c-4.1-0.6-8-2-12-2.8
				c-1.7-0.3-2.9,1.8-2.2,3.2c0.2,0.5,0.5,1,0.8,1.4c-0.8-0.1-1.6-0.3-2.4-0.5c0.9-0.4,1.5-1.3,1.3-2.4c-0.3-1.8-1.1-3.2-2-4.7
				c2.8,0.7,7.9-1.4,6.3-5c-0.9-2.2-2.6-3.2-4.4-3.4c-0.1-0.5-0.5-1-0.9-1.2c-0.5-0.3-1.1-0.5-1.8-0.7c-0.2-1.7-2.2-3.1-3.7-1.6
				c-0.2,0.2-0.3,0.3-0.5,0.5c-1.8-0.5-3.5-1-4.9-1.8c0.4-2.5-1.5-4.7-4.6-4.7c-1.1,0-2.3,0.8-2.5,1.9c-1.3,0.3-2.6,1-3.6,1.9
				c-0.5-0.7-1-1.3-1.5-1.9c-2.2-2.9-3.5-6.3-6.4-8.7c-3.5-2.9-10.8-4.4-15.2-3.4c-1.4,0.3-2.3,1.8-1.6,3.2c1.9,3.7,5.4,5.3,9.1,6.8
				c4.3,1.8,7.1,5,10.4,7.9c0.2,0.8,0.9,1.3,1.8,1.5c0,0,0,0,0,0c0.7,0.6,1.6,0.5,2.2,0.2c1.9,1.8,4,3,6.3,2.6
				c1.8-0.3,3.4-1.6,4.3-3.3c0.5,0.2,1,0.4,1.5,0.5c-0.8,0.4-1.6,0.8-2.3,1.3c-0.6,0.5-1.1,1-1.6,1.6c-0.8,0.2-1.5,0.5-2.1,0.8
				c-2.2,1.2-1.1,4.3,0.8,4.4c0.1,1.4,0.6,2.8,1.3,4c0,0,0,0,0,0c-0.1,0.1-0.1,0.1-0.2,0.2c-0.9,1-0.3,2.4,0.6,3.1
				c1.5,1.3,3.8,1.8,6.1,1.8c0,0,0,0,0,0.1c-1.3,0.6-2.2,1.8-1.9,3.8c0.5,2.7,3.3,3,5.6,2.3c-0.2,1.1,0,2.2,0.6,3.3
				c0.7,1.2,2.3,1.8,3.5,0.8c1.4-1.3,2-2.7,1.9-4.1c3.5,2.3,8.5,4.3,12,3.3c1.2,0.9,2.5,1.5,3.9,1.8c0.6,0.5,1.4,0.6,2.1,0.3
				c2,0.1,3.9-0.5,5.7-1.7c4.1-2.8,3.5-7,1-10C338.1,251.1,337.1,247.9,333.6,248.6z M331.5,260.9c0-0.1-0.1-0.2-0.1-0.3
				c0.1-0.1,0.2-0.2,0.3-0.3c0.5,0.2,1,0.3,1.5,0.2C332.6,260.8,332,260.9,331.5,260.9z M319.4,254.3c-0.1-0.1-0.1-0.2-0.2-0.2
				c0.1,0,0.3,0.1,0.4,0.1C319.6,254.2,319.5,254.2,319.4,254.3z M273.1,222.1c0.8,0.2,1.6,0.4,2.3,0.7c1.6,0.5,2.8,1.2,3.8,2.1
				c0,0-0.1-0.1-0.1-0.1C277.4,223.6,275.1,223,273.1,222.1z"/>
			<path fill="#6F9010" d="M255.9,318.7c-0.6-0.4-1.2-0.7-1.8-0.8c-3.1-3.4-8.4-2.9-12.2-0.8c-0.3,0.2-0.5,0.3-0.8,0.5
				c-4.7-3.4-13.7-3.5-14.7,2.6c-0.5,2.7,0.8,4.9,2.8,6.4c0.3,0.4,0.7,0.7,1.1,1c-0.7,1.6-0.8,3.4,0.1,5.3c1.2,2.6,5.3,0.7,4.1-1.9
				c-0.3-0.6-0.2-1.1,0.1-1.6c0.7,0.1,1.3,0.2,2,0.1c2.3,1.4,5.1,0.5,7.1-1c0.4-0.3,0.7-0.8,0.8-1.3c1,0.1,2,0,3-0.4
				c2.3,0.6,4.8,0.5,7-0.4C257.6,325.1,258.9,320.8,255.9,318.7z M248.2,319.9c-0.1,0.1-0.3,0.3-0.4,0.4c0-0.1-0.1-0.3-0.1-0.4
				C247.8,319.9,248,319.9,248.2,319.9z"/>
		</g>
		<g>
			<path fill="#E598C9" d="M224.9,259.8c-0.2-0.1-0.4-0.3-0.6-0.4c-2.2-3.4-7.1-6.1-11-4c-2.4,1.3-3.6,3.6-3.4,5.9
				c-0.7,0.6-1.3,1.3-1.8,2.1c-1.7-0.6-3.8-0.2-5.4,0.4c-1.7,0.7-3,1.8-3.9,3.2c-0.9-0.1-1.9,0-2.9,0c-1.4,0.1-2.4,2-1.6,3.2
				c0.5,0.8,1,1.5,1.6,2.2c-0.1,1.3,0.6,2.6,2.2,3.6c1.7,0.9,3.6,1.2,5.4,0.8c2.2,0.6,4.6,0.2,6.7-1.2c1.7-1.2,2.2-2.9,1.9-4.4
				c0.3,0,0.7,0,1,0c0.7,0.3,1.5,0.6,2.5,0.6c0.5,0,1,0,1.5,0c0.6,0.6,1.3,1.1,2.2,1.5c1.8,0.8,3.6,0.1,5.1-0.9
				c3.9-0.3,7.3-2.6,6.5-7.1C230.2,262.1,227.5,260.3,224.9,259.8z"/>
			<path fill="#E598C9" d="M196.3,349.6c-0.6-0.2-1.2-0.5-1.9-0.7c0-0.2,0-0.3,0-0.5c0-1-0.7-2.1-2-2.3c0,0,0,0,0,0
				c-1.8-1-3.8-1.4-5.9-1.1c-2.9,0.5-4.6,3.5-3.7,6.3c0.2,0.6,0.5,1,0.8,1.4c0.4,1.2,1,2.3,1.5,3.2c0.7,1.3,2.4,1.7,3.5,0.8
				c0.7-0.6,1.4-1.2,2.1-1.9c2.2-0.1,4.3-0.6,5.8-1.1C198.4,353.1,198.1,350.2,196.3,349.6z M188.9,350.3c-0.1,0-0.2,0-0.3,0
				C188.7,350.3,188.8,350.3,188.9,350.3C188.9,350.3,188.9,350.3,188.9,350.3z"/>
			<path fill="#E598C9" d="M181.3,350.9c-0.1,0-0.2-0.1-0.2-0.1c-0.6-2.5-4.4-4.6-6.7-3.7c-1.3,0.5-2.3,1.5-3,2.7
				c-0.9,0-1.8,0.2-2.5,0.6c-1.1,0.5-1.5,1.8-1.1,2.8c-1.5,0.2-2.7,1.6-2,3.2c-0.4,1.3,0.2,2.8,1.9,3c0.6,0,1.1,0.1,1.7,0.1
				c0.5,0.2,1,0.3,1.5,0.4c0.3,1,1,1.8,2.1,2.3c2.2,0.9,4.8,0.3,6.9-0.6c0.3-0.2,0.7-0.4,1-0.6c0.8-0.3,1.6-0.8,2.4-1.4
				c1-0.8,0.9-2.1,0.4-3C184,354.3,183.6,351.9,181.3,350.9z"/>
			<path fill="#E598C9" d="M98.4,272.3c-2.5-1.4-5.3-2.1-8-2.2c-0.3-0.2-0.5-0.3-0.8-0.5c0,0,0,0,0,0c0,0,0,0,0,0
				c-0.2-0.1-0.4-0.2-0.5-0.3c-1.3-0.6-2.3,0.1-2.7,1.1c-0.7,0.1-1.4,0.3-2.1,0.6c-1.4,0.5-1.6,1.8-1,2.8c0,0.1,0,0.2,0,0.3
				c-1.7,1-2.9,2.6-2.7,4.6c0.2,2,1.3,3.2,2.7,3.8c0.1,0.1,0.2,0.2,0.3,0.4c3.1,2.8,7,1.7,9-1.3c0.8-0.5,1.5-1.1,1.9-2c0,0,0,0,0,0
				c0.8-0.5,1.6-1.4,1.3-2.5c-0.1-0.2-0.1-0.4-0.2-0.6c0.7,0,1.3-0.1,2-0.2C99.3,276,100.3,273.3,98.4,272.3z"/>
			<path fill="#E598C9" d="M148.7,284.3c-0.3-0.7-0.7-1.5-1.5-2.3c-3.3-3.7-10.5-2.2-13.4,1.2c-1.2,1.4-1,3.2-0.2,4.7
				c0,0,0,0.1,0,0.1c-1.2,2.1-1.6,4.8,0.1,6.6c2.5,2.5,6.8,1.3,9.5-0.2c1.6-0.9,2.9-2,3.7-3.4c0.9,0.9,2.5,1.1,3.5-0.2
				C152.4,288.1,151.2,285.6,148.7,284.3z"/>
			<path fill="#E598C9" d="M162.4,279.9c-0.1-0.5-0.2-1-0.4-1.4c0.1-0.4,0.1-0.8,0-1.3c-0.3-3.1-3.5-4.7-6.3-4.4
				c-2.8,0.3-5.5,2-6.5,4.8c-0.3,0.8-0.1,1.6,0.4,2.2c0,0.1,0,0.2,0,0.4c-0.3,0.1-0.5,0.3-0.8,0.5c-1.4,0.9-0.9,3.5,0.7,3.9
				c1.4,0.3,3.1,0.3,4.8,0.1c2.4,0.2,5-0.4,7.1-1.4c0.9-0.4,1.5-1.5,1.3-2.5C162.6,280.4,162.5,280.1,162.4,279.9z"/>
			<path fill="#E598C9" d="M188.1,250.2c0.1,0.5,0.3,0.9,0.7,1.4c1.2,1.5,3.6,1.7,5.4,1.4c2.2-0.3,3.9-1.7,4.4-3.9
				c0.1-0.3,0.1-0.6,0-1c0.6-0.2,1.2-0.3,1.7-0.5c2.8-0.9,0.8-5-1.9-4.1c-0.2,0.1-0.4,0.1-0.6,0.2c-2-2.4-5.8-3.5-8.3-2.3
				c-1.4,0-2.8,0.4-3.7,1.4C183.4,245.4,185.4,248.9,188.1,250.2z"/>
			<path fill="#E598C9" d="M296.9,235.6c-0.7-0.5-1.6-1.1-2.4-1.5c-1.2-1.2-3.1-1.8-4.9-1.3c-3-1.6-6.3,0-6.9,3.3
				c-0.9,5,8.8,8.1,12.5,7.8c1.3-0.1,1.9-1.5,1.8-2.6c-0.1-0.6-0.2-1.2-0.4-1.8C297.9,238.8,298.5,236.7,296.9,235.6z"/>
			<path fill="#E598C9" d="M270.5,223.1c-1.6,1.6-0.2,4,1.4,4.1c-0.3,0.1-0.6,0.3-0.9,0.5c-1,0.6-1.7,1.8-1.1,3
				c1.3,2.6,3.7,3.5,6,2.9c0.5,0.2,1.1,0.3,1.8,0c0.8-0.4,1.4-1.3,1.3-2.2c0.6-0.8,0.9-1.7,1.1-2.6c0.8-0.4,1.3-1.2,1-2.2
				C280,222,273.9,219.7,270.5,223.1z M272.9,227c0.1-0.1,0.2-0.1,0.3-0.2c0.1,0.1,0.1,0.1,0.2,0.2C273.2,226.9,273,226.9,272.9,227
				z"/>
			<path fill="#E598C9" d="M272.8,260.7C272.7,260.7,272.7,260.7,272.8,260.7c-0.4-1.1-0.9-2-1.9-2.5c-0.2-0.1-0.4-0.2-0.6-0.2
				c-1.5-0.6-3.2-0.2-4.8,0.6c-1.3,0.7-1.7,2.3-0.8,3.5c0.1,0.1,0.2,0.2,0.3,0.3c0,0.2,0,0.4,0.1,0.6c0.6,1.9,1.8,3.9,4.1,3.6
				c0.9-0.1,1.7-0.7,2.2-1.5c1.1,0.4,2.3-0.5,2.7-1.5C274.6,262.3,273.9,261.2,272.8,260.7z"/>
			<path fill="#E598C9" d="M310.7,241.3c-1.5-1.4-3.2-2.2-5.3-2c-1.7,0.2-3.2,1.1-4.1,2.5c-1.9,3.1-0.1,7.4,3,9
				c2.3,1.1,5.1,0.1,6-2.3c0.1-0.4,0.2-0.7,0.3-1.1c1-0.8,1.2-2.4,0.3-3.4C311.3,243.3,311.4,242,310.7,241.3z"/>
			<path fill="#E598C9" d="M373.5,203.4c0.5-1.4-0.5-3.4-2.5-3.1c-2.4,0.4-4.7,1.6-6,3.7c-1.6,2.6,1.9,5.2,4.3,5.2
				c1.3,0,2.3-0.4,3.4-1.1c1.4-0.9,1.5-2.4,1.1-3.9C373.7,203.9,373.6,203.7,373.5,203.4z"/>
			<path fill="#E598C9" d="M430.1,219.9c-0.7-1.3-1.7-2.4-2.8-3.3c-0.1-1.2-0.6-2.4-1.6-3.3c-0.9-0.8-2.2-1.1-3.2-0.3
				c-0.4,0.3-0.7,0.9-0.8,1.4c-0.8,0-1.7,0.2-2.6,0.5c-0.9,0.3-1.5,1.6-1.3,2.5c0.9,3.1,3.8,4.9,6.9,3.4c0.1,0,0.2-0.1,0.3-0.2
				c0.4,0.4,0.7,0.8,0.9,1.2C427.4,224.3,431.5,222.4,430.1,219.9z"/>
			<path fill="#E598C9" d="M401.7,261.4c-0.1-0.1-0.2-0.2-0.3-0.4c1.1-1.3,0.1-4-2.2-3.8c-1.5,0.1-2.8,0.9-3.7,2
				c-1.3,0-2.6,0.4-3.7,1.2c-0.9,0.7-1.1,2.3-0.3,3.2c1.3,1.4,3.1,2.3,4.9,2.5c0.8,0.6,1.9,1,3,1.1c1.1,0,2.5-0.8,2.4-2.1
				c0-0.4-0.1-0.7-0.1-1c0,0,0,0,0,0C402.5,263.3,402.2,262.1,401.7,261.4z"/>
			<path fill="#E598C9" d="M326.4,254.5c-1,0.2-1.5,0.8-1.7,1.5c-0.3,0.2-0.6,0.6-0.7,0.9c-1.1-0.1-2.1,1-2.2,2.1
				c-0.1,1.3,0.9,2.2,2.1,2.4c1.2,0.2,2.4,0.1,3.5-0.2c1.7,0.4,3.7,0.1,5.3-0.7c1-0.5,1.7-1.9,1.1-3
				C332.1,254.8,329.3,254.1,326.4,254.5z"/>
			<path fill="#E598C9" d="M133.9,262c0.4-0.1,0.8-0.2,1.1-0.3c1.4,1.6,4.1,1.8,5.9,0c1.1-1.1,1-2.6-0.2-3.6c-1-0.9-2.3-1.2-3.5-1.2
				c-0.4-0.2-0.9-0.3-1.4-0.2c-0.4,0.1-0.7,0.2-1,0.4c-0.6,0.1-1.2,0.3-1.8,0.4c-1.2,0.3-2,1.4-1.8,2.6
				C131.5,261.3,132.7,262.3,133.9,262z M138.5,258.9C138.5,259,138.5,259,138.5,258.9L138.5,258.9z"/>
		</g>
	</g>
</g>
<g>
	<path fill="#FFFFFF" d="M574.7,368c4.3-6.7,7.3-14.8,7.1-22.8c0-0.2,0-0.4,0-0.6c0-0.4-0.1-0.9-0.2-1.3c-0.9-5.3-4.4-10.1-10-11.3
		c-6.1-1.3-11.2,2.3-15.4,6.3c-1.5,1.4-2.9,3.1-4.2,4.7c-0.9,1.1-1.8,2.3-2.7,3.5c-0.3,0.4-0.6,0.8-1,1.3c-0.1,0.1-0.2,0.2-0.2,0.3
		c0,0.1-0.1,0.2-0.3,0.4c-1.3,1.7-2.7,3.3-4.3,4.9c-0.8,0.8-1.6,1.5-2.4,2.2c-0.3,0.3-0.7,0.5-1,0.8c0.8-0.6-0.8,0.6-1,0.7
		c-3.5,2.5-7.4,4.5-11.4,6.2c-0.1,0-0.9,0.4-1.1,0.5c-0.5,0.2-1.1,0.4-1.6,0.6c-1.1,0.4-2.2,0.7-3.3,1.1c-2.4,0.7-4.9,1.2-7.4,1.7
		c-0.4,0.1-0.7,0.1-1.1,0.2c0.3-0.1-0.9,0.1-1.1,0.2c-1.2,0.1-2.3,0.2-3.5,0.3c-2.5,0.2-5.1,0.2-7.6,0.2c-2.3,0-4.7-0.1-7-0.3
		c-1.2-0.1-2.3-0.2-3.5-0.3c-0.6-0.1-1.2-0.1-1.7-0.2c-0.3,0-0.7-0.1-1-0.1c0,0,0,0,0,0c-3.4-0.5-6.7-1.1-10.1-1.7
		c-1.8-1.8-3.8-3.4-5.9-5c-2.1-1.5-4.2-2.5-6.5-2.7c-2.5-2.3-5.2-4.3-8.4-5.3c-2.8-3.4-6.1-6.2-9.8-8.7c-0.2-0.1-0.3-0.2-0.5-0.3
		c-0.7-0.4-0.7-0.4,0,0c-0.4-0.5-0.8-0.9-1.2-1.3c-1.2-1.2-2.5-2.4-4-3.3c-2.4-1.5-5.5-1.9-8.2-1.2c-5.4-1.3-11.6-1.6-16.7,0.7
		c-3.5-1.2-7.3-1.6-10.9-1.6c-3.4,0-6.9,0.5-10.2,1.6c-2.4-1.7-4.9-3.2-7.6-4.1c-5-1.6-9.5,0.8-12.5,4.7c-3,4-1.6,9.9,1.8,13.1
		c1.3,1.3,2.8,2.4,4.3,3.4c-0.1,0.5-0.1,1.1-0.2,1.6c-8,1.5-15.8,3.9-23.3,7.5c-6.3-1.6-13-0.6-18.3,3.1c-2.2,0-4.5,0.5-6.5,1.5
		c-0.6-1.5-1.3-3-2-4.4c-1.9-3.5-4.7-6.7-7.2-9.8c-0.5-0.7-1.1-1.3-1.6-2c0,0-0.1-0.1-0.1-0.2c-0.2-0.2-0.4-0.5-0.5-0.7
		c-0.4-0.5-0.8-1.1-1.1-1.7c0.2-0.5,0.5-0.9,0.8-1.3c0.2-0.3,0.4-0.6,0.6-0.9c0,0,0.1-0.1,0.1-0.1c0.6-0.8,1.3-1.5,1.9-2.2
		c1.3-1.5,2.6-3.1,3.8-4.8c1.8-2.8,2.6-5.9,2.9-9.2c0.3-2.5-0.3-5.2-1.2-7.6c-1.3-3.3-3.3-7.4-7.3-8c-4.6-0.7-8.5,1.5-9.8,6.1
		c0,0.1-0.1,0.2-0.1,0.3c-0.2,0.3-0.3,0.6-0.5,0.9c-0.1,0.1-0.3,0.4-0.4,0.6c-0.2,0.3-0.5,0.6-0.7,0.8c-2.7,2.9-6,5-9,7.5
		c-3.9,3.2-6.7,7.5-8.4,12.3c-1.7,4.9-1.5,10.6,0.2,15.5c1.6,4.7,4.5,8.8,7.4,12.7c0.1,0.1,0.2,0.3,0.3,0.4
		c-3.3,3.1-6.3,6.4-8.7,10.3c-5.2,8.4-6.7,18.8-3.7,28.3c2.3,7.5,7.2,13.7,12.2,19.5c0.4,0.5,0.9,1,1.3,1.5
		c-1.2-0.6-2.5-1.1-3.8-1.5c-0.6-0.2-1.2-0.4-1.8-0.5c-0.3-0.1-0.5-0.1-0.6-0.1c-2.6-1.2-5.6-1.4-8.5-1.7c-2.2-0.2-4.3-0.3-6.5-0.1
		c-4.4,0.4-8.4,1.6-11.9,4.1c-1.9,0.2-3.7,0.8-5.2,1.9c-1.1-0.4-2.2-0.8-3.3-1c-4.7-0.8-9,0.3-12.8,2.8c-5.4-0.3-10.5,2.2-13.8,6.6
		c-2,2.6-2.7,5.9-2.3,9.1c-4.2,4-5.9,10.1-4.9,16.3c0.6,3.6,2.5,7.1,5.1,9.7c3.2,3.3,7.5,4.3,11.8,5.3c19.7,4.5,40.2,7.4,60.2,3.5
		c2.2-0.4,4.4-1,6.5-1.6c2,1.5,4.4,2.6,6.5,3.3c3.6,1.2,7.6,1,11.2,0.1c5.8-1.4,10.5-5.2,13.5-10.2c2.1-0.3,4.1-0.8,6.1-1.2
		c4-0.8,6.7-3.4,8.1-7.2c0.6-1.7,0.7-3.4,0.3-5c2.2-0.4,4.3-1,6.3-2c3.3-1.7,4.8-5.5,5-9c0.1-2.6-0.8-4.9-2.3-6.7c0.2,0,0.4,0,0.6,0
		c0.1,0,0.1,0,0.2,0c0.3,0,0.5,0.1,0.8,0.2c0.5,0.1,1,0.3,1.5,0.5c-0.8-0.3,0.8,0.4,1.1,0.6c1.3,0.7,2.4,1.5,3.6,2.4
		c0.1,0,0.1,0.1,0.1,0.1c0.2,0.2,0.4,0.3,0.6,0.5c0.7,0.6,1.4,1.1,2.1,1.7c5.4,4.3,11.1,7.5,18,8.6c5.6,0.9,11.1,0.6,16.3-1
		c2.3,1.6,5.3,2.2,8.4,1.6c2.1-0.4,3.8-1.5,5.3-3c4,0.3,8.3-0.4,11.9-2c2.6,1.1,5.3,2,8.1,2.7c1.8,2.2,4.4,3.5,7.5,3.9
		c3,0.3,5.6-0.8,7.7-2.7c9.8-0.8,19.6-4.9,24.7-13.8c1.4-2.4,2.3-5.1,2.7-7.8c0.4-2.7,0.5-5.1-0.8-7.6c-0.9-1.9-2.5-3.3-4.3-4.4
		c-1.5-0.9-3.3-1.4-5-1.9c-0.7-0.2-1.5-0.4-2.2-0.6c-0.4-0.1-2.6-0.9-1.2-0.1c-1.9-1.1-4-1.9-6.2-2.5c0.5-2.1,0.6-4.3,0.2-6.6
		c-0.5-3.8-2.7-7.2-5.2-10c-4-4.7-10-6.9-15.9-7.6c-5.4-0.6-11.4,1.1-15.8,4.2c-3.6,2.5-6.2,5.6-6.5,10.1c0,0.4,0,0.8,0,1.2
		c-0.9,0.5-1.8,1-2.7,1.6c-1.3-0.2-2.6-0.2-4,0.1c0.1-1.1,0-2.2-0.2-3.3c3.1-1.9,5-5.6,5-9.3c0-4-2.3-7.1-5.2-9.6
		c2,0.1,4,0.3,5.9,0.5c1.2,0.1,2.4,0.3,3.6,0.4c0.1,0,0.9,0.1,1.1,0.1c0.4,0.1,0.9,0.1,1.3,0.2c2.6,0.4,5.3,0.8,7.9,1.3
		c5.1,0.9,10.1,1.9,15.2,2.9c10.5,2.1,20.9,4.1,31.5,5.3c3.8,0.4,7.5,0.7,11.3,0.7c-0.4,3,0.8,6.2,2.7,8.3c0.7,0.8,1.5,1.4,2.4,2
		c-0.2,0.7-0.4,1.3-0.5,2c-1.3,0.2-2.6,0.6-3.8,1.2c-2.9,1.4-5,4.8-5.5,8.1c-1.7,3.8-1,8.4,1.8,11.5c2.1,2.3,5.3,3.8,8.4,4.8
		c3.2,4.2,9,5.8,14.1,5c4.6-0.7,8-3.9,9.7-7.8c2.7-0.7,5.2-1.7,7.8-3c2.3-1.3,4.2-2.9,5.8-5c1.8-2.4,1.6-5.5,1.2-8.3
		c-0.7-5.1-3.9-9.4-8.1-12.3c0.7-1.7,1.5-3.3,2.3-4.9c0.3-0.6,0.6-1.1,0.9-1.7c1.2,3.3,2.5,6.6,3.5,10c0.5,1.7,0.6,3.4,1.1,5.1
		c1,2.7,2.6,4.7,4.9,6.3c3.2,2.4,7.7,2.9,11.5,1.9c5.1-1.4,8-6.1,9.8-10.6c1.7-4.1,1.3-8.8,0.4-13c-0.7-3.7-2.2-7.2-3.2-10.7
		c-0.3-1-0.6-2-0.8-3.1c-0.1-0.6-0.3-1.3-0.4-1.9c0-0.2-0.1-0.3-0.1-0.4c0-0.1,0-0.2,0-0.3c-0.1-1.3-0.2-2.5-0.3-3.8
		C565.8,379.9,570.7,374.2,574.7,368z M303.3,371.4C303.3,371.4,303.3,371.4,303.3,371.4c-0.1,0.1-0.1,0.1-0.1,0.1
		C303.3,371.3,303.3,371.3,303.3,371.4z M303.7,370.9C303.8,370.7,303.8,370.8,303.7,370.9L303.7,370.9z M312.1,322.9
		C312,323.2,311.9,323.4,312.1,322.9L312.1,322.9z"/>
	<g>
		<path fill="#A56637" d="M574.8,344.6c-0.2-4.3-4.8-7.6-8.9-5.2c-6.5,3.8-10.4,10.7-15.3,16.4c-5.5,6.4-12.4,10.4-20.1,13.8
			c-14.5,6.4-31.5,6.2-46.9,3.8c-16.2-2.6-32-7-48.2-9.7c-18.3-3-36.1-3.3-54.3,0.3c-18.8,3.7-35.8,13.1-46.5,29.2
			c-5.9,8.8-8.1,19.2-10.7,29.4c-2.1-3.1-4.4-6-6.8-8.9c-4.2-5.2-6.8-10.2-4.8-16.8c1.5-5.2,9.7-9.3,12.7-13.9
			c7.7-11.7-6.2-21.1-11.1-29.8c-2.7-4.7,4.6-11.1,7.1-14.4c3.6-4.9,3.5-10.1,0.3-15c-0.6-0.9-2-0.8-2.3,0.3
			c-1.5,6.2-9.2,10.4-13.6,14.4c-4.4,4-7,9.5-6.5,15.5c0.5,5.8,3.7,10.4,7.1,14.9c4.2,5.7,4.9,5.4-0.1,9.8
			c-10.2,9-15.2,21.8-9.3,34.9c2.8,6.2,7.5,11.3,11.9,16.4c4.1,4.7,5.6,9.2,6.7,14.7c-0.2,0.4-0.5,0.8-0.7,1.1
			c-6.2,9-19.2,10.2-29.5,10.2c-14.8,0.1-28.9-2.8-43.6-0.7c-11,1.6-10.2,18.5-0.1,21c27.9,6.8,62.3,11.8,86.7-6.5
			c8.1-6,12.9-14.5,16.3-23.7c8.3-2.6,17-6.5,24.9-4.3c5.4,1.5,10,6.4,14.5,9.5c5.2,3.6,11.5,5.2,17.7,4.9
			c11.4-0.4,19.1-7.7,25.5-16.3c2.3-3.1,4.4-6.1,7.8-8.2c3.9-2.3,9.6-1,13.8-0.9c3.6,0,6-4.8,3.2-7.4c-7.8-7.1-18.3-7.2-27-1.5
			c-6.9,4.5-12.5,12.7-20.5,15.4c-6.7,2.2-11-0.9-16.2-4.7c-5.7-4.1-11.1-7-18.1-7.9c-6.5-0.8-13.5,1.2-20.3,3.9
			c0.8-3,1.6-6.1,2.4-9c5.6-20.1,20.7-27.7,40.2-31.3c33.7-6.2,67.2,8.8,100.8,10.2c7.1,0.3,14.3-0.1,21.2-1.3
			c-1.3,2.8-2.4,5.5-3.4,7.8c-4.1,9.4-7.2,19.5-6.8,29.8c0.3,9.1,13.9,9.3,14.2,0.1c0.3-9.7,2.7-18.4,6.6-27.3
			c2-4.6,5.2-9.6,6.4-14.8c1.9-0.7,3.9-1.4,5.8-2.2c0.1,0.5,0.1,1.1,0.2,1.6c1.2,8.7,6.1,16.4,7.5,25.1c0.7,4.5,7.5,6.4,10.5,3
			c6.9-7.9,2.2-16.1-0.3-24.9c-1.3-4.6-1.7-9.3-1.7-13.9C564.6,372.6,575.5,358,574.8,344.6z"/>
		<g>
			<path fill="#6F9010" d="M531.9,425.9c-1.4-7.3-6.9-10.7-13.6-11.2c-0.2-1-0.4-2.1-0.6-3.1c0.4-0.3,0.8-0.7,1.1-1.1
				c1.3-0.7,2.5-1.6,3.7-2.7c1.9-1.7,1.3-4.7-0.7-6c-2.9-1.9-5.4-3.2-8.8-3.9c-2.9-0.6-5.2,1.7-4.7,4.6c0.1,0.5,0.1,0.9,0.2,1.4
				c-0.5-0.2-0.9-0.4-1.4-0.7c-4.3-2.4-8.1,4.1-3.9,6.5c2.3,1.3,4.6,2.1,6.9,2.4c0.4,2.5,0.9,5.1,1.4,7.3c0.3,1.6,2,2.9,3.7,2.9
				c3.6-0.2,6.8,0.2,8.4,2.9c-4,1.9-8.5,2.4-12.9,1.9c-2.9-2-6.1-2.9-10.3-2.8c-2.3,0.1-4.1,2.5-3.8,4.6c-1.2,1.6-1.3,4.2,1,5.5
				c4.9,3,10.1,4.3,15.7,2.6c1.2-0.4,2.1-1.2,2.5-2.3c5.1-0.2,10.1-1.6,14.4-4.6C531.6,429.1,532.3,427.7,531.9,425.9z"/>
			<path fill="#6F9010" d="M398.5,413.6c0.7-1.2,1.2-2.5,1.6-3.8c2.7-9.2-2.6-15.2-9.8-17.5c0.3-0.6,0.6-1.1,0.9-1.7c0,0,0,0,0,0
				c0.2-0.3,0.3-0.7,0.4-1c0.9-2.3,1.5-4.8,1.7-7.7c0.2-2.2-1.8-3.6-3.8-3.8c-4.3-0.4-7.9-0.4-12,1.2c-2.7,1-4.3,5.3-1,6.9
				c0.2,0.1,0.4,0.2,0.6,0.3c-1.2-0.1-2.4,0.1-3.6,0.6c-4.3-0.9-7.7,0.6-10.9,3.7c-6.4,0.8-12.1,3.7-14.9,9.2
				c-1.1,2.1-0.3,5,2.3,5.6c0.2,0,0.4,0.1,0.6,0.1c-1.6,2.1-2.5,4.9-2.6,7.6c-0.3,4.4,2.3,9.4,6.7,10.8c0.6,0.2,1.3,0.3,1.9,0.4
				c0.5,0.9,1.3,1.7,2.4,2.1c2,0.8,4.1,1.3,6.4,1.5c0.5,0.3,1.1,0.6,1.7,0.9c0.7,0.3,1.5,0.5,2.2,0.7c0.1,0.1,0.1,0.3,0.2,0.4
				c10.3,14.2,44,3.6,32.1-14.6C400.8,414.1,399.6,413.6,398.5,413.6z M379.8,428.7c2.2-0.9,4.1-2.3,5.7-4c3.2-1.5,6.2-3.3,8.7-5.6
				c0.2-0.1,0.5-0.2,0.7-0.3c0.1,0.1,0.1,0.2,0.2,0.3C400.1,426.8,387.1,431.1,379.8,428.7z"/>
			<path fill="#6F9010" d="M311.1,401.5c0,0.6,0.1,1.3,0.2,1.9c0.1,0.3,0.1,0.6,0.2,0.9c-0.6,0.7-1.2,1.5-1.7,2.5
				c-0.9,1.7-0.5,4,1,5.1c-0.1,0.2-0.1,0.3-0.2,0.5c-0.5,1.6,0.3,3.5,1.7,4.3c1.7,0.9,3.4,1.9,5.1,2.9c0.3,0.2,0.5,0.3,0.7,0.4
				c2.4,2.3,7.4,0.3,6.3-3.6c0,0,0-0.1,0-0.1c2.8,0.6,5.1-1.8,4.6-4.6c0-0.2-0.1-0.4-0.1-0.6c0.7-0.4,1.5-0.9,2.1-1.5
				c3.7-3,5.7-7.9,4.8-12.6c-0.8-4.4-4.1-8-8.6-8.9c-1.2-0.2-2.3-0.3-3.5-0.2c-1.8-3-5.1-5.2-8.4-6.2c-2.4-0.7-4.7,1.3-4.8,3.6
				c-0.1,2.7,0.6,5.5,1.9,7.9c-0.9,0.7-1.7,1.4-2.4,2.1C308.1,397,308.7,400.5,311.1,401.5z M327.8,401.8c-2.6-0.6-5.1-0.5-7.4,0.1
				c-0.6-0.2-1.2-0.3-1.8-0.3c0-0.1,0-0.2,0-0.3c0.9-0.3,1.7-0.7,2.4-1.2c2.4,0.5,4.9,0.2,7.3-1.4C328.5,400,328.3,401,327.8,401.8z
				 M317.2,418.4c0-0.1-0.1-0.2-0.1-0.3C317.2,418.2,317.2,418.3,317.2,418.4z"/>
			<path fill="#6F9010" d="M302.4,442.4c-0.1-0.3-0.2-0.6-0.4-0.9c-0.3-0.8-0.8-1.5-1.6-1.9c-0.4-0.2-0.9-0.4-1.3-0.6
				c-0.5-0.4-1.1-0.7-1.8-0.8c-9.7-3.7-20.3-0.7-28.5,5.6c-1,0.8-1.3,2.2-1.1,3.5c-0.1,0.1-0.1,0.2-0.2,0.3c0,0-0.1,0-0.1,0
				c-1.1-2.6-3-5-4.9-5.9c-4.8-2.3-8.9-1.3-12.7,2.3c-1.3-0.4-2.7-0.6-4.2-0.3c-7.7,1.4-9.4,9.2-3.5,14.1c3.4,2.9,8.9,3.9,14.1,3.2
				c1,0.9,2,1.6,3.1,2.1c0,0.1,0.1,0.1,0.1,0.2c2.8,5.2,8.6,8.2,14.4,8.8c3.6,3.5,9,4.8,13.7,1.7c2.2-1.4,2.1-4,1-5.6
				C297.7,462.5,305.2,451.8,302.4,442.4z M270.9,454.7C270.9,454.7,270.8,454.7,270.9,454.7C270.9,454.7,270.9,454.6,270.9,454.7
				C270.9,454.7,270.9,454.7,270.9,454.7z"/>
			<path fill="#6F9010" d="M344.4,449.4c-2.7,0.2-3.8-1.7-5.6-3.1c-1.8-1.3-3.5-0.7-4.5,0.6c-0.5,0-1.1,0.2-1.7,0.6
				c-1.1,0.6-2,1.4-2.8,2.1c-1.8,0.7-3.1,2.4-3.8,4.5c-0.6,0.3-1.2,0.6-1.7,0.9c-7,0.3-14.8,3.9-19,8c-1.6,1.5-1.4,3.6-0.3,5
				c-0.5,0.4-1,0.8-1.6,1.2c-3.9,3,1.4,8.4,5.3,5.5c2.3-1.8,4.7-3.5,7-5.3c0.2,0,0.4,0,0.6-0.1c-1.3,1.5-2.4,3.2-3.4,5.1
				c-0.8,1.5-0.7,3.3,0.5,4.6c8.5,8.4,22.5,2.3,24.5-8.5c2.5,0.4,5.2-2.2,4.3-4.8c-1.4-4.2,0.2-7.2,3.9-9.2
				C349.4,454.8,348.3,449.1,344.4,449.4z"/>
			<path fill="#6F9010" d="M461.3,432.7c-2-1-4-1.9-6-2.6c0.7-0.7,1.1-1.6,1-2.5c0-0.1,0-0.2,0-0.2c4.3-3.7,6.3-8.6,2-14.8
				c-6.1-8.8-19.1-9.2-26.4-2c-1.3,1.3-1.7,4.1-0.1,5.4c1.5,1.2,3.1,2.2,4.6,3.1c-1.3,1.1-2.5,2.5-3.6,4c-0.7,1-0.7,2.2-0.2,3.3
				c-0.2,0.4-0.3,0.9-0.4,1.4c-1-0.5-2.2-0.6-3.4,0c-1.2,0.5-2.1,1.1-2.9,1.7c-0.9,0.3-1.8,0.6-2.6,1c-0.5-0.4-0.6-1.3-0.1-3.2
				c1.4-4.7-5.9-6.7-7.3-2c-1.3,4.4-0.6,7.8,1.3,9.9c-1.6,2.2-2,4.8-0.8,7.5c-3.6,1.7-5.3,5.3-3.8,10.7c1.3,4.7,8.7,2.8,7.3-1.9
				c0.5-2.4,1.8-3.2,3.9-2.3c4,0.4,4.8-5.1,2-7.1c-2.5-1.7-2.8-3-2.1-3.9c1.3,2.9,4,5.7,7.2,7.4c11.3,5.9,24.4,2.4,31.6-7.8
				C463.7,436.3,463,433.6,461.3,432.7z M438.2,440.3c-2.1-0.5-6.9-2.3-7.3-4.1c2.1-0.1,4.1,0,5.2,0.4c2,0.7,3.4-0.3,4.1-1.7
				c4.5,0.2,8.7,0.9,12.9,2.4C449,440.7,443.7,441.6,438.2,440.3z"/>
			<path fill="#6F9010" d="M466.3,364.9c-1.3-0.8-2.6-0.8-3.6-0.2c-1.4-1.4-2.7-2.7-4.2-3.9c-1.8-1.4-3.7-2.2-5.7-2.4
				c-2.4-3.7-6.4-7.2-10.8-9.8c-1-1.2-2.1-2.4-3.3-3.5c-1.2-1.1-3.1-1.7-4.6-0.7c-0.2,0.1-0.3,0.2-0.4,0.3c-6.3-2-12.6-2.1-16.9,1.2
				c-5.3-3.4-15.4-2.9-20.4-0.8c-0.7,0.3-1.3,0.6-1.9,1c-2.5-2-5.3-3.7-8.2-5.3c-3.7-1.9-7.8,2.8-4.7,5.9c1.4,1.4,4.1,3.3,7.7,5.3
				c-1.1,2.4-1.6,5.1-1.2,7.7c1.2,7,10.4,7.2,15.5,5.9c1.4-0.4,2.4-1.4,2.7-2.7c5.8,5.7,14.6,8.7,21.8,5.6
				c6.7,2.3,13.9,2.9,20.6,0.7c0.4-0.1,0.8-0.3,1.1-0.6c0.9-0.1,1.8-0.2,2.7-0.5c0.7-0.2,1.3-0.6,1.8-1.1c2.7,1.6,5,4.6,7.2,6.8
				c3,3,6.5,5.2,10.6,6.1c2.9,0.6,6.4-2.6,4.3-5.5C473.7,370.6,470.5,367.5,466.3,364.9z M428.4,352.1c-0.5,0.1-0.9,0.2-1.4,0.4
				c0-0.4-0.1-0.8-0.1-1.2c0-0.1,0-0.3-0.1-0.4c0.6,0,1.2,0.1,1.8,0.2C428.6,351.3,428.5,351.7,428.4,352.1z"/>
		</g>
		<g>
			<path fill="#E598C9" d="M427.5,364.2c2.3-0.7,4.1-2.3,6.2-3.4c1.4-0.7,2.4-2.7,1.8-4.3c-0.8-2.1-1.8-4.1-3.9-5.2
				c-1.6-0.9-3.8-0.9-5.3-1.2c-2-0.4-4.1,0.6-4.7,2.7c-0.2,0.8-0.1,1.6,0.2,2.4c-1,0.3-2.1,0.6-3.1,1.1c-2.4,1.2-2.7,5.4-0.1,6.6
				C421.4,364.2,424.4,365.1,427.5,364.2z"/>
			<path fill="#E598C9" d="M367.3,400.3c-2.1,0-3.8,1.7-3.8,3.8c0,2.1,1.7,3.8,3.8,3.8c0.1,0,0.3,0,0.4,0c0.1,0.1,0.2,0.3,0.2,0.3
				c0.9,1.9,3.4,2.4,5.2,1.5c1.9-1.1,2.4-3.3,1.5-5.2C373.2,401.8,370.4,400.3,367.3,400.3z M367.8,408
				C367.8,408,367.8,408,367.8,408C367.8,408,367.8,408,367.8,408C367.8,408,367.8,408,367.8,408z M368.1,408.1
				C368.2,408.1,368.2,408.1,368.1,408.1L368.1,408.1z"/>
			<path fill="#E598C9" d="M376.6,384.7c-2.1-0.2-3.8,1.9-3.8,3.8c0,2.2,1.7,3.6,3.8,3.8c1.6,0.2,3.2,0.6,4.7,1.1
				c0.6,0.2,1.2,0.5,1.7,0.8c0.1,0,0.1,0.1,0.2,0.1c0,0,0,0.1,0,0.1c0.8,1.9,3.5,2.4,5.2,1.5c1.9-1.1,2.3-3.3,1.5-5.2
				C387.9,386.2,380.8,385.1,376.6,384.7z"/>
			<path fill="#E598C9" d="M396.4,392.9c-4.9-0.5-4.9,7.1,0,7.6c0.7,0.1,1.5,0.2,2.2,0.3c-1.2,1.9-0.8,4.9,1.7,5.8
				c-1,0-2.1,0.1-3.2,0.5c-1.3,0.4-2.2,1.6-2.6,2.8c-2.1,1.3-3.1,3.7-3.4,6.3c-0.1,0.1-0.1,0.2-0.2,0.3c-0.8,1.4-0.6,2.9,0.2,4.1
				c0,0.2,0,0.4,0.1,0.6c0.2,1.1,0.9,1.9,1.8,2.4c0.9,1,2.2,1.7,3.5,2.1c0.8,0.3,1.5,0.2,2.2-0.1c0,0,0,0,0.1,0
				c3.8,2.2,7.3-2.8,5-5.6c0.4-0.4,0.7-0.9,1.1-1.4c0.3,0.1,0.6,0.2,0.9,0.3c4.3,1.4,6.4-4.9,2.9-6.9c1.3-1.4,2.3-3,3.3-4.5
				c3-0.5,4-4,2.1-6.4C409.7,395.4,403.2,393.6,396.4,392.9z M401.2,423.2c0.1-0.1,0.1-0.2,0.2-0.2
				C401.7,422.6,401.7,422.9,401.2,423.2z"/>
			<path fill="#E598C9" d="M392.1,356.2c0.4,0.3,0.9,0.5,1.3,0.8l0,0c0.3,0.2,0.6,0.4,0.9,0.5c1.8,1.1,4.1,0.4,5.2-1.3
				c1.1-1.8,0.4-4.1-1.3-5.2c-0.7-0.4-1.5-0.9-2.2-1.3c-1.8-1.1-4.1-0.4-5.2,1.3C389.7,352.8,390.3,355.1,392.1,356.2z"/>
			<path fill="#E598C9" d="M477.3,433.6c-2-0.8-4.5-1.4-7.2-1.9c-2.5-1.5-5.6-2.4-8.7-2.9c0-4.6-4.8-8.1-9.5-9
				c-2.7-0.5-5.5,1.7-4.7,4.6c0.5,1.9,1.3,3.6,2.2,5c-1,0.2-2,0.5-2.9,0.9c-1.4,0.1-2.9,0.3-4.6,0.8c-2.1,0.6-2.9,2.2-2.8,3.8
				c-0.3,0.3-0.5,0.7-0.8,1c-0.5-0.1-1.1-0.1-1.6,0c-2.7,0.6-4.7,1.4-7.1,2.8c-0.8,0.4-1.3,1.1-1.6,1.8c-3.2,1-6.3,2.8-8.8,5.4
				c-2,2-1.2,5.7,1.6,6.4c5.4,1.4,10.8,0.6,14.7-2.2c3.7,2.1,8.2,3.6,12.8,4.4c0,0.1,0.1,0.3,0.1,0.4c0.9,3.4,5.1,3.6,6.9,1
				c0.2-0.3,0.3-0.5,0.5-0.8c11.8-0.1,22.9-5.4,24.1-17.7C480.3,435.5,478.8,434.2,477.3,433.6z"/>
			<path fill="#E598C9" d="M292.3,436.6c-7.7-1.4-15.4-1.6-20.5,3.3c-2.3-0.6-5.1,0.7-5,3.5c0.1,1.1,0.2,2.2,0.6,3.3
				c-1.9,2.9,0.2,6.5,3.9,5.9c2.2-0.4,4.3-1,6.4-1.5c3.2-0.8,3.8-5.3,1-6.9c-0.1,0-0.1-0.1-0.2-0.1c0.3-0.2,0.6-0.3,0.9-0.4
				c3.4-1.2,7.5-0.3,10.9,0.3C295.1,444.8,297.1,437.5,292.3,436.6z"/>
			<path fill="#E598C9" d="M323.8,456.8C323.8,456.8,323.8,456.8,323.8,456.8c-1.7-1.3-4.2-0.3-5.2,1.3c-1.1,1.9-0.3,3.9,1.3,5.2
				c1.3,1,2.7,1.6,4.1,2.5c0.8,0.5,1.5,0.9,2.4,0.8c1.4,0,2.7-0.7,3.4-1.9c1.2-2.3-0.1-4.3-1.3-6.3
				C327.5,456.8,325.6,456.1,323.8,456.8z M327.9,459.3C327.9,459.3,327.9,459.3,327.9,459.3C328.4,459.5,328.4,459.7,327.9,459.3z"
				/>
			<path fill="#E598C9" d="M355.1,451.1c1-0.4-0.7,0.1-1,0.1c-0.5,0.1-1.4,0.1-2.1,0.2c-0.4,0-0.8,0-1.1,0
				c-4.8-2.6-10.5-3.1-14.2,1.8c-2.6,3.4-1.7,7.7,0.3,11.4c-0.2,0-0.4,0-0.6,0c-4.1,0.2-5.5,6.7-1,7.5c0.3,0.1,0.7,0.1,1,0.1
				c0,0,0,0,0,0c0,0,0.1,0,0.1,0c3.6,0.3,6.7-0.7,10.3-1.4c4.6-0.9,3-7.8-1.4-7.4c-0.3-0.3-0.5-0.6-0.8-0.9c0,0,0,0,0.1,0
				c3.1-0.8,5.8-1.4,8.2-3.6c2.1-0.1,4.1-0.5,5.9-1.3c1.9-0.8,2.4-3.5,1.5-5.2C359.2,450.6,357,450.3,355.1,451.1z"/>
			<path fill="#E598C9" d="M327.2,390.7c-3.4,0.2-6.8,0.3-10.1,1.5c-2.6,1-4,4.1-1.8,6.3c2.2,2.2,4.9,3.8,8,2.4
				c0.8-0.4,1.5-1,2.1-1.6c0.2-0.2,0.4-0.4,0.7-0.6c0.2-0.1,0.6-0.2,0.1-0.1c0,0,0,0,0,0c0.2-0.1,0.4-0.2,0.6-0.3c0.1,0,0.2,0,0.3,0
				c2.1-0.1,3.8-1.6,3.8-3.8C331,392.5,329.3,390.6,327.2,390.7z M326.2,398.6c0,0-0.1,0-0.2,0.1
				C326.1,398.7,326.2,398.6,326.2,398.6C326.2,398.6,326.2,398.6,326.2,398.6z"/>
			<path fill="#E598C9" d="M358.8,371.9c-6.3-2.6-12.9-1.6-17.3,2.9c-0.9-0.3-1.9-0.5-3.2-0.4c-3.4,0.3-4.6,2.9-7.3,4.2
				c-4.4,2.2-0.7,8.8,3.7,6.6c1.4-0.7,2.3-1.9,3.5-2.7c1.1,2.5,5.4,3.9,6.8,0.7c2.4-5.5,6.5-6.2,11.8-4
				C361.3,381,363.2,373.7,358.8,371.9z"/>
		</g>
	</g>
</g>
</svg>
