<?xml version="1.0" encoding="utf-8"?>
<!-- Generator: Adobe Illustrator 18.0.0, SVG Export Plug-In . SVG Version: 6.00 Build 0)  -->
<!DOCTYPE svg PUBLIC "-//W3C//DTD SVG 1.1//EN" "http://www.w3.org/Graphics/SVG/1.1/DTD/svg11.dtd">
<svg version="1.1" id="Layer_1" xmlns="http://www.w3.org/2000/svg" xmlns:xlink="http://www.w3.org/1999/xlink" x="0px" y="0px"
	 viewBox="0 0 640 640" enable-background="new 0 0 640 640" xml:space="preserve">
<g>
	<g>
		<g>
			<path opacity="0.4" fill="#231F20" d="M263.3,435.7c-122.7,9.1-135.1,60,9,55.6S355,428.9,263.3,435.7z"/>
			<path opacity="0.4" fill="#231F20" d="M425.6,470.6c-107.4,4.8-118.2,31.5,7.9,29.2C559.5,497.5,505.9,467,425.6,470.6z"/>
			<path fill="#FFFFFF" d="M307.6,244.9c-1.7-2.9-5.9-4.2-8.9-2.3c-8.9,5.8-15.2,14.7-20.5,23.7c-5.8,9.9-11.3,20.1-15.7,30.8
				c-8.8,21.4-14.8,43.6-18.4,66.4c-2.5,15.4-4,31-3.7,46.6c0.2,8.4,1.1,16.9,2.5,25.2c0.6,3.5,1.4,6.9,2.4,10.3
				c0.5,1.6,1,3.3,1.6,4.9c0.3,0.7,0.5,1.4,0.7,2.1c0.9,3.3,2.4,5.8,4.7,8.3c4.3,4.9,13.3,6.2,18.7,2.4c3.1-2.1,6.6-5.3,7.2-9.4
				c0.5-3.4,0.7-6.8-0.7-9.8c-0.2-0.6-0.5-1.2-0.8-1.7c-0.5-1.1-1.1-2.2-1.6-3.2c-2.9-7.5-4.7-15.4-5.9-23.3
				c-2.6-21.8-1.3-44.1,1.5-65.8c2.6-19,7.1-37.7,13.5-55.8c0.8-2.2,1.6-4.4,2.5-6.6c0.4-1.1,0.9-2.2,1.3-3.3c0-0.1,0.1-0.2,0.1-0.2
				c0.2-0.4,0.3-0.7,0.5-1.1c1.6-3.7,3.2-7.5,4.9-11.1c1.8-3.8,3.7-7.5,6-11.1c0.5-0.8,1.1-1.6,1.6-2.4c0.1-0.2,0.2-0.3,0.3-0.5
				c-0.2,0.3,0.6-0.7,0.7-0.8c1.3-1.6,2.8-3,4.3-4.3C308.8,250.9,309,247.3,307.6,244.9z"/>
			<path fill="#A7A9AC" d="M243,435.3c0.6,3.5,1.4,6.9,2.4,10.3c0.5,1.6,1,3.3,1.6,4.9c0.3,0.7,0.5,1.4,0.7,2.1
				c0.9,3.3,2.4,5.8,4.7,8.3c0.3,0.4,0.7,0.7,1,1c0.7,0.1,1.3,0.5,1.6,1.2c0,0,0,0,0,0c0.8,0.5,1.7,1,2.7,1.3c0,0,0,0,0,0
				c7.7,1.1-0.5-11.1-2.1-23.5c-3.2-24.2,0.6-126.5,12.5-142.4c0,0,1.9-9.3,2.6-18.4c-0.4,0.7-0.7,1.3-1.1,2c0,0.1-0.1,0.1-0.1,0.2
				c-0.3,0.6-0.6,1.2-0.9,1.8c-0.1,0.1-0.1,0.2-0.2,0.3c-0.3,0.6-0.6,1.1-0.8,1.7c-0.1,0.2-0.1,0.3-0.2,0.5c-0.3,0.5-0.5,1-0.7,1.6
				c-0.1,0.2-0.2,0.4-0.3,0.6c-0.2,0.5-0.5,1-0.7,1.5c-0.1,0.2-0.2,0.4-0.3,0.6c-0.2,0.5-0.4,1-0.6,1.4c-0.1,0.2-0.2,0.4-0.3,0.7
				c-0.2,0.5-0.4,1-0.6,1.5c-0.1,0.2-0.2,0.4-0.3,0.6c-0.3,0.7-0.6,1.4-0.9,2.1c-8.8,21.4-14.8,43.6-18.4,66.4
				c-2.5,15.4-4,31-3.7,46.6C240.6,418.5,241.5,427,243,435.3z"/>
			<path fill="#A7A9AC" d="M272.8,276c-3.5,6.4-6.8,13-9.6,19.7c3.7,7.1,9.6,15.3,15.4,16.9c1.7-6.2,3.7-12.3,5.8-18.4
				c0.8-2.2,1.6-4.4,2.5-6.6c0.4-1,0.8-1.9,1.2-2.9L272.8,276z"/>
			<g>
				<path fill="#FFFFFF" d="M337,350.6c-4.9-3.2-13.1,0.1-17.7,2.7c-4.6,2.6-9,5.9-12.7,9.7c-7.2,7.3-13.3,15.8-18.8,24.4
					c-3.8,6-7,12.3-9.9,18.8c-3.6,8.4-6.9,16.9-8.6,25.9c-0.6,3.3-1.1,6.7-1.3,10.1c-0.2,3.5,0.2,6.8,0.7,10.2
					c1.1,7.8,5.6,16.7,13.9,18.5c3.4,0.7,6.7,0.5,9.8-1.3c3.5-2,6.8-6.7,6.3-10.9c-0.2-1.4-0.1-3.2-0.6-4.4
					c-0.6-1.4-1.2-2.8-1.8-4.2c-0.5-1-1.2-2-1.6-3c0.5,1.1,0.9,2.2,1.4,3.2c-0.8-2-1.4-4.1-1.7-6.3c0.2,1.2,0.3,2.4,0.5,3.6
					c-0.5-4-0.3-8,0.2-12c-0.2,1.2-0.3,2.3-0.5,3.5c1.3-9.6,4.4-19,8.2-28c-0.4,1-0.8,2-1.3,3c4.1-9.7,9.3-19.2,15.1-28.1
					c0.8-1.3,1.7-2.6,2.6-3.8c0.4-0.6,0.9-1.2,1.4-1.9c1.8-2.4-1.2,1.5,0,0c2-2.5,4.1-5,6.2-7.4c2-2.3,4.4-4.3,6.4-6.5
					c2.4-2.7,5.8-4.6,6.7-8.3C340.7,355.1,339.5,352.3,337,350.6L337,350.6z"/>
			</g>
			<path fill="#A7A9AC" d="M298.5,372.2c-3.9,4.9-7.4,10-10.7,15.2c0,0.1-0.1,0.1-0.1,0.2c3.9,8.3,9.2,18.5,15.3,23.1
				c2.3-5.1,4.9-10.2,7.7-15.1C307.4,387.8,302.4,378.8,298.5,372.2z"/>
			<g>
				<path fill="#FFFFFF" d="M190.8,352.6c1,0.6-1.3-1.1-0.6-0.5C190.5,352.3,190.6,352.5,190.8,352.6c0.9,1.1-1.1-1.3-0.4-0.4
					c0.2,0.3,0.4,0.6,0.6,1c0.4,0.5,0.7,0.9,1.1,1.4c-0.9-1.2-1.1-1.5-0.7-1c0.1,0.2,0.2,0.3,0.3,0.5c0.2,0.3,0.5,0.7,0.7,1
					c0.5,0.8,1,1.7,1.5,2.6c2.5,4.6,4.9,9.2,7,14c1.3,3,2.7,5.9,4,8.9c0.2,0.4,0.3,0.8,0.5,1.1c0.7,1.6-1-2.3-0.3-0.7
					c0.3,0.8,0.6,1.5,1,2.3c0.7,1.7,1.4,3.5,2.1,5.2c2.7,7,5.4,14.1,7.8,21.3c5.1,14.8,9.6,30.1,11.8,45.6c-0.1-1-0.3-2.1-0.4-3.1
					c0.3,2.3,0.7,4.6,1,6.9c-0.1-1-0.3-2.1-0.4-3.1c0.6,4.4,0.6,8.8,1.2,13.2c-0.1-1-0.3-2-0.4-3c0.1,0.4,0.1,0.9,0.2,1.3
					c0.5,5,3,9.2,8.1,10.6c5.8,1.6,11.9-1.9,13.6-7.7c1.9-6.6,0.9-13.9-0.2-20.6c-1-6.5-2.8-12.9-4.7-19.2
					c-4.5-15.2-10.2-30.3-17-44.6c-4.8-10.1-10-20.2-16.3-29.5c-2.5-3.6-5.2-7.1-8.5-10.1c-0.5-0.5-1-0.9-1.6-1.3
					c-0.5-0.4-1-0.8-1.5-1.2c2.5,1.9,0.3,0-0.4-0.3c-0.3-0.1-0.6-0.3-0.9-0.5c-1.9-0.9-3.5-1.5-5.6-1.6
					C187.7,341.4,186.2,349.6,190.8,352.6L190.8,352.6z"/>
			</g>
			<path fill="#C563AE" d="M340.2,191c24.3,11.9,43.5,93,8.6,120.8s-56.2-1.7-70.5-21.5c-14.3-19.9-51,4-56.7-34.1
				C216.6,222.7,323.6,182.9,340.2,191z"/>
			<path fill="#A7A9AC" d="M228.6,386.1c-3.3-7-6.8-14-10.7-20.6l-12.3,16.7c0.2,0.4,0.3,0.7,0.5,1.1c0.7,1.7,1.4,3.5,2.1,5.2
				c1.4,3.6,2.7,7.1,4.1,10.7c8-0.1,16-0.3,21.4-1.9C232,393.5,230.3,389.8,228.6,386.1z"/>
			<path fill="#C563AE" d="M129.4,382.5c-0.1-62,17.4-142.3,81-95.4s85,73.1,53.3,88.2S129.5,412.7,129.4,382.5z"/>
			<path fill="#C563AE" d="M313.8,332.8c21.9-2.7,66-6,45.3,44.9c-20.7,50.9-54,38.9-67.6-7.2S294.7,335.1,313.8,332.8z"/>
		</g>
		<path fill="#FFFFFF" d="M409.1,437.9c-2.4,17.5-23.1,22.3-24.6,37.4s53.7,21.6,52.1-0.1c-1.6-21.6-12.9-33.3-13.1-37.3"/>
		<path fill="#A7A9AC" d="M398.9,455.1c8.9,1.5,23.3,3.5,33.7,1.9c-3.4-9.1-7.8-14.9-8.8-18.1c-2.4-0.7-4.1-1.1-4.1-1.1h-10.6
			C408,445.4,403.7,450.5,398.9,455.1z"/>
		<path fill="#C563AE" d="M423.5,397.6c-23.1-1.4-95.8,11.1-86.2,35.8c9.5,24.6,186.8,17.6,172.5-11.8
			C509.7,421.6,451.5,399.3,423.5,397.6z"/>
		<path fill="#0E3173" d="M340.2,191c-8.7-4.3-42.4,4.7-71.7,19.1c15.5,25,36.7,32.4,50.1,31.6c10.6-0.6,30.2,9.7,49,12.7
			C365.8,225.9,353.8,197.6,340.2,191z"/>
		<path fill="#0E3173" d="M423.5,397.6c-10.6-0.6-31.8,1.7-50.6,6.8c0.4,8.1,6.8,9.9,21.8,6.5c21.5-4.8,34.2,4.9,47.7,1.6
			c4.8-1.2,9.6-4.5,13.6-8.5C444.1,400.7,432.3,398.1,423.5,397.6z"/>
		<path fill="#0E3173" d="M319.6,332.2c-3.4,7.8,0.5,17.2,6,18.3c7.2,1.5,20.6,30.7,27.9,27c2.2-1.1,5.3-3.9,8.5-7.5
			C373.9,330.9,341.2,330.1,319.6,332.2z"/>
		<path fill="#0E3173" d="M164.2,335.3c11.1-20.6,33.5-17.2,48.5-26.2c4.6-2.8,9.2-6.5,12.9-10.6c-4.8-3.7-9.8-7.5-15.2-11.4
			c-49.5-36.5-71.1,4.1-78.2,53.1C144.8,345.8,158.7,345.5,164.2,335.3z"/>
		<path fill="#A7A9AC" d="M282.6,471c2.1,0.4,4.1,0.5,6,0.1c-5.6-4.4-11.7-10.9-13.1-20c-2.9-18.2,10.3-54.5,21.1-59.7l-7.9-5.6
			c-0.3,0.5-0.7,1.1-1,1.6c-3.8,6-7,12.3-9.9,18.8c-3.6,8.4-6.9,16.9-8.5,25.9c-0.6,3.3-1.1,6.7-1.3,10.1c-0.2,3.5,0.2,6.8,0.7,10.2
			C269.8,460.3,274.3,469.2,282.6,471z"/>
		<g>
			<path fill="#FFFFFF" d="M364.6,410.1c17.8,0,15.6,22.2-0.3,22.2S347.1,410.1,364.6,410.1z"/>
			<path fill="#EF4136" d="M373.2,419.6c0-2.6-2.1-4.7-4.7-4.7c-1.8,0-3.4,1-4.2,2.5c0,0.1-0.1,0.1-0.2,0c-0.8-1.5-2.3-2.5-4.2-2.5
				c-2.6,0-4.7,2.1-4.7,4.7c0,3.8,9.3,9.8,9.3,9.8c0,0,0.1,0,0.1,0C364.8,429.3,373.2,423.9,373.2,419.6z"/>
		</g>
		<g>
			<path fill="#FFFFFF" d="M405.2,402.1c17.8,0,15.6,22.2-0.3,22.2S387.7,402.1,405.2,402.1z"/>
			<path fill="#EF4136" d="M413.8,411.5c0-2.6-2.1-4.7-4.7-4.7c-1.8,0-3.4,1-4.2,2.5c0,0.1-0.1,0.1-0.2,0c-0.8-1.5-2.3-2.5-4.2-2.5
				c-2.6,0-4.7,2.1-4.7,4.7c0,3.8,9.3,9.8,9.3,9.8c0,0,0.1,0,0.1,0C405.4,421.3,413.8,415.8,413.8,411.5z"/>
		</g>
		<g>
			<path fill="#FFFFFF" d="M456.2,413.2c17.8,0,15.6,22.2-0.3,22.2C439.9,435.3,438.6,413.2,456.2,413.2z"/>
			<path fill="#EF4136" d="M464.8,422.6c0-2.6-2.1-4.7-4.7-4.7c-1.8,0-3.4,1-4.2,2.5c0,0.1-0.1,0.1-0.2,0c-0.8-1.5-2.3-2.5-4.2-2.5
				c-2.6,0-4.7,2.1-4.7,4.7c0,3.8,9.3,9.8,9.3,9.8c0,0,0.1,0,0.1,0C456.4,432.4,464.8,426.9,464.8,422.6z"/>
		</g>
		<g>
			<path fill="#FFFFFF" d="M263.5,232.7c21,0,18.4,26.2-0.4,26.2C244.3,258.9,242.8,232.7,263.5,232.7z"/>
			<path fill="#EF4136" d="M273.7,243.8c0-3.1-2.5-5.6-5.5-5.6c-2.1,0-4,1.2-4.9,3c0,0.1-0.2,0.1-0.2,0c-0.9-1.8-2.8-3-4.9-3
				c-3.1,0-5.5,2.5-5.5,5.6c0,4.5,11,11.6,11,11.6c0,0,0.1,0,0.2,0C263.7,255.4,273.7,248.9,273.7,243.8z"/>
		</g>
		<g>
			<path fill="#FFFFFF" d="M306.3,204.3c21,0,18.4,26.2-0.4,26.2C287,230.5,285.5,204.3,306.3,204.3z"/>
			<path fill="#EF4136" d="M316.4,215.4c0-3.1-2.5-5.6-5.5-5.6c-2.1,0-4,1.2-4.9,3c0,0.1-0.2,0.1-0.2,0c-0.9-1.8-2.8-3-4.9-3
				c-3.1,0-5.5,2.5-5.5,5.6c0,4.5,11,11.6,11,11.6c0,0,0.1,0,0.2,0C306.5,227,316.4,220.5,316.4,215.4z"/>
		</g>
		<g>
			<path fill="#FFFFFF" d="M330.7,272.9c19.5,7.7,7.5,31.1-10,24.2C303.2,290.2,311.4,265.3,330.7,272.9z"/>
			<path fill="#EF4136" d="M336.1,287c1.1-2.9-0.3-6.1-3.1-7.2c-2-0.8-4.2-0.3-5.7,1c-0.1,0.1-0.2,0-0.2-0.1c-0.2-2-1.5-3.8-3.5-4.6
				c-2.8-1.1-6.1,0.3-7.2,3.1c-1.7,4.2,6,14.8,6,14.8c0,0.1,0.1,0.1,0.2,0.1C322.6,294.1,334.2,291.7,336.1,287z"/>
		</g>
		<g>
			<path fill="#FFFFFF" d="M226.7,329.2c20.9-2.4,21.3,24,2.5,26.1S206.1,331.5,226.7,329.2z"/>
			<path fill="#EF4136" d="M238.1,339.1c-0.3-3.1-3.1-5.2-6.1-4.9c-2.1,0.2-3.8,1.7-4.5,3.5c0,0.1-0.2,0.1-0.2,0
				c-1.1-1.7-3.1-2.7-5.2-2.4c-3,0.3-5.2,3.1-4.9,6.1c0.5,4.5,12.2,10.3,12.2,10.3c0.1,0,0.1,0,0.2,0
				C229.5,351.7,238.6,344.2,238.1,339.1z"/>
		</g>
		<g>
			<path fill="#FFFFFF" d="M182,289.4c20.9-2.4,21.3,24,2.5,26.1S161.4,291.7,182,289.4z"/>
			<path fill="#EF4136" d="M193.3,299.3c-0.3-3.1-3.1-5.2-6.1-4.9c-2.1,0.2-3.8,1.7-4.5,3.5c0,0.1-0.2,0.1-0.2,0
				c-1.1-1.7-3.1-2.7-5.2-2.4c-3,0.3-5.2,3.1-4.9,6.1c0.5,4.5,12.2,10.3,12.2,10.3c0.1,0,0.1,0,0.2,0
				C184.7,311.9,193.9,304.4,193.3,299.3z"/>
		</g>
		<g>
			<path fill="#FFFFFF" d="M155.4,329.6c20.9-2.4,21.3,24,2.5,26.1C139.2,357.8,134.8,331.9,155.4,329.6z"/>
			<path fill="#EF4136" d="M166.8,339.5c-0.3-3.1-3.1-5.2-6.1-4.9c-2.1,0.2-3.8,1.7-4.5,3.5c0,0.1-0.2,0.1-0.2,0
				c-1.1-1.7-3.1-2.7-5.2-2.4c-3,0.3-5.2,3.1-4.9,6.1c0.5,4.5,12.2,10.3,12.2,10.3c0.1,0,0.1,0,0.2,0
				C158.2,352.1,167.3,344.6,166.8,339.5z"/>
		</g>
		<g>
			<path fill="#FFFFFF" d="M192.1,361.2c20.9-2.4,21.3,24,2.5,26.1C175.9,389.4,171.4,363.5,192.1,361.2z"/>
			<path fill="#EF4136" d="M203.4,371.1c-0.3-3.1-3.1-5.2-6.1-4.9c-2.1,0.2-3.8,1.7-4.5,3.5c0,0.1-0.2,0.1-0.2,0
				c-1.1-1.7-3.1-2.7-5.2-2.4c-3,0.3-5.2,3.1-4.9,6.1c0.5,4.5,12.2,10.3,12.2,10.3c0.1,0,0.1,0,0.2,0
				C194.8,383.7,204,376.2,203.4,371.1z"/>
		</g>
		<g>
			<path fill="#FFFFFF" d="M342.2,378c11,17.9-12.6,29.5-22.5,13.4C309.7,375.4,331.3,360.4,342.2,378z"/>
			<path fill="#EF4136" d="M338,392.5c2.6-1.6,3.4-5,1.8-7.6c-1.1-1.8-3.1-2.8-5.1-2.6c-0.1,0-0.2-0.1-0.1-0.2c1-1.7,1.1-3.9,0-5.8
				c-1.6-2.6-5-3.4-7.6-1.8c-3.9,2.4-4.1,15.4-4.1,15.4c0,0.1,0,0.1,0.1,0.1C322.9,390.1,333.7,395.2,338,392.5z"/>
		</g>
		<g>
			<path fill="#FFFFFF" d="M330.7,341.9c16.9,12.4-0.6,32-15.8,20.9C299.7,351.6,314,329.6,330.7,341.9z"/>
			<path fill="#EF4136" d="M332.3,356.9c1.8-2.5,1.3-5.9-1.2-7.8c-1.7-1.3-3.9-1.4-5.7-0.5c-0.1,0-0.2,0-0.2-0.1
				c0.3-2-0.5-4.1-2.2-5.3c-2.5-1.8-5.9-1.3-7.8,1.2c-2.7,3.7,2,15.8,2,15.8c0,0.1,0.1,0.1,0.1,0.1
				C317.5,360.3,329.3,361,332.3,356.9z"/>
		</g>
	</g>
	<g>
		<path fill="#EC008C" d="M197.4,209.4l16.6-3.3l-16.5,10.6l2.8,8.8l-11.4-7.5c0,0-12.9,4.7-17,7.5c4.1-7.3,14.4-11.8,15-12.4
			c0.7-0.6-10.5,1.3-10.5,1.3l7.9-3.6L197.4,209.4z"/>
		<path fill="#6B1F50" d="M205.2,207.8l-7.9,1.6l-13,1.3l-3.9,1.8c0.4,0.4,0.8,0.7,1.2,1c2.8-0.4,5.6-0.8,5.2-0.4
			c-0.2,0.2-1.3,0.8-2.9,1.7C192.9,221.6,201.6,213.5,205.2,207.8z"/>
		<path fill="#EC008C" d="M182.8,211.1c-3-2.1-1.3-9.4-1.3-9.4l6.1,5.8c0,0-3.5-4.3,0.6-13.3c5.2,8.4,6,7.5,4.9,12.7
			c4.1-6.7,6.9-11.2,6.9-11.2s3.9,6.9-1.1,13.7C194.4,216.3,184,212,182.8,211.1z"/>
	</g>
	<g>
		<path fill="#EC008C" d="M429.8,298.1l16.7,2.3l-19.1,4.6l-0.3,9.2l-8.3-10.8c0,0-13.7,0.2-18.5,1.5c6.3-5.5,17.4-6.4,18.3-6.8
			c0.8-0.4-10.3-2.2-10.3-2.2l8.7-0.8L429.8,298.1z"/>
		<path fill="#6B1F50" d="M437.8,299.2l-8-1.1l-12.7-3.1l-4.3,0.4c0.3,0.5,0.5,0.9,0.9,1.4c2.8,0.5,5.5,1.1,5.1,1.3
			c-0.3,0.1-1.5,0.3-3.3,0.6C421.6,308.1,432.4,303.4,437.8,299.2z"/>
		<path fill="#EC008C" d="M415.5,294.9c-2.1-3,1.9-9.3,1.9-9.3l3.8,7.5c0,0-1.9-5.3,4.9-12.4c2.1,9.6,3.2,9.1,0.5,13.6
			c6-4.9,10.2-8.3,10.2-8.3s1.4,7.8-5.5,12.6C424.7,303.6,416.3,296.1,415.5,294.9z"/>
	</g>
	<g>
		<polygon fill="#6B1F50" points="316.6,147.7 328.9,148.8 322.5,157.2 		"/>
		<path fill="#EC008C" d="M317.9,151.6c-1-0.2-8.6-6-8.6-6l9.5,0.3l5.4-5.8l2.8,6.4c0,0,8-0.6,7.5-0.2c-0.5,0.4-5.4,5.7-5.4,5.7
			l-10.6,0.4"/>
	</g>
	<g>
		<polygon fill="#6B1F50" points="395.2,201.8 404,210.5 393.7,212.9 		"/>
		<path fill="#EC008C" d="M393.7,205.7c-0.6-0.8-2.9-10.1-2.9-10.1l7.2,6.2l7.8-1.1l-1.9,6.7c0,0,6.6,4.5,6,4.5s-7.8,1-7.8,1
			l-8.4-6.4"/>
	</g>
</g>
</svg>
