<?xml version="1.0" encoding="utf-8"?>
<!-- Generator: Adobe Illustrator 18.0.0, SVG Export Plug-In . SVG Version: 6.00 Build 0)  -->
<!DOCTYPE svg PUBLIC "-//W3C//DTD SVG 1.1//EN" "http://www.w3.org/Graphics/SVG/1.1/DTD/svg11.dtd">
<svg version="1.1" id="Layer_1" xmlns="http://www.w3.org/2000/svg" xmlns:xlink="http://www.w3.org/1999/xlink" x="0px" y="0px"
	 viewBox="0 0 640 640" enable-background="new 0 0 640 640" xml:space="preserve">
<g>
	<path fill="#FFCD8A" d="M105.5,318c-17.6-2-30.6-6.1-54.1-2.7c-23.5,3.4-41.7,13.2-33.2,13.2s46.3,2.6,46.3,14
		c0,11.4-26.3,21.7-30,23.1c-9.8,3.9-19.6,11.7,11.1,7.2c30.6-4.6,88.6,5.2,101.7,6.5s13.9-16.3,13.9-16.3l-55.6-43"/>
	<path fill="#D3A56E" d="M105.5,319.9L105.5,319.9L105.5,319.9l0-2c-0.5-0.1-1.1-0.1-1.6-0.2c-0.2,0-0.3,0-0.5-0.1
		c-0.4,0-0.7-0.1-1.1-0.1c-0.2,0-0.4-0.1-0.7-0.1c-0.3,0-0.6-0.1-0.9-0.1c-0.2,0-0.5-0.1-0.7-0.1c-0.3,0-0.5-0.1-0.8-0.1
		c-0.3,0-0.5-0.1-0.8-0.1c-0.2,0-0.5-0.1-0.7-0.1c-0.3,0-0.6-0.1-0.9-0.1c-0.2,0-0.4-0.1-0.6-0.1c-0.3,0-0.7-0.1-1-0.1
		c-0.2,0-0.3,0-0.5-0.1c-0.4-0.1-0.9-0.1-1.3-0.2c-3.4,12.9,4.6,29.1,4.4,42.6c2.7,8.6,51,19.5,57.2,18.2c2.6-2,4.1-5.2,5-8
		L105.5,319.9z"/>
	<path fill="#FFCD8A" d="M520.6,314c21.5-12.3,75.6-9.3,95.8,1.3c6.5,2.1,4.6,7.3-7.2,6.6c-11.7-0.7-26.7,7.8-26.7,14.3
		s19.6,24.2,22.8,26.8c3.3,2.6,0.1,5.6-10.4,2.6c-13.7-3.9-46.9-7.1-67.8-2.6s-56.7,9.6-60.6,0S520.6,314,520.6,314z"/>
	<path fill="#FFCD8A" d="M520.6,314c21.5-12.3,75.6-9.3,95.8,1.3c6.5,2.1,4.6,7.3-7.2,6.6c-11.7-0.7-26.7,7.8-26.7,14.3
		s19.6,24.2,22.8,26.8c3.3,2.6,0.1,5.6-10.4,2.6c-13.7-3.9-46.9-7.1-67.8-2.6s-56.7,9.6-60.6,0S520.6,314,520.6,314z"/>
	<path fill="#D3A56E" d="M521.5,313.5c-0.3,0.2-0.6,0.3-0.9,0.5c0,0,0,0,0,0c0,0,0,0-0.1,0.1c0,0,0,0,0,0c-0.1,0-0.1,0.1-0.2,0.1
		c0,0,0,0,0,0c-0.1,0.1-0.3,0.2-0.5,0.4v0.7l-53.1,48c0.1,0.1,0.1,0.2,0.2,0.3c0,0,0,0,0,0.1c0.1,0.1,0.1,0.2,0.2,0.3
		c0,0,0,0,0.1,0.1c0.1,0.1,0.1,0.2,0.2,0.3c0,0,0,0,0,0c0.5,0.5,1.1,1,1.8,1.4l0,0c0.1,0,0.2,0.1,0.3,0.2c9.8,5.4,39.5,1,57.7-3
		c0.3-0.1,0.6-0.1,1-0.2c11.1-13,6.4-46.5,2.9-59.8c-3.1,0.5-5.3,9.6-8.6,10c0,0,0,0,0,0C522.1,313.2,521.8,313.3,521.5,313.5z"/>
	<path fill="#A97C50" d="M105.5,353.2c0,0,18.2,12.4,36.5,14.3c18.2,2,18.2,2,18.2,2l3.3-23.5c0,0-38.5,0.6-43,0
		S105.5,353.2,105.5,353.2z"/>
	<path fill="#A97C50" d="M460.6,334.3c0,0,1.3,28,5.9,28.7c4.6,0.7,60.2-8.5,60.6-14.3l-33.2-26.7L460.6,334.3z"/>
	<path fill="#FFCD8A" d="M100.3,255.3c44.3-17.6,73.6-17.6,119.9-9.8c46.3,7.8,82.1,12.4,121.9,12.4s88-9.8,117.3-14.3
		c29.3-4.6,58.7-4.7,71.7,5.1c0,15.1-3.9,99.9-3.9,99.9c-20.9-10.4-36.6-9.7-60-8.5c-38.4,2-103.6,14.3-127.1,17.6
		c-23.5,3.3-67.8-0.7-88.6-3.9s-93.8-15.6-146-0.7C102.2,333,98.3,264.4,100.3,255.3"/>
</g>
</svg>
