<?xml version="1.0" encoding="utf-8"?>
<!-- Generator: Adobe Illustrator 18.0.0, SVG Export Plug-In . SVG Version: 6.00 Build 0)  -->
<!DOCTYPE svg PUBLIC "-//W3C//DTD SVG 1.1//EN" "http://www.w3.org/Graphics/SVG/1.1/DTD/svg11.dtd">
<svg version="1.1" id="Layer_1" xmlns="http://www.w3.org/2000/svg" xmlns:xlink="http://www.w3.org/1999/xlink" x="0px" y="0px"
	 viewBox="0 0 1136 640" enable-background="new 0 0 1136 640" xml:space="preserve">
<rect x="-23.6" y="-19.7" fill="#80CCDD" width="1183.3" height="679.5"/>
<g>
	<path fill="#E6E7E8" stroke="#E6E7E8" stroke-miterlimit="10" d="M382.4,160.7c0-3.3-2.7-6-6-6c-0.5,0-0.9,0.1-1.3,0.1
		c-0.2-5.5-4.7-10-10.3-10c-5.7,0-10.3,4.6-10.3,10.3c0,0.1,0,0.3,0,0.4c-0.9-0.6-2-0.9-3.1-0.9c-1.1,0-2.1,0.3-3,0.8
		c0-0.1,0-0.2,0-0.3c0-5.7-4.6-10.3-10.3-10.3c-0.9,0-1.7,0.1-2.6,0.3c-1.8-7.2-8.2-12.5-15.9-12.5c-7.7,0-14.1,5.3-15.9,12.4
		c-0.8-0.2-1.6-0.3-2.4-0.3c-5.6,0-10.2,4.5-10.3,10.1c-0.6-0.2-1.2-0.3-1.8-0.3c-3.3,0-6,2.7-6,6c0,3,2.2,5.4,5,5.9v0.1h88.4v0
		C379.9,166.5,382.4,163.9,382.4,160.7z"/>
</g>
<g>
	<path fill="#E6E7E8" stroke="#E6E7E8" stroke-miterlimit="10" d="M456.4,90.1c0-3.3-2.7-6-6-6c-0.5,0-0.9,0.1-1.3,0.1
		c-0.2-5.5-4.7-10-10.3-10c-5.7,0-10.3,4.6-10.3,10.3c0,0.1,0,0.3,0,0.4c-0.9-0.6-2-0.9-3.1-0.9c-1.1,0-2.1,0.3-3,0.8
		c0-0.1,0-0.2,0-0.3c0-5.7-4.6-10.3-10.3-10.3c-0.9,0-1.7,0.1-2.6,0.3c-1.8-7.2-8.2-12.5-15.9-12.5c-7.7,0-14.1,5.3-15.9,12.4
		c-0.8-0.2-1.6-0.3-2.4-0.3c-5.6,0-10.2,4.5-10.3,10.1c-0.6-0.2-1.2-0.3-1.8-0.3c-3.3,0-6,2.7-6,6c0,3,2.2,5.4,5,5.9V96h88.4v0
		C453.9,95.9,456.4,93.3,456.4,90.1z"/>
</g>
<g>
	<path fill="#E6E7E8" stroke="#E6E7E8" stroke-miterlimit="10" d="M309,242.5c0-3.3-2.7-6-6-6c-0.5,0-0.9,0.1-1.3,0.1
		c-0.2-5.5-4.7-10-10.3-10c-5.7,0-10.3,4.6-10.3,10.3c0,0.1,0,0.3,0,0.4c-0.9-0.6-2-0.9-3.1-0.9c-1.1,0-2.1,0.3-3,0.8
		c0-0.1,0-0.2,0-0.3c0-5.7-4.6-10.3-10.3-10.3c-0.9,0-1.7,0.1-2.6,0.3c-1.8-7.2-8.2-12.5-15.9-12.5c-7.7,0-14.1,5.3-15.9,12.4
		c-0.8-0.2-1.6-0.3-2.4-0.3c-5.6,0-10.2,4.5-10.3,10.1c-0.6-0.2-1.2-0.3-1.8-0.3c-3.3,0-6,2.7-6,6c0,3,2.2,5.4,5,5.9v0.1h88.4v0
		C306.5,248.3,309,245.7,309,242.5z"/>
</g>
<g>
	<path fill="#E6E7E8" stroke="#E6E7E8" stroke-miterlimit="10" d="M469.8,216.3c0-3.3-2.7-6-6-6c-0.5,0-0.9,0.1-1.3,0.1
		c-0.2-5.5-4.7-10-10.3-10c-5.7,0-10.3,4.6-10.3,10.3c0,0.1,0,0.3,0,0.4c-0.9-0.6-2-0.9-3.1-0.9c-1.1,0-2.1,0.3-3,0.8
		c0-0.1,0-0.2,0-0.3c0-5.7-4.6-10.3-10.3-10.3c-0.9,0-1.7,0.1-2.6,0.3c-1.8-7.2-8.2-12.5-15.9-12.5c-7.7,0-14.1,5.3-15.9,12.4
		c-0.8-0.2-1.6-0.3-2.4-0.3c-5.6,0-10.2,4.5-10.3,10.1c-0.6-0.2-1.2-0.3-1.8-0.3c-3.3,0-6,2.7-6,6c0,3,2.2,5.4,5,5.9v0.1h88.4v0
		C467.3,222.1,469.8,219.5,469.8,216.3z"/>
</g>
<g>
	<path fill="#E6E7E8" stroke="#E6E7E8" stroke-miterlimit="10" d="M390.6,320.4c0-3.3-2.7-6-6-6c-0.5,0-0.9,0.1-1.3,0.1
		c-0.2-5.5-4.7-10-10.3-10c-5.7,0-10.3,4.6-10.3,10.3c0,0.1,0,0.3,0,0.4c-0.9-0.6-2-0.9-3.1-0.9c-1.1,0-2.1,0.3-3,0.8
		c0-0.1,0-0.2,0-0.3c0-5.7-4.6-10.3-10.3-10.3c-0.9,0-1.7,0.1-2.6,0.3c-1.8-7.2-8.2-12.5-15.9-12.5c-7.7,0-14.1,5.3-15.9,12.4
		c-0.8-0.2-1.6-0.3-2.4-0.3c-5.6,0-10.2,4.5-10.3,10.1c-0.6-0.2-1.2-0.3-1.8-0.3c-3.3,0-6,2.7-6,6c0,3,2.2,5.4,5,5.9v0.1h88.4v0
		C388.1,326.2,390.6,323.6,390.6,320.4z"/>
</g>
<g>
	<path fill="#E6E7E8" stroke="#E6E7E8" stroke-miterlimit="10" d="M316.4,419.2c0-3.3-2.7-6-6-6c-0.5,0-0.9,0.1-1.3,0.1
		c-0.2-5.5-4.7-10-10.3-10c-5.7,0-10.3,4.6-10.3,10.3c0,0.1,0,0.3,0,0.4c-0.9-0.6-2-0.9-3.1-0.9c-1.1,0-2.1,0.3-3,0.8
		c0-0.1,0-0.2,0-0.3c0-5.7-4.6-10.3-10.3-10.3c-0.9,0-1.7,0.1-2.6,0.3c-1.8-7.2-8.2-12.5-15.9-12.5c-7.7,0-14.1,5.3-15.9,12.4
		c-0.8-0.2-1.6-0.3-2.4-0.3c-5.6,0-10.2,4.5-10.3,10.1c-0.6-0.2-1.2-0.3-1.8-0.3c-3.3,0-6,2.7-6,6c0,3,2.2,5.4,5,5.9v0.1h88.4v0
		C313.9,425,316.4,422.4,316.4,419.2z"/>
</g>
<g>
	<path fill="#E6E7E8" stroke="#E6E7E8" stroke-miterlimit="10" d="M477.3,392.9c0-3.3-2.7-6-6-6c-0.5,0-0.9,0.1-1.3,0.1
		c-0.2-5.5-4.7-10-10.3-10c-5.7,0-10.3,4.6-10.3,10.3c0,0.1,0,0.3,0,0.4c-0.9-0.6-2-0.9-3.1-0.9c-1.1,0-2.1,0.3-3,0.8
		c0-0.1,0-0.2,0-0.3c0-5.7-4.6-10.3-10.3-10.3c-0.9,0-1.7,0.1-2.6,0.3c-1.8-7.2-8.2-12.5-15.9-12.5c-7.7,0-14.1,5.3-15.9,12.4
		c-0.8-0.2-1.6-0.3-2.4-0.3c-5.6,0-10.2,4.5-10.3,10.1c-0.6-0.2-1.2-0.3-1.8-0.3c-3.3,0-6,2.7-6,6c0,3,2.2,5.4,5,5.9v0.1h88.4v0
		C474.7,398.7,477.3,396.1,477.3,392.9z"/>
</g>
<g>
	<path fill="#E6E7E8" stroke="#E6E7E8" stroke-miterlimit="10" d="M407,480.8c0-3.3-2.7-6-6-6c-0.5,0-0.9,0.1-1.3,0.1
		c-0.2-5.5-4.7-10-10.3-10c-5.7,0-10.3,4.6-10.3,10.3c0,0.1,0,0.3,0,0.4c-0.9-0.6-2-0.9-3.1-0.9c-1.1,0-2.1,0.3-3,0.8
		c0-0.1,0-0.2,0-0.3c0-5.7-4.6-10.3-10.3-10.3c-0.9,0-1.7,0.1-2.6,0.3c-1.8-7.2-8.2-12.5-15.9-12.5c-7.7,0-14.1,5.3-15.9,12.4
		c-0.8-0.2-1.6-0.3-2.4-0.3c-5.6,0-10.2,4.5-10.3,10.1c-0.6-0.2-1.2-0.3-1.8-0.3c-3.3,0-6,2.7-6,6c0,3,2.2,5.4,5,5.9v0.1h88.4v0
		C404.5,486.6,407,484,407,480.8z"/>
</g>
<g>
	<path fill="#E6E7E8" stroke="#E6E7E8" stroke-miterlimit="10" d="M309,547c0-3.3-2.7-6-6-6c-0.5,0-0.9,0.1-1.3,0.1
		c-0.2-5.5-4.7-10-10.3-10c-5.7,0-10.3,4.6-10.3,10.3c0,0.1,0,0.3,0,0.4c-0.9-0.6-2-0.9-3.1-0.9c-1.1,0-2.1,0.3-3,0.8
		c0-0.1,0-0.2,0-0.3c0-5.7-4.6-10.3-10.3-10.3c-0.9,0-1.7,0.1-2.6,0.3c-1.8-7.2-8.2-12.5-15.9-12.5c-7.7,0-14.1,5.3-15.9,12.4
		c-0.8-0.2-1.6-0.3-2.4-0.3c-5.6,0-10.2,4.5-10.3,10.1c-0.6-0.2-1.2-0.3-1.8-0.3c-3.3,0-6,2.7-6,6c0,3,2.2,5.4,5,5.9v0.1h88.4v0
		C306.5,552.9,309,550.2,309,547z"/>
</g>
<g>
	<path fill="#E6E7E8" stroke="#E6E7E8" stroke-miterlimit="10" d="M407.2,607.9c0-3.3-2.7-6-6-6c-0.5,0-0.9,0.1-1.3,0.1
		c-0.2-5.5-4.7-10-10.3-10c-5.7,0-10.3,4.6-10.3,10.3c0,0.1,0,0.3,0,0.4c-0.9-0.6-2-0.9-3.1-0.9c-1.1,0-2.1,0.3-3,0.8
		c0-0.1,0-0.2,0-0.3c0-5.7-4.6-10.3-10.3-10.3c-0.9,0-1.7,0.1-2.6,0.3c-1.8-7.2-8.2-12.5-15.9-12.5c-7.7,0-14.1,5.3-15.9,12.4
		c-0.8-0.2-1.6-0.3-2.4-0.3c-5.6,0-10.2,4.5-10.3,10.1c-0.6-0.2-1.2-0.3-1.8-0.3c-3.3,0-6,2.7-6,6c0,3,2.2,5.4,5,5.9v0.1h88.4v0
		C404.7,613.7,407.2,611.1,407.2,607.9z"/>
</g>
<g>
	<path fill="#E6E7E8" stroke="#E6E7E8" stroke-miterlimit="10" d="M493.7,553.3c0-3.3-2.7-6-6-6c-0.5,0-0.9,0.1-1.3,0.1
		c-0.2-5.5-4.7-10-10.3-10c-5.7,0-10.3,4.6-10.3,10.3c0,0.1,0,0.3,0,0.4c-0.9-0.6-2-0.9-3.1-0.9c-1.1,0-2.1,0.3-3,0.8
		c0-0.1,0-0.2,0-0.3c0-5.7-4.6-10.3-10.3-10.3c-0.9,0-1.7,0.1-2.6,0.3c-1.8-7.2-8.2-12.5-15.9-12.5c-7.7,0-14.1,5.3-15.9,12.4
		c-0.8-0.2-1.6-0.3-2.4-0.3c-5.6,0-10.2,4.5-10.3,10.1c-0.6-0.2-1.2-0.3-1.8-0.3c-3.3,0-6,2.7-6,6c0,3,2.2,5.4,5,5.9v0.1H488v0
		C491.1,559.1,493.7,556.5,493.7,553.3z"/>
</g>
<g>
	<path fill="#E6E7E8" stroke="#E6E7E8" stroke-miterlimit="10" d="M220.8,143.7c0-3.3-2.7-6-6-6c-0.5,0-0.9,0.1-1.3,0.1
		c-0.2-5.5-4.7-10-10.3-10c-5.7,0-10.3,4.6-10.3,10.3c0,0.1,0,0.3,0,0.4c-0.9-0.6-2-0.9-3.1-0.9c-1.1,0-2.1,0.3-3,0.8
		c0-0.1,0-0.2,0-0.3c0-5.7-4.6-10.3-10.3-10.3c-0.9,0-1.7,0.1-2.6,0.3c-1.8-7.2-8.2-12.5-15.9-12.5c-7.7,0-14.1,5.3-15.9,12.4
		c-0.8-0.2-1.6-0.3-2.4-0.3c-5.6,0-10.2,4.5-10.3,10.1c-0.6-0.2-1.2-0.3-1.8-0.3c-3.3,0-6,2.7-6,6c0,3,2.2,5.4,5,5.9v0.1h88.4v0
		C218.3,149.6,220.8,146.9,220.8,143.7z"/>
</g>
<g>
	<path fill="#E6E7E8" stroke="#E6E7E8" stroke-miterlimit="10" d="M146.6,242.5c0-3.3-2.7-6-6-6c-0.5,0-0.9,0.1-1.3,0.1
		c-0.2-5.5-4.7-10-10.3-10c-5.7,0-10.3,4.6-10.3,10.3c0,0.1,0,0.3,0,0.4c-0.9-0.6-2-0.9-3.1-0.9c-1.1,0-2.1,0.3-3,0.8
		c0-0.1,0-0.2,0-0.3c0-5.7-4.6-10.3-10.3-10.3c-0.9,0-1.7,0.1-2.6,0.3c-1.8-7.2-8.2-12.5-15.9-12.5c-7.7,0-14.1,5.3-15.9,12.4
		c-0.8-0.2-1.6-0.3-2.4-0.3c-5.6,0-10.2,4.5-10.3,10.1c-0.6-0.2-1.2-0.3-1.8-0.3c-3.3,0-6,2.7-6,6c0,3,2.2,5.4,5,5.9v0.1h88.4v0
		C144.1,248.3,146.6,245.7,146.6,242.5z"/>
</g>
<g>
	<path fill="#E6E7E8" stroke="#E6E7E8" stroke-miterlimit="10" d="M228.2,320.4c0-3.3-2.7-6-6-6c-0.5,0-0.9,0.1-1.3,0.1
		c-0.2-5.5-4.7-10-10.3-10c-5.7,0-10.3,4.6-10.3,10.3c0,0.1,0,0.3,0,0.4c-0.9-0.6-2-0.9-3.1-0.9c-1.1,0-2.1,0.3-3,0.8
		c0-0.1,0-0.2,0-0.3c0-5.7-4.6-10.3-10.3-10.3c-0.9,0-1.7,0.1-2.6,0.3c-1.8-7.2-8.2-12.5-15.9-12.5c-7.7,0-14.1,5.3-15.9,12.4
		c-0.8-0.2-1.6-0.3-2.4-0.3c-5.6,0-10.2,4.5-10.3,10.1c-0.6-0.2-1.2-0.3-1.8-0.3c-3.3,0-6,2.7-6,6c0,3,2.2,5.4,5,5.9v0.1h88.4v0
		C225.7,326.2,228.2,323.6,228.2,320.4z"/>
</g>
<g>
	<path fill="#E6E7E8" stroke="#E6E7E8" stroke-miterlimit="10" d="M154,419.2c0-3.3-2.7-6-6-6c-0.5,0-0.9,0.1-1.3,0.1
		c-0.2-5.5-4.7-10-10.3-10c-5.7,0-10.3,4.6-10.3,10.3c0,0.1,0,0.3,0,0.4c-0.9-0.6-2-0.9-3.1-0.9c-1.1,0-2.1,0.3-3,0.8
		c0-0.1,0-0.2,0-0.3c0-5.7-4.6-10.3-10.3-10.3c-0.9,0-1.7,0.1-2.6,0.3c-1.8-7.2-8.2-12.5-15.9-12.5c-7.7,0-14.1,5.3-15.9,12.4
		c-0.8-0.2-1.6-0.3-2.4-0.3c-5.6,0-10.2,4.5-10.3,10.1c-0.6-0.2-1.2-0.3-1.8-0.3c-3.3,0-6,2.7-6,6c0,3,2.2,5.4,5,5.9v0.1h88.4v0
		C151.5,425,154,422.4,154,419.2z"/>
</g>
<g>
	<path fill="#E6E7E8" stroke="#E6E7E8" stroke-miterlimit="10" d="M244.6,480.8c0-3.3-2.7-6-6-6c-0.5,0-0.9,0.1-1.3,0.1
		c-0.2-5.5-4.7-10-10.3-10c-5.7,0-10.3,4.6-10.3,10.3c0,0.1,0,0.3,0,0.4c-0.9-0.6-2-0.9-3.1-0.9c-1.1,0-2.1,0.3-3,0.8
		c0-0.1,0-0.2,0-0.3c0-5.7-4.6-10.3-10.3-10.3c-0.9,0-1.7,0.1-2.6,0.3c-1.8-7.2-8.2-12.5-15.9-12.5c-7.7,0-14.1,5.3-15.9,12.4
		c-0.8-0.2-1.6-0.3-2.4-0.3c-5.6,0-10.2,4.5-10.3,10.1c-0.6-0.2-1.2-0.3-1.8-0.3c-3.3,0-6,2.7-6,6c0,3,2.2,5.4,5,5.9v0.1h88.4v0
		C242.1,486.6,244.6,484,244.6,480.8z"/>
</g>
<g>
	<path fill="#E6E7E8" stroke="#E6E7E8" stroke-miterlimit="10" d="M196.2,591c0-3.3-2.7-6-6-6c-0.5,0-0.9,0.1-1.3,0.1
		c-0.2-5.5-4.7-10-10.3-10c-5.7,0-10.3,4.6-10.3,10.3c0,0.1,0,0.3,0,0.4c-0.9-0.6-2-0.9-3.1-0.9c-1.1,0-2.1,0.3-3,0.8
		c0-0.1,0-0.2,0-0.3c0-5.7-4.6-10.3-10.3-10.3c-0.9,0-1.7,0.1-2.6,0.3c-1.8-7.2-8.2-12.5-15.9-12.5c-7.7,0-14.1,5.3-15.9,12.4
		c-0.8-0.2-1.6-0.3-2.4-0.3c-5.6,0-10.2,4.5-10.3,10.1c-0.6-0.2-1.2-0.3-1.8-0.3c-3.3,0-6,2.7-6,6c0,3,2.2,5.4,5,5.9v0.1h88.4v0
		C193.6,596.8,196.2,594.2,196.2,591z"/>
</g>
<g>
	<path fill="#E6E7E8" stroke="#E6E7E8" stroke-miterlimit="10" d="M126.3,524.7c0-3.3-2.7-6-6-6c-0.5,0-0.9,0.1-1.3,0.1
		c-0.2-5.5-4.7-10-10.3-10c-5.7,0-10.3,4.6-10.3,10.3c0,0.1,0,0.3,0,0.4c-0.9-0.6-2-0.9-3.1-0.9c-1.1,0-2.1,0.3-3,0.8
		c0-0.1,0-0.2,0-0.3c0-5.7-4.6-10.3-10.3-10.3c-0.9,0-1.7,0.1-2.6,0.3c-1.8-7.2-8.2-12.5-15.9-12.5c-7.7,0-14.1,5.3-15.9,12.4
		c-0.8-0.2-1.6-0.3-2.4-0.3c-5.6,0-10.2,4.5-10.3,10.1c-0.6-0.2-1.2-0.3-1.8-0.3c-3.3,0-6,2.7-6,6c0,3,2.2,5.4,5,5.9v0.1h88.4v0
		C123.7,530.5,126.3,527.9,126.3,524.7z"/>
</g>
<g>
	<path fill="#E6E7E8" stroke="#E6E7E8" stroke-miterlimit="10" d="M699.8,143.7c0-3.3-2.7-6-6-6c-0.5,0-0.9,0.1-1.3,0.1
		c-0.2-5.5-4.7-10-10.3-10c-5.7,0-10.3,4.6-10.3,10.3c0,0.1,0,0.3,0,0.4c-0.9-0.6-2-0.9-3.1-0.9c-1.1,0-2.1,0.3-3,0.8
		c0-0.1,0-0.2,0-0.3c0-5.7-4.6-10.3-10.3-10.3c-0.9,0-1.7,0.1-2.6,0.3c-1.8-7.2-8.2-12.5-15.9-12.5c-7.7,0-14.1,5.3-15.9,12.4
		c-0.8-0.2-1.6-0.3-2.4-0.3c-5.6,0-10.2,4.5-10.3,10.1c-0.6-0.2-1.2-0.3-1.8-0.3c-3.3,0-6,2.7-6,6c0,3,2.2,5.4,5,5.9v0.1h88.4v0
		C697.3,149.6,699.8,146.9,699.8,143.7z"/>
</g>
<g>
	<path fill="#E6E7E8" stroke="#E6E7E8" stroke-miterlimit="10" d="M598.2,51.1c0-3.3-2.7-6-6-6c-0.5,0-0.9,0.1-1.3,0.1
		c-0.2-5.5-4.7-10-10.3-10c-5.7,0-10.3,4.6-10.3,10.3c0,0.1,0,0.3,0,0.4c-0.9-0.6-2-0.9-3.1-0.9c-1.1,0-2.1,0.3-3,0.8
		c0-0.1,0-0.2,0-0.3c0-5.7-4.6-10.3-10.3-10.3c-0.9,0-1.7,0.1-2.6,0.3c-1.8-7.2-8.2-12.5-15.9-12.5c-7.7,0-14.1,5.3-15.9,12.4
		c-0.8-0.2-1.6-0.3-2.4-0.3c-5.6,0-10.2,4.5-10.3,10.1c-0.6-0.2-1.2-0.3-1.8-0.3c-3.3,0-6,2.7-6,6c0,3,2.2,5.4,5,5.9V57h88.4v0
		C595.6,56.9,598.2,54.3,598.2,51.1z"/>
</g>
<g>
	<path fill="#E6E7E8" stroke="#E6E7E8" stroke-miterlimit="10" d="M765.8,61c0-3.3-2.7-6-6-6c-0.5,0-0.9,0.1-1.3,0.1
		c-0.2-5.5-4.7-10-10.3-10c-5.7,0-10.3,4.6-10.3,10.3c0,0.1,0,0.3,0,0.4c-0.9-0.6-2-0.9-3.1-0.9c-1.1,0-2.1,0.3-3,0.8
		c0-0.1,0-0.2,0-0.3c0-5.7-4.6-10.3-10.3-10.3c-0.9,0-1.7,0.1-2.6,0.3c-1.8-7.2-8.2-12.5-15.9-12.5c-7.7,0-14.1,5.3-15.9,12.4
		c-0.8-0.2-1.6-0.3-2.4-0.3c-5.6,0-10.2,4.5-10.3,10.1c-0.6-0.2-1.2-0.3-1.8-0.3c-3.3,0-6,2.7-6,6c0,3,2.2,5.4,5,5.9V67h88.4v0
		C763.2,66.8,765.8,64.2,765.8,61z"/>
</g>
<g>
	<path fill="#E6E7E8" stroke="#E6E7E8" stroke-miterlimit="10" d="M625.6,242.5c0-3.3-2.7-6-6-6c-0.5,0-0.9,0.1-1.3,0.1
		c-0.2-5.5-4.7-10-10.3-10c-5.7,0-10.3,4.6-10.3,10.3c0,0.1,0,0.3,0,0.4c-0.9-0.6-2-0.9-3.1-0.9c-1.1,0-2.1,0.3-3,0.8
		c0-0.1,0-0.2,0-0.3c0-5.7-4.6-10.3-10.3-10.3c-0.9,0-1.7,0.1-2.6,0.3c-1.8-7.2-8.2-12.5-15.9-12.5c-7.7,0-14.1,5.3-15.9,12.4
		c-0.8-0.2-1.6-0.3-2.4-0.3c-5.6,0-10.2,4.5-10.3,10.1c-0.6-0.2-1.2-0.3-1.8-0.3c-3.3,0-6,2.7-6,6c0,3,2.2,5.4,5,5.9v0.1h88.4v0
		C623.1,248.3,625.6,245.7,625.6,242.5z"/>
</g>
<g>
	<path fill="#E6E7E8" stroke="#E6E7E8" stroke-miterlimit="10" d="M786.4,216.3c0-3.3-2.7-6-6-6c-0.5,0-0.9,0.1-1.3,0.1
		c-0.2-5.5-4.7-10-10.3-10c-5.7,0-10.3,4.6-10.3,10.3c0,0.1,0,0.3,0,0.4c-0.9-0.6-2-0.9-3.1-0.9c-1.1,0-2.1,0.3-3,0.8
		c0-0.1,0-0.2,0-0.3c0-5.7-4.6-10.3-10.3-10.3c-0.9,0-1.7,0.1-2.6,0.3c-1.8-7.2-8.2-12.5-15.9-12.5c-7.7,0-14.1,5.3-15.9,12.4
		c-0.8-0.2-1.6-0.3-2.4-0.3c-5.6,0-10.2,4.5-10.3,10.1c-0.6-0.2-1.2-0.3-1.8-0.3c-3.3,0-6,2.7-6,6c0,3,2.2,5.4,5,5.9v0.1h88.4v0
		C783.9,222.1,786.4,219.5,786.4,216.3z"/>
</g>
<g>
	<path fill="#E6E7E8" stroke="#E6E7E8" stroke-miterlimit="10" d="M707.2,320.4c0-3.3-2.7-6-6-6c-0.5,0-0.9,0.1-1.3,0.1
		c-0.2-5.5-4.7-10-10.3-10c-5.7,0-10.3,4.6-10.3,10.3c0,0.1,0,0.3,0,0.4c-0.9-0.6-2-0.9-3.1-0.9c-1.1,0-2.1,0.3-3,0.8
		c0-0.1,0-0.2,0-0.3c0-5.7-4.6-10.3-10.3-10.3c-0.9,0-1.7,0.1-2.6,0.3c-1.8-7.2-8.2-12.5-15.9-12.5c-7.7,0-14.1,5.3-15.9,12.4
		c-0.8-0.2-1.6-0.3-2.4-0.3c-5.6,0-10.2,4.5-10.3,10.1c-0.6-0.2-1.2-0.3-1.8-0.3c-3.3,0-6,2.7-6,6c0,3,2.2,5.4,5,5.9v0.1h88.4v0
		C704.7,326.2,707.2,323.6,707.2,320.4z"/>
</g>
<g>
	<path fill="#E6E7E8" stroke="#E6E7E8" stroke-miterlimit="10" d="M633,419.2c0-3.3-2.7-6-6-6c-0.5,0-0.9,0.1-1.3,0.1
		c-0.2-5.5-4.7-10-10.3-10c-5.7,0-10.3,4.6-10.3,10.3c0,0.1,0,0.3,0,0.4c-0.9-0.6-2-0.9-3.1-0.9c-1.1,0-2.1,0.3-3,0.8
		c0-0.1,0-0.2,0-0.3c0-5.7-4.6-10.3-10.3-10.3c-0.9,0-1.7,0.1-2.6,0.3c-1.8-7.2-8.2-12.5-15.9-12.5c-7.7,0-14.1,5.3-15.9,12.4
		c-0.8-0.2-1.6-0.3-2.4-0.3c-5.6,0-10.2,4.5-10.3,10.1c-0.6-0.2-1.2-0.3-1.8-0.3c-3.3,0-6,2.7-6,6c0,3,2.2,5.4,5,5.9v0.1h88.4v0
		C630.5,425,633,422.4,633,419.2z"/>
</g>
<g>
	<path fill="#E6E7E8" stroke="#E6E7E8" stroke-miterlimit="10" d="M793.8,392.9c0-3.3-2.7-6-6-6c-0.5,0-0.9,0.1-1.3,0.1
		c-0.2-5.5-4.7-10-10.3-10c-5.7,0-10.3,4.6-10.3,10.3c0,0.1,0,0.3,0,0.4c-0.9-0.6-2-0.9-3.1-0.9c-1.1,0-2.1,0.3-3,0.8
		c0-0.1,0-0.2,0-0.3c0-5.7-4.6-10.3-10.3-10.3c-0.9,0-1.7,0.1-2.6,0.3c-1.8-7.2-8.2-12.5-15.9-12.5c-7.7,0-14.1,5.3-15.9,12.4
		c-0.8-0.2-1.6-0.3-2.4-0.3c-5.6,0-10.2,4.5-10.3,10.1c-0.6-0.2-1.2-0.3-1.8-0.3c-3.3,0-6,2.7-6,6c0,3,2.2,5.4,5,5.9v0.1h88.4v0
		C791.3,398.7,793.8,396.1,793.8,392.9z"/>
</g>
<g>
	<path fill="#E6E7E8" stroke="#E6E7E8" stroke-miterlimit="10" d="M723.6,480.8c0-3.3-2.7-6-6-6c-0.5,0-0.9,0.1-1.3,0.1
		c-0.2-5.5-4.7-10-10.3-10c-5.7,0-10.3,4.6-10.3,10.3c0,0.1,0,0.3,0,0.4c-0.9-0.6-2-0.9-3.1-0.9c-1.1,0-2.1,0.3-3,0.8
		c0-0.1,0-0.2,0-0.3c0-5.7-4.6-10.3-10.3-10.3c-0.9,0-1.7,0.1-2.6,0.3c-1.8-7.2-8.2-12.5-15.9-12.5c-7.7,0-14.1,5.3-15.9,12.4
		c-0.8-0.2-1.6-0.3-2.4-0.3c-5.6,0-10.2,4.5-10.3,10.1c-0.6-0.2-1.2-0.3-1.8-0.3c-3.3,0-6,2.7-6,6c0,3,2.2,5.4,5,5.9v0.1h88.4v0
		C721.1,486.6,723.6,484,723.6,480.8z"/>
</g>
<g>
	<path fill="#E6E7E8" stroke="#E6E7E8" stroke-miterlimit="10" d="M649.4,579.6c0-3.3-2.7-6-6-6c-0.5,0-0.9,0.1-1.3,0.1
		c-0.2-5.5-4.7-10-10.3-10c-5.7,0-10.3,4.6-10.3,10.3c0,0.1,0,0.3,0,0.4c-0.9-0.6-2-0.9-3.1-0.9c-1.1,0-2.1,0.3-3,0.8
		c0-0.1,0-0.2,0-0.3c0-5.7-4.6-10.3-10.3-10.3c-0.9,0-1.7,0.1-2.6,0.3c-1.8-7.2-8.2-12.5-15.9-12.5c-7.7,0-14.1,5.3-15.9,12.4
		c-0.8-0.2-1.6-0.3-2.4-0.3c-5.6,0-10.2,4.5-10.3,10.1c-0.6-0.2-1.2-0.3-1.8-0.3c-3.3,0-6,2.7-6,6c0,3,2.2,5.4,5,5.9v0.1h88.4v0
		C646.9,585.4,649.4,582.8,649.4,579.6z"/>
</g>
<g>
	<path fill="#E6E7E8" stroke="#E6E7E8" stroke-miterlimit="10" d="M810.3,553.3c0-3.3-2.7-6-6-6c-0.5,0-0.9,0.1-1.3,0.1
		c-0.2-5.5-4.7-10-10.3-10c-5.7,0-10.3,4.6-10.3,10.3c0,0.1,0,0.3,0,0.4c-0.9-0.6-2-0.9-3.1-0.9c-1.1,0-2.1,0.3-3,0.8
		c0-0.1,0-0.2,0-0.3c0-5.7-4.6-10.3-10.3-10.3c-0.9,0-1.7,0.1-2.6,0.3c-1.8-7.2-8.2-12.5-15.9-12.5c-7.7,0-14.1,5.3-15.9,12.4
		c-0.8-0.2-1.6-0.3-2.4-0.3c-5.6,0-10.2,4.5-10.3,10.1c-0.6-0.2-1.2-0.3-1.8-0.3c-3.3,0-6,2.7-6,6c0,3,2.2,5.4,5,5.9v0.1h88.4v0
		C807.7,559.1,810.3,556.5,810.3,553.3z"/>
</g>
<g>
	<path fill="#E6E7E8" stroke="#E6E7E8" stroke-miterlimit="10" d="M985.5,143.7c0-3.3-2.7-6-6-6c-0.5,0-0.9,0.1-1.3,0.1
		c-0.2-5.5-4.7-10-10.3-10c-5.7,0-10.3,4.6-10.3,10.3c0,0.1,0,0.3,0,0.4c-0.9-0.6-2-0.9-3.1-0.9c-1.1,0-2.1,0.3-3,0.8
		c0-0.1,0-0.2,0-0.3c0-5.7-4.6-10.3-10.3-10.3c-0.9,0-1.7,0.1-2.6,0.3c-1.8-7.2-8.2-12.5-15.9-12.5c-7.7,0-14.1,5.3-15.9,12.4
		c-0.8-0.2-1.6-0.3-2.4-0.3c-5.6,0-10.2,4.5-10.3,10.1c-0.6-0.2-1.2-0.3-1.8-0.3c-3.3,0-6,2.7-6,6c0,3,2.2,5.4,5,5.9v0.1h88.4v0
		C983,149.6,985.5,146.9,985.5,143.7z"/>
</g>
<g>
	<path fill="#E6E7E8" stroke="#E6E7E8" stroke-miterlimit="10" d="M893,51.1c0-3.3-2.7-6-6-6c-0.5,0-0.9,0.1-1.3,0.1
		c-0.2-5.5-4.7-10-10.3-10c-5.7,0-10.3,4.6-10.3,10.3c0,0.1,0,0.3,0,0.4c-0.9-0.6-2-0.9-3.1-0.9c-1.1,0-2.1,0.3-3,0.8
		c0-0.1,0-0.2,0-0.3c0-5.7-4.6-10.3-10.3-10.3c-0.9,0-1.7,0.1-2.6,0.3c-1.8-7.2-8.2-12.5-15.9-12.5c-7.7,0-14.1,5.3-15.9,12.4
		c-0.8-0.2-1.6-0.3-2.4-0.3c-5.6,0-10.2,4.5-10.3,10.1c-0.6-0.2-1.2-0.3-1.8-0.3c-3.3,0-6,2.7-6,6c0,3,2.2,5.4,5,5.9V57h88.4v0
		C890.5,56.9,893,54.3,893,51.1z"/>
</g>
<g>
	<path fill="#E6E7E8" stroke="#E6E7E8" stroke-miterlimit="10" d="M413.2,44.3c0-3.3-2.7-6-6-6c-0.5,0-0.9,0.1-1.3,0.1
		c-0.2-5.5-4.7-10-10.3-10c-5.7,0-10.3,4.6-10.3,10.3c0,0.1,0,0.3,0,0.4c-0.9-0.6-2-0.9-3.1-0.9c-1.1,0-2.1,0.3-3,0.8
		c0-0.1,0-0.2,0-0.3c0-5.7-4.6-10.3-10.3-10.3c-0.9,0-1.7,0.1-2.6,0.3c-1.8-7.2-8.2-12.5-15.9-12.5c-7.7,0-14.1,5.3-15.9,12.4
		c-0.8-0.2-1.6-0.3-2.4-0.3c-5.6,0-10.2,4.5-10.3,10.1c-0.6-0.2-1.2-0.3-1.8-0.3c-3.3,0-6,2.7-6,6c0,3,2.2,5.4,5,5.9v0.1h88.4v0
		C410.7,50.1,413.2,47.5,413.2,44.3z"/>
</g>
<g>
	<path fill="#E6E7E8" stroke="#E6E7E8" stroke-miterlimit="10" d="M1058.8,90.1c0-3.3-2.7-6-6-6c-0.5,0-0.9,0.1-1.3,0.1
		c-0.2-5.5-4.7-10-10.3-10c-5.7,0-10.3,4.6-10.3,10.3c0,0.1,0,0.3,0,0.4c-0.9-0.6-2-0.9-3.1-0.9c-1.1,0-2.1,0.3-3,0.8
		c0-0.1,0-0.2,0-0.3c0-5.7-4.6-10.3-10.3-10.3c-0.9,0-1.7,0.1-2.6,0.3c-1.8-7.2-8.2-12.5-15.9-12.5c-7.7,0-14.1,5.3-15.9,12.4
		c-0.8-0.2-1.6-0.3-2.4-0.3c-5.6,0-10.2,4.5-10.3,10.1c-0.6-0.2-1.2-0.3-1.8-0.3c-3.3,0-6,2.7-6,6c0,3,2.2,5.4,5,5.9V96h88.4v0
		C1056.2,95.9,1058.8,93.3,1058.8,90.1z"/>
</g>
<g>
	<path fill="#E6E7E8" stroke="#E6E7E8" stroke-miterlimit="10" d="M911.3,242.5c0-3.3-2.7-6-6-6c-0.5,0-0.9,0.1-1.3,0.1
		c-0.2-5.5-4.7-10-10.3-10c-5.7,0-10.3,4.6-10.3,10.3c0,0.1,0,0.3,0,0.4c-0.9-0.6-2-0.9-3.1-0.9c-1.1,0-2.1,0.3-3,0.8
		c0-0.1,0-0.2,0-0.3c0-5.7-4.6-10.3-10.3-10.3c-0.9,0-1.7,0.1-2.6,0.3c-1.8-7.2-8.2-12.5-15.9-12.5c-7.7,0-14.1,5.3-15.9,12.4
		c-0.8-0.2-1.6-0.3-2.4-0.3c-5.6,0-10.2,4.5-10.3,10.1c-0.6-0.2-1.2-0.3-1.8-0.3c-3.3,0-6,2.7-6,6c0,3,2.2,5.4,5,5.9v0.1h88.4v0
		C908.8,248.3,911.3,245.7,911.3,242.5z"/>
</g>
<g>
	<path fill="#E6E7E8" stroke="#E6E7E8" stroke-miterlimit="10" d="M1072.2,216.3c0-3.3-2.7-6-6-6c-0.5,0-0.9,0.1-1.3,0.1
		c-0.2-5.5-4.7-10-10.3-10c-5.7,0-10.3,4.6-10.3,10.3c0,0.1,0,0.3,0,0.4c-0.9-0.6-2-0.9-3.1-0.9c-1.1,0-2.1,0.3-3,0.8
		c0-0.1,0-0.2,0-0.3c0-5.7-4.6-10.3-10.3-10.3c-0.9,0-1.7,0.1-2.6,0.3c-1.8-7.2-8.2-12.5-15.9-12.5c-7.7,0-14.1,5.3-15.9,12.4
		c-0.8-0.2-1.6-0.3-2.4-0.3c-5.6,0-10.2,4.5-10.3,10.1c-0.6-0.2-1.2-0.3-1.8-0.3c-3.3,0-6,2.7-6,6c0,3,2.2,5.4,5,5.9v0.1h88.4v0
		C1069.6,222.1,1072.2,219.5,1072.2,216.3z"/>
</g>
<g>
	<path fill="#E6E7E8" stroke="#E6E7E8" stroke-miterlimit="10" d="M992.9,320.4c0-3.3-2.7-6-6-6c-0.5,0-0.9,0.1-1.3,0.1
		c-0.2-5.5-4.7-10-10.3-10c-5.7,0-10.3,4.6-10.3,10.3c0,0.1,0,0.3,0,0.4c-0.9-0.6-2-0.9-3.1-0.9c-1.1,0-2.1,0.3-3,0.8
		c0-0.1,0-0.2,0-0.3c0-5.7-4.6-10.3-10.3-10.3c-0.9,0-1.7,0.1-2.6,0.3c-1.8-7.2-8.2-12.5-15.9-12.5c-7.7,0-14.1,5.3-15.9,12.4
		c-0.8-0.2-1.6-0.3-2.4-0.3c-5.6,0-10.2,4.5-10.3,10.1c-0.6-0.2-1.2-0.3-1.8-0.3c-3.3,0-6,2.7-6,6c0,3,2.2,5.4,5,5.9v0.1h88.4v0
		C990.4,326.2,992.9,323.6,992.9,320.4z"/>
</g>
<g>
	<path fill="#E6E7E8" stroke="#E6E7E8" stroke-miterlimit="10" d="M918.7,419.2c0-3.3-2.7-6-6-6c-0.5,0-0.9,0.1-1.3,0.1
		c-0.2-5.5-4.7-10-10.3-10c-5.7,0-10.3,4.6-10.3,10.3c0,0.1,0,0.3,0,0.4c-0.9-0.6-2-0.9-3.1-0.9c-1.1,0-2.1,0.3-3,0.8
		c0-0.1,0-0.2,0-0.3c0-5.7-4.6-10.3-10.3-10.3c-0.9,0-1.7,0.1-2.6,0.3c-1.8-7.2-8.2-12.5-15.9-12.5c-7.7,0-14.1,5.3-15.9,12.4
		c-0.8-0.2-1.6-0.3-2.4-0.3c-5.6,0-10.2,4.5-10.3,10.1c-0.6-0.2-1.2-0.3-1.8-0.3c-3.3,0-6,2.7-6,6c0,3,2.2,5.4,5,5.9v0.1H913v0
		C916.2,425,918.7,422.4,918.7,419.2z"/>
</g>
<g>
	<path fill="#E6E7E8" stroke="#E6E7E8" stroke-miterlimit="10" d="M1079.6,392.9c0-3.3-2.7-6-6-6c-0.5,0-0.9,0.1-1.3,0.1
		c-0.2-5.5-4.7-10-10.3-10c-5.7,0-10.3,4.6-10.3,10.3c0,0.1,0,0.3,0,0.4c-0.9-0.6-2-0.9-3.1-0.9c-1.1,0-2.1,0.3-3,0.8
		c0-0.1,0-0.2,0-0.3c0-5.7-4.6-10.3-10.3-10.3c-0.9,0-1.7,0.1-2.6,0.3c-1.8-7.2-8.2-12.5-15.9-12.5c-7.7,0-14.1,5.3-15.9,12.4
		c-0.8-0.2-1.6-0.3-2.4-0.3c-5.6,0-10.2,4.5-10.3,10.1c-0.6-0.2-1.2-0.3-1.8-0.3c-3.3,0-6,2.7-6,6c0,3,2.2,5.4,5,5.9v0.1h88.4v0
		C1077.1,398.7,1079.6,396.1,1079.6,392.9z"/>
</g>
<g>
	<path fill="#E6E7E8" stroke="#E6E7E8" stroke-miterlimit="10" d="M1009.3,480.8c0-3.3-2.7-6-6-6c-0.5,0-0.9,0.1-1.3,0.1
		c-0.2-5.5-4.7-10-10.3-10c-5.7,0-10.3,4.6-10.3,10.3c0,0.1,0,0.3,0,0.4c-0.9-0.6-2-0.9-3.1-0.9c-1.1,0-2.1,0.3-3,0.8
		c0-0.1,0-0.2,0-0.3c0-5.7-4.6-10.3-10.3-10.3c-0.9,0-1.7,0.1-2.6,0.3c-1.8-7.2-8.2-12.5-15.9-12.5c-7.7,0-14.1,5.3-15.9,12.4
		c-0.8-0.2-1.6-0.3-2.4-0.3c-5.6,0-10.2,4.5-10.3,10.1c-0.6-0.2-1.2-0.3-1.8-0.3c-3.3,0-6,2.7-6,6c0,3,2.2,5.4,5,5.9v0.1h88.4v0
		C1006.8,486.6,1009.3,484,1009.3,480.8z"/>
</g>
<g>
	<path fill="#E6E7E8" stroke="#E6E7E8" stroke-miterlimit="10" d="M935.1,579.6c0-3.3-2.7-6-6-6c-0.5,0-0.9,0.1-1.3,0.1
		c-0.2-5.5-4.7-10-10.3-10c-5.7,0-10.3,4.6-10.3,10.3c0,0.1,0,0.3,0,0.4c-0.9-0.6-2-0.9-3.1-0.9c-1.1,0-2.1,0.3-3,0.8
		c0-0.1,0-0.2,0-0.3c0-5.7-4.6-10.3-10.3-10.3c-0.9,0-1.7,0.1-2.6,0.3c-1.8-7.2-8.2-12.5-15.9-12.5c-7.7,0-14.1,5.3-15.9,12.4
		c-0.8-0.2-1.6-0.3-2.4-0.3c-5.6,0-10.2,4.5-10.3,10.1c-0.6-0.2-1.2-0.3-1.8-0.3c-3.3,0-6,2.7-6,6c0,3,2.2,5.4,5,5.9v0.1h88.4v0
		C932.6,585.4,935.1,582.8,935.1,579.6z"/>
</g>
<g>
	<path fill="#E6E7E8" stroke="#E6E7E8" stroke-miterlimit="10" d="M1096,553.3c0-3.3-2.7-6-6-6c-0.5,0-0.9,0.1-1.3,0.1
		c-0.2-5.5-4.7-10-10.3-10c-5.7,0-10.3,4.6-10.3,10.3c0,0.1,0,0.3,0,0.4c-0.9-0.6-2-0.9-3.1-0.9c-1.1,0-2.1,0.3-3,0.8
		c0-0.1,0-0.2,0-0.3c0-5.7-4.6-10.3-10.3-10.3c-0.9,0-1.7,0.1-2.6,0.3c-1.8-7.2-8.2-12.5-15.9-12.5c-7.7,0-14.1,5.3-15.9,12.4
		c-0.8-0.2-1.6-0.3-2.4-0.3c-5.6,0-10.2,4.5-10.3,10.1c-0.6-0.2-1.2-0.3-1.8-0.3c-3.3,0-6,2.7-6,6c0,3,2.2,5.4,5,5.9v0.1h88.4v0
		C1093.5,559.1,1096,556.5,1096,553.3z"/>
</g>
<g>
	<path opacity="0.4" fill="#231F20" d="M786.8,77.6c16.1,2.4,35.1,0.1,39.7,11.5c4.5,11.3,63.2,426.6,16,459.8
		C795.2,582,708.1,605,597.7,605s-197-31.4-229.7-76.4s23.5-418.7,37.6-444.3S786.8,77.6,786.8,77.6z"/>
	<g>
		<g>
			<path fill="#631E3A" d="M789.4,89c6.9,1.6,20.4,3.9,25.2,10.8c18.6,27.2,45,385.6,12.7,436.6c-21.4,33.9-130.1,52.8-242.7,52.2
				c-100.7-0.5-208.2-35-210.2-100.8c-3-94.6,0.6-174.9,0.6-174.9"/>
		</g>
		<g>
			<g>
				<path fill="#F7941E" d="M784.4,227.3c-19.9,14-20.1,48.8-14.3,69.7c2.8,10.2,7.8,19,19.2,20.6c12.6,1.8,54.6-19.4,54.6-50.2
					S804.7,213.1,784.4,227.3z"/>
			</g>
		</g>
		<g>
			<g>
				<path fill="#D37C1E" d="M777.1,231.7c-17.9,12.5-18.1,43.7-12.8,62.6c2.5,9.2,7,17,17.2,18.5c11.3,1.6,49-17.4,49-45.1
					S795.2,219,777.1,231.7z"/>
			</g>
		</g>
		<g>
			<g>
				<path fill="#FFCD8A" d="M394.7,466.7C370,604,784.2,586.6,818.9,519.1c15.2-29.5,5.4-382.5-11.4-404
					c-16.8-21.5-68.9-30.8-68.9-30.8"/>
			</g>
			<g>
				<g>
					<path fill="#FFCD8A" d="M393.9,466.5c-3,16.7,0.7,33.3,11.1,46.8c11.5,14.9,28.6,24.8,45.7,32.1c22,9.4,45.6,14.9,69.2,18.8
						c26.9,4.4,54.2,6.4,81.4,6.8c27.5,0.4,55.1-0.8,82.4-3.7c24.1-2.6,48.2-6.4,71.7-12.7c17.1-4.6,34.9-10.3,49.8-20.3
						c5-3.4,9.8-7.4,13.2-12.6c2.5-3.8,3.4-8.2,4.1-12.6c3-17.7,3.5-36,4-53.9c0.9-27.2,0.9-54.5,0.7-81.7
						c-0.3-30.8-1-61.5-2.2-92.3c-1.1-28.5-2.5-57-4.6-85.5c-1.5-20.5-3.1-41.1-6.5-61.3c-0.9-5.5-1.9-11.1-3.8-16.3
						c-0.9-2.4-2.3-4.2-4.1-6.1c-5.4-5.7-12.5-9.9-19.5-13.3c-14.8-7.3-31.3-12.2-47.5-15.1c-1-0.2-1.4,1.3-0.4,1.5
						c9.9,1.8,19.8,4.5,29.3,7.7c8.1,2.7,16.1,6,23.6,10.3c5.6,3.2,12.2,7.3,15.8,12.9c2.3,3.6,3.1,8.5,3.9,12.6
						c1.6,7.9,2.7,15.8,3.6,23.8c2.8,23.9,4.5,47.9,5.9,71.9c1.8,29.9,3,59.9,3.8,89.9c0.8,30.2,1.3,60.3,1.2,90.5
						c-0.1,24.6-0.4,49.3-1.8,73.8c-0.5,8.4-1.1,16.9-2.2,25.3c-0.6,4.7-1.2,10-3.1,14.4c-2.2,5-6.5,9.1-10.8,12.4
						c-6,4.7-12.9,8.2-19.8,11.3c-19.1,8.5-39.7,13.5-60.1,17.4c-25.6,4.9-51.7,7.8-77.7,9.2c-27.8,1.5-55.7,1.4-83.5-0.5
						c-26.2-1.8-52.5-5.3-78-11.7c-21.1-5.3-42.3-12.5-60.7-24.4c-14.2-9.2-26.9-22-31.6-38.7c-2.4-8.5-2.5-17.4-1-26.1
						C395.6,465.9,394.1,465.5,393.9,466.5L393.9,466.5z"/>
				</g>
			</g>
		</g>
		<g>
			<path fill="#912951" d="M782.6,65.9C799.4,89,836.5,484.8,796.8,509c-38.5,23.5-324.4,31-380.7-6.5s-49.9-403.1-17.4-441
				S766.1,43.1,782.6,65.9z"/>
		</g>
		<g>
			<path fill="#631E3A" d="M499.5,252.4c0,137.3-29.3,290.9-83.4,250.1c-34.4-26-28.6,16.1-35.1-11.9
				C354.6,377,372.6,91.9,398.7,61.5C431.2,23.6,499.5,77.8,499.5,252.4z"/>
		</g>
		<g>
			<path fill="#F9AD5A" d="M818.4,508.4c-2.2,5.9-4.8,13-9.5,17.3c-1.8,1.6-4.2,2.7-6.3,3.7c-6.8,3-14.1,4.9-21.3,6.6
				c-10.4,2.5-20.9,4.3-31.5,5.9c-28,4.2-56.2,6.6-84.4,8c-32.3,1.6-64.7,1.9-97.1,0.4c-30.7-1.4-61.5-4.2-91.7-10.2
				c-22.6-4.5-46.1-10.7-65.9-23c1.8,1.8,3.7,3.6,5.8,5.4c10.9,5.8,22.8,9.8,34.2,13c27.7,8,56.6,11.8,85.3,14.3
				c32.3,2.8,64.8,3.4,97.3,2.8c30.3-0.6,60.5-2.4,90.6-5.8c22-2.4,44.2-5.4,65.6-11.3c6.1-1.7,12.4-3.6,17.8-6.8
				c3.6-2.1,5.9-5.5,7.9-9.2c3.2-5.9,5.5-12.3,7.6-18.7c0.3-2.3,0.5-4.8,0.8-7.4C822,498.6,820.3,503.5,818.4,508.4z"/>
			<path fill="#F9AD5A" d="M768.9,545.1c-24.1,4.7-48.6,7.3-73.1,9.3c-30,2.4-60.1,3.5-90.2,3.3c-30.6-0.2-61.2-1.6-91.5-5.2
				c-26-3.1-52.3-7.7-77-16.5c-0.5-0.2-1-0.4-1.5-0.5c3.2,1.8,6.5,3.4,10,5c0.6,0.2,1.2,0.4,1.7,0.5c25.9,7.9,53,11.8,80,14.5
				c30.7,3,61.5,4,92.3,3.8c29.6-0.2,59.2-1.6,88.7-4.4c23.1-2.1,46.3-5,69-9.9c4.4-1,8.8-2,13.1-3.2c3-1.4,5.9-2.9,8.5-4.4
				c-1.7,0.6-3.3,1.1-5,1.6C785.7,541.7,777.3,543.5,768.9,545.1z"/>
			<path fill="#F9AD5A" d="M605.6,564.1c-30.6-0.2-61.2-1.6-91.5-5.2c-8.9-1.1-17.9-2.3-26.8-3.8c6.5,1.7,13.2,3.2,20.2,4.6
				c6.6,0.8,13.2,1.6,19.8,2.2c30.7,3,61.5,4,92.3,3.8c29.6-0.2,59.2-1.6,88.7-4.4c10.2-1,20.5-2,30.7-3.4
				c6.1-1.3,11.9-2.7,17.5-4.2c-20.1,3.3-40.4,5.4-60.6,7.1C665.8,563.2,635.7,564.3,605.6,564.1z"/>
			<path fill="#F9AD5A" d="M532,543.8c31.6,3.1,63.4,4.1,95.1,3.7c30-0.3,60-1.8,89.8-4.9c22.5-2.3,45.2-5.2,67.2-11
				c6.8-1.8,13.6-3.8,19.9-7c2-1,4.3-2.3,5.8-4c3.2-3.5,5-8.3,6.5-12.7c5.1-15.5,6.5-32.4,7.6-48.6c1.7-23.4,1.9-47,1.6-70.5
				c-0.7-54.3-4.5-108.6-7.6-162.8c-1.8-32-3.7-64-5.6-96c-0.7-3.6-1.4-6.6-2.1-9.1c1.3,22.7,2.7,45.4,4,68
				c3.1,53.1,6.7,106.2,8.7,159.3c1,25.7,1.4,51.4,0.9,77.1c-0.4,20.5-1.3,41.2-4.4,61.5c-1.1,7.1-2.5,14.1-4.7,20.9
				c-1.4,4.1-3.2,9.3-6.5,12.3c-4.1,3.6-9.9,5.5-15,7.2c-19.5,6.5-40.4,9.4-60.8,12c-28.8,3.6-57.8,5.5-86.8,6.3
				c-31.8,0.9-63.7,0.4-95.4-1.8c-29.2-2.1-58.5-5.6-86.9-12.6c-21.1-5.2-43.5-12.2-60.7-26c-1-0.8-1.9-1.6-2.9-2.5
				c0.8,1.5,1.7,3,2.7,4.4c13.4,10.7,30.6,17,46.7,21.9C476,537,504.1,541.1,532,543.8z"/>
			<path fill="#F9AD5A" d="M449.9,523c27.2,8.1,55.5,12.1,83.7,14.8c31.7,3,63.5,3.8,95.3,3.3c29.7-0.5,59.4-2.2,88.9-5.5
				c21.7-2.4,43.7-5.4,64.6-11.6c6.1-1.8,12.4-3.8,17.8-7.3c8.8-5.6,12.1-17.5,14.5-27c5.3-21.1,6.5-43.3,7.2-65
				c0.6-21.1,0.3-42.2-0.3-63.3c-1.1-41.7-3.4-83.5-6.2-125.1c-2.2-33-4.8-66-7.8-98.9c-0.7-8.2-1.5-16.5-2.3-24.7
				c-0.6-0.6-1.1-1.2-1.8-1.8c1.3,13.5,2.5,26.9,3.7,40.4c3.1,35.6,5.7,71.2,8,106.8c2.6,41.7,4.6,83.5,5.2,125.2
				c0.3,22.7,0.3,45.5-1.6,68.2c-0.9,10.6-2.1,21.1-4.3,31.5c-1.5,7.6-3.5,15.3-6.9,22.2c-1.8,3.7-4.1,7.2-7.5,9.6
				c-2.2,1.5-4.7,2.7-7.1,3.7c-7.3,3.1-15.1,5.1-22.8,6.9c-23.7,5.5-48,8.3-72.2,10.4c-30.6,2.7-61.4,3.8-92.1,3.6
				c-31.5-0.2-63-1.9-94.2-5.9c-26.6-3.4-53.5-8.4-78.6-18.1c-12.2-4.7-24.6-10.9-34.2-20l-2.8-0.7c0,0.1,0.1,0.2,0.1,0.3
				C410.5,509.6,430.9,517.3,449.9,523z"/>
			<path fill="#F9AD5A" d="M523.3,531.8c30.2,3.2,60.7,4.3,91,4.2c29.1-0.1,58.2-1.4,87.2-4.2c22.7-2.1,45.4-5,67.6-10.2
				c7.3-1.7,14.7-3.7,21.7-6.6c4.4-1.8,8.7-4.1,11.7-7.9c3.6-4.6,5.7-10.2,7.4-15.7c2.4-7.9,3.9-16,5-24.2
				c3.1-22.3,3.8-44.9,4.1-67.4c0.3-27.4-0.6-54.9-1.9-82.3c-1.3-28-3.2-56-5.4-84c-1.9-24.2-4-48.4-6.4-72.6c-1.6-16-3.2-32-5-48
				c-0.2-1.8-0.4-3.6-0.6-5.4c-0.6-0.4-1.1-0.9-1.7-1.3c0.6,5.3,1.2,10.7,1.8,16c2,18.5,3.9,37.1,5.6,55.7
				c2.4,25.6,4.5,51.2,6.4,76.8c2,28.2,3.7,56.5,4.7,84.8c1,26.5,1.4,53.1,0.6,79.7c-0.6,20.5-1.8,41.4-6,61.5
				c-1.4,6.7-3.2,13.5-6.3,19.7c-2.1,4.2-4.8,7.8-8.9,10.2c-5.5,3.2-11.7,5.2-17.8,6.9c-9,2.6-18.2,4.5-27.4,6.1
				c-25,4.5-50.4,6.9-75.7,8.6c-30,2-60.1,2.5-90.2,1.8c-29.8-0.8-59.7-2.9-89.2-7.5c-24.5-3.8-49.3-9-72-19.1
				c-6.7-3-13.3-6.4-19.4-10.7l-4.1-1c12.8,10,28.8,16.2,44,20.9C469.9,524.9,496.7,529,523.3,531.8z"/>
		</g>
		<g>
			<g>
				<g>
					<path fill="#FFCD8A" d="M611.5,234.2c-0.3-19.8,7.2-25.9,25.2-38.3c18.1-12.4,30.8-18.1,30.3-26.1
						c13.5,18.1,18.1,18.8,18.1,34.2s-31.1,35.4-42.5,35.4c19.1,0,24.6,18.1,8.8,32c-5.6,4.9-17,12.2-18.6,12.7
						c-1.6,0.5-21.3-11.5-21.3-29.8S611.5,234.2,611.5,234.2z"/>
				</g>
				<g>
					<path fill="#FFCD8A" d="M606.4,234.2c0.3-19.8-7.2-25.9-25.2-38.3s-30.8-18.1-30.3-26.1c-13.5,18.1-18.1,18.8-18.1,34.2
						s31.1,35.4,42.5,35.4c-19.1,0-24.6,18.1-8.8,32c5.6,4.9,17,12.2,18.6,12.7c1.6,0.5,21.3-11.5,21.3-29.8
						S606.4,234.2,606.4,234.2z"/>
				</g>
				<g>
					<path fill="#FFCD8A" d="M635.8,183.5c-0.1-1-0.5-2-1.4-2.9c-15.1-16.3-37.1-17.2-52.2-0.3c-1.9,2.1-2,5,0,7
						c5.3,5.4,11.6,9.4,17.7,13.5c3.5,2.3,9.5,6.9,9.5,10.8c0-3.7,3.9-8.1,8-10.6c6.2-3.7,12.5-8.8,17-13.4
						C635.7,186.3,636,184.8,635.8,183.5z M585.9,183.7c12.9-15.6,31.7-14.9,44.9,0.3C613.3,202.5,603.3,202.1,585.9,183.7z"/>
				</g>
				<g>
					<path fill="#FFCD8A" d="M607.6,175.2c-5.5,0-9.9,4.3-9.9,9.6s4.4,9.6,9.9,9.6c5.5,0,9.9-4.3,9.9-9.6S613.1,175.2,607.6,175.2z
						 M606.3,186.9c-1.9,0-3.5-1.5-3.5-3.4c0-1.9,1.6-3.4,3.5-3.4c1.9,0,3.5,1.5,3.5,3.4C609.7,185.4,608.2,186.9,606.3,186.9z"/>
				</g>
				<g>
					<path fill="#FFCD8A" d="M657.9,171.3c-0.9-4.6-1.7-9.1-2.6-13.7c-0.4-2.1-2.8-3.7-4.9-3.7c-8.5,0.1-16.1,1-23.5-3.9
						c-4.9-3.2-9-9.1-14.4-11.5c-2.3-1-4.3-0.8-6.2,0.8c-4.3,3.6-8.7,7.2-13,10.8c-1.8,1.5-3.5,2.9-5.3,4.4c-1.7,0-3.4,0-5.1-0.1
						c-4,0-15.3-2.1-17.7,2.5c-2.5,4.8-3,10.8-4.1,16c-0.6,2.8,1.1,4.9,3.2,5.8c1.4,1,3.2,1.2,5.1-0.2c10.7-7.8,25.9-14,39.2-14.5
						c13.9-0.5,29.7,6.7,41.8,12.8C654.5,179,658.7,175.6,657.9,171.3z"/>
				</g>
				<g>
					<path fill="#FFCD8A" d="M687,229.5c0.1-6.4-10.5-6.4-10.6,0c-0.8,34.8-29.9,62.1-67,62.8c-37.1,0.7-66.3-29.1-67-62.8
						c-0.1-6.4-10.8-6.4-10.6,0c0.7,30.5,20.3,56.1,48.4,67.1c8.1,3.5,23.7,10.5,27.5,13.2c3.2,2.2,3.1,2.4,6.1,0
						c2.1-1.6,14.9-7.9,24.8-12.7c3.9-1.5,7.7-3.4,11.2-5.5c0,0,0.1,0,0.1,0l0,0C671.8,278.5,686.4,255,687,229.5z"/>
				</g>
			</g>
			<g>
				<g>
					<path fill="#FFCD8A" d="M603.4,339.4c-0.1,0-0.3,0-0.4,0c-0.6,0-1.1-0.1-1.7-0.1c-4.3-0.3-7.6-4-7.3-8.4c0.3-4.3,4-7.6,8.4-7.3
						c0.5,0,1,0.1,1.4,0.1c4.3,0.2,7.6,3.9,7.4,8.3C611,336.2,607.6,339.4,603.4,339.4z M631.2,337.4c-3.6,0-6.9-2.6-7.7-6.3
						c-0.9-4.2,1.9-8.4,6.1-9.3c0.5-0.1,0.9-0.2,1.4-0.3c4.2-0.9,8.4,1.7,9.3,6c0.9,4.2-1.7,8.4-6,9.3c-0.5,0.1-1.1,0.2-1.6,0.3
						C632.3,337.3,631.8,337.4,631.2,337.4z M574.5,333.8c-0.8,0-1.7-0.1-2.5-0.4c-0.5-0.2-1.1-0.4-1.6-0.6c-4.1-1.5-6.2-5.9-4.7-10
						c1.5-4.1,6-6.2,10-4.7c0.5,0.2,0.9,0.3,1.4,0.5c4.1,1.4,6.3,5.8,4.9,9.9C580.8,331.7,577.8,333.8,574.5,333.8z M659,327.6
						c-2.8,0-5.6-1.5-7-4.2c-2-3.8-0.5-8.6,3.4-10.6c0.4-0.2,0.9-0.4,1.3-0.7c3.8-2,8.6-0.6,10.6,3.2c2,3.8,0.6,8.6-3.2,10.6
						c-0.5,0.3-1,0.5-1.5,0.8C661.5,327.3,660.2,327.6,659,327.6z M548.2,320.6c-1.5,0-3.1-0.4-4.4-1.4c-0.5-0.3-0.9-0.6-1.4-1
						c-3.5-2.5-4.4-7.4-1.9-10.9c2.5-3.5,7.4-4.4,10.9-1.9c0.4,0.3,0.8,0.6,1.2,0.8c3.6,2.5,4.5,7.3,2,10.9
						C553.2,319.4,550.7,320.6,548.2,320.6z M683.1,310.6c-2.1,0-4.2-0.8-5.7-2.5c-2.9-3.2-2.8-8.1,0.4-11.1c0.4-0.3,0.7-0.7,1-1
						c3.1-3,8.1-2.9,11.1,0.2c3,3.1,2.9,8.1-0.2,11.1c-0.4,0.4-0.8,0.8-1.2,1.2C686.9,309.9,685,310.6,683.1,310.6z M526.5,300.8
						c-2.2,0-4.5-1-6-2.8c-0.4-0.4-0.7-0.9-1.1-1.3c-2.7-3.4-2.2-8.3,1.2-11c3.4-2.7,8.3-2.2,11,1.2c0.3,0.4,0.6,0.7,0.9,1.1
						c2.8,3.3,2.4,8.3-1,11C530,300.2,528.3,300.8,526.5,300.8z M701.7,287.8c-1.4,0-2.8-0.4-4.1-1.2c-3.7-2.3-4.9-7.1-2.6-10.8
						c0.3-0.4,0.5-0.8,0.8-1.2c2.2-3.7,7-4.9,10.7-2.7c3.7,2.2,4.9,7,2.7,10.7c-0.3,0.5-0.6,0.9-0.8,1.4
						C706.9,286.5,704.3,287.8,701.7,287.8z M510.8,275.8c-3,0-5.8-1.7-7.1-4.6c-0.2-0.5-0.5-1-0.7-1.5c-1.7-4,0.1-8.6,4.1-10.3
						c4-1.7,8.6,0.1,10.3,4.1c0.2,0.4,0.4,0.9,0.6,1.3c1.8,3.9,0,8.6-3.9,10.4C513,275.6,511.9,275.8,510.8,275.8z M713.5,260.8
						c-0.7,0-1.4-0.1-2.1-0.3c-4.2-1.2-6.6-5.5-5.4-9.7c0.1-0.5,0.3-0.9,0.4-1.4c1.1-4.2,5.4-6.7,9.6-5.6c4.2,1.1,6.7,5.4,5.6,9.6
						c-0.1,0.5-0.3,1.1-0.4,1.6C720.1,258.6,716.9,260.8,713.5,260.8z M502.5,247.6c-3.8,0-7.2-2.8-7.7-6.7
						c-0.1-0.6-0.2-1.1-0.2-1.7c-0.6-4.3,2.4-8.2,6.7-8.8c4.3-0.6,8.2,2.4,8.8,6.7c0.1,0.5,0.1,0.9,0.2,1.4c0.6,4.3-2.3,8.3-6.6,8.9
						C503.3,247.5,502.9,247.6,502.5,247.6z M717.5,231.6c-4.3,0-7.8-3.4-7.8-7.7l0-0.4c0-0.3,0-0.8,0-1.3c-0.1-4.3,3.4-7.9,7.7-8
						c0,0,0.1,0,0.1,0c4.3,0,7.8,3.4,7.8,7.7c0,0.6,0,1.1,0,1.7C725.4,227.9,721.9,231.6,717.5,231.6z M502.1,218.1
						c-0.3,0-0.6,0-1-0.1c-4.3-0.5-7.4-4.4-6.8-8.7c0.1-0.6,0.1-1.1,0.2-1.7c0.6-4.3,4.6-7.3,8.8-6.7c4.3,0.6,7.3,4.5,6.7,8.8
						c-0.1,0.5-0.1,0.9-0.2,1.4C509.4,215.2,506,218.1,502.1,218.1z M713.6,202.3c-3.4,0-6.6-2.3-7.5-5.7c-0.1-0.5-0.3-0.9-0.4-1.4
						c-1.2-4.2,1.1-8.5,5.3-9.7c4.2-1.2,8.5,1.1,9.7,5.3c0.2,0.5,0.3,1.1,0.5,1.6c1.2,4.2-1.3,8.5-5.4,9.7
						C715,202.2,714.3,202.3,713.6,202.3z M509.7,189.7c-1,0-2-0.2-3-0.6c-4-1.7-5.9-6.3-4.2-10.3c0.2-0.5,0.4-1,0.7-1.5
						c1.7-4,6.4-5.8,10.3-4c4,1.7,5.8,6.4,4,10.3c-0.2,0.4-0.4,0.9-0.6,1.3C515.7,187.9,512.7,189.7,509.7,189.7z M701.8,175.3
						c-2.6,0-5.2-1.3-6.7-3.8c-0.2-0.4-0.5-0.8-0.8-1.2c-2.3-3.7-1.2-8.5,2.4-10.8c3.7-2.3,8.5-1.2,10.8,2.4c0.3,0.5,0.6,1,0.9,1.4
						c2.2,3.7,1.1,8.5-2.6,10.8C704.6,174.9,703.2,175.3,701.8,175.3z M524.6,164.4c-1.7,0-3.4-0.6-4.9-1.7c-3.4-2.7-4-7.6-1.3-11
						c0.3-0.4,0.7-0.9,1.1-1.3c2.7-3.4,7.7-3.8,11-1.1c3.4,2.7,3.8,7.7,1.1,11c-0.3,0.4-0.6,0.7-0.9,1.1
						C529.3,163.3,527,164.4,524.6,164.4z M683.2,152.4c-1.9,0-3.8-0.7-5.4-2.1c-0.4-0.3-0.7-0.7-1.1-1c-3.2-2.9-3.4-7.9-0.5-11.1
						c2.9-3.2,7.9-3.4,11.1-0.5c0.4,0.4,0.8,0.7,1.2,1.1c3.2,3,3.3,7.9,0.4,11.1C687.4,151.6,685.3,152.4,683.2,152.4z M545.9,144
						c-2.4,0-4.8-1.1-6.3-3.2c-2.5-3.5-1.8-8.4,1.7-11c0.4-0.3,0.9-0.7,1.4-1c3.5-2.5,8.4-1.7,10.9,1.9c2.5,3.5,1.7,8.4-1.9,10.9
						c-0.4,0.3-0.8,0.6-1.2,0.8C549.1,143.5,547.5,144,545.9,144z M659.2,135.4c-1.2,0-2.5-0.3-3.6-0.9c-0.4-0.2-0.8-0.4-1.3-0.6
						c-3.9-1.9-5.4-6.6-3.5-10.5c1.9-3.9,6.6-5.4,10.5-3.5c0.5,0.3,1,0.5,1.5,0.8c3.8,2,5.3,6.7,3.3,10.6
						C664.8,133.9,662,135.4,659.2,135.4z M571.8,130.1c-3.2,0-6.2-2-7.4-5.1c-1.5-4.1,0.6-8.6,4.6-10.1c0.5-0.2,1-0.4,1.6-0.6
						c4.1-1.4,8.6,0.7,10,4.8c1.4,4.1-0.7,8.6-4.8,10c-0.5,0.2-0.9,0.3-1.4,0.5C573.7,129.9,572.7,130.1,571.8,130.1z M631.5,125.6
						c-0.5,0-1.1-0.1-1.6-0.2c-0.5-0.1-0.9-0.2-1.4-0.3c-4.3-0.8-7-4.9-6.2-9.2c0.8-4.3,4.9-7,9.2-6.2c0.5,0.1,1.1,0.2,1.6,0.3
						c4.2,0.9,7,5,6.1,9.3C638.4,123,635.1,125.6,631.5,125.6z M600.6,123.7c-4,0-7.5-3.1-7.8-7.2c-0.4-4.3,2.9-8.1,7.2-8.5
						c0.6,0,1.1-0.1,1.7-0.1c4.3-0.3,8.1,3,8.3,7.3c0.3,4.3-3,8.1-7.3,8.3c-0.5,0-1,0.1-1.4,0.1C601,123.7,600.8,123.7,600.6,123.7z
						"/>
				</g>
			</g>
		</g>
		<g>
			<path fill="#FFCD8A" d="M527,444.5c0,3-0.5,5.5-1.6,7.6c-1.1,2.1-2.5,4-4.4,5.4c-1.8,1.5-3.9,2.7-6.3,3.7
				c-2.4,0.9-4.8,1.7-7.4,2.2c-2.6,0.5-5.1,0.9-7.7,1.1c-2.6,0.2-5,0.3-7.2,0.3c-2.2,0-4.5-0.1-6.9-0.2c-2.4-0.2-4.7-0.4-7.1-0.8
				c-2.3-0.4-4.7-0.9-6.9-1.6c-2.3-0.7-4.4-1.5-6.5-2.5L465,391c2-0.8,4.1-1.6,6.4-2.2c2.2-0.7,4.5-1.2,6.9-1.7c2.3-0.4,4.7-0.8,7-1
				c2.3-0.2,4.6-0.3,6.7-0.3c2.5,0,5.1,0.2,7.7,0.5c2.6,0.3,5.1,0.9,7.4,1.6c2.4,0.7,4.6,1.7,6.7,2.9c2.1,1.2,3.9,2.7,5.4,4.4
				c1.5,1.7,2.8,3.8,3.6,6.1c0.9,2.3,1.3,5,1.3,8c0,2-0.3,3.9-0.9,5.6c-0.6,1.7-1.4,3.3-2.5,4.7c-1.1,1.4-2.4,2.6-3.9,3.5
				c-1.5,1-3.3,1.7-5.2,2.2c2.3,0.6,4.4,1.5,6.3,2.7c1.9,1.2,3.5,2.6,4.9,4.3c1.3,1.7,2.4,3.6,3.1,5.7
				C526.6,439.9,527,442.2,527,444.5z M492.3,431.5c-1,0-2,0.1-3,0.3l-0.2,12.2c0.5,0.1,1.1,0.2,1.6,0.3c0.5,0.1,1,0.1,1.5,0.1
				c0.7,0,1.6-0.1,2.5-0.2c0.9-0.2,1.7-0.5,2.5-1c0.8-0.5,1.4-1.1,1.9-1.9c0.5-0.8,0.8-1.9,0.8-3.3c0-1.4-0.3-2.5-0.8-3.3
				c-0.5-0.9-1.1-1.5-1.9-2c-0.7-0.5-1.6-0.8-2.5-1C493.9,431.6,493.1,431.5,492.3,431.5z M499.9,414.1c0-1-0.2-1.9-0.6-2.6
				c-0.4-0.7-1-1.3-1.6-1.8c-0.6-0.5-1.3-0.8-2-1c-0.7-0.2-1.4-0.3-1.9-0.3c-0.7,0-1.4,0.1-2.1,0.3c-0.7,0.2-1.3,0.5-2,0.7
				l-0.3,11.9c0.8,0,1.8-0.1,3-0.2c1.2-0.1,2.4-0.5,3.5-0.9c1.1-0.5,2.1-1.2,2.9-2.1C499.5,417,499.9,415.8,499.9,414.1z"/>
			<path fill="#FFCD8A" d="M594.6,422.7c0,3.2-0.4,6.4-1.1,9.4c-0.7,3-1.8,5.8-3.2,8.5c-1.4,2.6-3.1,5-5.1,7.2
				c-2,2.2-4.3,4.1-6.8,5.6c-2.5,1.6-5.2,2.8-8.2,3.7c-3,0.9-6.1,1.3-9.4,1.3c-3.2,0-6.3-0.4-9.2-1.2c-2.9-0.8-5.6-2-8.1-3.4
				c-2.5-1.5-4.8-3.3-6.9-5.3c-2-2.1-3.8-4.4-5.2-6.9c-1.4-2.5-2.6-5.3-3.4-8.2c-0.8-2.9-1.2-6-1.2-9.1c0-3.1,0.4-6.1,1.1-9.1
				c0.7-3,1.8-5.8,3.2-8.4c1.4-2.6,3.1-5.1,5.1-7.3c2-2.2,4.2-4.1,6.7-5.7c2.5-1.6,5.2-2.8,8-3.7c2.9-0.9,5.9-1.3,9.1-1.3
				c5.2,0,9.9,0.8,14.1,2.4c4.3,1.6,7.9,3.9,10.9,6.9c3,3,5.3,6.6,7,10.8C593.8,412.8,594.6,417.5,594.6,422.7z M570.9,424
				c0-1.5-0.2-3-0.7-4.5c-0.4-1.4-1.1-2.7-1.9-3.8c-0.9-1.1-1.9-2-3.2-2.7c-1.3-0.7-2.7-1-4.4-1c-1.7,0-3.2,0.3-4.5,0.9
				c-1.3,0.6-2.4,1.4-3.4,2.5c-0.9,1.1-1.7,2.3-2.2,3.7c-0.5,1.4-0.7,2.9-0.7,4.5c0,1.5,0.2,3,0.6,4.5s1.1,2.8,1.9,4.1
				c0.9,1.2,1.9,2.2,3.2,2.9c1.3,0.7,2.7,1.1,4.4,1.1c1.7,0,3.2-0.3,4.5-1c1.3-0.7,2.5-1.5,3.4-2.7c0.9-1.1,1.6-2.4,2.1-3.9
				C570.6,427.1,570.9,425.6,570.9,424z"/>
			<path fill="#FFCD8A" d="M664.3,422.7c0,3.2-0.4,6.4-1.1,9.4c-0.7,3-1.8,5.8-3.2,8.5c-1.4,2.6-3.1,5-5.1,7.2
				c-2,2.2-4.3,4.1-6.8,5.6c-2.5,1.6-5.2,2.8-8.2,3.7c-3,0.9-6.1,1.3-9.4,1.3c-3.2,0-6.3-0.4-9.2-1.2c-2.9-0.8-5.6-2-8.1-3.4
				c-2.5-1.5-4.8-3.3-6.9-5.3c-2-2.1-3.8-4.4-5.2-6.9c-1.4-2.5-2.6-5.3-3.4-8.2c-0.8-2.9-1.2-6-1.2-9.1c0-3.1,0.4-6.1,1.1-9.1
				c0.7-3,1.8-5.8,3.2-8.4c1.4-2.6,3.1-5.1,5.1-7.3c2-2.2,4.2-4.1,6.7-5.7c2.5-1.6,5.2-2.8,8-3.7c2.9-0.9,5.9-1.3,9.1-1.3
				c5.2,0,9.9,0.8,14.1,2.4c4.3,1.6,7.9,3.9,10.9,6.9c3,3,5.3,6.6,7,10.8C663.5,412.8,664.3,417.5,664.3,422.7z M640.6,424
				c0-1.5-0.2-3-0.7-4.5c-0.4-1.4-1.1-2.7-1.9-3.8c-0.9-1.1-1.9-2-3.2-2.7c-1.3-0.7-2.7-1-4.4-1c-1.7,0-3.2,0.3-4.5,0.9
				c-1.3,0.6-2.4,1.4-3.4,2.5c-0.9,1.1-1.7,2.3-2.2,3.7c-0.5,1.4-0.7,2.9-0.7,4.5c0,1.5,0.2,3,0.6,4.5c0.4,1.5,1.1,2.8,1.9,4.1
				c0.9,1.2,1.9,2.2,3.2,2.9c1.3,0.7,2.7,1.1,4.4,1.1c1.7,0,3.2-0.3,4.5-1c1.3-0.7,2.5-1.5,3.4-2.7c0.9-1.1,1.6-2.4,2.1-3.9
				C640.4,427.1,640.6,425.6,640.6,424z"/>
			<path fill="#FFCD8A" d="M733.1,394.6l-23.6,28.1l21.7,36.7l-24.8,4.4l-16.2-22l-0.9,20.9l-22.2,0.9l1.7-76.4l24.9,1.4l-1.9,22
				l15.5-22.3L733.1,394.6z"/>
		</g>
		<g>
			<g>
				<path fill="#F7941E" d="M773.9,231.7c-17.9,12.5-18.1,43.7-12.8,62.6c2.5,9.2,7,17,17.2,18.5c11.3,1.6,49-17.4,49-45.1
					S792,219,773.9,231.7z"/>
			</g>
		</g>
		<g>
			<g>
				<path fill="#F9AD5A" d="M782.5,240.5c-9.7,6.8-9.8,23.6-6.9,33.8c1.4,5,3.8,9.2,9.3,10c6.1,0.9,26.5-9.4,26.5-24.4
					C811.4,245,792.3,233.6,782.5,240.5z"/>
			</g>
		</g>
	</g>
</g>
<g>
	<g>
		<path fill="#E6E7E8" stroke="#E6E7E8" stroke-miterlimit="10" d="M293.9,106.6c0-3.3-2.7-6-6-6c-0.5,0-0.9,0.1-1.3,0.1
			c-0.2-5.5-4.7-10-10.3-10c-5.7,0-10.3,4.6-10.3,10.3c0,0.1,0,0.3,0,0.4c-0.9-0.6-2-0.9-3.1-0.9c-1.1,0-2.1,0.3-3,0.8
			c0-0.1,0-0.2,0-0.3c0-5.7-4.6-10.3-10.3-10.3c-0.9,0-1.7,0.1-2.6,0.3c-1.8-7.2-8.2-12.5-15.9-12.5c-7.7,0-14.1,5.3-15.9,12.4
			c-0.8-0.2-1.6-0.3-2.4-0.3c-5.6,0-10.2,4.5-10.3,10.1c-0.6-0.2-1.2-0.3-1.8-0.3c-3.3,0-6,2.7-6,6c0,3,2.2,5.4,5,5.9v0.1h88.4v0
			C291.3,112.4,293.9,109.8,293.9,106.6z"/>
	</g>
	<g>
		<path fill="#E6E7E8" stroke="#E6E7E8" stroke-miterlimit="10" d="M131.9,86.3c0-3.3-2.7-6-6-6c-0.5,0-0.9,0.1-1.3,0.1
			c-0.2-5.5-4.7-10-10.3-10c-5.7,0-10.3,4.6-10.3,10.3c0,0.1,0,0.3,0,0.4c-0.9-0.6-2-0.9-3.1-0.9c-1.1,0-2.1,0.3-3,0.8
			c0-0.1,0-0.2,0-0.3c0-5.7-4.6-10.3-10.3-10.3c-0.9,0-1.7,0.1-2.6,0.3c-1.8-7.2-8.2-12.5-15.9-12.5c-7.7,0-14.1,5.3-15.9,12.4
			c-0.8-0.2-1.6-0.3-2.4-0.3c-5.6,0-10.2,4.5-10.3,10.1c-0.6-0.2-1.2-0.3-1.8-0.3c-3.3,0-6,2.7-6,6c0,3,2.2,5.4,5,5.9v0.1h88.4v0
			C129.4,92.1,131.9,89.5,131.9,86.3z"/>
	</g>
	<path fill="#FFFFFF" d="M282.9,80.5c-5.5-1.4-10.7-1.6-16-0.9c0.4-2.1,0.4-4.1,0.1-6.3c-0.3-2.2-1.4-4.2-3-5.8
		c2.9-4.2,4.1-9.5,4-15c0-0.3,0-0.6,0-1c-0.7-8-3-17.6-10.4-22c-7.1-4.2-18.7,1.6-25.1,4.7c0,0,0,0-0.1,0
		c-6.7,3.4-13.3,8.1-14.7,15.1c-3.8-1-7.7-0.9-11.8,1.5c-6.7,3.8-9.2,12.7-10.3,19.7c-0.1,0.8-0.2,1.5-0.1,2.2
		c0-0.1-0.1-0.1-0.1-0.2c-0.9,7-2.3,16,5.4,19.7c4.8,2.3,10.6,2.2,16,1.4c0.9,3,1.7,6,2.2,9.1c0,0,0,0,0,0c0,0.2,0,0.4,0,0.6
		c0,0.1,0,0.2,0,0.3c0,0.4,0,0.8,0.1,1.1c0,0.4,0.1,0.7,0.2,1.1c0,0.1,0,0.1,0,0.2c0.3,1.1,0.8,2,1.5,2.9c1.4,2.7,3.7,4.6,7.6,4.8
		c3.2,0.2,5.7-0.9,7.5-2.7c1.5,0.7,3.2,1.1,5.1,1c0.7-0.1,1.4-0.2,2-0.5c0,0.1,0,0.1,0,0.2c4-1.5,7.2-4.5,7.8-8.5
		c1.8,1.1,3.9,1.8,6.1,2.2c-0.2,4.9,4.1,8.4,8.5,10c4.5,1.7,9.7,1,14-0.9c3.8-1.7,5.1-5.2,5.1-8.9c7.7-0.9,16-3.1,18-10.1
		C305.7,85,290,82.3,282.9,80.5z"/>
	<g>
		<g>
			<polygon opacity="0.5" points="285.6,87.8 225.3,66.8 194.9,65.3 154.1,44.7 135.4,46.6 92.8,38.3 62.7,45.5 46,62.5 30.6,90.3 
				28.5,106.5 48.5,133 226.3,149.9 272.4,146.5 294.8,132.1 301.2,120.8 			"/>
			<path fill="#FFFFFF" d="M117.6,52.4c3.9-8.2,0.3-18.8-8.1-22.9c-3.4-10.9-17.8-15.6-27.1-8.9c-5.8-3.8-13.8-4.3-20-0.2
				c-4.4-3-10.1-4-15.7-2.1c-7.6,2.6-11.3,9.2-11.3,16.2c-8,5.4-10.2,16.8-4,24.7c0.6,7.9,6.1,14.3,13.5,16c0,0.1,0,0.2,0,0.3
				c-3.7,2.7-7.3,5.3-11,8c-5.8,4.2-4.2,14,3.8,14c2,0,4,0,5.9,0c3,0,5-1.9,7-3.8c0,0,0,0,0,0c1.1,2.2,3.2,3.8,6.5,3.8
				c2,0,4,0,5.9,0c3,0,5-1.9,7-3.8c0.2-0.1,0.3-0.3,0.5-0.4c1,2.4,3.2,4.2,6.7,4.2c4.1,0,8.2,0.6,11.5-2.4c3-2.7,5.9-5.4,8.9-8.1
				c2.8-2.5,5-4.5,5.1-8.6c4.9,0.1,9.8-1.8,13.4-5.8C121.6,66.6,121.4,58.6,117.6,52.4z"/>
			<path fill="#FFFFFF" d="M293.8,95.7c-2.7-6.2-5.4-12.3-8.1-18.5c-0.4-1-1.2-1.3-1.9-1.3c-10.5-3.7-21-7.3-31.5-11
				c-6.8-2.4-13.7-4.8-20.5-7.1c-2.6-0.9-5.4-2.3-8.1-2.5c-6.8-0.3-13.7-0.7-20.5-1c-2.7-0.1-5.3-0.3-8-0.4c0,0,0,0,0,0
				c-0.6-0.3-1.2-0.6-1.7-0.9c-12.1-6.1-24.1-12.2-36.2-18.3c-4-2-8.7-0.5-13-0.1c-2.6,0.3-5.2,0.5-7.9,0.8c0.5-0.1-0.3,0-0.7-0.1
				c-1.1-0.2-2.3-0.4-3.4-0.7c-12.4-2.4-24.8-4.9-37.3-7.3c-1.4-0.3-3,0.4-4.3,0.7c-3.6,0.9-7.3,1.7-10.9,2.6
				c-3.6,0.9-7.2,1.7-10.8,2.6c-1.7,0.4-4,0.5-5.6,1.5c-1.6,0.9-2.9,2.8-4.2,4.1c-2.8,2.9-5.7,5.7-8.5,8.6c-3.1,3.1-5,5.5-7.1,9.3
				c-3.6,6.6-7.3,13.2-10.9,19.7C30.2,81,30,85,29.3,90c-0.3,2.1-1.4,5.4-0.8,7.6c0.4,1.6,2.2,3.2,3.2,4.5
				c4.6,6.1,9.1,12.2,13.7,18.2c1,1.3,2,2.6,3,3.9c1.5,1.9,4.6,1.2,6.8,1.1c4.9-0.1,11.9,1.3,16-1.8c2.8-2,5.5-4.1,8.3-6.1
				c1.3-0.9,0.2-0.5,1.8-0.7c0.9-0.1,1.8-0.3,2.7-0.4c0.4-0.1,0.7-0.1,1-0.1c4.7,3.5,9.5,7,14.2,10.6c1.6,1.2,4.3,0.8,6.1,0.8
				c4.4,0.1,8.8,0.3,13.3,0.4c0.3,0,0.6,0,0.8,0c1.3,0.7,2.5,1.4,3.8,2.1c4,2.2,8.1,4.5,12.1,6.7c5.4,3,82.1,10.6,85.7,10.9
				c2,0.1,4.9,0.9,6.9,0.3c6.1-1.9,12.3-3.8,18.4-5.6c4.6-1.4,9.4-1.7,14.2-2.3c4.4-0.6,9.4-0.4,13.2-2.9c6.3-4,12.6-8.1,18.8-12.1
				c4.5-2.9,4.3-10.9,5.4-15.7C298.9,104.5,295.8,100.3,293.8,95.7z M85.2,116.3C85.8,116.3,85.6,116.4,85.2,116.3L85.2,116.3z"/>
			<polygon fill="#ADC136" points="66.8,41.1 94.2,34.5 135.7,42.6 153.5,40.8 193.2,60.9 223.4,62.4 280.2,82.2 291.2,107 
				288.5,119.4 269,132 247,135 226.5,141.3 217.6,141.3 203.9,134.7 193.2,134.7 174.7,138.6 160.3,133.5 142.9,133.2 121.3,121.2 
				102.4,120.6 86.7,108.9 77.4,110.4 66.8,118.2 52.7,118.5 35.6,95.7 37.3,82.5 51.7,56.4 			"/>
			<polygon opacity="0.2" fill="#E6E7E8" points="192.7,59.4 167.2,138.2 190.2,141.6 215.5,62.1 			"/>
			<polygon opacity="0.2" fill="#E6E7E8" points="247.6,68.6 225,144.5 248,139.4 268.5,74.6 			"/>
			<polygon opacity="0.2" fill="#E6E7E8" points="94.1,29.9 61,119.2 88.9,112.3 118.8,35.6 			"/>
			<polygon opacity="0.2" fill="#E6E7E8" points="151.4,38.6 119.8,123.9 141.3,134.5 173,48.4 			"/>
		</g>
		<g>
			<g>
				
					<ellipse transform="matrix(0.9959 -9.024590e-02 9.024590e-02 0.9959 -5.9385 11.5401)" fill="#286784" cx="124.6" cy="71.4" rx="13" ry="7.2"/>
				
					<ellipse transform="matrix(0.9959 -9.024590e-02 9.024590e-02 0.9959 -6.2331 13.0433)" fill="#286784" cx="141.1" cy="75.4" rx="10.1" ry="5.5"/>
				
					<ellipse transform="matrix(0.9959 -9.024590e-02 9.024590e-02 0.9959 -5.4411 12.8436)" fill="#286784" cx="139.3" cy="66.6" rx="9.1" ry="5.7"/>
				
					<ellipse transform="matrix(0.9959 -9.024590e-02 9.024590e-02 0.9959 -5.7802 14.1679)" fill="#286784" cx="153.8" cy="71" rx="12" ry="7"/>
			</g>
			<g>
				
					<ellipse transform="matrix(0.9959 -9.024590e-02 9.024590e-02 0.9959 -6.1129 11.5639)" fill="#4997B2" cx="124.8" cy="73.4" rx="13" ry="7.2"/>
				
					<ellipse transform="matrix(0.9959 -9.024590e-02 9.024590e-02 0.9959 -6.4075 13.067)" fill="#4997B2" cx="141.3" cy="77.4" rx="10.1" ry="5.5"/>
				
					<ellipse transform="matrix(0.9959 -9.024590e-02 9.024590e-02 0.9959 -5.6154 12.8674)" fill="#4997B2" cx="139.5" cy="68.5" rx="9.1" ry="5.7"/>
				
					<ellipse transform="matrix(0.9959 -9.024590e-02 9.024590e-02 0.9959 -5.9545 14.1917)" fill="#4997B2" cx="154" cy="72.9" rx="12" ry="7"/>
			</g>
		</g>
		<g>
			<g>
				
					<ellipse transform="matrix(0.9959 -9.024590e-02 9.024590e-02 0.9959 -5.5896 17.2471)" fill="#286784" cx="187.9" cy="70.4" rx="12" ry="6.9"/>
				
					<ellipse transform="matrix(0.9959 -9.024590e-02 9.024590e-02 0.9959 -5.6629 18.6383)" fill="#286784" cx="203.3" cy="71.9" rx="12" ry="6.9"/>
				
					<ellipse transform="matrix(0.9959 -9.024590e-02 9.024590e-02 0.9959 -6.4449 17.8868)" fill="#286784" cx="194.6" cy="80.2" rx="12" ry="6.9"/>
				
					<ellipse transform="matrix(0.9959 -9.024590e-02 9.024590e-02 0.9959 -6.7528 19.0671)" fill="#286784" cx="207.5" cy="84.2" rx="12" ry="6.9"/>
			</g>
			<g>
				
					<ellipse transform="matrix(0.9959 -9.024590e-02 9.024590e-02 0.9959 -5.778 17.1516)" fill="#4997B2" cx="186.8" cy="72.5" rx="12" ry="6.9"/>
				
					<ellipse transform="matrix(0.9959 -9.024590e-02 9.024590e-02 0.9959 -5.8513 18.5428)" fill="#4997B2" cx="202.1" cy="74" rx="12" ry="6.9"/>
				
					<ellipse transform="matrix(0.9959 -9.024590e-02 9.024590e-02 0.9959 -6.6333 17.7914)" fill="#4997B2" cx="193.4" cy="82.2" rx="12" ry="6.9"/>
				
					<ellipse transform="matrix(0.9959 -9.024590e-02 9.024590e-02 0.9959 -6.9412 18.9717)" fill="#4997B2" cx="206.3" cy="86.2" rx="12" ry="6.9"/>
			</g>
		</g>
		<path fill="#F1F2F2" d="M164.8,70.1c0-2.9,11.6-5.9,12.7,0.4c-1,2.3-2,4.4-2,4.4s-1.4-4.1-5.5-3.8s-6.1,5.5-6.1,5.5L164.8,70.1z"
			/>
	</g>
	<g>
		<path fill="#FFFFFF" d="M214.1,125.2c0.1-1.5-0.1-2.7-0.6-3.8c-3.5-14.8-20.5-16.8-34.1-13.1c-0.6,0.2-1.1,0.4-1.7,0.7
			c-1.4-1.2-3.2-2-5.1-1.9c-3.9,0.2-7.8,0.4-11.8,0.6c-0.9,0-1.8,0.2-2.7,0.5c-0.3-0.2-0.7-0.4-1.1-0.6c-1.1-0.7-2.5-1-4.1-1
			c-3.8,0-7.6,0-11.4,0c-2.3,0-4.1,0.9-5.5,2.3c-1.3-0.9-2.9-1.5-4.6-1.4c-3.6,0.1-7.2,0.3-10.9,0.4c-4.5,0.2-8.1,3.6-8.1,8.1
			c-0.1,9.7-0.3,19.5-0.4,29.2c-0.1,4.3,3.7,8.3,8.1,8.1c3.3-0.1,6.5-0.2,9.8-0.3c1.9-0.1,3.7-0.7,5-1.8c1.5,1.9,3.8,3.2,6.3,3.1
			c3.2-0.1,6.4-0.3,9.6-0.4c1.7-0.1,3.2-0.6,4.5-1.4c2.6,0.3,5.1,0.5,7.7,0.8c1.2,0.1,2.4-0.2,3.5-0.8c1.1,0.6,2.4,0.9,3.6,0.8
			c2.1-0.3,4.2-0.5,6.3-0.8c1.3,1,3,1.6,4.7,1.6c3.3,0,6.6,0,9.9,0c4.4,0,8.1-3.7,8.1-8.1c0-1,0-2,0-3c6.9-2,12.2-6.4,14.1-13.7
			C214,128,214.2,126.7,214.1,125.2z"/>
		<text transform="matrix(1 0 0 1 119.2745 145.5423)" fill="#6F9010" font-family="'LuckiestGuy-Regular'" font-size="43.3156">MAP</text>
	</g>
	<g>
		<g>
			<g>
				<path opacity="0.4" fill="#231F20" d="M235,95.9c-30,2.2-33.1,14.7,2.2,13.6S257.5,94.2,235,95.9z"/>
				<path opacity="0.4" fill="#231F20" d="M274.8,104.4c-26.3,1.2-28.9,7.7,1.9,7.2C307.5,111,294.4,103.5,274.8,104.4z"/>
				<path fill="#FFFFFF" d="M245.9,49.2c-0.4-0.7-1.4-1-2.2-0.6c-2.2,1.4-3.7,3.6-5,5.8c-1.4,2.4-2.8,4.9-3.8,7.5
					c-2.2,5.2-3.6,10.7-4.5,16.2c-0.6,3.8-1,7.6-0.9,11.4c0,2.1,0.3,4.1,0.6,6.2c0.1,0.9,0.3,1.7,0.6,2.5c0.1,0.4,0.2,0.8,0.4,1.2
					c0.1,0.2,0.1,0.3,0.2,0.5c0.2,0.8,0.6,1.4,1.1,2c1.1,1.2,3.3,1.5,4.6,0.6c0.8-0.5,1.6-1.3,1.8-2.3c0.1-0.8,0.2-1.7-0.2-2.4
					c-0.1-0.1-0.1-0.3-0.2-0.4c-0.1-0.3-0.3-0.5-0.4-0.8c-0.7-1.8-1.1-3.8-1.4-5.7c-0.6-5.3-0.3-10.8,0.4-16.1
					c0.6-4.7,1.7-9.2,3.3-13.7c0.2-0.5,0.4-1.1,0.6-1.6c0.1-0.3,0.2-0.5,0.3-0.8c0,0,0,0,0-0.1c0-0.1,0.1-0.2,0.1-0.3
					c0.4-0.9,0.8-1.8,1.2-2.7c0.4-0.9,0.9-1.8,1.5-2.7c0.1-0.2,0.3-0.4,0.4-0.6c0,0,0.1-0.1,0.1-0.1c-0.1,0.1,0.1-0.2,0.2-0.2
					c0.3-0.4,0.7-0.7,1.1-1.1C246.2,50.6,246.2,49.7,245.9,49.2z"/>
				<path fill="#A7A9AC" d="M230.1,95.8c0.1,0.9,0.3,1.7,0.6,2.5c0.1,0.4,0.2,0.8,0.4,1.2c0.1,0.2,0.1,0.3,0.2,0.5
					c0.2,0.8,0.6,1.4,1.1,2c0.1,0.1,0.2,0.2,0.3,0.2c0.2,0,0.3,0.1,0.4,0.3l0,0c0.2,0.1,0.4,0.2,0.7,0.3l0,0
					c1.9,0.3-0.1-2.7-0.5-5.8c-0.8-5.9,0.1-31,3.1-34.9c0,0,0.5-2.3,0.6-4.5c-0.1,0.2-0.2,0.3-0.3,0.5c0,0,0,0,0,0
					c-0.1,0.1-0.2,0.3-0.2,0.5c0,0,0,0.1,0,0.1c-0.1,0.1-0.1,0.3-0.2,0.4c0,0,0,0.1-0.1,0.1c-0.1,0.1-0.1,0.3-0.2,0.4
					c0,0,0,0.1-0.1,0.1c-0.1,0.1-0.1,0.2-0.2,0.4c0,0.1,0,0.1-0.1,0.2c-0.1,0.1-0.1,0.2-0.2,0.3c0,0.1,0,0.1-0.1,0.2
					c-0.1,0.1-0.1,0.2-0.2,0.4c0,0.1,0,0.1-0.1,0.2c-0.1,0.2-0.1,0.3-0.2,0.5c-2.2,5.2-3.6,10.7-4.5,16.2c-0.6,3.8-1,7.6-0.9,11.4
					C229.5,91.7,229.7,93.7,230.1,95.8z"/>
				<path fill="#A7A9AC" d="M237.4,56.8c-0.9,1.6-1.7,3.2-2.4,4.8c0.9,1.7,2.4,3.8,3.8,4.1c0.4-1.5,0.9-3,1.4-4.5
					c0.2-0.5,0.4-1.1,0.6-1.6c0.1-0.2,0.2-0.5,0.3-0.7L237.4,56.8z"/>
				<g>
					<path fill="#FFFFFF" d="M253.1,75c-1.2-0.8-3.2,0-4.3,0.7c-1.1,0.6-2.2,1.4-3.1,2.4c-1.8,1.8-3.3,3.9-4.6,6
						c-0.9,1.5-1.7,3-2.4,4.6c-0.9,2.1-1.7,4.1-2.1,6.4c-0.2,0.8-0.3,1.6-0.3,2.5c-0.1,0.8,0,1.7,0.2,2.5c0.3,1.9,1.4,4.1,3.4,4.5
						c0.8,0.2,1.6,0.1,2.4-0.3c0.9-0.5,1.7-1.6,1.5-2.7c0-0.3,0-0.8-0.1-1.1c-0.1-0.3-0.3-0.7-0.4-1c-0.1-0.3-0.3-0.5-0.4-0.7
						c0.1,0.3,0.2,0.5,0.3,0.8c-0.2-0.5-0.3-1-0.4-1.5c0,0.3,0.1,0.6,0.1,0.9c-0.1-1-0.1-2,0.1-2.9c0,0.3-0.1,0.6-0.1,0.9
						c0.3-2.4,1.1-4.7,2-6.9c-0.1,0.2-0.2,0.5-0.3,0.7c1-2.4,2.3-4.7,3.7-6.9c0.2-0.3,0.4-0.6,0.6-0.9c0.1-0.2,0.2-0.3,0.3-0.5
						c0.4-0.6-0.3,0.4,0,0c0.5-0.6,1-1.2,1.5-1.8c0.5-0.6,1.1-1,1.6-1.6c0.6-0.7,1.4-1.1,1.6-2C254,76.1,253.7,75.4,253.1,75
						L253.1,75z"/>
				</g>
				<path fill="#A7A9AC" d="M243.7,80.3c-0.9,1.2-1.8,2.5-2.6,3.7c0,0,0,0,0,0c1,2,2.3,4.5,3.8,5.7c0.6-1.3,1.2-2.5,1.9-3.7
					C245.8,84.1,244.6,81.9,243.7,80.3z"/>
				<g>
					<path fill="#FFFFFF" d="M217.3,75.5c0.2,0.2-0.3-0.3-0.1-0.1C217.2,75.4,217.3,75.5,217.3,75.5C217.5,75.8,217,75.2,217.3,75.5
						c0,0,0,0.1,0.1,0.1c0.1,0.1,0.2,0.2,0.3,0.3c-0.2-0.3-0.3-0.4-0.2-0.2c0,0,0.1,0.1,0.1,0.1c0.1,0.1,0.1,0.2,0.2,0.2
						c0.1,0.2,0.3,0.4,0.4,0.6c0.6,1.1,1.2,2.3,1.7,3.4c0.3,0.7,0.7,1.4,1,2.2c0,0.1,0.1,0.2,0.1,0.3c0.2,0.4-0.2-0.6-0.1-0.2
						c0.1,0.2,0.2,0.4,0.2,0.6c0.2,0.4,0.3,0.8,0.5,1.3c0.7,1.7,1.3,3.5,1.9,5.2c1.3,3.6,2.4,7.4,2.9,11.2c0-0.3-0.1-0.5-0.1-0.8
						c0.1,0.6,0.2,1.1,0.2,1.7c0-0.3-0.1-0.5-0.1-0.8c0.1,1.1,0.2,2.2,0.3,3.2c0-0.2-0.1-0.5-0.1-0.7c0,0.1,0,0.2,0,0.3
						c0.1,1.2,0.7,2.3,2,2.6c1.4,0.4,2.9-0.5,3.3-1.9c0.5-1.6,0.2-3.4,0-5c-0.3-1.6-0.7-3.2-1.2-4.7c-1.1-3.7-2.5-7.4-4.2-10.9
						c-1.2-2.5-2.4-4.9-4-7.2c-0.6-0.9-1.3-1.7-2.1-2.5c-0.1-0.1-0.3-0.2-0.4-0.3c-0.1-0.1-0.3-0.2-0.4-0.3c0.6,0.5,0.1,0-0.1-0.1
						c-0.1,0-0.1-0.1-0.2-0.1c-0.5-0.2-0.9-0.4-1.4-0.4C216.5,72.8,216.2,74.8,217.3,75.5L217.3,75.5z"/>
				</g>
				<path fill="#C563AE" d="M253.9,36c5.9,2.9,10.7,22.8,2.1,29.6c-8.6,6.8-13.8-0.4-17.3-5.3c-3.5-4.9-12.5,1-13.9-8.4
					C223.6,43.7,249.8,34,253.9,36z"/>
				<path fill="#A7A9AC" d="M226.5,83.7c-0.8-1.7-1.7-3.4-2.6-5.1l-3,4.1c0,0.1,0.1,0.2,0.1,0.3c0.2,0.4,0.3,0.8,0.5,1.3
					c0.3,0.9,0.7,1.7,1,2.6c2,0,3.9-0.1,5.2-0.5C227.4,85.5,227,84.6,226.5,83.7z"/>
				<path fill="#C563AE" d="M202.3,82.8c0-15.2,4.3-34.8,19.8-23.3s20.8,17.9,13,21.6S202.3,90.2,202.3,82.8z"/>
				<path fill="#C563AE" d="M247.4,70.7c5.4-0.6,16.1-1.5,11.1,11c-5.1,12.5-13.2,9.5-16.5-1.8S242.7,71.3,247.4,70.7z"/>
			</g>
			<path fill="#FFFFFF" d="M270.7,96.4c-0.6,4.3-5.6,5.4-6,9.1c-0.4,3.7,13.1,5.3,12.8,0c-0.4-5.3-3.2-8.2-3.2-9.1"/>
			<path fill="#A7A9AC" d="M268.2,100.6c2.2,0.4,5.7,0.9,8.2,0.5c-0.8-2.2-1.9-3.7-2.2-4.4c-0.6-0.2-1-0.3-1-0.3h-2.6
				C270.5,98.2,269.4,99.5,268.2,100.6z"/>
			<path fill="#C563AE" d="M274.3,86.5c-5.6-0.3-23.4,2.7-21.1,8.8c2.3,6,45.7,4.3,42.2-2.9C295.4,92.4,281.1,87,274.3,86.5z"/>
			<path fill="#0E3173" d="M253.9,36c-2.1-1-10.4,1.2-17.5,4.7c3.8,6.1,9,7.9,12.3,7.7c2.6-0.2,7.4,2.4,12,3.1
				C260.1,44.5,257.2,37.6,253.9,36z"/>
			<path fill="#0E3173" d="M274.3,86.5c-2.6-0.2-7.8,0.4-12.4,1.7c0.1,2,1.7,2.4,5.3,1.6c5.3-1.2,8.4,1.2,11.7,0.4
				c1.2-0.3,2.4-1.1,3.3-2.1C279.3,87.3,276.4,86.7,274.3,86.5z"/>
			<path fill="#0E3173" d="M248.8,70.5c-0.8,1.9,0.1,4.2,1.5,4.5c1.8,0.4,5.1,7.5,6.8,6.6c0.5-0.3,1.3-1,2.1-1.8
				C262.1,70.2,254.1,70,248.8,70.5z"/>
			<path fill="#0E3173" d="M210.8,71.3c2.7-5,8.2-4.2,11.9-6.4c1.1-0.7,2.2-1.6,3.2-2.6c-1.2-0.9-2.4-1.8-3.7-2.8
				c-12.1-8.9-17.4,1-19.1,13C206,73.9,209.4,73.8,210.8,71.3z"/>
			<path fill="#A7A9AC" d="M239.8,104.5c0.5,0.1,1,0.1,1.5,0c-1.4-1.1-2.9-2.7-3.2-4.9c-0.7-4.4,2.5-13.3,5.2-14.6l-1.9-1.4
				c-0.1,0.1-0.2,0.3-0.3,0.4c-0.9,1.5-1.7,3-2.4,4.6c-0.9,2.1-1.7,4.1-2.1,6.4c-0.2,0.8-0.3,1.6-0.3,2.5c-0.1,0.8,0,1.7,0.2,2.5
				C236.6,101.9,237.7,104.1,239.8,104.5z"/>
			<g>
				<path fill="#FFFFFF" d="M259.8,89.6c4.3,0,3.8,5.4-0.1,5.4S255.5,89.6,259.8,89.6z"/>
				<path fill="#EF4136" d="M261.9,91.9c0-0.6-0.5-1.2-1.1-1.2c-0.4,0-0.8,0.3-1,0.6c0,0,0,0,0,0c-0.2-0.4-0.6-0.6-1-0.6
					c-0.6,0-1.1,0.5-1.1,1.2c0,0.9,2.3,2.4,2.3,2.4c0,0,0,0,0,0C259.9,94.3,261.9,93,261.9,91.9z"/>
			</g>
			<g>
				<path fill="#FFFFFF" d="M269.8,87.6c4.3,0,3.8,5.4-0.1,5.4S265.5,87.6,269.8,87.6z"/>
				<path fill="#EF4136" d="M271.9,89.9c0-0.6-0.5-1.2-1.1-1.2c-0.4,0-0.8,0.3-1,0.6c0,0,0,0,0,0c-0.2-0.4-0.6-0.6-1-0.6
					c-0.6,0-1.1,0.5-1.1,1.2c0,0.9,2.3,2.4,2.3,2.4c0,0,0,0,0,0C269.8,92.3,271.9,91,271.9,89.9z"/>
			</g>
			<g>
				<path fill="#FFFFFF" d="M282.3,90.4c4.3,0,3.8,5.4-0.1,5.4C278.3,95.8,278,90.4,282.3,90.4z"/>
				<path fill="#EF4136" d="M284.4,92.7c0-0.6-0.5-1.2-1.1-1.2c-0.4,0-0.8,0.3-1,0.6c0,0,0,0,0,0c-0.2-0.4-0.6-0.6-1-0.6
					c-0.6,0-1.1,0.5-1.1,1.2c0,0.9,2.3,2.4,2.3,2.4c0,0,0,0,0,0C282.3,95.1,284.4,93.7,284.4,92.7z"/>
			</g>
			<g>
				<path fill="#FFFFFF" d="M235.1,46.2c5.1,0,4.5,6.4-0.1,6.4S230,46.2,235.1,46.2z"/>
				<path fill="#EF4136" d="M237.6,48.9c0-0.8-0.6-1.4-1.4-1.4c-0.5,0-1,0.3-1.2,0.7c0,0,0,0-0.1,0c-0.2-0.4-0.7-0.7-1.2-0.7
					c-0.7,0-1.4,0.6-1.4,1.4c0,1.1,2.7,2.8,2.7,2.8c0,0,0,0,0,0C235.1,51.7,237.6,50.1,237.6,48.9z"/>
			</g>
			<g>
				<path fill="#FFFFFF" d="M245.6,39.2c5.1,0,4.5,6.4-0.1,6.4S240.5,39.2,245.6,39.2z"/>
				<path fill="#EF4136" d="M248,41.9c0-0.8-0.6-1.4-1.4-1.4c-0.5,0-1,0.3-1.2,0.7c0,0,0,0-0.1,0c-0.2-0.4-0.7-0.7-1.2-0.7
					c-0.7,0-1.4,0.6-1.4,1.4c0,1.1,2.7,2.8,2.7,2.8c0,0,0,0,0,0C245.6,44.8,248,43.2,248,41.9z"/>
			</g>
			<g>
				<path fill="#FFFFFF" d="M251.5,56c4.8,1.9,1.8,7.6-2.4,5.9C244.8,60.3,246.8,54.1,251.5,56z"/>
				<path fill="#EF4136" d="M252.9,59.5c0.3-0.7-0.1-1.5-0.8-1.8c-0.5-0.2-1-0.1-1.4,0.2c0,0,0,0,0,0c-0.1-0.5-0.4-0.9-0.8-1.1
					c-0.7-0.3-1.5,0.1-1.8,0.8c-0.4,1,1.5,3.6,1.5,3.6c0,0,0,0,0,0C249.5,61.2,252.4,60.6,252.9,59.5z"/>
			</g>
			<g>
				<path fill="#FFFFFF" d="M226.1,69.8c5.1-0.6,5.2,5.9,0.6,6.4C222.1,76.7,221,70.4,226.1,69.8z"/>
				<path fill="#EF4136" d="M228.9,72.2c-0.1-0.7-0.8-1.3-1.5-1.2c-0.5,0.1-0.9,0.4-1.1,0.9c0,0,0,0-0.1,0c-0.3-0.4-0.8-0.7-1.3-0.6
					c-0.7,0.1-1.3,0.8-1.2,1.5c0.1,1.1,3,2.5,3,2.5c0,0,0,0,0,0C226.8,75.3,229,73.5,228.9,72.2z"/>
			</g>
			<g>
				<path fill="#FFFFFF" d="M215.1,60.1c5.1-0.6,5.2,5.9,0.6,6.4C211.2,67,210.1,60.6,215.1,60.1z"/>
				<path fill="#EF4136" d="M217.9,62.5c-0.1-0.7-0.8-1.3-1.5-1.2c-0.5,0.1-0.9,0.4-1.1,0.9c0,0,0,0-0.1,0c-0.3-0.4-0.8-0.7-1.3-0.6
					c-0.7,0.1-1.3,0.8-1.2,1.5c0.1,1.1,3,2.5,3,2.5c0,0,0,0,0,0C215.8,65.6,218,63.7,217.9,62.5z"/>
			</g>
			<g>
				<path fill="#FFFFFF" d="M208.6,69.9c5.1-0.6,5.2,5.9,0.6,6.4C204.7,76.8,203.6,70.5,208.6,69.9z"/>
				<path fill="#EF4136" d="M211.4,72.3c-0.1-0.7-0.8-1.3-1.5-1.2c-0.5,0.1-0.9,0.4-1.1,0.9c0,0,0,0-0.1,0c-0.3-0.4-0.8-0.7-1.3-0.6
					c-0.7,0.1-1.3,0.8-1.2,1.5c0.1,1.1,3,2.5,3,2.5c0,0,0,0,0,0C209.3,75.4,211.6,73.6,211.4,72.3z"/>
			</g>
			<g>
				<path fill="#FFFFFF" d="M217.6,77.6c5.1-0.6,5.2,5.9,0.6,6.4C213.6,84.5,212.6,78.2,217.6,77.6z"/>
				<path fill="#EF4136" d="M220.4,80.1c-0.1-0.7-0.8-1.3-1.5-1.2c-0.5,0.1-0.9,0.4-1.1,0.9c0,0,0,0-0.1,0c-0.3-0.4-0.8-0.7-1.3-0.6
					c-0.7,0.1-1.3,0.8-1.2,1.5c0.1,1.1,3,2.5,3,2.5c0,0,0,0,0,0C218.3,83.1,220.5,81.3,220.4,80.1z"/>
			</g>
			<g>
				<path fill="#FFFFFF" d="M254.3,81.7c2.7,4.4-3.1,7.2-5.5,3.3C246.4,81.1,251.7,77.4,254.3,81.7z"/>
				<path fill="#EF4136" d="M253.3,85.3c0.6-0.4,0.8-1.2,0.4-1.9c-0.3-0.4-0.8-0.7-1.3-0.6c0,0,0,0,0,0c0.3-0.4,0.3-1,0-1.4
					c-0.4-0.6-1.2-0.8-1.9-0.4c-0.9,0.6-1,3.8-1,3.8c0,0,0,0,0,0C249.6,84.7,252.3,86,253.3,85.3z"/>
			</g>
			<g>
				<path fill="#FFFFFF" d="M251.5,72.9c4.1,3-0.2,7.8-3.9,5.1C244,75.3,247.4,69.9,251.5,72.9z"/>
				<path fill="#EF4136" d="M251.9,76.6c0.4-0.6,0.3-1.5-0.3-1.9c-0.4-0.3-1-0.3-1.4-0.1c0,0,0,0,0,0c0.1-0.5-0.1-1-0.5-1.3
					c-0.6-0.4-1.5-0.3-1.9,0.3c-0.7,0.9,0.5,3.9,0.5,3.9c0,0,0,0,0,0C248.3,77.4,251.2,77.6,251.9,76.6z"/>
			</g>
		</g>
	</g>
	<g>
		<g>
			<g>
				<rect x="92.6" y="64.5" fill="#A56637" width="2.7" height="14.6"/>
				<rect x="92.5" y="64.5" fill="#754C29" width="1.5" height="14.6"/>
				<path fill="#006838" d="M107.7,52.8c2.5-1.8,4.1-4.6,4.1-7.9c0-5.1-4-9.2-9.1-9.7c0-0.2,0-0.5,0-0.7c0-5.4-4.5-9.7-10.1-9.7
					c-5.6,0-10.1,4.4-10.1,9.7c0,1.7,0.4,3.2,1.2,4.6c-4.9,0.7-8.6,4.7-8.6,9.6c0,3.1,1.5,5.8,3.8,7.6c-0.2,0.7-0.3,1.4-0.3,2.2
					c0,5.4,4.5,9.7,10.1,9.7c2.1,0,4-0.6,5.6-1.6c1.8,2.7,4.9,4.4,8.5,4.4c5.6,0,10.1-4.4,10.1-9.7
					C112.9,57.7,110.8,54.5,107.7,52.8z"/>
				<ellipse fill="#9CB729" cx="92.1" cy="30.1" rx="3.3" ry="2.4"/>
				<path fill="#9CB729" d="M85.8,43.4c0.4,1.3-0.7,2.7-2.5,3.2c-1.7,0.5-3.5-0.1-3.8-1.4c-0.4-1.3,0.7-2.7,2.5-3.2
					C83.7,41.5,85.4,42.1,85.8,43.4z"/>
				<path fill="#9CB729" d="M107.1,44.4c-1.1,0.8-2.8,0.4-4-1c-1.1-1.4-1.2-3.2-0.2-4.1c1.1-0.8,2.8-0.4,4,1
					C108.1,41.7,108.2,43.5,107.1,44.4z"/>
				<path fill="#9CB729" d="M108.6,63.4c-1.3,0.3-2.7-0.9-3.1-2.7c-0.4-1.8,0.4-3.4,1.7-3.7c1.3-0.3,2.7,0.9,3.1,2.7
					C110.7,61.4,109.9,63.1,108.6,63.4z"/>
			</g>
			<path fill="#9CB729" d="M90.9,52.8c2.5-1.8,4.1-4.6,4.1-7.9c0-5.1-4-9.2-9.1-9.7c0-0.2,0-0.5,0-0.7c0-2-0.6-3.8-1.6-5.3
				c-1,1.5-1.6,3.4-1.6,5.3c0,1.7,0.4,3.2,1.2,4.6c-4.9,0.7-8.6,4.7-8.6,9.6c0,3.1,1.5,5.8,3.8,7.6c-0.2,0.7-0.3,1.4-0.3,2.2
				c0,5.4,4.5,9.7,10.1,9.7c2.1,0,4-0.6,5.6-1.6c0,0,0,0,0,0c1-1.5,1.6-3.4,1.6-5.3C96.1,57.7,94,54.5,90.9,52.8z"/>
			<g>
				<rect x="72.2" y="64.5" fill="#A56637" width="2.7" height="14.6"/>
				<rect x="72.1" y="64.5" fill="#754C29" width="1.5" height="14.6"/>
				<path fill="#006838" d="M87.4,52.8c2.5-1.8,4.1-4.6,4.1-7.9c0-5.1-4-9.2-9.1-9.7c0-0.2,0-0.5,0-0.7c0-5.4-4.5-9.7-10.1-9.7
					c-5.6,0-10.1,4.4-10.1,9.7c0,1.7,0.4,3.2,1.2,4.6c-4.9,0.7-8.6,4.7-8.6,9.6c0,3.1,1.5,5.8,3.8,7.6c-0.2,0.7-0.3,1.4-0.3,2.2
					c0,5.4,4.5,9.7,10.1,9.7c2.1,0,4-0.6,5.6-1.6c1.8,2.7,4.9,4.4,8.5,4.4c5.6,0,10.1-4.4,10.1-9.7C92.5,57.7,90.4,54.5,87.4,52.8z"
					/>
				<ellipse fill="#9CB729" cx="71.7" cy="30.1" rx="3.3" ry="2.4"/>
				<path fill="#9CB729" d="M65.4,43.4c0.4,1.3-0.7,2.7-2.5,3.2c-1.7,0.5-3.5-0.1-3.8-1.4c-0.4-1.3,0.7-2.7,2.5-3.2
					C63.3,41.5,65,42.1,65.4,43.4z"/>
				<path fill="#9CB729" d="M86.8,44.4c-1.1,0.8-2.8,0.4-4-1c-1.1-1.4-1.2-3.2-0.2-4.1c1.1-0.8,2.8-0.4,4,1
					C87.7,41.7,87.8,43.5,86.8,44.4z"/>
				<path fill="#9CB729" d="M88.2,63.4c-1.3,0.3-2.7-0.9-3.1-2.7c-0.4-1.8,0.4-3.4,1.7-3.7c1.3-0.3,2.7,0.9,3.1,2.7
					C90.3,61.4,89.5,63.1,88.2,63.4z"/>
			</g>
			<path fill="#9CB729" d="M71.2,52.8c2.5-1.8,4.1-4.6,4.1-7.9c0-5.1-4-9.2-9.1-9.7c0-0.2,0-0.5,0-0.7c0-2.2-0.7-4.2-2-5.8
				c-1.3,1.6-2,3.6-2,5.8c0,1.7,0.4,3.2,1.2,4.6c-4.9,0.7-8.6,4.7-8.6,9.6c0,3.1,1.5,5.8,3.8,7.6c-0.2,0.7-0.3,1.4-0.3,2.2
				c0,5.4,4.5,9.7,10.1,9.7c2.1,0,4-0.6,5.6-1.6c0.1,0.2,0.2,0.3,0.4,0.5c1.3-1.6,2-3.6,2-5.8C76.4,57.7,74.3,54.5,71.2,52.8z"/>
			<g>
				<ellipse fill="#006838" cx="45.2" cy="48.8" rx="10.1" ry="9.7"/>
				<rect x="52.5" y="64.5" fill="#A56637" width="2.7" height="14.6"/>
				<rect x="52.4" y="64.5" fill="#754C29" width="1.5" height="14.6"/>
				<ellipse fill="#006838" cx="62.8" cy="61.4" rx="10.1" ry="9.7"/>
				<ellipse fill="#006838" cx="48.7" cy="58.6" rx="10.1" ry="9.7"/>
				<ellipse fill="#006838" cx="52.6" cy="34.6" rx="10.1" ry="9.7"/>
				<ellipse fill="#006838" cx="61.7" cy="45" rx="10.1" ry="9.7"/>
				<ellipse fill="#9CB729" cx="52" cy="30.1" rx="3.3" ry="2.4"/>
				<path fill="#9CB729" d="M45.7,43.4c0.4,1.3-0.7,2.7-2.5,3.2c-1.7,0.5-3.5-0.1-3.8-1.4C39,44,40.1,42.5,41.9,42
					C43.6,41.5,45.3,42.1,45.7,43.4z"/>
				<path fill="#9CB729" d="M67.1,44.4c-1.1,0.8-2.8,0.4-4-1c-1.1-1.4-1.2-3.2-0.2-4.1c1.1-0.8,2.8-0.4,4,1
					C68,41.7,68.1,43.5,67.1,44.4z"/>
				<path fill="#9CB729" d="M68.5,63.4c-1.3,0.3-2.7-0.9-3.1-2.7c-0.4-1.8,0.4-3.4,1.7-3.7s2.7,0.9,3.1,2.7
					C70.6,61.4,69.8,63.1,68.5,63.4z"/>
			</g>
		</g>
		<polygon opacity="0.4" fill="#231F20" points="83.2,90.1 77.3,90.1 92.5,79.1 95.2,79.1 		"/>
		<polygon opacity="0.4" fill="#231F20" points="63.1,90.1 57.1,90.1 72.3,79.1 75.1,79.1 		"/>
		<polygon opacity="0.4" fill="#231F20" points="43.6,90.1 37.7,90.1 52.8,79.1 55.6,79.1 		"/>
	</g>
</g>
<g>
	<defs>
		<rect id="SVGID_3_" x="-33.1" y="1029.4" width="1202.3" height="679.5"/>
	</defs>
	<clipPath id="SVGID_2_">
		<use xlink:href="#SVGID_3_"  overflow="visible"/>
	</clipPath>
	<g clip-path="url(#SVGID_2_)">
		<path opacity="0.4" fill="#231F20" d="M1149.3,993.2c0.1-0.7,0.1-1.5,0.1-2.2c0-0.8,0-1.6-0.1-2.3c-0.8-17.8-5.7-34.5-14.3-50.1
			c-7-115.6-15.4-231.8-33.5-346.2c-4.2-26.5-7.3-57.3-20.3-81.3c-12.9-23.7-46.8-29.9-70.9-34.5c-93.2-17.8-187.4-31.4-281.6-42.4
			c-149-17.4-302.6-30.5-452.3-13.3c-40.9,4.7-81.8,11.7-120.8,25.3c-29,10.1-56.7,23.9-77.9,45.1c-4.5-11.2-11.6-20.5-24.5-26.1
			C36.9,458,19.5,454,2.1,450.7c-56.1-10.7-113.6-14.8-170.6-18c-144.1-8.1-290.3-7.2-434,8.3c-53.5,5.8-109.2,12.4-160.1,31.1
			c-16.5,6.1-33.6,13.6-46.2,26.3c-19.4,19.6-27.2,51.9-34.5,77.5c-13,45.5-21.8,92.2-29.7,138.7c-9.8,57.4-17.5,115.1-24.1,173
			c-45.2,11.1-89.3,48.4-102.9,91.9c-18,57.6,29.8,115.1,84.5,128.5c-6.4,117.9-8.8,237.5,7.1,354.7c5.4,39.6,13.1,80.5,31.5,116.5
			c11.4,22.3,28.9,37,51.3,47.5c51.3,24.1,109.6,33.5,165.2,41.5c76.6,11,153.9,16.6,231.1,19.6c79,3.1,158.1,3.1,237.1-0.1
			c63.1-2.6,126.8-6.8,189-17.9c18.4-3.3,37-7.2,54.5-14c8.6-3.4,16.3-7.1,23.5-13.1c10.5-8.8,16.9-22.8,21.3-37.3
			c59,61.8,149.4,92.2,230,110.7c121.4,27.9,247,27.5,370.7,19.3c60.7-4,121.3-10.9,181.2-21.6c47.7-8.6,95.4-19.8,140.4-37.8
			c31.9-12.8,64.9-29.1,86.3-57c17.4-22.6,22.3-54.4,26.6-81.7c11.7-73.4,13.4-148.5,14.3-222.7c1.1-94.2-1.5-188.5-5.8-282.6
			C1145.4,1019.6,1148.7,1006.9,1149.3,993.2z"/>
		<g>
			<g>
				<path fill="#631E3A" d="M1076,567c16.3,3.7,47.9,9.2,59.1,25.4c43.7,63.9,105.7,999.3,29.9,1119.2
					c-50.2,79.5-305.4,124-569.8,122.6c-236.5-1.2-488.7-82.3-493.6-236.8c-7-222.1,1.3-410.6,1.3-410.6s-85.6-513.6,30.6-614.2
					C312.4,417.7,1076,567,1076,567z"/>
				<g>
					<path fill="#FFCD8A" d="M149.3,1547.8c-57.8,322.3,914.4,281.3,996.1,123c35.7-69.2,12.7-950.2-26.7-1000.6
						c-39.3-50.4-161.7-72.3-161.7-72.3"/>
					<g>
						<path fill="#FFCD8A" d="M147.5,1547.3c-7.3,41.4,2.9,81.8,29.6,114.3c30.1,36.5,74.3,59.7,117.6,76.6
							c56.4,22,116.4,34.3,176.3,42.5c67.2,9.2,135.2,12.6,203.1,12c66.6-0.6,133.3-5.2,199.3-14.4c55.7-7.8,111.5-18.7,164.8-36.9
							c20.4-7,40.5-15.1,59.4-25.6c14.3-7.9,28.4-17.4,39.3-29.7c7.6-8.6,12.2-17.6,14.6-28.7c3.4-15.5,5-31.5,6.3-47.3
							c4.7-53.4,5.8-107.2,6.5-160.8c1-71.5,0.5-143-0.8-214.5c-1.4-75.4-3.7-150.8-7.1-226.1c-2.9-65.3-6.6-130.6-12.3-195.7
							c-3.6-41-6.5-83.3-16.3-123.4c-1.2-5.1-2.6-10.1-4.7-14.9c-3.4-8-10.4-14.1-16.9-19.6c-30.2-25.6-70.9-39-108.4-49.4
							c-13.3-3.7-26.8-7-40.4-9.5c-2.3-0.4-3.4,3.2-1,3.6c25.4,4.6,50.5,11.7,74.8,20.2c20,7,39.7,15.6,57.6,26.9
							c8.3,5.2,16.1,11.2,22.9,18.3c2.6,2.7,5.2,5.4,7,8.7c5.2,9.9,7,22.2,9,33.1c3.7,19.9,6.1,40,8.3,60.1
							c6.5,59.4,10.3,119.1,13.6,178.7c4,73.8,6.8,147.7,8.7,221.5c1.9,74.1,3,148.2,2.8,222.3c-0.2,60.3-0.9,120.7-4.2,181
							c-1.1,20.7-2.6,41.3-5.1,61.9c-1.5,11.8-2.8,24.4-7.3,35.5c-4.8,11.9-15.9,22.1-26,29.8c-15.1,11.6-32.3,20.3-49.7,27.8
							c-48.1,20.8-100.2,32.7-151.6,41.9c-64.3,11.5-129.5,17.7-194.7,20.2c-68.5,2.7-137.2,1.2-205.5-5.5
							c-62.7-6.1-125.4-16.5-185.7-35.3c-47.7-14.9-96.2-35.4-133.7-69.3c-30.9-27.9-50.3-65.4-49-107.6c0.2-7.3,1.1-14.6,2.3-21.8
							C151.6,1545.9,148,1544.9,147.5,1547.3L147.5,1547.3z"/>
					</g>
				</g>
				<path fill="#631E3A" d="M98.8,563c39.3,58.8,94.9,1116.4,1.7,1178c-90.4,59.8-795.1,61.1-927.4-34.7
					c-132.2-95.8-35-1021.9,41.3-1118.4S60,505,98.8,563z"/>
				<path fill="#FFCD8A" d="M1060.1,606.7c39.3,54.2,126.6,983.5,33.4,1040.3c-90.4,55.1-761.7,72.9-893.9-15.3
					c-16.2-10.8-43.6-5.6-52.8-37.5c-71.9-248.6-54.9-919.7,12-997.8C235.1,507.4,1021.4,553.2,1060.1,606.7z"/>
				<path fill="#FFCD8A" d="M-785,609.6c-37.9,56.8-111.6,1012.9-21.9,1072.4c53.8,35.7,322.9,71.5,547.6,69
					c138.5-1.6,254.1-32,302.6-67.3C170.7,1591.2,156.1,692,82.7,598.8S-747.7,553.6-785,609.6z"/>
				<g>
					<path fill="#F9AD5A" d="M50.2,1626.9c-62.9,18.7-128.5,28.2-193.8,34.4c-73,6.9-146.4,9.1-219.6,8.1
						c-68.8-0.9-137.7-4.7-206.2-12.1c-51.3-5.5-103.2-12.5-153.1-26.3c-14.9-4.1-30.2-8.8-43.8-16.5c-9.9-5.6-16.3-13.7-21.3-23.8
						c-7.1-14.5-11-30.6-14.1-46.3c-4.3-21.6-6.6-43.6-8.3-65.5c-4.4-57.2-4.1-114.7-2.5-172c1.8-67,5.8-133.8,10.9-200.6
						c5-66.1,11.1-132.1,17.8-198.1c5.6-54.8,11.8-109.6,18.4-164.3c4-33.1,8.2-66.3,12.6-99.4c0.7-5,1.4-10.1,2.1-15.2
						c0.3-2.3-3.3-3.4-3.6-1c-2.4,17.1-4.6,34.2-6.8,51.3c-5.7,44.2-11,88.5-16,132.8c-6.9,61.1-13.3,122.3-19,183.6
						c-6.2,67.6-11.6,135.3-15.5,203.1c-3.7,63.7-6.1,127.6-5.6,191.5c0.4,49.5,2,99.7,10.7,148.5c2.9,16.6,6.8,33.2,13.4,48.7
						c4.5,10.5,10.5,20.4,20,27c11.6,8.1,25.8,12.7,39.1,16.9c20.7,6.4,41.9,11,63.2,15c58.9,11,118.8,17.1,178.5,21.3
						c71.9,5,144.1,6.6,216.2,4.8c71.4-1.7,142.9-6.7,213.5-17.6c43.7-6.7,87.7-15.5,129.9-29.5c0.5-1.5,0.9-2.9,1.3-4.4
						C62.6,1623.1,56.4,1625.1,50.2,1626.9z"/>
				</g>
			</g>
			<path fill="#FCDDB9" d="M1035.9,634.8c28.8,39.8,85,577.4,67.5,841.5l-193.2,173.9c-221.3,22-594.9,15.3-687.7-46.6
				c-15.3-10.2-41.2-5.2-49.9-35.4c-68-235-51.9-869.3,11.3-943.1C256.1,541,999.2,584.3,1035.9,634.8z"/>
			<path fill="#FCDDB9" d="M-733.2,634.8c-34.5,51.2-111.2,929.6-29.4,983.3c79.4,52,669,68.9,785.2-14.5
				c14.2-10.2,38.3-5.2,46.4-35.4c63.2-235,48.3-869.3-10.5-943.1C-8.5,541-699.2,584.3-733.2,634.8z"/>
		</g>
	</g>
</g>
<g>
	<defs>
		<rect id="SVGID_5_" x="1433.9" y="1029.4" width="1202.3" height="679.5"/>
	</defs>
	<clipPath id="SVGID_4_">
		<use xlink:href="#SVGID_5_"  overflow="visible"/>
	</clipPath>
	<g clip-path="url(#SVGID_4_)">
		<path opacity="0.4" fill="#231F20" d="M2616.4,993.2c0.1-0.7,0.1-1.5,0.1-2.2c0-0.8,0-1.6-0.1-2.3c-0.8-17.8-5.7-34.5-14.3-50.1
			c-7-115.6-15.4-231.8-33.5-346.2c-4.2-26.5-7.3-57.3-20.3-81.3c-12.9-23.7-46.8-29.9-70.9-34.5c-93.2-17.8-187.4-31.4-281.6-42.4
			c-149-17.4-302.6-30.5-452.3-13.3c-40.9,4.7-81.8,11.7-120.8,25.3c-29,10.1-56.7,23.9-77.9,45.1c-4.5-11.2-11.6-20.5-24.5-26.1
			c-16.3-7.1-33.7-11.1-51.2-14.4c-56.1-10.7-113.6-14.8-170.6-18c-144.1-8.1-290.3-7.2-434,8.3c-53.5,5.8-109.2,12.4-160.1,31.1
			c-16.5,6.1-33.6,13.6-46.2,26.3c-19.4,19.6-27.2,51.9-34.5,77.5c-13,45.5-21.8,92.2-29.7,138.7c-9.8,57.4-17.5,115.1-24.1,173
			c-45.2,11.1-89.3,48.4-102.9,91.9c-18,57.6,29.8,115.1,84.5,128.5c-6.4,117.9-8.8,237.5,7.1,354.7c5.4,39.6,13.1,80.5,31.5,116.5
			c11.4,22.3,28.9,37,51.3,47.5c51.3,24.1,109.6,33.5,165.2,41.5c76.6,11,153.9,16.6,231.1,19.6c79,3.1,158.1,3.1,237.1-0.1
			c63.1-2.6,126.8-6.8,189-17.9c18.4-3.3,37-7.2,54.5-14c8.6-3.4,16.3-7.1,23.5-13.1c10.5-8.8,16.9-22.8,21.3-37.3
			c59,61.8,149.4,92.2,230,110.7c121.4,27.9,247,27.5,370.7,19.3c60.7-4,121.3-10.9,181.2-21.6c47.7-8.6,95.4-19.8,140.4-37.8
			c31.9-12.8,64.9-29.1,86.3-57c17.4-22.6,22.3-54.4,26.6-81.7c11.7-73.4,13.4-148.5,14.3-222.7c1.1-94.2-1.5-188.5-5.8-282.6
			C2612.5,1019.6,2615.7,1006.9,2616.4,993.2z"/>
		<g>
			<g>
				<path fill="#631E3A" d="M1565.9,563c39.3,58.8,94.9,1116.4,1.7,1178c-90.4,59.8-795.1,61.1-927.4-34.7
					c-132.2-95.8-35-1021.9,41.3-1118.4S1527.1,505,1565.9,563z"/>
				<path fill="#FFCD8A" d="M682.1,609.6c-37.9,56.8-111.6,1012.9-21.9,1072.4c53.8,35.7,322.9,71.5,547.6,69
					c138.5-1.6,254.1-32,302.6-67.3c127.3-92.5,112.7-991.7,39.3-1084.9C1476.3,505.6,719.4,553.6,682.1,609.6z"/>
				<g>
					<path fill="#F9AD5A" d="M1517.3,1626.9c-62.9,18.7-128.5,28.2-193.8,34.4c-73,6.9-146.4,9.1-219.6,8.1
						c-68.8-0.9-137.7-4.7-206.2-12.1c-51.3-5.5-103.2-12.5-153.1-26.3c-14.9-4.1-30.2-8.8-43.8-16.5c-9.9-5.6-16.3-13.7-21.3-23.8
						c-7.1-14.5-11-30.6-14.1-46.3c-4.3-21.6-6.6-43.6-8.3-65.5c-4.4-57.2-4.1-114.7-2.5-172c1.8-67,5.8-133.8,10.9-200.6
						c5-66.1,11.1-132.1,17.8-198.1c5.6-54.8,11.8-109.6,18.4-164.3c4-33.1,8.2-66.3,12.6-99.4c0.7-5,1.4-10.1,2.1-15.2
						c0.3-2.3-3.3-3.4-3.6-1c-2.4,17.1-4.6,34.2-6.8,51.3c-5.7,44.2-11,88.5-16,132.8c-6.9,61.1-13.3,122.3-19,183.6
						c-6.2,67.6-11.6,135.3-15.5,203.1c-3.7,63.7-6.1,127.6-5.6,191.5c0.4,49.5,2,99.7,10.7,148.5c2.9,16.6,6.8,33.2,13.4,48.7
						c4.5,10.5,10.5,20.4,20,27c11.6,8.1,25.8,12.7,39.1,16.9c20.7,6.4,41.9,11,63.2,15c58.9,11,118.8,17.1,178.5,21.3
						c71.9,5,144.1,6.6,216.2,4.8c71.4-1.7,142.9-6.7,213.5-17.6c43.7-6.7,87.7-15.5,129.9-29.5c0.5-1.5,0.9-2.9,1.3-4.4
						C1529.7,1623.1,1523.5,1625.1,1517.3,1626.9z"/>
				</g>
			</g>
			<path fill="#FCDDB9" d="M733.9,634.8c-34.5,51.2-111.2,929.6-29.4,983.3c79.4,52,669,68.9,785.2-14.5
				c14.2-10.2,38.3-5.2,46.4-35.4c63.2-235,48.3-869.3-10.5-943.1C1458.5,541,767.9,584.3,733.9,634.8z"/>
		</g>
	</g>
</g>
</svg>
