<?xml version="1.0" encoding="utf-8"?>
<!-- Generator: Adobe Illustrator 18.0.0, SVG Export Plug-In . SVG Version: 6.00 Build 0)  -->
<!DOCTYPE svg PUBLIC "-//W3C//DTD SVG 1.1//EN" "http://www.w3.org/Graphics/SVG/1.1/DTD/svg11.dtd">
<svg version="1.1" id="Layer_1" xmlns="http://www.w3.org/2000/svg" xmlns:xlink="http://www.w3.org/1999/xlink" x="0px" y="0px"
	 viewBox="0 0 1136 640" enable-background="new 0 0 1136 640" xml:space="preserve">
<rect x="-23.6" y="-19.7" fill="#80CCDD" width="1183.3" height="679.5"/>
<g>
	<g>
		<path fill="#E6E7E8" stroke="#E6E7E8" stroke-miterlimit="10" d="M382.4,160.7c0-3.3-2.7-6-6-6c-0.5,0-0.9,0.1-1.3,0.1
			c-0.2-5.5-4.7-10-10.3-10c-5.7,0-10.3,4.6-10.3,10.3c0,0.1,0,0.3,0,0.4c-0.9-0.6-2-0.9-3.1-0.9c-1.1,0-2.1,0.3-3,0.8
			c0-0.1,0-0.2,0-0.3c0-5.7-4.6-10.3-10.3-10.3c-0.9,0-1.7,0.1-2.6,0.3c-1.8-7.2-8.2-12.5-15.9-12.5c-7.7,0-14.1,5.3-15.9,12.4
			c-0.8-0.2-1.6-0.3-2.4-0.3c-5.6,0-10.2,4.5-10.3,10.1c-0.6-0.2-1.2-0.3-1.8-0.3c-3.3,0-6,2.7-6,6c0,3,2.2,5.4,5,5.9v0.1h88.4v0
			C379.9,166.5,382.4,163.9,382.4,160.7z"/>
	</g>
	<g>
		<path fill="#E6E7E8" stroke="#E6E7E8" stroke-miterlimit="10" d="M456.4,90.1c0-3.3-2.7-6-6-6c-0.5,0-0.9,0.1-1.3,0.1
			c-0.2-5.5-4.7-10-10.3-10c-5.7,0-10.3,4.6-10.3,10.3c0,0.1,0,0.3,0,0.4c-0.9-0.6-2-0.9-3.1-0.9c-1.1,0-2.1,0.3-3,0.8
			c0-0.1,0-0.2,0-0.3c0-5.7-4.6-10.3-10.3-10.3c-0.9,0-1.7,0.1-2.6,0.3c-1.8-7.2-8.2-12.5-15.9-12.5c-7.7,0-14.1,5.3-15.9,12.4
			c-0.8-0.2-1.6-0.3-2.4-0.3c-5.6,0-10.2,4.5-10.3,10.1c-0.6-0.2-1.2-0.3-1.8-0.3c-3.3,0-6,2.7-6,6c0,3,2.2,5.4,5,5.9V96h88.4v0
			C453.9,95.9,456.4,93.3,456.4,90.1z"/>
	</g>
	<g>
		<path fill="#E6E7E8" stroke="#E6E7E8" stroke-miterlimit="10" d="M309,242.5c0-3.3-2.7-6-6-6c-0.5,0-0.9,0.1-1.3,0.1
			c-0.2-5.5-4.7-10-10.3-10c-5.7,0-10.3,4.6-10.3,10.3c0,0.1,0,0.3,0,0.4c-0.9-0.6-2-0.9-3.1-0.9c-1.1,0-2.1,0.3-3,0.8
			c0-0.1,0-0.2,0-0.3c0-5.7-4.6-10.3-10.3-10.3c-0.9,0-1.7,0.1-2.6,0.3c-1.8-7.2-8.2-12.5-15.9-12.5c-7.7,0-14.1,5.3-15.9,12.4
			c-0.8-0.2-1.6-0.3-2.4-0.3c-5.6,0-10.2,4.5-10.3,10.1c-0.6-0.2-1.2-0.3-1.8-0.3c-3.3,0-6,2.7-6,6c0,3,2.2,5.4,5,5.9v0.1h88.4v0
			C306.5,248.3,309,245.7,309,242.5z"/>
	</g>
	<g>
		<path fill="#E6E7E8" stroke="#E6E7E8" stroke-miterlimit="10" d="M469.8,216.3c0-3.3-2.7-6-6-6c-0.5,0-0.9,0.1-1.3,0.1
			c-0.2-5.5-4.7-10-10.3-10c-5.7,0-10.3,4.6-10.3,10.3c0,0.1,0,0.3,0,0.4c-0.9-0.6-2-0.9-3.1-0.9c-1.1,0-2.1,0.3-3,0.8
			c0-0.1,0-0.2,0-0.3c0-5.7-4.6-10.3-10.3-10.3c-0.9,0-1.7,0.1-2.6,0.3c-1.8-7.2-8.2-12.5-15.9-12.5c-7.7,0-14.1,5.3-15.9,12.4
			c-0.8-0.2-1.6-0.3-2.4-0.3c-5.6,0-10.2,4.5-10.3,10.1c-0.6-0.2-1.2-0.3-1.8-0.3c-3.3,0-6,2.7-6,6c0,3,2.2,5.4,5,5.9v0.1h88.4v0
			C467.3,222.1,469.8,219.5,469.8,216.3z"/>
	</g>
	<g>
		<path fill="#E6E7E8" stroke="#E6E7E8" stroke-miterlimit="10" d="M390.6,320.4c0-3.3-2.7-6-6-6c-0.5,0-0.9,0.1-1.3,0.1
			c-0.2-5.5-4.7-10-10.3-10c-5.7,0-10.3,4.6-10.3,10.3c0,0.1,0,0.3,0,0.4c-0.9-0.6-2-0.9-3.1-0.9c-1.1,0-2.1,0.3-3,0.8
			c0-0.1,0-0.2,0-0.3c0-5.7-4.6-10.3-10.3-10.3c-0.9,0-1.7,0.1-2.6,0.3c-1.8-7.2-8.2-12.5-15.9-12.5c-7.7,0-14.1,5.3-15.9,12.4
			c-0.8-0.2-1.6-0.3-2.4-0.3c-5.6,0-10.2,4.5-10.3,10.1c-0.6-0.2-1.2-0.3-1.8-0.3c-3.3,0-6,2.7-6,6c0,3,2.2,5.4,5,5.9v0.1h88.4v0
			C388.1,326.2,390.6,323.6,390.6,320.4z"/>
	</g>
	<g>
		<path fill="#E6E7E8" stroke="#E6E7E8" stroke-miterlimit="10" d="M316.4,419.2c0-3.3-2.7-6-6-6c-0.5,0-0.9,0.1-1.3,0.1
			c-0.2-5.5-4.7-10-10.3-10c-5.7,0-10.3,4.6-10.3,10.3c0,0.1,0,0.3,0,0.4c-0.9-0.6-2-0.9-3.1-0.9c-1.1,0-2.1,0.3-3,0.8
			c0-0.1,0-0.2,0-0.3c0-5.7-4.6-10.3-10.3-10.3c-0.9,0-1.7,0.1-2.6,0.3c-1.8-7.2-8.2-12.5-15.9-12.5c-7.7,0-14.1,5.3-15.9,12.4
			c-0.8-0.2-1.6-0.3-2.4-0.3c-5.6,0-10.2,4.5-10.3,10.1c-0.6-0.2-1.2-0.3-1.8-0.3c-3.3,0-6,2.7-6,6c0,3,2.2,5.4,5,5.9v0.1h88.4v0
			C313.9,425,316.4,422.4,316.4,419.2z"/>
	</g>
	<g>
		<path fill="#E6E7E8" stroke="#E6E7E8" stroke-miterlimit="10" d="M477.3,392.9c0-3.3-2.7-6-6-6c-0.5,0-0.9,0.1-1.3,0.1
			c-0.2-5.5-4.7-10-10.3-10c-5.7,0-10.3,4.6-10.3,10.3c0,0.1,0,0.3,0,0.4c-0.9-0.6-2-0.9-3.1-0.9c-1.1,0-2.1,0.3-3,0.8
			c0-0.1,0-0.2,0-0.3c0-5.7-4.6-10.3-10.3-10.3c-0.9,0-1.7,0.1-2.6,0.3c-1.8-7.2-8.2-12.5-15.9-12.5c-7.7,0-14.1,5.3-15.9,12.4
			c-0.8-0.2-1.6-0.3-2.4-0.3c-5.6,0-10.2,4.5-10.3,10.1c-0.6-0.2-1.2-0.3-1.8-0.3c-3.3,0-6,2.7-6,6c0,3,2.2,5.4,5,5.9v0.1h88.4v0
			C474.7,398.7,477.3,396.1,477.3,392.9z"/>
	</g>
	<g>
		<path fill="#E6E7E8" stroke="#E6E7E8" stroke-miterlimit="10" d="M407,480.8c0-3.3-2.7-6-6-6c-0.5,0-0.9,0.1-1.3,0.1
			c-0.2-5.5-4.7-10-10.3-10c-5.7,0-10.3,4.6-10.3,10.3c0,0.1,0,0.3,0,0.4c-0.9-0.6-2-0.9-3.1-0.9c-1.1,0-2.1,0.3-3,0.8
			c0-0.1,0-0.2,0-0.3c0-5.7-4.6-10.3-10.3-10.3c-0.9,0-1.7,0.1-2.6,0.3c-1.8-7.2-8.2-12.5-15.9-12.5c-7.7,0-14.1,5.3-15.9,12.4
			c-0.8-0.2-1.6-0.3-2.4-0.3c-5.6,0-10.2,4.5-10.3,10.1c-0.6-0.2-1.2-0.3-1.8-0.3c-3.3,0-6,2.7-6,6c0,3,2.2,5.4,5,5.9v0.1h88.4v0
			C404.5,486.6,407,484,407,480.8z"/>
	</g>
	<g>
		<path fill="#E6E7E8" stroke="#E6E7E8" stroke-miterlimit="10" d="M309,547c0-3.3-2.7-6-6-6c-0.5,0-0.9,0.1-1.3,0.1
			c-0.2-5.5-4.7-10-10.3-10c-5.7,0-10.3,4.6-10.3,10.3c0,0.1,0,0.3,0,0.4c-0.9-0.6-2-0.9-3.1-0.9c-1.1,0-2.1,0.3-3,0.8
			c0-0.1,0-0.2,0-0.3c0-5.7-4.6-10.3-10.3-10.3c-0.9,0-1.7,0.1-2.6,0.3c-1.8-7.2-8.2-12.5-15.9-12.5c-7.7,0-14.1,5.3-15.9,12.4
			c-0.8-0.2-1.6-0.3-2.4-0.3c-5.6,0-10.2,4.5-10.3,10.1c-0.6-0.2-1.2-0.3-1.8-0.3c-3.3,0-6,2.7-6,6c0,3,2.2,5.4,5,5.9v0.1h88.4v0
			C306.5,552.9,309,550.2,309,547z"/>
	</g>
	<g>
		<path fill="#E6E7E8" stroke="#E6E7E8" stroke-miterlimit="10" d="M407.2,607.9c0-3.3-2.7-6-6-6c-0.5,0-0.9,0.1-1.3,0.1
			c-0.2-5.5-4.7-10-10.3-10c-5.7,0-10.3,4.6-10.3,10.3c0,0.1,0,0.3,0,0.4c-0.9-0.6-2-0.9-3.1-0.9c-1.1,0-2.1,0.3-3,0.8
			c0-0.1,0-0.2,0-0.3c0-5.7-4.6-10.3-10.3-10.3c-0.9,0-1.7,0.1-2.6,0.3c-1.8-7.2-8.2-12.5-15.9-12.5c-7.7,0-14.1,5.3-15.9,12.4
			c-0.8-0.2-1.6-0.3-2.4-0.3c-5.6,0-10.2,4.5-10.3,10.1c-0.6-0.2-1.2-0.3-1.8-0.3c-3.3,0-6,2.7-6,6c0,3,2.2,5.4,5,5.9v0.1h88.4v0
			C404.7,613.7,407.2,611.1,407.2,607.9z"/>
	</g>
	<g>
		<path fill="#E6E7E8" stroke="#E6E7E8" stroke-miterlimit="10" d="M493.7,553.3c0-3.3-2.7-6-6-6c-0.5,0-0.9,0.1-1.3,0.1
			c-0.2-5.5-4.7-10-10.3-10c-5.7,0-10.3,4.6-10.3,10.3c0,0.1,0,0.3,0,0.4c-0.9-0.6-2-0.9-3.1-0.9c-1.1,0-2.1,0.3-3,0.8
			c0-0.1,0-0.2,0-0.3c0-5.7-4.6-10.3-10.3-10.3c-0.9,0-1.7,0.1-2.6,0.3c-1.8-7.2-8.2-12.5-15.9-12.5c-7.7,0-14.1,5.3-15.9,12.4
			c-0.8-0.2-1.6-0.3-2.4-0.3c-5.6,0-10.2,4.5-10.3,10.1c-0.6-0.2-1.2-0.3-1.8-0.3c-3.3,0-6,2.7-6,6c0,3,2.2,5.4,5,5.9v0.1H488v0
			C491.1,559.1,493.7,556.5,493.7,553.3z"/>
	</g>
	<g>
		<path fill="#E6E7E8" stroke="#E6E7E8" stroke-miterlimit="10" d="M220.8,143.7c0-3.3-2.7-6-6-6c-0.5,0-0.9,0.1-1.3,0.1
			c-0.2-5.5-4.7-10-10.3-10c-5.7,0-10.3,4.6-10.3,10.3c0,0.1,0,0.3,0,0.4c-0.9-0.6-2-0.9-3.1-0.9c-1.1,0-2.1,0.3-3,0.8
			c0-0.1,0-0.2,0-0.3c0-5.7-4.6-10.3-10.3-10.3c-0.9,0-1.7,0.1-2.6,0.3c-1.8-7.2-8.2-12.5-15.9-12.5c-7.7,0-14.1,5.3-15.9,12.4
			c-0.8-0.2-1.6-0.3-2.4-0.3c-5.6,0-10.2,4.5-10.3,10.1c-0.6-0.2-1.2-0.3-1.8-0.3c-3.3,0-6,2.7-6,6c0,3,2.2,5.4,5,5.9v0.1h88.4v0
			C218.3,149.6,220.8,146.9,220.8,143.7z"/>
	</g>
	<g>
		<path fill="#E6E7E8" stroke="#E6E7E8" stroke-miterlimit="10" d="M146.6,242.5c0-3.3-2.7-6-6-6c-0.5,0-0.9,0.1-1.3,0.1
			c-0.2-5.5-4.7-10-10.3-10c-5.7,0-10.3,4.6-10.3,10.3c0,0.1,0,0.3,0,0.4c-0.9-0.6-2-0.9-3.1-0.9c-1.1,0-2.1,0.3-3,0.8
			c0-0.1,0-0.2,0-0.3c0-5.7-4.6-10.3-10.3-10.3c-0.9,0-1.7,0.1-2.6,0.3c-1.8-7.2-8.2-12.5-15.9-12.5c-7.7,0-14.1,5.3-15.9,12.4
			c-0.8-0.2-1.6-0.3-2.4-0.3c-5.6,0-10.2,4.5-10.3,10.1c-0.6-0.2-1.2-0.3-1.8-0.3c-3.3,0-6,2.7-6,6c0,3,2.2,5.4,5,5.9v0.1h88.4v0
			C144.1,248.3,146.6,245.7,146.6,242.5z"/>
	</g>
	<g>
		<path fill="#E6E7E8" stroke="#E6E7E8" stroke-miterlimit="10" d="M228.2,320.4c0-3.3-2.7-6-6-6c-0.5,0-0.9,0.1-1.3,0.1
			c-0.2-5.5-4.7-10-10.3-10c-5.7,0-10.3,4.6-10.3,10.3c0,0.1,0,0.3,0,0.4c-0.9-0.6-2-0.9-3.1-0.9c-1.1,0-2.1,0.3-3,0.8
			c0-0.1,0-0.2,0-0.3c0-5.7-4.6-10.3-10.3-10.3c-0.9,0-1.7,0.1-2.6,0.3c-1.8-7.2-8.2-12.5-15.9-12.5c-7.7,0-14.1,5.3-15.9,12.4
			c-0.8-0.2-1.6-0.3-2.4-0.3c-5.6,0-10.2,4.5-10.3,10.1c-0.6-0.2-1.2-0.3-1.8-0.3c-3.3,0-6,2.7-6,6c0,3,2.2,5.4,5,5.9v0.1h88.4v0
			C225.7,326.2,228.2,323.6,228.2,320.4z"/>
	</g>
	<g>
		<path fill="#E6E7E8" stroke="#E6E7E8" stroke-miterlimit="10" d="M154,419.2c0-3.3-2.7-6-6-6c-0.5,0-0.9,0.1-1.3,0.1
			c-0.2-5.5-4.7-10-10.3-10c-5.7,0-10.3,4.6-10.3,10.3c0,0.1,0,0.3,0,0.4c-0.9-0.6-2-0.9-3.1-0.9c-1.1,0-2.1,0.3-3,0.8
			c0-0.1,0-0.2,0-0.3c0-5.7-4.6-10.3-10.3-10.3c-0.9,0-1.7,0.1-2.6,0.3c-1.8-7.2-8.2-12.5-15.9-12.5c-7.7,0-14.1,5.3-15.9,12.4
			c-0.8-0.2-1.6-0.3-2.4-0.3c-5.6,0-10.2,4.5-10.3,10.1c-0.6-0.2-1.2-0.3-1.8-0.3c-3.3,0-6,2.7-6,6c0,3,2.2,5.4,5,5.9v0.1h88.4v0
			C151.5,425,154,422.4,154,419.2z"/>
	</g>
	<g>
		<path fill="#E6E7E8" stroke="#E6E7E8" stroke-miterlimit="10" d="M244.6,480.8c0-3.3-2.7-6-6-6c-0.5,0-0.9,0.1-1.3,0.1
			c-0.2-5.5-4.7-10-10.3-10c-5.7,0-10.3,4.6-10.3,10.3c0,0.1,0,0.3,0,0.4c-0.9-0.6-2-0.9-3.1-0.9c-1.1,0-2.1,0.3-3,0.8
			c0-0.1,0-0.2,0-0.3c0-5.7-4.6-10.3-10.3-10.3c-0.9,0-1.7,0.1-2.6,0.3c-1.8-7.2-8.2-12.5-15.9-12.5c-7.7,0-14.1,5.3-15.9,12.4
			c-0.8-0.2-1.6-0.3-2.4-0.3c-5.6,0-10.2,4.5-10.3,10.1c-0.6-0.2-1.2-0.3-1.8-0.3c-3.3,0-6,2.7-6,6c0,3,2.2,5.4,5,5.9v0.1h88.4v0
			C242.1,486.6,244.6,484,244.6,480.8z"/>
	</g>
	<g>
		<path fill="#E6E7E8" stroke="#E6E7E8" stroke-miterlimit="10" d="M196.2,591c0-3.3-2.7-6-6-6c-0.5,0-0.9,0.1-1.3,0.1
			c-0.2-5.5-4.7-10-10.3-10c-5.7,0-10.3,4.6-10.3,10.3c0,0.1,0,0.3,0,0.4c-0.9-0.6-2-0.9-3.1-0.9c-1.1,0-2.1,0.3-3,0.8
			c0-0.1,0-0.2,0-0.3c0-5.7-4.6-10.3-10.3-10.3c-0.9,0-1.7,0.1-2.6,0.3c-1.8-7.2-8.2-12.5-15.9-12.5c-7.7,0-14.1,5.3-15.9,12.4
			c-0.8-0.2-1.6-0.3-2.4-0.3c-5.6,0-10.2,4.5-10.3,10.1c-0.6-0.2-1.2-0.3-1.8-0.3c-3.3,0-6,2.7-6,6c0,3,2.2,5.4,5,5.9v0.1h88.4v0
			C193.6,596.8,196.2,594.2,196.2,591z"/>
	</g>
	<g>
		<path fill="#E6E7E8" stroke="#E6E7E8" stroke-miterlimit="10" d="M126.3,524.7c0-3.3-2.7-6-6-6c-0.5,0-0.9,0.1-1.3,0.1
			c-0.2-5.5-4.7-10-10.3-10c-5.7,0-10.3,4.6-10.3,10.3c0,0.1,0,0.3,0,0.4c-0.9-0.6-2-0.9-3.1-0.9c-1.1,0-2.1,0.3-3,0.8
			c0-0.1,0-0.2,0-0.3c0-5.7-4.6-10.3-10.3-10.3c-0.9,0-1.7,0.1-2.6,0.3c-1.8-7.2-8.2-12.5-15.9-12.5c-7.7,0-14.1,5.3-15.9,12.4
			c-0.8-0.2-1.6-0.3-2.4-0.3c-5.6,0-10.2,4.5-10.3,10.1c-0.6-0.2-1.2-0.3-1.8-0.3c-3.3,0-6,2.7-6,6c0,3,2.2,5.4,5,5.9v0.1h88.4v0
			C123.7,530.5,126.3,527.9,126.3,524.7z"/>
	</g>
	<g>
		<path fill="#E6E7E8" stroke="#E6E7E8" stroke-miterlimit="10" d="M699.8,143.7c0-3.3-2.7-6-6-6c-0.5,0-0.9,0.1-1.3,0.1
			c-0.2-5.5-4.7-10-10.3-10c-5.7,0-10.3,4.6-10.3,10.3c0,0.1,0,0.3,0,0.4c-0.9-0.6-2-0.9-3.1-0.9c-1.1,0-2.1,0.3-3,0.8
			c0-0.1,0-0.2,0-0.3c0-5.7-4.6-10.3-10.3-10.3c-0.9,0-1.7,0.1-2.6,0.3c-1.8-7.2-8.2-12.5-15.9-12.5c-7.7,0-14.1,5.3-15.9,12.4
			c-0.8-0.2-1.6-0.3-2.4-0.3c-5.6,0-10.2,4.5-10.3,10.1c-0.6-0.2-1.2-0.3-1.8-0.3c-3.3,0-6,2.7-6,6c0,3,2.2,5.4,5,5.9v0.1h88.4v0
			C697.3,149.6,699.8,146.9,699.8,143.7z"/>
	</g>
	<g>
		<path fill="#E6E7E8" stroke="#E6E7E8" stroke-miterlimit="10" d="M598.2,51.1c0-3.3-2.7-6-6-6c-0.5,0-0.9,0.1-1.3,0.1
			c-0.2-5.5-4.7-10-10.3-10c-5.7,0-10.3,4.6-10.3,10.3c0,0.1,0,0.3,0,0.4c-0.9-0.6-2-0.9-3.1-0.9c-1.1,0-2.1,0.3-3,0.8
			c0-0.1,0-0.2,0-0.3c0-5.7-4.6-10.3-10.3-10.3c-0.9,0-1.7,0.1-2.6,0.3c-1.8-7.2-8.2-12.5-15.9-12.5c-7.7,0-14.1,5.3-15.9,12.4
			c-0.8-0.2-1.6-0.3-2.4-0.3c-5.6,0-10.2,4.5-10.3,10.1c-0.6-0.2-1.2-0.3-1.8-0.3c-3.3,0-6,2.7-6,6c0,3,2.2,5.4,5,5.9V57h88.4v0
			C595.6,56.9,598.2,54.3,598.2,51.1z"/>
	</g>
	<g>
		<path fill="#E6E7E8" stroke="#E6E7E8" stroke-miterlimit="10" d="M765.8,61c0-3.3-2.7-6-6-6c-0.5,0-0.9,0.1-1.3,0.1
			c-0.2-5.5-4.7-10-10.3-10c-5.7,0-10.3,4.6-10.3,10.3c0,0.1,0,0.3,0,0.4c-0.9-0.6-2-0.9-3.1-0.9c-1.1,0-2.1,0.3-3,0.8
			c0-0.1,0-0.2,0-0.3c0-5.7-4.6-10.3-10.3-10.3c-0.9,0-1.7,0.1-2.6,0.3c-1.8-7.2-8.2-12.5-15.9-12.5c-7.7,0-14.1,5.3-15.9,12.4
			c-0.8-0.2-1.6-0.3-2.4-0.3c-5.6,0-10.2,4.5-10.3,10.1c-0.6-0.2-1.2-0.3-1.8-0.3c-3.3,0-6,2.7-6,6c0,3,2.2,5.4,5,5.9V67h88.4v0
			C763.2,66.8,765.8,64.2,765.8,61z"/>
	</g>
	<g>
		<path fill="#E6E7E8" stroke="#E6E7E8" stroke-miterlimit="10" d="M625.6,242.5c0-3.3-2.7-6-6-6c-0.5,0-0.9,0.1-1.3,0.1
			c-0.2-5.5-4.7-10-10.3-10c-5.7,0-10.3,4.6-10.3,10.3c0,0.1,0,0.3,0,0.4c-0.9-0.6-2-0.9-3.1-0.9c-1.1,0-2.1,0.3-3,0.8
			c0-0.1,0-0.2,0-0.3c0-5.7-4.6-10.3-10.3-10.3c-0.9,0-1.7,0.1-2.6,0.3c-1.8-7.2-8.2-12.5-15.9-12.5c-7.7,0-14.1,5.3-15.9,12.4
			c-0.8-0.2-1.6-0.3-2.4-0.3c-5.6,0-10.2,4.5-10.3,10.1c-0.6-0.2-1.2-0.3-1.8-0.3c-3.3,0-6,2.7-6,6c0,3,2.2,5.4,5,5.9v0.1h88.4v0
			C623.1,248.3,625.6,245.7,625.6,242.5z"/>
	</g>
	<g>
		<path fill="#E6E7E8" stroke="#E6E7E8" stroke-miterlimit="10" d="M786.4,216.3c0-3.3-2.7-6-6-6c-0.5,0-0.9,0.1-1.3,0.1
			c-0.2-5.5-4.7-10-10.3-10c-5.7,0-10.3,4.6-10.3,10.3c0,0.1,0,0.3,0,0.4c-0.9-0.6-2-0.9-3.1-0.9c-1.1,0-2.1,0.3-3,0.8
			c0-0.1,0-0.2,0-0.3c0-5.7-4.6-10.3-10.3-10.3c-0.9,0-1.7,0.1-2.6,0.3c-1.8-7.2-8.2-12.5-15.9-12.5c-7.7,0-14.1,5.3-15.9,12.4
			c-0.8-0.2-1.6-0.3-2.4-0.3c-5.6,0-10.2,4.5-10.3,10.1c-0.6-0.2-1.2-0.3-1.8-0.3c-3.3,0-6,2.7-6,6c0,3,2.2,5.4,5,5.9v0.1h88.4v0
			C783.9,222.1,786.4,219.5,786.4,216.3z"/>
	</g>
	<g>
		<path fill="#E6E7E8" stroke="#E6E7E8" stroke-miterlimit="10" d="M707.2,320.4c0-3.3-2.7-6-6-6c-0.5,0-0.9,0.1-1.3,0.1
			c-0.2-5.5-4.7-10-10.3-10c-5.7,0-10.3,4.6-10.3,10.3c0,0.1,0,0.3,0,0.4c-0.9-0.6-2-0.9-3.1-0.9c-1.1,0-2.1,0.3-3,0.8
			c0-0.1,0-0.2,0-0.3c0-5.7-4.6-10.3-10.3-10.3c-0.9,0-1.7,0.1-2.6,0.3c-1.8-7.2-8.2-12.5-15.9-12.5c-7.7,0-14.1,5.3-15.9,12.4
			c-0.8-0.2-1.6-0.3-2.4-0.3c-5.6,0-10.2,4.5-10.3,10.1c-0.6-0.2-1.2-0.3-1.8-0.3c-3.3,0-6,2.7-6,6c0,3,2.2,5.4,5,5.9v0.1h88.4v0
			C704.7,326.2,707.2,323.6,707.2,320.4z"/>
	</g>
	<g>
		<path fill="#E6E7E8" stroke="#E6E7E8" stroke-miterlimit="10" d="M633,419.2c0-3.3-2.7-6-6-6c-0.5,0-0.9,0.1-1.3,0.1
			c-0.2-5.5-4.7-10-10.3-10c-5.7,0-10.3,4.6-10.3,10.3c0,0.1,0,0.3,0,0.4c-0.9-0.6-2-0.9-3.1-0.9c-1.1,0-2.1,0.3-3,0.8
			c0-0.1,0-0.2,0-0.3c0-5.7-4.6-10.3-10.3-10.3c-0.9,0-1.7,0.1-2.6,0.3c-1.8-7.2-8.2-12.5-15.9-12.5c-7.7,0-14.1,5.3-15.9,12.4
			c-0.8-0.2-1.6-0.3-2.4-0.3c-5.6,0-10.2,4.5-10.3,10.1c-0.6-0.2-1.2-0.3-1.8-0.3c-3.3,0-6,2.7-6,6c0,3,2.2,5.4,5,5.9v0.1h88.4v0
			C630.5,425,633,422.4,633,419.2z"/>
	</g>
	<g>
		<path fill="#E6E7E8" stroke="#E6E7E8" stroke-miterlimit="10" d="M793.8,392.9c0-3.3-2.7-6-6-6c-0.5,0-0.9,0.1-1.3,0.1
			c-0.2-5.5-4.7-10-10.3-10c-5.7,0-10.3,4.6-10.3,10.3c0,0.1,0,0.3,0,0.4c-0.9-0.6-2-0.9-3.1-0.9c-1.1,0-2.1,0.3-3,0.8
			c0-0.1,0-0.2,0-0.3c0-5.7-4.6-10.3-10.3-10.3c-0.9,0-1.7,0.1-2.6,0.3c-1.8-7.2-8.2-12.5-15.9-12.5c-7.7,0-14.1,5.3-15.9,12.4
			c-0.8-0.2-1.6-0.3-2.4-0.3c-5.6,0-10.2,4.5-10.3,10.1c-0.6-0.2-1.2-0.3-1.8-0.3c-3.3,0-6,2.7-6,6c0,3,2.2,5.4,5,5.9v0.1h88.4v0
			C791.3,398.7,793.8,396.1,793.8,392.9z"/>
	</g>
	<g>
		<path fill="#E6E7E8" stroke="#E6E7E8" stroke-miterlimit="10" d="M723.6,480.8c0-3.3-2.7-6-6-6c-0.5,0-0.9,0.1-1.3,0.1
			c-0.2-5.5-4.7-10-10.3-10c-5.7,0-10.3,4.6-10.3,10.3c0,0.1,0,0.3,0,0.4c-0.9-0.6-2-0.9-3.1-0.9c-1.1,0-2.1,0.3-3,0.8
			c0-0.1,0-0.2,0-0.3c0-5.7-4.6-10.3-10.3-10.3c-0.9,0-1.7,0.1-2.6,0.3c-1.8-7.2-8.2-12.5-15.9-12.5c-7.7,0-14.1,5.3-15.9,12.4
			c-0.8-0.2-1.6-0.3-2.4-0.3c-5.6,0-10.2,4.5-10.3,10.1c-0.6-0.2-1.2-0.3-1.8-0.3c-3.3,0-6,2.7-6,6c0,3,2.2,5.4,5,5.9v0.1h88.4v0
			C721.1,486.6,723.6,484,723.6,480.8z"/>
	</g>
	<g>
		<path fill="#E6E7E8" stroke="#E6E7E8" stroke-miterlimit="10" d="M649.4,579.6c0-3.3-2.7-6-6-6c-0.5,0-0.9,0.1-1.3,0.1
			c-0.2-5.5-4.7-10-10.3-10c-5.7,0-10.3,4.6-10.3,10.3c0,0.1,0,0.3,0,0.4c-0.9-0.6-2-0.9-3.1-0.9c-1.1,0-2.1,0.3-3,0.8
			c0-0.1,0-0.2,0-0.3c0-5.7-4.6-10.3-10.3-10.3c-0.9,0-1.7,0.1-2.6,0.3c-1.8-7.2-8.2-12.5-15.9-12.5c-7.7,0-14.1,5.3-15.9,12.4
			c-0.8-0.2-1.6-0.3-2.4-0.3c-5.6,0-10.2,4.5-10.3,10.1c-0.6-0.2-1.2-0.3-1.8-0.3c-3.3,0-6,2.7-6,6c0,3,2.2,5.4,5,5.9v0.1h88.4v0
			C646.9,585.4,649.4,582.8,649.4,579.6z"/>
	</g>
	<g>
		<path fill="#E6E7E8" stroke="#E6E7E8" stroke-miterlimit="10" d="M810.3,553.3c0-3.3-2.7-6-6-6c-0.5,0-0.9,0.1-1.3,0.1
			c-0.2-5.5-4.7-10-10.3-10c-5.7,0-10.3,4.6-10.3,10.3c0,0.1,0,0.3,0,0.4c-0.9-0.6-2-0.9-3.1-0.9c-1.1,0-2.1,0.3-3,0.8
			c0-0.1,0-0.2,0-0.3c0-5.7-4.6-10.3-10.3-10.3c-0.9,0-1.7,0.1-2.6,0.3c-1.8-7.2-8.2-12.5-15.9-12.5c-7.7,0-14.1,5.3-15.9,12.4
			c-0.8-0.2-1.6-0.3-2.4-0.3c-5.6,0-10.2,4.5-10.3,10.1c-0.6-0.2-1.2-0.3-1.8-0.3c-3.3,0-6,2.7-6,6c0,3,2.2,5.4,5,5.9v0.1h88.4v0
			C807.7,559.1,810.3,556.5,810.3,553.3z"/>
	</g>
	<g>
		<path fill="#E6E7E8" stroke="#E6E7E8" stroke-miterlimit="10" d="M985.5,143.7c0-3.3-2.7-6-6-6c-0.5,0-0.9,0.1-1.3,0.1
			c-0.2-5.5-4.7-10-10.3-10c-5.7,0-10.3,4.6-10.3,10.3c0,0.1,0,0.3,0,0.4c-0.9-0.6-2-0.9-3.1-0.9c-1.1,0-2.1,0.3-3,0.8
			c0-0.1,0-0.2,0-0.3c0-5.7-4.6-10.3-10.3-10.3c-0.9,0-1.7,0.1-2.6,0.3c-1.8-7.2-8.2-12.5-15.9-12.5c-7.7,0-14.1,5.3-15.9,12.4
			c-0.8-0.2-1.6-0.3-2.4-0.3c-5.6,0-10.2,4.5-10.3,10.1c-0.6-0.2-1.2-0.3-1.8-0.3c-3.3,0-6,2.7-6,6c0,3,2.2,5.4,5,5.9v0.1h88.4v0
			C983,149.6,985.5,146.9,985.5,143.7z"/>
	</g>
	<g>
		<path fill="#E6E7E8" stroke="#E6E7E8" stroke-miterlimit="10" d="M893,51.1c0-3.3-2.7-6-6-6c-0.5,0-0.9,0.1-1.3,0.1
			c-0.2-5.5-4.7-10-10.3-10c-5.7,0-10.3,4.6-10.3,10.3c0,0.1,0,0.3,0,0.4c-0.9-0.6-2-0.9-3.1-0.9c-1.1,0-2.1,0.3-3,0.8
			c0-0.1,0-0.2,0-0.3c0-5.7-4.6-10.3-10.3-10.3c-0.9,0-1.7,0.1-2.6,0.3c-1.8-7.2-8.2-12.5-15.9-12.5c-7.7,0-14.1,5.3-15.9,12.4
			c-0.8-0.2-1.6-0.3-2.4-0.3c-5.6,0-10.2,4.5-10.3,10.1c-0.6-0.2-1.2-0.3-1.8-0.3c-3.3,0-6,2.7-6,6c0,3,2.2,5.4,5,5.9V57h88.4v0
			C890.5,56.9,893,54.3,893,51.1z"/>
	</g>
	<g>
		<path fill="#E6E7E8" stroke="#E6E7E8" stroke-miterlimit="10" d="M413.2,44.3c0-3.3-2.7-6-6-6c-0.5,0-0.9,0.1-1.3,0.1
			c-0.2-5.5-4.7-10-10.3-10c-5.7,0-10.3,4.6-10.3,10.3c0,0.1,0,0.3,0,0.4c-0.9-0.6-2-0.9-3.1-0.9c-1.1,0-2.1,0.3-3,0.8
			c0-0.1,0-0.2,0-0.3c0-5.7-4.6-10.3-10.3-10.3c-0.9,0-1.7,0.1-2.6,0.3c-1.8-7.2-8.2-12.5-15.9-12.5c-7.7,0-14.1,5.3-15.9,12.4
			c-0.8-0.2-1.6-0.3-2.4-0.3c-5.6,0-10.2,4.5-10.3,10.1c-0.6-0.2-1.2-0.3-1.8-0.3c-3.3,0-6,2.7-6,6c0,3,2.2,5.4,5,5.9v0.1h88.4v0
			C410.7,50.1,413.2,47.5,413.2,44.3z"/>
	</g>
	<g>
		<path fill="#E6E7E8" stroke="#E6E7E8" stroke-miterlimit="10" d="M1058.8,90.1c0-3.3-2.7-6-6-6c-0.5,0-0.9,0.1-1.3,0.1
			c-0.2-5.5-4.7-10-10.3-10c-5.7,0-10.3,4.6-10.3,10.3c0,0.1,0,0.3,0,0.4c-0.9-0.6-2-0.9-3.1-0.9c-1.1,0-2.1,0.3-3,0.8
			c0-0.1,0-0.2,0-0.3c0-5.7-4.6-10.3-10.3-10.3c-0.9,0-1.7,0.1-2.6,0.3c-1.8-7.2-8.2-12.5-15.9-12.5c-7.7,0-14.1,5.3-15.9,12.4
			c-0.8-0.2-1.6-0.3-2.4-0.3c-5.6,0-10.2,4.5-10.3,10.1c-0.6-0.2-1.2-0.3-1.8-0.3c-3.3,0-6,2.7-6,6c0,3,2.2,5.4,5,5.9V96h88.4v0
			C1056.2,95.9,1058.8,93.3,1058.8,90.1z"/>
	</g>
	<g>
		<path fill="#E6E7E8" stroke="#E6E7E8" stroke-miterlimit="10" d="M911.3,242.5c0-3.3-2.7-6-6-6c-0.5,0-0.9,0.1-1.3,0.1
			c-0.2-5.5-4.7-10-10.3-10c-5.7,0-10.3,4.6-10.3,10.3c0,0.1,0,0.3,0,0.4c-0.9-0.6-2-0.9-3.1-0.9c-1.1,0-2.1,0.3-3,0.8
			c0-0.1,0-0.2,0-0.3c0-5.7-4.6-10.3-10.3-10.3c-0.9,0-1.7,0.1-2.6,0.3c-1.8-7.2-8.2-12.5-15.9-12.5c-7.7,0-14.1,5.3-15.9,12.4
			c-0.8-0.2-1.6-0.3-2.4-0.3c-5.6,0-10.2,4.5-10.3,10.1c-0.6-0.2-1.2-0.3-1.8-0.3c-3.3,0-6,2.7-6,6c0,3,2.2,5.4,5,5.9v0.1h88.4v0
			C908.8,248.3,911.3,245.7,911.3,242.5z"/>
	</g>
	<g>
		<path fill="#E6E7E8" stroke="#E6E7E8" stroke-miterlimit="10" d="M1072.2,216.3c0-3.3-2.7-6-6-6c-0.5,0-0.9,0.1-1.3,0.1
			c-0.2-5.5-4.7-10-10.3-10c-5.7,0-10.3,4.6-10.3,10.3c0,0.1,0,0.3,0,0.4c-0.9-0.6-2-0.9-3.1-0.9c-1.1,0-2.1,0.3-3,0.8
			c0-0.1,0-0.2,0-0.3c0-5.7-4.6-10.3-10.3-10.3c-0.9,0-1.7,0.1-2.6,0.3c-1.8-7.2-8.2-12.5-15.9-12.5c-7.7,0-14.1,5.3-15.9,12.4
			c-0.8-0.2-1.6-0.3-2.4-0.3c-5.6,0-10.2,4.5-10.3,10.1c-0.6-0.2-1.2-0.3-1.8-0.3c-3.3,0-6,2.7-6,6c0,3,2.2,5.4,5,5.9v0.1h88.4v0
			C1069.6,222.1,1072.2,219.5,1072.2,216.3z"/>
	</g>
	<g>
		<path fill="#E6E7E8" stroke="#E6E7E8" stroke-miterlimit="10" d="M992.9,320.4c0-3.3-2.7-6-6-6c-0.5,0-0.9,0.1-1.3,0.1
			c-0.2-5.5-4.7-10-10.3-10c-5.7,0-10.3,4.6-10.3,10.3c0,0.1,0,0.3,0,0.4c-0.9-0.6-2-0.9-3.1-0.9c-1.1,0-2.1,0.3-3,0.8
			c0-0.1,0-0.2,0-0.3c0-5.7-4.6-10.3-10.3-10.3c-0.9,0-1.7,0.1-2.6,0.3c-1.8-7.2-8.2-12.5-15.9-12.5c-7.7,0-14.1,5.3-15.9,12.4
			c-0.8-0.2-1.6-0.3-2.4-0.3c-5.6,0-10.2,4.5-10.3,10.1c-0.6-0.2-1.2-0.3-1.8-0.3c-3.3,0-6,2.7-6,6c0,3,2.2,5.4,5,5.9v0.1h88.4v0
			C990.4,326.2,992.9,323.6,992.9,320.4z"/>
	</g>
	<g>
		<path fill="#E6E7E8" stroke="#E6E7E8" stroke-miterlimit="10" d="M918.7,419.2c0-3.3-2.7-6-6-6c-0.5,0-0.9,0.1-1.3,0.1
			c-0.2-5.5-4.7-10-10.3-10c-5.7,0-10.3,4.6-10.3,10.3c0,0.1,0,0.3,0,0.4c-0.9-0.6-2-0.9-3.1-0.9c-1.1,0-2.1,0.3-3,0.8
			c0-0.1,0-0.2,0-0.3c0-5.7-4.6-10.3-10.3-10.3c-0.9,0-1.7,0.1-2.6,0.3c-1.8-7.2-8.2-12.5-15.9-12.5c-7.7,0-14.1,5.3-15.9,12.4
			c-0.8-0.2-1.6-0.3-2.4-0.3c-5.6,0-10.2,4.5-10.3,10.1c-0.6-0.2-1.2-0.3-1.8-0.3c-3.3,0-6,2.7-6,6c0,3,2.2,5.4,5,5.9v0.1H913v0
			C916.2,425,918.7,422.4,918.7,419.2z"/>
	</g>
	<g>
		<path fill="#E6E7E8" stroke="#E6E7E8" stroke-miterlimit="10" d="M1079.6,392.9c0-3.3-2.7-6-6-6c-0.5,0-0.9,0.1-1.3,0.1
			c-0.2-5.5-4.7-10-10.3-10c-5.7,0-10.3,4.6-10.3,10.3c0,0.1,0,0.3,0,0.4c-0.9-0.6-2-0.9-3.1-0.9c-1.1,0-2.1,0.3-3,0.8
			c0-0.1,0-0.2,0-0.3c0-5.7-4.6-10.3-10.3-10.3c-0.9,0-1.7,0.1-2.6,0.3c-1.8-7.2-8.2-12.5-15.9-12.5c-7.7,0-14.1,5.3-15.9,12.4
			c-0.8-0.2-1.6-0.3-2.4-0.3c-5.6,0-10.2,4.5-10.3,10.1c-0.6-0.2-1.2-0.3-1.8-0.3c-3.3,0-6,2.7-6,6c0,3,2.2,5.4,5,5.9v0.1h88.4v0
			C1077.1,398.7,1079.6,396.1,1079.6,392.9z"/>
	</g>
	<g>
		<path fill="#E6E7E8" stroke="#E6E7E8" stroke-miterlimit="10" d="M1009.3,480.8c0-3.3-2.7-6-6-6c-0.5,0-0.9,0.1-1.3,0.1
			c-0.2-5.5-4.7-10-10.3-10c-5.7,0-10.3,4.6-10.3,10.3c0,0.1,0,0.3,0,0.4c-0.9-0.6-2-0.9-3.1-0.9c-1.1,0-2.1,0.3-3,0.8
			c0-0.1,0-0.2,0-0.3c0-5.7-4.6-10.3-10.3-10.3c-0.9,0-1.7,0.1-2.6,0.3c-1.8-7.2-8.2-12.5-15.9-12.5c-7.7,0-14.1,5.3-15.9,12.4
			c-0.8-0.2-1.6-0.3-2.4-0.3c-5.6,0-10.2,4.5-10.3,10.1c-0.6-0.2-1.2-0.3-1.8-0.3c-3.3,0-6,2.7-6,6c0,3,2.2,5.4,5,5.9v0.1h88.4v0
			C1006.8,486.6,1009.3,484,1009.3,480.8z"/>
	</g>
	<g>
		<path fill="#E6E7E8" stroke="#E6E7E8" stroke-miterlimit="10" d="M935.1,579.6c0-3.3-2.7-6-6-6c-0.5,0-0.9,0.1-1.3,0.1
			c-0.2-5.5-4.7-10-10.3-10c-5.7,0-10.3,4.6-10.3,10.3c0,0.1,0,0.3,0,0.4c-0.9-0.6-2-0.9-3.1-0.9c-1.1,0-2.1,0.3-3,0.8
			c0-0.1,0-0.2,0-0.3c0-5.7-4.6-10.3-10.3-10.3c-0.9,0-1.7,0.1-2.6,0.3c-1.8-7.2-8.2-12.5-15.9-12.5c-7.7,0-14.1,5.3-15.9,12.4
			c-0.8-0.2-1.6-0.3-2.4-0.3c-5.6,0-10.2,4.5-10.3,10.1c-0.6-0.2-1.2-0.3-1.8-0.3c-3.3,0-6,2.7-6,6c0,3,2.2,5.4,5,5.9v0.1h88.4v0
			C932.6,585.4,935.1,582.8,935.1,579.6z"/>
	</g>
	<g>
		<path fill="#E6E7E8" stroke="#E6E7E8" stroke-miterlimit="10" d="M1096,553.3c0-3.3-2.7-6-6-6c-0.5,0-0.9,0.1-1.3,0.1
			c-0.2-5.5-4.7-10-10.3-10c-5.7,0-10.3,4.6-10.3,10.3c0,0.1,0,0.3,0,0.4c-0.9-0.6-2-0.9-3.1-0.9c-1.1,0-2.1,0.3-3,0.8
			c0-0.1,0-0.2,0-0.3c0-5.7-4.6-10.3-10.3-10.3c-0.9,0-1.7,0.1-2.6,0.3c-1.8-7.2-8.2-12.5-15.9-12.5c-7.7,0-14.1,5.3-15.9,12.4
			c-0.8-0.2-1.6-0.3-2.4-0.3c-5.6,0-10.2,4.5-10.3,10.1c-0.6-0.2-1.2-0.3-1.8-0.3c-3.3,0-6,2.7-6,6c0,3,2.2,5.4,5,5.9v0.1h88.4v0
			C1093.5,559.1,1096,556.5,1096,553.3z"/>
	</g>
</g>
<g>
	<g>
		<path fill="#FFCD8A" d="M801.9,491.9C800.5,491.8,798.8,491.8,801.9,491.9L801.9,491.9z"/>
	</g>
	<path fill="#A97C50" d="M930.3,506.9c0.8,54.9-22.9,94.7-119.5,96.1c-96.6,1.4-74.6-55.2-75-87.3c-0.5-32.1-3.2-60.2-3.2-60.2
		l151.4,3.2"/>
	<path fill="#754C29" d="M831.9,585.3c-3.5,8.8-58.8,0.8-58.9-6.3c-0.1-4.3,11.8-34.8,4.2-49.8C769.6,514.2,831.9,585.3,831.9,585.3
		z"/>
	<path fill="#A97C50" d="M388.9,471c0.8,56.2-8.8,83.9-13.3,102.7c-6.1,25.3-50.3,51.3-93.4,51.7c-96.6,0.9-88.8-49.6-89.3-81.7
		s-1.1-80.6-1.1-80.6l151.4,3.2"/>
	<path fill="#8B5E3C" d="M274.3,559c0.6,42.5,37.6,57.9,67.5,29.5c-0.7-10.8-4-36.7-4-36.7c-14.7-7.2-49.8-5.4-62.3,7.2"/>
	<path fill="#FFCD8A" d="M375.6,575.2c2.4-19-90.9-32.8-100.1-13.9c-4.7-46.8,2.1-78.6,2.1-78.6s120-20.3,118.2,6.4
		C394.2,515.7,375.6,575.2,375.6,575.2z"/>
	<path fill="#D3A56E" d="M395.9,489c1.7-26.7-118.2-6.4-118.2-6.4s-4.9,17.8-3.8,45.9c39.4-8.5,98.1-10.3,114.7,0.1
		C392.1,514.1,395.2,499.2,395.9,489z"/>
	<path fill="#FFCD8A" d="M831.9,585.3c2.4-19-87.8-39.8-96.9-20.9c-4.7-46.8-1-71.6-1-71.6s120-20.3,118.2,6.4
		C850.4,525.7,831.9,585.3,831.9,585.3z"/>
	<path fill="#D3A56E" d="M733.9,492.7c0,0-1,6.9-1.3,20.4c36.1-1.9,98,9,113.2,21.4c3.1-13.2,5.7-26.2,6.3-35.4
		C853.9,472.4,733.9,492.7,733.9,492.7z"/>
	<path fill="#FFCD8A" d="M237.9,499.4c63.4-33.1,120.5,5.3,154.4,12.9c0,0,28.3-2.1,44.4,2.5l31.6-13.2l-4.5,20
		c0.2,0,0.3,0.1,0.5,0.1l28.2-13.9l-2.1,18.1c12.7,1.5,25.7,2.3,39.1,2.3c40.5-0.2,82.8-2.8,121.2-9.9c24.8-4.6,47-11.4,70.3-17.6
		c31.8-8.4,74.3-12.9,107.8-5.2c19.2,4.4,86.6,17.9,96,51.6c0,0,5.8-17.7,5.7-25.5c-0.2-13.8-0.4-27.7-0.6-41.5
		c-0.4-26-0.7-51.9-1.1-77.9c-0.2-12-2-139.8-2.1-151.7c-0.4-25.5-1.4-101.4-1.8-126.8c-0.1-7.2-2.4-11.5-9.9-17.5
		c-16.5-13.4-38.6-26.2-66.7-33.6c-18.9-5-38.8-6.4-60.1-5.7c-37.2,1.2-74,6.1-105,17.1c-22.3,7.9-40.9,20.7-66.5,26
		c-30,6.2-62.1,1.3-90.4-4.1c-3.2-0.6-6.3-1.2-9.5-1.8l-24.5,16.5l-43.1-28.7c-10.8-1.6-21.8-2.9-33.1-3.8c-24.4-2-49-2.4-73.7-1.8
		c-21.7,0.6-43.6,1.9-64.8,4.6c-17.3,2.2-34.9,5.7-49.4,11c-15.9,5.8-27.2,13.2-34.2,22.4c-7.9,10.3-5.7,22.1-5.5,32.9
		c0.6,40.9,3.5,248.2,4.1,289.1c0.3,23.7,0.7,47.4,1,71.1c0.1,7.2-0.3,48.4-0.2,38.8C193.5,524.5,217.3,510.1,237.9,499.4z
		 M732.3,497.9C733.5,497.6,735.2,497.2,732.3,497.9L732.3,497.9z M865.5,510.1C866.3,510.6,867.1,511.1,865.5,510.1L865.5,510.1z
		 M359.7,497.3c1.5,0.1,4.2,0.2-0.2,0C359.6,497.3,359.6,497.3,359.7,497.3z M598.4,110.1c0,0-0.1,0-0.1,0
		C602.7,110.3,599.7,110.2,598.4,110.1z"/>
</g>
<g>
	<g>
		<g>
			<g opacity="0.4">
				<path fill="#231F20" d="M916.6,120.6c0,0-9.3,6-7.8,10.5c1.4,4.5,82.3,48.5,108.3,33.9c26.1-14.5,64.4-60.4,68-77.5
					c3.6-17.1-11.6-20.5-21.4-22.9"/>
			</g>
			<g>
				<g>
					<path fill="#912951" d="M1061.9,48.4c-1.7-1.8-4.5-2.3-6.8-2.9c-3.2-0.8-6.4-1.5-9.5-2.3c-9.3-2.1-18.6-4.1-27.9-6.1
						c-8.6-1.8-17.1-3.7-25.7-5.4c-1.5-0.3-2.9-0.6-4.4-0.8c-0.5-0.1-1.1-0.2-1.6-0.3c-0.2,0-0.4-0.1-0.6-0.1c-0.1,0-0.2,0-0.3-0.1
						c-0.6-0.1-1.2-0.2-1.7-0.2c0,0,0.1,0,0.1,0c-0.3,0-0.6-0.1-0.9-0.1c-2.3,0.1-3.9,1.4-5.6,2.8c0,0,0.1-0.1,0.1-0.1
						c-0.3,0.2-0.5,0.5-0.7,0.7c-0.4,0.4-0.8,0.9-1.2,1.4c-0.6,0.7-1.3,1.3-2,1.9c-1.6,1.5-3.2,3-4.7,4.6c-3.8,3.9-7.3,7.9-10.8,12
						c-1.9,2.3-3.9,4.6-5.7,6.9c-0.5,0.6-0.9,1.1-1.4,1.7c-0.1,0.2-0.3,0.3-0.4,0.5c-0.1,0.1-0.2,0.2-0.3,0.4
						c-0.3,0.3-0.5,0.7-0.8,1c-1.1,1.4-2.2,2.9-3.3,4.3c-3.5,4.6-7,9.3-10.3,14.1c-1.2,1.8-2.4,3.5-3.6,5.3c-0.5,0.8-1,1.6-1.6,2.4
						c-0.6,0.9-1.3,1.8-1.6,2.8c-0.3,0.7-0.6,1.5-0.9,2.2c0-0.1,0-0.1-0.1,0.1c-0.1,0.2-0.2,0.4-0.3,0.6c0.2-0.4,0.2-0.5,0.1-0.3
						c-0.1,0.2-0.2,0.4-0.3,0.6c-0.1,0.3-0.3,0.6-0.4,1c-0.1,0.1-0.2,0.1-0.3,0.2c-3.1,1.9-3.9,5.6-2.3,8.8c0.8,1.5,2.3,2.5,3.9,3
						c0.5,0.2,1,0.4,1.5,0.6c0.5,0.2,1,0.4,1.5,0.5c1.6,0.6,3.3,1.1,5,1.6c1.9,0.6,3.9,1.1,5.9,1.6c4.6,1.2,9.1,2.5,13.7,3.7
						c9.3,2.4,18.6,4.8,28,6.9c3.4,0.7,6.9,1.4,10.3,1.9c1.7,0.2,3.4,0.5,5.2,0.6c0.4,0,0.8,0,1.1,0c2.1-0.2,2.3-0.3,4.2-1.1
						c1-0.5,1.7-1.3,2.4-2.1c0.7-0.8,1.4-1.6,2.1-2.4c2.4-2.7,4.7-5.4,7.1-8.2c6.9-8,13.9-15.9,20.7-24c3.6-4.2,7.1-8.3,10.7-12.5
						c1.6-1.9,3.2-3.8,4.7-5.7c1.7-2.1,3.6-4.1,5.1-6.4c1.8-2.6,3.8-4.9,5.5-7.5C1064.7,54.1,1063.9,50.6,1061.9,48.4z"/>
				</g>
				<g>
					<path fill="#F7941E" d="M1057.3,94.5c-0.8-2.9-2.9-5.8-5.3-7.7c-1.9-1.5-3.7-2.4-6.2-2.6c-2-0.2-4.5,0.8-5.7,2.3
						c-0.1,0.2-0.3,0.3-0.4,0.5c-0.2,0.2-0.3,0.4-0.5,0.6c-3.3,4.5-5.1,10.8-4.8,16.3c0.2,3,2.5,5.4,5.6,5.4c2.1,0,4.3-0.2,6.3-0.7
						c2.4-0.7,4.3-1.9,6.2-3.3c1.6-1.2,3.1-3,4.1-4.6C1057.8,98.8,1057.8,96.5,1057.3,94.5z"/>
				</g>
				<g>
					<g>
						<path fill="#631E3A" d="M983.1,31.2c-8.2,0.3-15.6,5.5-21.7,10.5c-8.1,6.6-14.9,14.6-21.2,22.9c-6.2,8.2-11.8,17-16.4,26.3
							c-2.1,4.1-4,8.4-5.5,12.7c-1.2,3.4-2.1,6.9-2.4,10.5c-0.2,2.7,0.1,5.9,1.7,8.1c1.2,1.6,2.6,2.7,4.5,3.4
							c1.1,0.4,2.1,0.7,3.2,1.1c8.8,2.9,17.6,5.8,26.5,8.5c10.9,3.3,21.9,6.5,33.1,8.8c4.6,0.9,9.2,1.8,13.9,2
							c1.9,0.1,3.7,0,5.6-0.4c1.7-0.3,3.3-1.1,4.7-1.9c3.7-2,7-4.9,10.1-7.8c3.8-3.5,7.3-7.3,10.8-11.2c3.8-4.3,7.5-8.8,11.1-13.3
							c3.7-4.7,7.5-9.5,10.9-14.4c2.7-3.9,5.4-7.8,8-11.8c1.7-2.6,3.3-5.2,4.8-7.9c0.1-0.1,0.1-0.2,0.2-0.3c1.2-2.3,0.6-5.1-1.7-6.5
							c-2.2-1.3-5.3-0.6-6.5,1.7c-1.4,2.6-3.2,5-4.8,7.5c-2.7,3.9-5.4,7.6-8.2,11.4c-3.1,4.2-6.2,8.4-9.4,12.5
							c0.3-0.3,0.5-0.7,0.8-1c-6.8,8.8-13.8,17.5-21.7,25.2c-2.1,2.1-4.2,4-6.6,5.8c0.3-0.3,0.7-0.5,1-0.8c-1.7,1.3-3.4,2.5-5.3,3.3
							c0.4-0.2,0.8-0.3,1.2-0.5c-0.8,0.3-1.6,0.6-2.5,0.7c0.4-0.1,0.9-0.1,1.3-0.2c-3.2,0.4-6.4,0-9.6-0.4c0.4,0.1,0.8,0.1,1.3,0.2
							c-10.8-1.5-21.4-4.3-31.8-7.2c-10.1-2.8-20.1-5.9-30-9c-2.7-0.8-5.3-1.6-8-2.5c-0.7-0.2,1.1,0.5,0.7,0.3
							c-0.1,0-0.2-0.1-0.3-0.1c-0.1,0-0.2-0.1-0.3-0.2c-0.3-0.2-0.9-0.7,0.6,0.4c-0.2-0.1-0.3-0.3-0.4-0.4c-0.1-0.1-0.1-0.2-0.2-0.2
							c1.1,1.4,0.7,0.9,0.4,0.5c-0.1-0.2-0.2-0.4-0.3-0.6c-0.3-0.7,0.4,1.1,0.3,0.7c0-0.1-0.1-0.2-0.1-0.4c-0.2-0.5-0.3-1-0.3-1.5
							c0.1,0.4,0.1,0.8,0.2,1.1c-0.2-1.4-0.1-2.9,0.1-4.3c-0.1,0.4-0.1,0.8-0.2,1.1c0.5-3.4,1.5-6.8,2.7-10c0.4-1,0.7-1.9,1.1-2.9
							c0.1-0.2,0.2-0.5,0.3-0.7c0.2-0.6-0.5,1.1-0.2,0.5c0.1-0.1,0.1-0.2,0.2-0.4c0.2-0.5,0.5-1.1,0.7-1.6c1-2.1,2-4.2,3-6.3
							c4.8-9.3,10.4-18.2,16.6-26.5c0.4-0.5,0.8-1,1.2-1.5c0.2-0.3,0.4-0.5,0.6-0.8c0.1-0.1,0.2-0.3,0.3-0.4
							c-0.8,1.1-0.3,0.4-0.1,0.1c0.8-1,1.6-2.1,2.5-3.1c1.6-2,3.3-3.9,5-5.9c3.2-3.5,6.5-6.9,10.2-9.9c0.3-0.3,0.7-0.5,1-0.8
							c0.2-0.1,0.3-0.3,0.5-0.4c0.4-0.3-0.7,0.5-0.3,0.2c0.1-0.1,0.2-0.2,0.3-0.2c0.7-0.5,1.5-1.1,2.2-1.6c1.4-0.9,2.8-1.8,4.2-2.5
							c0.7-0.3,1.3-0.7,2-0.9c-1.2,0.5,0.1,0,0.4-0.1c0.3-0.1,0.7-0.2,1-0.4c0.6-0.2,1.3-0.4,1.9-0.5c0.3-0.1,0.7-0.1,1-0.2
							c0.6-0.1-0.9,0.1-0.3,0c0.2,0,0.4,0,0.5-0.1c1.6-0.1,2.9-1.2,2.9-2.9C986,32.6,984.7,31.2,983.1,31.2L983.1,31.2z"/>
					</g>
				</g>
				<g>
					<path fill="#631E3A" d="M987.7,31c-0.5-0.1-1.1-0.2-1.6-0.3c-0.2,0-0.4-0.1-0.6-0.1c-0.1,0-0.2,0-0.3-0.1
						c-0.6-0.1-1.2-0.2-1.7-0.2c0,0,0.1,0,0.1,0c-0.3,0-0.6-0.1-0.9-0.1c-2.2,0-3.7,1.3-5.3,2.6c0,0,0,0-0.1,0.1
						c-0.1,0.1-0.1,0.1-0.2,0.2c0,0,0.1,0,0.1-0.1c-0.2,0.2-0.4,0.4-0.6,0.6c-0.4,0.5-0.9,0.9-1.3,1.4c-0.6,0.7-1.3,1.3-2,1.9
						c-1.6,1.5-3.2,3-4.7,4.6c-3.8,3.9-7.3,7.9-10.8,12c-1.9,2.3-3.9,4.6-5.7,6.9c-0.5,0.6-0.9,1.1-1.4,1.7
						c-0.4,0.5-1.4,1.8-0.3,0.4c-0.1,0.1-0.2,0.3-0.3,0.4c-0.3,0.3-0.5,0.7-0.8,1c-1.1,1.4-2.2,2.9-3.3,4.3
						c-3.5,4.6-7,9.3-10.3,14.1c-1.2,1.8-2.4,3.5-3.6,5.3c-0.6,0.8-1.1,1.7-1.6,2.5c-0.6,0.9-1.3,1.8-1.6,2.8
						c-0.3,0.7-0.6,1.4-0.9,2.1c0-0.1,0-0.1-0.1,0c-0.1,0.2-0.2,0.4-0.3,0.6c0.2-0.4,0.2-0.5,0.1-0.3c-0.1,0.2-0.2,0.4-0.3,0.6
						c-0.1,0.3-0.3,0.6-0.4,0.9c-0.1,0.1-0.2,0.1-0.3,0.2c-1,0.6-1.7,1.3-2.3,2.3c-0.8,1.4-1.2,3.4-0.6,4.9c0.6,1.6,1.4,3,3,3.9
						c0.6,0.3,1.1,0.5,1.6,0.7c0.5,0.2,1,0.4,1.5,0.6c0.4,0.1,0.7,0.3,1.1,0.4c1.7,0.8,3.7,1.2,5.5,1.8c1,0.3,1.9,0.6,2.9,0.8
						c17.8-12.4,63.3-57,62.8-78.9c-3.3-0.7-6.6-1.4-9.9-2.1C990.5,31.5,989.1,31.3,987.7,31z"/>
					<path fill="#631E3A" d="M939.2,112.9L939.2,112.9c-1.2-0.3-2.1-0.6-2.9-0.8c-0.4-0.1-0.9-0.3-1.4-0.4c-1.4-0.4-2.8-0.8-4.1-1.4
						c-0.2-0.1-0.5-0.2-0.7-0.3c-0.1-0.1-0.3-0.1-0.4-0.2l-0.2-0.1c-0.4-0.2-0.8-0.3-1.2-0.5c-0.6-0.2-1.1-0.3-1.7-0.7
						c-1.8-1-2.5-2.6-3-4c-0.6-1.7-0.1-3.7,0.7-5c0.6-1,1.4-1.8,2.3-2.3c0.1-0.1,0.2-0.1,0.3-0.2c0.1-0.3,0.3-0.6,0.4-0.9
						c0.1-0.1,0.1-0.2,0.2-0.3l0,0l0.3-0.6c0-0.1,0.1-0.1,0.1-0.2c0.3-0.7,0.6-1.4,0.9-2c0.2-0.8,0.7-1.6,1.2-2.3
						c0.1-0.2,0.3-0.4,0.4-0.6c0.5-0.9,1.1-1.7,1.6-2.5c1.1-1.7,2.3-3.5,3.6-5.3c2.9-4.2,6.2-8.7,10.3-14.1c1.2-1.6,2.3-3,3.3-4.3
						c0.2-0.3,0.5-0.6,0.7-0.9l0,0c0,0,0,0,0,0c0.1-0.1,0.3-0.4,0.8-1c0.3-0.3,0.5-0.7,0.8-1c0.2-0.2,0.4-0.5,0.6-0.7
						c2-2.5,3.9-4.7,5.7-6.9c4.1-4.8,7.6-8.7,10.8-12c1.8-1.8,3.3-3.3,4.7-4.6c0.2-0.2,0.4-0.4,0.6-0.5c0.5-0.4,1-0.9,1.4-1.3
						c0.5-0.5,0.9-1,1.3-1.4c0.2-0.2,0.3-0.4,0.6-0.6l0,0l0.3-0.2c1.5-1.3,3.1-2.6,5.4-2.6l0,0c0.2,0,0.5,0,0.7,0l0.6,0.1l0,0
						c0.4,0,0.8,0.1,1.2,0.1l0.1,0c0.1,0,0.1,0,0.2,0c0.2,0,0.4,0.1,0.6,0.1c0.5,0.1,1.1,0.2,1.6,0.3l0.7,0.1
						c1.2,0.2,2.4,0.4,3.6,0.7c2.9,0.6,6.1,1.2,9.9,2.1l0.1,0l0,0.1c0.1,5.1-2.2,11.8-7.1,19.9c-4.2,6.9-10,14.7-17.4,23.2
						c-6.3,7.2-13.5,14.6-20.9,21.4C950,104.5,943.8,109.6,939.2,112.9L939.2,112.9z M927.7,95.6c0,0,0,0.1-0.1,0.1
						c-0.1,0.2-0.2,0.4-0.3,0.6c-0.1,0.3-0.3,0.6-0.4,0.9l0,0l0,0c-0.1,0.1-0.2,0.1-0.3,0.2c-1,0.6-1.7,1.3-2.3,2.3
						c-0.7,1.3-1.2,3.3-0.6,4.8c0.7,1.9,1.6,3.1,2.9,3.8c0.6,0.3,1,0.5,1.6,0.7c0.4,0.2,0.8,0.3,1.3,0.5l0.2,0.1
						c0.1,0.1,0.3,0.1,0.4,0.2c0.2,0.1,0.5,0.2,0.7,0.3c1.3,0.6,2.7,1,4.1,1.4c0.5,0.1,0.9,0.3,1.4,0.4c0.8,0.3,1.7,0.5,2.8,0.8
						c8.7-6.1,24.6-20.4,38.2-35.9c7.4-8.4,13.3-16.2,17.4-23.2c4.8-8,7.2-14.6,7.1-19.7c-3.8-0.8-6.9-1.4-9.8-2
						c-1.2-0.2-2.4-0.5-3.6-0.7l-0.7-0.1c-0.5-0.1-1.1-0.2-1.6-0.3c-0.2,0-0.4-0.1-0.6-0.1c-0.1,0-0.1,0-0.2,0l-0.1,0
						c-0.5-0.1-1.1-0.2-1.6-0.2l-0.7,0l0.2-0.1c-0.1,0-0.3,0-0.4,0l0,0c-2.2,0-3.7,1.3-5.2,2.5l-0.2,0.1l0,0
						c-0.2,0.2-0.4,0.4-0.6,0.6c-0.4,0.4-0.8,0.9-1.3,1.4c-0.4,0.5-0.9,0.9-1.4,1.4c-0.2,0.2-0.4,0.4-0.6,0.5
						c-1.4,1.3-2.9,2.8-4.7,4.6c-3.3,3.4-6.7,7.2-10.8,12c-1.9,2.2-3.7,4.4-5.7,6.9c-0.2,0.2-0.4,0.5-0.6,0.7
						c-0.3,0.3-0.5,0.7-0.8,1c-0.1,0.1-0.2,0.3-0.3,0.4l0,0l-0.3,0.4c-0.3,0.3-0.5,0.7-0.8,1c-1,1.3-2.1,2.7-3.3,4.3
						c-4.2,5.4-7.4,9.9-10.3,14.1c-1.2,1.8-2.4,3.6-3.6,5.3c-0.5,0.8-1.1,1.7-1.6,2.5c-0.1,0.2-0.2,0.4-0.4,0.6
						c-0.5,0.7-1,1.5-1.2,2.2c-0.3,0.7-0.6,1.4-0.9,2.2l0,0c0,0,0,0,0,0.1L927.7,95.6C927.7,95.5,927.7,95.5,927.7,95.6L927.7,95.6
						L927.7,95.6z"/>
				</g>
				<g>
					<path fill="#FFCD8A" d="M1064.2,54.4c3.4,3.1-1,14.3-1.3,15.1c-0.3,0.8-43.4,73.3-63.2,69.9s-70.1-16.3-74.9-19.9
						c-4.7-3.5-7.8-18.9,5.2-12.4s62.6,20,71.9,16.6C1011.1,120.5,1064.2,54.4,1064.2,54.4z"/>
				</g>
				<g>
					<g>
						<path fill="#F9AD5A" d="M926.8,111c-0.2,0.1-0.1,0-0.1,0c0.1,0,0.2,0,0.3,0.1c0.3,0.1,0.7,0.2,1,0.3c1.1,0.3,2.2,0.7,3.4,1
							c3.7,1.2,7.4,2.4,11.1,3.6c10.1,3.2,20.2,6.4,30.4,9.1c4.6,1.2,9.2,2.4,13.8,3.3c3,0.6,6.2,1.2,9.3,0.9c3-0.3,6.1-1.1,8.8-2.5
							c2.6-1.4,4.9-3.4,7-5.4c2.6-2.5,5.2-5.1,7.5-7.8c6-6.9,11.8-14,17.5-21c6.3-7.8,12.6-15.6,18.9-23.4c2.6-3.3,5.2-6.5,7.8-9.8
							c0.3-0.4-0.2-0.9-0.5-0.5c-3.1,3.9-6.2,7.7-9.2,11.6c-6.4,8-12.8,15.9-19.3,23.9c-5.5,6.7-11,13.5-16.8,20
							c-2.8,3.1-5.8,6.2-9,8.9c-2.3,2-4.8,3.5-7.7,4.4c-2.1,0.7-4.4,1.1-6.7,1.1c-3.6-0.1-7.2-0.8-10.7-1.6
							c-4.9-1.1-9.8-2.4-14.6-3.7c-10-2.8-19.9-5.9-29.8-9.1c-3-1-6-1.9-9-2.9c-0.9-0.3-1.7-0.5-2.6-0.8c-0.4-0.1-0.9-0.3-1.2-0.2
							C926,110.5,926.4,111.2,926.8,111L926.8,111z"/>
					</g>
				</g>
				<g>
					<g>
						<path fill="#F9AD5A" d="M925.1,113.8c-0.2,0.1-0.1,0-0.1,0c0.1,0,0.2,0,0.3,0.1c0.3,0.1,0.6,0.2,0.9,0.2
							c1.1,0.3,2.1,0.6,3.2,1c3.6,1.1,7.1,2.2,10.7,3.4c10,3.2,19.9,6.3,30,9.1c4.8,1.3,9.6,2.6,14.4,3.7c3.6,0.8,7.2,1.6,10.8,1.8
							c1.6,0.1,3.1,0,4.6-0.3c3.1-0.6,6.1-1.6,8.8-3.3c2.7-1.7,5-4,7.3-6.2c1.3-1.2,2.5-2.4,3.7-3.7c5.6-6.3,10.8-13.1,16-19.7
							c6.3-8.1,12.6-16.2,18.9-24.3c2.1-2.7,4.1-5.4,6.2-8.1c0.6-0.8,1.2-1.5,1.8-2.3c0.2-0.2,0.5-0.5,0.6-0.8
							c0.2-0.4-0.5-0.8-0.6-0.4c-0.1,0.3-0.5,0.6-0.7,0.9c-0.6,0.8-1.3,1.7-1.9,2.5c-2.2,2.9-4.5,5.8-6.7,8.7
							c-6.3,8.2-12.7,16.5-19.1,24.6c-5,6.4-10,12.9-15.5,18.9c-1.5,1.7-3.2,3.2-4.9,4.8c-2.2,2.1-4.6,4.1-7.4,5.5
							c-3.9,1.9-8.2,2.7-12.5,2.2c-3.9-0.4-7.8-1.3-11.7-2.2c-5-1.2-9.9-2.5-14.9-3.9c-9.9-2.8-19.7-5.9-29.4-9
							c-3.1-1-6.1-2-9.2-2.9c-0.9-0.3-1.8-0.5-2.7-0.8c-0.4-0.1-0.9-0.3-1.3-0.2C924.3,113.3,924.7,114,925.1,113.8L925.1,113.8z"/>
					</g>
				</g>
				<g>
					<g>
						<path fill="#F9AD5A" d="M925.9,117.2c-0.2,0.1-0.1,0-0.1,0c0.1,0,0.2,0,0.3,0.1c0.3,0.1,0.6,0.2,0.9,0.2
							c1.1,0.3,2.1,0.6,3.2,1c3.6,1.1,7.1,2.2,10.7,3.4c10,3.2,19.9,6.3,30,9.1c4.8,1.3,9.6,2.6,14.4,3.7c3.6,0.8,7.2,1.6,10.8,1.8
							c1.6,0.1,3.1,0,4.6-0.3c3.2-0.5,6.4-1.4,9.3-2.9c2.9-1.5,5.5-3.5,7.9-5.7c1.3-1.2,2.6-2.5,3.8-3.8c5.8-6.6,11-13.7,16.3-20.7
							c6-7.9,11.9-15.9,17.8-24c1.8-2.4,3.6-4.9,5.4-7.3c0.3-0.4-0.4-0.8-0.6-0.4c-3.2,4.4-6.4,8.8-9.6,13.1
							c-6.2,8.5-12.5,16.9-18.9,25.2c-4.9,6.4-9.8,13.2-15.9,18.5c-2.4,2.1-5.1,4-8.1,5.2c-2.9,1.2-6.1,2-9.2,2.3
							c-3,0.3-6.1-0.4-9-0.9c-9.8-1.8-19.4-4.7-29-7.6c-9.1-2.7-18.2-5.6-27.3-8.5c-1.8-0.6-3.7-1.2-5.5-1.7
							c-0.6-0.2-1.8-0.7-2.4-0.5C925.1,116.8,925.4,117.4,925.9,117.2L925.9,117.2z"/>
					</g>
				</g>
				<g>
					<g>
						<g>
							<path fill="#FFCD8A" d="M988.4,78.7c2.5-4.1,4.9-4.7,10.3-5.8c5.4-1.1,8.7-1.2,9.5-3c1,5,1.9,5.5,0.3,8.8
								c-1.7,3.3-11.1,4.7-13.8,3.7c4.4,1.7,3.5,6-1.9,7.4c-2,0.5-5.6,1-6.1,0.9c-0.4,0-3.5-4.3-1-8
								C988.1,79.1,988.4,78.7,988.4,78.7z"/>
						</g>
						<g>
							<path fill="#FFCD8A" d="M987.2,78.3c2.6-4,1.8-5.9-0.4-10c-2-4-3.8-6.2-2.6-7.8c-5.2,2.6-6.3,2.4-8.5,5.4
								c-2.3,3.1,1.4,9.7,3.9,10.7c-4.2-1.6-8.1,1.5-6.6,5.7c0.5,1.5,2.1,4,2.4,4.2c0.3,0.2,6.6-0.4,9.1-4.1
								C987,78.6,987.2,78.3,987.2,78.3z"/>
						</g>
						<g>
							<path fill="#FFCD8A" d="M1000,70.3c0.1-0.2,0.1-0.5,0.1-0.7c-1.2-4.6-5.6-6.6-10.9-4.4c-0.7,0.3-1.1,0.9-0.9,1.4
								c0.4,1.5,1.2,2.9,2,4.2c0.4,0.8,1.1,2.2,0.6,3c0.5-0.8,1.9-1.3,3.1-1.5c1.8-0.2,3.8-0.8,5.3-1.4
								C999.6,70.9,999.8,70.6,1000,70.3z M989.4,66.2c4.6-2.2,8.4-0.5,9.4,3.8C992.8,72.3,990.7,71.4,989.4,66.2z"/>
						</g>
						<g>
							<path fill="#FFCD8A" d="M995,66.2c-1.1-0.4-2.6,0.1-3.3,1.2c-0.7,1.1-0.3,2.3,0.9,2.8c1.2,0.5,2.6-0.1,3.3-1.2
								C996.6,67.9,996.2,66.7,995,66.2z M993.3,68.5c-0.4-0.2-0.5-0.6-0.3-1c0.2-0.4,0.7-0.6,1.1-0.4c0.4,0.2,0.5,0.6,0.3,1
								C994.2,68.5,993.7,68.7,993.3,68.5z"/>
						</g>
						<g>
							<path fill="#FFCD8A" d="M1006.1,69.5c0.3-1,0.6-2.1,1-3.1c0.1-0.5-0.2-1-0.6-1.2c-1.8-0.7-3.4-1.1-4.4-2.7
								c-0.6-1.1-0.8-2.6-1.6-3.6c-0.3-0.4-0.8-0.5-1.3-0.3c-1.3,0.4-2.6,0.8-3.9,1.2c-0.5,0.2-1.1,0.3-1.6,0.5
								c-0.3-0.1-0.7-0.3-1-0.4c-0.8-0.3-2.8-1.6-3.8-0.9c-1.1,0.8-2,2-3,2.9c-0.5,0.5-0.4,1.1-0.1,1.4c0.1,0.3,0.5,0.5,1,0.4
								c3.2-0.7,7.1-0.8,9.8,0.2c2.9,1,5.4,3.8,7.3,6.1C1004.5,70.9,1005.8,70.5,1006.1,69.5z"/>
						</g>
						<g>
							<path fill="#FFCD8A" d="M1006.1,84.4c0.7-1.3-1.7-2.3-2.5-1c-4.2,7.2-14.7,10.2-23.7,6.9c-8.8-3.2-11-11.7-6.1-18.5
								c0.9-1.3-1.3-2.2-2.2-0.9c-4.5,6.1-4.1,12.9,0.8,17.6c1.4,1.4,4.1,4.3,4.6,5.2c0.4,0.7,0.4,0.8,1.5,0.6
								c0.7-0.1,4.7-0.2,7.8-0.3c1.2,0.1,2.3,0,3.5-0.1c0,0,0,0,0,0l0,0C996.8,93.3,1003.2,89.7,1006.1,84.4z"/>
						</g>
					</g>
					<g>
						<g>
							<path fill="#FFCD8A" d="M971.8,99.3c0,0-0.1,0-0.1,0c-0.1-0.1-0.3-0.1-0.4-0.2c-1-0.5-1.3-1.5-0.6-2.4
								c0.7-0.8,2.1-1.1,3.1-0.7c0.1,0.1,0.2,0.1,0.3,0.2c1,0.5,1.3,1.5,0.6,2.4C974.1,99.4,972.8,99.7,971.8,99.3z M979.1,101.5
								c-0.9-0.4-1.4-1.2-1-2c0.4-0.9,1.6-1.5,2.8-1.3c0.1,0,0.3,0,0.4,0.1c1.2,0.2,1.9,1.2,1.5,2.1c-0.3,0.9-1.6,1.5-2.8,1.3
								c-0.2,0-0.3-0.1-0.5-0.1C979.3,101.6,979.2,101.6,979.1,101.5z M965.5,95.5c-0.2-0.1-0.4-0.2-0.6-0.3
								c-0.1-0.1-0.2-0.2-0.3-0.3c-0.8-0.7-0.6-1.7,0.4-2.4c1-0.7,2.4-0.7,3.1,0c0.1,0.1,0.2,0.1,0.3,0.2c0.8,0.7,0.6,1.7-0.3,2.4
								C967.3,95.6,966.3,95.8,965.5,95.5z M987.4,102.2c-0.7-0.3-1.2-0.9-1.2-1.5c0-1,1-1.8,2.2-1.8c0.1,0,0.3,0,0.4,0
								c1.2-0.1,2.2,0.7,2.3,1.7c0,1-0.9,1.8-2.2,1.9c-0.2,0-0.3,0-0.5,0C988.1,102.4,987.8,102.3,987.4,102.2z M961.2,90.4
								c-0.4-0.1-0.7-0.4-0.8-0.7c-0.1-0.1-0.1-0.2-0.2-0.3c-0.4-0.8,0.2-1.8,1.3-2.3c1.1-0.5,2.4-0.2,2.8,0.6
								c0,0.1,0.1,0.2,0.1,0.3c0.5,0.8-0.1,1.9-1.2,2.3C962.6,90.7,961.8,90.7,961.2,90.4z M995.7,101c-0.5-0.2-1-0.6-1.1-1.1
								c-0.3-0.9,0.3-2,1.5-2.3c0.1,0,0.3-0.1,0.4-0.1c1.1-0.3,2.4,0.2,2.7,1.1c0.4,0.9-0.2,2-1.4,2.3c-0.1,0-0.3,0.1-0.4,0.1
								C996.8,101.3,996.2,101.2,995.7,101z M959.4,84.6c-0.5-0.2-0.9-0.6-0.9-1.1c0-0.1,0-0.2,0-0.3c-0.1-0.9,0.9-1.8,2.1-2.1
								c1.2-0.2,2.2,0.3,2.3,1.2c0,0.1,0,0.2,0,0.3c0.1,0.9-0.8,1.8-2,2.1C960.3,84.8,959.8,84.8,959.4,84.6z M1003.1,98.1
								c-0.3-0.1-0.7-0.3-0.9-0.6c-0.7-0.8-0.4-1.9,0.6-2.5c0.1-0.1,0.2-0.1,0.3-0.2c1-0.6,2.3-0.4,3,0.4c0.7,0.8,0.4,2-0.5,2.5
								c-0.1,0.1-0.2,0.1-0.4,0.2C1004.6,98.3,1003.8,98.3,1003.1,98.1z M959.9,78.4c-0.7-0.3-1-0.8-0.8-1.5c0-0.1,0.1-0.2,0.1-0.4
								c0.3-0.9,1.4-1.7,2.6-1.7c1.1,0,1.8,0.7,1.6,1.7c0,0.1-0.1,0.2-0.1,0.3c-0.2,0.9-1.4,1.7-2.5,1.7
								C960.4,78.5,960.2,78.5,959.9,78.4z M1009.1,93.5c-0.2-0.1-0.3-0.2-0.5-0.3c-0.9-0.6-1-1.8-0.3-2.6c0.1-0.1,0.2-0.2,0.2-0.3
								c0.7-0.8,2-0.9,2.9-0.3c0.9,0.6,1.1,1.8,0.3,2.6c-0.1,0.1-0.2,0.2-0.3,0.3C1010.9,93.6,1009.9,93.8,1009.1,93.5z M962.7,72.1
								c-0.8-0.3-1.1-1.1-0.5-1.9c0.1-0.1,0.1-0.2,0.2-0.3c0.6-0.9,1.8-1.4,2.8-1.2c1,0.2,1.3,1.2,0.8,2c-0.1,0.1-0.1,0.2-0.2,0.3
								c-0.5,0.9-1.8,1.4-2.8,1.2C962.9,72.2,962.8,72.2,962.7,72.1z M1013.1,87.6c-1-0.4-1.5-1.4-1.1-2.4l0-0.1
								c0-0.1,0.1-0.2,0.1-0.3c0.4-0.9,1.6-1.4,2.6-1c0,0,0,0,0,0c1,0.4,1.5,1.4,1.1,2.4c-0.1,0.1-0.1,0.2-0.2,0.4
								C1015.4,87.5,1014.1,88,1013.1,87.6z M967.3,66.3c-0.1,0-0.1-0.1-0.2-0.1c-0.8-0.4-0.8-1.5,0-2.3c0.1-0.1,0.2-0.2,0.3-0.3
								c0.8-0.8,2-1.1,2.8-0.6c0.8,0.5,0.8,1.5,0,2.3c-0.1,0.1-0.2,0.2-0.3,0.3C969.3,66.3,968.1,66.7,967.3,66.3z M1015.2,81
								c-0.8-0.3-1.3-1.1-1.1-1.9c0-0.1,0-0.2,0-0.3c0.1-1,1.1-1.7,2.2-1.6c1.1,0.1,1.8,1,1.7,2c0,0.1,0,0.3,0,0.4
								c-0.1,1-1.1,1.7-2.2,1.6C1015.5,81.1,1015.3,81,1015.2,81z M973.2,61.3c-0.2-0.1-0.4-0.2-0.5-0.4c-0.5-0.6-0.2-1.7,0.7-2.4
								c0.1-0.1,0.2-0.2,0.4-0.3c0.9-0.7,2.1-0.7,2.6,0c0.5,0.7,0.2,1.7-0.7,2.4c-0.1,0.1-0.2,0.1-0.3,0.2
								C974.7,61.4,973.8,61.5,973.2,61.3z M1015.2,74.1c-0.6-0.2-1-0.7-1.1-1.4c0-0.1,0-0.2,0-0.3c-0.1-1,0.6-1.9,1.6-2.1
								c1-0.2,2,0.5,2.1,1.4c0,0.1,0,0.3,0.1,0.4c0.1,1-0.6,1.9-1.6,2.1C1015.8,74.3,1015.5,74.3,1015.2,74.1z M979.9,57.4
								c-0.3-0.1-0.6-0.4-0.7-0.7c-0.3-0.8,0.3-1.8,1.3-2.3c0.1-0.1,0.3-0.1,0.4-0.2c1-0.5,2-0.2,2.2,0.6c0.3,0.8-0.3,1.8-1.3,2.3
								c-0.1,0.1-0.2,0.1-0.3,0.2C980.9,57.6,980.3,57.6,979.9,57.4z M1013.4,67.7c-0.4-0.2-0.7-0.5-0.9-0.9c0-0.1-0.1-0.2-0.1-0.3
								c-0.4-0.9,0.1-2,1-2.4c0.9-0.5,2-0.1,2.4,0.8c0,0.1,0.1,0.2,0.1,0.3c0.4,0.9-0.1,2-1,2.4
								C1014.4,67.8,1013.9,67.8,1013.4,67.7z M986.8,54.9c-0.5-0.2-0.8-0.6-0.8-1.1c0-0.9,0.8-1.8,1.8-2.1c0.1,0,0.3-0.1,0.4-0.1
								c1-0.2,1.8,0.3,1.8,1.2c0,0.9-0.8,1.9-1.8,2.1c-0.1,0-0.2,0.1-0.3,0.1C987.5,55.1,987.1,55,986.8,54.9z M1010.2,62
								c-0.2-0.1-0.5-0.3-0.6-0.5c-0.1-0.1-0.1-0.2-0.2-0.2c-0.6-0.7-0.4-1.9,0.4-2.5c0.8-0.7,1.9-0.6,2.5,0.1
								c0.1,0.1,0.1,0.2,0.2,0.3c0.6,0.7,0.4,1.9-0.4,2.5C1011.5,62.2,1010.8,62.3,1010.2,62z M993.5,54c-0.6-0.2-0.9-0.9-0.7-1.6
								c0.2-1,1.2-1.7,2.1-1.7c0.1,0,0.2,0,0.4,0c0.9,0,1.5,0.8,1.3,1.7c-0.2,1-1.2,1.7-2.1,1.7c-0.1,0-0.2,0-0.3,0
								C993.9,54.1,993.7,54.1,993.5,54z M1005.7,57.7c-0.1,0-0.2-0.1-0.3-0.2c-0.1-0.1-0.2-0.1-0.2-0.2c-0.7-0.5-0.8-1.6-0.2-2.4
								c0.6-0.8,1.7-1.1,2.5-0.6c0.1,0.1,0.2,0.1,0.3,0.2c0.7,0.5,0.8,1.6,0.2,2.4C1007.3,57.7,1006.4,58,1005.7,57.7z M999.8,54.9
								c-0.8-0.3-1.1-1.2-0.6-2.1c0.4-0.9,1.5-1.5,2.4-1.2c0.1,0,0.2,0.1,0.3,0.1c0.9,0.3,1.2,1.2,0.8,2.2c-0.4,0.9-1.5,1.5-2.4,1.2
								c-0.1,0-0.2-0.1-0.3-0.1C999.9,54.9,999.9,54.9,999.8,54.9z"/>
						</g>
					</g>
				</g>
			</g>
		</g>
		<g>
			<path fill="#F7941E" d="M1048.2,82.2c-0.8-2.9-2.9-5.8-5.3-7.7c-1.9-1.5-3.7-2.4-6.2-2.6c-2-0.2-4.5,0.8-5.7,2.3
				c-0.1,0.2-0.3,0.3-0.4,0.5c-0.2,0.2-0.3,0.4-0.5,0.6c-3.3,4.5-5.1,10.8-4.8,16.3c0.2,3,2.5,5.4,5.6,5.4c2.1,0,4.3-0.2,6.3-0.7
				c2.4-0.7,4.3-1.9,6.2-3.3c1.6-1.2,3.1-3,4.1-4.6C1048.8,86.5,1048.8,84.2,1048.2,82.2z"/>
		</g>
		<g>
			<path fill="#F9AD5A" d="M1046.4,80.8c-0.7-2.1-2.4-4.2-4.4-5.5c-1.6-1-3.1-1.7-5.1-1.9c-1.7-0.1-3.7,0.6-4.8,1.7
				c-0.1,0.1-0.2,0.2-0.3,0.4c-0.1,0.1-0.3,0.3-0.4,0.4c-2.7,3.2-4.3,7.8-4,11.7c0.1,2.2,2,3.8,4.7,3.9c1.8,0,3.6-0.1,5.3-0.5
				c2-0.5,3.6-1.3,5.2-2.4c1.4-0.9,2.6-2.1,3.4-3.3C1046.8,83.9,1046.8,82.2,1046.4,80.8z"/>
		</g>
		<g>
			<path fill="#F7941E" d="M1055.9,93.7c-1-1.3-3.2-1.8-4.6-0.6c-1.6,1.4-2.9,3.1-4.2,4.7c-1.5,1.8-3.1,3.7-4.1,5.9
				c-0.7,1.6,0.2,3.6,1.8,4.3c1.7,0.7,4.4-1.9,4.4-2c0,0,0,0,0,0c0.3-0.4,0.5-0.8,0.8-1.2c0.7-1,5.3-6.4,5.3-6.4
				C1056.6,97.1,1057,95.1,1055.9,93.7z"/>
		</g>
		<g>
			<path fill="#F9AD5A" d="M1052.8,95.1c-0.4-0.3-1.2-0.3-1.6,0.1c-0.4,0.4-3.7,5-4,5.5c-0.4,0.5-0.8,1.1-1,1.7
				c-0.2,0.4,0.3,0.9,0.8,1c0.6,0.1,1.3-0.7,1.4-0.7c0,0,0,0,0,0c0.1-0.1,0.1-0.2,0.2-0.3c0.2-0.3,4.3-6,4.3-6
				C1053.2,96,1053.2,95.5,1052.8,95.1z"/>
		</g>
	</g>
	<g>
		<path fill="#FBB040" d="M1100.1,35.8c-6.8-10.8-20.5-13.7-32.4-13.8c-15.8,0.2-30.7,7-32.9,24c-1.6,12.6,7.2,25.8,18,31.5
			c13.3,7,30.4,2.8,41.1-7C1103.3,61.9,1107.2,47,1100.1,35.8z"/>
		<path fill="#FFFFFF" d="M1067.7,28.6c45,0,33.4,45.6-1,45.6C1040.2,74.3,1025.8,28.6,1067.7,28.6z"/>
		<text transform="matrix(1 0 0 1 1060.0254 66.396)" fill="#631E3A" font-family="'LuckiestGuy-Regular'" font-size="42.5179">1</text>
	</g>
	<path fill="#FFFFFF" d="M950.8,47.1c2.2-3,4.3-6,6.5-9c0.9-0.7,1.6-1.7,2-2.9c2-3.3,0.2-8-2.9-9.9c-1.2-0.7-2.5-1-3.7-1
		c0,0,0,0,0,0c-3.7-0.3-7.5-0.6-11.2-0.9c-1.4-0.1-2.7,0.3-3.8,1c-0.7-0.3-1.5-0.4-2.3-0.5c-3.5-0.2-6.9-0.4-10.4-0.6
		c-3.2-0.2-5.8,2-7,4.8c-3.2-1.5-6.8-2.2-10.8-2c-5,0.2-9.4,2.4-12.8,5.6c-4.1-3.8-9.7-5.9-16.2-5.6c-3.9,0.2-7.5,1.5-10.5,3.7
		c0,0-0.1-0.1-0.1-0.1c-7.9-7.5-20.2-7.3-29.8-3.7c-3.2,1.2-5.5,3.7-5.5,7.2c0,9.5,0,19.1,0,28.6c0,2.4,1.4,5.5,3.7,6.5
		c9.6,4.2,24.1,5,31.8-2c3.4,2.2,7.5,3.6,11.9,3.8c5.8,0.3,10.8-2.1,14.5-5.8c3.9,3.4,9,5.6,14.5,5.8c3.2,0.1,6.2-0.5,8.9-1.8
		c1.3,2.4,3.8,4.1,6.6,4c3.1-0.1,6.2-0.2,9.2-0.4c1.5-0.1,2.9-0.5,4-1.2c1.5,0.7,3.2,0.9,5.1,0.5c3.4-0.6,6.9-1.2,10.3-1.8
		c4.9-0.9,6.7-7.1,4.5-11C955.2,54.7,953,50.9,950.8,47.1z"/>
	<text transform="matrix(1 0 0 1 838.6021 63.6414)" fill="#631E3A" font-family="'LuckiestGuy-Regular'" font-size="45.5242">BOOK</text>
</g>
<g>
	<g>
		<path fill="#E6E7E8" stroke="#E6E7E8" stroke-miterlimit="10" d="M293.9,106.6c0-3.3-2.7-6-6-6c-0.5,0-0.9,0.1-1.3,0.1
			c-0.2-5.5-4.7-10-10.3-10c-5.7,0-10.3,4.6-10.3,10.3c0,0.1,0,0.3,0,0.4c-0.9-0.6-2-0.9-3.1-0.9c-1.1,0-2.1,0.3-3,0.8
			c0-0.1,0-0.2,0-0.3c0-5.7-4.6-10.3-10.3-10.3c-0.9,0-1.7,0.1-2.6,0.3c-1.8-7.2-8.2-12.5-15.9-12.5c-7.7,0-14.1,5.3-15.9,12.4
			c-0.8-0.2-1.6-0.3-2.4-0.3c-5.6,0-10.2,4.5-10.3,10.1c-0.6-0.2-1.2-0.3-1.8-0.3c-3.3,0-6,2.7-6,6c0,3,2.2,5.4,5,5.9v0.1h88.4v0
			C291.3,112.4,293.9,109.8,293.9,106.6z"/>
	</g>
	<g>
		<path fill="#E6E7E8" stroke="#E6E7E8" stroke-miterlimit="10" d="M131.9,86.3c0-3.3-2.7-6-6-6c-0.5,0-0.9,0.1-1.3,0.1
			c-0.2-5.5-4.7-10-10.3-10c-5.7,0-10.3,4.6-10.3,10.3c0,0.1,0,0.3,0,0.4c-0.9-0.6-2-0.9-3.1-0.9c-1.1,0-2.1,0.3-3,0.8
			c0-0.1,0-0.2,0-0.3c0-5.7-4.6-10.3-10.3-10.3c-0.9,0-1.7,0.1-2.6,0.3c-1.8-7.2-8.2-12.5-15.9-12.5c-7.7,0-14.1,5.3-15.9,12.4
			c-0.8-0.2-1.6-0.3-2.4-0.3c-5.6,0-10.2,4.5-10.3,10.1c-0.6-0.2-1.2-0.3-1.8-0.3c-3.3,0-6,2.7-6,6c0,3,2.2,5.4,5,5.9v0.1h88.4v0
			C129.4,92.1,131.9,89.5,131.9,86.3z"/>
	</g>
	<path fill="#FFFFFF" d="M282.9,80.5c-5.5-1.4-10.7-1.6-16-0.9c0.4-2.1,0.4-4.1,0.1-6.3c-0.3-2.2-1.4-4.2-3-5.8
		c2.9-4.2,4.1-9.5,4-15c0-0.3,0-0.6,0-1c-0.7-8-3-17.6-10.4-22c-7.1-4.2-18.7,1.6-25.1,4.7c0,0,0,0-0.1,0
		c-6.7,3.4-13.3,8.1-14.7,15.1c-3.8-1-7.7-0.9-11.8,1.5c-6.7,3.8-9.2,12.7-10.3,19.7c-0.1,0.8-0.2,1.5-0.1,2.2
		c0-0.1-0.1-0.1-0.1-0.2c-0.9,7-2.3,16,5.4,19.7c4.8,2.3,10.6,2.2,16,1.4c0.9,3,1.7,6,2.2,9.1c0,0,0,0,0,0c0,0.2,0,0.4,0,0.6
		c0,0.1,0,0.2,0,0.3c0,0.4,0,0.8,0.1,1.1c0,0.4,0.1,0.7,0.2,1.1c0,0.1,0,0.1,0,0.2c0.3,1.1,0.8,2,1.5,2.9c1.4,2.7,3.7,4.6,7.6,4.8
		c3.2,0.2,5.7-0.9,7.5-2.7c1.5,0.7,3.2,1.1,5.1,1c0.7-0.1,1.4-0.2,2-0.5c0,0.1,0,0.1,0,0.2c4-1.5,7.2-4.5,7.8-8.5
		c1.8,1.1,3.9,1.8,6.1,2.2c-0.2,4.9,4.1,8.4,8.5,10c4.5,1.7,9.7,1,14-0.9c3.8-1.7,5.1-5.2,5.1-8.9c7.7-0.9,16-3.1,18-10.1
		C305.7,85,290,82.3,282.9,80.5z"/>
	<g>
		<g>
			<polygon opacity="0.5" points="285.6,87.8 225.3,66.8 194.9,65.3 154.1,44.7 135.4,46.6 92.8,38.3 62.7,45.5 46,62.5 30.6,90.3 
				28.5,106.5 48.5,133 226.3,149.9 272.4,146.5 294.8,132.1 301.2,120.8 			"/>
			<path fill="#FFFFFF" d="M117.6,52.4c3.9-8.2,0.3-18.8-8.1-22.9c-3.4-10.9-17.8-15.6-27.1-8.9c-5.8-3.8-13.8-4.3-20-0.2
				c-4.4-3-10.1-4-15.7-2.1c-7.6,2.6-11.3,9.2-11.3,16.2c-8,5.4-10.2,16.8-4,24.7c0.6,7.9,6.1,14.3,13.5,16c0,0.1,0,0.2,0,0.3
				c-3.7,2.7-7.3,5.3-11,8c-5.8,4.2-4.2,14,3.8,14c2,0,4,0,5.9,0c3,0,5-1.9,7-3.8c0,0,0,0,0,0c1.1,2.2,3.2,3.8,6.5,3.8
				c2,0,4,0,5.9,0c3,0,5-1.9,7-3.8c0.2-0.1,0.3-0.3,0.5-0.4c1,2.4,3.2,4.2,6.7,4.2c4.1,0,8.2,0.6,11.5-2.4c3-2.7,5.9-5.4,8.9-8.1
				c2.8-2.5,5-4.5,5.1-8.6c4.9,0.1,9.8-1.8,13.4-5.8C121.6,66.6,121.4,58.6,117.6,52.4z"/>
			<path fill="#FFFFFF" d="M293.8,95.7c-2.7-6.2-5.4-12.3-8.1-18.5c-0.4-1-1.2-1.3-1.9-1.3c-10.5-3.7-21-7.3-31.5-11
				c-6.8-2.4-13.7-4.8-20.5-7.1c-2.6-0.9-5.4-2.3-8.1-2.5c-6.8-0.3-13.7-0.7-20.5-1c-2.7-0.1-5.3-0.3-8-0.4c0,0,0,0,0,0
				c-0.6-0.3-1.2-0.6-1.7-0.9c-12.1-6.1-24.1-12.2-36.2-18.3c-4-2-8.7-0.5-13-0.1c-2.6,0.3-5.2,0.5-7.9,0.8c0.5-0.1-0.3,0-0.7-0.1
				c-1.1-0.2-2.3-0.4-3.4-0.7c-12.4-2.4-24.8-4.9-37.3-7.3c-1.4-0.3-3,0.4-4.3,0.7c-3.6,0.9-7.3,1.7-10.9,2.6
				c-3.6,0.9-7.2,1.7-10.8,2.6c-1.7,0.4-4,0.5-5.6,1.5c-1.6,0.9-2.9,2.8-4.2,4.1c-2.8,2.9-5.7,5.7-8.5,8.6c-3.1,3.1-5,5.5-7.1,9.3
				c-3.6,6.6-7.3,13.2-10.9,19.7C30.2,81,30,85,29.3,90c-0.3,2.1-1.4,5.4-0.8,7.6c0.4,1.6,2.2,3.2,3.2,4.5
				c4.6,6.1,9.1,12.2,13.7,18.2c1,1.3,2,2.6,3,3.9c1.5,1.9,4.6,1.2,6.8,1.1c4.9-0.1,11.9,1.3,16-1.8c2.8-2,5.5-4.1,8.3-6.1
				c1.3-0.9,0.2-0.5,1.8-0.7c0.9-0.1,1.8-0.3,2.7-0.4c0.4-0.1,0.7-0.1,1-0.1c4.7,3.5,9.5,7,14.2,10.6c1.6,1.2,4.3,0.8,6.1,0.8
				c4.4,0.1,8.8,0.3,13.3,0.4c0.3,0,0.6,0,0.8,0c1.3,0.7,2.5,1.4,3.8,2.1c4,2.2,8.1,4.5,12.1,6.7c5.4,3,82.1,10.6,85.7,10.9
				c2,0.1,4.9,0.9,6.9,0.3c6.1-1.9,12.3-3.8,18.4-5.6c4.6-1.4,9.4-1.7,14.2-2.3c4.4-0.6,9.4-0.4,13.2-2.9c6.3-4,12.6-8.1,18.8-12.1
				c4.5-2.9,4.3-10.9,5.4-15.7C298.9,104.5,295.8,100.3,293.8,95.7z M85.2,116.3C85.8,116.3,85.6,116.4,85.2,116.3L85.2,116.3z"/>
			<polygon fill="#ADC136" points="66.8,41.1 94.2,34.5 135.7,42.6 153.5,40.8 193.2,60.9 223.4,62.4 280.2,82.2 291.2,107 
				288.5,119.4 269,132 247,135 226.5,141.3 217.6,141.3 203.9,134.7 193.2,134.7 174.7,138.6 160.3,133.5 142.9,133.2 121.3,121.2 
				102.4,120.6 86.7,108.9 77.4,110.4 66.8,118.2 52.7,118.5 35.6,95.7 37.3,82.5 51.7,56.4 			"/>
			<polygon opacity="0.2" fill="#E6E7E8" points="192.7,59.4 167.2,138.2 190.2,141.6 215.5,62.1 			"/>
			<polygon opacity="0.2" fill="#E6E7E8" points="247.6,68.6 225,144.5 248,139.4 268.5,74.6 			"/>
			<polygon opacity="0.2" fill="#E6E7E8" points="94.1,29.9 61,119.2 88.9,112.3 118.8,35.6 			"/>
			<polygon opacity="0.2" fill="#E6E7E8" points="151.4,38.6 119.8,123.9 141.3,134.5 173,48.4 			"/>
		</g>
		<g>
			<g>
				
					<ellipse transform="matrix(0.9959 -9.024590e-02 9.024590e-02 0.9959 -5.9385 11.5401)" fill="#286784" cx="124.6" cy="71.4" rx="13" ry="7.2"/>
				
					<ellipse transform="matrix(0.9959 -9.024590e-02 9.024590e-02 0.9959 -6.2331 13.0433)" fill="#286784" cx="141.1" cy="75.4" rx="10.1" ry="5.5"/>
				
					<ellipse transform="matrix(0.9959 -9.024590e-02 9.024590e-02 0.9959 -5.4411 12.8436)" fill="#286784" cx="139.3" cy="66.6" rx="9.1" ry="5.7"/>
				
					<ellipse transform="matrix(0.9959 -9.024590e-02 9.024590e-02 0.9959 -5.7802 14.1679)" fill="#286784" cx="153.8" cy="71" rx="12" ry="7"/>
			</g>
			<g>
				
					<ellipse transform="matrix(0.9959 -9.024590e-02 9.024590e-02 0.9959 -6.1129 11.5639)" fill="#4997B2" cx="124.8" cy="73.4" rx="13" ry="7.2"/>
				
					<ellipse transform="matrix(0.9959 -9.024590e-02 9.024590e-02 0.9959 -6.4075 13.0671)" fill="#4997B2" cx="141.3" cy="77.4" rx="10.1" ry="5.5"/>
				
					<ellipse transform="matrix(0.9959 -9.024590e-02 9.024590e-02 0.9959 -5.6154 12.8674)" fill="#4997B2" cx="139.5" cy="68.5" rx="9.1" ry="5.7"/>
				
					<ellipse transform="matrix(0.9959 -9.024590e-02 9.024590e-02 0.9959 -5.9545 14.1917)" fill="#4997B2" cx="154" cy="72.9" rx="12" ry="7"/>
			</g>
		</g>
		<g>
			<g>
				
					<ellipse transform="matrix(0.9959 -9.024590e-02 9.024590e-02 0.9959 -5.5896 17.2471)" fill="#286784" cx="187.9" cy="70.4" rx="12" ry="6.9"/>
				
					<ellipse transform="matrix(0.9959 -9.024590e-02 9.024590e-02 0.9959 -5.6629 18.6383)" fill="#286784" cx="203.3" cy="71.9" rx="12" ry="6.9"/>
				
					<ellipse transform="matrix(0.9959 -9.024590e-02 9.024590e-02 0.9959 -6.4449 17.8868)" fill="#286784" cx="194.6" cy="80.2" rx="12" ry="6.9"/>
				
					<ellipse transform="matrix(0.9959 -9.024590e-02 9.024590e-02 0.9959 -6.7528 19.0672)" fill="#286784" cx="207.5" cy="84.2" rx="12" ry="6.9"/>
			</g>
			<g>
				
					<ellipse transform="matrix(0.9959 -9.024590e-02 9.024590e-02 0.9959 -5.778 17.1516)" fill="#4997B2" cx="186.8" cy="72.5" rx="12" ry="6.9"/>
				
					<ellipse transform="matrix(0.9959 -9.024590e-02 9.024590e-02 0.9959 -5.8513 18.5428)" fill="#4997B2" cx="202.1" cy="74" rx="12" ry="6.9"/>
				
					<ellipse transform="matrix(0.9959 -9.024590e-02 9.024590e-02 0.9959 -6.6333 17.7914)" fill="#4997B2" cx="193.4" cy="82.2" rx="12" ry="6.9"/>
				
					<ellipse transform="matrix(0.9959 -9.024590e-02 9.024590e-02 0.9959 -6.9412 18.9717)" fill="#4997B2" cx="206.3" cy="86.2" rx="12" ry="6.9"/>
			</g>
		</g>
		<path fill="#F1F2F2" d="M164.8,70.1c0-2.9,11.6-5.9,12.7,0.4c-1,2.3-2,4.4-2,4.4s-1.4-4.1-5.5-3.8s-6.1,5.5-6.1,5.5L164.8,70.1z"
			/>
	</g>
	<g>
		<path fill="#FFFFFF" d="M214.1,125.2c0.1-1.5-0.1-2.7-0.6-3.8c-3.5-14.8-20.5-16.8-34.1-13.1c-0.6,0.2-1.1,0.4-1.7,0.7
			c-1.4-1.2-3.2-2-5.1-1.9c-3.9,0.2-7.8,0.4-11.8,0.6c-0.9,0-1.8,0.2-2.7,0.5c-0.3-0.2-0.7-0.4-1.1-0.6c-1.1-0.7-2.5-1-4.1-1
			c-3.8,0-7.6,0-11.4,0c-2.3,0-4.1,0.9-5.5,2.3c-1.3-0.9-2.9-1.5-4.6-1.4c-3.6,0.1-7.2,0.3-10.9,0.4c-4.5,0.2-8.1,3.6-8.1,8.1
			c-0.1,9.7-0.3,19.5-0.4,29.2c-0.1,4.3,3.7,8.3,8.1,8.1c3.3-0.1,6.5-0.2,9.8-0.3c1.9-0.1,3.7-0.7,5-1.8c1.5,1.9,3.8,3.2,6.3,3.1
			c3.2-0.1,6.4-0.3,9.6-0.4c1.7-0.1,3.2-0.6,4.5-1.4c2.6,0.3,5.1,0.5,7.7,0.8c1.2,0.1,2.4-0.2,3.5-0.8c1.1,0.6,2.4,0.9,3.6,0.8
			c2.1-0.3,4.2-0.5,6.3-0.8c1.3,1,3,1.6,4.7,1.6c3.3,0,6.6,0,9.9,0c4.4,0,8.1-3.7,8.1-8.1c0-1,0-2,0-3c6.9-2,12.2-6.4,14.1-13.7
			C214,128,214.2,126.7,214.1,125.2z"/>
		<text transform="matrix(1 0 0 1 119.2745 145.5423)" fill="#6F9010" font-family="'LuckiestGuy-Regular'" font-size="43.3156">MAP</text>
	</g>
	<g>
		<g>
			<g>
				<path opacity="0.4" fill="#231F20" d="M235,95.9c-30,2.2-33.1,14.7,2.2,13.6S257.5,94.2,235,95.9z"/>
				<path opacity="0.4" fill="#231F20" d="M274.8,104.4c-26.3,1.2-28.9,7.7,1.9,7.2C307.5,111,294.4,103.5,274.8,104.4z"/>
				<path fill="#FFFFFF" d="M245.9,49.2c-0.4-0.7-1.4-1-2.2-0.6c-2.2,1.4-3.7,3.6-5,5.8c-1.4,2.4-2.8,4.9-3.8,7.5
					c-2.2,5.2-3.6,10.7-4.5,16.2c-0.6,3.8-1,7.6-0.9,11.4c0,2.1,0.3,4.1,0.6,6.2c0.1,0.9,0.3,1.7,0.6,2.5c0.1,0.4,0.2,0.8,0.4,1.2
					c0.1,0.2,0.1,0.3,0.2,0.5c0.2,0.8,0.6,1.4,1.1,2c1.1,1.2,3.3,1.5,4.6,0.6c0.8-0.5,1.6-1.3,1.8-2.3c0.1-0.8,0.2-1.7-0.2-2.4
					c-0.1-0.1-0.1-0.3-0.2-0.4c-0.1-0.3-0.3-0.5-0.4-0.8c-0.7-1.8-1.1-3.8-1.4-5.7c-0.6-5.3-0.3-10.8,0.4-16.1
					c0.6-4.7,1.7-9.2,3.3-13.7c0.2-0.5,0.4-1.1,0.6-1.6c0.1-0.3,0.2-0.5,0.3-0.8c0,0,0,0,0-0.1c0-0.1,0.1-0.2,0.1-0.3
					c0.4-0.9,0.8-1.8,1.2-2.7c0.4-0.9,0.9-1.8,1.5-2.7c0.1-0.2,0.3-0.4,0.4-0.6c0,0,0.1-0.1,0.1-0.1c-0.1,0.1,0.1-0.2,0.2-0.2
					c0.3-0.4,0.7-0.7,1.1-1.1C246.2,50.6,246.2,49.7,245.9,49.2z"/>
				<path fill="#A7A9AC" d="M230.1,95.8c0.1,0.9,0.3,1.7,0.6,2.5c0.1,0.4,0.2,0.8,0.4,1.2c0.1,0.2,0.1,0.3,0.2,0.5
					c0.2,0.8,0.6,1.4,1.1,2c0.1,0.1,0.2,0.2,0.3,0.2c0.2,0,0.3,0.1,0.4,0.3l0,0c0.2,0.1,0.4,0.2,0.7,0.3l0,0
					c1.9,0.3-0.1-2.7-0.5-5.8c-0.8-5.9,0.1-31,3.1-34.9c0,0,0.5-2.3,0.6-4.5c-0.1,0.2-0.2,0.3-0.3,0.5c0,0,0,0,0,0
					c-0.1,0.1-0.2,0.3-0.2,0.5c0,0,0,0.1,0,0.1c-0.1,0.1-0.1,0.3-0.2,0.4c0,0,0,0.1-0.1,0.1c-0.1,0.1-0.1,0.3-0.2,0.4
					c0,0,0,0.1-0.1,0.1c-0.1,0.1-0.1,0.2-0.2,0.4c0,0.1,0,0.1-0.1,0.2c-0.1,0.1-0.1,0.2-0.2,0.3c0,0.1,0,0.1-0.1,0.2
					c-0.1,0.1-0.1,0.2-0.2,0.4c0,0.1,0,0.1-0.1,0.2c-0.1,0.2-0.1,0.3-0.2,0.5c-2.2,5.2-3.6,10.7-4.5,16.2c-0.6,3.8-1,7.6-0.9,11.4
					C229.5,91.7,229.7,93.7,230.1,95.8z"/>
				<path fill="#A7A9AC" d="M237.4,56.8c-0.9,1.6-1.7,3.2-2.4,4.8c0.9,1.7,2.4,3.8,3.8,4.1c0.4-1.5,0.9-3,1.4-4.5
					c0.2-0.5,0.4-1.1,0.6-1.6c0.1-0.2,0.2-0.5,0.3-0.7L237.4,56.8z"/>
				<g>
					<path fill="#FFFFFF" d="M253.1,75c-1.2-0.8-3.2,0-4.3,0.7c-1.1,0.6-2.2,1.4-3.1,2.4c-1.8,1.8-3.3,3.9-4.6,6
						c-0.9,1.5-1.7,3-2.4,4.6c-0.9,2.1-1.7,4.1-2.1,6.4c-0.2,0.8-0.3,1.6-0.3,2.5c-0.1,0.8,0,1.7,0.2,2.5c0.3,1.9,1.4,4.1,3.4,4.5
						c0.8,0.2,1.6,0.1,2.4-0.3c0.9-0.5,1.7-1.6,1.5-2.7c0-0.3,0-0.8-0.1-1.1c-0.1-0.3-0.3-0.7-0.4-1c-0.1-0.3-0.3-0.5-0.4-0.7
						c0.1,0.3,0.2,0.5,0.3,0.8c-0.2-0.5-0.3-1-0.4-1.5c0,0.3,0.1,0.6,0.1,0.9c-0.1-1-0.1-2,0.1-2.9c0,0.3-0.1,0.6-0.1,0.9
						c0.3-2.4,1.1-4.7,2-6.9c-0.1,0.2-0.2,0.5-0.3,0.7c1-2.4,2.3-4.7,3.7-6.9c0.2-0.3,0.4-0.6,0.6-0.9c0.1-0.2,0.2-0.3,0.3-0.5
						c0.4-0.6-0.3,0.4,0,0c0.5-0.6,1-1.2,1.5-1.8c0.5-0.6,1.1-1,1.6-1.6c0.6-0.7,1.4-1.1,1.6-2C254,76.1,253.7,75.4,253.1,75
						L253.1,75z"/>
				</g>
				<path fill="#A7A9AC" d="M243.7,80.3c-0.9,1.2-1.8,2.5-2.6,3.7c0,0,0,0,0,0c1,2,2.3,4.5,3.8,5.7c0.6-1.3,1.2-2.5,1.9-3.7
					C245.8,84.1,244.6,81.9,243.7,80.3z"/>
				<g>
					<path fill="#FFFFFF" d="M217.3,75.5c0.2,0.2-0.3-0.3-0.1-0.1C217.2,75.4,217.3,75.5,217.3,75.5C217.5,75.8,217,75.2,217.3,75.5
						c0,0,0,0.1,0.1,0.1c0.1,0.1,0.2,0.2,0.3,0.3c-0.2-0.3-0.3-0.4-0.2-0.2c0,0,0.1,0.1,0.1,0.1c0.1,0.1,0.1,0.2,0.2,0.2
						c0.1,0.2,0.3,0.4,0.4,0.6c0.6,1.1,1.2,2.3,1.7,3.4c0.3,0.7,0.7,1.4,1,2.2c0,0.1,0.1,0.2,0.1,0.3c0.2,0.4-0.2-0.6-0.1-0.2
						c0.1,0.2,0.2,0.4,0.2,0.6c0.2,0.4,0.3,0.8,0.5,1.3c0.7,1.7,1.3,3.5,1.9,5.2c1.3,3.6,2.4,7.4,2.9,11.2c0-0.3-0.1-0.5-0.1-0.8
						c0.1,0.6,0.2,1.1,0.2,1.7c0-0.3-0.1-0.5-0.1-0.8c0.1,1.1,0.2,2.2,0.3,3.2c0-0.2-0.1-0.5-0.1-0.7c0,0.1,0,0.2,0,0.3
						c0.1,1.2,0.7,2.3,2,2.6c1.4,0.4,2.9-0.5,3.3-1.9c0.5-1.6,0.2-3.4,0-5c-0.3-1.6-0.7-3.2-1.2-4.7c-1.1-3.7-2.5-7.4-4.2-10.9
						c-1.2-2.5-2.4-4.9-4-7.2c-0.6-0.9-1.3-1.7-2.1-2.5c-0.1-0.1-0.3-0.2-0.4-0.3c-0.1-0.1-0.3-0.2-0.4-0.3c0.6,0.5,0.1,0-0.1-0.1
						c-0.1,0-0.1-0.1-0.2-0.1c-0.5-0.2-0.9-0.4-1.4-0.4C216.5,72.8,216.2,74.8,217.3,75.5L217.3,75.5z"/>
				</g>
				<path fill="#C563AE" d="M253.9,36c5.9,2.9,10.7,22.8,2.1,29.6s-13.8-0.4-17.3-5.3s-12.5,1-13.9-8.4
					C223.6,43.7,249.8,34,253.9,36z"/>
				<path fill="#A7A9AC" d="M226.5,83.7c-0.8-1.7-1.7-3.4-2.6-5.1l-3,4.1c0,0.1,0.1,0.2,0.1,0.3c0.2,0.4,0.3,0.8,0.5,1.3
					c0.3,0.9,0.7,1.7,1,2.6c2,0,3.9-0.1,5.2-0.5C227.4,85.5,227,84.6,226.5,83.7z"/>
				<path fill="#C563AE" d="M202.3,82.8c0-15.2,4.3-34.8,19.8-23.3s20.8,17.9,13,21.6C227.4,84.8,202.3,90.2,202.3,82.8z"/>
				<path fill="#C563AE" d="M247.4,70.7c5.4-0.6,16.1-1.5,11.1,11c-5.1,12.5-13.2,9.5-16.5-1.8S242.7,71.3,247.4,70.7z"/>
			</g>
			<path fill="#FFFFFF" d="M270.7,96.4c-0.6,4.3-5.6,5.4-6,9.1c-0.4,3.7,13.1,5.3,12.8,0c-0.4-5.3-3.2-8.2-3.2-9.1"/>
			<path fill="#A7A9AC" d="M268.2,100.6c2.2,0.4,5.7,0.9,8.2,0.5c-0.8-2.2-1.9-3.7-2.2-4.4c-0.6-0.2-1-0.3-1-0.3h-2.6
				C270.5,98.2,269.4,99.5,268.2,100.6z"/>
			<path fill="#C563AE" d="M274.3,86.5c-5.6-0.3-23.4,2.7-21.1,8.8s45.7,4.3,42.2-2.9C295.4,92.4,281.1,87,274.3,86.5z"/>
			<path fill="#0E3173" d="M253.9,36c-2.1-1-10.4,1.2-17.5,4.7c3.8,6.1,9,7.9,12.3,7.7c2.6-0.2,7.4,2.4,12,3.1
				C260.1,44.5,257.2,37.6,253.9,36z"/>
			<path fill="#0E3173" d="M274.3,86.5c-2.6-0.2-7.8,0.4-12.4,1.7c0.1,2,1.7,2.4,5.3,1.6c5.3-1.2,8.4,1.2,11.7,0.4
				c1.2-0.3,2.4-1.1,3.3-2.1C279.3,87.3,276.4,86.7,274.3,86.5z"/>
			<path fill="#0E3173" d="M248.8,70.5c-0.8,1.9,0.1,4.2,1.5,4.5c1.8,0.4,5.1,7.5,6.8,6.6c0.5-0.3,1.3-1,2.1-1.8
				C262.1,70.2,254.1,70,248.8,70.5z"/>
			<path fill="#0E3173" d="M210.8,71.3c2.7-5,8.2-4.2,11.9-6.4c1.1-0.7,2.2-1.6,3.2-2.6c-1.2-0.9-2.4-1.8-3.7-2.8
				c-12.1-8.9-17.4,1-19.1,13C206,73.9,209.4,73.8,210.8,71.3z"/>
			<path fill="#A7A9AC" d="M239.8,104.5c0.5,0.1,1,0.1,1.5,0c-1.4-1.1-2.9-2.7-3.2-4.9c-0.7-4.4,2.5-13.3,5.2-14.6l-1.9-1.4
				c-0.1,0.1-0.2,0.3-0.3,0.4c-0.9,1.5-1.7,3-2.4,4.6c-0.9,2.1-1.7,4.1-2.1,6.4c-0.2,0.8-0.3,1.6-0.3,2.5c-0.1,0.8,0,1.7,0.2,2.5
				C236.6,101.9,237.7,104.1,239.8,104.5z"/>
			<g>
				<path fill="#FFFFFF" d="M259.8,89.6c4.3,0,3.8,5.4-0.1,5.4S255.5,89.6,259.8,89.6z"/>
				<path fill="#EF4136" d="M261.9,91.9c0-0.6-0.5-1.2-1.1-1.2c-0.4,0-0.8,0.3-1,0.6c0,0,0,0,0,0c-0.2-0.4-0.6-0.6-1-0.6
					c-0.6,0-1.1,0.5-1.1,1.2c0,0.9,2.3,2.4,2.3,2.4c0,0,0,0,0,0C259.9,94.3,261.9,93,261.9,91.9z"/>
			</g>
			<g>
				<path fill="#FFFFFF" d="M269.8,87.6c4.3,0,3.8,5.4-0.1,5.4C265.8,93.1,265.5,87.6,269.8,87.6z"/>
				<path fill="#EF4136" d="M271.9,89.9c0-0.6-0.5-1.2-1.1-1.2c-0.4,0-0.8,0.3-1,0.6c0,0,0,0,0,0c-0.2-0.4-0.6-0.6-1-0.6
					c-0.6,0-1.1,0.5-1.1,1.2c0,0.9,2.3,2.4,2.3,2.4c0,0,0,0,0,0C269.8,92.3,271.9,91,271.9,89.9z"/>
			</g>
			<g>
				<path fill="#FFFFFF" d="M282.3,90.4c4.3,0,3.8,5.4-0.1,5.4C278.3,95.8,278,90.4,282.3,90.4z"/>
				<path fill="#EF4136" d="M284.4,92.7c0-0.6-0.5-1.2-1.1-1.2c-0.4,0-0.8,0.3-1,0.6c0,0,0,0,0,0c-0.2-0.4-0.6-0.6-1-0.6
					c-0.6,0-1.1,0.5-1.1,1.2c0,0.9,2.3,2.4,2.3,2.4c0,0,0,0,0,0C282.3,95.1,284.4,93.7,284.4,92.7z"/>
			</g>
			<g>
				<path fill="#FFFFFF" d="M235.1,46.2c5.1,0,4.5,6.4-0.1,6.4S230,46.2,235.1,46.2z"/>
				<path fill="#EF4136" d="M237.6,48.9c0-0.8-0.6-1.4-1.4-1.4c-0.5,0-1,0.3-1.2,0.7c0,0,0,0-0.1,0c-0.2-0.4-0.7-0.7-1.2-0.7
					c-0.7,0-1.4,0.6-1.4,1.4c0,1.1,2.7,2.8,2.7,2.8c0,0,0,0,0,0C235.1,51.7,237.6,50.1,237.6,48.9z"/>
			</g>
			<g>
				<path fill="#FFFFFF" d="M245.6,39.2c5.1,0,4.5,6.4-0.1,6.4S240.5,39.2,245.6,39.2z"/>
				<path fill="#EF4136" d="M248,41.9c0-0.8-0.6-1.4-1.4-1.4c-0.5,0-1,0.3-1.2,0.7c0,0,0,0-0.1,0c-0.2-0.4-0.7-0.7-1.2-0.7
					c-0.7,0-1.4,0.6-1.4,1.4c0,1.1,2.7,2.8,2.7,2.8c0,0,0,0,0,0C245.6,44.8,248,43.2,248,41.9z"/>
			</g>
			<g>
				<path fill="#FFFFFF" d="M251.5,56c4.8,1.9,1.8,7.6-2.4,5.9C244.8,60.3,246.8,54.1,251.5,56z"/>
				<path fill="#EF4136" d="M252.9,59.5c0.3-0.7-0.1-1.5-0.8-1.8c-0.5-0.2-1-0.1-1.4,0.2c0,0,0,0,0,0c-0.1-0.5-0.4-0.9-0.8-1.1
					c-0.7-0.3-1.5,0.1-1.8,0.8c-0.4,1,1.5,3.6,1.5,3.6c0,0,0,0,0,0C249.5,61.2,252.4,60.6,252.9,59.5z"/>
			</g>
			<g>
				<path fill="#FFFFFF" d="M226.1,69.8c5.1-0.6,5.2,5.9,0.6,6.4C222.1,76.7,221,70.4,226.1,69.8z"/>
				<path fill="#EF4136" d="M228.9,72.2c-0.1-0.7-0.8-1.3-1.5-1.2c-0.5,0.1-0.9,0.4-1.1,0.9c0,0,0,0-0.1,0c-0.3-0.4-0.8-0.7-1.3-0.6
					c-0.7,0.1-1.3,0.8-1.2,1.5c0.1,1.1,3,2.5,3,2.5c0,0,0,0,0,0C226.8,75.3,229,73.5,228.9,72.2z"/>
			</g>
			<g>
				<path fill="#FFFFFF" d="M215.1,60.1c5.1-0.6,5.2,5.9,0.6,6.4C211.2,67,210.1,60.6,215.1,60.1z"/>
				<path fill="#EF4136" d="M217.9,62.5c-0.1-0.7-0.8-1.3-1.5-1.2c-0.5,0.1-0.9,0.4-1.1,0.9c0,0,0,0-0.1,0c-0.3-0.4-0.8-0.7-1.3-0.6
					c-0.7,0.1-1.3,0.8-1.2,1.5c0.1,1.1,3,2.5,3,2.5c0,0,0,0,0,0C215.8,65.6,218,63.7,217.9,62.5z"/>
			</g>
			<g>
				<path fill="#FFFFFF" d="M208.6,69.9c5.1-0.6,5.2,5.9,0.6,6.4C204.7,76.8,203.6,70.5,208.6,69.9z"/>
				<path fill="#EF4136" d="M211.4,72.3c-0.1-0.7-0.8-1.3-1.5-1.2c-0.5,0.1-0.9,0.4-1.1,0.9c0,0,0,0-0.1,0c-0.3-0.4-0.8-0.7-1.3-0.6
					c-0.7,0.1-1.3,0.8-1.2,1.5c0.1,1.1,3,2.5,3,2.5c0,0,0,0,0,0C209.3,75.4,211.6,73.6,211.4,72.3z"/>
			</g>
			<g>
				<path fill="#FFFFFF" d="M217.6,77.6c5.1-0.6,5.2,5.9,0.6,6.4S212.6,78.2,217.6,77.6z"/>
				<path fill="#EF4136" d="M220.4,80.1c-0.1-0.7-0.8-1.3-1.5-1.2c-0.5,0.1-0.9,0.4-1.1,0.9c0,0,0,0-0.1,0c-0.3-0.4-0.8-0.7-1.3-0.6
					c-0.7,0.1-1.3,0.8-1.2,1.5c0.1,1.1,3,2.5,3,2.5c0,0,0,0,0,0C218.3,83.1,220.5,81.3,220.4,80.1z"/>
			</g>
			<g>
				<path fill="#FFFFFF" d="M254.3,81.7c2.7,4.4-3.1,7.2-5.5,3.3C246.4,81.1,251.7,77.4,254.3,81.7z"/>
				<path fill="#EF4136" d="M253.3,85.3c0.6-0.4,0.8-1.2,0.4-1.9c-0.3-0.4-0.8-0.7-1.3-0.6c0,0,0,0,0,0c0.3-0.4,0.3-1,0-1.4
					c-0.4-0.6-1.2-0.8-1.9-0.4c-0.9,0.6-1,3.8-1,3.8c0,0,0,0,0,0C249.6,84.7,252.3,86,253.3,85.3z"/>
			</g>
			<g>
				<path fill="#FFFFFF" d="M251.5,72.9c4.1,3-0.2,7.8-3.9,5.1C244,75.3,247.4,69.9,251.5,72.9z"/>
				<path fill="#EF4136" d="M251.9,76.6c0.4-0.6,0.3-1.5-0.3-1.9c-0.4-0.3-1-0.3-1.4-0.1c0,0,0,0,0,0c0.1-0.5-0.1-1-0.5-1.3
					c-0.6-0.4-1.5-0.3-1.9,0.3c-0.7,0.9,0.5,3.9,0.5,3.9c0,0,0,0,0,0C248.3,77.4,251.2,77.6,251.9,76.6z"/>
			</g>
		</g>
	</g>
	<g>
		<g>
			<g>
				<rect x="92.6" y="64.5" fill="#A56637" width="2.7" height="14.6"/>
				<rect x="92.5" y="64.5" fill="#754C29" width="1.5" height="14.6"/>
				<path fill="#006838" d="M107.7,52.8c2.5-1.8,4.1-4.6,4.1-7.9c0-5.1-4-9.2-9.1-9.7c0-0.2,0-0.5,0-0.7c0-5.4-4.5-9.7-10.1-9.7
					c-5.6,0-10.1,4.4-10.1,9.7c0,1.7,0.4,3.2,1.2,4.6c-4.9,0.7-8.6,4.7-8.6,9.6c0,3.1,1.5,5.8,3.8,7.6c-0.2,0.7-0.3,1.4-0.3,2.2
					c0,5.4,4.5,9.7,10.1,9.7c2.1,0,4-0.6,5.6-1.6c1.8,2.7,4.9,4.4,8.5,4.4c5.6,0,10.1-4.4,10.1-9.7
					C112.9,57.7,110.8,54.5,107.7,52.8z"/>
				<ellipse fill="#9CB729" cx="92.1" cy="30.1" rx="3.3" ry="2.4"/>
				<path fill="#9CB729" d="M85.8,43.4c0.4,1.3-0.7,2.7-2.5,3.2c-1.7,0.5-3.5-0.1-3.8-1.4c-0.4-1.3,0.7-2.7,2.5-3.2
					C83.7,41.5,85.4,42.1,85.8,43.4z"/>
				<path fill="#9CB729" d="M107.1,44.4c-1.1,0.8-2.8,0.4-4-1s-1.2-3.2-0.2-4.1c1.1-0.8,2.8-0.4,4,1
					C108.1,41.7,108.2,43.5,107.1,44.4z"/>
				<path fill="#9CB729" d="M108.6,63.4c-1.3,0.3-2.7-0.9-3.1-2.7c-0.4-1.8,0.4-3.4,1.7-3.7s2.7,0.9,3.1,2.7
					C110.7,61.4,109.9,63.1,108.6,63.4z"/>
			</g>
			<path fill="#9CB729" d="M90.9,52.8c2.5-1.8,4.1-4.6,4.1-7.9c0-5.1-4-9.2-9.1-9.7c0-0.2,0-0.5,0-0.7c0-2-0.6-3.8-1.6-5.3
				c-1,1.5-1.6,3.4-1.6,5.3c0,1.7,0.4,3.2,1.2,4.6c-4.9,0.7-8.6,4.7-8.6,9.6c0,3.1,1.5,5.8,3.8,7.6c-0.2,0.7-0.3,1.4-0.3,2.2
				c0,5.4,4.5,9.7,10.1,9.7c2.1,0,4-0.6,5.6-1.6c0,0,0,0,0,0c1-1.5,1.6-3.4,1.6-5.3C96.1,57.7,94,54.5,90.9,52.8z"/>
			<g>
				<rect x="72.2" y="64.5" fill="#A56637" width="2.7" height="14.6"/>
				<rect x="72.1" y="64.5" fill="#754C29" width="1.5" height="14.6"/>
				<path fill="#006838" d="M87.4,52.8c2.5-1.8,4.1-4.6,4.1-7.9c0-5.1-4-9.2-9.1-9.7c0-0.2,0-0.5,0-0.7c0-5.4-4.5-9.7-10.1-9.7
					c-5.6,0-10.1,4.4-10.1,9.7c0,1.7,0.4,3.2,1.2,4.6c-4.9,0.7-8.6,4.7-8.6,9.6c0,3.1,1.5,5.8,3.8,7.6c-0.2,0.7-0.3,1.4-0.3,2.2
					c0,5.4,4.5,9.7,10.1,9.7c2.1,0,4-0.6,5.6-1.6c1.8,2.7,4.9,4.4,8.5,4.4c5.6,0,10.1-4.4,10.1-9.7C92.5,57.7,90.4,54.5,87.4,52.8z"
					/>
				<ellipse fill="#9CB729" cx="71.7" cy="30.1" rx="3.3" ry="2.4"/>
				<path fill="#9CB729" d="M65.4,43.4c0.4,1.3-0.7,2.7-2.5,3.2c-1.7,0.5-3.5-0.1-3.8-1.4c-0.4-1.3,0.7-2.7,2.5-3.2
					C63.3,41.5,65,42.1,65.4,43.4z"/>
				<path fill="#9CB729" d="M86.8,44.4c-1.1,0.8-2.8,0.4-4-1c-1.1-1.4-1.2-3.2-0.2-4.1c1.1-0.8,2.8-0.4,4,1
					C87.7,41.7,87.8,43.5,86.8,44.4z"/>
				<path fill="#9CB729" d="M88.2,63.4c-1.3,0.3-2.7-0.9-3.1-2.7c-0.4-1.8,0.4-3.4,1.7-3.7c1.3-0.3,2.7,0.9,3.1,2.7
					C90.3,61.4,89.5,63.1,88.2,63.4z"/>
			</g>
			<path fill="#9CB729" d="M71.2,52.8c2.5-1.8,4.1-4.6,4.1-7.9c0-5.1-4-9.2-9.1-9.7c0-0.2,0-0.5,0-0.7c0-2.2-0.7-4.2-2-5.8
				c-1.3,1.6-2,3.6-2,5.8c0,1.7,0.4,3.2,1.2,4.6c-4.9,0.7-8.6,4.7-8.6,9.6c0,3.1,1.5,5.8,3.8,7.6c-0.2,0.7-0.3,1.4-0.3,2.2
				c0,5.4,4.5,9.7,10.1,9.7c2.1,0,4-0.6,5.6-1.6c0.1,0.2,0.2,0.3,0.4,0.5c1.3-1.6,2-3.6,2-5.8C76.4,57.7,74.3,54.5,71.2,52.8z"/>
			<g>
				<ellipse fill="#006838" cx="45.2" cy="48.8" rx="10.1" ry="9.7"/>
				<rect x="52.5" y="64.5" fill="#A56637" width="2.7" height="14.6"/>
				<rect x="52.4" y="64.5" fill="#754C29" width="1.5" height="14.6"/>
				<ellipse fill="#006838" cx="62.8" cy="61.4" rx="10.1" ry="9.7"/>
				<ellipse fill="#006838" cx="48.7" cy="58.6" rx="10.1" ry="9.7"/>
				<ellipse fill="#006838" cx="52.6" cy="34.6" rx="10.1" ry="9.7"/>
				<ellipse fill="#006838" cx="61.7" cy="45" rx="10.1" ry="9.7"/>
				<ellipse fill="#9CB729" cx="52" cy="30.1" rx="3.3" ry="2.4"/>
				<path fill="#9CB729" d="M45.7,43.4c0.4,1.3-0.7,2.7-2.5,3.2c-1.7,0.5-3.5-0.1-3.8-1.4C39,44,40.1,42.5,41.9,42
					C43.6,41.5,45.3,42.1,45.7,43.4z"/>
				<path fill="#9CB729" d="M67.1,44.4c-1.1,0.8-2.8,0.4-4-1s-1.2-3.2-0.2-4.1c1.1-0.8,2.8-0.4,4,1C68,41.7,68.1,43.5,67.1,44.4z"/>
				<path fill="#9CB729" d="M68.5,63.4c-1.3,0.3-2.7-0.9-3.1-2.7c-0.4-1.8,0.4-3.4,1.7-3.7s2.7,0.9,3.1,2.7
					C70.6,61.4,69.8,63.1,68.5,63.4z"/>
			</g>
		</g>
		<polygon opacity="0.4" fill="#231F20" points="83.2,90.1 77.3,90.1 92.5,79.1 95.2,79.1 		"/>
		<polygon opacity="0.4" fill="#231F20" points="63.1,90.1 57.1,90.1 72.3,79.1 75.1,79.1 		"/>
		<polygon opacity="0.4" fill="#231F20" points="43.6,90.1 37.7,90.1 52.8,79.1 55.6,79.1 		"/>
	</g>
</g>
</svg>
