<?xml version="1.0" encoding="utf-8"?>
<!-- Generator: Adobe Illustrator 18.0.0, SVG Export Plug-In . SVG Version: 6.00 Build 0)  -->
<!DOCTYPE svg PUBLIC "-//W3C//DTD SVG 1.1//EN" "http://www.w3.org/Graphics/SVG/1.1/DTD/svg11.dtd">
<svg version="1.1" id="Layer_1" xmlns="http://www.w3.org/2000/svg" xmlns:xlink="http://www.w3.org/1999/xlink" x="0px" y="0px"
	 viewBox="0 0 1136 640" enable-background="new 0 0 1136 640" xml:space="preserve">
<g>
	<g>
		<path fill="#E6E7E8" stroke="#E6E7E8" stroke-miterlimit="10" d="M382.4,160.7c0-3.3-2.7-6-6-6c-0.5,0-0.9,0.1-1.3,0.1
			c-0.2-5.5-4.7-10-10.3-10c-5.7,0-10.3,4.6-10.3,10.3c0,0.1,0,0.3,0,0.4c-0.9-0.6-2-0.9-3.1-0.9c-1.1,0-2.1,0.3-3,0.8
			c0-0.1,0-0.2,0-0.3c0-5.7-4.6-10.3-10.3-10.3c-0.9,0-1.7,0.1-2.6,0.3c-1.8-7.2-8.2-12.5-15.9-12.5c-7.7,0-14.1,5.3-15.9,12.4
			c-0.8-0.2-1.6-0.3-2.4-0.3c-5.6,0-10.2,4.5-10.3,10.1c-0.6-0.2-1.2-0.3-1.8-0.3c-3.3,0-6,2.7-6,6c0,3,2.2,5.4,5,5.9v0.1h88.4v0
			C379.9,166.5,382.4,163.9,382.4,160.7z"/>
	</g>
	<g>
		<path fill="#E6E7E8" stroke="#E6E7E8" stroke-miterlimit="10" d="M456.4,90.1c0-3.3-2.7-6-6-6c-0.5,0-0.9,0.1-1.3,0.1
			c-0.2-5.5-4.7-10-10.3-10c-5.7,0-10.3,4.6-10.3,10.3c0,0.1,0,0.3,0,0.4c-0.9-0.6-2-0.9-3.1-0.9c-1.1,0-2.1,0.3-3,0.8
			c0-0.1,0-0.2,0-0.3c0-5.7-4.6-10.3-10.3-10.3c-0.9,0-1.7,0.1-2.6,0.3c-1.8-7.2-8.2-12.5-15.9-12.5c-7.7,0-14.1,5.3-15.9,12.4
			c-0.8-0.2-1.6-0.3-2.4-0.3c-5.6,0-10.2,4.5-10.3,10.1c-0.6-0.2-1.2-0.3-1.8-0.3c-3.3,0-6,2.7-6,6c0,3,2.2,5.4,5,5.9V96h88.4v0
			C453.9,95.9,456.4,93.3,456.4,90.1z"/>
	</g>
	<g>
		<path fill="#E6E7E8" stroke="#E6E7E8" stroke-miterlimit="10" d="M309,242.5c0-3.3-2.7-6-6-6c-0.5,0-0.9,0.1-1.3,0.1
			c-0.2-5.5-4.7-10-10.3-10c-5.7,0-10.3,4.6-10.3,10.3c0,0.1,0,0.3,0,0.4c-0.9-0.6-2-0.9-3.1-0.9c-1.1,0-2.1,0.3-3,0.8
			c0-0.1,0-0.2,0-0.3c0-5.7-4.6-10.3-10.3-10.3c-0.9,0-1.7,0.1-2.6,0.3c-1.8-7.2-8.2-12.5-15.9-12.5c-7.7,0-14.1,5.3-15.9,12.4
			c-0.8-0.2-1.6-0.3-2.4-0.3c-5.6,0-10.2,4.5-10.3,10.1c-0.6-0.2-1.2-0.3-1.8-0.3c-3.3,0-6,2.7-6,6c0,3,2.2,5.4,5,5.9v0.1h88.4v0
			C306.5,248.3,309,245.7,309,242.5z"/>
	</g>
	<g>
		<path fill="#E6E7E8" stroke="#E6E7E8" stroke-miterlimit="10" d="M469.8,216.3c0-3.3-2.7-6-6-6c-0.5,0-0.9,0.1-1.3,0.1
			c-0.2-5.5-4.7-10-10.3-10c-5.7,0-10.3,4.6-10.3,10.3c0,0.1,0,0.3,0,0.4c-0.9-0.6-2-0.9-3.1-0.9c-1.1,0-2.1,0.3-3,0.8
			c0-0.1,0-0.2,0-0.3c0-5.7-4.6-10.3-10.3-10.3c-0.9,0-1.7,0.1-2.6,0.3c-1.8-7.2-8.2-12.5-15.9-12.5c-7.7,0-14.1,5.3-15.9,12.4
			c-0.8-0.2-1.6-0.3-2.4-0.3c-5.6,0-10.2,4.5-10.3,10.1c-0.6-0.2-1.2-0.3-1.8-0.3c-3.3,0-6,2.7-6,6c0,3,2.2,5.4,5,5.9v0.1h88.4v0
			C467.3,222.1,469.8,219.5,469.8,216.3z"/>
	</g>
	<g>
		<path fill="#E6E7E8" stroke="#E6E7E8" stroke-miterlimit="10" d="M390.6,320.4c0-3.3-2.7-6-6-6c-0.5,0-0.9,0.1-1.3,0.1
			c-0.2-5.5-4.7-10-10.3-10c-5.7,0-10.3,4.6-10.3,10.3c0,0.1,0,0.3,0,0.4c-0.9-0.6-2-0.9-3.1-0.9c-1.1,0-2.1,0.3-3,0.8
			c0-0.1,0-0.2,0-0.3c0-5.7-4.6-10.3-10.3-10.3c-0.9,0-1.7,0.1-2.6,0.3c-1.8-7.2-8.2-12.5-15.9-12.5c-7.7,0-14.1,5.3-15.9,12.4
			c-0.8-0.2-1.6-0.3-2.4-0.3c-5.6,0-10.2,4.5-10.3,10.1c-0.6-0.2-1.2-0.3-1.8-0.3c-3.3,0-6,2.7-6,6c0,3,2.2,5.4,5,5.9v0.1h88.4v0
			C388.1,326.2,390.6,323.6,390.6,320.4z"/>
	</g>
	<g>
		<path fill="#E6E7E8" stroke="#E6E7E8" stroke-miterlimit="10" d="M316.4,419.2c0-3.3-2.7-6-6-6c-0.5,0-0.9,0.1-1.3,0.1
			c-0.2-5.5-4.7-10-10.3-10c-5.7,0-10.3,4.6-10.3,10.3c0,0.1,0,0.3,0,0.4c-0.9-0.6-2-0.9-3.1-0.9c-1.1,0-2.1,0.3-3,0.8
			c0-0.1,0-0.2,0-0.3c0-5.7-4.6-10.3-10.3-10.3c-0.9,0-1.7,0.1-2.6,0.3c-1.8-7.2-8.2-12.5-15.9-12.5c-7.7,0-14.1,5.3-15.9,12.4
			c-0.8-0.2-1.6-0.3-2.4-0.3c-5.6,0-10.2,4.5-10.3,10.1c-0.6-0.2-1.2-0.3-1.8-0.3c-3.3,0-6,2.7-6,6c0,3,2.2,5.4,5,5.9v0.1h88.4v0
			C313.9,425,316.4,422.4,316.4,419.2z"/>
	</g>
	<g>
		<path fill="#E6E7E8" stroke="#E6E7E8" stroke-miterlimit="10" d="M477.3,392.9c0-3.3-2.7-6-6-6c-0.5,0-0.9,0.1-1.3,0.1
			c-0.2-5.5-4.7-10-10.3-10c-5.7,0-10.3,4.6-10.3,10.3c0,0.1,0,0.3,0,0.4c-0.9-0.6-2-0.9-3.1-0.9c-1.1,0-2.1,0.3-3,0.8
			c0-0.1,0-0.2,0-0.3c0-5.7-4.6-10.3-10.3-10.3c-0.9,0-1.7,0.1-2.6,0.3c-1.8-7.2-8.2-12.5-15.9-12.5c-7.7,0-14.1,5.3-15.9,12.4
			c-0.8-0.2-1.6-0.3-2.4-0.3c-5.6,0-10.2,4.5-10.3,10.1c-0.6-0.2-1.2-0.3-1.8-0.3c-3.3,0-6,2.7-6,6c0,3,2.2,5.4,5,5.9v0.1h88.4v0
			C474.7,398.7,477.3,396.1,477.3,392.9z"/>
	</g>
	<g>
		<path fill="#E6E7E8" stroke="#E6E7E8" stroke-miterlimit="10" d="M407,480.8c0-3.3-2.7-6-6-6c-0.5,0-0.9,0.1-1.3,0.1
			c-0.2-5.5-4.7-10-10.3-10c-5.7,0-10.3,4.6-10.3,10.3c0,0.1,0,0.3,0,0.4c-0.9-0.6-2-0.9-3.1-0.9c-1.1,0-2.1,0.3-3,0.8
			c0-0.1,0-0.2,0-0.3c0-5.7-4.6-10.3-10.3-10.3c-0.9,0-1.7,0.1-2.6,0.3c-1.8-7.2-8.2-12.5-15.9-12.5c-7.7,0-14.1,5.3-15.9,12.4
			c-0.8-0.2-1.6-0.3-2.4-0.3c-5.6,0-10.2,4.5-10.3,10.1c-0.6-0.2-1.2-0.3-1.8-0.3c-3.3,0-6,2.7-6,6c0,3,2.2,5.4,5,5.9v0.1h88.4v0
			C404.5,486.6,407,484,407,480.8z"/>
	</g>
	<g>
		<path fill="#E6E7E8" stroke="#E6E7E8" stroke-miterlimit="10" d="M309,547c0-3.3-2.7-6-6-6c-0.5,0-0.9,0.1-1.3,0.1
			c-0.2-5.5-4.7-10-10.3-10c-5.7,0-10.3,4.6-10.3,10.3c0,0.1,0,0.3,0,0.4c-0.9-0.6-2-0.9-3.1-0.9c-1.1,0-2.1,0.3-3,0.8
			c0-0.1,0-0.2,0-0.3c0-5.7-4.6-10.3-10.3-10.3c-0.9,0-1.7,0.1-2.6,0.3c-1.8-7.2-8.2-12.5-15.9-12.5c-7.7,0-14.1,5.3-15.9,12.4
			c-0.8-0.2-1.6-0.3-2.4-0.3c-5.6,0-10.2,4.5-10.3,10.1c-0.6-0.2-1.2-0.3-1.8-0.3c-3.3,0-6,2.7-6,6c0,3,2.2,5.4,5,5.9v0.1h88.4v0
			C306.5,552.9,309,550.2,309,547z"/>
	</g>
	<g>
		<path fill="#E6E7E8" stroke="#E6E7E8" stroke-miterlimit="10" d="M407.2,607.9c0-3.3-2.7-6-6-6c-0.5,0-0.9,0.1-1.3,0.1
			c-0.2-5.5-4.7-10-10.3-10c-5.7,0-10.3,4.6-10.3,10.3c0,0.1,0,0.3,0,0.4c-0.9-0.6-2-0.9-3.1-0.9c-1.1,0-2.1,0.3-3,0.8
			c0-0.1,0-0.2,0-0.3c0-5.7-4.6-10.3-10.3-10.3c-0.9,0-1.7,0.1-2.6,0.3c-1.8-7.2-8.2-12.5-15.9-12.5c-7.7,0-14.1,5.3-15.9,12.4
			c-0.8-0.2-1.6-0.3-2.4-0.3c-5.6,0-10.2,4.5-10.3,10.1c-0.6-0.2-1.2-0.3-1.8-0.3c-3.3,0-6,2.7-6,6c0,3,2.2,5.4,5,5.9v0.1h88.4v0
			C404.7,613.7,407.2,611.1,407.2,607.9z"/>
	</g>
	<g>
		<path fill="#E6E7E8" stroke="#E6E7E8" stroke-miterlimit="10" d="M493.7,553.3c0-3.3-2.7-6-6-6c-0.5,0-0.9,0.1-1.3,0.1
			c-0.2-5.5-4.7-10-10.3-10c-5.7,0-10.3,4.6-10.3,10.3c0,0.1,0,0.3,0,0.4c-0.9-0.6-2-0.9-3.1-0.9c-1.1,0-2.1,0.3-3,0.8
			c0-0.1,0-0.2,0-0.3c0-5.7-4.6-10.3-10.3-10.3c-0.9,0-1.7,0.1-2.6,0.3c-1.8-7.2-8.2-12.5-15.9-12.5c-7.7,0-14.1,5.3-15.9,12.4
			c-0.8-0.2-1.6-0.3-2.4-0.3c-5.6,0-10.2,4.5-10.3,10.1c-0.6-0.2-1.2-0.3-1.8-0.3c-3.3,0-6,2.7-6,6c0,3,2.2,5.4,5,5.9v0.1H488v0
			C491.1,559.1,493.7,556.5,493.7,553.3z"/>
	</g>
	<g>
		<path fill="#E6E7E8" stroke="#E6E7E8" stroke-miterlimit="10" d="M220.8,143.7c0-3.3-2.7-6-6-6c-0.5,0-0.9,0.1-1.3,0.1
			c-0.2-5.5-4.7-10-10.3-10c-5.7,0-10.3,4.6-10.3,10.3c0,0.1,0,0.3,0,0.4c-0.9-0.6-2-0.9-3.1-0.9c-1.1,0-2.1,0.3-3,0.8
			c0-0.1,0-0.2,0-0.3c0-5.7-4.6-10.3-10.3-10.3c-0.9,0-1.7,0.1-2.6,0.3c-1.8-7.2-8.2-12.5-15.9-12.5c-7.7,0-14.1,5.3-15.9,12.4
			c-0.8-0.2-1.6-0.3-2.4-0.3c-5.6,0-10.2,4.5-10.3,10.1c-0.6-0.2-1.2-0.3-1.8-0.3c-3.3,0-6,2.7-6,6c0,3,2.2,5.4,5,5.9v0.1h88.4v0
			C218.3,149.6,220.8,146.9,220.8,143.7z"/>
	</g>
	<g>
		<path fill="#E6E7E8" stroke="#E6E7E8" stroke-miterlimit="10" d="M146.6,242.5c0-3.3-2.7-6-6-6c-0.5,0-0.9,0.1-1.3,0.1
			c-0.2-5.5-4.7-10-10.3-10c-5.7,0-10.3,4.6-10.3,10.3c0,0.1,0,0.3,0,0.4c-0.9-0.6-2-0.9-3.1-0.9c-1.1,0-2.1,0.3-3,0.8
			c0-0.1,0-0.2,0-0.3c0-5.7-4.6-10.3-10.3-10.3c-0.9,0-1.7,0.1-2.6,0.3c-1.8-7.2-8.2-12.5-15.9-12.5c-7.7,0-14.1,5.3-15.9,12.4
			c-0.8-0.2-1.6-0.3-2.4-0.3c-5.6,0-10.2,4.5-10.3,10.1c-0.6-0.2-1.2-0.3-1.8-0.3c-3.3,0-6,2.7-6,6c0,3,2.2,5.4,5,5.9v0.1h88.4v0
			C144.1,248.3,146.6,245.7,146.6,242.5z"/>
	</g>
	<g>
		<path fill="#E6E7E8" stroke="#E6E7E8" stroke-miterlimit="10" d="M228.2,320.4c0-3.3-2.7-6-6-6c-0.5,0-0.9,0.1-1.3,0.1
			c-0.2-5.5-4.7-10-10.3-10c-5.7,0-10.3,4.6-10.3,10.3c0,0.1,0,0.3,0,0.4c-0.9-0.6-2-0.9-3.1-0.9c-1.1,0-2.1,0.3-3,0.8
			c0-0.1,0-0.2,0-0.3c0-5.7-4.6-10.3-10.3-10.3c-0.9,0-1.7,0.1-2.6,0.3c-1.8-7.2-8.2-12.5-15.9-12.5c-7.7,0-14.1,5.3-15.9,12.4
			c-0.8-0.2-1.6-0.3-2.4-0.3c-5.6,0-10.2,4.5-10.3,10.1c-0.6-0.2-1.2-0.3-1.8-0.3c-3.3,0-6,2.7-6,6c0,3,2.2,5.4,5,5.9v0.1h88.4v0
			C225.7,326.2,228.2,323.6,228.2,320.4z"/>
	</g>
	<g>
		<path fill="#E6E7E8" stroke="#E6E7E8" stroke-miterlimit="10" d="M154,419.2c0-3.3-2.7-6-6-6c-0.5,0-0.9,0.1-1.3,0.1
			c-0.2-5.5-4.7-10-10.3-10c-5.7,0-10.3,4.6-10.3,10.3c0,0.1,0,0.3,0,0.4c-0.9-0.6-2-0.9-3.1-0.9c-1.1,0-2.1,0.3-3,0.8
			c0-0.1,0-0.2,0-0.3c0-5.7-4.6-10.3-10.3-10.3c-0.9,0-1.7,0.1-2.6,0.3c-1.8-7.2-8.2-12.5-15.9-12.5c-7.7,0-14.1,5.3-15.9,12.4
			c-0.8-0.2-1.6-0.3-2.4-0.3c-5.6,0-10.2,4.5-10.3,10.1c-0.6-0.2-1.2-0.3-1.8-0.3c-3.3,0-6,2.7-6,6c0,3,2.2,5.4,5,5.9v0.1h88.4v0
			C151.5,425,154,422.4,154,419.2z"/>
	</g>
	<g>
		<path fill="#E6E7E8" stroke="#E6E7E8" stroke-miterlimit="10" d="M244.6,480.8c0-3.3-2.7-6-6-6c-0.5,0-0.9,0.1-1.3,0.1
			c-0.2-5.5-4.7-10-10.3-10c-5.7,0-10.3,4.6-10.3,10.3c0,0.1,0,0.3,0,0.4c-0.9-0.6-2-0.9-3.1-0.9c-1.1,0-2.1,0.3-3,0.8
			c0-0.1,0-0.2,0-0.3c0-5.7-4.6-10.3-10.3-10.3c-0.9,0-1.7,0.1-2.6,0.3c-1.8-7.2-8.2-12.5-15.9-12.5c-7.7,0-14.1,5.3-15.9,12.4
			c-0.8-0.2-1.6-0.3-2.4-0.3c-5.6,0-10.2,4.5-10.3,10.1c-0.6-0.2-1.2-0.3-1.8-0.3c-3.3,0-6,2.7-6,6c0,3,2.2,5.4,5,5.9v0.1h88.4v0
			C242.1,486.6,244.6,484,244.6,480.8z"/>
	</g>
	<g>
		<path fill="#E6E7E8" stroke="#E6E7E8" stroke-miterlimit="10" d="M196.2,591c0-3.3-2.7-6-6-6c-0.5,0-0.9,0.1-1.3,0.1
			c-0.2-5.5-4.7-10-10.3-10c-5.7,0-10.3,4.6-10.3,10.3c0,0.1,0,0.3,0,0.4c-0.9-0.6-2-0.9-3.1-0.9c-1.1,0-2.1,0.3-3,0.8
			c0-0.1,0-0.2,0-0.3c0-5.7-4.6-10.3-10.3-10.3c-0.9,0-1.7,0.1-2.6,0.3c-1.8-7.2-8.2-12.5-15.9-12.5c-7.7,0-14.1,5.3-15.9,12.4
			c-0.8-0.2-1.6-0.3-2.4-0.3c-5.6,0-10.2,4.5-10.3,10.1c-0.6-0.2-1.2-0.3-1.8-0.3c-3.3,0-6,2.7-6,6c0,3,2.2,5.4,5,5.9v0.1h88.4v0
			C193.6,596.8,196.2,594.2,196.2,591z"/>
	</g>
	<g>
		<path fill="#E6E7E8" stroke="#E6E7E8" stroke-miterlimit="10" d="M126.3,524.7c0-3.3-2.7-6-6-6c-0.5,0-0.9,0.1-1.3,0.1
			c-0.2-5.5-4.7-10-10.3-10c-5.7,0-10.3,4.6-10.3,10.3c0,0.1,0,0.3,0,0.4c-0.9-0.6-2-0.9-3.1-0.9c-1.1,0-2.1,0.3-3,0.8
			c0-0.1,0-0.2,0-0.3c0-5.7-4.6-10.3-10.3-10.3c-0.9,0-1.7,0.1-2.6,0.3c-1.8-7.2-8.2-12.5-15.9-12.5c-7.7,0-14.1,5.3-15.9,12.4
			c-0.8-0.2-1.6-0.3-2.4-0.3c-5.6,0-10.2,4.5-10.3,10.1c-0.6-0.2-1.2-0.3-1.8-0.3c-3.3,0-6,2.7-6,6c0,3,2.2,5.4,5,5.9v0.1h88.4v0
			C123.7,530.5,126.3,527.9,126.3,524.7z"/>
	</g>
	<g>
		<path fill="#E6E7E8" stroke="#E6E7E8" stroke-miterlimit="10" d="M699.8,143.7c0-3.3-2.7-6-6-6c-0.5,0-0.9,0.1-1.3,0.1
			c-0.2-5.5-4.7-10-10.3-10c-5.7,0-10.3,4.6-10.3,10.3c0,0.1,0,0.3,0,0.4c-0.9-0.6-2-0.9-3.1-0.9c-1.1,0-2.1,0.3-3,0.8
			c0-0.1,0-0.2,0-0.3c0-5.7-4.6-10.3-10.3-10.3c-0.9,0-1.7,0.1-2.6,0.3c-1.8-7.2-8.2-12.5-15.9-12.5c-7.7,0-14.1,5.3-15.9,12.4
			c-0.8-0.2-1.6-0.3-2.4-0.3c-5.6,0-10.2,4.5-10.3,10.1c-0.6-0.2-1.2-0.3-1.8-0.3c-3.3,0-6,2.7-6,6c0,3,2.2,5.4,5,5.9v0.1h88.4v0
			C697.3,149.6,699.8,146.9,699.8,143.7z"/>
	</g>
	<g>
		<path fill="#E6E7E8" stroke="#E6E7E8" stroke-miterlimit="10" d="M598.2,51.1c0-3.3-2.7-6-6-6c-0.5,0-0.9,0.1-1.3,0.1
			c-0.2-5.5-4.7-10-10.3-10c-5.7,0-10.3,4.6-10.3,10.3c0,0.1,0,0.3,0,0.4c-0.9-0.6-2-0.9-3.1-0.9c-1.1,0-2.1,0.3-3,0.8
			c0-0.1,0-0.2,0-0.3c0-5.7-4.6-10.3-10.3-10.3c-0.9,0-1.7,0.1-2.6,0.3c-1.8-7.2-8.2-12.5-15.9-12.5c-7.7,0-14.1,5.3-15.9,12.4
			c-0.8-0.2-1.6-0.3-2.4-0.3c-5.6,0-10.2,4.5-10.3,10.1c-0.6-0.2-1.2-0.3-1.8-0.3c-3.3,0-6,2.7-6,6c0,3,2.2,5.4,5,5.9V57h88.4v0
			C595.6,56.9,598.2,54.3,598.2,51.1z"/>
	</g>
	<g>
		<path fill="#E6E7E8" stroke="#E6E7E8" stroke-miterlimit="10" d="M765.8,61c0-3.3-2.7-6-6-6c-0.5,0-0.9,0.1-1.3,0.1
			c-0.2-5.5-4.7-10-10.3-10c-5.7,0-10.3,4.6-10.3,10.3c0,0.1,0,0.3,0,0.4c-0.9-0.6-2-0.9-3.1-0.9c-1.1,0-2.1,0.3-3,0.8
			c0-0.1,0-0.2,0-0.3c0-5.7-4.6-10.3-10.3-10.3c-0.9,0-1.7,0.1-2.6,0.3c-1.8-7.2-8.2-12.5-15.9-12.5c-7.7,0-14.1,5.3-15.9,12.4
			c-0.8-0.2-1.6-0.3-2.4-0.3c-5.6,0-10.2,4.5-10.3,10.1c-0.6-0.2-1.2-0.3-1.8-0.3c-3.3,0-6,2.7-6,6c0,3,2.2,5.4,5,5.9V67h88.4v0
			C763.2,66.8,765.8,64.2,765.8,61z"/>
	</g>
	<g>
		<path fill="#E6E7E8" stroke="#E6E7E8" stroke-miterlimit="10" d="M625.6,242.5c0-3.3-2.7-6-6-6c-0.5,0-0.9,0.1-1.3,0.1
			c-0.2-5.5-4.7-10-10.3-10c-5.7,0-10.3,4.6-10.3,10.3c0,0.1,0,0.3,0,0.4c-0.9-0.6-2-0.9-3.1-0.9c-1.1,0-2.1,0.3-3,0.8
			c0-0.1,0-0.2,0-0.3c0-5.7-4.6-10.3-10.3-10.3c-0.9,0-1.7,0.1-2.6,0.3c-1.8-7.2-8.2-12.5-15.9-12.5c-7.7,0-14.1,5.3-15.9,12.4
			c-0.8-0.2-1.6-0.3-2.4-0.3c-5.6,0-10.2,4.5-10.3,10.1c-0.6-0.2-1.2-0.3-1.8-0.3c-3.3,0-6,2.7-6,6c0,3,2.2,5.4,5,5.9v0.1h88.4v0
			C623.1,248.3,625.6,245.7,625.6,242.5z"/>
	</g>
	<g>
		<path fill="#E6E7E8" stroke="#E6E7E8" stroke-miterlimit="10" d="M786.4,216.3c0-3.3-2.7-6-6-6c-0.5,0-0.9,0.1-1.3,0.1
			c-0.2-5.5-4.7-10-10.3-10c-5.7,0-10.3,4.6-10.3,10.3c0,0.1,0,0.3,0,0.4c-0.9-0.6-2-0.9-3.1-0.9c-1.1,0-2.1,0.3-3,0.8
			c0-0.1,0-0.2,0-0.3c0-5.7-4.6-10.3-10.3-10.3c-0.9,0-1.7,0.1-2.6,0.3c-1.8-7.2-8.2-12.5-15.9-12.5c-7.7,0-14.1,5.3-15.9,12.4
			c-0.8-0.2-1.6-0.3-2.4-0.3c-5.6,0-10.2,4.5-10.3,10.1c-0.6-0.2-1.2-0.3-1.8-0.3c-3.3,0-6,2.7-6,6c0,3,2.2,5.4,5,5.9v0.1h88.4v0
			C783.9,222.1,786.4,219.5,786.4,216.3z"/>
	</g>
	<g>
		<path fill="#E6E7E8" stroke="#E6E7E8" stroke-miterlimit="10" d="M707.2,320.4c0-3.3-2.7-6-6-6c-0.5,0-0.9,0.1-1.3,0.1
			c-0.2-5.5-4.7-10-10.3-10c-5.7,0-10.3,4.6-10.3,10.3c0,0.1,0,0.3,0,0.4c-0.9-0.6-2-0.9-3.1-0.9c-1.1,0-2.1,0.3-3,0.8
			c0-0.1,0-0.2,0-0.3c0-5.7-4.6-10.3-10.3-10.3c-0.9,0-1.7,0.1-2.6,0.3c-1.8-7.2-8.2-12.5-15.9-12.5c-7.7,0-14.1,5.3-15.9,12.4
			c-0.8-0.2-1.6-0.3-2.4-0.3c-5.6,0-10.2,4.5-10.3,10.1c-0.6-0.2-1.2-0.3-1.8-0.3c-3.3,0-6,2.7-6,6c0,3,2.2,5.4,5,5.9v0.1h88.4v0
			C704.7,326.2,707.2,323.6,707.2,320.4z"/>
	</g>
	<g>
		<path fill="#E6E7E8" stroke="#E6E7E8" stroke-miterlimit="10" d="M633,419.2c0-3.3-2.7-6-6-6c-0.5,0-0.9,0.1-1.3,0.1
			c-0.2-5.5-4.7-10-10.3-10c-5.7,0-10.3,4.6-10.3,10.3c0,0.1,0,0.3,0,0.4c-0.9-0.6-2-0.9-3.1-0.9c-1.1,0-2.1,0.3-3,0.8
			c0-0.1,0-0.2,0-0.3c0-5.7-4.6-10.3-10.3-10.3c-0.9,0-1.7,0.1-2.6,0.3c-1.8-7.2-8.2-12.5-15.9-12.5c-7.7,0-14.1,5.3-15.9,12.4
			c-0.8-0.2-1.6-0.3-2.4-0.3c-5.6,0-10.2,4.5-10.3,10.1c-0.6-0.2-1.2-0.3-1.8-0.3c-3.3,0-6,2.7-6,6c0,3,2.2,5.4,5,5.9v0.1h88.4v0
			C630.5,425,633,422.4,633,419.2z"/>
	</g>
	<g>
		<path fill="#E6E7E8" stroke="#E6E7E8" stroke-miterlimit="10" d="M793.8,392.9c0-3.3-2.7-6-6-6c-0.5,0-0.9,0.1-1.3,0.1
			c-0.2-5.5-4.7-10-10.3-10c-5.7,0-10.3,4.6-10.3,10.3c0,0.1,0,0.3,0,0.4c-0.9-0.6-2-0.9-3.1-0.9c-1.1,0-2.1,0.3-3,0.8
			c0-0.1,0-0.2,0-0.3c0-5.7-4.6-10.3-10.3-10.3c-0.9,0-1.7,0.1-2.6,0.3c-1.8-7.2-8.2-12.5-15.9-12.5c-7.7,0-14.1,5.3-15.9,12.4
			c-0.8-0.2-1.6-0.3-2.4-0.3c-5.6,0-10.2,4.5-10.3,10.1c-0.6-0.2-1.2-0.3-1.8-0.3c-3.3,0-6,2.7-6,6c0,3,2.2,5.4,5,5.9v0.1h88.4v0
			C791.3,398.7,793.8,396.1,793.8,392.9z"/>
	</g>
	<g>
		<path fill="#E6E7E8" stroke="#E6E7E8" stroke-miterlimit="10" d="M723.6,480.8c0-3.3-2.7-6-6-6c-0.5,0-0.9,0.1-1.3,0.1
			c-0.2-5.5-4.7-10-10.3-10c-5.7,0-10.3,4.6-10.3,10.3c0,0.1,0,0.3,0,0.4c-0.9-0.6-2-0.9-3.1-0.9c-1.1,0-2.1,0.3-3,0.8
			c0-0.1,0-0.2,0-0.3c0-5.7-4.6-10.3-10.3-10.3c-0.9,0-1.7,0.1-2.6,0.3c-1.8-7.2-8.2-12.5-15.9-12.5c-7.7,0-14.1,5.3-15.9,12.4
			c-0.8-0.2-1.6-0.3-2.4-0.3c-5.6,0-10.2,4.5-10.3,10.1c-0.6-0.2-1.2-0.3-1.8-0.3c-3.3,0-6,2.7-6,6c0,3,2.2,5.4,5,5.9v0.1h88.4v0
			C721.1,486.6,723.6,484,723.6,480.8z"/>
	</g>
	<g>
		<path fill="#E6E7E8" stroke="#E6E7E8" stroke-miterlimit="10" d="M649.4,579.6c0-3.3-2.7-6-6-6c-0.5,0-0.9,0.1-1.3,0.1
			c-0.2-5.5-4.7-10-10.3-10c-5.7,0-10.3,4.6-10.3,10.3c0,0.1,0,0.3,0,0.4c-0.9-0.6-2-0.9-3.1-0.9c-1.1,0-2.1,0.3-3,0.8
			c0-0.1,0-0.2,0-0.3c0-5.7-4.6-10.3-10.3-10.3c-0.9,0-1.7,0.1-2.6,0.3c-1.8-7.2-8.2-12.5-15.9-12.5c-7.7,0-14.1,5.3-15.9,12.4
			c-0.8-0.2-1.6-0.3-2.4-0.3c-5.6,0-10.2,4.5-10.3,10.1c-0.6-0.2-1.2-0.3-1.8-0.3c-3.3,0-6,2.7-6,6c0,3,2.2,5.4,5,5.9v0.1h88.4v0
			C646.9,585.4,649.4,582.8,649.4,579.6z"/>
	</g>
	<g>
		<path fill="#E6E7E8" stroke="#E6E7E8" stroke-miterlimit="10" d="M810.3,553.3c0-3.3-2.7-6-6-6c-0.5,0-0.9,0.1-1.3,0.1
			c-0.2-5.5-4.7-10-10.3-10c-5.7,0-10.3,4.6-10.3,10.3c0,0.1,0,0.3,0,0.4c-0.9-0.6-2-0.9-3.1-0.9c-1.1,0-2.1,0.3-3,0.8
			c0-0.1,0-0.2,0-0.3c0-5.7-4.6-10.3-10.3-10.3c-0.9,0-1.7,0.1-2.6,0.3c-1.8-7.2-8.2-12.5-15.9-12.5c-7.7,0-14.1,5.3-15.9,12.4
			c-0.8-0.2-1.6-0.3-2.4-0.3c-5.6,0-10.2,4.5-10.3,10.1c-0.6-0.2-1.2-0.3-1.8-0.3c-3.3,0-6,2.7-6,6c0,3,2.2,5.4,5,5.9v0.1h88.4v0
			C807.7,559.1,810.3,556.5,810.3,553.3z"/>
	</g>
	<g>
		<path fill="#E6E7E8" stroke="#E6E7E8" stroke-miterlimit="10" d="M985.5,143.7c0-3.3-2.7-6-6-6c-0.5,0-0.9,0.1-1.3,0.1
			c-0.2-5.5-4.7-10-10.3-10c-5.7,0-10.3,4.6-10.3,10.3c0,0.1,0,0.3,0,0.4c-0.9-0.6-2-0.9-3.1-0.9c-1.1,0-2.1,0.3-3,0.8
			c0-0.1,0-0.2,0-0.3c0-5.7-4.6-10.3-10.3-10.3c-0.9,0-1.7,0.1-2.6,0.3c-1.8-7.2-8.2-12.5-15.9-12.5c-7.7,0-14.1,5.3-15.9,12.4
			c-0.8-0.2-1.6-0.3-2.4-0.3c-5.6,0-10.2,4.5-10.3,10.1c-0.6-0.2-1.2-0.3-1.8-0.3c-3.3,0-6,2.7-6,6c0,3,2.2,5.4,5,5.9v0.1h88.4v0
			C983,149.6,985.5,146.9,985.5,143.7z"/>
	</g>
	<g>
		<path fill="#E6E7E8" stroke="#E6E7E8" stroke-miterlimit="10" d="M893,51.1c0-3.3-2.7-6-6-6c-0.5,0-0.9,0.1-1.3,0.1
			c-0.2-5.5-4.7-10-10.3-10c-5.7,0-10.3,4.6-10.3,10.3c0,0.1,0,0.3,0,0.4c-0.9-0.6-2-0.9-3.1-0.9c-1.1,0-2.1,0.3-3,0.8
			c0-0.1,0-0.2,0-0.3c0-5.7-4.6-10.3-10.3-10.3c-0.9,0-1.7,0.1-2.6,0.3c-1.8-7.2-8.2-12.5-15.9-12.5c-7.7,0-14.1,5.3-15.9,12.4
			c-0.8-0.2-1.6-0.3-2.4-0.3c-5.6,0-10.2,4.5-10.3,10.1c-0.6-0.2-1.2-0.3-1.8-0.3c-3.3,0-6,2.7-6,6c0,3,2.2,5.4,5,5.9V57h88.4v0
			C890.5,56.9,893,54.3,893,51.1z"/>
	</g>
	<g>
		<path fill="#E6E7E8" stroke="#E6E7E8" stroke-miterlimit="10" d="M413.2,44.3c0-3.3-2.7-6-6-6c-0.5,0-0.9,0.1-1.3,0.1
			c-0.2-5.5-4.7-10-10.3-10c-5.7,0-10.3,4.6-10.3,10.3c0,0.1,0,0.3,0,0.4c-0.9-0.6-2-0.9-3.1-0.9c-1.1,0-2.1,0.3-3,0.8
			c0-0.1,0-0.2,0-0.3c0-5.7-4.6-10.3-10.3-10.3c-0.9,0-1.7,0.1-2.6,0.3c-1.8-7.2-8.2-12.5-15.9-12.5c-7.7,0-14.1,5.3-15.9,12.4
			c-0.8-0.2-1.6-0.3-2.4-0.3c-5.6,0-10.2,4.5-10.3,10.1c-0.6-0.2-1.2-0.3-1.8-0.3c-3.3,0-6,2.7-6,6c0,3,2.2,5.4,5,5.9v0.1h88.4v0
			C410.7,50.1,413.2,47.5,413.2,44.3z"/>
	</g>
	<g>
		<path fill="#E6E7E8" stroke="#E6E7E8" stroke-miterlimit="10" d="M1058.8,90.1c0-3.3-2.7-6-6-6c-0.5,0-0.9,0.1-1.3,0.1
			c-0.2-5.5-4.7-10-10.3-10c-5.7,0-10.3,4.6-10.3,10.3c0,0.1,0,0.3,0,0.4c-0.9-0.6-2-0.9-3.1-0.9c-1.1,0-2.1,0.3-3,0.8
			c0-0.1,0-0.2,0-0.3c0-5.7-4.6-10.3-10.3-10.3c-0.9,0-1.7,0.1-2.6,0.3c-1.8-7.2-8.2-12.5-15.9-12.5c-7.7,0-14.1,5.3-15.9,12.4
			c-0.8-0.2-1.6-0.3-2.4-0.3c-5.6,0-10.2,4.5-10.3,10.1c-0.6-0.2-1.2-0.3-1.8-0.3c-3.3,0-6,2.7-6,6c0,3,2.2,5.4,5,5.9V96h88.4v0
			C1056.2,95.9,1058.8,93.3,1058.8,90.1z"/>
	</g>
	<g>
		<path fill="#E6E7E8" stroke="#E6E7E8" stroke-miterlimit="10" d="M911.3,242.5c0-3.3-2.7-6-6-6c-0.5,0-0.9,0.1-1.3,0.1
			c-0.2-5.5-4.7-10-10.3-10c-5.7,0-10.3,4.6-10.3,10.3c0,0.1,0,0.3,0,0.4c-0.9-0.6-2-0.9-3.1-0.9c-1.1,0-2.1,0.3-3,0.8
			c0-0.1,0-0.2,0-0.3c0-5.7-4.6-10.3-10.3-10.3c-0.9,0-1.7,0.1-2.6,0.3c-1.8-7.2-8.2-12.5-15.9-12.5c-7.7,0-14.1,5.3-15.9,12.4
			c-0.8-0.2-1.6-0.3-2.4-0.3c-5.6,0-10.2,4.5-10.3,10.1c-0.6-0.2-1.2-0.3-1.8-0.3c-3.3,0-6,2.7-6,6c0,3,2.2,5.4,5,5.9v0.1h88.4v0
			C908.8,248.3,911.3,245.7,911.3,242.5z"/>
	</g>
	<g>
		<path fill="#E6E7E8" stroke="#E6E7E8" stroke-miterlimit="10" d="M1072.2,216.3c0-3.3-2.7-6-6-6c-0.5,0-0.9,0.1-1.3,0.1
			c-0.2-5.5-4.7-10-10.3-10c-5.7,0-10.3,4.6-10.3,10.3c0,0.1,0,0.3,0,0.4c-0.9-0.6-2-0.9-3.1-0.9c-1.1,0-2.1,0.3-3,0.8
			c0-0.1,0-0.2,0-0.3c0-5.7-4.6-10.3-10.3-10.3c-0.9,0-1.7,0.1-2.6,0.3c-1.8-7.2-8.2-12.5-15.9-12.5c-7.7,0-14.1,5.3-15.9,12.4
			c-0.8-0.2-1.6-0.3-2.4-0.3c-5.6,0-10.2,4.5-10.3,10.1c-0.6-0.2-1.2-0.3-1.8-0.3c-3.3,0-6,2.7-6,6c0,3,2.2,5.4,5,5.9v0.1h88.4v0
			C1069.6,222.1,1072.2,219.5,1072.2,216.3z"/>
	</g>
	<g>
		<path fill="#E6E7E8" stroke="#E6E7E8" stroke-miterlimit="10" d="M992.9,320.4c0-3.3-2.7-6-6-6c-0.5,0-0.9,0.1-1.3,0.1
			c-0.2-5.5-4.7-10-10.3-10c-5.7,0-10.3,4.6-10.3,10.3c0,0.1,0,0.3,0,0.4c-0.9-0.6-2-0.9-3.1-0.9c-1.1,0-2.1,0.3-3,0.8
			c0-0.1,0-0.2,0-0.3c0-5.7-4.6-10.3-10.3-10.3c-0.9,0-1.7,0.1-2.6,0.3c-1.8-7.2-8.2-12.5-15.9-12.5c-7.7,0-14.1,5.3-15.9,12.4
			c-0.8-0.2-1.6-0.3-2.4-0.3c-5.6,0-10.2,4.5-10.3,10.1c-0.6-0.2-1.2-0.3-1.8-0.3c-3.3,0-6,2.7-6,6c0,3,2.2,5.4,5,5.9v0.1h88.4v0
			C990.4,326.2,992.9,323.6,992.9,320.4z"/>
	</g>
	<g>
		<path fill="#E6E7E8" stroke="#E6E7E8" stroke-miterlimit="10" d="M918.7,419.2c0-3.3-2.7-6-6-6c-0.5,0-0.9,0.1-1.3,0.1
			c-0.2-5.5-4.7-10-10.3-10c-5.7,0-10.3,4.6-10.3,10.3c0,0.1,0,0.3,0,0.4c-0.9-0.6-2-0.9-3.1-0.9c-1.1,0-2.1,0.3-3,0.8
			c0-0.1,0-0.2,0-0.3c0-5.7-4.6-10.3-10.3-10.3c-0.9,0-1.7,0.1-2.6,0.3c-1.8-7.2-8.2-12.5-15.9-12.5c-7.7,0-14.1,5.3-15.9,12.4
			c-0.8-0.2-1.6-0.3-2.4-0.3c-5.6,0-10.2,4.5-10.3,10.1c-0.6-0.2-1.2-0.3-1.8-0.3c-3.3,0-6,2.7-6,6c0,3,2.2,5.4,5,5.9v0.1H913v0
			C916.2,425,918.7,422.4,918.7,419.2z"/>
	</g>
	<g>
		<path fill="#E6E7E8" stroke="#E6E7E8" stroke-miterlimit="10" d="M1079.6,392.9c0-3.3-2.7-6-6-6c-0.5,0-0.9,0.1-1.3,0.1
			c-0.2-5.5-4.7-10-10.3-10c-5.7,0-10.3,4.6-10.3,10.3c0,0.1,0,0.3,0,0.4c-0.9-0.6-2-0.9-3.1-0.9c-1.1,0-2.1,0.3-3,0.8
			c0-0.1,0-0.2,0-0.3c0-5.7-4.6-10.3-10.3-10.3c-0.9,0-1.7,0.1-2.6,0.3c-1.8-7.2-8.2-12.5-15.9-12.5c-7.7,0-14.1,5.3-15.9,12.4
			c-0.8-0.2-1.6-0.3-2.4-0.3c-5.6,0-10.2,4.5-10.3,10.1c-0.6-0.2-1.2-0.3-1.8-0.3c-3.3,0-6,2.7-6,6c0,3,2.2,5.4,5,5.9v0.1h88.4v0
			C1077.1,398.7,1079.6,396.1,1079.6,392.9z"/>
	</g>
	<g>
		<path fill="#E6E7E8" stroke="#E6E7E8" stroke-miterlimit="10" d="M1009.3,480.8c0-3.3-2.7-6-6-6c-0.5,0-0.9,0.1-1.3,0.1
			c-0.2-5.5-4.7-10-10.3-10c-5.7,0-10.3,4.6-10.3,10.3c0,0.1,0,0.3,0,0.4c-0.9-0.6-2-0.9-3.1-0.9c-1.1,0-2.1,0.3-3,0.8
			c0-0.1,0-0.2,0-0.3c0-5.7-4.6-10.3-10.3-10.3c-0.9,0-1.7,0.1-2.6,0.3c-1.8-7.2-8.2-12.5-15.9-12.5c-7.7,0-14.1,5.3-15.9,12.4
			c-0.8-0.2-1.6-0.3-2.4-0.3c-5.6,0-10.2,4.5-10.3,10.1c-0.6-0.2-1.2-0.3-1.8-0.3c-3.3,0-6,2.7-6,6c0,3,2.2,5.4,5,5.9v0.1h88.4v0
			C1006.8,486.6,1009.3,484,1009.3,480.8z"/>
	</g>
	<g>
		<path fill="#E6E7E8" stroke="#E6E7E8" stroke-miterlimit="10" d="M935.1,579.6c0-3.3-2.7-6-6-6c-0.5,0-0.9,0.1-1.3,0.1
			c-0.2-5.5-4.7-10-10.3-10c-5.7,0-10.3,4.6-10.3,10.3c0,0.1,0,0.3,0,0.4c-0.9-0.6-2-0.9-3.1-0.9c-1.1,0-2.1,0.3-3,0.8
			c0-0.1,0-0.2,0-0.3c0-5.7-4.6-10.3-10.3-10.3c-0.9,0-1.7,0.1-2.6,0.3c-1.8-7.2-8.2-12.5-15.9-12.5c-7.7,0-14.1,5.3-15.9,12.4
			c-0.8-0.2-1.6-0.3-2.4-0.3c-5.6,0-10.2,4.5-10.3,10.1c-0.6-0.2-1.2-0.3-1.8-0.3c-3.3,0-6,2.7-6,6c0,3,2.2,5.4,5,5.9v0.1h88.4v0
			C932.6,585.4,935.1,582.8,935.1,579.6z"/>
	</g>
	<g>
		<path fill="#E6E7E8" stroke="#E6E7E8" stroke-miterlimit="10" d="M1096,553.3c0-3.3-2.7-6-6-6c-0.5,0-0.9,0.1-1.3,0.1
			c-0.2-5.5-4.7-10-10.3-10c-5.7,0-10.3,4.6-10.3,10.3c0,0.1,0,0.3,0,0.4c-0.9-0.6-2-0.9-3.1-0.9c-1.1,0-2.1,0.3-3,0.8
			c0-0.1,0-0.2,0-0.3c0-5.7-4.6-10.3-10.3-10.3c-0.9,0-1.7,0.1-2.6,0.3c-1.8-7.2-8.2-12.5-15.9-12.5c-7.7,0-14.1,5.3-15.9,12.4
			c-0.8-0.2-1.6-0.3-2.4-0.3c-5.6,0-10.2,4.5-10.3,10.1c-0.6-0.2-1.2-0.3-1.8-0.3c-3.3,0-6,2.7-6,6c0,3,2.2,5.4,5,5.9v0.1h88.4v0
			C1093.5,559.1,1096,556.5,1096,553.3z"/>
	</g>
</g>
</svg>
