<?xml version="1.0" encoding="utf-8"?>
<!-- Generator: Adobe Illustrator 18.0.0, SVG Export Plug-In . SVG Version: 6.00 Build 0)  -->
<!DOCTYPE svg PUBLIC "-//W3C//DTD SVG 1.1//EN" "http://www.w3.org/Graphics/SVG/1.1/DTD/svg11.dtd">
<svg version="1.1" id="Layer_1" xmlns="http://www.w3.org/2000/svg" xmlns:xlink="http://www.w3.org/1999/xlink" x="0px" y="0px"
	 viewBox="0 0 1136 640" enable-background="new 0 0 1136 640" xml:space="preserve">
<rect x="-23.6" y="-19.7" fill="#80CCDD" width="1183.3" height="679.5"/>
<g>
	<path fill="#E6E7E8" stroke="#E6E7E8" stroke-miterlimit="10" d="M382.4,160.7c0-3.3-2.7-6-6-6c-0.5,0-0.9,0.1-1.3,0.1
		c-0.2-5.5-4.7-10-10.3-10c-5.7,0-10.3,4.6-10.3,10.3c0,0.1,0,0.3,0,0.4c-0.9-0.6-2-0.9-3.1-0.9c-1.1,0-2.1,0.3-3,0.8
		c0-0.1,0-0.2,0-0.3c0-5.7-4.6-10.3-10.3-10.3c-0.9,0-1.7,0.1-2.6,0.3c-1.8-7.2-8.2-12.5-15.9-12.5c-7.7,0-14.1,5.3-15.9,12.4
		c-0.8-0.2-1.6-0.3-2.4-0.3c-5.6,0-10.2,4.5-10.3,10.1c-0.6-0.2-1.2-0.3-1.8-0.3c-3.3,0-6,2.7-6,6c0,3,2.2,5.4,5,5.9v0.1h88.4v0
		C379.9,166.5,382.4,163.9,382.4,160.7z"/>
</g>
<g>
	<path fill="#E6E7E8" stroke="#E6E7E8" stroke-miterlimit="10" d="M456.4,90.1c0-3.3-2.7-6-6-6c-0.5,0-0.9,0.1-1.3,0.1
		c-0.2-5.5-4.7-10-10.3-10c-5.7,0-10.3,4.6-10.3,10.3c0,0.1,0,0.3,0,0.4c-0.9-0.6-2-0.9-3.1-0.9c-1.1,0-2.1,0.3-3,0.8
		c0-0.1,0-0.2,0-0.3c0-5.7-4.6-10.3-10.3-10.3c-0.9,0-1.7,0.1-2.6,0.3c-1.8-7.2-8.2-12.5-15.9-12.5c-7.7,0-14.1,5.3-15.9,12.4
		c-0.8-0.2-1.6-0.3-2.4-0.3c-5.6,0-10.2,4.5-10.3,10.1c-0.6-0.2-1.2-0.3-1.8-0.3c-3.3,0-6,2.7-6,6c0,3,2.2,5.4,5,5.9V96h88.4v0
		C453.9,95.9,456.4,93.3,456.4,90.1z"/>
</g>
<g>
	<path fill="#E6E7E8" stroke="#E6E7E8" stroke-miterlimit="10" d="M309,242.5c0-3.3-2.7-6-6-6c-0.5,0-0.9,0.1-1.3,0.1
		c-0.2-5.5-4.7-10-10.3-10c-5.7,0-10.3,4.6-10.3,10.3c0,0.1,0,0.3,0,0.4c-0.9-0.6-2-0.9-3.1-0.9c-1.1,0-2.1,0.3-3,0.8
		c0-0.1,0-0.2,0-0.3c0-5.7-4.6-10.3-10.3-10.3c-0.9,0-1.7,0.1-2.6,0.3c-1.8-7.2-8.2-12.5-15.9-12.5c-7.7,0-14.1,5.3-15.9,12.4
		c-0.8-0.2-1.6-0.3-2.4-0.3c-5.6,0-10.2,4.5-10.3,10.1c-0.6-0.2-1.2-0.3-1.8-0.3c-3.3,0-6,2.7-6,6c0,3,2.2,5.4,5,5.9v0.1h88.4v0
		C306.5,248.3,309,245.7,309,242.5z"/>
</g>
<g>
	<path fill="#E6E7E8" stroke="#E6E7E8" stroke-miterlimit="10" d="M469.8,216.3c0-3.3-2.7-6-6-6c-0.5,0-0.9,0.1-1.3,0.1
		c-0.2-5.5-4.7-10-10.3-10c-5.7,0-10.3,4.6-10.3,10.3c0,0.1,0,0.3,0,0.4c-0.9-0.6-2-0.9-3.1-0.9c-1.1,0-2.1,0.3-3,0.8
		c0-0.1,0-0.2,0-0.3c0-5.7-4.6-10.3-10.3-10.3c-0.9,0-1.7,0.1-2.6,0.3c-1.8-7.2-8.2-12.5-15.9-12.5c-7.7,0-14.1,5.3-15.9,12.4
		c-0.8-0.2-1.6-0.3-2.4-0.3c-5.6,0-10.2,4.5-10.3,10.1c-0.6-0.2-1.2-0.3-1.8-0.3c-3.3,0-6,2.7-6,6c0,3,2.2,5.4,5,5.9v0.1h88.4v0
		C467.3,222.1,469.8,219.5,469.8,216.3z"/>
</g>
<g>
	<path fill="#E6E7E8" stroke="#E6E7E8" stroke-miterlimit="10" d="M390.6,320.4c0-3.3-2.7-6-6-6c-0.5,0-0.9,0.1-1.3,0.1
		c-0.2-5.5-4.7-10-10.3-10c-5.7,0-10.3,4.6-10.3,10.3c0,0.1,0,0.3,0,0.4c-0.9-0.6-2-0.9-3.1-0.9c-1.1,0-2.1,0.3-3,0.8
		c0-0.1,0-0.2,0-0.3c0-5.7-4.6-10.3-10.3-10.3c-0.9,0-1.7,0.1-2.6,0.3c-1.8-7.2-8.2-12.5-15.9-12.5c-7.7,0-14.1,5.3-15.9,12.4
		c-0.8-0.2-1.6-0.3-2.4-0.3c-5.6,0-10.2,4.5-10.3,10.1c-0.6-0.2-1.2-0.3-1.8-0.3c-3.3,0-6,2.7-6,6c0,3,2.2,5.4,5,5.9v0.1h88.4v0
		C388.1,326.2,390.6,323.6,390.6,320.4z"/>
</g>
<g>
	<path fill="#E6E7E8" stroke="#E6E7E8" stroke-miterlimit="10" d="M316.4,419.2c0-3.3-2.7-6-6-6c-0.5,0-0.9,0.1-1.3,0.1
		c-0.2-5.5-4.7-10-10.3-10c-5.7,0-10.3,4.6-10.3,10.3c0,0.1,0,0.3,0,0.4c-0.9-0.6-2-0.9-3.1-0.9c-1.1,0-2.1,0.3-3,0.8
		c0-0.1,0-0.2,0-0.3c0-5.7-4.6-10.3-10.3-10.3c-0.9,0-1.7,0.1-2.6,0.3c-1.8-7.2-8.2-12.5-15.9-12.5c-7.7,0-14.1,5.3-15.9,12.4
		c-0.8-0.2-1.6-0.3-2.4-0.3c-5.6,0-10.2,4.5-10.3,10.1c-0.6-0.2-1.2-0.3-1.8-0.3c-3.3,0-6,2.7-6,6c0,3,2.2,5.4,5,5.9v0.1h88.4v0
		C313.9,425,316.4,422.4,316.4,419.2z"/>
</g>
<g>
	<path fill="#E6E7E8" stroke="#E6E7E8" stroke-miterlimit="10" d="M477.3,392.9c0-3.3-2.7-6-6-6c-0.5,0-0.9,0.1-1.3,0.1
		c-0.2-5.5-4.7-10-10.3-10c-5.7,0-10.3,4.6-10.3,10.3c0,0.1,0,0.3,0,0.4c-0.9-0.6-2-0.9-3.1-0.9c-1.1,0-2.1,0.3-3,0.8
		c0-0.1,0-0.2,0-0.3c0-5.7-4.6-10.3-10.3-10.3c-0.9,0-1.7,0.1-2.6,0.3c-1.8-7.2-8.2-12.5-15.9-12.5c-7.7,0-14.1,5.3-15.9,12.4
		c-0.8-0.2-1.6-0.3-2.4-0.3c-5.6,0-10.2,4.5-10.3,10.1c-0.6-0.2-1.2-0.3-1.8-0.3c-3.3,0-6,2.7-6,6c0,3,2.2,5.4,5,5.9v0.1h88.4v0
		C474.7,398.7,477.3,396.1,477.3,392.9z"/>
</g>
<g>
	<path fill="#E6E7E8" stroke="#E6E7E8" stroke-miterlimit="10" d="M407,480.8c0-3.3-2.7-6-6-6c-0.5,0-0.9,0.1-1.3,0.1
		c-0.2-5.5-4.7-10-10.3-10c-5.7,0-10.3,4.6-10.3,10.3c0,0.1,0,0.3,0,0.4c-0.9-0.6-2-0.9-3.1-0.9c-1.1,0-2.1,0.3-3,0.8
		c0-0.1,0-0.2,0-0.3c0-5.7-4.6-10.3-10.3-10.3c-0.9,0-1.7,0.1-2.6,0.3c-1.8-7.2-8.2-12.5-15.9-12.5c-7.7,0-14.1,5.3-15.9,12.4
		c-0.8-0.2-1.6-0.3-2.4-0.3c-5.6,0-10.2,4.5-10.3,10.1c-0.6-0.2-1.2-0.3-1.8-0.3c-3.3,0-6,2.7-6,6c0,3,2.2,5.4,5,5.9v0.1h88.4v0
		C404.5,486.6,407,484,407,480.8z"/>
</g>
<g>
	<path fill="#E6E7E8" stroke="#E6E7E8" stroke-miterlimit="10" d="M309,547c0-3.3-2.7-6-6-6c-0.5,0-0.9,0.1-1.3,0.1
		c-0.2-5.5-4.7-10-10.3-10c-5.7,0-10.3,4.6-10.3,10.3c0,0.1,0,0.3,0,0.4c-0.9-0.6-2-0.9-3.1-0.9c-1.1,0-2.1,0.3-3,0.8
		c0-0.1,0-0.2,0-0.3c0-5.7-4.6-10.3-10.3-10.3c-0.9,0-1.7,0.1-2.6,0.3c-1.8-7.2-8.2-12.5-15.9-12.5c-7.7,0-14.1,5.3-15.9,12.4
		c-0.8-0.2-1.6-0.3-2.4-0.3c-5.6,0-10.2,4.5-10.3,10.1c-0.6-0.2-1.2-0.3-1.8-0.3c-3.3,0-6,2.7-6,6c0,3,2.2,5.4,5,5.9v0.1h88.4v0
		C306.5,552.9,309,550.2,309,547z"/>
</g>
<g>
	<path fill="#E6E7E8" stroke="#E6E7E8" stroke-miterlimit="10" d="M407.2,607.9c0-3.3-2.7-6-6-6c-0.5,0-0.9,0.1-1.3,0.1
		c-0.2-5.5-4.7-10-10.3-10c-5.7,0-10.3,4.6-10.3,10.3c0,0.1,0,0.3,0,0.4c-0.9-0.6-2-0.9-3.1-0.9c-1.1,0-2.1,0.3-3,0.8
		c0-0.1,0-0.2,0-0.3c0-5.7-4.6-10.3-10.3-10.3c-0.9,0-1.7,0.1-2.6,0.3c-1.8-7.2-8.2-12.5-15.9-12.5c-7.7,0-14.1,5.3-15.9,12.4
		c-0.8-0.2-1.6-0.3-2.4-0.3c-5.6,0-10.2,4.5-10.3,10.1c-0.6-0.2-1.2-0.3-1.8-0.3c-3.3,0-6,2.7-6,6c0,3,2.2,5.4,5,5.9v0.1h88.4v0
		C404.7,613.7,407.2,611.1,407.2,607.9z"/>
</g>
<g>
	<path fill="#E6E7E8" stroke="#E6E7E8" stroke-miterlimit="10" d="M493.7,553.3c0-3.3-2.7-6-6-6c-0.5,0-0.9,0.1-1.3,0.1
		c-0.2-5.5-4.7-10-10.3-10c-5.7,0-10.3,4.6-10.3,10.3c0,0.1,0,0.3,0,0.4c-0.9-0.6-2-0.9-3.1-0.9c-1.1,0-2.1,0.3-3,0.8
		c0-0.1,0-0.2,0-0.3c0-5.7-4.6-10.3-10.3-10.3c-0.9,0-1.7,0.1-2.6,0.3c-1.8-7.2-8.2-12.5-15.9-12.5c-7.7,0-14.1,5.3-15.9,12.4
		c-0.8-0.2-1.6-0.3-2.4-0.3c-5.6,0-10.2,4.5-10.3,10.1c-0.6-0.2-1.2-0.3-1.8-0.3c-3.3,0-6,2.7-6,6c0,3,2.2,5.4,5,5.9v0.1H488v0
		C491.1,559.1,493.7,556.5,493.7,553.3z"/>
</g>
<g>
	<path fill="#E6E7E8" stroke="#E6E7E8" stroke-miterlimit="10" d="M220.8,143.7c0-3.3-2.7-6-6-6c-0.5,0-0.9,0.1-1.3,0.1
		c-0.2-5.5-4.7-10-10.3-10c-5.7,0-10.3,4.6-10.3,10.3c0,0.1,0,0.3,0,0.4c-0.9-0.6-2-0.9-3.1-0.9c-1.1,0-2.1,0.3-3,0.8
		c0-0.1,0-0.2,0-0.3c0-5.7-4.6-10.3-10.3-10.3c-0.9,0-1.7,0.1-2.6,0.3c-1.8-7.2-8.2-12.5-15.9-12.5c-7.7,0-14.1,5.3-15.9,12.4
		c-0.8-0.2-1.6-0.3-2.4-0.3c-5.6,0-10.2,4.5-10.3,10.1c-0.6-0.2-1.2-0.3-1.8-0.3c-3.3,0-6,2.7-6,6c0,3,2.2,5.4,5,5.9v0.1h88.4v0
		C218.3,149.6,220.8,146.9,220.8,143.7z"/>
</g>
<g>
	<path fill="#E6E7E8" stroke="#E6E7E8" stroke-miterlimit="10" d="M146.6,242.5c0-3.3-2.7-6-6-6c-0.5,0-0.9,0.1-1.3,0.1
		c-0.2-5.5-4.7-10-10.3-10c-5.7,0-10.3,4.6-10.3,10.3c0,0.1,0,0.3,0,0.4c-0.9-0.6-2-0.9-3.1-0.9c-1.1,0-2.1,0.3-3,0.8
		c0-0.1,0-0.2,0-0.3c0-5.7-4.6-10.3-10.3-10.3c-0.9,0-1.7,0.1-2.6,0.3c-1.8-7.2-8.2-12.5-15.9-12.5c-7.7,0-14.1,5.3-15.9,12.4
		c-0.8-0.2-1.6-0.3-2.4-0.3c-5.6,0-10.2,4.5-10.3,10.1c-0.6-0.2-1.2-0.3-1.8-0.3c-3.3,0-6,2.7-6,6c0,3,2.2,5.4,5,5.9v0.1h88.4v0
		C144.1,248.3,146.6,245.7,146.6,242.5z"/>
</g>
<g>
	<path fill="#E6E7E8" stroke="#E6E7E8" stroke-miterlimit="10" d="M228.2,320.4c0-3.3-2.7-6-6-6c-0.5,0-0.9,0.1-1.3,0.1
		c-0.2-5.5-4.7-10-10.3-10c-5.7,0-10.3,4.6-10.3,10.3c0,0.1,0,0.3,0,0.4c-0.9-0.6-2-0.9-3.1-0.9c-1.1,0-2.1,0.3-3,0.8
		c0-0.1,0-0.2,0-0.3c0-5.7-4.6-10.3-10.3-10.3c-0.9,0-1.7,0.1-2.6,0.3c-1.8-7.2-8.2-12.5-15.9-12.5c-7.7,0-14.1,5.3-15.9,12.4
		c-0.8-0.2-1.6-0.3-2.4-0.3c-5.6,0-10.2,4.5-10.3,10.1c-0.6-0.2-1.2-0.3-1.8-0.3c-3.3,0-6,2.7-6,6c0,3,2.2,5.4,5,5.9v0.1h88.4v0
		C225.7,326.2,228.2,323.6,228.2,320.4z"/>
</g>
<g>
	<path fill="#E6E7E8" stroke="#E6E7E8" stroke-miterlimit="10" d="M154,419.2c0-3.3-2.7-6-6-6c-0.5,0-0.9,0.1-1.3,0.1
		c-0.2-5.5-4.7-10-10.3-10c-5.7,0-10.3,4.6-10.3,10.3c0,0.1,0,0.3,0,0.4c-0.9-0.6-2-0.9-3.1-0.9c-1.1,0-2.1,0.3-3,0.8
		c0-0.1,0-0.2,0-0.3c0-5.7-4.6-10.3-10.3-10.3c-0.9,0-1.7,0.1-2.6,0.3c-1.8-7.2-8.2-12.5-15.9-12.5c-7.7,0-14.1,5.3-15.9,12.4
		c-0.8-0.2-1.6-0.3-2.4-0.3c-5.6,0-10.2,4.5-10.3,10.1c-0.6-0.2-1.2-0.3-1.8-0.3c-3.3,0-6,2.7-6,6c0,3,2.2,5.4,5,5.9v0.1h88.4v0
		C151.5,425,154,422.4,154,419.2z"/>
</g>
<g>
	<path fill="#E6E7E8" stroke="#E6E7E8" stroke-miterlimit="10" d="M244.6,480.8c0-3.3-2.7-6-6-6c-0.5,0-0.9,0.1-1.3,0.1
		c-0.2-5.5-4.7-10-10.3-10c-5.7,0-10.3,4.6-10.3,10.3c0,0.1,0,0.3,0,0.4c-0.9-0.6-2-0.9-3.1-0.9c-1.1,0-2.1,0.3-3,0.8
		c0-0.1,0-0.2,0-0.3c0-5.7-4.6-10.3-10.3-10.3c-0.9,0-1.7,0.1-2.6,0.3c-1.8-7.2-8.2-12.5-15.9-12.5c-7.7,0-14.1,5.3-15.9,12.4
		c-0.8-0.2-1.6-0.3-2.4-0.3c-5.6,0-10.2,4.5-10.3,10.1c-0.6-0.2-1.2-0.3-1.8-0.3c-3.3,0-6,2.7-6,6c0,3,2.2,5.4,5,5.9v0.1h88.4v0
		C242.1,486.6,244.6,484,244.6,480.8z"/>
</g>
<g>
	<path fill="#E6E7E8" stroke="#E6E7E8" stroke-miterlimit="10" d="M196.2,591c0-3.3-2.7-6-6-6c-0.5,0-0.9,0.1-1.3,0.1
		c-0.2-5.5-4.7-10-10.3-10c-5.7,0-10.3,4.6-10.3,10.3c0,0.1,0,0.3,0,0.4c-0.9-0.6-2-0.9-3.1-0.9c-1.1,0-2.1,0.3-3,0.8
		c0-0.1,0-0.2,0-0.3c0-5.7-4.6-10.3-10.3-10.3c-0.9,0-1.7,0.1-2.6,0.3c-1.8-7.2-8.2-12.5-15.9-12.5c-7.7,0-14.1,5.3-15.9,12.4
		c-0.8-0.2-1.6-0.3-2.4-0.3c-5.6,0-10.2,4.5-10.3,10.1c-0.6-0.2-1.2-0.3-1.8-0.3c-3.3,0-6,2.7-6,6c0,3,2.2,5.4,5,5.9v0.1h88.4v0
		C193.6,596.8,196.2,594.2,196.2,591z"/>
</g>
<g>
	<path fill="#E6E7E8" stroke="#E6E7E8" stroke-miterlimit="10" d="M126.3,524.7c0-3.3-2.7-6-6-6c-0.5,0-0.9,0.1-1.3,0.1
		c-0.2-5.5-4.7-10-10.3-10c-5.7,0-10.3,4.6-10.3,10.3c0,0.1,0,0.3,0,0.4c-0.9-0.6-2-0.9-3.1-0.9c-1.1,0-2.1,0.3-3,0.8
		c0-0.1,0-0.2,0-0.3c0-5.7-4.6-10.3-10.3-10.3c-0.9,0-1.7,0.1-2.6,0.3c-1.8-7.2-8.2-12.5-15.9-12.5c-7.7,0-14.1,5.3-15.9,12.4
		c-0.8-0.2-1.6-0.3-2.4-0.3c-5.6,0-10.2,4.5-10.3,10.1c-0.6-0.2-1.2-0.3-1.8-0.3c-3.3,0-6,2.7-6,6c0,3,2.2,5.4,5,5.9v0.1h88.4v0
		C123.7,530.5,126.3,527.9,126.3,524.7z"/>
</g>
<g>
	<path fill="#E6E7E8" stroke="#E6E7E8" stroke-miterlimit="10" d="M699.8,143.7c0-3.3-2.7-6-6-6c-0.5,0-0.9,0.1-1.3,0.1
		c-0.2-5.5-4.7-10-10.3-10c-5.7,0-10.3,4.6-10.3,10.3c0,0.1,0,0.3,0,0.4c-0.9-0.6-2-0.9-3.1-0.9c-1.1,0-2.1,0.3-3,0.8
		c0-0.1,0-0.2,0-0.3c0-5.7-4.6-10.3-10.3-10.3c-0.9,0-1.7,0.1-2.6,0.3c-1.8-7.2-8.2-12.5-15.9-12.5c-7.7,0-14.1,5.3-15.9,12.4
		c-0.8-0.2-1.6-0.3-2.4-0.3c-5.6,0-10.2,4.5-10.3,10.1c-0.6-0.2-1.2-0.3-1.8-0.3c-3.3,0-6,2.7-6,6c0,3,2.2,5.4,5,5.9v0.1h88.4v0
		C697.3,149.6,699.8,146.9,699.8,143.7z"/>
</g>
<g>
	<path fill="#E6E7E8" stroke="#E6E7E8" stroke-miterlimit="10" d="M598.2,51.1c0-3.3-2.7-6-6-6c-0.5,0-0.9,0.1-1.3,0.1
		c-0.2-5.5-4.7-10-10.3-10c-5.7,0-10.3,4.6-10.3,10.3c0,0.1,0,0.3,0,0.4c-0.9-0.6-2-0.9-3.1-0.9c-1.1,0-2.1,0.3-3,0.8
		c0-0.1,0-0.2,0-0.3c0-5.7-4.6-10.3-10.3-10.3c-0.9,0-1.7,0.1-2.6,0.3c-1.8-7.2-8.2-12.5-15.9-12.5c-7.7,0-14.1,5.3-15.9,12.4
		c-0.8-0.2-1.6-0.3-2.4-0.3c-5.6,0-10.2,4.5-10.3,10.1c-0.6-0.2-1.2-0.3-1.8-0.3c-3.3,0-6,2.7-6,6c0,3,2.2,5.4,5,5.9V57h88.4v0
		C595.6,56.9,598.2,54.3,598.2,51.1z"/>
</g>
<g>
	<path fill="#E6E7E8" stroke="#E6E7E8" stroke-miterlimit="10" d="M765.8,61c0-3.3-2.7-6-6-6c-0.5,0-0.9,0.1-1.3,0.1
		c-0.2-5.5-4.7-10-10.3-10c-5.7,0-10.3,4.6-10.3,10.3c0,0.1,0,0.3,0,0.4c-0.9-0.6-2-0.9-3.1-0.9c-1.1,0-2.1,0.3-3,0.8
		c0-0.1,0-0.2,0-0.3c0-5.7-4.6-10.3-10.3-10.3c-0.9,0-1.7,0.1-2.6,0.3c-1.8-7.2-8.2-12.5-15.9-12.5c-7.7,0-14.1,5.3-15.9,12.4
		c-0.8-0.2-1.6-0.3-2.4-0.3c-5.6,0-10.2,4.5-10.3,10.1c-0.6-0.2-1.2-0.3-1.8-0.3c-3.3,0-6,2.7-6,6c0,3,2.2,5.4,5,5.9V67h88.4v0
		C763.2,66.8,765.8,64.2,765.8,61z"/>
</g>
<g>
	<path fill="#E6E7E8" stroke="#E6E7E8" stroke-miterlimit="10" d="M625.6,242.5c0-3.3-2.7-6-6-6c-0.5,0-0.9,0.1-1.3,0.1
		c-0.2-5.5-4.7-10-10.3-10c-5.7,0-10.3,4.6-10.3,10.3c0,0.1,0,0.3,0,0.4c-0.9-0.6-2-0.9-3.1-0.9c-1.1,0-2.1,0.3-3,0.8
		c0-0.1,0-0.2,0-0.3c0-5.7-4.6-10.3-10.3-10.3c-0.9,0-1.7,0.1-2.6,0.3c-1.8-7.2-8.2-12.5-15.9-12.5c-7.7,0-14.1,5.3-15.9,12.4
		c-0.8-0.2-1.6-0.3-2.4-0.3c-5.6,0-10.2,4.5-10.3,10.1c-0.6-0.2-1.2-0.3-1.8-0.3c-3.3,0-6,2.7-6,6c0,3,2.2,5.4,5,5.9v0.1h88.4v0
		C623.1,248.3,625.6,245.7,625.6,242.5z"/>
</g>
<g>
	<path fill="#E6E7E8" stroke="#E6E7E8" stroke-miterlimit="10" d="M786.4,216.3c0-3.3-2.7-6-6-6c-0.5,0-0.9,0.1-1.3,0.1
		c-0.2-5.5-4.7-10-10.3-10c-5.7,0-10.3,4.6-10.3,10.3c0,0.1,0,0.3,0,0.4c-0.9-0.6-2-0.9-3.1-0.9c-1.1,0-2.1,0.3-3,0.8
		c0-0.1,0-0.2,0-0.3c0-5.7-4.6-10.3-10.3-10.3c-0.9,0-1.7,0.1-2.6,0.3c-1.8-7.2-8.2-12.5-15.9-12.5c-7.7,0-14.1,5.3-15.9,12.4
		c-0.8-0.2-1.6-0.3-2.4-0.3c-5.6,0-10.2,4.5-10.3,10.1c-0.6-0.2-1.2-0.3-1.8-0.3c-3.3,0-6,2.7-6,6c0,3,2.2,5.4,5,5.9v0.1h88.4v0
		C783.9,222.1,786.4,219.5,786.4,216.3z"/>
</g>
<g>
	<path fill="#E6E7E8" stroke="#E6E7E8" stroke-miterlimit="10" d="M707.2,320.4c0-3.3-2.7-6-6-6c-0.5,0-0.9,0.1-1.3,0.1
		c-0.2-5.5-4.7-10-10.3-10c-5.7,0-10.3,4.6-10.3,10.3c0,0.1,0,0.3,0,0.4c-0.9-0.6-2-0.9-3.1-0.9c-1.1,0-2.1,0.3-3,0.8
		c0-0.1,0-0.2,0-0.3c0-5.7-4.6-10.3-10.3-10.3c-0.9,0-1.7,0.1-2.6,0.3c-1.8-7.2-8.2-12.5-15.9-12.5c-7.7,0-14.1,5.3-15.9,12.4
		c-0.8-0.2-1.6-0.3-2.4-0.3c-5.6,0-10.2,4.5-10.3,10.1c-0.6-0.2-1.2-0.3-1.8-0.3c-3.3,0-6,2.7-6,6c0,3,2.2,5.4,5,5.9v0.1h88.4v0
		C704.7,326.2,707.2,323.6,707.2,320.4z"/>
</g>
<g>
	<path fill="#E6E7E8" stroke="#E6E7E8" stroke-miterlimit="10" d="M633,419.2c0-3.3-2.7-6-6-6c-0.5,0-0.9,0.1-1.3,0.1
		c-0.2-5.5-4.7-10-10.3-10c-5.7,0-10.3,4.6-10.3,10.3c0,0.1,0,0.3,0,0.4c-0.9-0.6-2-0.9-3.1-0.9c-1.1,0-2.1,0.3-3,0.8
		c0-0.1,0-0.2,0-0.3c0-5.7-4.6-10.3-10.3-10.3c-0.9,0-1.7,0.1-2.6,0.3c-1.8-7.2-8.2-12.5-15.9-12.5c-7.7,0-14.1,5.3-15.9,12.4
		c-0.8-0.2-1.6-0.3-2.4-0.3c-5.6,0-10.2,4.5-10.3,10.1c-0.6-0.2-1.2-0.3-1.8-0.3c-3.3,0-6,2.7-6,6c0,3,2.2,5.4,5,5.9v0.1h88.4v0
		C630.5,425,633,422.4,633,419.2z"/>
</g>
<g>
	<path fill="#E6E7E8" stroke="#E6E7E8" stroke-miterlimit="10" d="M793.8,392.9c0-3.3-2.7-6-6-6c-0.5,0-0.9,0.1-1.3,0.1
		c-0.2-5.5-4.7-10-10.3-10c-5.7,0-10.3,4.6-10.3,10.3c0,0.1,0,0.3,0,0.4c-0.9-0.6-2-0.9-3.1-0.9c-1.1,0-2.1,0.3-3,0.8
		c0-0.1,0-0.2,0-0.3c0-5.7-4.6-10.3-10.3-10.3c-0.9,0-1.7,0.1-2.6,0.3c-1.8-7.2-8.2-12.5-15.9-12.5c-7.7,0-14.1,5.3-15.9,12.4
		c-0.8-0.2-1.6-0.3-2.4-0.3c-5.6,0-10.2,4.5-10.3,10.1c-0.6-0.2-1.2-0.3-1.8-0.3c-3.3,0-6,2.7-6,6c0,3,2.2,5.4,5,5.9v0.1h88.4v0
		C791.3,398.7,793.8,396.1,793.8,392.9z"/>
</g>
<g>
	<path fill="#E6E7E8" stroke="#E6E7E8" stroke-miterlimit="10" d="M723.6,480.8c0-3.3-2.7-6-6-6c-0.5,0-0.9,0.1-1.3,0.1
		c-0.2-5.5-4.7-10-10.3-10c-5.7,0-10.3,4.6-10.3,10.3c0,0.1,0,0.3,0,0.4c-0.9-0.6-2-0.9-3.1-0.9c-1.1,0-2.1,0.3-3,0.8
		c0-0.1,0-0.2,0-0.3c0-5.7-4.6-10.3-10.3-10.3c-0.9,0-1.7,0.1-2.6,0.3c-1.8-7.2-8.2-12.5-15.9-12.5c-7.7,0-14.1,5.3-15.9,12.4
		c-0.8-0.2-1.6-0.3-2.4-0.3c-5.6,0-10.2,4.5-10.3,10.1c-0.6-0.2-1.2-0.3-1.8-0.3c-3.3,0-6,2.7-6,6c0,3,2.2,5.4,5,5.9v0.1h88.4v0
		C721.1,486.6,723.6,484,723.6,480.8z"/>
</g>
<g>
	<path fill="#E6E7E8" stroke="#E6E7E8" stroke-miterlimit="10" d="M649.4,579.6c0-3.3-2.7-6-6-6c-0.5,0-0.9,0.1-1.3,0.1
		c-0.2-5.5-4.7-10-10.3-10c-5.7,0-10.3,4.6-10.3,10.3c0,0.1,0,0.3,0,0.4c-0.9-0.6-2-0.9-3.1-0.9c-1.1,0-2.1,0.3-3,0.8
		c0-0.1,0-0.2,0-0.3c0-5.7-4.6-10.3-10.3-10.3c-0.9,0-1.7,0.1-2.6,0.3c-1.8-7.2-8.2-12.5-15.9-12.5c-7.7,0-14.1,5.3-15.9,12.4
		c-0.8-0.2-1.6-0.3-2.4-0.3c-5.6,0-10.2,4.5-10.3,10.1c-0.6-0.2-1.2-0.3-1.8-0.3c-3.3,0-6,2.7-6,6c0,3,2.2,5.4,5,5.9v0.1h88.4v0
		C646.9,585.4,649.4,582.8,649.4,579.6z"/>
</g>
<g>
	<path fill="#E6E7E8" stroke="#E6E7E8" stroke-miterlimit="10" d="M810.3,553.3c0-3.3-2.7-6-6-6c-0.5,0-0.9,0.1-1.3,0.1
		c-0.2-5.5-4.7-10-10.3-10c-5.7,0-10.3,4.6-10.3,10.3c0,0.1,0,0.3,0,0.4c-0.9-0.6-2-0.9-3.1-0.9c-1.1,0-2.1,0.3-3,0.8
		c0-0.1,0-0.2,0-0.3c0-5.7-4.6-10.3-10.3-10.3c-0.9,0-1.7,0.1-2.6,0.3c-1.8-7.2-8.2-12.5-15.9-12.5c-7.7,0-14.1,5.3-15.9,12.4
		c-0.8-0.2-1.6-0.3-2.4-0.3c-5.6,0-10.2,4.5-10.3,10.1c-0.6-0.2-1.2-0.3-1.8-0.3c-3.3,0-6,2.7-6,6c0,3,2.2,5.4,5,5.9v0.1h88.4v0
		C807.7,559.1,810.3,556.5,810.3,553.3z"/>
</g>
<g>
	<path fill="#E6E7E8" stroke="#E6E7E8" stroke-miterlimit="10" d="M985.5,143.7c0-3.3-2.7-6-6-6c-0.5,0-0.9,0.1-1.3,0.1
		c-0.2-5.5-4.7-10-10.3-10c-5.7,0-10.3,4.6-10.3,10.3c0,0.1,0,0.3,0,0.4c-0.9-0.6-2-0.9-3.1-0.9c-1.1,0-2.1,0.3-3,0.8
		c0-0.1,0-0.2,0-0.3c0-5.7-4.6-10.3-10.3-10.3c-0.9,0-1.7,0.1-2.6,0.3c-1.8-7.2-8.2-12.5-15.9-12.5c-7.7,0-14.1,5.3-15.9,12.4
		c-0.8-0.2-1.6-0.3-2.4-0.3c-5.6,0-10.2,4.5-10.3,10.1c-0.6-0.2-1.2-0.3-1.8-0.3c-3.3,0-6,2.7-6,6c0,3,2.2,5.4,5,5.9v0.1h88.4v0
		C983,149.6,985.5,146.9,985.5,143.7z"/>
</g>
<g>
	<path fill="#E6E7E8" stroke="#E6E7E8" stroke-miterlimit="10" d="M893,51.1c0-3.3-2.7-6-6-6c-0.5,0-0.9,0.1-1.3,0.1
		c-0.2-5.5-4.7-10-10.3-10c-5.7,0-10.3,4.6-10.3,10.3c0,0.1,0,0.3,0,0.4c-0.9-0.6-2-0.9-3.1-0.9c-1.1,0-2.1,0.3-3,0.8
		c0-0.1,0-0.2,0-0.3c0-5.7-4.6-10.3-10.3-10.3c-0.9,0-1.7,0.1-2.6,0.3c-1.8-7.2-8.2-12.5-15.9-12.5c-7.7,0-14.1,5.3-15.9,12.4
		c-0.8-0.2-1.6-0.3-2.4-0.3c-5.6,0-10.2,4.5-10.3,10.1c-0.6-0.2-1.2-0.3-1.8-0.3c-3.3,0-6,2.7-6,6c0,3,2.2,5.4,5,5.9V57h88.4v0
		C890.5,56.9,893,54.3,893,51.1z"/>
</g>
<g>
	<path fill="#E6E7E8" stroke="#E6E7E8" stroke-miterlimit="10" d="M413.2,44.3c0-3.3-2.7-6-6-6c-0.5,0-0.9,0.1-1.3,0.1
		c-0.2-5.5-4.7-10-10.3-10c-5.7,0-10.3,4.6-10.3,10.3c0,0.1,0,0.3,0,0.4c-0.9-0.6-2-0.9-3.1-0.9c-1.1,0-2.1,0.3-3,0.8
		c0-0.1,0-0.2,0-0.3c0-5.7-4.6-10.3-10.3-10.3c-0.9,0-1.7,0.1-2.6,0.3c-1.8-7.2-8.2-12.5-15.9-12.5c-7.7,0-14.1,5.3-15.9,12.4
		c-0.8-0.2-1.6-0.3-2.4-0.3c-5.6,0-10.2,4.5-10.3,10.1c-0.6-0.2-1.2-0.3-1.8-0.3c-3.3,0-6,2.7-6,6c0,3,2.2,5.4,5,5.9v0.1h88.4v0
		C410.7,50.1,413.2,47.5,413.2,44.3z"/>
</g>
<g>
	<path fill="#E6E7E8" stroke="#E6E7E8" stroke-miterlimit="10" d="M1058.8,90.1c0-3.3-2.7-6-6-6c-0.5,0-0.9,0.1-1.3,0.1
		c-0.2-5.5-4.7-10-10.3-10c-5.7,0-10.3,4.6-10.3,10.3c0,0.1,0,0.3,0,0.4c-0.9-0.6-2-0.9-3.1-0.9c-1.1,0-2.1,0.3-3,0.8
		c0-0.1,0-0.2,0-0.3c0-5.7-4.6-10.3-10.3-10.3c-0.9,0-1.7,0.1-2.6,0.3c-1.8-7.2-8.2-12.5-15.9-12.5c-7.7,0-14.1,5.3-15.9,12.4
		c-0.8-0.2-1.6-0.3-2.4-0.3c-5.6,0-10.2,4.5-10.3,10.1c-0.6-0.2-1.2-0.3-1.8-0.3c-3.3,0-6,2.7-6,6c0,3,2.2,5.4,5,5.9V96h88.4v0
		C1056.2,95.9,1058.8,93.3,1058.8,90.1z"/>
</g>
<g>
	<path fill="#E6E7E8" stroke="#E6E7E8" stroke-miterlimit="10" d="M911.3,242.5c0-3.3-2.7-6-6-6c-0.5,0-0.9,0.1-1.3,0.1
		c-0.2-5.5-4.7-10-10.3-10c-5.7,0-10.3,4.6-10.3,10.3c0,0.1,0,0.3,0,0.4c-0.9-0.6-2-0.9-3.1-0.9c-1.1,0-2.1,0.3-3,0.8
		c0-0.1,0-0.2,0-0.3c0-5.7-4.6-10.3-10.3-10.3c-0.9,0-1.7,0.1-2.6,0.3c-1.8-7.2-8.2-12.5-15.9-12.5c-7.7,0-14.1,5.3-15.9,12.4
		c-0.8-0.2-1.6-0.3-2.4-0.3c-5.6,0-10.2,4.5-10.3,10.1c-0.6-0.2-1.2-0.3-1.8-0.3c-3.3,0-6,2.7-6,6c0,3,2.2,5.4,5,5.9v0.1h88.4v0
		C908.8,248.3,911.3,245.7,911.3,242.5z"/>
</g>
<g>
	<path fill="#E6E7E8" stroke="#E6E7E8" stroke-miterlimit="10" d="M1072.2,216.3c0-3.3-2.7-6-6-6c-0.5,0-0.9,0.1-1.3,0.1
		c-0.2-5.5-4.7-10-10.3-10c-5.7,0-10.3,4.6-10.3,10.3c0,0.1,0,0.3,0,0.4c-0.9-0.6-2-0.9-3.1-0.9c-1.1,0-2.1,0.3-3,0.8
		c0-0.1,0-0.2,0-0.3c0-5.7-4.6-10.3-10.3-10.3c-0.9,0-1.7,0.1-2.6,0.3c-1.8-7.2-8.2-12.5-15.9-12.5c-7.7,0-14.1,5.3-15.9,12.4
		c-0.8-0.2-1.6-0.3-2.4-0.3c-5.6,0-10.2,4.5-10.3,10.1c-0.6-0.2-1.2-0.3-1.8-0.3c-3.3,0-6,2.7-6,6c0,3,2.2,5.4,5,5.9v0.1h88.4v0
		C1069.6,222.1,1072.2,219.5,1072.2,216.3z"/>
</g>
<g>
	<path fill="#E6E7E8" stroke="#E6E7E8" stroke-miterlimit="10" d="M992.9,320.4c0-3.3-2.7-6-6-6c-0.5,0-0.9,0.1-1.3,0.1
		c-0.2-5.5-4.7-10-10.3-10c-5.7,0-10.3,4.6-10.3,10.3c0,0.1,0,0.3,0,0.4c-0.9-0.6-2-0.9-3.1-0.9c-1.1,0-2.1,0.3-3,0.8
		c0-0.1,0-0.2,0-0.3c0-5.7-4.6-10.3-10.3-10.3c-0.9,0-1.7,0.1-2.6,0.3c-1.8-7.2-8.2-12.5-15.9-12.5c-7.7,0-14.1,5.3-15.9,12.4
		c-0.8-0.2-1.6-0.3-2.4-0.3c-5.6,0-10.2,4.5-10.3,10.1c-0.6-0.2-1.2-0.3-1.8-0.3c-3.3,0-6,2.7-6,6c0,3,2.2,5.4,5,5.9v0.1h88.4v0
		C990.4,326.2,992.9,323.6,992.9,320.4z"/>
</g>
<g>
	<path fill="#E6E7E8" stroke="#E6E7E8" stroke-miterlimit="10" d="M918.7,419.2c0-3.3-2.7-6-6-6c-0.5,0-0.9,0.1-1.3,0.1
		c-0.2-5.5-4.7-10-10.3-10c-5.7,0-10.3,4.6-10.3,10.3c0,0.1,0,0.3,0,0.4c-0.9-0.6-2-0.9-3.1-0.9c-1.1,0-2.1,0.3-3,0.8
		c0-0.1,0-0.2,0-0.3c0-5.7-4.6-10.3-10.3-10.3c-0.9,0-1.7,0.1-2.6,0.3c-1.8-7.2-8.2-12.5-15.9-12.5c-7.7,0-14.1,5.3-15.9,12.4
		c-0.8-0.2-1.6-0.3-2.4-0.3c-5.6,0-10.2,4.5-10.3,10.1c-0.6-0.2-1.2-0.3-1.8-0.3c-3.3,0-6,2.7-6,6c0,3,2.2,5.4,5,5.9v0.1H913v0
		C916.2,425,918.7,422.4,918.7,419.2z"/>
</g>
<g>
	<path fill="#E6E7E8" stroke="#E6E7E8" stroke-miterlimit="10" d="M1079.6,392.9c0-3.3-2.7-6-6-6c-0.5,0-0.9,0.1-1.3,0.1
		c-0.2-5.5-4.7-10-10.3-10c-5.7,0-10.3,4.6-10.3,10.3c0,0.1,0,0.3,0,0.4c-0.9-0.6-2-0.9-3.1-0.9c-1.1,0-2.1,0.3-3,0.8
		c0-0.1,0-0.2,0-0.3c0-5.7-4.6-10.3-10.3-10.3c-0.9,0-1.7,0.1-2.6,0.3c-1.8-7.2-8.2-12.5-15.9-12.5c-7.7,0-14.1,5.3-15.9,12.4
		c-0.8-0.2-1.6-0.3-2.4-0.3c-5.6,0-10.2,4.5-10.3,10.1c-0.6-0.2-1.2-0.3-1.8-0.3c-3.3,0-6,2.7-6,6c0,3,2.2,5.4,5,5.9v0.1h88.4v0
		C1077.1,398.7,1079.6,396.1,1079.6,392.9z"/>
</g>
<g>
	<path fill="#E6E7E8" stroke="#E6E7E8" stroke-miterlimit="10" d="M1009.3,480.8c0-3.3-2.7-6-6-6c-0.5,0-0.9,0.1-1.3,0.1
		c-0.2-5.5-4.7-10-10.3-10c-5.7,0-10.3,4.6-10.3,10.3c0,0.1,0,0.3,0,0.4c-0.9-0.6-2-0.9-3.1-0.9c-1.1,0-2.1,0.3-3,0.8
		c0-0.1,0-0.2,0-0.3c0-5.7-4.6-10.3-10.3-10.3c-0.9,0-1.7,0.1-2.6,0.3c-1.8-7.2-8.2-12.5-15.9-12.5c-7.7,0-14.1,5.3-15.9,12.4
		c-0.8-0.2-1.6-0.3-2.4-0.3c-5.6,0-10.2,4.5-10.3,10.1c-0.6-0.2-1.2-0.3-1.8-0.3c-3.3,0-6,2.7-6,6c0,3,2.2,5.4,5,5.9v0.1h88.4v0
		C1006.8,486.6,1009.3,484,1009.3,480.8z"/>
</g>
<g>
	<path fill="#E6E7E8" stroke="#E6E7E8" stroke-miterlimit="10" d="M935.1,579.6c0-3.3-2.7-6-6-6c-0.5,0-0.9,0.1-1.3,0.1
		c-0.2-5.5-4.7-10-10.3-10c-5.7,0-10.3,4.6-10.3,10.3c0,0.1,0,0.3,0,0.4c-0.9-0.6-2-0.9-3.1-0.9c-1.1,0-2.1,0.3-3,0.8
		c0-0.1,0-0.2,0-0.3c0-5.7-4.6-10.3-10.3-10.3c-0.9,0-1.7,0.1-2.6,0.3c-1.8-7.2-8.2-12.5-15.9-12.5c-7.7,0-14.1,5.3-15.9,12.4
		c-0.8-0.2-1.6-0.3-2.4-0.3c-5.6,0-10.2,4.5-10.3,10.1c-0.6-0.2-1.2-0.3-1.8-0.3c-3.3,0-6,2.7-6,6c0,3,2.2,5.4,5,5.9v0.1h88.4v0
		C932.6,585.4,935.1,582.8,935.1,579.6z"/>
</g>
<g>
	<path fill="#E6E7E8" stroke="#E6E7E8" stroke-miterlimit="10" d="M1096,553.3c0-3.3-2.7-6-6-6c-0.5,0-0.9,0.1-1.3,0.1
		c-0.2-5.5-4.7-10-10.3-10c-5.7,0-10.3,4.6-10.3,10.3c0,0.1,0,0.3,0,0.4c-0.9-0.6-2-0.9-3.1-0.9c-1.1,0-2.1,0.3-3,0.8
		c0-0.1,0-0.2,0-0.3c0-5.7-4.6-10.3-10.3-10.3c-0.9,0-1.7,0.1-2.6,0.3c-1.8-7.2-8.2-12.5-15.9-12.5c-7.7,0-14.1,5.3-15.9,12.4
		c-0.8-0.2-1.6-0.3-2.4-0.3c-5.6,0-10.2,4.5-10.3,10.1c-0.6-0.2-1.2-0.3-1.8-0.3c-3.3,0-6,2.7-6,6c0,3,2.2,5.4,5,5.9v0.1h88.4v0
		C1093.5,559.1,1096,556.5,1096,553.3z"/>
</g>
<g>
	<path opacity="0.4" fill="#231F20" d="M1117.3,298.6c0-0.3,0-0.6,0-1c0-0.4,0-0.7,0-1c-0.3-7.9-2.5-15.3-6.4-22.3
		c-3.1-51.4-6.8-103-14.9-153.9c-1.9-11.8-3.2-25.5-9-36.1c-5.7-10.6-20.8-13.3-31.5-15.3C1014,61,972.2,55,930.3,50.1
		c-66.3-7.7-134.5-13.6-201.1-5.9c-18.2,2.1-36.4,5.2-53.7,11.3c-12.9,4.5-25.2,10.6-34.6,20c-2-5-5.1-9.1-10.9-11.6
		c-7.3-3.2-15-4.9-22.8-6.4c-24.9-4.7-50.5-6.6-75.8-8c-64.1-3.6-129.1-3.2-192.9,3.7c-23.8,2.6-48.6,5.5-71.2,13.8
		c-7.3,2.7-15,6.1-20.5,11.7c-8.6,8.7-12.1,23.1-15.3,34.5c-5.8,20.2-9.7,41-13.2,61.7c-4.4,25.5-7.8,51.2-10.7,76.9
		c-20.1,4.9-39.7,21.5-45.7,40.8c-8,25.6,13.2,51.2,37.6,57.1c-2.8,52.4-3.9,105.6,3.2,157.7c2.4,17.6,5.8,35.8,14,51.8
		c5.1,9.9,12.9,16.4,22.8,21.1c22.8,10.7,48.7,14.9,73.5,18.5c34,4.9,68.4,7.4,102.8,8.7c35.1,1.4,70.3,1.4,105.4,0
		c28.1-1.1,56.3-3,84-7.9c8.2-1.5,16.5-3.2,24.2-6.2c3.8-1.5,7.3-3.1,10.4-5.8c4.7-3.9,7.5-10.1,9.5-16.6
		c26.2,27.5,66.4,41,102.3,49.2c54,12.4,109.8,12.2,164.8,8.6c27-1.8,53.9-4.8,80.5-9.6c21.2-3.8,42.4-8.8,62.4-16.8
		c14.2-5.7,28.9-12.9,38.4-25.3c7.7-10.1,9.9-24.2,11.8-36.3c5.2-32.6,6-66,6.3-99c0.5-41.9-0.7-83.8-2.6-125.6
		C1115.5,310.4,1117,304.7,1117.3,298.6z"/>
	<g>
		<g>
			<path fill="#631E3A" d="M1048.2,74.9c6.9,1.6,20.4,3.9,25.1,10.8c18.6,27.1,44.9,424.8,12.7,475.7
				c-21.4,33.8-129.8,52.7-242.2,52.1c-100.5-0.5-207.7-35-209.8-100.6c-3-94.4,0.6-174.5,0.6-174.5s-36.4-218.3,13-261.1
				C723.6,11.4,1048.2,74.9,1048.2,74.9z"/>
			<g>
				<path fill="#F7941E" d="M1043.3,252.8c-19.9,13.9-20.1,48.7-14.3,69.6c2.8,10.2,7.7,18.9,19.1,20.5
					c12.5,1.8,54.5-19.3,54.5-50.1S1063.4,238.7,1043.3,252.8z"/>
			</g>
			<g>
				<path fill="#D37C1E" d="M1035.9,257.3c-17.8,12.5-18,43.6-12.8,62.4c2.5,9.1,6.9,17,17.1,18.4c11.2,1.6,48.9-17.3,48.9-45
					S1054,244.6,1035.9,257.3z"/>
			</g>
			<g>
				<path fill="#FFCD8A" d="M654.3,491.8c-24.6,137,388.7,119.6,423.4,52.3c15.2-29.4,5.4-403.9-11.3-425.3S997.6,88,997.6,88"/>
				<g>
					<path fill="#FFCD8A" d="M653.5,491.5c-3.1,17.6,1.2,34.8,12.6,48.6c12.8,15.5,31.6,25.4,50,32.5c24,9.3,49.5,14.6,74.9,18.1
						c28.6,3.9,57.5,5.4,86.3,5.1c28.3-0.2,56.7-2.2,84.7-6.1c23.7-3.3,47.4-7.9,70.1-15.7c8.7-3,17.2-6.4,25.3-10.9
						c6.1-3.4,12.1-7.4,16.7-12.6c3.2-3.6,5.2-7.5,6.2-12.2c1.5-6.6,2.1-13.4,2.7-20.1c2-22.7,2.5-45.6,2.8-68.3
						c0.4-30.4,0.2-60.8-0.4-91.2c-0.6-32-1.6-64.1-3-96.1c-1.3-27.8-2.8-55.5-5.2-83.2c-1.5-17.4-2.8-35.4-6.9-52.5
						c-0.5-2.2-1.1-4.3-2-6.4c-1.4-3.4-4.4-6-7.2-8.3c-12.8-10.9-30.1-16.6-46.1-21c-5.7-1.6-11.4-3-17.2-4c-1-0.2-1.4,1.3-0.4,1.5
						c10.8,1.9,21.5,5,31.8,8.6c8.5,3,16.9,6.6,24.5,11.4c3.5,2.2,6.8,4.8,9.7,7.8c1.1,1.1,2.2,2.3,3,3.7c2.2,4.2,3,9.5,3.8,14.1
						c1.6,8.5,2.6,17,3.5,25.6c2.8,25.2,4.4,50.6,5.8,76c1.7,31.4,2.9,62.8,3.7,94.2c0.8,31.5,1.3,63,1.2,94.5
						c-0.1,25.6-0.4,51.3-1.8,76.9c-0.5,8.8-1.1,17.6-2.2,26.3c-0.6,5-1.2,10.4-3.1,15.1c-2,5.1-6.8,9.4-11.1,12.7
						c-6.4,4.9-13.7,8.6-21.1,11.8c-20.5,8.8-42.6,13.9-64.4,17.8c-27.3,4.9-55,7.5-82.7,8.6c-29.1,1.1-58.3,0.5-87.3-2.3
						c-26.6-2.6-53.3-7-78.9-15c-20.3-6.3-40.9-15.1-56.8-29.5c-13.1-11.9-21.4-27.8-20.8-45.7c0.1-3.1,0.4-6.2,1-9.3
						C655.2,491,653.7,490.5,653.5,491.5L653.5,491.5z"/>
				</g>
			</g>
			<g>
				<g>
					<path fill="#F7941E" d="M228.2,334.4c17.8-12.5,18-43.6,12.8-62.4c-2.5-9.1-6.9-17-17.1-18.4c-11.2-1.6-48.9,17.3-48.9,45
						C175,326.2,210.1,347.1,228.2,334.4z"/>
				</g>
				<g>
					<path fill="#F9AD5A" d="M219.6,325.7c9.6-6.8,9.7-23.6,6.9-33.8c-1.4-4.9-3.8-9.2-9.3-10c-6.1-0.9-26.4,9.4-26.4,24.3
						C190.9,321.2,209.9,332.5,219.6,325.7z"/>
				</g>
			</g>
			<path fill="#631E3A" d="M632.8,73.2c16.7,25,40.3,474.5,0.7,500.7c-38.4,25.4-338,26-394.2-14.7
				c-56.2-40.7-14.9-434.4,17.5-475.4S616.3,48.5,632.8,73.2z"/>
			<g>
				<path fill="#F9AD5A" d="M1077.2,533.4c-2.2,5.8-4.8,12.9-9.5,17.3c-1.8,1.6-4.2,2.7-6.3,3.7c-6.8,3-14.1,4.9-21.3,6.6
					c-10.4,2.5-20.9,4.3-31.4,5.9c-27.9,4.2-56.1,6.6-84.3,8c-32.3,1.6-64.6,1.9-96.9,0.4c-30.6-1.4-61.4-4.2-91.5-10.2
					c-22.5-4.5-46-10.6-65.7-22.9c1.8,1.8,3.7,3.6,5.8,5.4c10.8,5.7,22.8,9.7,34.2,13c27.7,8,56.5,11.8,85.2,14.3
					c32.3,2.8,64.7,3.4,97.1,2.8c30.2-0.6,60.4-2.4,90.4-5.8c21.9-2.4,44.1-5.4,65.4-11.3c6.1-1.7,12.4-3.6,17.8-6.8
					c3.6-2.1,5.9-5.5,7.9-9.1c3.1-5.8,5.4-12.1,7.5-18.4c0.3-2.3,0.5-4.7,0.8-7.4C1080.7,523.7,1079,528.6,1077.2,533.4z"/>
				<path fill="#F9AD5A" d="M1027.8,570c-24.1,4.7-48.5,7.3-72.9,9.3c-29.9,2.4-60,3.5-90,3.3c-30.5-0.2-61-1.6-91.3-5.2
					c-26-3.1-52.1-7.6-76.8-16.5c-0.5-0.2-1-0.4-1.5-0.5c3.2,1.7,6.5,3.4,10,5c0.6,0.2,1.2,0.4,1.7,0.5
					c25.9,7.8,52.9,11.8,79.8,14.5c30.6,3,61.4,4,92.2,3.8c29.5-0.2,59.1-1.6,88.5-4.4c23.1-2.1,46.2-4.9,68.8-9.9
					c4.4-1,8.8-2,13.1-3.2c3-1.4,5.8-2.9,8.5-4.3c-1.7,0.6-3.3,1.1-5,1.6C1044.5,566.5,1036.2,568.4,1027.8,570z"/>
				<path fill="#F9AD5A" d="M864.8,588.9c-30.5-0.2-61-1.6-91.3-5.2c-8.9-1.1-17.9-2.3-26.8-3.8c6.5,1.7,13.2,3.2,20.1,4.6
					c6.6,0.8,13.2,1.6,19.8,2.2c30.6,3,61.4,4,92.2,3.8c29.5-0.2,59.1-1.6,88.5-4.4c10.2-0.9,20.4-2,30.6-3.4
					c6.1-1.3,11.9-2.7,17.5-4.2c-20,3.3-40.3,5.4-60.5,7C924.9,588,894.8,589.1,864.8,588.9z"/>
				<path fill="#F9AD5A" d="M791.8,568.7c31.6,3.1,63.4,4,95.2,3.7c30-0.3,59.9-1.9,89.7-5c22.4-2.3,45-5.3,66.8-11
					c6.7-1.8,13.5-3.8,19.6-7c2.1-1.1,4.3-2.4,5.8-4.3c3.1-3.8,4.9-8.6,6.4-13.3c5-15.9,6.3-33,7.4-49.5c1.6-23.7,1.7-47.4,1.4-71.1
					c-0.7-51.4-4.2-102.7-7.7-154c-2.7-39.1-5.5-78.1-8.6-117.2c-0.4-4.8-0.8-9.7-1.2-14.5c-0.1-0.2-0.2-0.3-0.3-0.4
					c-0.5-0.6-0.9-1.2-1.5-1.7c1.7,21,3.3,41.9,4.9,62.9c3.5,46.7,6.8,93.5,9.5,140.3c2.9,50.5,5.2,101.4,2.2,152
					c-1,17.2-2.4,34.8-7.2,51.4c-1.4,4.9-3.2,10-6.4,14c-1.5,1.9-3.7,3.1-5.8,4.2c-6.2,3.2-13.2,5.2-19.9,7
					c-9.9,2.6-19.9,4.5-29.9,6.1c-26.9,4.4-54.1,6.7-81.3,8.2c-31.6,1.7-63.2,2-94.8,0.7c-30.5-1.2-61.1-3.9-91.2-9.3
					c-23.8-4.3-48.3-10.3-69.7-22c-5.7-3.1-11.1-6.7-16-11.1c0.8,1.5,1.7,3,2.7,4.4c13.4,10.8,30.7,17.1,46.8,21.9
					C735.7,561.9,763.9,566,791.8,568.7z"/>
				<path fill="#F9AD5A" d="M709.7,548c27.3,8.1,55.7,12.1,83.9,14.7c31.7,2.9,63.6,3.8,95.5,3.3c29.7-0.5,59.4-2.2,88.9-5.6
					c21.5-2.5,43.4-5.4,64.2-11.7c6-1.8,12.2-3.8,17.4-7.3c3.2-2.1,5.5-5.1,7.3-8.4c3.6-6.3,5.6-13.5,7.2-20.5
					c5.1-21.7,6.2-44.4,6.7-66.6c0.5-19.4,0.1-38.8-0.5-58.2c-1.2-40-3.6-79.9-6.5-119.7c-2.5-34.6-5.5-69.2-8.8-103.8
					c-1.4-15.1-2.9-30.2-4.5-45.3c-0.6-0.5-1.1-1-1.7-1.5c1.3,12.3,2.5,24.5,3.7,36.8c3.2,33,6.1,66.1,8.7,99.2
					c3.1,39.9,5.6,79.8,7.1,119.8c0.7,18.6,1.2,37.3,1.2,56c0,23.4-0.7,47-4.4,70.2c-1.3,8.5-3.1,17-6.1,25.1
					c-1.9,5.1-4.3,10.6-8.5,14.2c-4.3,3.7-10.1,5.6-15.4,7.4c-19.9,6.6-41.2,9.5-62,12.1c-29.1,3.6-58.5,5.4-87.8,6.1
					c-31.9,0.7-63.8,0.1-95.6-2.6c-28.8-2.4-57.7-6.3-85.5-14.1c-19.5-5.4-40.5-12.8-55.5-27l-2.8-0.7c0,0.1,0.1,0.2,0.1,0.3
					C670.1,534.6,690.6,542.3,709.7,548z"/>
				<path fill="#F9AD5A" d="M790.9,557.5c31.7,2.9,63.6,3.8,95.5,3.3c29.7-0.5,59.4-2.2,88.9-5.6c21.5-2.5,43.4-5.4,64.2-11.7
					c6-1.8,12.2-3.8,17.4-7.3c4.1-2.7,6.7-7,8.7-11.4c2.9-6.6,4.6-13.8,5.9-20.8c1.8-9.5,2.8-19.2,3.6-28.8c2-25,2.1-50.2,1.6-75.2
					c-0.5-29.1-1.9-58.3-3.8-87.3c-1.8-28.6-4.1-57.3-6.6-85.8c-2.1-23.6-4.4-47.2-6.9-70.8c-1.5-13.9-3-27.7-4.6-41.5
					c-0.6-0.4-1.1-0.8-1.7-1.2c0.7,5.6,1.3,11.2,1.9,16.8c2.2,19.3,4.2,38.6,6.1,57.9c2.6,26.6,5,53.2,7.1,79.9
					c2.3,29.4,4.2,58.8,5.5,88.3c1.2,27.7,2,55.4,1.4,83.1c-0.4,21.5-1.3,43.2-5.2,64.4c-1.3,7.1-3,14.2-5.9,20.8
					c-2,4.4-4.5,8.4-8.7,11c-5.5,3.5-12,5.5-18.2,7.2c-9.4,2.7-19.1,4.7-28.7,6.4c-26.5,4.6-53.3,7.1-80.1,8.7
					c-31.5,1.9-63.2,2.3-94.7,1.1c-30.7-1.2-61.4-3.8-91.6-9.3c-24-4.4-48.7-10.4-70.1-22.5c-2.7-1.5-5.3-3.2-7.9-4.9l-4.1-1
					c13.6,10.7,30.9,17,47.2,21.8C734.3,550.9,762.7,554.9,790.9,557.5z"/>
			</g>
			<path fill="#FFCD8A" d="M1041.4,91.7c16.7,23,53.8,418.1,14.2,442.2c-38.4,23.4-323.7,31-379.9-6.5c-6.9-4.6-18.5-2.4-22.4-15.9
				c-30.6-105.7-23.4-390.9,5.1-424.1C690.8,49.6,1024.9,69,1041.4,91.7z"/>
			<path fill="#F9AD5A" d="M1061.2,401.5c0,0,5.8,56-6.6,72.6c-12.3,16.6-72.8,66-72.8,66c-32.4,3.9-236.2,23.2-308.8-29.3
				C660,483.7,653.2,419,653.2,419"/>
			<path fill="#FFCD8A" d="M257.1,93c-16.1,24.1-47.4,430.5-9.3,455.8c22.9,15.2,137.3,30.4,232.8,29.3
				c58.9-0.7,108-13.6,128.6-28.6c54.1-39.3,47.9-421.5,16.7-461.1S273,69.2,257.1,93z"/>
			<g>
				<path fill="#F9AD5A" d="M518.9,572.1c-8.7,0.7-17.5,1.2-26.3,1.6C501.6,573.4,510.4,572.9,518.9,572.1z"/>
				<path fill="#F9AD5A" d="M521.3,557.6c-32.3,2.6-64.7,3.2-97.1,2.5c-30-0.7-60.1-2.6-89.9-6c-21.6-2.5-43.5-5.4-64.4-11.5
					c-5.7-1.6-11.7-3.5-16.7-6.8c-4.4-2.9-6.7-8.6-8.8-13.3c-2.1-4.8-3.9-9.7-5.5-14.7c0.3,2.7,0.7,5.3,1,7.7
					c0.3,0.8,0.6,1.6,0.9,2.4c2.3,5.9,4.8,12.5,9.2,17.2c1.8,1.9,4.2,3.2,6.5,4.3c6.5,3.1,13.5,5,20.5,6.7
					c10.1,2.5,20.4,4.3,30.7,5.9c27.4,4.3,55.1,6.7,82.8,8.2c32.2,1.8,64.5,2.1,96.7,0.9c30.7-1.2,61.5-3.8,91.8-9.5
					c9.7-1.8,19.6-3.9,29.2-6.6c0.7-0.8,1.4-1.6,2.1-2.4c-1,0.3-1.9,0.6-2.9,0.8C579.3,551.4,550.2,555.2,521.3,557.6z"/>
				<path fill="#F9AD5A" d="M437.9,566.7c-29.4-0.3-58.8-1.8-88.1-4.6c-15.1-1.4-30.2-3.2-45.3-5.6c8.8,1.9,18.2,3.7,28.2,5.5
					c10.1,1.2,20.1,2.1,30.2,2.9c29.9,2.4,59.9,3.6,89.9,3.5c30.5-0.1,61.1-1.5,91.5-5c16.4-1.9,32.9-4.4,49-8.1
					c1.2-0.6,2.4-1.1,3.6-1.7c0.9-0.4,1.8-0.9,2.6-1.4c-22.7,5.7-46.1,8.9-69.3,11.1C499.5,566.1,468.7,567,437.9,566.7z"/>
				<path fill="#F9AD5A" d="M437.9,573c-2.7,0-5.4-0.1-8.1-0.1c21.2,1.2,42.5,1.6,62.9,0.8c8.8-0.4,17.5-0.9,26.3-1.6
					c14.1-1.3,27.5-3.2,39.8-5.9c-9.5,1.3-19,2.4-28.5,3.3C499.5,572.5,468.7,573.4,437.9,573z"/>
				<path fill="#F9AD5A" d="M525.4,551.5c-31.6,2.9-63.3,3.8-95,3.4c-29.8-0.4-59.6-2-89.2-5.1c-22.2-2.4-44.6-5.3-66.2-11.2
					c-6.4-1.8-13-3.7-18.9-7c-2.5-1.4-4.3-2.9-5.9-5.3c-3-4.7-4.7-10.2-6-15.5c-4.4-17.4-5.6-35.7-6.5-53.5
					c-1.2-24.3-1.2-48.7-0.6-73c1.2-54,5-108,8.2-162c0.1-1.9,0.2-3.9,0.3-5.8c-6.3,73.5-10.7,167.1-9.8,234.3
					c0.6,15,1.6,30,3.9,44.9c1.1,7.1,2.4,14.3,4.6,21.2c1.5,4.5,3.3,9.2,6.5,12.9c3.4,3.9,9.6,6,14.3,7.6c18.7,6.7,39,9.5,58.6,12.1
					c28.4,3.7,56.9,5.7,85.5,6.7c31.7,1.1,63.5,0.8,95.2-1.3c29.3-1.9,58.7-5.2,87.4-11.8c7.4-1.7,14.9-3.6,22.3-5.9
					c0.4-0.7,0.8-1.4,1.2-2.2c-2.1,0.7-4.2,1.3-6.3,1.9C581.8,544.9,553.5,548.9,525.4,551.5z"/>
				<path fill="#F9AD5A" d="M523.7,545.5c-31.6,2.8-63.4,3.6-95.2,3c-29.5-0.5-59-2.3-88.3-5.7c-21.3-2.5-43-5.5-63.5-11.8
					c-5.7-1.8-11.8-3.8-16.7-7.3c-3.6-2.6-5.9-6.6-7.8-10.6c-3.4-7.2-5.2-15.2-6.7-23c-4.5-23.1-5.3-47.1-5.5-70.6
					c-0.1-20,0.2-39.9,0.8-59.9c1.3-41.5,3.7-82.9,6.6-124.3c2.2-31.4,4.7-62.9,7.6-94.3c0.6-7,1.3-14,2-21
					c-1.3,6.7-2.6,14.8-3.8,24.2c-0.5,5.6-1,11.2-1.5,16.8c-3.1,35.5-5.7,71-8,106.6c-2.6,41.6-4.6,83.3-5.2,125
					c-0.3,22.7-0.3,45.4,1.6,68.1c0.8,10.3,2.1,20.6,4.1,30.8c1.5,7.6,3.4,15.2,6.7,22.3c1.9,4.1,4.3,8.1,7.9,10.9
					c2,1.5,4.3,2.7,6.6,3.8c6.9,3.1,14.4,5.2,21.8,7c23,5.6,46.6,8.5,70.1,10.7c30.3,2.8,60.8,4.1,91.2,4.1
					c31.5,0,63.1-1.5,94.4-5.2c25.3-3,50.7-7.3,74.9-15.5c0.2-0.6,0.5-1.2,0.7-1.9c-3.5,1.2-6.9,2.2-10.4,3.2
					C580.7,539,552.1,542.9,523.7,545.5z"/>
				<path fill="#F9AD5A" d="M612.2,525.4c-26.7,7.9-54.6,12-82.4,14.6c-31,2.9-62.2,3.8-93.4,3.4c-29.3-0.4-58.5-2-87.6-5.1
					c-21.8-2.4-43.9-5.3-65.1-11.2c-6.4-1.8-12.9-3.8-18.6-7c-4.2-2.4-6.9-5.8-9-10.1c-3-6.2-4.7-13-6-19.7
					c-1.8-9.2-2.8-18.5-3.5-27.9c-1.9-24.3-1.7-48.7-1.1-73.1c0.8-28.5,2.5-56.9,4.6-85.3c2.1-28.1,4.7-56.2,7.6-84.2
					c2.4-23.3,5-46.6,7.8-69.9c1.7-14.1,3.5-28.2,5.4-42.2c0.3-2.1,0.6-4.3,0.9-6.4c0.1-1-1.4-1.4-1.5-0.4c-1,7.3-2,14.5-2.9,21.8
					c-2.4,18.8-4.7,37.6-6.8,56.4c-3,26-5.7,52-8.1,78c-2.6,28.7-4.9,57.5-6.6,86.3c-1.6,27.1-2.6,54.2-2.4,81.4
					c0.2,21,0.9,42.4,4.5,63.1c1.3,7,2.9,14.1,5.7,20.7c1.9,4.5,4.5,8.7,8.5,11.5c4.9,3.4,11,5.4,16.6,7.2
					c8.8,2.7,17.8,4.7,26.8,6.4c25,4.7,50.5,7.3,75.9,9c30.6,2.1,61.3,2.8,91.9,2c30.3-0.7,60.7-2.9,90.8-7.5
					c18.6-2.8,37.3-6.6,55.2-12.5c0.2-0.6,0.4-1.3,0.6-1.9C617.4,523.8,614.8,524.6,612.2,525.4z"/>
			</g>
		</g>
		<path fill="#FCDDB9" d="M1031.1,103.7c12.3,16.9,36.1,245.4,28.7,357.7l-82.1,73.9c-94.1,9.3-252.9,6.5-292.3-19.8
			c-6.5-4.3-17.5-2.2-21.2-15.1c-28.9-99.9-22.1-369.5,4.8-400.9C699.7,63.8,1015.5,82.2,1031.1,103.7z"/>
		<path fill="#FCDDB9" d="M279.2,103.7c-14.7,21.8-47.3,395.1-12.5,417.9c33.7,22.1,284.4,29.3,333.7-6.2c6-4.3,16.3-2.2,19.7-15.1
			c26.9-99.9,20.5-369.5-4.5-400.9C587.2,63.8,293.6,82.2,279.2,103.7z"/>
		<path fill="#FFCD8A" d="M988.7,464.7c0,0-15.4,70.8-11,70.3l81.8-73.6C1058.7,459.7,988.7,464.7,988.7,464.7z"/>
		<path fill="#F9E5D2" d="M991.9,471c0,0-18.5,64.4-14.1,64l82.1-73.6C1059,459.7,991.9,471,991.9,471z"/>
	</g>
</g>
<g>
	<g>
		<path fill="#E6E7E8" stroke="#E6E7E8" stroke-miterlimit="10" d="M293.9,106.6c0-3.3-2.7-6-6-6c-0.5,0-0.9,0.1-1.3,0.1
			c-0.2-5.5-4.7-10-10.3-10c-5.7,0-10.3,4.6-10.3,10.3c0,0.1,0,0.3,0,0.4c-0.9-0.6-2-0.9-3.1-0.9c-1.1,0-2.1,0.3-3,0.8
			c0-0.1,0-0.2,0-0.3c0-5.7-4.6-10.3-10.3-10.3c-0.9,0-1.7,0.1-2.6,0.3c-1.8-7.2-8.2-12.5-15.9-12.5c-7.7,0-14.1,5.3-15.9,12.4
			c-0.8-0.2-1.6-0.3-2.4-0.3c-5.6,0-10.2,4.5-10.3,10.1c-0.6-0.2-1.2-0.3-1.8-0.3c-3.3,0-6,2.7-6,6c0,3,2.2,5.4,5,5.9v0.1h88.4v0
			C291.3,112.4,293.9,109.8,293.9,106.6z"/>
	</g>
	<g>
		<path fill="#E6E7E8" stroke="#E6E7E8" stroke-miterlimit="10" d="M131.9,86.3c0-3.3-2.7-6-6-6c-0.5,0-0.9,0.1-1.3,0.1
			c-0.2-5.5-4.7-10-10.3-10c-5.7,0-10.3,4.6-10.3,10.3c0,0.1,0,0.3,0,0.4c-0.9-0.6-2-0.9-3.1-0.9c-1.1,0-2.1,0.3-3,0.8
			c0-0.1,0-0.2,0-0.3c0-5.7-4.6-10.3-10.3-10.3c-0.9,0-1.7,0.1-2.6,0.3c-1.8-7.2-8.2-12.5-15.9-12.5c-7.7,0-14.1,5.3-15.9,12.4
			c-0.8-0.2-1.6-0.3-2.4-0.3c-5.6,0-10.2,4.5-10.3,10.1c-0.6-0.2-1.2-0.3-1.8-0.3c-3.3,0-6,2.7-6,6c0,3,2.2,5.4,5,5.9v0.1h88.4v0
			C129.4,92.1,131.9,89.5,131.9,86.3z"/>
	</g>
	<path fill="#FFFFFF" d="M282.9,80.5c-5.5-1.4-10.7-1.6-16-0.9c0.4-2.1,0.4-4.1,0.1-6.3c-0.3-2.2-1.4-4.2-3-5.8
		c2.9-4.2,4.1-9.5,4-15c0-0.3,0-0.6,0-1c-0.7-8-3-17.6-10.4-22c-7.1-4.2-18.7,1.6-25.1,4.7c0,0,0,0-0.1,0
		c-6.7,3.4-13.3,8.1-14.7,15.1c-3.8-1-7.7-0.9-11.8,1.5c-6.7,3.8-9.2,12.7-10.3,19.7c-0.1,0.8-0.2,1.5-0.1,2.2
		c0-0.1-0.1-0.1-0.1-0.2c-0.9,7-2.3,16,5.4,19.7c4.8,2.3,10.6,2.2,16,1.4c0.9,3,1.7,6,2.2,9.1c0,0,0,0,0,0c0,0.2,0,0.4,0,0.6
		c0,0.1,0,0.2,0,0.3c0,0.4,0,0.8,0.1,1.1c0,0.4,0.1,0.7,0.2,1.1c0,0.1,0,0.1,0,0.2c0.3,1.1,0.8,2,1.5,2.9c1.4,2.7,3.7,4.6,7.6,4.8
		c3.2,0.2,5.7-0.9,7.5-2.7c1.5,0.7,3.2,1.1,5.1,1c0.7-0.1,1.4-0.2,2-0.5c0,0.1,0,0.1,0,0.2c4-1.5,7.2-4.5,7.8-8.5
		c1.8,1.1,3.9,1.8,6.1,2.2c-0.2,4.9,4.1,8.4,8.5,10c4.5,1.7,9.7,1,14-0.9c3.8-1.7,5.1-5.2,5.1-8.9c7.7-0.9,16-3.1,18-10.1
		C305.7,85,290,82.3,282.9,80.5z"/>
	<g>
		<g>
			<polygon opacity="0.5" points="285.6,87.8 225.3,66.8 194.9,65.3 154.1,44.7 135.4,46.6 92.8,38.3 62.7,45.5 46,62.5 30.6,90.3 
				28.5,106.5 48.5,133 226.3,149.9 272.4,146.5 294.8,132.1 301.2,120.8 			"/>
			<path fill="#FFFFFF" d="M117.6,52.4c3.9-8.2,0.3-18.8-8.1-22.9c-3.4-10.9-17.8-15.6-27.1-8.9c-5.8-3.8-13.8-4.3-20-0.2
				c-4.4-3-10.1-4-15.7-2.1c-7.6,2.6-11.3,9.2-11.3,16.2c-8,5.4-10.2,16.8-4,24.7c0.6,7.9,6.1,14.3,13.5,16c0,0.1,0,0.2,0,0.3
				c-3.7,2.7-7.3,5.3-11,8c-5.8,4.2-4.2,14,3.8,14c2,0,4,0,5.9,0c3,0,5-1.9,7-3.8c0,0,0,0,0,0c1.1,2.2,3.2,3.8,6.5,3.8
				c2,0,4,0,5.9,0c3,0,5-1.9,7-3.8c0.2-0.1,0.3-0.3,0.5-0.4c1,2.4,3.2,4.2,6.7,4.2c4.1,0,8.2,0.6,11.5-2.4c3-2.7,5.9-5.4,8.9-8.1
				c2.8-2.5,5-4.5,5.1-8.6c4.9,0.1,9.8-1.8,13.4-5.8C121.6,66.6,121.4,58.6,117.6,52.4z"/>
			<path fill="#FFFFFF" d="M293.8,95.7c-2.7-6.2-5.4-12.3-8.1-18.5c-0.4-1-1.2-1.3-1.9-1.3c-10.5-3.7-21-7.3-31.5-11
				c-6.8-2.4-13.7-4.8-20.5-7.1c-2.6-0.9-5.4-2.3-8.1-2.5c-6.8-0.3-13.7-0.7-20.5-1c-2.7-0.1-5.3-0.3-8-0.4c0,0,0,0,0,0
				c-0.6-0.3-1.2-0.6-1.7-0.9c-12.1-6.1-24.1-12.2-36.2-18.3c-4-2-8.7-0.5-13-0.1c-2.6,0.3-5.2,0.5-7.9,0.8c0.5-0.1-0.3,0-0.7-0.1
				c-1.1-0.2-2.3-0.4-3.4-0.7c-12.4-2.4-24.8-4.9-37.3-7.3c-1.4-0.3-3,0.4-4.3,0.7c-3.6,0.9-7.3,1.7-10.9,2.6
				c-3.6,0.9-7.2,1.7-10.8,2.6c-1.7,0.4-4,0.5-5.6,1.5c-1.6,0.9-2.9,2.8-4.2,4.1c-2.8,2.9-5.7,5.7-8.5,8.6c-3.1,3.1-5,5.5-7.1,9.3
				c-3.6,6.6-7.3,13.2-10.9,19.7C30.2,81,30,85,29.3,90c-0.3,2.1-1.4,5.4-0.8,7.6c0.4,1.6,2.2,3.2,3.2,4.5
				c4.6,6.1,9.1,12.2,13.7,18.2c1,1.3,2,2.6,3,3.9c1.5,1.9,4.6,1.2,6.8,1.1c4.9-0.1,11.9,1.3,16-1.8c2.8-2,5.5-4.1,8.3-6.1
				c1.3-0.9,0.2-0.5,1.8-0.7c0.9-0.1,1.8-0.3,2.7-0.4c0.4-0.1,0.7-0.1,1-0.1c4.7,3.5,9.5,7,14.2,10.6c1.6,1.2,4.3,0.8,6.1,0.8
				c4.4,0.1,8.8,0.3,13.3,0.4c0.3,0,0.6,0,0.8,0c1.3,0.7,2.5,1.4,3.8,2.1c4,2.2,8.1,4.5,12.1,6.7c5.4,3,82.1,10.6,85.7,10.9
				c2,0.1,4.9,0.9,6.9,0.3c6.1-1.9,12.3-3.8,18.4-5.6c4.6-1.4,9.4-1.7,14.2-2.3c4.4-0.6,9.4-0.4,13.2-2.9c6.3-4,12.6-8.1,18.8-12.1
				c4.5-2.9,4.3-10.9,5.4-15.7C298.9,104.5,295.8,100.3,293.8,95.7z M85.2,116.3C85.8,116.3,85.6,116.4,85.2,116.3L85.2,116.3z"/>
			<polygon fill="#ADC136" points="66.8,41.1 94.2,34.5 135.7,42.6 153.5,40.8 193.2,60.9 223.4,62.4 280.2,82.2 291.2,107 
				288.5,119.4 269,132 247,135 226.5,141.3 217.6,141.3 203.9,134.7 193.2,134.7 174.7,138.6 160.3,133.5 142.9,133.2 121.3,121.2 
				102.4,120.6 86.7,108.9 77.4,110.4 66.8,118.2 52.7,118.5 35.6,95.7 37.3,82.5 51.7,56.4 			"/>
			<polygon opacity="0.2" fill="#E6E7E8" points="192.7,59.4 167.2,138.2 190.2,141.6 215.5,62.1 			"/>
			<polygon opacity="0.2" fill="#E6E7E8" points="247.6,68.6 225,144.5 248,139.4 268.5,74.6 			"/>
			<polygon opacity="0.2" fill="#E6E7E8" points="94.1,29.9 61,119.2 88.9,112.3 118.8,35.6 			"/>
			<polygon opacity="0.2" fill="#E6E7E8" points="151.4,38.6 119.8,123.9 141.3,134.5 173,48.4 			"/>
		</g>
		<g>
			<g>
				
					<ellipse transform="matrix(0.9959 -9.024590e-02 9.024590e-02 0.9959 -5.9385 11.5401)" fill="#286784" cx="124.6" cy="71.4" rx="13" ry="7.2"/>
				
					<ellipse transform="matrix(0.9959 -9.024590e-02 9.024590e-02 0.9959 -6.2331 13.0433)" fill="#286784" cx="141.1" cy="75.4" rx="10.1" ry="5.5"/>
				
					<ellipse transform="matrix(0.9959 -9.024590e-02 9.024590e-02 0.9959 -5.4411 12.8436)" fill="#286784" cx="139.3" cy="66.6" rx="9.1" ry="5.7"/>
				
					<ellipse transform="matrix(0.9959 -9.024590e-02 9.024590e-02 0.9959 -5.7802 14.1679)" fill="#286784" cx="153.8" cy="71" rx="12" ry="7"/>
			</g>
			<g>
				
					<ellipse transform="matrix(0.9959 -9.024590e-02 9.024590e-02 0.9959 -6.1129 11.5639)" fill="#4997B2" cx="124.8" cy="73.4" rx="13" ry="7.2"/>
				
					<ellipse transform="matrix(0.9959 -9.024590e-02 9.024590e-02 0.9959 -6.4075 13.067)" fill="#4997B2" cx="141.3" cy="77.4" rx="10.1" ry="5.5"/>
				
					<ellipse transform="matrix(0.9959 -9.024590e-02 9.024590e-02 0.9959 -5.6154 12.8674)" fill="#4997B2" cx="139.5" cy="68.5" rx="9.1" ry="5.7"/>
				
					<ellipse transform="matrix(0.9959 -9.024590e-02 9.024590e-02 0.9959 -5.9546 14.1917)" fill="#4997B2" cx="154" cy="72.9" rx="12" ry="7"/>
			</g>
		</g>
		<g>
			<g>
				
					<ellipse transform="matrix(0.9959 -9.024590e-02 9.024590e-02 0.9959 -5.5896 17.2471)" fill="#286784" cx="187.9" cy="70.4" rx="12" ry="6.9"/>
				
					<ellipse transform="matrix(0.9959 -9.024590e-02 9.024590e-02 0.9959 -5.6629 18.6383)" fill="#286784" cx="203.3" cy="71.9" rx="12" ry="6.9"/>
				
					<ellipse transform="matrix(0.9959 -9.024590e-02 9.024590e-02 0.9959 -6.4449 17.8868)" fill="#286784" cx="194.6" cy="80.2" rx="12" ry="6.9"/>
				
					<ellipse transform="matrix(0.9959 -9.024590e-02 9.024590e-02 0.9959 -6.7528 19.0671)" fill="#286784" cx="207.5" cy="84.2" rx="12" ry="6.9"/>
			</g>
			<g>
				
					<ellipse transform="matrix(0.9959 -9.024590e-02 9.024590e-02 0.9959 -5.778 17.1516)" fill="#4997B2" cx="186.8" cy="72.5" rx="12" ry="6.9"/>
				
					<ellipse transform="matrix(0.9959 -9.024590e-02 9.024590e-02 0.9959 -5.8513 18.5428)" fill="#4997B2" cx="202.1" cy="74" rx="12" ry="6.9"/>
				
					<ellipse transform="matrix(0.9959 -9.024590e-02 9.024590e-02 0.9959 -6.6333 17.7914)" fill="#4997B2" cx="193.4" cy="82.2" rx="12" ry="6.9"/>
				
					<ellipse transform="matrix(0.9959 -9.024590e-02 9.024590e-02 0.9959 -6.9412 18.9717)" fill="#4997B2" cx="206.3" cy="86.2" rx="12" ry="6.9"/>
			</g>
		</g>
		<path fill="#F1F2F2" d="M164.8,70.1c0-2.9,11.6-5.9,12.7,0.4c-1,2.3-2,4.4-2,4.4s-1.4-4.1-5.5-3.8s-6.1,5.5-6.1,5.5L164.8,70.1z"
			/>
	</g>
	<g>
		<g>
			<g>
				<path opacity="0.4" fill="#231F20" d="M235,95.9c-30,2.2-33.1,14.7,2.2,13.6S257.5,94.2,235,95.9z"/>
				<path opacity="0.4" fill="#231F20" d="M274.8,104.4c-26.3,1.2-28.9,7.7,1.9,7.2C307.5,111,294.4,103.5,274.8,104.4z"/>
				<path fill="#FFFFFF" d="M245.9,49.2c-0.4-0.7-1.4-1-2.2-0.6c-2.2,1.4-3.7,3.6-5,5.8c-1.4,2.4-2.8,4.9-3.8,7.5
					c-2.2,5.2-3.6,10.7-4.5,16.2c-0.6,3.8-1,7.6-0.9,11.4c0,2.1,0.3,4.1,0.6,6.2c0.1,0.9,0.3,1.7,0.6,2.5c0.1,0.4,0.2,0.8,0.4,1.2
					c0.1,0.2,0.1,0.3,0.2,0.5c0.2,0.8,0.6,1.4,1.1,2c1.1,1.2,3.3,1.5,4.6,0.6c0.8-0.5,1.6-1.3,1.8-2.3c0.1-0.8,0.2-1.7-0.2-2.4
					c-0.1-0.1-0.1-0.3-0.2-0.4c-0.1-0.3-0.3-0.5-0.4-0.8c-0.7-1.8-1.1-3.8-1.4-5.7c-0.6-5.3-0.3-10.8,0.4-16.1
					c0.6-4.7,1.7-9.2,3.3-13.7c0.2-0.5,0.4-1.1,0.6-1.6c0.1-0.3,0.2-0.5,0.3-0.8c0,0,0,0,0-0.1c0-0.1,0.1-0.2,0.1-0.3
					c0.4-0.9,0.8-1.8,1.2-2.7c0.4-0.9,0.9-1.8,1.5-2.7c0.1-0.2,0.3-0.4,0.4-0.6c0,0,0.1-0.1,0.1-0.1c-0.1,0.1,0.1-0.2,0.2-0.2
					c0.3-0.4,0.7-0.7,1.1-1.1C246.2,50.6,246.2,49.7,245.9,49.2z"/>
				<path fill="#A7A9AC" d="M230.1,95.8c0.1,0.9,0.3,1.7,0.6,2.5c0.1,0.4,0.2,0.8,0.4,1.2c0.1,0.2,0.1,0.3,0.2,0.5
					c0.2,0.8,0.6,1.4,1.1,2c0.1,0.1,0.2,0.2,0.3,0.2c0.2,0,0.3,0.1,0.4,0.3l0,0c0.2,0.1,0.4,0.2,0.7,0.3l0,0
					c1.9,0.3-0.1-2.7-0.5-5.8c-0.8-5.9,0.1-31,3.1-34.9c0,0,0.5-2.3,0.6-4.5c-0.1,0.2-0.2,0.3-0.3,0.5c0,0,0,0,0,0
					c-0.1,0.1-0.2,0.3-0.2,0.5c0,0,0,0.1,0,0.1c-0.1,0.1-0.1,0.3-0.2,0.4c0,0,0,0.1-0.1,0.1c-0.1,0.1-0.1,0.3-0.2,0.4
					c0,0,0,0.1-0.1,0.1c-0.1,0.1-0.1,0.2-0.2,0.4c0,0.1,0,0.1-0.1,0.2c-0.1,0.1-0.1,0.2-0.2,0.3c0,0.1,0,0.1-0.1,0.2
					c-0.1,0.1-0.1,0.2-0.2,0.4c0,0.1,0,0.1-0.1,0.2c-0.1,0.2-0.1,0.3-0.2,0.5c-2.2,5.2-3.6,10.7-4.5,16.2c-0.6,3.8-1,7.6-0.9,11.4
					C229.5,91.7,229.7,93.7,230.1,95.8z"/>
				<path fill="#A7A9AC" d="M237.4,56.8c-0.9,1.6-1.7,3.2-2.4,4.8c0.9,1.7,2.4,3.8,3.8,4.1c0.4-1.5,0.9-3,1.4-4.5
					c0.2-0.5,0.4-1.1,0.6-1.6c0.1-0.2,0.2-0.5,0.3-0.7L237.4,56.8z"/>
				<g>
					<path fill="#FFFFFF" d="M253.1,75c-1.2-0.8-3.2,0-4.3,0.7c-1.1,0.6-2.2,1.4-3.1,2.4c-1.8,1.8-3.3,3.9-4.6,6
						c-0.9,1.5-1.7,3-2.4,4.6c-0.9,2.1-1.7,4.1-2.1,6.4c-0.2,0.8-0.3,1.6-0.3,2.5c-0.1,0.8,0,1.7,0.2,2.5c0.3,1.9,1.4,4.1,3.4,4.5
						c0.8,0.2,1.6,0.1,2.4-0.3c0.9-0.5,1.7-1.6,1.5-2.7c0-0.3,0-0.8-0.1-1.1c-0.1-0.3-0.3-0.7-0.4-1c-0.1-0.3-0.3-0.5-0.4-0.7
						c0.1,0.3,0.2,0.5,0.3,0.8c-0.2-0.5-0.3-1-0.4-1.5c0,0.3,0.1,0.6,0.1,0.9c-0.1-1-0.1-2,0.1-2.9c0,0.3-0.1,0.6-0.1,0.9
						c0.3-2.4,1.1-4.7,2-6.9c-0.1,0.2-0.2,0.5-0.3,0.7c1-2.4,2.3-4.7,3.7-6.9c0.2-0.3,0.4-0.6,0.6-0.9c0.1-0.2,0.2-0.3,0.3-0.5
						c0.4-0.6-0.3,0.4,0,0c0.5-0.6,1-1.2,1.5-1.8c0.5-0.6,1.1-1,1.6-1.6c0.6-0.7,1.4-1.1,1.6-2C254,76.1,253.7,75.4,253.1,75
						L253.1,75z"/>
				</g>
				<path fill="#A7A9AC" d="M243.7,80.3c-0.9,1.2-1.8,2.5-2.6,3.7c0,0,0,0,0,0c1,2,2.3,4.5,3.8,5.7c0.6-1.3,1.2-2.5,1.9-3.7
					C245.8,84.1,244.6,81.9,243.7,80.3z"/>
				<g>
					<path fill="#FFFFFF" d="M217.3,75.5c0.2,0.2-0.3-0.3-0.1-0.1C217.2,75.4,217.3,75.5,217.3,75.5C217.5,75.8,217,75.2,217.3,75.5
						c0,0,0,0.1,0.1,0.1c0.1,0.1,0.2,0.2,0.3,0.3c-0.2-0.3-0.3-0.4-0.2-0.2c0,0,0.1,0.1,0.1,0.1c0.1,0.1,0.1,0.2,0.2,0.2
						c0.1,0.2,0.3,0.4,0.4,0.6c0.6,1.1,1.2,2.3,1.7,3.4c0.3,0.7,0.7,1.4,1,2.2c0,0.1,0.1,0.2,0.1,0.3c0.2,0.4-0.2-0.6-0.1-0.2
						c0.1,0.2,0.2,0.4,0.2,0.6c0.2,0.4,0.3,0.8,0.5,1.3c0.7,1.7,1.3,3.5,1.9,5.2c1.3,3.6,2.4,7.4,2.9,11.2c0-0.3-0.1-0.5-0.1-0.8
						c0.1,0.6,0.2,1.1,0.2,1.7c0-0.3-0.1-0.5-0.1-0.8c0.1,1.1,0.2,2.2,0.3,3.2c0-0.2-0.1-0.5-0.1-0.7c0,0.1,0,0.2,0,0.3
						c0.1,1.2,0.7,2.3,2,2.6c1.4,0.4,2.9-0.5,3.3-1.9c0.5-1.6,0.2-3.4,0-5c-0.3-1.6-0.7-3.2-1.2-4.7c-1.1-3.7-2.5-7.4-4.2-10.9
						c-1.2-2.5-2.4-4.9-4-7.2c-0.6-0.9-1.3-1.7-2.1-2.5c-0.1-0.1-0.3-0.2-0.4-0.3c-0.1-0.1-0.3-0.2-0.4-0.3c0.6,0.5,0.1,0-0.1-0.1
						c-0.1,0-0.1-0.1-0.2-0.1c-0.5-0.2-0.9-0.4-1.4-0.4C216.5,72.8,216.2,74.8,217.3,75.5L217.3,75.5z"/>
				</g>
				<path fill="#C563AE" d="M253.9,36c5.9,2.9,10.7,22.8,2.1,29.6s-13.8-0.4-17.3-5.3s-12.5,1-13.9-8.4
					C223.6,43.7,249.8,34,253.9,36z"/>
				<path fill="#A7A9AC" d="M226.5,83.7c-0.8-1.7-1.7-3.4-2.6-5.1l-3,4.1c0,0.1,0.1,0.2,0.1,0.3c0.2,0.4,0.3,0.8,0.5,1.3
					c0.3,0.9,0.7,1.7,1,2.6c2,0,3.9-0.1,5.2-0.5C227.4,85.5,227,84.6,226.5,83.7z"/>
				<path fill="#C563AE" d="M202.3,82.8c0-15.2,4.3-34.8,19.8-23.3s20.8,17.9,13,21.6S202.3,90.2,202.3,82.8z"/>
				<path fill="#C563AE" d="M247.4,70.7c5.4-0.6,16.1-1.5,11.1,11c-5.1,12.5-13.2,9.5-16.5-1.8C238.6,68.6,242.7,71.3,247.4,70.7z"
					/>
			</g>
			<path fill="#FFFFFF" d="M270.7,96.4c-0.6,4.3-5.6,5.4-6,9.1s13.1,5.3,12.8,0c-0.4-5.3-3.2-8.2-3.2-9.1"/>
			<path fill="#A7A9AC" d="M268.2,100.6c2.2,0.4,5.7,0.9,8.2,0.5c-0.8-2.2-1.9-3.7-2.2-4.4c-0.6-0.2-1-0.3-1-0.3h-2.6
				C270.5,98.2,269.4,99.5,268.2,100.6z"/>
			<path fill="#C563AE" d="M274.3,86.5c-5.6-0.3-23.4,2.7-21.1,8.8c2.3,6,45.7,4.3,42.2-2.9C295.4,92.4,281.1,87,274.3,86.5z"/>
			<path fill="#0E3173" d="M253.9,36c-2.1-1-10.4,1.2-17.5,4.7c3.8,6.1,9,7.9,12.3,7.7c2.6-0.2,7.4,2.4,12,3.1
				C260.1,44.5,257.2,37.6,253.9,36z"/>
			<path fill="#0E3173" d="M274.3,86.5c-2.6-0.2-7.8,0.4-12.4,1.7c0.1,2,1.7,2.4,5.3,1.6c5.3-1.2,8.4,1.2,11.7,0.4
				c1.2-0.3,2.4-1.1,3.3-2.1C279.3,87.3,276.4,86.7,274.3,86.5z"/>
			<path fill="#0E3173" d="M248.8,70.5c-0.8,1.9,0.1,4.2,1.5,4.5c1.8,0.4,5.1,7.5,6.8,6.6c0.5-0.3,1.3-1,2.1-1.8
				C262.1,70.2,254.1,70,248.8,70.5z"/>
			<path fill="#0E3173" d="M210.8,71.3c2.7-5,8.2-4.2,11.9-6.4c1.1-0.7,2.2-1.6,3.2-2.6c-1.2-0.9-2.4-1.8-3.7-2.8
				c-12.1-8.9-17.4,1-19.1,13C206,73.9,209.4,73.8,210.8,71.3z"/>
			<path fill="#A7A9AC" d="M239.8,104.5c0.5,0.1,1,0.1,1.5,0c-1.4-1.1-2.9-2.7-3.2-4.9c-0.7-4.4,2.5-13.3,5.2-14.6l-1.9-1.4
				c-0.1,0.1-0.2,0.3-0.3,0.4c-0.9,1.5-1.7,3-2.4,4.6c-0.9,2.1-1.7,4.1-2.1,6.4c-0.2,0.8-0.3,1.6-0.3,2.5c-0.1,0.8,0,1.7,0.2,2.5
				C236.6,101.9,237.7,104.1,239.8,104.5z"/>
			<g>
				<path fill="#FFFFFF" d="M259.8,89.6c4.3,0,3.8,5.4-0.1,5.4S255.5,89.6,259.8,89.6z"/>
				<path fill="#EF4136" d="M261.9,91.9c0-0.6-0.5-1.2-1.1-1.2c-0.4,0-0.8,0.3-1,0.6c0,0,0,0,0,0c-0.2-0.4-0.6-0.6-1-0.6
					c-0.6,0-1.1,0.5-1.1,1.2c0,0.9,2.3,2.4,2.3,2.4c0,0,0,0,0,0C259.9,94.3,261.9,93,261.9,91.9z"/>
			</g>
			<g>
				<path fill="#FFFFFF" d="M269.8,87.6c4.3,0,3.8,5.4-0.1,5.4S265.5,87.6,269.8,87.6z"/>
				<path fill="#EF4136" d="M271.9,89.9c0-0.6-0.5-1.2-1.1-1.2c-0.4,0-0.8,0.3-1,0.6c0,0,0,0,0,0c-0.2-0.4-0.6-0.6-1-0.6
					c-0.6,0-1.1,0.5-1.1,1.2c0,0.9,2.3,2.4,2.3,2.4c0,0,0,0,0,0C269.8,92.3,271.9,91,271.9,89.9z"/>
			</g>
			<g>
				<path fill="#FFFFFF" d="M282.3,90.4c4.3,0,3.8,5.4-0.1,5.4S278,90.4,282.3,90.4z"/>
				<path fill="#EF4136" d="M284.4,92.7c0-0.6-0.5-1.2-1.1-1.2c-0.4,0-0.8,0.3-1,0.6c0,0,0,0,0,0c-0.2-0.4-0.6-0.6-1-0.6
					c-0.6,0-1.1,0.5-1.1,1.2c0,0.9,2.3,2.4,2.3,2.4c0,0,0,0,0,0C282.3,95.1,284.4,93.7,284.4,92.7z"/>
			</g>
			<g>
				<path fill="#FFFFFF" d="M235.1,46.2c5.1,0,4.5,6.4-0.1,6.4C230.4,52.6,230,46.2,235.1,46.2z"/>
				<path fill="#EF4136" d="M237.6,48.9c0-0.8-0.6-1.4-1.4-1.4c-0.5,0-1,0.3-1.2,0.7c0,0,0,0-0.1,0c-0.2-0.4-0.7-0.7-1.2-0.7
					c-0.7,0-1.4,0.6-1.4,1.4c0,1.1,2.7,2.8,2.7,2.8c0,0,0,0,0,0C235.1,51.7,237.6,50.1,237.6,48.9z"/>
			</g>
			<g>
				<path fill="#FFFFFF" d="M245.6,39.2c5.1,0,4.5,6.4-0.1,6.4C240.9,45.6,240.5,39.2,245.6,39.2z"/>
				<path fill="#EF4136" d="M248,41.9c0-0.8-0.6-1.4-1.4-1.4c-0.5,0-1,0.3-1.2,0.7c0,0,0,0-0.1,0c-0.2-0.4-0.7-0.7-1.2-0.7
					c-0.7,0-1.4,0.6-1.4,1.4c0,1.1,2.7,2.8,2.7,2.8c0,0,0,0,0,0C245.6,44.8,248,43.2,248,41.9z"/>
			</g>
			<g>
				<path fill="#FFFFFF" d="M251.5,56c4.8,1.9,1.8,7.6-2.4,5.9S246.8,54.1,251.5,56z"/>
				<path fill="#EF4136" d="M252.9,59.5c0.3-0.7-0.1-1.5-0.8-1.8c-0.5-0.2-1-0.1-1.4,0.2c0,0,0,0,0,0c-0.1-0.5-0.4-0.9-0.8-1.1
					c-0.7-0.3-1.5,0.1-1.8,0.8c-0.4,1,1.5,3.6,1.5,3.6c0,0,0,0,0,0C249.5,61.2,252.4,60.6,252.9,59.5z"/>
			</g>
			<g>
				<path fill="#FFFFFF" d="M226.1,69.8c5.1-0.6,5.2,5.9,0.6,6.4C222.1,76.7,221,70.4,226.1,69.8z"/>
				<path fill="#EF4136" d="M228.9,72.2c-0.1-0.7-0.8-1.3-1.5-1.2c-0.5,0.1-0.9,0.4-1.1,0.9c0,0,0,0-0.1,0c-0.3-0.4-0.8-0.7-1.3-0.6
					c-0.7,0.1-1.3,0.8-1.2,1.5c0.1,1.1,3,2.5,3,2.5c0,0,0,0,0,0C226.8,75.3,229,73.5,228.9,72.2z"/>
			</g>
			<g>
				<path fill="#FFFFFF" d="M215.1,60.1c5.1-0.6,5.2,5.9,0.6,6.4C211.2,67,210.1,60.6,215.1,60.1z"/>
				<path fill="#EF4136" d="M217.9,62.5c-0.1-0.7-0.8-1.3-1.5-1.2c-0.5,0.1-0.9,0.4-1.1,0.9c0,0,0,0-0.1,0c-0.3-0.4-0.8-0.7-1.3-0.6
					c-0.7,0.1-1.3,0.8-1.2,1.5c0.1,1.1,3,2.5,3,2.5c0,0,0,0,0,0C215.8,65.6,218,63.7,217.9,62.5z"/>
			</g>
			<g>
				<path fill="#FFFFFF" d="M208.6,69.9c5.1-0.6,5.2,5.9,0.6,6.4S203.6,70.5,208.6,69.9z"/>
				<path fill="#EF4136" d="M211.4,72.3c-0.1-0.7-0.8-1.3-1.5-1.2c-0.5,0.1-0.9,0.4-1.1,0.9c0,0,0,0-0.1,0c-0.3-0.4-0.8-0.7-1.3-0.6
					c-0.7,0.1-1.3,0.8-1.2,1.5c0.1,1.1,3,2.5,3,2.5c0,0,0,0,0,0C209.3,75.4,211.6,73.6,211.4,72.3z"/>
			</g>
			<g>
				<path fill="#FFFFFF" d="M217.6,77.6c5.1-0.6,5.2,5.9,0.6,6.4C213.6,84.5,212.6,78.2,217.6,77.6z"/>
				<path fill="#EF4136" d="M220.4,80.1c-0.1-0.7-0.8-1.3-1.5-1.2c-0.5,0.1-0.9,0.4-1.1,0.9c0,0,0,0-0.1,0c-0.3-0.4-0.8-0.7-1.3-0.6
					c-0.7,0.1-1.3,0.8-1.2,1.5c0.1,1.1,3,2.5,3,2.5c0,0,0,0,0,0C218.3,83.1,220.5,81.3,220.4,80.1z"/>
			</g>
			<g>
				<path fill="#FFFFFF" d="M254.3,81.7c2.7,4.4-3.1,7.2-5.5,3.3S251.7,77.4,254.3,81.7z"/>
				<path fill="#EF4136" d="M253.3,85.3c0.6-0.4,0.8-1.2,0.4-1.9c-0.3-0.4-0.8-0.7-1.3-0.6c0,0,0,0,0,0c0.3-0.4,0.3-1,0-1.4
					c-0.4-0.6-1.2-0.8-1.9-0.4c-0.9,0.6-1,3.8-1,3.8c0,0,0,0,0,0C249.6,84.7,252.3,86,253.3,85.3z"/>
			</g>
			<g>
				<path fill="#FFFFFF" d="M251.5,72.9c4.1,3-0.2,7.8-3.9,5.1C244,75.3,247.4,69.9,251.5,72.9z"/>
				<path fill="#EF4136" d="M251.9,76.6c0.4-0.6,0.3-1.5-0.3-1.9c-0.4-0.3-1-0.3-1.4-0.1c0,0,0,0,0,0c0.1-0.5-0.1-1-0.5-1.3
					c-0.6-0.4-1.5-0.3-1.9,0.3c-0.7,0.9,0.5,3.9,0.5,3.9c0,0,0,0,0,0C248.3,77.4,251.2,77.6,251.9,76.6z"/>
			</g>
		</g>
	</g>
	<g>
		<g>
			<g>
				<rect x="92.6" y="64.5" fill="#A56637" width="2.7" height="14.6"/>
				<rect x="92.5" y="64.5" fill="#754C29" width="1.5" height="14.6"/>
				<path fill="#006838" d="M107.7,52.8c2.5-1.8,4.1-4.6,4.1-7.9c0-5.1-4-9.2-9.1-9.7c0-0.2,0-0.5,0-0.7c0-5.4-4.5-9.7-10.1-9.7
					c-5.6,0-10.1,4.4-10.1,9.7c0,1.7,0.4,3.2,1.2,4.6c-4.9,0.7-8.6,4.7-8.6,9.6c0,3.1,1.5,5.8,3.8,7.6c-0.2,0.7-0.3,1.4-0.3,2.2
					c0,5.4,4.5,9.7,10.1,9.7c2.1,0,4-0.6,5.6-1.6c1.8,2.7,4.9,4.4,8.5,4.4c5.6,0,10.1-4.4,10.1-9.7
					C112.9,57.7,110.8,54.5,107.7,52.8z"/>
				<ellipse fill="#9CB729" cx="92.1" cy="30.1" rx="3.3" ry="2.4"/>
				<path fill="#9CB729" d="M85.8,43.4c0.4,1.3-0.7,2.7-2.5,3.2c-1.7,0.5-3.5-0.1-3.8-1.4c-0.4-1.3,0.7-2.7,2.5-3.2
					C83.7,41.5,85.4,42.1,85.8,43.4z"/>
				<path fill="#9CB729" d="M107.1,44.4c-1.1,0.8-2.8,0.4-4-1c-1.1-1.4-1.2-3.2-0.2-4.1c1.1-0.8,2.8-0.4,4,1
					C108.1,41.7,108.2,43.5,107.1,44.4z"/>
				<path fill="#9CB729" d="M108.6,63.4c-1.3,0.3-2.7-0.9-3.1-2.7c-0.4-1.8,0.4-3.4,1.7-3.7c1.3-0.3,2.7,0.9,3.1,2.7
					C110.7,61.4,109.9,63.1,108.6,63.4z"/>
			</g>
			<path fill="#9CB729" d="M90.9,52.8c2.5-1.8,4.1-4.6,4.1-7.9c0-5.1-4-9.2-9.1-9.7c0-0.2,0-0.5,0-0.7c0-2-0.6-3.8-1.6-5.3
				c-1,1.5-1.6,3.4-1.6,5.3c0,1.7,0.4,3.2,1.2,4.6c-4.9,0.7-8.6,4.7-8.6,9.6c0,3.1,1.5,5.8,3.8,7.6c-0.2,0.7-0.3,1.4-0.3,2.2
				c0,5.4,4.5,9.7,10.1,9.7c2.1,0,4-0.6,5.6-1.6c0,0,0,0,0,0c1-1.5,1.6-3.4,1.6-5.3C96.1,57.7,94,54.5,90.9,52.8z"/>
			<g>
				<rect x="72.2" y="64.5" fill="#A56637" width="2.7" height="14.6"/>
				<rect x="72.1" y="64.5" fill="#754C29" width="1.5" height="14.6"/>
				<path fill="#006838" d="M87.4,52.8c2.5-1.8,4.1-4.6,4.1-7.9c0-5.1-4-9.2-9.1-9.7c0-0.2,0-0.5,0-0.7c0-5.4-4.5-9.7-10.1-9.7
					c-5.6,0-10.1,4.4-10.1,9.7c0,1.7,0.4,3.2,1.2,4.6c-4.9,0.7-8.6,4.7-8.6,9.6c0,3.1,1.5,5.8,3.8,7.6c-0.2,0.7-0.3,1.4-0.3,2.2
					c0,5.4,4.5,9.7,10.1,9.7c2.1,0,4-0.6,5.6-1.6c1.8,2.7,4.9,4.4,8.5,4.4c5.6,0,10.1-4.4,10.1-9.7C92.5,57.7,90.4,54.5,87.4,52.8z"
					/>
				<ellipse fill="#9CB729" cx="71.7" cy="30.1" rx="3.3" ry="2.4"/>
				<path fill="#9CB729" d="M65.4,43.4c0.4,1.3-0.7,2.7-2.5,3.2c-1.7,0.5-3.5-0.1-3.8-1.4c-0.4-1.3,0.7-2.7,2.5-3.2
					C63.3,41.5,65,42.1,65.4,43.4z"/>
				<path fill="#9CB729" d="M86.8,44.4c-1.1,0.8-2.8,0.4-4-1c-1.1-1.4-1.2-3.2-0.2-4.1c1.1-0.8,2.8-0.4,4,1
					C87.7,41.7,87.8,43.5,86.8,44.4z"/>
				<path fill="#9CB729" d="M88.2,63.4c-1.3,0.3-2.7-0.9-3.1-2.7c-0.4-1.8,0.4-3.4,1.7-3.7c1.3-0.3,2.7,0.9,3.1,2.7
					C90.3,61.4,89.5,63.1,88.2,63.4z"/>
			</g>
			<path fill="#9CB729" d="M71.2,52.8c2.5-1.8,4.1-4.6,4.1-7.9c0-5.1-4-9.2-9.1-9.7c0-0.2,0-0.5,0-0.7c0-2.2-0.7-4.2-2-5.8
				c-1.3,1.6-2,3.6-2,5.8c0,1.7,0.4,3.2,1.2,4.6c-4.9,0.7-8.6,4.7-8.6,9.6c0,3.1,1.5,5.8,3.8,7.6c-0.2,0.7-0.3,1.4-0.3,2.2
				c0,5.4,4.5,9.7,10.1,9.7c2.1,0,4-0.6,5.6-1.6c0.1,0.2,0.2,0.3,0.4,0.5c1.3-1.6,2-3.6,2-5.8C76.4,57.7,74.3,54.5,71.2,52.8z"/>
			<g>
				<ellipse fill="#006838" cx="45.2" cy="48.8" rx="10.1" ry="9.7"/>
				<rect x="52.5" y="64.5" fill="#A56637" width="2.7" height="14.6"/>
				<rect x="52.4" y="64.5" fill="#754C29" width="1.5" height="14.6"/>
				<ellipse fill="#006838" cx="62.8" cy="61.4" rx="10.1" ry="9.7"/>
				<ellipse fill="#006838" cx="48.7" cy="58.6" rx="10.1" ry="9.7"/>
				<ellipse fill="#006838" cx="52.6" cy="34.6" rx="10.1" ry="9.7"/>
				<ellipse fill="#006838" cx="61.7" cy="45" rx="10.1" ry="9.7"/>
				<ellipse fill="#9CB729" cx="52" cy="30.1" rx="3.3" ry="2.4"/>
				<path fill="#9CB729" d="M45.7,43.4c0.4,1.3-0.7,2.7-2.5,3.2c-1.7,0.5-3.5-0.1-3.8-1.4C39,44,40.1,42.5,41.9,42
					C43.6,41.5,45.3,42.1,45.7,43.4z"/>
				<path fill="#9CB729" d="M67.1,44.4c-1.1,0.8-2.8,0.4-4-1c-1.1-1.4-1.2-3.2-0.2-4.1c1.1-0.8,2.8-0.4,4,1
					C68,41.7,68.1,43.5,67.1,44.4z"/>
				<path fill="#9CB729" d="M68.5,63.4c-1.3,0.3-2.7-0.9-3.1-2.7c-0.4-1.8,0.4-3.4,1.7-3.7c1.3-0.3,2.7,0.9,3.1,2.7
					C70.6,61.4,69.8,63.1,68.5,63.4z"/>
			</g>
		</g>
		<polygon opacity="0.4" fill="#231F20" points="83.2,90.1 77.3,90.1 92.5,79.1 95.2,79.1 		"/>
		<polygon opacity="0.4" fill="#231F20" points="63.1,90.1 57.1,90.1 72.3,79.1 75.1,79.1 		"/>
		<polygon opacity="0.4" fill="#231F20" points="43.6,90.1 37.7,90.1 52.8,79.1 55.6,79.1 		"/>
	</g>
</g>
<g>
	<defs>
		<rect id="SVGID_1_" x="1606.4" y="-19.7" width="1202.3" height="679.5"/>
	</defs>
	<clipPath id="SVGID_2_">
		<use xlink:href="#SVGID_1_"  overflow="visible"/>
	</clipPath>
	<g clip-path="url(#SVGID_2_)">
		<path opacity="0.4" fill="#231F20" d="M2788.9-55.9c0.1-0.7,0.1-1.5,0.1-2.2c0-0.8,0-1.6-0.1-2.3c-0.8-17.8-5.7-34.5-14.3-50.1
			c-7-115.6-15.4-231.8-33.5-346.2c-4.2-26.5-7.3-57.3-20.3-81.3c-12.9-23.7-46.8-29.9-70.9-34.5c-93.2-17.8-187.4-31.4-281.6-42.4
			c-149-17.4-302.6-30.5-452.3-13.3c-40.9,4.7-81.8,11.7-120.8,25.3c-29,10.1-56.7,23.9-77.9,45.1c-4.5-11.2-11.6-20.5-24.5-26.1
			c-16.3-7.1-33.7-11.1-51.2-14.4c-56.1-10.7-113.6-14.8-170.6-18c-144.1-8.1-290.3-7.2-434,8.3c-53.5,5.8-109.2,12.4-160.1,31.1
			c-16.5,6.1-33.6,13.6-46.2,26.3c-19.4,19.6-27.2,51.9-34.5,77.5c-13,45.5-21.8,92.2-29.7,138.7c-9.8,57.4-17.5,115.1-24.1,173
			c-45.2,11.1-89.3,48.4-102.9,91.9c-18,57.6,29.8,115.1,84.5,128.5c-6.4,117.9-8.8,237.5,7.1,354.7c5.4,39.6,13.1,80.5,31.5,116.5
			c11.4,22.3,28.9,37,51.3,47.5c51.3,24.1,109.6,33.5,165.2,41.5c76.6,11,153.9,16.6,231.1,19.6c79,3.1,158.1,3.1,237.1-0.1
			c63.1-2.6,126.8-6.8,189-17.9c18.4-3.3,37-7.2,54.5-14c8.6-3.4,16.3-7.1,23.5-13.1c10.5-8.8,16.9-22.8,21.3-37.3
			c59,61.8,149.4,92.2,230,110.7c121.4,27.9,247,27.5,370.7,19.3c60.7-4,121.3-10.9,181.2-21.6c47.7-8.6,95.4-19.8,140.4-37.8
			c31.9-12.8,64.9-29.1,86.3-57c17.4-22.6,22.3-54.4,26.6-81.7c11.7-73.4,13.4-148.5,14.3-222.7c1.1-94.2-1.5-188.5-5.8-282.6
			C2785-29.5,2788.2-42.2,2788.9-55.9z"/>
		<g>
			<g>
				<g>
					<g>
						<path fill="#F7941E" d="M786.6,128.5C828.5,99.1,829,25.8,816.7-18.4c-6-21.5-16.3-39.9-40.3-43.3
							c-26.4-3.8-115,40.8-115,105.8S744,158.4,786.6,128.5z"/>
					</g>
					<g>
						<path fill="#F9AD5A" d="M766.3,107.9C789,92,789.3,52.4,782.6,28.5c-3.2-11.6-8.8-21.6-21.8-23.4c-14.3-2-62.2,22-62.2,57.2
							S743.3,124.1,766.3,107.9z"/>
					</g>
				</g>
				<path fill="#631E3A" d="M1738.4-486.2c39.3,58.8,94.9,1116.4,1.7,1178c-90.4,59.8-795.1,61.1-927.4-34.7s-35-1021.9,41.3-1118.4
					S1699.6-544.1,1738.4-486.2z"/>
				<path fill="#FFCD8A" d="M854.6-439.5C816.7-382.7,743,573.4,832.7,632.9c53.8,35.7,322.9,71.5,547.6,69
					c138.5-1.6,254.1-32,302.6-67.3c127.3-92.5,112.7-991.7,39.3-1084.9C1648.8-543.5,891.9-495.5,854.6-439.5z"/>
				<g>
					<path fill="#F9AD5A" d="M1475.9,653.5c-76,6.2-152.3,7.6-228.5,5.8c-70.7-1.6-141.4-6-211.6-14.1
						c-50.8-5.8-102.3-12.7-151.6-26.9c-13.4-3.9-27.5-8.2-39.2-16c-10.3-6.9-15.9-20.3-20.7-31.3c-4.9-11.2-9.1-22.8-12.9-34.5
						c0.7,6.5,1.5,12.5,2.4,18.2c0.7,1.9,1.4,3.7,2.1,5.6c5.4,14,11.3,29.3,21.5,40.5c4.1,4.5,9.9,7.5,15.4,10.1
						c15.2,7.2,31.8,11.7,48.1,15.7c23.8,5.9,48,10.2,72.2,14c64.5,10.1,129.7,15.8,194.9,19.4c75.7,4.2,151.7,5,227.5,2.1
						c72.3-2.8,144.8-9,216-22.3c22.8-4.3,46-9.2,68.8-15.5c1.7-1.8,3.3-3.7,4.9-5.6c-2.3,0.7-4.5,1.3-6.8,1.9
						C1612.6,639,1544,647.9,1475.9,653.5z"/>
					<path fill="#F9AD5A" d="M1485.6,639.2c-74.2,6.9-148.9,9.1-223.5,8.1c-70.1-0.9-140.2-4.7-209.8-12.1
						c-52.2-5.5-104.9-12.5-155.7-26.3c-15.1-4.1-30.6-8.8-44.3-16.5c-5.8-3.2-10.2-6.9-13.8-12.5c-7.1-11-10.9-24-14.2-36.6
						c-10.5-40.9-13.2-83.9-15.4-126c-2.9-57.2-2.8-114.6-1.5-171.8c2.8-127.1,11.8-254.1,19.2-381.1c0.3-4.6,0.5-9.1,0.8-13.7
						c-14.7,173-25.3,393-23,551.2c1.4,35.3,3.9,70.6,9.1,105.6c2.5,16.8,5.7,33.6,10.9,49.8c3.4,10.7,7.8,21.7,15.2,30.3
						c7.9,9.3,22.6,14,33.6,18c44.1,15.7,91.7,22.4,137.8,28.5c66.7,8.8,134,13.5,201.2,15.8c74.6,2.5,149.4,1.8,223.9-3
						c69-4.5,138.2-12.3,205.6-27.6c17.4-4,35.1-8.4,52.6-13.8c1-1.7,2-3.4,2.9-5.1c-5,1.6-10,3.1-14.9,4.5
						C1618.4,623.6,1551.8,633.1,1485.6,639.2z"/>
					<path fill="#F9AD5A" d="M1481.8,625.1c-74.4,6.7-149.3,8.5-223.9,7.1c-69.4-1.3-138.7-5.4-207.7-13.4
						c-50.1-5.8-101.1-12.8-149.4-27.7c-13.5-4.2-27.7-8.9-39.3-17.2c-8.5-6.1-13.9-15.6-18.2-24.9c-7.9-17-12.2-35.8-15.8-54.1
						c-10.6-54.5-12.6-110.7-13-166c-0.3-47,0.5-94,2-140.9c3-97.5,8.6-195,15.5-292.4c5.2-74,11.1-147.9,17.8-221.8
						c1.5-16.4,3-32.9,4.6-49.3c-3,15.7-6,34.8-9,56.9c-1.2,13.2-2.3,26.4-3.5,39.6c-7.2,83.5-13.5,167.1-18.7,250.8
						c-6.1,97.9-10.9,195.9-12.2,294c-0.7,53.4-0.6,106.9,3.8,160.1c2,24.3,4.9,48.6,9.6,72.5c3.5,17.9,8.1,35.8,15.7,52.4
						c4.4,9.6,10.1,19.1,18.6,25.6c4.7,3.6,10.1,6.4,15.5,8.8c16.3,7.4,33.9,12.2,51.2,16.4c54,13.1,109.7,19.9,165,25.1
						c71.3,6.7,143,9.7,214.6,9.6c74.1-0.1,148.4-3.5,222-12.2c59.4-7.1,119.3-17.3,176.2-36.4c0.6-1.5,1.1-2.9,1.7-4.4
						c-8.2,2.7-16.3,5.2-24.4,7.6C1615.9,609.7,1548.6,619.1,1481.8,625.1z"/>
					<path fill="#F9AD5A" d="M1689.8,577.8c-62.9,18.7-128.5,28.2-193.8,34.4c-73,6.9-146.4,9.1-219.6,8.1
						c-68.8-0.9-137.7-4.7-206.2-12.1c-51.3-5.5-103.2-12.5-153.1-26.3c-14.9-4.1-30.2-8.8-43.8-16.5c-9.9-5.6-16.3-13.7-21.3-23.8
						c-7.1-14.5-11-30.6-14.1-46.3c-4.3-21.6-6.6-43.6-8.3-65.5c-4.4-57.2-4.1-114.7-2.5-172C829,190.7,833,123.8,838,57
						c5-66.1,11.1-132.1,17.8-198.1c5.6-54.8,11.8-109.6,18.4-164.3c4-33.1,8.2-66.3,12.6-99.4c0.7-5,1.4-10.1,2.1-15.2
						c0.3-2.3-3.3-3.4-3.6-1c-2.4,17.1-4.6,34.2-6.8,51.3c-5.7,44.2-11,88.5-16,132.8c-6.9,61.1-13.3,122.3-19,183.6
						c-6.2,67.6-11.6,135.3-15.5,203.1c-3.7,63.7-6.1,127.6-5.6,191.5c0.4,49.5,2,99.7,10.7,148.5c2.9,16.6,6.8,33.2,13.4,48.7
						c4.5,10.5,10.5,20.4,20,27c11.6,8.1,25.8,12.7,39.1,16.9c20.7,6.4,41.9,11,63.2,15c58.9,11,118.8,17.1,178.5,21.3
						c71.9,5,144.1,6.6,216.2,4.8c71.4-1.7,142.9-6.7,213.5-17.6c43.7-6.7,87.7-15.5,129.9-29.5c0.5-1.5,0.9-2.9,1.3-4.4
						C1702.2,574,1696,576,1689.8,577.8z"/>
				</g>
			</g>
			<path fill="#FCDDB9" d="M906.4-414.3C871.8-363.1,795.1,515.3,877,569c79.4,52,669,68.9,785.2-14.5c14.2-10.2,38.3-5.2,46.4-35.5
				c63.2-235,48.3-869.3-10.5-943.1C1631-508.1,940.4-464.8,906.4-414.3z"/>
		</g>
	</g>
</g>
</svg>
