<?xml version="1.0" encoding="utf-8"?>
<!-- Generator: Adobe Illustrator 18.0.0, SVG Export Plug-In . SVG Version: 6.00 Build 0)  -->
<!DOCTYPE svg PUBLIC "-//W3C//DTD SVG 1.1//EN" "http://www.w3.org/Graphics/SVG/1.1/DTD/svg11.dtd">
<svg version="1.1" id="Layer_1" xmlns="http://www.w3.org/2000/svg" xmlns:xlink="http://www.w3.org/1999/xlink" x="0px" y="0px"
	 viewBox="0 0 640 640" enable-background="new 0 0 640 640" xml:space="preserve">
<g>
	<g>
		<polygon opacity="0.4" fill="#231F20" points="381.9,421.1 226.9,408.9 296.4,352.7 478.5,354.7 		"/>
		<rect x="275.5" y="269.7" fill="#EF866A" width="138.7" height="66.6"/>
		<polyline fill="#754C29" points="410,366 418.9,389.2 427.6,385 418.8,362.7 		"/>
		<polyline fill="#754C29" points="439.3,349.5 448.2,372.7 456.8,368.5 448,346.2 		"/>
		<polyline fill="#754C29" points="461,335.7 469.9,359 478.5,354.7 469.8,332.4 		"/>
		<polygon fill="#FFCD8A" points="288.6,291.7 337.4,275.5 405.2,287 410,264.5 354.3,154.3 308.9,146.6 276.8,266 278.8,294.9 		
			"/>
		<path fill="#F9AD5A" d="M299.1,309.9c5.8,2.1,21.1,4.1,34.8,4.8c13.7,0.7,54-8.7,58.2-12.4s5-18.7-1.4-17.9
			c-6.4,0.7-53.3,6.6-64.8,6.6c-11.4,0-29.7-2-29.5,3.7C296.7,300.3,295.7,308.7,299.1,309.9z"/>
		<path fill="#FFCD8A" d="M299.1,295.6c5.8,2.1,21.1,4.1,34.8,4.8s54-8.7,58.2-12.4s-17.1-11.1-23.5-10.4c-6.4,0.7-31.2-0.9-42.6-1
			c-11.4,0-29.7-2-29.5,3.7C296.7,285.9,295.7,294.3,299.1,295.6z"/>
		<polygon fill="#754C29" points="337.4,164.5 342.3,333.1 347.1,333.1 347.1,175.3 		"/>
		<polygon fill="#A56637" points="337.4,167.3 337.4,335.1 343.6,335.1 344.2,172.3 		"/>
		<path fill="#EF4136" d="M354.3,185.4c0,0,29.5,80.4,50.9,84.4c-4,11.6-11.6,30-11.6,30l-0.6,31.1l44.4,15.9l63.5-43.3l-3.1-15.6
			L354.3,185.4z"/>
		<path fill="#F7941E" d="M290.4,106c2.8,21,67.1,78.7,96.1,116.2c23.6,30.5,101.6,68,101.6,68l31.7-8.4c0,0-82.8-62.2-114.7-124.4
			L290.4,106z"/>
		<path fill="#F15A29" d="M291.8,110.8c-17,59.4-76,152.1-101.4,168.6c33.7-4.4,81.9,0,81.9,0v-31l57.8-89L291.8,110.8z"/>
		<polygon fill="#EF4136" points="272.3,279.4 252.6,330.8 276.1,330.8 276.1,322.6 295.1,320 286.2,290.3 290.4,264 337.4,167.3 
			330,159.4 272.7,245.6 		"/>
		<path fill="#991727" d="M369.4,221.3c10.4,22,24.2,46.3,35.8,48.4c-0.5,1.5-1.1,3.2-1.8,4.9l15.5,15.6l-22.2,10.1v24.1l32.4-22.2
			v-1.9l-27.3-65.9L369.4,221.3z"/>
		<polygon fill="#754C29" points="246.9,352.8 419.6,366.8 471.7,336.8 467,327.6 246.9,342.9 		"/>
		<polygon fill="#754C29" points="308.9,227.9 336.2,334.8 338.2,330.9 311.7,218.8 		"/>
		<polygon fill="#754C29" points="380.4,243.2 345,335.3 348.3,336.3 383.8,247.1 		"/>
		<polygon fill="#A56637" points="246.9,342.9 419.6,356.8 446.9,341.6 265.9,327.6 		"/>
		<polygon fill="#A56637" points="307,229.9 333.4,332.8 336.7,333.8 310.2,223.3 		"/>
		<polygon fill="#A56637" points="378.4,241.2 343.1,333.3 346.3,334.3 381.9,245.1 		"/>
		<g>
			<polygon fill="#754C29" points="517.2,287 469.3,333.1 471.7,336.8 519.7,291.2 			"/>
			<polygon fill="#A56637" points="512.7,285 463.9,331.1 471,332.6 517.2,287 			"/>
		</g>
		<g>
			<polygon fill="#754C29" points="492.4,296.9 444.5,343 446.9,346.7 495,301.1 			"/>
			<polygon fill="#A56637" points="487.9,294.9 439.1,341 446.2,342.5 492.4,296.9 			"/>
		</g>
		<polygon fill="#754C29" points="369.4,362.7 354.3,415.8 361.8,415.8 377.1,363.3 		"/>
		<polygon fill="#A56637" points="364.4,362.7 349.3,415.8 356.9,415.8 372.1,363.3 		"/>
		<polygon fill="#754C29" points="271.3,352.7 256.2,405.9 263.7,405.9 279,353.3 		"/>
		<polygon fill="#A56637" points="266.4,352.7 251.2,405.9 258.8,405.9 274,353.3 		"/>
		<polygon fill="#754C29" points="260.2,387.6 355.8,395.7 360.2,390.9 262.2,382.7 		"/>
		<polygon fill="#754C29" points="264.7,368.9 360.3,377 364.8,372.2 267.7,363 		"/>
		<polygon fill="#A56637" points="260.2,382.7 355.8,390.7 360.2,386 273.1,379.2 		"/>
		<polygon fill="#A56637" points="264.7,364 360.3,372 364.8,367.3 277.6,360.5 		"/>
		<polygon fill="#F9AD5A" points="361.1,335 362.5,321.8 393.1,323.1 393.1,336.3 		"/>
		<polygon fill="#FFCD8A" points="377.9,311.2 362.5,321.8 393.1,323.1 393.4,308.8 		"/>
	</g>
	<g>
		<polygon opacity="0.4" fill="#231F20" points="526.3,467.4 394.5,459 394.1,414.9 508.4,428.7 		"/>
		<polygon fill="#754C29" points="394.4,372.1 512.6,426.4 509.8,430.8 392.9,377 394.1,375 		"/>
		<g>
			<polygon fill="#754C29" points="388.4,415.7 391.4,421.1 521.1,316.9 516.8,314.1 			"/>
			<polygon fill="#A56637" points="389.5,417.7 393,422.5 523.8,318.7 519.4,316 			"/>
		</g>
		<path fill="#EF4136" d="M397.9,380.1c11.3,11.1,65.5,18.3,87.7-15.2s26.3-39.7,26.3-39.7l19,20.7c0,0-35.8,59.3-70.5,69.1
			c-34.7,9.8-53.2-1-65.2-9.1C392,402.6,397.9,380.1,397.9,380.1z"/>
		<g>
			<polygon fill="#A56637" points="394.6,415.3 391.7,446.4 397.7,445.9 399,415 			"/>
			<polygon fill="#754C29" points="385.5,451.2 391.3,456.8 538.9,340.3 533.8,337 			"/>
			<polygon fill="#A56637" points="388.6,453.5 394.5,459 542.1,342.5 537,339.2 			"/>
		</g>
		<polygon fill="#A56637" points="519.8,321.9 533.8,337 528.1,341.4 511.9,325.2 		"/>
		<polygon fill="#A56637" points="485,381.5 475.3,452.1 480.5,452.2 491.4,382.5 		"/>
		<polygon fill="#A56637" points="387.4,402.8 526.3,467.4 530.4,463.6 390.7,397.8 		"/>
		<polygon fill="#A56637" points="508.4,428.7 522.6,459.9 528.1,462.6 512.6,426.4 		"/>
		<polygon fill="#A56637" points="467.6,411.5 476,443.2 481.5,445.8 471.9,409.2 		"/>
		<polyline fill="#A56637" points="395.9,378.4 393.4,400.1 397.8,402 399.7,380.1 		"/>
	</g>
	<g>
		<polygon opacity="0.4" fill="#231F20" points="431.6,534 303.1,503.4 310.1,459.9 420.4,492.7 		"/>
		<polygon fill="#754C29" points="317.7,417.7 425,491.2 421.5,495 315.4,422.4 316.9,420.5 		"/>
		<g>
			<polygon fill="#754C29" points="304.4,459.7 306.4,465.6 451.8,384.7 448.1,381.2 			"/>
			<polygon fill="#A56637" points="305.1,461.9 307.8,467.2 454.2,387 450.4,383.5 			"/>
		</g>
		<path fill="#EF4136" d="M319.8,426.3c9.3,12.9,61.5,29.1,89-0.2c27.5-29.3,32.6-34.7,32.6-34.7l15.2,23.6c0,0-45.3,52.5-81.1,56.3
			c-35.8,3.8-52.3-9.9-62.8-20C310.1,447.5,319.8,426.3,319.8,426.3z"/>
		<g>
			<polygon fill="#A56637" points="310.6,460.4 302.5,490.5 308.5,491.1 315,460.8 			"/>
			<polygon fill="#754C29" points="295.5,494.2 300.3,500.7 465.5,410.8 461,406.7 			"/>
			<polygon fill="#A56637" points="298.2,497 303.1,503.4 468.2,413.5 463.7,409.4 			"/>
		</g>
		<polygon fill="#A56637" points="449.7,389.4 461,406.7 454.6,410 441.4,391.4 		"/>
		<polygon fill="#A56637" points="405.4,442.3 383.9,510.2 389,511.2 411.5,444.4 		"/>
		<polygon fill="#A56637" points="305.6,446.8 431.6,534 436.3,530.9 309.7,442.4 		"/>
		<polygon fill="#A56637" points="420.4,492.7 429.2,525.9 434.2,529.5 425,491.2 		"/>
		<polygon fill="#A56637" points="383.2,468.9 386.1,501.6 391.1,505.1 387.7,467.4 		"/>
		<polyline fill="#A56637" points="318.1,424.2 312,445.2 315.9,447.8 321.5,426.6 		"/>
	</g>
	<g>
		<polygon opacity="0.4" fill="#231F20" points="274,450.1 154.2,432 168.6,403.1 277.7,411.9 		"/>
		<polygon fill="#754C29" points="284.7,372.6 168.6,403.1 170.5,407.5 285.3,377.3 284.6,375.3 		"/>
		<g>
			<polygon fill="#754C29" points="283.2,413.2 279.7,417.7 178.4,302.2 182.7,300.3 			"/>
			<polygon fill="#A56637" points="281.9,414.8 277.9,418.6 175.6,303.5 180,301.6 			"/>
		</g>
		<path fill="#EF4136" d="M280.2,379.3c-12.1,8.3-62.5,6.2-77.3-27.8c-14.8-34-17.6-40.3-17.6-40.3L164.8,327
			c0,0,23.1,59.7,53.1,74.1c30,14.4,48.5,7.6,60.8,2.1C282.1,400.7,280.2,379.3,280.2,379.3z"/>
		<g>
			<polygon fill="#A56637" points="277.7,411.9 275.3,440.6 270,439.2 273.7,410.8 			"/>
			<polygon fill="#754C29" points="280.2,446 274,450.1 158.4,320.6 163.6,318.4 			"/>
			<polygon fill="#A56637" points="277,447.5 270.8,451.6 155.2,322.2 160.3,320 			"/>
		</g>
		<polygon fill="#A56637" points="178.7,306.9 163.6,318.4 168.1,323.3 185.3,311.2 		"/>
		<polygon fill="#A56637" points="200.8,366.7 198.4,432.4 193.7,431.7 194.9,366.6 		"/>
		<polygon fill="#A56637" points="286.2,401.6 149.6,438.2 146.5,434.1 284,396.5 		"/>
		<polygon fill="#A56637" points="172.1,405.9 154.2,432 148.7,433.5 168.6,403.1 		"/>
		<polygon fill="#A56637" points="211.9,396.7 199.2,424.2 193.7,425.7 208.4,394 		"/>
		<polyline fill="#A56637" points="282.3,378.1 281.2,398.2 276.9,399.2 278.6,379.1 		"/>
	</g>
	<g>
		<polygon opacity="0.4" fill="#231F20" points="225.5,500.1 105.6,482.1 120,453.2 229.1,461.9 		"/>
		<polygon fill="#754C29" points="236.1,422.6 120,453.2 121.9,457.6 236.7,427.4 236,425.3 		"/>
		<g>
			<polygon fill="#754C29" points="234.7,463.3 231.1,467.7 129.8,352.2 134.1,350.4 			"/>
			<polygon fill="#A56637" points="233.3,464.9 229.4,468.7 127.1,353.5 131.4,351.7 			"/>
		</g>
		<path fill="#EF4136" d="M231.7,429.4c-12.1,8.3-62.5,6.2-77.3-27.8s-17.6-40.3-17.6-40.3l-20.6,15.8c0,0,23.1,59.7,53.1,74.1
			c30,14.4,48.5,7.6,60.8,2.1C233.5,450.8,231.7,429.4,231.7,429.4z"/>
		<g>
			<polygon fill="#A56637" points="229.1,461.9 226.7,490.6 221.4,489.3 225.1,460.9 			"/>
			<polygon fill="#754C29" points="231.7,496 225.5,500.1 109.8,370.7 115,368.5 			"/>
			<polygon fill="#A56637" points="228.4,497.6 222.2,501.7 106.6,372.2 111.8,370 			"/>
		</g>
		<polygon fill="#A56637" points="130.2,357 115,368.5 119.5,373.4 136.8,361.3 		"/>
		<polygon fill="#A56637" points="152.3,416.7 149.8,482.5 145.1,481.8 146.3,416.7 		"/>
		<polygon fill="#A56637" points="237.6,451.7 101,488.3 97.9,484.2 235.4,446.6 		"/>
		<polygon fill="#A56637" points="123.5,455.9 105.6,482.1 100.1,483.6 120,453.2 		"/>
		<polygon fill="#A56637" points="163.3,446.8 150.6,474.3 145.2,475.8 159.8,444.1 		"/>
		<polyline fill="#A56637" points="233.8,428.2 232.6,448.3 228.3,449.3 230.1,429.1 		"/>
	</g>
	<g>
		<polygon opacity="0.4" fill="#231F20" points="288.4,489.5 239.7,489.5 269.4,459.2 308.3,459.2 		"/>
		<g>
			<polygon fill="#754C29" points="298.5,456.6 246.4,455.1 246.4,450.2 314.9,419.9 314.9,424.8 			"/>
			<polygon fill="#A56637" points="295.5,450.1 246.5,451.4 276.3,421.1 315.1,421.1 			"/>
		</g>
		<polygon fill="#754C29" points="307.9,432.4 305.6,461.6 308.3,459.2 313.1,428.2 		"/>
		<polygon fill="#A56637" points="305.4,437.9 286.2,490.8 291,489.5 310.5,433.8 		"/>
		<polygon fill="#754C29" points="303,438.5 283.8,491.4 287.3,489.5 308.1,434.4 		"/>
		<polyline fill="#754C29" points="239.7,489.5 259.8,455.6 265.2,455.6 250,488.6 239.7,489.5 		"/>
		<polyline fill="#754C29" points="271.3,462.3 259.8,455.6 265.2,455.6 277,459.2 271.3,462.3 		"/>
		<polyline fill="#A56637" points="239.7,489.5 257.1,455.6 262.5,455.6 247.2,489.6 240.8,489.6 		"/>
	</g>
</g>
</svg>
