<?xml version="1.0" encoding="utf-8"?>
<!-- Generator: Adobe Illustrator 18.0.0, SVG Export Plug-In . SVG Version: 6.00 Build 0)  -->
<!DOCTYPE svg PUBLIC "-//W3C//DTD SVG 1.1//EN" "http://www.w3.org/Graphics/SVG/1.1/DTD/svg11.dtd">
<svg version="1.1" id="Layer_1" xmlns="http://www.w3.org/2000/svg" xmlns:xlink="http://www.w3.org/1999/xlink" x="0px" y="0px"
	 viewBox="0 0 640 640" enable-background="new 0 0 640 640" xml:space="preserve">
<g>
	<g>
		<g>
			<rect x="430.4" y="362" fill="#A56637" width="15.9" height="86.9"/>
			<rect x="429.8" y="362" fill="#754C29" width="9.1" height="86.9"/>
			<path fill="#006838" d="M520.9,292.4c14.9-10.6,24.6-27.6,24.6-46.8c0-30.2-23.8-54.9-54.3-57.7c0.1-1.4,0.2-2.7,0.2-4.1
				c0-32-26.9-58-60.1-58c-33.2,0-60.1,26-60.1,58c0,9.9,2.6,19.1,7,27.3c-29,4.1-51.3,28.2-51.3,57.4c0,18.3,8.8,34.6,22.5,45.2
				c-1,4.2-1.5,8.5-1.5,12.9c0,32,26.9,58,60.1,58c12.4,0,23.8-3.6,33.4-9.8c10.7,15.9,29.3,26.4,50.4,26.4c33.2,0,60.1-26,60.1-58
				C551.8,321.3,539.3,302.3,520.9,292.4z"/>
			<ellipse fill="#9CB729" cx="427.5" cy="156.9" rx="19.6" ry="14.5"/>
			<path fill="#9CB729" d="M389.9,236.3c2.3,7.7-4.3,16.3-14.7,19.3s-20.6-0.8-22.9-8.4s4.3-16.3,14.7-19.3
				C377.4,224.9,387.7,228.6,389.9,236.3z"/>
			<path fill="#9CB729" d="M517.3,241.9c-6.3,5-16.9,2.4-23.7-5.9s-7.3-19.1-1-24.2c6.3-5,16.9-2.4,23.7,5.9
				S523.6,236.9,517.3,241.9z"/>
			<path fill="#9CB729" d="M525.8,355c-7.9,1.7-16.1-5.5-18.3-16c-2.2-10.5,2.3-20.3,10.2-22s16.1,5.5,18.3,16
				C538.2,343.5,533.6,353.4,525.8,355z"/>
		</g>
		<path fill="#9CB729" d="M420.4,292.4c14.9-10.6,24.6-27.6,24.6-46.8c0-30.2-23.8-54.9-54.3-57.7c0.1-1.4,0.2-2.7,0.2-4.1
			c0-11.7-3.6-22.7-9.8-31.8c-6.2,9.1-9.8,20-9.8,31.8c0,9.9,2.6,19.1,7,27.3c-29,4.1-51.3,28.2-51.3,57.4
			c0,18.3,8.8,34.6,22.5,45.2c-1,4.2-1.5,8.5-1.5,12.9c0,32,26.9,58,60.1,58c12.4,0,23.8-3.6,33.4-9.8c0,0.1,0.1,0.1,0.1,0.2
			c6.2-9.1,9.8-20,9.8-31.8C451.3,321.3,438.8,302.3,420.4,292.4z"/>
		<g>
			<rect x="309" y="362" fill="#A56637" width="15.9" height="86.9"/>
			<rect x="308.4" y="362" fill="#754C29" width="9.1" height="86.9"/>
			<path fill="#006838" d="M399.4,292.4c14.9-10.6,24.6-27.6,24.6-46.8c0-30.2-23.8-54.9-54.3-57.7c0.1-1.4,0.2-2.7,0.2-4.1
				c0-32-26.9-58-60.1-58c-33.2,0-60.1,26-60.1,58c0,9.9,2.6,19.1,7,27.3c-29,4.1-51.3,28.2-51.3,57.4c0,18.3,8.8,34.6,22.5,45.2
				c-1,4.2-1.5,8.5-1.5,12.9c0,32,26.9,58,60.1,58c12.4,0,23.8-3.6,33.4-9.8c10.7,15.9,29.3,26.4,50.4,26.4c33.2,0,60.1-26,60.1-58
				C430.3,321.3,417.9,302.3,399.4,292.4z"/>
			<ellipse fill="#9CB729" cx="306.1" cy="156.9" rx="19.6" ry="14.5"/>
			<path fill="#9CB729" d="M268.5,236.3c2.3,7.7-4.3,16.3-14.7,19.3c-10.4,3-20.6-0.8-22.9-8.4s4.3-16.3,14.7-19.3
				S266.2,228.6,268.5,236.3z"/>
			<path fill="#9CB729" d="M395.8,241.9c-6.3,5-16.9,2.4-23.7-5.9s-7.3-19.1-1-24.2c6.3-5,16.9-2.4,23.7,5.9
				S402.1,236.9,395.8,241.9z"/>
			<path fill="#9CB729" d="M404.3,355c-7.9,1.7-16.1-5.5-18.3-16c-2.2-10.5,2.3-20.3,10.2-22s16.1,5.5,18.3,16
				C416.8,343.5,412.2,353.4,404.3,355z"/>
		</g>
		<path fill="#9CB729" d="M303.1,292.4c14.9-10.6,24.6-27.6,24.6-46.8c0-30.2-23.8-54.9-54.3-57.7c0.1-1.4,0.2-2.7,0.2-4.1
			c0-13-4.4-25-11.9-34.7c-7.5,9.7-11.9,21.7-11.9,34.7c0,9.9,2.6,19.1,7,27.3c-29,4.1-51.3,28.2-51.3,57.4
			c0,18.3,8.8,34.6,22.5,45.2c-1,4.2-1.5,8.5-1.5,12.9c0,32,26.9,58,60.1,58c12.4,0,23.8-3.6,33.4-9.8c0.7,1,1.4,2.1,2.2,3.1
			c7.5-9.7,11.9-21.7,11.9-34.7C334,321.3,321.5,302.3,303.1,292.4z"/>
		<g>
			<ellipse fill="#006838" cx="148.3" cy="268.4" rx="60.1" ry="58"/>
			<rect x="191.7" y="362" fill="#A56637" width="15.9" height="86.9"/>
			<rect x="191.1" y="362" fill="#754C29" width="9.1" height="86.9"/>
			<ellipse fill="#006838" cx="253" cy="343.1" rx="60.1" ry="58"/>
			<ellipse fill="#006838" cx="169.2" cy="326.5" rx="60.1" ry="58"/>
			<ellipse fill="#006838" cx="192.5" cy="183.8" rx="60.1" ry="58"/>
			<ellipse fill="#006838" cx="246.7" cy="245.6" rx="60.1" ry="58"/>
			<ellipse fill="#9CB729" cx="188.8" cy="156.9" rx="19.6" ry="14.5"/>
			<path fill="#9CB729" d="M151.2,236.3c2.3,7.7-4.3,16.3-14.7,19.3s-20.6-0.8-22.9-8.4s4.3-16.3,14.7-19.3
				C138.7,224.9,148.9,228.6,151.2,236.3z"/>
			<path fill="#9CB729" d="M278.6,241.9c-6.3,5-16.9,2.4-23.7-5.9s-7.3-19.1-1-24.2c6.3-5,16.9-2.4,23.7,5.9
				S284.8,236.9,278.6,241.9z"/>
			<path fill="#9CB729" d="M287,355c-7.9,1.7-16.1-5.5-18.3-16c-2.2-10.5,2.3-20.3,10.2-22s16.1,5.5,18.3,16
				C299.5,343.5,294.9,353.4,287,355z"/>
		</g>
	</g>
	<polygon opacity="0.4" fill="#231F20" points="374.7,514.3 339.3,514.3 429.8,448.8 446.3,448.8 	"/>
	<polygon opacity="0.4" fill="#231F20" points="254.7,514.3 219.3,514.3 309.8,448.8 326.3,448.8 	"/>
	<polygon opacity="0.4" fill="#231F20" points="138.7,514.3 103.3,514.3 193.8,448.8 210.3,448.8 	"/>
</g>
</svg>
