<?xml version="1.0" encoding="utf-8"?>
<!-- Generator: Adobe Illustrator 18.0.0, SVG Export Plug-In . SVG Version: 6.00 Build 0)  -->
<!DOCTYPE svg PUBLIC "-//W3C//DTD SVG 1.1//EN" "http://www.w3.org/Graphics/SVG/1.1/DTD/svg11.dtd">
<svg version="1.1" id="Layer_1" xmlns="http://www.w3.org/2000/svg" xmlns:xlink="http://www.w3.org/1999/xlink" x="0px" y="0px"
	 viewBox="0 0 1136 640" enable-background="new 0 0 1136 640" xml:space="preserve">
<g>
	<g>
		<path fill="#E6E7E8" d="M739.5,248.9c-10.3-7.7-21.1-9.4-30.2-7c-0.8-1.2-1.6-2.3-2.5-3.5c-14-10.5-28.5-12.6-40.7-9.2
			c-0.5-6.3-3-12.9-8-19.3c-25.5-19.1-53.7-1-52.7,23.1c-2.7-1-5.5-1.7-8.2-2.1c-1.3-3.9-3.4-7.8-6.4-11.7
			c-22.4-16.8-46.8-4.9-51.8,14.6c-13.4,4.2-22.8,17.2-21.1,32.2c-5.5-0.4-10.6,0.7-15.2,2.8c-5.5-1.3-10.8-1.2-15.7,0.1
			c-0.8-1.2-1.6-2.3-2.5-3.5c-14-10.5-28.5-12.6-40.7-9.2c-0.5-6.3-3-12.9-8-19.3c-25.5-19.1-53.7-1-52.7,23.1
			c-2.7-1-5.5-1.7-8.2-2.1c-1.3-3.9-3.4-7.8-6.4-11.7c-22.4-16.8-46.8-4.9-51.8,14.6c-13.4,4.2-22.8,17.2-21.1,32.2
			c-25-1.6-44,26.4-24.4,51.8c11.3,8.4,23,9.6,32.6,6.3c1.4,6.9,4.6,14.1,10,21.1c25.8,19.3,53.5,10.2,65-9.4
			c11.3,2.7,21.8-0.8,28.9-7.7c1.7,5.7,4.6,11.4,9,17.1c25.8,19.3,53.5,10.2,65-9.4c22.8,5.4,42.9-14.5,36.9-37.1
			c2.5-0.2,5-0.8,7.3-1.6c1.4,6.9,4.6,14.1,10,21.1c25.8,19.3,53.5,10.2,65-9.4c11.3,2.7,21.8-0.8,28.9-7.7c1.7,5.7,4.6,11.4,9,17.1
			c25.8,19.3,53.5,10.2,65-9.4c25.1,5.9,46.7-18.6,34.5-43.7C748.9,282.1,751.9,265,739.5,248.9z"/>
		<path fill="#E6E7E8" d="M864.7,331.2c-10.3-7.7-21.1-9.4-30.2-7c-0.8-1.2-1.6-2.3-2.5-3.5c-14-10.5-28.5-12.6-40.7-9.2
			c-0.5-6.3-3-12.9-8-19.3c-25.5-19.1-53.7-1-52.7,23.1c-2.7-1-5.5-1.7-8.2-2.1c-1.3-3.9-3.4-7.8-6.4-11.7
			c-22.4-16.8-46.8-4.9-51.8,14.6c-13.4,4.2-22.8,17.2-21.1,32.2c-25-1.6-44,26.4-24.4,51.8c11.3,8.4,23,9.6,32.6,6.3
			c1.4,6.9,4.6,14.1,10,21.1c25.8,19.3,53.5,10.2,65-9.4c11.3,2.7,21.8-0.8,28.9-7.7c1.7,5.7,4.6,11.4,9,17.1
			c25.8,19.3,53.5,10.2,65-9.4c25.1,5.9,46.7-18.6,34.5-43.7C874.1,364.4,877.1,347.3,864.7,331.2z"/>
		<path fill="#E6E7E8" d="M662.8,331.2c-10.3-7.7-21.1-9.4-30.2-7c-0.8-1.2-1.6-2.3-2.5-3.5c-14-10.5-28.5-12.6-40.7-9.2
			c-0.5-6.3-3-12.9-8-19.3c-25.5-19.1-53.7-1-52.7,23.1c-2.7-1-5.5-1.7-8.2-2.1c-1.3-3.9-3.4-7.8-6.4-11.7
			c-22.4-16.8-46.8-4.9-51.8,14.6c-13.4,4.2-22.8,17.2-21.1,32.2c-25-1.6-44,26.4-24.4,51.8c11.3,8.4,23,9.6,32.6,6.3
			c1.4,6.9,4.6,14.1,10,21.1c25.8,19.3,53.5,10.2,65-9.4c11.3,2.7,21.8-0.8,28.9-7.7c1.7,5.7,4.6,11.4,9,17.1
			c25.8,19.3,53.5,10.2,65-9.4c25.1,5.9,46.7-18.6,34.5-43.7C672.2,364.4,675.2,347.3,662.8,331.2z"/>
	</g>
	<path fill="#D1D3D4" d="M682.8,272.3c-2.1-6.7-8-11.2-15.1-11.4c-6.2,0.1-11.4,3.6-14.1,8.9c-4.7-5.6-11.7-8.2-19.1-7
		c-6.7,1-12.3,5.9-14.9,12c-3.4-6.8-10.2-11.1-18-11.3c-1.6,0-3.1,0.2-4.7,0.6c-1.2-3-3.3-5.6-6-7.4c5.8-8.8,20.3-8.3,25.2,1.2
		c0.6,1.2,2.5,0.4,2.1-0.9c-2-6.5-7.6-10.9-14.4-11.4c-6.7-0.4-12.6,3.9-15.2,9.8c-8.7-3.6-18.5,0.8-21.4,10
		c-0.4,1.2,1.5,2.1,2.1,0.9c4.9-9.4,19.1-9.9,25-1.5c-5.2,2.1-9.2,6-11.4,11.1c-11.3-7.5-26.7-1.9-30.6,11.2
		c-0.4,1.2,1.5,2.1,2.1,0.9c6.8-13.3,27.8-13.3,34.6,0c0.6,1.2,2.5,0.4,2.1-0.9c-1.1-3.7-3.2-6.9-6-9.5c7.6-11.9,27.2-11.3,33.7,1.4
		c0.6,1.2,2.5,0.4,2.1-0.9c0-0.1,0-0.1-0.1-0.2c6.8-13.2,27.7-13.2,34.5,0.1c0.6,1.2,2.5,0.4,2.1-0.9c-0.5-1.7-1.3-3.4-2.2-4.9
		c5.7-9,20.4-8.6,25.3,1C681.3,274.3,683.2,273.5,682.8,272.3z"/>
	<path fill="#D1D3D4" d="M807.4,347.8c-2.9-9.3-11-15.4-20.7-15.6c-8.5,0.2-15.7,4.9-19.3,12.3c-6.5-7.6-16.1-11.2-26.2-9.7
		c-9.2,1.4-16.8,8.1-20.5,16.4c-4.7-9.3-14.1-15.3-24.8-15.5c-2.2,0-4.3,0.3-6.4,0.8c-1.7-4.2-4.5-7.6-8.2-10.2
		c7.9-12,27.9-11.4,34.6,1.7c0.8,1.6,3.4,0.5,2.9-1.2c-2.8-9-10.4-15-19.8-15.6c-9.2-0.6-17.4,5.3-20.8,13.5
		c-11.9-5-25.5,1.1-29.4,13.8c-0.5,1.7,2.1,2.8,2.9,1.2c6.7-12.9,26.2-13.7,34.3-2.1c-7.1,2.8-12.6,8.2-15.6,15.2
		c-15.5-10.2-36.7-2.6-42.1,15.4c-0.5,1.7,2.1,2.8,2.9,1.2c9.3-18.3,38.2-18.3,47.5,0c0.8,1.6,3.4,0.5,2.9-1.2
		c-1.6-5.1-4.3-9.5-8.3-13.1c10.4-16.3,37.4-15.6,46.3,2c0.8,1.6,3.4,0.5,2.9-1.2c0-0.1-0.1-0.2-0.1-0.3
		c9.4-18.1,38.1-18.1,47.4,0.1c0.8,1.6,3.4,0.5,2.9-1.2c-0.7-2.4-1.7-4.6-3-6.8c7.8-12.3,28-11.8,34.8,1.4
		C805.3,350.6,807.9,349.5,807.4,347.8z"/>
</g>
</svg>
