<?xml version="1.0" encoding="utf-8"?>
<!-- Generator: Adobe Illustrator 18.0.0, SVG Export Plug-In . SVG Version: 6.00 Build 0)  -->
<!DOCTYPE svg PUBLIC "-//W3C//DTD SVG 1.1//EN" "http://www.w3.org/Graphics/SVG/1.1/DTD/svg11.dtd">
<svg version="1.1" id="Layer_1" xmlns="http://www.w3.org/2000/svg" xmlns:xlink="http://www.w3.org/1999/xlink" x="0px" y="0px"
	 viewBox="0 0 1136 640" enable-background="new 0 0 1136 640" xml:space="preserve">
<g>
	<path fill="#FFFFFF" d="M926,333.7c-12.5-9.5-25.4-11.5-36.4-8.6c-0.9-1.4-1.9-2.8-3-4.2c-16.8-12.8-34.4-15.4-49.1-11.3
		c-0.7-7.7-3.7-15.8-9.7-23.7c-19.9-15.1-41-11.3-53.3,1.3c-0.2-0.5-0.4-1-0.7-1.4c12.4-12.3,16.1-33.3,1-53
		c-12.5-9.5-25.4-11.5-36.4-8.6c-0.9-1.4-1.9-2.8-3-4.2c-16.8-12.8-34.4-15.4-49.1-11.3c-0.7-7.7-3.7-15.8-9.7-23.7
		c-30.8-23.5-64.8-1.3-63.6,28.4c-3.3-1.2-6.6-2.1-9.9-2.6c-1.6-4.8-4.1-9.6-7.7-14.3c-27-20.6-56.5-6-62.5,17.9
		c-16.2,5.1-27.5,21.1-25.4,39.4c-6.6-0.4-12.8,0.9-18.3,3.5c-6.6-1.6-13.1-1.5-18.9,0.1c-0.9-1.4-1.9-2.8-3-4.2
		c-16.8-12.8-34.4-15.4-49.1-11.3c-0.7-7.7-3.7-15.8-9.7-23.7c-30.8-23.5-64.8-1.3-63.6,28.4c-3.3-1.2-6.6-2.1-9.9-2.6
		c-1.6-4.8-4.1-9.6-7.7-14.3c-27-20.6-56.5-6-62.5,17.9c-16.2,5.1-27.5,21.1-25.4,39.4c-30.1-2-53.1,32.4-29.4,63.6
		c13.6,10.4,27.8,11.8,39.3,7.7c1.7,8.5,5.6,17.3,12.1,25.9c31.1,23.7,64.6,12.5,78.4-11.5c13.6,3.3,26.3-1,34.9-9.5
		c1.2,3.9,2.8,7.9,5,11.8c-6.2,12.2-5.7,28.2,5.9,43.5c13.6,10.4,27.8,11.8,39.3,7.7c1.7,8.5,5.6,17.3,12.1,25.9
		c31.1,23.7,64.6,12.5,78.4-11.5c13.6,3.3,26.3-1,34.9-9.5c2.1,6.9,5.6,14,10.9,21c31.1,23.7,64.6,12.5,78.4-11.5
		c11.7,2.8,22.8,0,31.1-6.2c2.1,5.9,5.4,11.8,9.8,17.7c31.1,23.7,64.6,12.5,78.4-11.5c13.6,3.3,26.3-1,34.9-9.5
		c2.1,6.9,5.6,14,10.9,21c31.1,23.7,64.6,12.5,78.4-11.5c30.2,7.3,56.4-22.8,41.6-53.5C937.3,374.4,941,353.4,926,333.7z"/>
	<path fill="#E6E7E8" d="M890.5,353.8c-2.8-9.2-10.9-15.3-20.5-15.5c-8.4,0.2-15.5,4.8-19.1,12.1c-6.4-7.6-16-11.1-26-9.6
		c-9.1,1.4-16.7,8-20.3,16.3c-4.6-9.2-13.9-15.1-24.5-15.3c-2.2,0-4.3,0.3-6.3,0.8c-1.7-4.1-4.4-7.5-8.1-10.1
		c7.8-11.9,27.6-11.3,34.3,1.6c0.8,1.6,3.4,0.5,2.9-1.2c-2.7-8.9-10.3-14.8-19.6-15.5c-9.1-0.6-17.2,5.3-20.6,13.4
		c-11.8-4.9-25.2,1.1-29.1,13.6c-0.5,1.7,2,2.8,2.9,1.2c6.6-12.8,25.9-13.5,34-2.1c-7,2.8-12.5,8.1-15.5,15.1
		c-15.3-10.1-36.3-2.5-41.6,15.2c-0.5,1.7,2.1,2.8,2.9,1.2c9.2-18.1,37.8-18.1,47,0c0.8,1.6,3.4,0.5,2.9-1.2
		c-1.5-5.1-4.3-9.4-8.2-12.9c10.3-16.1,37-15.4,45.8,2c0.8,1.6,3.4,0.5,2.9-1.2c0-0.1-0.1-0.2-0.1-0.3c9.3-17.9,37.7-17.9,46.9,0.1
		c0.8,1.6,3.4,0.5,2.9-1.2c-0.7-2.4-1.7-4.6-3-6.7c7.8-12.2,27.7-11.7,34.4,1.4C888.4,356.6,891,355.5,890.5,353.8z"/>
	<path fill="#E6E7E8" d="M560.5,303.1c-2-6.6-7.9-11.1-14.9-11.2c-6.1,0.1-11.2,3.5-13.9,8.8c-4.6-5.5-11.6-8.1-18.8-6.9
		c-6.6,1-12.1,5.8-14.7,11.8c-3.4-6.7-10.1-11-17.8-11.1c-1.6,0-3.1,0.2-4.6,0.6c-1.2-3-3.2-5.5-5.9-7.3c5.7-8.6,20-8.2,24.8,1.2
		c0.6,1.2,2.5,0.4,2.1-0.9c-2-6.4-7.5-10.8-14.2-11.2c-6.6-0.4-12.5,3.8-14.9,9.7c-8.6-3.6-18.3,0.8-21.1,9.9
		c-0.4,1.2,1.5,2,2.1,0.9c4.8-9.3,18.8-9.8,24.6-1.5c-5.1,2-9.1,5.9-11.2,10.9c-11.1-7.3-26.3-1.8-30.2,11c-0.4,1.2,1.5,2,2.1,0.9
		c6.7-13.1,27.4-13.1,34.1,0c0.6,1.2,2.5,0.3,2.1-0.9c-1.1-3.7-3.1-6.8-5.9-9.4c7.5-11.7,26.8-11.2,33.2,1.4
		c0.6,1.2,2.4,0.3,2.1-0.9c0-0.1,0-0.1-0.1-0.2c6.7-13,27.3-13,34,0.1c0.6,1.2,2.5,0.3,2.1-0.9c-0.5-1.7-1.2-3.3-2.1-4.9
		c5.6-8.8,20.1-8.5,25,1C559,305.1,560.8,304.3,560.5,303.1z"/>
	<path fill="#E6E7E8" d="M717.9,263.8c-2-6.6-7.9-11.1-14.9-11.2c-6.1,0.1-11.2,3.5-13.9,8.8c-4.6-5.5-11.6-8.1-18.8-6.9
		c-6.6,1-12.1,5.8-14.7,11.8c-3.4-6.7-10.1-11-17.8-11.1c-1.6,0-3.1,0.2-4.6,0.6c-1.2-3-3.2-5.5-5.9-7.3c5.7-8.6,20-8.2,24.8,1.2
		c0.6,1.2,2.5,0.4,2.1-0.9c-2-6.4-7.5-10.8-14.2-11.2c-6.6-0.4-12.5,3.8-14.9,9.7c-8.6-3.6-18.3,0.8-21.1,9.9
		c-0.4,1.2,1.5,2,2.1,0.9c4.8-9.3,18.8-9.8,24.6-1.5c-5.1,2-9.1,5.9-11.2,10.9c-11.1-7.3-26.3-1.8-30.2,11c-0.4,1.2,1.5,2,2.1,0.9
		c6.7-13.1,27.4-13.1,34.1,0c0.6,1.2,2.5,0.3,2.1-0.9c-1.1-3.7-3.1-6.8-5.9-9.4c7.5-11.7,26.8-11.2,33.2,1.4
		c0.6,1.2,2.4,0.3,2.1-0.9c0-0.1,0-0.1-0.1-0.2c6.7-13,27.3-13,34,0.1c0.6,1.2,2.5,0.3,2.1-0.9c-0.5-1.7-1.2-3.3-2.1-4.9
		c5.6-8.8,20.1-8.5,25,1C716.5,265.8,718.3,265,717.9,263.8z"/>
</g>
</svg>
