<?xml version="1.0" encoding="utf-8"?>
<!-- Generator: Adobe Illustrator 18.0.0, SVG Export Plug-In . SVG Version: 6.00 Build 0)  -->
<!DOCTYPE svg PUBLIC "-//W3C//DTD SVG 1.1//EN" "http://www.w3.org/Graphics/SVG/1.1/DTD/svg11.dtd">
<svg version="1.1" id="Layer_1" xmlns="http://www.w3.org/2000/svg" xmlns:xlink="http://www.w3.org/1999/xlink" x="0px" y="0px"
	 viewBox="0 0 1136 640" enable-background="new 0 0 1136 640" xml:space="preserve">
<g>
	<g>
		<g>
			<path fill="#E6E7E8" d="M723.2,241.9c-10.3-7.7-21.1-9.4-30.2-7c-0.8-1.2-1.6-2.3-2.5-3.5c-14-10.5-28.5-12.6-40.7-9.2
				c-0.5-6.3-3-12.9-8-19.3c-25.5-19.1-53.7-1-52.7,23.1c-2.7-1-5.5-1.7-8.2-2.1c-1.3-3.9-3.4-7.8-6.4-11.7
				c-22.4-16.8-46.8-4.9-51.8,14.6c-13.4,4.2-22.8,17.2-21.1,32.2c-5.5-0.4-10.6,0.7-15.2,2.8c-5.5-1.3-10.8-1.2-15.7,0.1
				c-0.8-1.2-1.6-2.3-2.5-3.5c-14-10.5-28.5-12.6-40.7-9.2c-0.5-6.3-3-12.9-8-19.3c-25.5-19.1-53.7-1-52.7,23.1
				c-2.7-1-5.5-1.7-8.2-2.1c-1.3-3.9-3.4-7.8-6.4-11.7c-22.4-16.8-46.8-4.9-51.8,14.6c-13.4,4.2-22.8,17.2-21.1,32.2
				c-25-1.6-44,26.4-24.4,51.8c11.3,8.4,23,9.6,32.6,6.3c1.4,6.9,4.6,14.1,10,21.1c25.8,19.3,53.5,10.2,65-9.4
				c11.3,2.7,21.8-0.8,28.9-7.7c1.7,5.7,4.6,11.4,9,17.1c25.8,19.3,53.5,10.2,65-9.4c22.8,5.4,42.9-14.5,36.9-37.1
				c2.5-0.2,5-0.8,7.3-1.6c1.4,6.9,4.6,14.1,10,21.1c25.8,19.3,53.5,10.2,65-9.4c11.3,2.7,21.8-0.8,28.9-7.7
				c1.7,5.7,4.6,11.4,9,17.1c25.8,19.3,53.5,10.2,65-9.4c25.1,5.9,46.7-18.6,34.5-43.7C732.6,275.1,735.6,257.9,723.2,241.9z"/>
			<path fill="#E6E7E8" d="M880.9,338.2c-10.3-7.7-21.1-9.4-30.2-7c-0.8-1.2-1.6-2.3-2.5-3.5c-14-10.5-28.5-12.6-40.7-9.2
				c-0.5-6.3-3-12.9-8-19.3c-25.5-19.1-53.7-1-52.7,23.1c-2.7-1-5.5-1.7-8.2-2.1c-1.3-3.9-3.4-7.8-6.4-11.7
				c-22.4-16.8-46.8-4.9-51.8,14.6c-13.4,4.2-22.8,17.2-21.1,32.2c-25-1.6-44,26.4-24.4,51.8c11.3,8.4,23,9.6,32.6,6.3
				c1.4,6.9,4.6,14.1,10,21.1c25.8,19.3,53.5,10.2,65-9.4c11.3,2.7,21.8-0.8,28.9-7.7c1.7,5.7,4.6,11.4,9,17.1
				c25.8,19.3,53.5,10.2,65-9.4c25.1,5.9,46.7-18.6,34.5-43.7C890.3,371.4,893.4,354.3,880.9,338.2z"/>
		</g>
		<path fill="#E6E7E8" d="M762.6,303.9c-10.3-7.7-21.1-9.4-30.2-7c-0.8-1.2-1.6-2.3-2.5-3.5c-14-10.5-28.5-12.6-40.7-9.2
			c-0.5-6.3-3-12.9-8-19.3c-25.5-19.1-53.7-1-52.7,23.1c-2.7-1-5.5-1.7-8.2-2.1c-1.3-3.9-3.4-7.8-6.4-11.7
			c-22.4-16.8-46.8-4.9-51.8,14.6C548.7,293,539.3,306,541,321c-25-1.6-44,26.4-24.4,51.8c11.3,8.4,23,9.6,32.6,6.3
			c1.4,6.9,4.6,14.1,10,21.1c25.8,19.3,53.5,10.2,65-9.4c11.3,2.7,21.8-0.8,28.9-7.7c1.7,5.7,4.6,11.4,9,17.1
			c25.8,19.3,53.5,10.2,65-9.4c25.1,5.9,46.7-18.6,34.5-43.7C772,337.1,775,320,762.6,303.9z"/>
	</g>
	<path fill="#D1D3D4" d="M664.1,262.1c-2.1-6.7-8-11.2-15.1-11.4c-6.2,0.1-11.4,3.6-14.1,8.9c-4.7-5.6-11.7-8.2-19.1-7
		c-6.7,1-12.3,5.9-14.9,12c-3.4-6.8-10.2-11.1-18-11.3c-1.6,0-3.1,0.2-4.7,0.6c-1.2-3-3.3-5.6-6-7.4c5.8-8.8,20.3-8.3,25.2,1.2
		c0.6,1.2,2.5,0.4,2.1-0.9c-2-6.5-7.6-10.9-14.4-11.4c-6.7-0.4-12.6,3.9-15.2,9.8c-8.7-3.6-18.5,0.8-21.4,10
		c-0.4,1.2,1.5,2.1,2.1,0.9c4.9-9.4,19.1-9.9,25-1.5c-5.2,2.1-9.2,6-11.4,11.1c-11.3-7.5-26.7-1.9-30.6,11.2
		c-0.4,1.2,1.5,2.1,2.1,0.9c6.8-13.3,27.8-13.3,34.6,0c0.6,1.2,2.5,0.4,2.1-0.9c-1.1-3.7-3.2-6.9-6-9.5c7.6-11.9,27.2-11.3,33.7,1.4
		c0.6,1.2,2.5,0.4,2.1-0.9c0-0.1,0-0.1-0.1-0.2c6.8-13.2,27.7-13.2,34.5,0.1c0.6,1.2,2.5,0.4,2.1-0.9c-0.5-1.7-1.3-3.4-2.2-4.9
		c5.7-9,20.4-8.6,25.3,1C662.6,264.2,664.5,263.4,664.1,262.1z"/>
	<path fill="#D1D3D4" d="M823.8,360.7c-2.8-9.1-10.8-15.1-20.2-15.3c-8.3,0.2-15.3,4.8-18.9,12c-6.3-7.5-15.8-11-25.6-9.5
		c-9,1.4-16.5,7.9-20.1,16.1c-4.6-9.1-13.7-15-24.2-15.1c-2.1,0-4.2,0.3-6.3,0.8c-1.7-4.1-4.4-7.5-8-9.9
		c7.7-11.8,27.2-11.2,33.9,1.6c0.8,1.6,3.3,0.5,2.8-1.2c-2.7-8.8-10.2-14.7-19.3-15.3c-9-0.6-17,5.2-20.4,13.2
		c-11.7-4.8-24.9,1.1-28.7,13.5c-0.5,1.7,2,2.8,2.8,1.2c6.5-12.6,25.6-13.4,33.6-2c-6.9,2.8-12.3,8-15.3,14.9
		c-15.1-10-35.8-2.5-41.1,15c-0.5,1.7,2,2.8,2.8,1.2c9.1-17.8,37.3-17.8,46.4,0c0.8,1.6,3.3,0.5,2.8-1.2c-1.5-5-4.2-9.3-8.1-12.8
		c10.2-15.9,36.5-15.2,45.3,1.9c0.8,1.6,3.3,0.5,2.8-1.2c0-0.1-0.1-0.2-0.1-0.3c9.2-17.7,37.2-17.7,46.3,0.1
		c0.8,1.6,3.3,0.5,2.8-1.2c-0.7-2.3-1.7-4.5-2.9-6.6c7.7-12,27.3-11.5,34,1.3C821.8,363.5,824.3,362.4,823.8,360.7z"/>
</g>
</svg>
