<?xml version="1.0" encoding="utf-8"?>
<!-- Generator: Adobe Illustrator 18.0.0, SVG Export Plug-In . SVG Version: 6.00 Build 0)  -->
<!DOCTYPE svg PUBLIC "-//W3C//DTD SVG 1.1//EN" "http://www.w3.org/Graphics/SVG/1.1/DTD/svg11.dtd">
<svg version="1.1" id="Layer_1" xmlns="http://www.w3.org/2000/svg" xmlns:xlink="http://www.w3.org/1999/xlink" x="0px" y="0px"
	 viewBox="0 0 1136 640" enable-background="new 0 0 1136 640" xml:space="preserve">
<g>
	<path fill="#FFFFFF" d="M969,335.3c-14-10.6-28.5-12.9-40.8-9.6c-1-1.6-2.2-3.2-3.4-4.8c-18.9-14.4-38.5-17.3-55-12.7
		c-0.7-8.6-4.1-17.7-10.8-26.5c-22.2-16.9-46-12.6-59.7,1.5c-0.2-0.5-0.5-1.1-0.7-1.6c13.9-13.7,18-37.3,1.2-59.4
		c-14-10.6-28.5-12.9-40.8-9.6c-1-1.6-2.2-3.2-3.4-4.8c-18.9-14.4-38.5-17.3-55-12.7c-0.7-8.6-4.1-17.7-10.8-26.5
		c-34.5-26.3-72.5-1.4-71.3,31.8c-3.7-1.4-7.4-2.3-11-2.9c-1.8-5.3-4.6-10.7-8.7-16.1c-30.3-23.1-63.3-6.8-70,20
		c-18.1,5.7-30.8,23.7-28.5,44.2c-7.4-0.5-14.4,1-20.5,3.9c-7.4-1.8-14.6-1.7-21.2,0.1c-1-1.6-2.2-3.2-3.4-4.8
		c-18.9-14.4-38.5-17.3-55-12.7c-0.7-8.6-4.1-17.7-10.8-26.5c-34.5-26.3-72.5-1.4-71.3,31.8c-3.7-1.4-7.4-2.3-11-2.9
		c-1.8-5.3-4.6-10.7-8.7-16.1c-30.3-23.1-63.3-6.8-70,20c-18.1,5.7-30.8,23.7-28.5,44.2c-33.8-2.2-59.5,36.3-32.9,71.2
		c15.2,11.6,31.1,13.2,44.1,8.6c1.9,9.5,6.2,19.3,13.6,29c34.8,26.5,72.4,14,87.8-12.9c15.2,3.7,29.5-1.1,39.1-10.6
		c1.3,4.4,3.1,8.8,5.6,13.2c-6.9,13.6-6.4,31.6,6.6,48.7c15.2,11.6,31.1,13.2,44.1,8.6c1.9,9.5,6.2,19.3,13.6,29
		c34.8,26.5,72.4,14,87.8-12.9c15.2,3.7,29.5-1.1,39.1-10.6c2.3,7.8,6.3,15.7,12.2,23.5c34.8,26.5,72.4,14,87.8-12.9
		c13.1,3.2,25.5,0,34.9-7c2.4,6.6,6,13.3,11,19.8c34.8,26.5,72.4,14,87.8-12.9c15.2,3.7,29.5-1.1,39.1-10.6
		c2.3,7.8,6.3,15.7,12.2,23.5c34.8,26.5,72.4,14,87.8-12.9c33.9,8.1,63.2-25.6,46.6-60C981.7,381,985.8,357.4,969,335.3z"/>
	<path fill="#E6E7E8" d="M873.8,359.1c-2.8-9.2-10.9-15.3-20.5-15.5c-8.4,0.2-15.5,4.8-19.1,12.1c-6.4-7.6-16-11.1-26-9.6
		c-9.1,1.4-16.7,8-20.3,16.3c-4.6-9.2-13.9-15.1-24.5-15.3c-2.2,0-4.3,0.3-6.3,0.8c-1.7-4.1-4.4-7.5-8.1-10.1
		c7.8-11.9,27.6-11.3,34.3,1.6c0.8,1.6,3.4,0.5,2.9-1.2c-2.7-8.9-10.3-14.8-19.6-15.5c-9.1-0.6-17.2,5.3-20.6,13.4
		c-11.8-4.9-25.2,1.1-29.1,13.6c-0.5,1.7,2,2.8,2.9,1.2c6.6-12.8,25.9-13.5,34-2.1c-7,2.8-12.5,8.1-15.5,15.1
		c-15.3-10.1-36.3-2.5-41.6,15.2c-0.5,1.7,2.1,2.8,2.9,1.2c9.2-18.1,37.8-18.1,47,0c0.8,1.6,3.4,0.5,2.9-1.2
		c-1.5-5.1-4.3-9.4-8.2-12.9c10.3-16.1,37-15.4,45.8,2c0.8,1.6,3.4,0.5,2.9-1.2c0-0.1-0.1-0.2-0.1-0.3c9.3-17.9,37.7-17.9,46.9,0.1
		c0.8,1.6,3.4,0.5,2.9-1.2c-0.7-2.4-1.7-4.6-3-6.7c7.8-12.2,27.7-11.7,34.4,1.4C871.8,361.9,874.3,360.8,873.8,359.1z"/>
	<path fill="#E6E7E8" d="M742.9,260.4c-2.8-9.2-10.9-15.3-20.5-15.5c-8.4,0.2-15.5,4.8-19.1,12.1c-6.4-7.6-16-11.1-26-9.6
		c-9.1,1.4-16.7,8-20.3,16.3c-4.6-9.2-13.9-15.1-24.5-15.3c-2.2,0-4.3,0.3-6.3,0.8c-1.7-4.1-4.4-7.5-8.1-10.1
		c7.8-11.9,27.6-11.3,34.3,1.6c0.8,1.6,3.4,0.5,2.9-1.2c-2.7-8.9-10.3-14.8-19.6-15.5c-9.1-0.6-17.2,5.3-20.6,13.4
		c-11.8-4.9-25.2,1.1-29.1,13.6c-0.5,1.7,2,2.8,2.9,1.2c6.6-12.8,25.9-13.5,34-2.1c-7,2.8-12.5,8.1-15.5,15.1
		c-15.3-10.1-36.3-2.5-41.6,15.2c-0.5,1.7,2.1,2.8,2.9,1.2c9.2-18.1,37.8-18.1,47,0c0.8,1.6,3.4,0.5,2.9-1.2
		c-1.5-5.1-4.3-9.4-8.2-12.9c10.3-16.1,37-15.4,45.8,2c0.8,1.6,3.4,0.5,2.9-1.2c0-0.1-0.1-0.2-0.1-0.3c9.3-17.9,37.7-17.9,46.9,0.1
		c0.8,1.6,3.4,0.5,2.9-1.2c-0.7-2.4-1.7-4.6-3-6.7c7.8-12.2,27.7-11.7,34.4,1.4C740.9,263.2,743.4,262.1,742.9,260.4z"/>
</g>
</svg>
