<?xml version="1.0" encoding="utf-8"?>
<!-- Generator: Adobe Illustrator 18.0.0, SVG Export Plug-In . SVG Version: 6.00 Build 0)  -->
<!DOCTYPE svg PUBLIC "-//W3C//DTD SVG 1.1//EN" "http://www.w3.org/Graphics/SVG/1.1/DTD/svg11.dtd">
<svg version="1.1" id="Layer_1" xmlns="http://www.w3.org/2000/svg" xmlns:xlink="http://www.w3.org/1999/xlink" x="0px" y="0px"
	 viewBox="0 0 1136 640" enable-background="new 0 0 1136 640" xml:space="preserve">
<g>
	<g>
		<path fill="#D1D3D4" d="M711.3,259.6c-8.6-6.6-17.6-8-25.2-5.9c-0.6-1-1.3-2-2.1-2.9c-11.7-8.9-23.8-10.7-34-7.8
			c-0.5-5.3-2.5-10.9-6.7-16.4c-21.3-16.3-44.9-0.9-44.1,19.7c-2.3-0.8-4.6-1.4-6.8-1.8c-1.1-3.3-2.8-6.6-5.4-9.9
			c-18.7-14.3-39.1-4.2-43.3,12.4c-11.2,3.5-19.1,14.6-17.6,27.3c-4.6-0.3-8.9,0.6-12.7,2.4c-4.6-1.1-9-1-13.1,0
			c-0.6-1-1.3-2-2.1-2.9c-11.7-8.9-23.8-10.7-34-7.8c-0.5-5.3-2.5-10.9-6.7-16.4c-21.3-16.3-44.9-0.9-44.1,19.7
			c-2.3-0.8-4.6-1.4-6.8-1.8c-1.1-3.3-2.8-6.6-5.4-9.9c-18.7-14.3-39.1-4.2-43.3,12.4c-11.2,3.5-19.1,14.6-17.6,27.3
			c-20.9-1.4-36.8,22.4-20.4,44c9.4,7.2,19.3,8.2,27.2,5.3c1.2,5.9,3.9,12,8.4,17.9c21.5,16.4,44.8,8.7,54.3-8
			c9.4,2.3,18.2-0.7,24.2-6.6c1.4,4.8,3.9,9.7,7.6,14.5c21.5,16.4,44.8,8.7,54.3-8c19.1,4.6,35.8-12.3,30.9-31.5
			c2.1-0.2,4.2-0.7,6.1-1.4c1.2,5.9,3.9,12,8.4,17.9c21.5,16.4,44.8,8.7,54.3-8c9.4,2.3,18.2-0.7,24.2-6.6c1.4,4.8,3.9,9.7,7.6,14.5
			c21.5,16.4,44.8,8.7,54.3-8c20.9,5,39.1-15.8,28.8-37.1C719.2,287.8,721.7,273.3,711.3,259.6z"/>
		<g>
			<path fill="#D1D3D4" d="M816,329.5c-8.6-6.6-17.6-8-25.2-5.9c-0.6-1-1.3-2-2.1-2.9c-11.7-8.9-23.8-10.7-34-7.8
				c-0.5-5.3-2.5-10.9-6.7-16.4c-21.3-16.3-44.9-0.9-44.1,19.7c-2.3-0.8-4.6-1.4-6.8-1.8c-1.1-3.3-2.8-6.6-5.4-9.9
				c-18.7-14.3-39.1-4.2-43.3,12.4c-11.2,3.5-19.1,14.6-17.6,27.3c-20.9-1.4-36.8,22.4-20.4,44c9.4,7.2,19.3,8.2,27.2,5.3
				c1.2,5.9,3.9,12,8.4,17.9c21.5,16.4,44.8,8.7,54.3-8c9.4,2.3,18.2-0.7,24.2-6.6c1.4,4.8,3.9,9.7,7.6,14.5
				c21.5,16.4,44.8,8.7,54.3-8c20.9,5,39.1-15.8,28.8-37.1C823.8,357.7,826.4,343.1,816,329.5z"/>
		</g>
		<path fill="#D1D3D4" d="M647.2,329.5c-8.6-6.6-17.6-8-25.2-5.9c-0.6-1-1.3-2-2.1-2.9c-11.7-8.9-23.8-10.7-34-7.8
			c-0.5-5.3-2.5-10.9-6.7-16.4c-21.3-16.3-44.9-0.9-44.1,19.7c-2.3-0.8-4.6-1.4-6.8-1.8c-1.1-3.3-2.8-6.6-5.4-9.9
			c-18.7-14.3-39.1-4.2-43.3,12.4c-11.2,3.5-19.1,14.6-17.6,27.3c-20.9-1.4-36.8,22.4-20.4,44c9.4,7.2,19.3,8.2,27.2,5.3
			c1.2,5.9,3.9,12,8.4,17.9c21.5,16.4,44.8,8.7,54.3-8c9.4,2.3,18.2-0.7,24.2-6.6c1.4,4.8,3.9,9.7,7.6,14.5
			c21.5,16.4,44.8,8.7,54.3-8c20.9,5,39.1-15.8,28.8-37.1C655.1,357.7,657.6,343.1,647.2,329.5z"/>
	</g>
	<path fill="#BCBEC0" d="M659.1,283.5c-1.8-5.7-6.8-9.6-12.8-9.7c-5.2,0.1-9.7,3-12,7.6c-4-4.7-10-7-16.3-6
		c-5.7,0.9-10.4,5-12.7,10.2c-2.9-5.8-8.7-9.5-15.4-9.6c-1.4,0-2.7,0.2-4,0.5c-1.1-2.6-2.8-4.7-5.1-6.3c4.9-7.5,17.3-7.1,21.5,1
		c0.5,1,2.1,0.3,1.8-0.8c-1.7-5.6-6.5-9.3-12.3-9.7c-5.7-0.4-10.8,3.3-12.9,8.4c-7.4-3.1-15.8,0.7-18.2,8.5
		c-0.3,1.1,1.3,1.8,1.8,0.8c4.2-8,16.2-8.5,21.3-1.3c-4.4,1.8-7.8,5.1-9.7,9.4c-9.6-6.3-22.7-1.6-26.1,9.5c-0.3,1.1,1.3,1.8,1.8,0.8
		c5.8-11.3,23.7-11.3,29.4,0c0.5,1,2.1,0.3,1.8-0.8c-1-3.2-2.7-5.9-5.1-8.1c6.5-10.1,23.2-9.6,28.7,1.2c0.5,1,2.1,0.3,1.8-0.8
		c0-0.1,0-0.1-0.1-0.2c5.8-11.2,23.6-11.2,29.4,0.1c0.5,1,2.1,0.3,1.8-0.8c-0.5-1.5-1.1-2.9-1.9-4.2c4.9-7.6,17.4-7.3,21.6,0.9
		C657.8,285.3,659.4,284.6,659.1,283.5z"/>
</g>
</svg>
