<?xml version="1.0" encoding="utf-8"?>
<!-- Generator: Adobe Illustrator 18.0.0, SVG Export Plug-In . SVG Version: 6.00 Build 0)  -->
<!DOCTYPE svg PUBLIC "-//W3C//DTD SVG 1.1//EN" "http://www.w3.org/Graphics/SVG/1.1/DTD/svg11.dtd">
<svg version="1.1" id="Layer_1" xmlns="http://www.w3.org/2000/svg" xmlns:xlink="http://www.w3.org/1999/xlink" x="0px" y="0px"
	 viewBox="0 0 640 640" enable-background="new 0 0 640 640" xml:space="preserve">
<g>
	<path opacity="0.4" fill="#231F20" d="M603.9,298c0-0.2,0-0.4,0-0.6c0-0.2,0-0.4,0-0.6c-0.2-4.7-1.5-9.1-3.8-13.2
		c-1.8-30.5-4.1-61.1-8.8-91.3c-1.1-7-1.9-15.1-5.3-21.4c-3.4-6.3-12.3-7.9-18.7-9.1c-24.6-4.7-49.4-8.3-74.3-11.2
		c-39.3-4.6-79.8-8-119.3-3.5c-10.8,1.2-21.6,3.1-31.9,6.7c-7.6,2.7-14.9,6.3-20.6,11.9c-1.2-2.9-3.1-5.4-6.5-6.9
		c-4.3-1.9-8.9-2.9-13.5-3.8c-14.8-2.8-30-3.9-45-4.7c-38-2.1-76.6-1.9-114.5,2.2c-14.1,1.5-28.8,3.3-42.2,8.2
		c-4.3,1.6-8.9,3.6-12.2,6.9c-5.1,5.2-7.2,13.7-9.1,20.4c-3.4,12-5.7,24.3-7.8,36.6c-2.6,15.1-4.6,30.4-6.3,45.6
		c-11.9,2.9-23.6,12.8-27.1,24.2c-4.7,15.2,7.9,30.4,22.3,33.9c-1.7,31.1-2.3,62.7,1.9,93.6c1.4,10.4,3.5,21.2,8.3,30.7
		c3,5.9,7.6,9.8,13.5,12.5c13.5,6.3,28.9,8.8,43.6,10.9c20.2,2.9,40.6,4.4,61,5.2c20.8,0.8,41.7,0.8,62.5,0
		c16.7-0.7,33.4-1.8,49.9-4.7c4.9-0.9,9.8-1.9,14.4-3.7c2.3-0.9,4.3-1.9,6.2-3.4c2.8-2.3,4.4-6,5.6-9.8
		c15.6,16.3,39.4,24.3,60.7,29.2c32,7.4,65.2,7.2,97.8,5.1c16-1.1,32-2.9,47.8-5.7c12.6-2.3,25.2-5.2,37-10
		c8.4-3.4,17.1-7.7,22.8-15c4.6-6,5.9-14.3,7-21.6c3.1-19.4,3.5-39.2,3.8-58.7c0.3-24.8-0.4-49.7-1.5-74.5
		C602.9,305,603.8,301.6,603.9,298z"/>
	<g>
		<g>
			<path fill="#631E3A" d="M562.9,165.3c4.1,0.9,12.1,2.3,14.9,6.4c11,16.1,26.6,252,7.5,282.2c-12.7,20.1-77,31.3-143.7,30.9
				c-59.6-0.3-123.2-20.7-124.5-59.7c-1.8-56,0.3-103.6,0.3-103.6s-21.6-129.5,7.7-154.9C370.3,127.6,562.9,165.3,562.9,165.3z"/>
			<g>
				<path fill="#F7941E" d="M560,270.9c-11.8,8.3-11.9,28.9-8.5,41.3c1.7,6,4.6,11.2,11.3,12.2c7.4,1.1,32.3-11.5,32.3-29.7
					S572,262.5,560,270.9z"/>
			</g>
			<g>
				<path fill="#D37C1E" d="M555.6,273.5c-10.6,7.4-10.7,25.9-7.6,37c1.5,5.4,4.1,10.1,10.2,10.9c6.7,0.9,29-10.3,29-26.7
					C587.2,278.4,566.4,265.9,555.6,273.5z"/>
			</g>
			<g>
				<path fill="#FFCD8A" d="M329.2,412.6c-14.6,81.3,230.6,70.9,251.2,31c9-17.5,3.2-239.6-6.7-252.3c-9.9-12.7-40.8-18.2-40.8-18.2
					"/>
				<g>
					<path fill="#FFCD8A" d="M328.8,412.5c-1.9,10.4,0.7,20.6,7.5,28.8c7.6,9.2,18.7,15,29.7,19.3c14.2,5.5,29.4,8.7,44.5,10.7
						c17,2.3,34.1,3.2,51.2,3c16.8-0.1,33.6-1.3,50.3-3.6c14-2,28.1-4.7,41.6-9.3c5.1-1.8,10.2-3.8,15-6.5c3.6-2,7.2-4.4,9.9-7.5
						c1.9-2.2,3.1-4.5,3.7-7.2c0.9-3.9,1.2-7.9,1.6-11.9c1.2-13.5,1.5-27,1.6-40.5c0.2-18,0.1-36.1-0.2-54.1c-0.3-19-0.9-38-1.8-57
						c-0.7-16.5-1.7-32.9-3.1-49.4c-0.9-10.3-1.7-21-4.1-31.1c-0.3-1.3-0.7-2.6-1.2-3.8c-0.9-2-2.6-3.6-4.3-4.9
						c-7.6-6.4-17.9-9.8-27.3-12.4c-3.4-0.9-6.8-1.8-10.2-2.4c-0.6-0.1-0.8,0.8-0.2,0.9c6.4,1.1,12.7,2.9,18.9,5.1
						c5,1.8,10,3.9,14.5,6.8c2.1,1.3,4,2.8,5.8,4.6c0.7,0.7,1.3,1.4,1.8,2.2c1.3,2.5,1.8,5.6,2.3,8.4c0.9,5,1.5,10.1,2.1,15.2
						c1.6,15,2.6,30,3.4,45.1c1,18.6,1.7,37.2,2.2,55.9c0.5,18.7,0.8,37.4,0.7,56.1c0,15.2-0.2,30.4-1.1,45.6
						c-0.3,5.2-0.6,10.4-1.3,15.6c-0.4,3-0.7,6.2-1.8,8.9c-1.2,3-4,5.6-6.6,7.5c-3.8,2.9-8.2,5.1-12.5,7
						c-12.1,5.2-25.3,8.3-38.2,10.6c-16.2,2.9-32.7,4.5-49.1,5.1c-17.3,0.7-34.6,0.3-51.8-1.4c-15.8-1.5-31.6-4.2-46.8-8.9
						c-12-3.7-24.3-8.9-33.7-17.5c-7.8-7-12.7-16.5-12.4-27.1c0.1-1.8,0.3-3.7,0.6-5.5C329.8,412.1,328.9,411.9,328.8,412.5
						L328.8,412.5z"/>
				</g>
			</g>
			<g>
				<g>
					<path fill="#F7941E" d="M76.5,319.3c10.6-7.4,10.7-25.9,7.6-37c-1.5-5.4-4.1-10.1-10.2-10.9c-6.7-0.9-29,10.3-29,26.7
						S65.7,326.8,76.5,319.3z"/>
				</g>
				<g>
					<path fill="#F9AD5A" d="M71.3,314.1c5.7-4,5.8-14,4.1-20c-0.8-2.9-2.2-5.4-5.5-5.9c-3.6-0.5-15.7,5.6-15.7,14.4
						S65.5,318.1,71.3,314.1z"/>
				</g>
			</g>
			<path fill="#631E3A" d="M316.5,164.2c9.9,14.8,23.9,281.5,0.4,297.1c-22.8,15.1-200.5,15.4-233.9-8.7s-8.8-257.7,10.4-282.1
				S306.7,149.6,316.5,164.2z"/>
			<g>
				<path fill="#F9AD5A" d="M580.1,437.3c-1.3,3.5-2.8,7.7-5.6,10.3c-1.1,1-2.5,1.6-3.8,2.2c-4,1.8-8.4,2.9-12.6,3.9
					c-6.2,1.5-12.4,2.5-18.6,3.5c-16.6,2.5-33.3,3.9-50,4.7c-19.1,1-38.3,1.1-57.5,0.3c-18.2-0.8-36.4-2.5-54.3-6
					c-13.4-2.7-27.3-6.3-39-13.6c1.1,1.1,2.2,2.1,3.4,3.2c6.4,3.4,13.5,5.8,20.3,7.7c16.4,4.7,33.5,7,50.5,8.5
					c19.1,1.6,38.4,2,57.6,1.6c17.9-0.4,35.8-1.4,53.7-3.4c13-1.4,26.2-3.2,38.8-6.7c3.6-1,7.3-2.1,10.6-4c2.1-1.3,3.5-3.3,4.7-5.4
					c1.9-3.4,3.2-7.2,4.5-10.9c0.2-1.4,0.3-2.8,0.4-4.4C582.2,431.6,581.2,434.4,580.1,437.3z"/>
				<path fill="#F9AD5A" d="M550.8,459c-14.3,2.8-28.8,4.3-43.3,5.5c-17.8,1.4-35.6,2.1-53.4,2c-18.1-0.1-36.2-1-54.2-3.1
					c-15.4-1.8-30.9-4.5-45.6-9.8c-0.3-0.1-0.6-0.2-0.9-0.3c1.9,1,3.9,2,5.9,3c0.3,0.1,0.7,0.2,1,0.3c15.4,4.6,31.4,7,47.3,8.6
					c18.2,1.8,36.4,2.4,54.7,2.2c17.5-0.1,35-1,52.5-2.6c13.7-1.3,27.4-2.9,40.8-5.9c2.6-0.6,5.2-1.2,7.8-1.9c1.8-0.8,3.5-1.7,5-2.6
					c-1,0.4-2,0.7-2.9,1C560.8,457,555.8,458.1,550.8,459z"/>
				<path fill="#F9AD5A" d="M454.1,470.3c-18.1-0.1-36.2-1-54.2-3.1c-5.3-0.6-10.6-1.4-15.9-2.3c3.9,1,7.8,1.9,11.9,2.7
					c3.9,0.5,7.8,0.9,11.8,1.3c18.2,1.8,36.4,2.4,54.7,2.2c17.5-0.1,35-1,52.5-2.6c6.1-0.6,12.1-1.2,18.2-2
					c3.6-0.8,7.1-1.6,10.4-2.5c-11.9,2-23.9,3.2-35.9,4.2C489.8,469.7,471.9,470.4,454.1,470.3z"/>
				<path fill="#F9AD5A" d="M410.8,458.3c18.8,1.8,37.6,2.4,56.5,2.2c17.8-0.2,35.6-1.1,53.2-3c13.3-1.4,26.7-3.1,39.7-6.6
					c4-1.1,8-2.3,11.6-4.2c1.3-0.7,2.5-1.4,3.5-2.5c1.9-2.2,2.9-5.1,3.8-7.9c3-9.4,3.7-19.6,4.4-29.4c0.9-14,1-28.1,0.8-42.2
					c-0.4-30.5-2.5-60.9-4.6-91.4c-1.6-23.2-3.3-46.4-5.1-69.5c-0.2-2.9-0.5-5.8-0.7-8.6c-0.1-0.1-0.1-0.2-0.2-0.3
					c-0.3-0.3-0.6-0.7-0.9-1c1,12.4,2,24.9,2.9,37.3c2.1,27.7,4,55.5,5.6,83.3c1.7,30,3.1,60.2,1.3,90.2
					c-0.6,10.2-1.4,20.7-4.2,30.5c-0.8,2.9-1.9,6-3.8,8.3c-0.9,1.1-2.2,1.8-3.4,2.5c-3.7,1.9-7.8,3.1-11.8,4.1
					c-5.8,1.5-11.8,2.6-17.8,3.6c-16,2.6-32.1,4-48.2,4.9c-18.7,1-37.5,1.2-56.2,0.4c-18.1-0.7-36.3-2.3-54.1-5.5
					c-14.1-2.6-28.7-6.1-41.3-13.1c-3.4-1.9-6.6-4-9.5-6.6c0.5,0.9,1,1.8,1.6,2.6c8,6.4,18.2,10.1,27.8,13
					C377.6,454.2,394.2,456.7,410.8,458.3z"/>
				<path fill="#F9AD5A" d="M362.1,446c16.2,4.8,33,7.2,49.8,8.7c18.8,1.7,37.8,2.2,56.6,1.9c17.6-0.3,35.2-1.3,52.7-3.3
					c12.8-1.5,25.7-3.2,38.1-6.9c3.5-1.1,7.2-2.3,10.3-4.3c1.9-1.3,3.3-3,4.4-5c2.1-3.7,3.3-8,4.3-12.1c3-12.9,3.7-26.3,4-39.5
					c0.3-11.5,0.1-23-0.3-34.5c-0.7-23.7-2.1-47.4-3.9-71c-1.5-20.5-3.3-41.1-5.2-61.6c-0.9-9-1.7-17.9-2.7-26.9
					c-0.3-0.3-0.7-0.6-1-0.9c0.8,7.3,1.5,14.6,2.2,21.8c1.9,19.6,3.6,39.2,5.1,58.9c1.8,23.7,3.3,47.4,4.2,71.1
					c0.4,11.1,0.7,22.1,0.7,33.2c0,13.9-0.4,27.9-2.6,41.7c-0.8,5-1.8,10.1-3.6,14.9c-1.1,3-2.6,6.3-5.1,8.4c-2.5,2.2-6,3.3-9.1,4.4
					c-11.8,3.9-24.5,5.7-36.8,7.2c-17.3,2.1-34.7,3.2-52.1,3.6c-18.9,0.4-37.9,0-56.7-1.5c-17.1-1.4-34.2-3.7-50.7-8.3
					c-11.6-3.2-24-7.6-33-16l-1.6-0.4c0,0.1,0,0.1,0.1,0.2C338.6,438.1,350.8,442.6,362.1,446z"/>
				<path fill="#F9AD5A" d="M410.3,451.6c18.8,1.7,37.8,2.2,56.6,1.9c17.6-0.3,35.2-1.3,52.7-3.3c12.8-1.5,25.7-3.2,38.1-6.9
					c3.5-1.1,7.2-2.3,10.3-4.3c2.4-1.6,4-4.1,5.2-6.8c1.7-3.9,2.7-8.2,3.5-12.4c1.1-5.6,1.7-11.4,2.2-17.1c1.2-14.8,1.2-29.8,1-44.6
					c-0.3-17.3-1.1-34.6-2.2-51.8c-1.1-17-2.4-34-3.9-50.9c-1.3-14-2.6-28-4.1-42c-0.9-8.2-1.8-16.4-2.8-24.6
					c-0.3-0.2-0.7-0.5-1-0.7c0.4,3.3,0.8,6.7,1.2,10c1.3,11.4,2.5,22.9,3.6,34.3c1.6,15.8,3,31.6,4.2,47.4
					c1.4,17.4,2.5,34.9,3.3,52.4c0.7,16.4,1.2,32.9,0.8,49.3c-0.2,12.7-0.8,25.7-3.1,38.2c-0.8,4.2-1.8,8.4-3.5,12.3
					c-1.2,2.6-2.7,5-5.2,6.5c-3.3,2.1-7.1,3.2-10.8,4.3c-5.6,1.6-11.3,2.8-17.1,3.8c-15.7,2.8-31.6,4.2-47.5,5.2
					c-18.7,1.1-37.5,1.3-56.2,0.6c-18.2-0.7-36.4-2.2-54.4-5.5c-14.2-2.6-28.9-6.2-41.6-13.3c-1.6-0.9-3.2-1.9-4.7-2.9l-2.4-0.6
					c8.1,6.4,18.3,10.1,28,13C376.7,447.7,393.5,450.1,410.3,451.6z"/>
			</g>
			<path fill="#FFCD8A" d="M558.9,175.3c9.9,13.7,31.9,248,8.4,262.4c-22.8,13.9-192.1,18.4-225.4-3.9c-4.1-2.7-11-1.4-13.3-9.5
				c-18.1-62.7-13.9-231.9,3-251.6C350.9,150.2,549.1,161.8,558.9,175.3z"/>
			<path fill="#F9AD5A" d="M570.7,359.1c0,0,3.4,33.2-3.9,43.1c-7.3,9.9-43.2,39.2-43.2,39.2c-19.2,2.3-140.1,13.7-183.2-17.4
				c-7.8-16.1-11.8-54.5-11.8-54.5"/>
			<path fill="#FFCD8A" d="M93.6,176c-9.5,14.3-28.1,255.4-5.5,270.4c13.6,9,81.4,18,138.1,17.4c34.9-0.4,64.1-8.1,76.3-17
				c32.1-23.3,28.4-250.1,9.9-273.6S103,161.9,93.6,176z"/>
			<g>
				<path fill="#F9AD5A" d="M248.9,460.3c-5.2,0.4-10.4,0.7-15.6,1C238.6,461.1,243.8,460.7,248.9,460.3z"/>
				<path fill="#F9AD5A" d="M250.3,451.7c-19.2,1.6-38.4,1.9-57.6,1.5c-17.8-0.4-35.7-1.5-53.4-3.6c-12.8-1.5-25.8-3.2-38.2-6.8
					c-3.4-1-6.9-2.1-9.9-4c-2.6-1.7-4-5.1-5.2-7.9c-1.2-2.8-2.3-5.8-3.3-8.7c0.2,1.6,0.4,3.2,0.6,4.6c0.2,0.5,0.3,0.9,0.5,1.4
					c1.3,3.5,2.8,7.4,5.4,10.2c1,1.1,2.5,1.9,3.9,2.5c3.8,1.8,8,2.9,12.1,4c6,1.5,12.1,2.6,18.2,3.5c16.3,2.5,32.7,4,49.2,4.9
					c19.1,1,38.3,1.3,57.4,0.5c18.2-0.7,36.5-2.3,54.5-5.6c5.8-1.1,11.6-2.3,17.4-3.9c0.4-0.5,0.8-0.9,1.2-1.4
					c-0.6,0.2-1.1,0.3-1.7,0.5C284.8,448,267.5,450.2,250.3,451.7z"/>
				<path fill="#F9AD5A" d="M200.8,457.1c-17.5-0.2-34.9-1.1-52.3-2.7c-9-0.9-17.9-1.9-26.8-3.3c5.2,1.1,10.8,2.2,16.7,3.2
					c6,0.7,11.9,1.2,17.9,1.7c17.7,1.5,35.5,2.1,53.3,2.1c18.1-0.1,36.3-0.9,54.3-3c9.7-1.1,19.5-2.6,29.1-4.8
					c0.7-0.3,1.4-0.7,2.1-1c0.5-0.3,1-0.5,1.5-0.8c-13.5,3.4-27.3,5.3-41.1,6.6C237.4,456.7,219.1,457.3,200.8,457.1z"/>
				<path fill="#F9AD5A" d="M200.8,460.8c-1.6,0-3.2,0-4.8-0.1c12.6,0.7,25.2,0.9,37.3,0.5c5.2-0.2,10.4-0.6,15.6-1
					c8.4-0.8,16.3-1.9,23.6-3.5c-5.6,0.8-11.3,1.4-16.9,2C237.4,460.5,219.1,461,200.8,460.8z"/>
				<path fill="#F9AD5A" d="M252.7,448.1c-18.7,1.7-37.6,2.3-56.4,2c-17.7-0.2-35.3-1.2-52.9-3c-13.2-1.4-26.5-3.1-39.3-6.6
					c-3.8-1-7.7-2.2-11.2-4.2c-1.5-0.8-2.6-1.7-3.5-3.2c-1.8-2.8-2.8-6.1-3.6-9.2c-2.6-10.3-3.3-21.2-3.9-31.8
					c-0.7-14.4-0.7-28.9-0.4-43.3c0.7-32.1,3-64.1,4.8-96.1c0.1-1.2,0.1-2.3,0.2-3.5c-3.7,43.6-6.4,99.1-5.8,139
					c0.3,8.9,1,17.8,2.3,26.6c0.6,4.2,1.4,8.5,2.8,12.5c0.9,2.7,2,5.5,3.8,7.6c2,2.3,5.7,3.5,8.5,4.5c11.1,3.9,23.1,5.6,34.8,7.2
					c16.8,2.2,33.8,3.4,50.7,4c18.8,0.6,37.7,0.5,56.5-0.8c17.4-1.1,34.8-3.1,51.9-7c4.4-1,8.9-2.1,13.3-3.5
					c0.3-0.4,0.5-0.9,0.7-1.3c-1.3,0.4-2.5,0.8-3.8,1.1C286.2,444.1,269.4,446.5,252.7,448.1z"/>
				<path fill="#F9AD5A" d="M251.8,444.5c-18.8,1.7-37.6,2.1-56.5,1.8c-17.5-0.3-35-1.4-52.4-3.4c-12.6-1.5-25.5-3.2-37.7-7
					c-3.4-1-7-2.2-9.9-4.3c-2.1-1.5-3.5-3.9-4.6-6.3c-2-4.3-3.1-9-4-13.6c-2.7-13.7-3.2-27.9-3.3-41.9c-0.1-11.8,0.1-23.7,0.5-35.5
					c0.8-24.6,2.2-49.2,3.9-73.7c1.3-18.7,2.8-37.3,4.5-55.9c0.4-4.1,0.8-8.3,1.2-12.4c-0.8,4-1.5,8.8-2.3,14.3
					c-0.3,3.3-0.6,6.7-0.9,10c-1.8,21.1-3.4,42.2-4.7,63.3c-1.5,24.7-2.7,49.4-3.1,74.1c-0.2,13.5-0.2,27,1,40.4
					c0.5,6.1,1.2,12.3,2.4,18.3c0.9,4.5,2,9,4,13.2c1.1,2.4,2.5,4.8,4.7,6.4c1.2,0.9,2.6,1.6,3.9,2.2c4.1,1.9,8.5,3.1,12.9,4.1
					c13.6,3.3,27.7,5,41.6,6.3c18,1.7,36.1,2.4,54.1,2.4c18.7,0,37.4-0.9,56-3.1c15-1.8,30.1-4.4,44.4-9.2c0.1-0.4,0.3-0.7,0.4-1.1
					c-2.1,0.7-4.1,1.3-6.2,1.9C285.6,440.6,268.6,443,251.8,444.5z"/>
				<path fill="#F9AD5A" d="M304.2,432.6c-15.9,4.7-32.4,7.1-48.9,8.7c-18.4,1.7-36.9,2.3-55.4,2c-17.4-0.2-34.7-1.2-52-3
					c-12.9-1.4-26-3.1-38.6-6.6c-3.8-1-7.6-2.2-11-4.2c-2.5-1.4-4.1-3.5-5.4-6c-1.8-3.7-2.8-7.7-3.6-11.7c-1.1-5.5-1.7-11-2.1-16.5
					c-1.1-14.4-1-28.9-0.6-43.4c0.5-16.9,1.5-33.8,2.7-50.6c1.3-16.7,2.8-33.3,4.5-50c1.4-13.8,3-27.6,4.6-41.4
					c1-8.4,2.1-16.7,3.2-25.1c0.2-1.3,0.3-2.5,0.5-3.8c0.1-0.6-0.8-0.8-0.9-0.2c-0.6,4.3-1.2,8.6-1.7,12.9
					c-1.4,11.2-2.8,22.3-4,33.5c-1.8,15.4-3.4,30.8-4.8,46.3c-1.6,17.1-2.9,34.1-3.9,51.2c-0.9,16.1-1.5,32.2-1.4,48.3
					c0.1,12.5,0.5,25.1,2.7,37.4c0.7,4.2,1.7,8.4,3.4,12.3c1.1,2.6,2.7,5.2,5.1,6.8c2.9,2,6.5,3.2,9.9,4.3
					c5.2,1.6,10.6,2.8,15.9,3.8c14.9,2.8,30,4.3,45,5.4c18.1,1.3,36.4,1.7,54.5,1.2c18-0.4,36-1.7,53.8-4.4
					c11-1.7,22.1-3.9,32.7-7.4c0.1-0.4,0.2-0.7,0.3-1.1C307.4,431.6,305.8,432.1,304.2,432.6z"/>
			</g>
		</g>
		<path fill="#FCDDB9" d="M552.8,182.4c7.3,10,21.4,145.6,17,212.2l-48.7,43.8c-55.8,5.5-150,3.9-173.4-11.8
			c-3.9-2.6-10.4-1.3-12.6-8.9C318,358.5,322,198.5,338,179.9C356.2,158.7,543.6,169.6,552.8,182.4z"/>
		<path fill="#FCDDB9" d="M106.7,182.4c-8.7,12.9-28.1,234.4-7.4,248c20,13.1,168.7,17.4,198-3.7c3.6-2.6,9.6-1.3,11.7-8.9
			c15.9-59.3,12.2-219.2-2.7-237.8C289.4,158.7,115.2,169.6,106.7,182.4z"/>
		<path fill="#FFCD8A" d="M527.6,396.5c0,0-9.1,42-6.5,41.7l48.5-43.7C569.2,393.6,527.6,396.5,527.6,396.5z"/>
		<path fill="#F9E5D2" d="M529.5,400.3c0,0-11,38.2-8.4,38l48.7-43.7C569.3,393.6,529.5,400.3,529.5,400.3z"/>
	</g>
</g>
</svg>
