<?xml version="1.0" encoding="utf-8"?>
<!-- Generator: Adobe Illustrator 18.0.0, SVG Export Plug-In . SVG Version: 6.00 Build 0)  -->
<!DOCTYPE svg PUBLIC "-//W3C//DTD SVG 1.1//EN" "http://www.w3.org/Graphics/SVG/1.1/DTD/svg11.dtd">
<svg version="1.1" id="Layer_1" xmlns="http://www.w3.org/2000/svg" xmlns:xlink="http://www.w3.org/1999/xlink" x="0px" y="0px"
	 viewBox="0 0 640 640" enable-background="new 0 0 640 640" xml:space="preserve">
<g>
	<g>
		<g>
			<path opacity="0.4" fill="#231F20" d="M531.1,408.2c2.6,0.8,4.9,16.5,4.9,16.5H429.1l22.2-20.6L531.1,408.2z"/>
			<g>
				<g>
					<path fill="#414042" d="M452.7,331.5l66.7-11h11.7l-62.8-85.2l-15.6,8.5c0,0-5.6,15.7-5.6,39.5
						C447.2,307.3,452.7,331.5,452.7,331.5z"/>
				</g>
				<g>
					<g>
						<path fill="#414042" d="M452.3,330c8.6-1.4,17.1-2.8,25.7-4.2c12.2-2,24.5-4,36.7-6c1.5-0.3,3.2-0.8,4.8-0.8
							c3.9,0,7.7,0,11.6,0c-0.5,0.8-0.9,1.6-1.4,2.4c-3.8-5.1-7.5-10.2-11.3-15.3c-8-10.8-15.9-21.6-23.9-32.5
							c-7.2-9.8-14.5-19.6-21.7-29.4c-2-2.7-3.9-5.3-5.9-8c0.7,0.2,1.5,0.4,2.2,0.6c-5.2,2.8-10.4,5.7-15.6,8.5
							c0.2-0.3,0.5-0.6,0.7-1c-1.6,4.6-2.6,9.6-3.5,14.4c-2.1,12.1-2.4,24.3-1.6,36.5c0.8,12,2.4,24.1,5.1,35.8
							c0.5,2-2.6,2.9-3.1,0.9c-1.5-6.4-2.5-12.9-3.4-19.3c-1.8-12.9-2.7-26-1.9-39c0.6-9,1.9-17.9,4.3-26.6c0.2-0.9,0.5-1.8,0.8-2.7
							c0.2-0.5,0.3-1.2,0.7-1.5c0.5-0.5,1.3-0.8,1.8-1.1c1.3-0.7,2.5-1.4,3.8-2.1c3.4-1.9,6.9-3.8,10.3-5.6c0.8-0.5,1.7-0.1,2.2,0.6
							c3.8,5.1,7.5,10.2,11.3,15.3c8,10.8,15.9,21.6,23.9,32.5c7.2,9.8,14.5,19.6,21.7,29.4c2,2.7,3.9,5.3,5.9,8
							c0.7,1-0.3,2.4-1.4,2.4c-2.6,0-5.1,0-7.7,0c-1.2,0-2.5,0-3.7,0c-0.6,0,0.6-0.1-0.1,0c-3.4,0.6-6.8,1.1-10.2,1.7
							c-13.2,2.2-26.4,4.3-39.5,6.5c-5.5,0.9-11.1,1.8-16.6,2.7C451.1,333.4,450.3,330.3,452.3,330z"/>
					</g>
				</g>
			</g>
			<g>
				<g>
					<g>
						<path fill="#58595B" d="M468.3,320.6h62.8c0,0,4.9-17.2,4.9-44s-4.9-41.2-4.9-41.2h-62.8c0,0-3.6,19.2-4.4,42.6
							C463,301.4,468.3,320.6,468.3,320.6z"/>
					</g>
					<g>
						<g>
							<path fill="#414042" d="M468.3,319c9.1,0,18.1,0,27.2,0c11.4,0,22.8,0,34.2,0c0.5,0,0.9,0,1.4,0c-0.5,0.4-1,0.8-1.6,1.2
								c1.2-4.3,1.9-8.7,2.6-13c1.8-11.4,2.4-23,2.2-34.6c-0.2-9.1-0.9-18.3-2.6-27.3c-0.6-3.1-1.2-6.4-2.2-9.4
								c0.5,0.4,1,0.8,1.6,1.2c-9.1,0-18.1,0-27.2,0c-11.4,0-22.8,0-34.2,0c-0.5,0-0.9,0-1.4,0c0.5-0.4,1-0.8,1.6-1.2
								c-1.1,5.8-1.8,11.7-2.5,17.5c-1.5,12.8-2.4,25.8-1.7,38.6c0.5,9.4,1.7,19.1,4.2,28.2c0.6,2-2.6,2.9-3.1,0.9
								c-1.6-5.7-2.5-11.5-3.2-17.3c-1.7-12.7-1.5-25.5-0.5-38.3c0.8-10.2,1.9-20.4,3.8-30.4c0.1-0.7,0.9-1.2,1.6-1.2
								c9.1,0,18.1,0,27.2,0c11.4,0,22.8,0,34.2,0c0.5,0,0.9,0,1.4,0c0.7,0,1.3,0.5,1.6,1.2c1.3,3.7,2,7.7,2.6,11.6
								c1.9,11,2.5,22.2,2.3,33.4c-0.1,10-1,20.1-2.6,30c-0.6,3.7-1.3,7.5-2.3,11.1c-0.2,0.7-0.8,1.2-1.6,1.2c-9.1,0-18.1,0-27.2,0
								c-11.4,0-22.8,0-34.2,0c-0.5,0-0.9,0-1.4,0C466.2,322.2,466.2,319,468.3,319z"/>
						</g>
					</g>
				</g>
				<g>
					<g>
						<g>
							<path fill="#58595B" d="M486.1,265.9c7.3-4.9,16.8-5,24.7-1.4c7.7,3.6,13,11.4,14.1,19.7c1.1,8.5-2.4,17.1-9,22.6
								c-7.7,6.3-18.3,7.4-27.2,3.3c-8.7-4-14.2-13.3-14.3-22.8C474.5,278.6,478.8,270.7,486.1,265.9z"/>
						</g>
						<g>
							<g>
								<path fill="#414042" d="M485.3,264.5c9.7-6.3,23.1-5.2,32,2.3c8.4,7.1,11.5,19.3,7.8,29.6c-3.9,10.8-14.3,18-25.8,17.8
									c-5.5-0.1-11.1-1.8-15.5-5.1c-4.3-3.1-7.4-7.6-9.3-12.5c-2.2-5.7-2.2-12.1-0.3-17.9C476.2,272.8,480.2,267.9,485.3,264.5
									c1.7-1.2,3.3,1.6,1.6,2.8c-4.3,2.9-7.7,7.1-9.5,12c-1.8,5-1.8,10.2-0.3,15.3c1.5,4.8,4.6,9.2,8.7,12.1
									c4.4,3.1,10,4.5,15.3,4.2c5.5-0.3,10.7-2.6,14.7-6.3c4-3.7,6.5-8.8,7.3-14.2c1.6-10.5-4.9-21.4-14.8-25.2
									c-7.1-2.7-15.2-2.1-21.5,2.1C485.2,268.4,483.5,265.6,485.3,264.5z"/>
							</g>
						</g>
					</g>
					<g>
						<g>
							<path fill="#414042" d="M486.1,265.9c7.3-4.9,16.8-5,24.7-1.4c7.7,3.6,13,11.4,14.1,19.7c1.1,8.5-2.4,17.1-9,22.6
								c-7.7,6.3-18.3,7.4-27.2,3.3c-8.7-4-14.2-13.3-14.3-22.8C474.5,278.6,478.8,270.7,486.1,265.9z"/>
							<path fill="#414042" d="M488.6,310.2c-4.2-2-7.9-5.2-10.4-9.4c-2.5-4.1-3.9-8.8-3.9-13.5c0.1-8.6,4.5-16.7,11.8-21.5
								c3.9-2.6,8.5-3.9,13.4-3.9c3.9,0,7.8,0.9,11.4,2.5c7.5,3.5,13.1,11.3,14.1,19.8c1.1,8.5-2.4,17.2-9.1,22.7
								c-4.5,3.7-10.2,5.8-16.1,5.8h0C496,312.7,492.1,311.8,488.6,310.2z M486.1,266c-7.2,4.8-11.6,12.7-11.7,21.3
								c0.1,4.7,1.4,9.3,3.9,13.4c2.5,4.2,6.1,7.4,10.3,9.3c3.5,1.6,7.3,2.5,11.1,2.5h0c5.9,0,11.5-2,16-5.7c6.6-5.4,10-14.1,9-22.5
								c-1.1-8.5-6.6-16.2-14-19.7c-3.5-1.6-7.4-2.5-11.3-2.5C494.6,262.1,490,263.4,486.1,266z"/>
						</g>
						<g>
							<circle fill="#6D6E71" cx="499.7" cy="287.3" r="17.8"/>
						</g>
						<g>
							<circle fill="#414042" cx="499.7" cy="287.3" r="3.8"/>
							<path fill="#414042" d="M495.8,287.3c0-2.2,1.8-3.9,3.9-3.9c2.2,0,3.9,1.8,3.9,3.9c0,2.2-1.8,3.9-3.9,3.9
								C497.5,291.2,495.8,289.4,495.8,287.3z M496,287.3c0,2.1,1.7,3.7,3.7,3.7c2.1,0,3.7-1.7,3.7-3.7c0-2.1-1.7-3.7-3.7-3.7
								C497.7,283.6,496,285.2,496,287.3z"/>
						</g>
					</g>
				</g>
				<g>
					<g>
						<g>
							<g>
								<path fill="#58595B" d="M522.3,258.5c-2.3,1.9-5.4,2.2-8.1,1c-2.6-1.2-4.2-4-4.3-6.8c0-2.6,1.3-4.9,3.5-6.4
									c2.2-1.4,5-1.5,7.4-0.4c2.3,1.1,3.9,3.4,4.2,5.9C525.3,254.3,524.3,256.9,522.3,258.5z"/>
							</g>
							<g>
								<g>
									<path fill="#414042" d="M523.4,259.7c-3.9,3-9.5,2.9-12.9-0.9c-3.2-3.7-2.8-9.4,0.7-12.8c3.7-3.5,9.8-3.1,13.1,0.7
										C527.7,250.5,527.2,256.4,523.4,259.7c-1.6,1.3-3.8-0.9-2.3-2.3c2.5-2.2,2.9-5.5,1.1-8.3c-1.8-2.7-6-3.1-8.5-1.1
										c-2.6,2.1-2.8,5.6-1.1,8.3c1.8,2.7,6,3,8.4,1.1c0.7-0.5,1.6-0.7,2.3,0C524,257.9,524.1,259.1,523.4,259.7z"/>
								</g>
							</g>
						</g>
						<g>
							<g>
								<path fill="#414042" d="M513.4,246.3c2.2-1.4,5-1.5,7.4-0.4c2.3,1.1,3.9,3.4,4.2,5.9c0.3,2.5-0.7,5.1-2.7,6.7
									c-2.3,1.9-5.4,2.2-8.1,1c-2.6-1.2-4.2-4-4.3-6.8C510,250.1,511.3,247.7,513.4,246.3z"/>
								<path fill="#414042" d="M514.1,259.6c-2.6-1.2-4.3-3.9-4.3-6.9c0-2.6,1.4-5,3.5-6.5c1.2-0.8,2.6-1.2,4.1-1.2
									c1.2,0,2.3,0.3,3.4,0.8c2.3,1,3.9,3.4,4.3,6c0.3,2.6-0.7,5.2-2.7,6.8c-1.4,1.1-3.1,1.7-4.9,1.7h0
									C516.4,260.3,515.2,260.1,514.1,259.6z M513.5,246.4c-2.1,1.4-3.4,3.8-3.5,6.3c0,2.9,1.7,5.6,4.2,6.7c1,0.5,2.2,0.7,3.3,0.7
									h0c1.7,0,3.4-0.6,4.7-1.7c1.9-1.6,3-4.2,2.6-6.6c-0.3-2.5-1.9-4.8-4.1-5.8c-1-0.5-2.2-0.7-3.3-0.7
									C516,245.3,514.6,245.7,513.5,246.4z"/>
							</g>
							<g>
								<circle fill="#6D6E71" cx="517.5" cy="252.7" r="5.3"/>
							</g>
							<g>
								<circle fill="#414042" cx="517.5" cy="252.7" r="1.9"/>
								<path fill="#414042" d="M515.4,252.7c0-1.1,0.9-2,2-2s2,0.9,2,2c0,1.1-0.9,2-2,2S515.4,253.8,515.4,252.7z M515.7,252.7
									c0,1,0.8,1.8,1.8,1.8c1,0,1.8-0.8,1.8-1.8s-0.8-1.8-1.8-1.8C516.5,250.9,515.7,251.7,515.7,252.7z"/>
							</g>
						</g>
					</g>
					<g>
						<g>
							<g>
								<path fill="#58595B" d="M486.7,258.5c-2.3,1.9-5.4,2.2-8.1,1c-2.6-1.2-4.2-4-4.3-6.8c0-2.6,1.3-4.9,3.5-6.4
									c2.2-1.4,5-1.5,7.4-0.4c2.3,1.1,3.9,3.4,4.2,5.9C489.7,254.3,488.7,256.9,486.7,258.5z"/>
							</g>
							<g>
								<g>
									<path fill="#414042" d="M487.9,259.7c-3.9,3-9.5,2.9-12.9-0.9c-3.2-3.7-2.8-9.4,0.7-12.8c3.7-3.5,9.8-3.1,13.1,0.7
										C492.1,250.5,491.7,256.4,487.9,259.7c-1.6,1.3-3.8-0.9-2.3-2.3c2.5-2.2,2.9-5.5,1.1-8.3c-1.8-2.7-6-3.1-8.5-1.1
										c-2.6,2.1-2.8,5.6-1.1,8.3c1.8,2.7,6,3,8.4,1.1c0.7-0.5,1.6-0.7,2.3,0C488.4,257.9,488.6,259.1,487.9,259.7z"/>
								</g>
							</g>
						</g>
						<g>
							<g>
								<path fill="#414042" d="M477.9,246.3c2.2-1.4,5-1.5,7.4-0.4c2.3,1.1,3.9,3.4,4.2,5.9c0.3,2.5-0.7,5.1-2.7,6.7
									c-2.3,1.9-5.4,2.2-8.1,1c-2.6-1.2-4.2-4-4.3-6.8C474.4,250.1,475.7,247.7,477.9,246.3z"/>
								<path fill="#414042" d="M478.6,259.6c-2.6-1.2-4.3-3.9-4.3-6.9c0-2.6,1.4-5,3.5-6.5c1.2-0.8,2.6-1.2,4.1-1.2
									c1.2,0,2.3,0.3,3.4,0.8c2.3,1,3.9,3.4,4.3,6c0.3,2.6-0.7,5.2-2.7,6.8c-1.4,1.1-3.1,1.7-4.9,1.7h0
									C480.8,260.3,479.6,260.1,478.6,259.6z M477.9,246.4c-2.1,1.4-3.4,3.8-3.5,6.3c0,2.9,1.7,5.6,4.2,6.7c1,0.5,2.2,0.7,3.3,0.7
									h0c1.7,0,3.4-0.6,4.7-1.7c1.9-1.6,3-4.2,2.6-6.6c-0.3-2.5-1.9-4.8-4.1-5.8c-1-0.5-2.2-0.7-3.3-0.7
									C480.4,245.3,479.1,245.7,477.9,246.4z"/>
							</g>
							<g>
								<circle fill="#6D6E71" cx="481.9" cy="252.7" r="5.3"/>
							</g>
							<g>
								<circle fill="#414042" cx="481.9" cy="252.7" r="1.9"/>
								<path fill="#414042" d="M479.9,252.7c0-1.1,0.9-2,2-2s2,0.9,2,2c0,1.1-0.9,2-2,2S479.9,253.8,479.9,252.7z M480.1,252.7
									c0,1,0.8,1.8,1.8,1.8s1.8-0.8,1.8-1.8s-0.8-1.8-1.8-1.8S480.1,251.7,480.1,252.7z"/>
							</g>
						</g>
					</g>
				</g>
			</g>
			<path fill="#231F20" d="M480.6,251.9c0-0.3,1.3-1,2-0.6s0.8,2,0.4,2.1C482.5,253.6,480.6,252.3,480.6,251.9z"/>
			<path fill="#231F20" d="M516.5,251.9c0-0.3,1.3-1,2-0.6s0.8,2,0.4,2.1C518.4,253.6,516.5,252.2,516.5,251.9z"/>
			<path fill="#231F20" d="M497.4,286c0-0.6,2.3-1.9,3.6-1.1c1.3,0.8,1.4,3.5,0.8,3.7C500.7,289.1,497.4,286.6,497.4,286z"/>
			<g>
				<g>
					<path fill="#414042" d="M452.7,408.2h66.7h11.7L468.3,323l-15.6,8.5c0,0-5.6,15.7-5.6,39.5S452.7,408.2,452.7,408.2z"/>
				</g>
				<g>
					<g>
						<path fill="#414042" d="M452.7,406.6c8.7,0,17.5,0,26.2,0c12.2,0,24.5,0,36.7,0c5.1,0,10.3,0,15.4,0c-0.5,0.8-0.9,1.6-1.4,2.4
							c-3.8-5.1-7.5-10.2-11.3-15.3c-8-10.8-15.9-21.6-23.9-32.5c-7.2-9.8-14.5-19.6-21.7-29.4c-2-2.7-3.9-5.3-5.9-8
							c0.7,0.2,1.5,0.4,2.2,0.6c-5.2,2.8-10.4,5.7-15.6,8.5c0.2-0.3,0.5-0.6,0.7-1c-1.6,4.6-2.6,9.6-3.5,14.4
							c-2.1,11.8-2.5,23.9-1.6,35.8c0.5,6.4,1.4,12.7,3,19c0.6,2.2,1.2,4.5,2.1,6.6c0.3,0.8-0.4,1.8-1.1,2c-0.9,0.3-1.6-0.3-2-1.1
							c-1.7-4.1-2.6-8.6-3.5-12.9c-2.2-11.6-2.6-23.5-1.8-35.2c0.6-8.8,1.9-17.6,4.3-26.1c0.3-1,0.6-3.6,1.7-4.2
							c1.9-1,3.8-2.1,5.7-3.1c3.3-1.8,6.6-3.6,9.9-5.4c0.8-0.5,1.7-0.1,2.2,0.6c3.8,5.1,7.5,10.2,11.3,15.3
							c8,10.8,15.9,21.6,23.9,32.5c7.2,9.8,14.5,19.6,21.7,29.4c2,2.7,3.9,5.3,5.9,8c0.7,1-0.3,2.4-1.4,2.4c-7.4,0-14.9,0-22.3,0
							c-13.3,0-26.7,0-40,0c-5.3,0-10.7,0-16,0C450.7,409.8,450.7,406.6,452.7,406.6z"/>
					</g>
				</g>
			</g>
			<g>
				<g>
					<g>
						<path fill="#58595B" d="M468.3,408.2h62.8c0,0,4.9-17.2,4.9-44c0-26.8-4.9-41.2-4.9-41.2h-62.8c0,0-3.6,19.2-4.4,42.6
							C463,389,468.3,408.2,468.3,408.2z"/>
					</g>
					<g>
						<g>
							<path fill="#414042" d="M468.3,406.6c9.1,0,18.1,0,27.2,0c11.4,0,22.8,0,34.2,0c0.5,0,0.9,0,1.4,0c-0.5,0.4-1,0.8-1.6,1.2
								c1.2-4.3,1.9-8.7,2.6-13c1.8-11.4,2.4-23,2.2-34.6c-0.2-9.1-0.9-18.3-2.6-27.3c-0.6-3.1-1.2-6.4-2.2-9.4
								c0.5,0.4,1,0.8,1.6,1.2c-9.1,0-18.1,0-27.2,0c-11.4,0-22.8,0-34.2,0c-0.5,0-0.9,0-1.4,0c0.5-0.4,1-0.8,1.6-1.2
								c-1.1,5.8-1.8,11.7-2.5,17.5c-1.5,12.8-2.4,25.8-1.7,38.6c0.5,9.4,1.7,19.1,4.2,28.2c0.6,2-2.6,2.9-3.1,0.9
								c-1.6-5.7-2.5-11.5-3.2-17.3c-1.7-12.7-1.5-25.5-0.5-38.3c0.8-10.2,1.9-20.4,3.8-30.4c0.1-0.7,0.9-1.2,1.6-1.2
								c9.1,0,18.1,0,27.2,0c11.4,0,22.8,0,34.2,0c0.5,0,0.9,0,1.4,0c0.7,0,1.3,0.5,1.6,1.2c1.3,3.7,2,7.7,2.6,11.6
								c1.9,11,2.5,22.2,2.3,33.4c-0.1,10-1,20.1-2.6,30c-0.6,3.7-1.3,7.5-2.3,11.1c-0.2,0.7-0.8,1.2-1.6,1.2c-9.1,0-18.1,0-27.2,0
								c-11.4,0-22.8,0-34.2,0c-0.5,0-0.9,0-1.4,0C466.2,409.8,466.2,406.6,468.3,406.6z"/>
						</g>
					</g>
				</g>
				<g>
					<g>
						<g>
							<path fill="#58595B" d="M486.1,353.5c7.3-4.9,16.8-5,24.7-1.4c7.7,3.6,13,11.4,14.1,19.7c1.1,8.5-2.4,17.1-9,22.6
								c-7.7,6.3-18.3,7.4-27.2,3.3c-8.7-4-14.2-13.3-14.3-22.8C474.5,366.2,478.8,358.3,486.1,353.5z"/>
						</g>
						<g>
							<g>
								<path fill="#414042" d="M485.3,352.1c9.7-6.3,23.1-5.2,32,2.3c8.4,7.1,11.5,19.3,7.8,29.6c-3.9,10.8-14.3,18-25.8,17.8
									c-5.5-0.1-11.1-1.8-15.5-5.1c-4.3-3.1-7.4-7.6-9.3-12.5c-2.2-5.7-2.2-12.1-0.3-17.9C476.2,360.5,480.2,355.5,485.3,352.1
									c1.7-1.2,3.3,1.6,1.6,2.8c-4.3,2.9-7.7,7.1-9.5,12c-1.8,5-1.8,10.2-0.3,15.3c1.5,4.8,4.6,9.2,8.7,12.1
									c4.4,3.1,10,4.5,15.3,4.2c5.5-0.3,10.7-2.6,14.7-6.3c4-3.7,6.5-8.8,7.3-14.2c1.6-10.5-4.9-21.4-14.8-25.2
									c-7.1-2.7-15.2-2.1-21.5,2.1C485.2,356,483.5,353.3,485.3,352.1z"/>
							</g>
						</g>
					</g>
					<g>
						<g>
							<path fill="#414042" d="M486.1,353.5c7.3-4.9,16.8-5,24.7-1.4c7.7,3.6,13,11.4,14.1,19.7c1.1,8.5-2.4,17.1-9,22.6
								c-7.7,6.3-18.3,7.4-27.2,3.3c-8.7-4-14.2-13.3-14.3-22.8C474.5,366.2,478.8,358.3,486.1,353.5z"/>
							<path fill="#414042" d="M488.6,397.8c-4.2-2-7.9-5.2-10.4-9.4c-2.5-4.1-3.9-8.8-3.9-13.5c0.1-8.6,4.5-16.7,11.8-21.5
								c3.9-2.6,8.5-3.9,13.4-3.9c3.9,0,7.8,0.9,11.4,2.5c7.5,3.5,13.1,11.3,14.1,19.8c1.1,8.5-2.4,17.2-9.1,22.7
								c-4.5,3.7-10.2,5.8-16.1,5.8h0C496,400.3,492.1,399.4,488.6,397.8z M486.1,353.6c-7.2,4.8-11.6,12.7-11.7,21.3
								c0.1,4.7,1.4,9.3,3.9,13.4c2.5,4.2,6.1,7.4,10.3,9.3c3.5,1.6,7.3,2.5,11.1,2.5h0c5.9,0,11.5-2,16-5.7c6.6-5.4,10-14.1,9-22.5
								c-1.1-8.5-6.6-16.2-14-19.7c-3.5-1.6-7.4-2.5-11.3-2.5C494.6,349.7,490,351.1,486.1,353.6z"/>
						</g>
						<g>
							<circle fill="#6D6E71" cx="499.7" cy="374.9" r="17.8"/>
						</g>
						<g>
							<circle fill="#414042" cx="499.7" cy="374.9" r="3.8"/>
							<path fill="#414042" d="M495.8,374.9c0-2.2,1.8-3.9,3.9-3.9c2.2,0,3.9,1.8,3.9,3.9s-1.8,3.9-3.9,3.9
								C497.5,378.8,495.8,377.1,495.8,374.9z M496,374.9c0,2.1,1.7,3.7,3.7,3.7c2.1,0,3.7-1.7,3.7-3.7c0-2.1-1.7-3.7-3.7-3.7
								C497.7,371.2,496,372.9,496,374.9z"/>
						</g>
					</g>
				</g>
				<g>
					<g>
						<g>
							<g>
								<path fill="#58595B" d="M522.3,346.2c-2.3,1.9-5.4,2.2-8.1,1c-2.6-1.2-4.2-4-4.3-6.8c0-2.6,1.3-4.9,3.5-6.4
									c2.2-1.4,5-1.5,7.4-0.4c2.3,1.1,3.9,3.4,4.2,5.9C525.3,342,524.3,344.5,522.3,346.2z"/>
							</g>
							<g>
								<g>
									<path fill="#414042" d="M523.4,347.3c-3.9,3-9.5,2.9-12.9-0.9c-3.2-3.7-2.8-9.4,0.7-12.8c3.7-3.5,9.8-3.1,13.1,0.7
										C527.7,338.1,527.2,344,523.4,347.3c-1.6,1.3-3.8-0.9-2.3-2.3c2.5-2.2,2.9-5.5,1.1-8.3c-1.8-2.7-6-3.1-8.5-1.1
										c-2.6,2.1-2.8,5.6-1.1,8.3c1.8,2.7,6,3,8.4,1.1c0.7-0.5,1.6-0.7,2.3,0C524,345.6,524.1,346.7,523.4,347.3z"/>
								</g>
							</g>
						</g>
						<g>
							<g>
								<path fill="#414042" d="M513.4,334c2.2-1.4,5-1.5,7.4-0.4c2.3,1.1,3.9,3.4,4.2,5.9c0.3,2.5-0.7,5.1-2.7,6.7
									c-2.3,1.9-5.4,2.2-8.1,1c-2.6-1.2-4.2-4-4.3-6.8C510,337.7,511.3,335.4,513.4,334z"/>
								<path fill="#414042" d="M514.1,347.2c-2.6-1.2-4.3-3.9-4.3-6.9c0-2.6,1.4-5,3.5-6.5c1.2-0.8,2.6-1.2,4.1-1.2
									c1.2,0,2.3,0.3,3.4,0.8c2.3,1,3.9,3.4,4.3,6c0.3,2.6-0.7,5.2-2.7,6.8c-1.4,1.1-3.1,1.7-4.9,1.7h0
									C516.4,348,515.2,347.7,514.1,347.2z M513.5,334c-2.1,1.4-3.4,3.8-3.5,6.3c0,2.9,1.7,5.6,4.2,6.7c1,0.5,2.2,0.7,3.3,0.7
									c1.7,0,3.4-0.6,4.7-1.7c1.9-1.6,3-4.2,2.6-6.6c-0.3-2.5-1.9-4.8-4.1-5.8c-1-0.5-2.2-0.7-3.3-0.7
									C516,332.9,514.6,333.3,513.5,334z"/>
							</g>
							<g>
								<circle fill="#6D6E71" cx="517.5" cy="340.3" r="5.3"/>
							</g>
							<g>
								<circle fill="#414042" cx="517.5" cy="340.3" r="1.9"/>
								<path fill="#414042" d="M515.4,340.3c0-1.1,0.9-2,2-2s2,0.9,2,2s-0.9,2-2,2S515.4,341.5,515.4,340.3z M515.7,340.3
									c0,1,0.8,1.8,1.8,1.8c1,0,1.8-0.8,1.8-1.8s-0.8-1.8-1.8-1.8C516.5,338.5,515.7,339.3,515.7,340.3z"/>
							</g>
						</g>
					</g>
					<g>
						<g>
							<g>
								<path fill="#58595B" d="M486.7,346.2c-2.3,1.9-5.4,2.2-8.1,1c-2.6-1.2-4.2-4-4.3-6.8c0-2.6,1.3-4.9,3.5-6.4
									c2.2-1.4,5-1.5,7.4-0.4c2.3,1.1,3.9,3.4,4.2,5.9C489.7,342,488.7,344.5,486.7,346.2z"/>
							</g>
							<g>
								<g>
									<path fill="#414042" d="M487.9,347.3c-3.9,3-9.5,2.9-12.9-0.9c-3.2-3.7-2.8-9.4,0.7-12.8c3.7-3.5,9.8-3.1,13.1,0.7
										C492.1,338.1,491.7,344,487.9,347.3c-1.6,1.3-3.8-0.9-2.3-2.3c2.5-2.2,2.9-5.5,1.1-8.3c-1.8-2.7-6-3.1-8.5-1.1
										c-2.6,2.1-2.8,5.6-1.1,8.3c1.8,2.7,6,3,8.4,1.1c0.7-0.5,1.6-0.7,2.3,0C488.4,345.6,488.6,346.7,487.9,347.3z"/>
								</g>
							</g>
						</g>
						<g>
							<g>
								<path fill="#414042" d="M477.9,334c2.2-1.4,5-1.5,7.4-0.4c2.3,1.1,3.9,3.4,4.2,5.9c0.3,2.5-0.7,5.1-2.7,6.7
									c-2.3,1.9-5.4,2.2-8.1,1c-2.6-1.2-4.2-4-4.3-6.8C474.4,337.7,475.7,335.4,477.9,334z"/>
								<path fill="#414042" d="M478.6,347.2c-2.6-1.2-4.3-3.9-4.3-6.9c0-2.6,1.4-5,3.5-6.5c1.2-0.8,2.6-1.2,4.1-1.2
									c1.2,0,2.3,0.3,3.4,0.8c2.3,1,3.9,3.4,4.3,6c0.3,2.6-0.7,5.2-2.7,6.8c-1.4,1.1-3.1,1.7-4.9,1.7h0
									C480.8,348,479.6,347.7,478.6,347.2z M477.9,334c-2.1,1.4-3.4,3.8-3.5,6.3c0,2.9,1.7,5.6,4.2,6.7c1,0.5,2.2,0.7,3.3,0.7
									c1.7,0,3.4-0.6,4.7-1.7c1.9-1.6,3-4.2,2.6-6.6c-0.3-2.5-1.9-4.8-4.1-5.8c-1-0.5-2.2-0.7-3.3-0.7
									C480.4,332.9,479.1,333.3,477.9,334z"/>
							</g>
							<g>
								<circle fill="#6D6E71" cx="481.9" cy="340.3" r="5.3"/>
							</g>
							<g>
								<circle fill="#414042" cx="481.9" cy="340.3" r="1.9"/>
								<path fill="#414042" d="M479.9,340.3c0-1.1,0.9-2,2-2s2,0.9,2,2s-0.9,2-2,2S479.9,341.5,479.9,340.3z M480.1,340.3
									c0,1,0.8,1.8,1.8,1.8s1.8-0.8,1.8-1.8s-0.8-1.8-1.8-1.8S480.1,339.3,480.1,340.3z"/>
							</g>
						</g>
					</g>
				</g>
			</g>
			<path fill="#231F20" d="M480.6,339.6c0-0.3,1.3-1,2-0.6c0.7,0.4,0.8,2,0.4,2.1C482.5,341.3,480.6,339.9,480.6,339.6z"/>
			<path fill="#231F20" d="M516.5,339.5c0-0.3,1.3-1,2-0.6s0.8,2,0.4,2.1C518.4,341.2,516.5,339.8,516.5,339.5z"/>
			<path fill="#231F20" d="M497.4,373.7c0-0.6,2.3-1.9,3.6-1.1c1.3,0.8,1.4,3.5,0.8,3.7C500.7,376.7,497.4,374.3,497.4,373.7z"/>
		</g>
		<g>
			<g>
				<polyline opacity="0.4" fill="#231F20" points="458.3,414 491.5,439.2 262.9,488.6 132.3,416.8 186.3,391 				"/>
				<g>
					<g>
						<polyline fill="#F9AD5A" points="460.1,275 458.1,430.6 266.6,463.4 261.7,383.9 262.9,296.1 						"/>
					</g>
					<polygon fill="#F7941E" points="266.6,463.4 156.2,409 153.1,365.7 262.9,387.6 					"/>
					<polygon fill="#F15A29" points="460.1,384.2 353.7,413.4 304,404.1 303.1,388.4 460.1,369.6 					"/>
					<polygon fill="#F9AD5A" points="475.2,251.9 475.2,276.3 264.9,307.6 144.2,275 144.7,256 					"/>
					<polygon fill="#F7941E" points="475.2,251.9 258.8,283.2 156.5,255.8 309.7,227.7 					"/>
					<polygon fill="#EF4136" points="258.8,283.2 214.6,272.4 308.1,253.6 383.2,265.4 					"/>
					<polygon fill="#F7941E" points="210.3,402.5 262.9,388.5 262.9,307.6 150.3,276.5 158.5,386.8 					"/>
					<polygon fill="#3DCDF9" points="429.3,291.9 429.3,347.9 300.1,375.2 299.4,316.2 					"/>
					<polygon fill="#86E2F7" points="382.2,306.8 382.2,316.2 415.1,312.3 415.1,347.7 424.9,346.3 424.9,298.8 					"/>
					<polygon fill="#F7941E" points="349.5,406.1 303.5,393.3 303.5,383.2 429.7,364.1 475.2,361.4 475.2,371.5 					"/>
					<polygon fill="#F9AD5A" points="349.5,396 303.5,383.2 429.7,354 475.2,361.4 					"/>
					<polygon fill="#EF4136" points="418,283.2 486.8,290.5 486.8,290.5 380.5,320.8 298.9,307.6 					"/>
					<polygon fill="#EF4136" points="305.8,372.6 386.9,319 404.8,313.2 318,372.6 305.8,377.4 					"/>
					<polygon fill="#EF4136" points="397.8,354 473,293.4 486.8,290.5 411.9,351.8 					"/>
				</g>
			</g>
			<g>
				<g>
					<path fill="#F7941E" d="M296.7,97.9c-36.3-18.8-75.8,14.4-45.9,38.2L296.7,97.9z"/>
					<path fill="#FFCD8A" d="M291.7,100.9c-29.8-15.4-62.1,11.8-37.6,31.2L291.7,100.9z"/>
					<path fill="#F7941E" d="M270.7,114.3l-10.9-10.9c0,0,6.3-3.5,8.7-3.5s3.8,0,3.8,0L270.7,114.3z"/>
					<path fill="#F7941E" d="M266,116.4l-17.1-1.9c0,0,3.8-6.2,5.9-7.3c2.1-1.2,3.3-1.9,3.3-1.9L266,116.4z"/>
					<path fill="#F7941E" d="M272.3,113.7l4-14.9c0,0,6.2,3.8,7.4,5.9L272.3,113.7z"/>
					<path fill="#F7941E" d="M264.7,119.8l-13.4,7.7c0,0-1.7-7-1.1-9.3L264.7,119.8z"/>
					<path fill="#86E2F7" d="M326.8,151.1c0-28.7,11.9-37,11.9-37h-16.3h-47H259c0,0,11.9,8.3,11.9,37s-19.6,18.9-19.6,46.1
						s21.1,34,45.2,34c0.8,0,3.9,0,4.7,0c24.2,0,45.2-6.8,45.2-34S326.8,179.8,326.8,151.1z"/>
					<path fill="#86E2F7" d="M321.8,154.9c0-23.6,9.8-30.4,9.8-30.4h-13.4h-38.6h-13.4c0,0,9.8,6.8,9.8,30.4s-16.1,15.5-16.1,37.8
						s17.3,27.9,37.2,27.9c0.7,0,3.2,0,3.8,0c19.9,0,37.2-5.6,37.2-27.9S321.8,178.5,321.8,154.9z"/>
					<g>
						<path fill="#EF4136" d="M329.5,177.9c-6.9,5.7-17.4,7.5-28.7,7.5c-0.7,0-3.2,0-3.8,0c-11.3,0-21.8-1.8-28.7-7.5
							c-4.2,3.9-8.5,7.3-8.5,18.9c0,22.3,17.3,27.9,37.2,27.9c0.7,0,3.2,0,3.8,0c19.9,0,37.2-5.6,37.2-27.9
							C337.9,185.2,333.6,181.8,329.5,177.9z"/>
					</g>
					<g>
						<path fill="#EF4136" d="M329.5,177.9c-6.9,5.7-17.4,7.5-28.7,7.5c-0.7,0-3.2,0-3.8,0c-11.3,0-21.8-1.8-28.7-7.5
							c-4.2,3.9-8.5,7.3-8.5,18.9c0,22.3,17.3,27.9,37.2,27.9c0.7,0,3.2,0,3.8,0c19.9,0,37.2-5.6,37.2-27.9
							C337.9,185.2,333.6,181.8,329.5,177.9z"/>
					</g>
					<rect x="291.9" y="225.9" fill="#86E2F7" width="13.9" height="24.9"/>
					<rect x="280.9" y="247.5" fill="#86E2F7" width="35.9" height="11"/>
					<rect x="268.5" y="258.5" fill="#86E2F7" width="60.7" height="11"/>
				</g>
				<circle fill="#F9AD5A" cx="268.4" cy="196.1" r="3.6"/>
				<circle fill="#F9AD5A" cx="282.7" cy="214.7" r="3.6"/>
				<circle fill="#F9AD5A" cx="300.4" cy="196.1" r="3.6"/>
				<circle fill="#F9AD5A" cx="310.6" cy="214.5" r="3.6"/>
				<circle fill="#F9AD5A" cx="322.7" cy="197.5" r="3.6"/>
				<circle fill="#F9AD5A" cx="310.9" cy="202.5" r="1.9"/>
				<circle fill="#F9AD5A" cx="296.2" cy="220.9" r="1.9"/>
				<circle fill="#F9AD5A" cx="275.7" cy="188.2" r="1.9"/>
				<path fill="#3AA018" d="M283.1,184.2c-1.8,4.9-3.7,9.8-5.5,14.7c-0.3,0.8-0.6,1.6-0.9,2.3c-2.7,7.3,8.9,10.4,11.6,3.2
					c2.4-6.4,4.8-12.7,7.2-19.1C291.1,185.3,286.9,185,283.1,184.2z"/>
				<path fill="#9CB729" d="M355.9,108.9c-9.8-6.9-19.5-13.9-29.3-20.8c-3.4-2.4-7.6,0.3-8.8,3.6c-11.6,30.9-23.1,61.7-34.7,92.6
					c3.9,0.7,8,1.1,12.4,1.2c10.3-27.6,20.7-55.2,31-82.8c7.8,5.5,15.6,11.1,23.4,16.6C356.2,123.8,362.2,113.3,355.9,108.9z"/>
			</g>
		</g>
		<g>
			<path opacity="0.4" fill="#231F20" d="M118.2,442.5c-2.6,0.9-15.8,16.2-15.8,16.2l108.1,0.5L200,438.2L118.2,442.5z"/>
			<g>
				<g>
					<path fill="#414042" d="M198.6,363.9l-68.4-11.2h-12l64.3-87.3l16,8.7c0,0,5.7,16.1,5.7,40.5S198.6,363.9,198.6,363.9z"/>
				</g>
				<g>
					<g>
						<path fill="#414042" d="M199,362.3c-8.8-1.4-17.6-2.9-26.3-4.3c-12.5-2.1-25.1-4.1-37.6-6.2c-1.6-0.3-3.3-0.8-4.9-0.8
							c-4,0-7.9,0-11.9,0c0.5,0.8,0.9,1.7,1.4,2.5c3.9-5.2,7.7-10.5,11.6-15.7c8.2-11.1,16.3-22.2,24.5-33.3
							c7.4-10.1,14.8-20.1,22.2-30.2c2-2.7,4-5.5,6-8.2c-0.8,0.2-1.5,0.4-2.3,0.6c5.3,2.9,10.6,5.8,16,8.7c-0.3-0.3-0.5-0.7-0.8-1
							c1.7,4.8,2.7,9.8,3.6,14.8c2.2,12.4,2.5,25,1.7,37.4c-0.8,12.3-2.5,24.7-5.2,36.7c-0.5,2.1,2.7,2.9,3.2,0.9
							c1.5-6.5,2.6-13.2,3.5-19.8c1.8-13.2,2.8-26.7,2-40c-0.6-9.2-1.9-18.4-4.4-27.3c-0.3-0.9-0.5-1.8-0.8-2.7
							c-0.2-0.5-0.3-1.2-0.7-1.6c-0.5-0.5-1.3-0.8-1.9-1.1c-1.3-0.7-2.6-1.4-3.9-2.1c-3.5-1.9-7-3.8-10.5-5.8
							c-0.9-0.5-1.7-0.1-2.3,0.6c-3.9,5.2-7.7,10.5-11.6,15.7c-8.2,11.1-16.3,22.2-24.5,33.3c-7.4,10.1-14.8,20.1-22.2,30.2
							c-2,2.7-4,5.5-6,8.2c-0.8,1,0.3,2.5,1.4,2.5c2.6,0,5.3,0,7.9,0c1.3,0,2.5,0,3.8,0c0.6,0-0.6-0.1,0.1,0c3.5,0.6,7,1.1,10.5,1.7
							c13.5,2.2,27,4.4,40.5,6.7c5.7,0.9,11.3,1.9,17,2.8C200.2,365.8,201.1,362.6,199,362.3z"/>
					</g>
				</g>
			</g>
			<g>
				<g>
					<g>
						<path fill="#58595B" d="M182.6,352.7h-64.3c0,0-5-17.6-5-45.1c0-27.5,5-42.3,5-42.3h64.3c0,0,3.7,19.6,4.5,43.7
							C188,333,182.6,352.7,182.6,352.7z"/>
					</g>
					<g>
						<g>
							<path fill="#414042" d="M182.6,351c-9.3,0-18.6,0-27.9,0c-11.7,0-23.3,0-35,0c-0.5,0-1,0-1.4,0c0.5,0.4,1.1,0.8,1.6,1.2
								c-1.2-4.4-2-8.9-2.7-13.4c-1.8-11.7-2.4-23.6-2.2-35.5c0.2-9.4,0.9-18.8,2.6-28c0.6-3.2,1.2-6.5,2.3-9.6
								c-0.5,0.4-1.1,0.8-1.6,1.2c9.3,0,18.6,0,27.9,0c11.7,0,23.3,0,35,0c0.5,0,1,0,1.4,0c-0.5-0.4-1.1-0.8-1.6-1.2
								c1.1,5.9,1.9,11.9,2.6,17.9c1.5,13.1,2.5,26.4,1.8,39.6c-0.5,9.7-1.7,19.6-4.3,28.9c-0.6,2.1,2.6,2.9,3.2,0.9
								c1.6-5.8,2.5-11.8,3.3-17.8c1.7-13.1,1.6-26.1,0.5-39.2c-0.8-10.4-1.9-20.9-3.9-31.2c-0.1-0.7-0.9-1.2-1.6-1.2
								c-9.3,0-18.6,0-27.9,0c-11.7,0-23.3,0-35,0c-0.5,0-1,0-1.4,0c-0.8,0-1.4,0.5-1.6,1.2c-1.3,3.8-2,7.9-2.7,11.9
								c-1.9,11.3-2.5,22.8-2.4,34.2c0.1,10.3,1,20.6,2.7,30.7c0.6,3.8,1.3,7.7,2.4,11.4c0.2,0.7,0.9,1.2,1.6,1.2
								c9.3,0,18.6,0,27.9,0c11.7,0,23.3,0,35,0c0.5,0,1,0,1.4,0C184.7,354.3,184.7,351,182.6,351z"/>
						</g>
					</g>
				</g>
				<g>
					<g>
						<g>
							<path fill="#58595B" d="M164.4,296.6c-7.5-5-17.3-5.2-25.3-1.5c-7.9,3.7-13.4,11.7-14.4,20.2c-1.1,8.7,2.5,17.6,9.2,23.2
								c7.9,6.5,18.7,7.6,27.9,3.3c9-4.1,14.5-13.6,14.6-23.4C176.3,309.6,171.8,301.5,164.4,296.6z"/>
						</g>
						<g>
							<g>
								<path fill="#414042" d="M165.2,295.2c-10-6.5-23.7-5.3-32.8,2.3c-8.6,7.3-11.8,19.7-8,30.3c3.9,11.1,14.7,18.4,26.4,18.3
									c5.6-0.1,11.4-1.9,15.9-5.2c4.4-3.2,7.6-7.7,9.5-12.8c2.2-5.9,2.3-12.4,0.3-18.3C174.5,303.7,170.4,298.7,165.2,295.2
									c-1.8-1.2-3.4,1.7-1.7,2.8c4.4,3,7.9,7.3,9.7,12.3c1.9,5.1,1.9,10.5,0.3,15.6c-1.6,4.9-4.7,9.4-9,12.4
									c-4.5,3.2-10.2,4.6-15.7,4.4c-5.6-0.3-11-2.7-15.1-6.5c-4.1-3.8-6.6-9-7.5-14.5c-1.6-10.8,5-21.9,15.2-25.8
									c7.3-2.8,15.5-2.1,22.1,2.1C165.3,299.2,167,296.3,165.2,295.2z"/>
							</g>
						</g>
					</g>
					<g>
						<g>
							<path fill="#414042" d="M164.4,296.6c-7.5-5-17.3-5.2-25.3-1.5c-7.9,3.7-13.4,11.7-14.4,20.2c-1.1,8.7,2.5,17.6,9.2,23.2
								c7.9,6.5,18.7,7.6,27.9,3.3c9-4.1,14.5-13.6,14.6-23.4C176.3,309.6,171.8,301.5,164.4,296.6z"/>
							<path fill="#414042" d="M150.3,344.5L150.3,344.5c-6.1,0-11.9-2.1-16.5-5.9c-6.8-5.6-10.4-14.5-9.3-23.3
								c1.1-8.8,6.8-16.8,14.5-20.3c3.6-1.7,7.7-2.6,11.6-2.6c5,0,9.8,1.4,13.8,4c7.5,4.9,12,13.2,12.1,22c-0.1,4.9-1.4,9.7-4,13.8
								c-2.6,4.3-6.3,7.6-10.7,9.6C158.2,343.7,154.2,344.5,150.3,344.5z M150.6,292.7c-3.9,0-7.9,0.9-11.6,2.6
								c-7.6,3.5-13.3,11.4-14.4,20.1c-1.1,8.7,2.4,17.5,9.2,23.1c4.6,3.8,10.4,5.9,16.4,5.9h0c3.9,0,7.8-0.9,11.4-2.5
								c4.3-2,8-5.3,10.6-9.6c2.5-4.2,3.9-8.9,4-13.7c-0.1-8.8-4.6-16.9-12-21.8C160.3,294.1,155.6,292.7,150.6,292.7z"/>
						</g>
						<g>
							<circle fill="#6D6E71" cx="150.4" cy="318.5" r="18.2"/>
						</g>
						<g>
							<circle fill="#414042" cx="150.4" cy="318.5" r="3.9"/>
							<path fill="#414042" d="M150.4,322.6c-2.2,0-4-1.8-4-4c0-2.2,1.8-4,4-4s4,1.8,4,4C154.4,320.7,152.6,322.6,150.4,322.6z
								 M150.4,314.7c-2.1,0-3.8,1.7-3.8,3.8c0,2.1,1.7,3.8,3.8,3.8c2.1,0,3.8-1.7,3.8-3.8C154.2,316.4,152.5,314.7,150.4,314.7z"/>
						</g>
					</g>
				</g>
				<g>
					<g>
						<g>
							<g>
								<path fill="#58595B" d="M127.3,289c2.4,1.9,5.6,2.3,8.3,1c2.7-1.2,4.3-4.1,4.4-7c0-2.7-1.4-5.1-3.6-6.5
									c-2.2-1.5-5.1-1.5-7.6-0.4c-2.4,1.1-4,3.5-4.3,6C124.2,284.7,125.2,287.4,127.3,289z"/>
							</g>
							<g>
								<g>
									<path fill="#414042" d="M126.1,290.2c4,3.1,9.8,3,13.2-1c3.3-3.8,2.9-9.6-0.7-13.1c-3.8-3.6-10.1-3.2-13.4,0.7
										C121.7,280.8,122.2,286.8,126.1,290.2c1.6,1.4,3.9-0.9,2.3-2.3c-2.6-2.2-3-5.7-1.1-8.5c1.9-2.8,6.2-3.2,8.7-1.1
										c2.6,2.1,2.9,5.7,1.1,8.5c-1.9,2.8-6.1,3.1-8.6,1.1c-0.7-0.6-1.6-0.7-2.3,0C125.5,288.5,125.4,289.7,126.1,290.2z"/>
								</g>
							</g>
						</g>
						<g>
							<g>
								<path fill="#414042" d="M136.3,276.5c-2.2-1.5-5.1-1.5-7.6-0.4c-2.4,1.1-4,3.5-4.3,6c-0.3,2.6,0.7,5.2,2.8,6.9
									c2.3,1.9,5.6,2.3,8.3,1c2.7-1.2,4.3-4.1,4.4-7C139.9,280.4,138.6,278,136.3,276.5z"/>
								<path fill="#414042" d="M132.2,290.9L132.2,290.9c-1.8,0-3.6-0.6-5-1.8c-2.1-1.7-3.1-4.4-2.8-7c0.3-2.6,2-5,4.4-6.1
									c1.1-0.5,2.3-0.8,3.5-0.8c1.5,0,2.9,0.4,4.2,1.2c2.2,1.5,3.6,4,3.6,6.6c0,3-1.8,5.9-4.4,7.1
									C134.5,290.6,133.3,290.9,132.2,290.9z M132.3,275.4c-1.2,0-2.3,0.3-3.4,0.8c-2.3,1-3.9,3.4-4.2,5.9
									c-0.3,2.6,0.7,5.2,2.7,6.8c1.3,1.1,3.1,1.7,4.8,1.7h0c1.1,0,2.3-0.3,3.4-0.7c2.5-1.2,4.3-3.9,4.3-6.9c0-2.6-1.4-5-3.5-6.4
									C135.1,275.9,133.7,275.4,132.3,275.4z"/>
							</g>
							<g>
								<circle fill="#6D6E71" cx="132.2" cy="283.1" r="5.4"/>
							</g>
							<g>
								<circle fill="#414042" cx="132.2" cy="283.1" r="2"/>
								<path fill="#414042" d="M132.2,285.2c-1.2,0-2.1-0.9-2.1-2.1s0.9-2.1,2.1-2.1s2.1,0.9,2.1,2.1S133.3,285.2,132.2,285.2z
									 M132.2,281.2c-1,0-1.9,0.8-1.9,1.9c0,1,0.8,1.9,1.9,1.9c1,0,1.9-0.8,1.9-1.9C134.1,282,133.2,281.2,132.2,281.2z"/>
							</g>
						</g>
					</g>
					<g>
						<g>
							<g>
								<path fill="#58595B" d="M163.7,289c2.3,1.9,5.6,2.3,8.3,1c2.7-1.2,4.3-4.1,4.4-7c0-2.7-1.4-5.1-3.6-6.5
									c-2.2-1.5-5.1-1.5-7.6-0.4c-2.4,1.1-4,3.5-4.3,6C160.6,284.7,161.7,287.4,163.7,289z"/>
							</g>
							<g>
								<g>
									<path fill="#414042" d="M162.5,290.2c4,3.1,9.8,3,13.2-1c3.3-3.8,2.9-9.6-0.7-13.1c-3.8-3.6-10.1-3.2-13.4,0.7
										C158.2,280.8,158.6,286.8,162.5,290.2c1.6,1.4,3.9-0.9,2.3-2.3c-2.6-2.2-3-5.7-1.1-8.5c1.9-2.8,6.2-3.2,8.7-1.1
										c2.6,2.1,2.9,5.7,1.1,8.5c-1.9,2.8-6.1,3.1-8.6,1.1c-0.7-0.6-1.6-0.7-2.3,0C162,288.5,161.8,289.7,162.5,290.2z"/>
								</g>
							</g>
						</g>
						<g>
							<g>
								<path fill="#414042" d="M172.8,276.5c-2.2-1.5-5.1-1.5-7.6-0.4c-2.4,1.1-4,3.5-4.3,6c-0.3,2.6,0.7,5.2,2.8,6.9
									c2.3,1.9,5.6,2.3,8.3,1c2.7-1.2,4.3-4.1,4.4-7C176.4,280.4,175,278,172.8,276.5z"/>
								<path fill="#414042" d="M168.6,290.9L168.6,290.9c-1.8,0-3.6-0.6-5-1.8c-2.1-1.7-3.1-4.4-2.8-7c0.3-2.6,2-5,4.4-6.1
									c1.1-0.5,2.3-0.8,3.5-0.8c1.5,0,2.9,0.4,4.2,1.2c2.2,1.5,3.6,4,3.6,6.6c0,3-1.8,5.9-4.4,7.1
									C171,290.6,169.8,290.9,168.6,290.9z M168.7,275.4c-1.2,0-2.3,0.3-3.4,0.8c-2.3,1-3.9,3.4-4.2,5.9c-0.3,2.6,0.7,5.2,2.7,6.8
									c1.3,1.1,3.1,1.7,4.8,1.7h0c1.1,0,2.3-0.3,3.4-0.7c2.5-1.2,4.3-3.9,4.3-6.9c0-2.6-1.4-5-3.5-6.4
									C171.6,275.9,170.2,275.4,168.7,275.4z"/>
							</g>
							<g>
								<circle fill="#6D6E71" cx="168.6" cy="283.1" r="5.4"/>
							</g>
							<g>
								<circle fill="#414042" cx="168.6" cy="283.1" r="2"/>
								<path fill="#414042" d="M168.6,285.2c-1.2,0-2.1-0.9-2.1-2.1s0.9-2.1,2.1-2.1s2.1,0.9,2.1,2.1S169.8,285.2,168.6,285.2z
									 M168.6,281.2c-1,0-1.9,0.8-1.9,1.9c0,1,0.8,1.9,1.9,1.9s1.9-0.8,1.9-1.9C170.5,282,169.7,281.2,168.6,281.2z"/>
							</g>
						</g>
					</g>
				</g>
			</g>
			<path fill="#231F20" d="M170,282.3c0-0.3-1.3-1.1-2-0.6c-0.7,0.5-0.8,2-0.5,2.1C168.1,284,170,282.6,170,282.3z"/>
			<path fill="#231F20" d="M133.2,282.2c0-0.3-1.3-1.1-2-0.6c-0.7,0.5-0.8,2-0.5,2.1C131.3,284,133.2,282.6,133.2,282.2z"/>
			<path fill="#231F20" d="M152.8,317.2c0-0.6-2.4-1.9-3.7-1.1s-1.4,3.6-0.8,3.8C149.4,320.4,152.8,317.8,152.8,317.2z"/>
			<g>
				<g>
					<path fill="#414042" d="M198.6,442.5h-68.4h-12l64.3-87.3l16,8.7c0,0,5.7,16.1,5.7,40.5S198.6,442.5,198.6,442.5z"/>
				</g>
				<g>
					<g>
						<path fill="#414042" d="M198.6,440.8c-9,0-17.9,0-26.9,0c-12.6,0-25.1,0-37.7,0c-5.3,0-10.5,0-15.8,0c0.5,0.8,0.9,1.7,1.4,2.5
							c3.9-5.2,7.7-10.5,11.6-15.7c8.2-11.1,16.3-22.2,24.5-33.3c7.4-10.1,14.8-20.1,22.2-30.2c2-2.7,4-5.5,6-8.2
							c-0.8,0.2-1.5,0.4-2.3,0.6c5.3,2.9,10.6,5.8,16,8.7c-0.3-0.3-0.5-0.7-0.8-1c1.7,4.8,2.7,9.8,3.6,14.8
							c2.1,12.1,2.6,24.5,1.7,36.7c-0.5,6.5-1.5,13.1-3.1,19.4c-0.6,2.3-1.2,4.6-2.1,6.8c-0.3,0.8,0.4,1.8,1.2,2
							c1,0.3,1.7-0.3,2-1.2c1.8-4.2,2.7-8.8,3.6-13.3c2.2-11.9,2.7-24.1,1.8-36.1c-0.6-9-2-18.1-4.4-26.8c-0.3-1.1-0.7-3.7-1.8-4.3
							c-1.9-1.1-3.9-2.1-5.8-3.2c-3.4-1.9-6.8-3.7-10.2-5.6c-0.9-0.5-1.7-0.1-2.3,0.6c-3.9,5.2-7.7,10.5-11.6,15.7
							c-8.2,11.1-16.3,22.2-24.5,33.3c-7.4,10.1-14.8,20.1-22.2,30.2c-2,2.7-4,5.5-6,8.2c-0.8,1,0.3,2.5,1.4,2.5
							c7.6,0,15.2,0,22.8,0c13.7,0,27.4,0,41,0c5.5,0,11,0,16.4,0C200.7,444.1,200.7,440.8,198.6,440.8z"/>
					</g>
				</g>
			</g>
			<g>
				<g>
					<g>
						<path fill="#58595B" d="M182.6,442.5h-64.3c0,0-5-17.6-5-45.1c0-27.5,5-42.3,5-42.3h64.3c0,0,3.7,19.6,4.5,43.7
							C188,422.8,182.6,442.5,182.6,442.5z"/>
					</g>
					<g>
						<g>
							<path fill="#414042" d="M182.6,440.8c-9.3,0-18.6,0-27.9,0c-11.7,0-23.3,0-35,0c-0.5,0-1,0-1.4,0c0.5,0.4,1.1,0.8,1.6,1.2
								c-1.2-4.4-2-8.9-2.7-13.4c-1.8-11.7-2.4-23.6-2.2-35.5c0.2-9.4,0.9-18.8,2.6-28c0.6-3.2,1.2-6.5,2.3-9.6
								c-0.5,0.4-1.1,0.8-1.6,1.2c9.3,0,18.6,0,27.9,0c11.7,0,23.3,0,35,0c0.5,0,1,0,1.4,0c-0.5-0.4-1.1-0.8-1.6-1.2
								c1.1,5.9,1.9,11.9,2.6,17.9c1.5,13.1,2.5,26.4,1.8,39.6c-0.5,9.7-1.7,19.6-4.3,28.9c-0.6,2.1,2.6,2.9,3.2,0.9
								c1.6-5.8,2.5-11.8,3.3-17.8c1.7-13.1,1.6-26.1,0.5-39.2c-0.8-10.4-1.9-20.9-3.9-31.2c-0.1-0.7-0.9-1.2-1.6-1.2
								c-9.3,0-18.6,0-27.9,0c-11.7,0-23.3,0-35,0c-0.5,0-1,0-1.4,0c-0.8,0-1.4,0.5-1.6,1.2c-1.3,3.8-2,7.9-2.7,11.9
								c-1.9,11.3-2.5,22.8-2.4,34.2c0.1,10.3,1,20.6,2.7,30.7c0.6,3.8,1.3,7.7,2.4,11.4c0.2,0.7,0.9,1.2,1.6,1.2
								c9.3,0,18.6,0,27.9,0c11.7,0,23.3,0,35,0c0.5,0,1,0,1.4,0C184.7,444.1,184.7,440.8,182.6,440.8z"/>
						</g>
					</g>
				</g>
				<g>
					<g>
						<g>
							<path fill="#58595B" d="M164.4,386.4c-7.5-5-17.3-5.2-25.3-1.5c-7.9,3.7-13.4,11.7-14.4,20.2c-1.1,8.7,2.5,17.6,9.2,23.2
								c7.9,6.5,18.7,7.6,27.9,3.3c9-4.1,14.5-13.6,14.6-23.4C176.3,399.4,171.8,391.3,164.4,386.4z"/>
						</g>
						<g>
							<g>
								<path fill="#414042" d="M165.2,385c-10-6.5-23.7-5.3-32.8,2.3c-8.6,7.3-11.8,19.7-8,30.3c3.9,11.1,14.7,18.4,26.4,18.3
									c5.6-0.1,11.4-1.9,15.9-5.2c4.4-3.2,7.6-7.7,9.5-12.8c2.2-5.9,2.3-12.4,0.3-18.3C174.5,393.6,170.4,388.5,165.2,385
									c-1.8-1.2-3.4,1.7-1.7,2.8c4.4,3,7.9,7.3,9.7,12.3c1.9,5.1,1.9,10.5,0.3,15.6c-1.6,4.9-4.7,9.4-9,12.4
									c-4.5,3.2-10.2,4.6-15.7,4.4c-5.6-0.3-11-2.7-15.1-6.5c-4.1-3.8-6.6-9-7.5-14.5c-1.6-10.8,5-21.9,15.2-25.8
									c7.3-2.8,15.5-2.1,22.1,2.1C165.3,389,167,386.2,165.2,385z"/>
							</g>
						</g>
					</g>
					<g>
						<g>
							<path fill="#414042" d="M164.4,386.4c-7.5-5-17.3-5.2-25.3-1.5c-7.9,3.7-13.4,11.7-14.4,20.2c-1.1,8.7,2.5,17.6,9.2,23.2
								c7.9,6.5,18.7,7.6,27.9,3.3c9-4.1,14.5-13.6,14.6-23.4C176.3,399.4,171.8,391.3,164.4,386.4z"/>
							<path fill="#414042" d="M150.3,434.4L150.3,434.4c-6.1,0-11.9-2.1-16.5-5.9c-6.8-5.6-10.4-14.5-9.3-23.3
								c1.1-8.8,6.8-16.8,14.5-20.3c3.6-1.7,7.7-2.6,11.6-2.6c5,0,9.8,1.4,13.8,4c7.5,4.9,12,13.2,12.1,22c-0.1,4.9-1.4,9.7-4,13.8
								c-2.6,4.3-6.3,7.6-10.7,9.6C158.2,433.5,154.2,434.4,150.3,434.4z M150.6,382.5c-3.9,0-7.9,0.9-11.6,2.6
								c-7.6,3.5-13.3,11.4-14.4,20.1c-1.1,8.7,2.4,17.5,9.2,23.1c4.6,3.8,10.4,5.9,16.4,5.9h0c3.9,0,7.8-0.9,11.4-2.5
								c4.3-2,8-5.3,10.6-9.6c2.5-4.2,3.9-8.9,4-13.7c-0.1-8.8-4.6-16.9-12-21.8C160.3,383.9,155.6,382.5,150.6,382.5z"/>
						</g>
						<g>
							<circle fill="#6D6E71" cx="150.4" cy="408.4" r="18.2"/>
						</g>
						<g>
							<circle fill="#414042" cx="150.4" cy="408.4" r="3.9"/>
							<path fill="#414042" d="M150.4,412.4c-2.2,0-4-1.8-4-4s1.8-4,4-4s4,1.8,4,4S152.6,412.4,150.4,412.4z M150.4,404.5
								c-2.1,0-3.8,1.7-3.8,3.8c0,2.1,1.7,3.8,3.8,3.8c2.1,0,3.8-1.7,3.8-3.8C154.2,406.2,152.5,404.5,150.4,404.5z"/>
						</g>
					</g>
				</g>
				<g>
					<g>
						<g>
							<g>
								<path fill="#58595B" d="M127.3,378.9c2.4,1.9,5.6,2.3,8.3,1c2.7-1.2,4.3-4.1,4.4-7c0-2.7-1.4-5.1-3.6-6.5
									c-2.2-1.5-5.1-1.5-7.6-0.4c-2.4,1.1-4,3.5-4.3,6C124.2,374.6,125.2,377.2,127.3,378.9z"/>
							</g>
							<g>
								<g>
									<path fill="#414042" d="M126.1,380c4,3.1,9.8,3,13.2-1c3.3-3.8,2.9-9.6-0.7-13.1c-3.8-3.6-10.1-3.2-13.4,0.7
										C121.7,370.6,122.2,376.7,126.1,380c1.6,1.4,3.9-0.9,2.3-2.3c-2.6-2.2-3-5.7-1.1-8.5c1.9-2.8,6.2-3.2,8.7-1.1
										c2.6,2.1,2.9,5.7,1.1,8.5c-1.9,2.8-6.1,3.1-8.6,1.1c-0.7-0.6-1.6-0.7-2.3,0C125.5,378.3,125.4,379.5,126.1,380z"/>
								</g>
							</g>
						</g>
						<g>
							<g>
								<path fill="#414042" d="M136.3,366.4c-2.2-1.5-5.1-1.5-7.6-0.4c-2.4,1.1-4,3.5-4.3,6c-0.3,2.6,0.7,5.2,2.8,6.9
									c2.3,1.9,5.6,2.3,8.3,1c2.7-1.2,4.3-4.1,4.4-7C139.9,370.2,138.6,367.8,136.3,366.4z"/>
								<path fill="#414042" d="M132.2,380.7L132.2,380.7c-1.8,0-3.6-0.6-5-1.8c-2.1-1.7-3.1-4.4-2.8-7c0.3-2.6,2-5,4.4-6.1
									c1.1-0.5,2.3-0.8,3.5-0.8c1.5,0,2.9,0.4,4.2,1.2c2.2,1.5,3.6,4,3.6,6.6c0,3-1.8,5.9-4.4,7.1
									C134.5,380.5,133.3,380.7,132.2,380.7z M132.3,365.3c-1.2,0-2.3,0.3-3.4,0.8c-2.3,1-3.9,3.4-4.2,5.9
									c-0.3,2.6,0.7,5.2,2.7,6.8c1.3,1.1,3.1,1.7,4.8,1.7c1.1,0,2.3-0.3,3.4-0.7c2.5-1.2,4.3-3.9,4.3-6.9c0-2.6-1.4-5-3.5-6.4
									C135.1,365.7,133.7,365.3,132.3,365.3z"/>
							</g>
							<g>
								<circle fill="#6D6E71" cx="132.2" cy="372.9" r="5.4"/>
							</g>
							<g>
								<circle fill="#414042" cx="132.2" cy="372.9" r="2"/>
								<path fill="#414042" d="M132.2,375c-1.2,0-2.1-0.9-2.1-2.1s0.9-2.1,2.1-2.1s2.1,0.9,2.1,2.1S133.3,375,132.2,375z
									 M132.2,371c-1,0-1.9,0.8-1.9,1.9c0,1,0.8,1.9,1.9,1.9c1,0,1.9-0.8,1.9-1.9C134.1,371.9,133.2,371,132.2,371z"/>
							</g>
						</g>
					</g>
					<g>
						<g>
							<g>
								<path fill="#58595B" d="M163.7,378.9c2.3,1.9,5.6,2.3,8.3,1c2.7-1.2,4.3-4.1,4.4-7c0-2.7-1.4-5.1-3.6-6.5
									c-2.2-1.5-5.1-1.5-7.6-0.4c-2.4,1.1-4,3.5-4.3,6C160.6,374.6,161.7,377.2,163.7,378.9z"/>
							</g>
							<g>
								<g>
									<path fill="#414042" d="M162.5,380c4,3.1,9.8,3,13.2-1c3.3-3.8,2.9-9.6-0.7-13.1c-3.8-3.6-10.1-3.2-13.4,0.7
										C158.2,370.6,158.6,376.7,162.5,380c1.6,1.4,3.9-0.9,2.3-2.3c-2.6-2.2-3-5.7-1.1-8.5c1.9-2.8,6.2-3.2,8.7-1.1
										c2.6,2.1,2.9,5.7,1.1,8.5c-1.9,2.8-6.1,3.1-8.6,1.1c-0.7-0.6-1.6-0.7-2.3,0C162,378.3,161.8,379.5,162.5,380z"/>
								</g>
							</g>
						</g>
						<g>
							<g>
								<path fill="#414042" d="M172.8,366.4c-2.2-1.5-5.1-1.5-7.6-0.4c-2.4,1.1-4,3.5-4.3,6c-0.3,2.6,0.7,5.2,2.8,6.9
									c2.3,1.9,5.6,2.3,8.3,1c2.7-1.2,4.3-4.1,4.4-7C176.4,370.2,175,367.8,172.8,366.4z"/>
								<path fill="#414042" d="M168.6,380.7L168.6,380.7c-1.8,0-3.6-0.6-5-1.8c-2.1-1.7-3.1-4.4-2.8-7c0.3-2.6,2-5,4.4-6.1
									c1.1-0.5,2.3-0.8,3.5-0.8c1.5,0,2.9,0.4,4.2,1.2c2.2,1.5,3.6,4,3.6,6.6c0,3-1.8,5.9-4.4,7.1
									C171,380.5,169.8,380.7,168.6,380.7z M168.7,365.3c-1.2,0-2.3,0.3-3.4,0.8c-2.3,1-3.9,3.4-4.2,5.9c-0.3,2.6,0.7,5.2,2.7,6.8
									c1.3,1.1,3.1,1.7,4.8,1.7c1.1,0,2.3-0.3,3.4-0.7c2.5-1.2,4.3-3.9,4.3-6.9c0-2.6-1.4-5-3.5-6.4
									C171.6,365.7,170.2,365.3,168.7,365.3z"/>
							</g>
							<g>
								<circle fill="#6D6E71" cx="168.6" cy="372.9" r="5.4"/>
							</g>
							<g>
								<circle fill="#414042" cx="168.6" cy="372.9" r="2"/>
								<path fill="#414042" d="M168.6,375c-1.2,0-2.1-0.9-2.1-2.1s0.9-2.1,2.1-2.1s2.1,0.9,2.1,2.1S169.8,375,168.6,375z
									 M168.6,371c-1,0-1.9,0.8-1.9,1.9c0,1,0.8,1.9,1.9,1.9s1.9-0.8,1.9-1.9C170.5,371.9,169.7,371,168.6,371z"/>
							</g>
						</g>
					</g>
				</g>
			</g>
			<path fill="#231F20" d="M170,372.1c0-0.3-1.3-1.1-2-0.6c-0.7,0.5-0.8,2-0.5,2.1C168.1,373.9,170,372.5,170,372.1z"/>
			<path fill="#231F20" d="M133.2,372.1c0-0.3-1.3-1.1-2-0.6c-0.7,0.5-0.8,2-0.5,2.1C131.3,373.8,133.2,372.4,133.2,372.1z"/>
			<path fill="#231F20" d="M152.8,407.1c0-0.6-2.4-1.9-3.7-1.1s-1.4,3.6-0.8,3.8C149.4,410.2,152.8,407.7,152.8,407.1z"/>
		</g>
		<g>
			<path fill="#FFFFFF" d="M326.6,272.4c-0.4-0.2-0.8-0.4-1.3-0.5c-0.5-0.2-1-0.3-1.5-0.3c-5.6-0.9-10.7,0.6-14.9,4.6
				c-2.4,2.3-4,5.4-5.5,8.3c-0.1,0.1-0.1,0.3-0.2,0.4c-0.4-0.1-0.9-0.3-1.4-0.3c-0.2,0-0.5,0-0.7,0c-0.1-0.3-0.3-0.7-0.5-1
				c-1.5-3.2-3.5-6.3-6.3-8.5c-5.5-4.6-12.4-4.6-18.7-1.8c-2.4,1.1-4.6,2.7-6.1,4.7c-1-0.9-2.2-1.7-3.4-2.2
				c-0.2-0.1-0.4-0.2-0.6-0.3c-0.1-0.1-0.3-0.1-0.4-0.2c-6.1-2.5-13.9-0.8-19.4,3.1c-6.4-4.7-16-5.9-22.6-1.4
				c-7.6,5.1-6.9,14.1-1.8,20.2c-2.5,7.4-2.4,16.8,4.1,21.7c4.4,3.3,10.8,1.1,14.5-2c2.3-1.9,4.2-4.3,5.9-6.8
				c4.7,7.3,12,13.8,20.2,8.8c6.9-4.2,6.5-14.3,4.2-21.6c0.7-0.8,1.4-1.7,1.9-2.6c1,1,2.1,1.8,3.2,2.7c1.4,1.1,2.8,2.1,4.3,3.2
				c0.6,0.4,1.1,0.8,1.7,1.2c-0.6,2.7-0.6,5.8-0.3,8.2c0.4,4.8,2.5,10,7.5,11.6c5.4,1.7,11.3-0.7,13.9-5.7c2.6,4.8,7.8,7.1,13.4,5.8
				c5.1-1.1,7.4-6.5,8-11.2c0.3-2.6,0.4-5.9-0.3-8.9c0.5-0.4,1.1-0.8,1.7-1.2c1.7-1.2,3.4-2.5,5.1-3.8c3.2-2.5,6.1-5.6,7.2-9.6
				C339.4,279.8,332.6,274.8,326.6,272.4z M282.6,302.8C283.1,303.4,282.9,303.5,282.6,302.8L282.6,302.8z"/>
			<g>
				<g>
					<path fill="#ED1C24" d="M246.3,289.2c-0.6,11.8,9.9,25.9,14.9,24c5-1.9,3.4-15.6,0-18.1c6.5-1.9,8.6-9.5,2.4-12.9
						C257.5,279,246.6,284.6,246.3,289.2z"/>
					<g>
						<path fill="#00AEEF" d="M243.8,289.2c-0.1,6.8,2.3,13.3,6,18.9c2.4,3.5,6.2,7.9,10.8,7.8c9.3-0.2,7-18.4,2.4-22.5
							c-0.4,1.4-0.7,2.8-1.1,4.2c8.4-3,11.3-13.7,2-17.9c-6.4-2.9-18.8,1.2-20,8.9c-0.5,3.2,4.3,4.6,4.9,1.3c0.6-3.8,6.1-5.6,9.3-6
							c6.6-0.9,9.1,6.5,2.5,8.9c-1.7,0.6-2.6,2.9-1.1,4.2c2.6,2.3,3.9,16.1-0.9,13.2c-6.4-3.8-9.8-14-9.7-20.9
							C248.9,286,243.9,286,243.8,289.2z"/>
					</g>
				</g>
				<g>
					<path fill="#ED1C24" d="M245.1,289.2c0.6,11.8-9.9,25.9-14.9,24c-5-1.9-3.4-15.6,0-18.1c-6.5-1.9-8.6-9.5-2.4-12.9
						C233.9,279,244.9,284.6,245.1,289.2z"/>
					<g>
						<path fill="#00AEEF" d="M242.6,289.2c0.1,7.5-3.4,16.5-9.7,20.9c-4.4,3.2-3.6-10.8-0.9-13.2c1.5-1.4,0.6-3.6-1.1-4.2
							c-2.3-0.8-4.1-2.3-4.2-5c-0.2-3.4,4.4-4,6.7-3.9c3.2,0.1,8.7,2.4,9.3,6c0.5,3.2,5.4,1.8,4.9-1.3c-1.3-7.6-13.6-11.8-20-8.9
							c-9.3,4.2-6.4,14.9,2,17.9c-0.4-1.4-0.7-2.8-1.1-4.2c-4.7,4.2-7,22.3,2.4,22.5c4.8,0.1,8.3-4.3,10.8-7.8
							c3.9-5.4,6.2-12.3,6-18.9C247.6,286,242.5,286,242.6,289.2z"/>
					</g>
				</g>
				<path fill="#F7941E" d="M246.3,289.2c-0.6,11.8,9.9,25.9,14.9,24c5-1.9,3.4-15.6,0-18.1c6.5-1.9,8.6-9.5,2.4-12.9
					C257.5,279,246.6,284.6,246.3,289.2z"/>
				<path fill="#F7941E" d="M245.1,289.2c0.6,11.8-9.9,25.9-14.9,24c-5-1.9-3.4-15.6,0-18.1c-6.5-1.9-8.6-9.5-2.4-12.9
					C233.9,279,244.9,284.6,245.1,289.2z"/>
				<path fill="#ED1C24" d="M247.5,293c0-9-3.4-10.3-3.4,0C244.2,303.3,247.5,302,247.5,293z"/>
				<g>
					<g>
						<path fill="#2BB673" d="M324.1,276.2c-0.2-0.1-0.4-0.1-0.6-0.1c-5.3-1.2-10,0.8-13.1,5.4c-1.6,2.3-2.8,4.7-3.9,7.2
							c-0.7,1.5-1.5,4.9-2.8,5.9c-0.9,0.7-1.5,1.7-1.2,2.9c0.3,1.2,0.9,2.8,1.9,3.6c0.5,0.4,0.3,6.2,0.4,7.3
							c0.4,3.4,1.5,7.8,5.3,8.9c10,2.8,9.9-9.5,8.5-15.5c-0.5-2-1.2-0.8,0.1-2c1.2-1.2,2.7-2.1,4-3.1c2.8-2,5.7-4,8-6.6
							C336.6,283.4,330.6,278.4,324.1,276.2z"/>
						<g>
							<path fill="#F15A29" d="M305,296.8c3.5-2.2,6-22,18.5-18.1c20,6.2-7.7,17.1-7.8,21.2c1.1,4.8,4.3,15-4,15
								c-4.6,0-4.6-9.3-4.6-15C305.6,299.1,305,296.8,305,296.8z"/>
							<path fill="#FFCD8A" d="M322.1,282c10.2,4.8-5.4,14.8-8.6,12C310.5,291.4,313.3,277.9,322.1,282z"/>
							<path fill="#FFCD8A" d="M314.1,310c-3.4,5.6-5.5-8.5-3.9-9.8C311.7,298.8,317,305.2,314.1,310z"/>
						</g>
					</g>
					<g>
						<path fill="#2BB673" d="M280.5,276.2c0.2-0.1,0.4-0.1,0.6-0.1c5.3-1.2,10,0.8,13.1,5.4c1.6,2.3,2.8,4.7,3.9,7.2
							c0.7,1.5,1.5,4.9,2.8,5.9c0.9,0.7,1.5,1.7,1.2,2.9c-0.3,1.2-0.9,2.8-1.9,3.6c-0.5,0.4-0.3,6.2-0.4,7.3
							c-0.4,3.4-1.5,7.8-5.3,8.9c-10,2.8-9.9-9.5-8.5-15.5c0.5-2,1.2-0.8-0.1-2c-1.2-1.2-2.7-2.1-4-3.1c-2.8-2-5.7-4-8-6.6
							C268.1,283.4,274,278.4,280.5,276.2z"/>
						<g>
							<path fill="#F15A29" d="M299.6,296.8c-3.5-2.2-6-22-18.5-18.1c-20,6.2,7.7,17.1,7.8,21.2c-1.1,4.8-4.3,15,4,15
								c4.6,0,4.6-9.3,4.6-15C299.1,299.1,299.6,296.8,299.6,296.8z"/>
							<path fill="#FFCD8A" d="M282.6,282c-10.2,4.8,5.4,14.8,8.6,12C294.2,291.4,291.3,277.9,282.6,282z"/>
							<path fill="#FFCD8A" d="M290.6,310c3.4,5.6,5.5-8.5,3.9-9.8C292.9,298.8,287.7,305.2,290.6,310z"/>
						</g>
					</g>
					<g>
						<path fill="#ED1C24" d="M303.5,296.4c0-9-3.4-10.3-3.4,0C300.1,306.6,303.5,305.4,303.5,296.4z"/>
						<path fill="#231F20" d="M303.1,297.9c-0.5-9.4-2.1-10.3-2.6,0.1C301.3,298.2,302.2,298.2,303.1,297.9z"/>
					</g>
				</g>
			</g>
		</g>
	</g>
	<g>
		<path opacity="0.4" fill="#231F20" d="M346.9,509.8c-12.7,1-36.1,16.7-37.1,25s15.2,18.1,34.7,18.1c18.3,0,41-9.6,38.4-22.7
			C380.3,517.2,358.6,508.8,346.9,509.8z"/>
		<g>
			<g>
				<g>
					<path fill="#754C29" d="M338.7,429.5c-4.6,22.9-9.1,45.7-13.7,68.6c-2.4,12-4.9,27.2-7.3,39.2c0,0,6.2,3.2,7.1-1.4
						c4.6-22.9,9.1-45.7,13.7-68.6c2.4-12,4.8-23.9,7.2-35.9C346.6,426.9,339.6,424.9,338.7,429.5L338.7,429.5z"/>
				</g>
				<g>
					<path fill="#A56637" d="M335.2,428.3c-4.6,22.9-9.1,45.7-13.7,68.6c-2.4,12-4.8,23.9-7.2,35.9c-0.9,4.6,6.1,6.5,7,1.9
						c4.6-22.9,9.1-45.7,13.7-68.6c2.4-12,4.8-23.9,7.2-35.9C343.1,425.6,336.1,423.7,335.2,428.3L335.2,428.3z"/>
				</g>
			</g>
			<g>
				<g>
					<path fill="#754C29" d="M358.5,427c4.6,22.9,9.1,45.7,13.7,68.6c2.4,12,4.9,27.2,7.3,39.2c0,0-6.2,3.2-7.1-1.4
						c-4.6-22.9-9.1-45.7-13.7-68.6c-2.4-12-4.8-23.9-7.2-35.9C350.6,424.3,357.6,422.4,358.5,427L358.5,427z"/>
				</g>
				<g>
					<path fill="#A56637" d="M362,425.8c4.6,22.9,9.1,45.7,13.7,68.6c2.4,12,4.8,23.9,7.2,35.9c0.9,4.6-6.1,6.5-7,1.9
						c-4.6-22.9-9.1-45.7-13.7-68.6c-2.4-12-4.8-23.9-7.2-35.9C354.1,423.1,361.1,421.2,362,425.8L362,425.8z"/>
				</g>
			</g>
			<g>
				<g>
					<path fill="#754C29" d="M352.7,408.2c-0.6,23.3-1.1,46.6-1.7,69.9c-0.3,12.2-1.2,27.7-1.5,39.8c0,0-6.7,1.8-6.6-2.9
						c0.6-23.3,1.1-46.6,1.7-69.9c0.3-12.2,0.6-24.4,0.9-36.6C345.5,403.9,352.8,403.5,352.7,408.2L352.7,408.2z"/>
				</g>
				<g>
					<path fill="#A56637" d="M356.4,407.8c-0.6,23.3-1.1,46.6-1.7,69.9c-0.3,12.2-0.6,24.4-0.9,36.6c-0.1,4.7-7.4,5-7.3,0.3
						c0.6-23.3,1.1-46.6,1.7-69.9c0.3-12.2,0.6-24.4,0.9-36.6C349.2,403.5,356.5,403.1,356.4,407.8L356.4,407.8z"/>
				</g>
			</g>
			<path fill="#414042" d="M322.5,414.7c-0.1,1,0.6,11.7,1.1,12.7c8.1,13.5,53,25.1,53-12.7C376.6,391.7,324.7,392.5,322.5,414.7z"
				/>
			<path fill="#58595B" d="M322.5,414.7c-0.1,1,0.6,2,1.1,2.9c8.1,13.5,51.8,18.5,53-2.9C377.9,391.7,324.7,392.5,322.5,414.7z"/>
		</g>
	</g>
	<g>
		<path opacity="0.4" fill="#231F20" d="M429.5,496c-12.7,1-36.1,16.7-37.1,25c-1,8.3,15.2,18.1,34.7,18.1c18.3,0,41-9.6,38.4-22.7
			S441.2,495.1,429.5,496z"/>
		<g>
			<g>
				<g>
					<path fill="#754C29" d="M421.3,415.8c-4.6,22.9-9.1,45.7-13.7,68.6c-2.4,12-4.9,27.2-7.3,39.2c0,0,6.2,3.2,7.1-1.4
						c4.6-22.9,9.1-45.7,13.7-68.6c2.4-12,4.8-23.9,7.2-35.9C429.3,413.1,422.3,411.2,421.3,415.8L421.3,415.8z"/>
				</g>
				<g>
					<path fill="#A56637" d="M417.8,414.6c-4.6,22.9-9.1,45.7-13.7,68.6c-2.4,12-4.8,23.9-7.2,35.9c-0.9,4.6,6.1,6.5,7,1.9
						c4.6-22.9,9.1-45.7,13.7-68.6c2.4-12,4.8-23.9,7.2-35.9C425.8,411.9,418.8,410,417.8,414.6L417.8,414.6z"/>
				</g>
			</g>
			<g>
				<g>
					<path fill="#754C29" d="M441.2,413.3c4.6,22.9,9.1,45.7,13.7,68.6c2.4,12,4.9,27.2,7.3,39.2c0,0-6.2,3.2-7.1-1.4
						c-4.6-22.9-9.1-45.7-13.7-68.6c-2.4-12-4.8-23.9-7.2-35.9C433.2,410.6,440.3,408.7,441.2,413.3L441.2,413.3z"/>
				</g>
				<g>
					<path fill="#A56637" d="M444.7,412c4.6,22.9,9.1,45.7,13.7,68.6c2.4,12,4.8,23.9,7.2,35.9c0.9,4.6-6.1,6.5-7,1.9
						c-4.6-22.9-9.1-45.7-13.7-68.6c-2.4-12-4.8-23.9-7.2-35.9C436.7,409.4,443.8,407.4,444.7,412L444.7,412z"/>
				</g>
			</g>
			<g>
				<g>
					<path fill="#754C29" d="M435.3,394.5c-0.6,23.3-1.1,46.6-1.7,69.9c-0.3,12.2-1.2,27.7-1.5,39.8c0,0-6.7,1.8-6.6-2.9
						c0.6-23.3,1.1-46.6,1.7-69.9c0.3-12.2,0.6-24.4,0.9-36.6C428.2,390.1,435.4,389.8,435.3,394.5L435.3,394.5z"/>
				</g>
				<g>
					<path fill="#A56637" d="M439,394.1c-0.6,23.3-1.1,46.6-1.7,69.9c-0.3,12.2-0.6,24.4-0.9,36.6c-0.1,4.7-7.4,5-7.3,0.3
						c0.6-23.3,1.1-46.6,1.7-69.9c0.3-12.2,0.6-24.4,0.9-36.6C431.9,389.7,439.1,389.4,439,394.1L439,394.1z"/>
				</g>
			</g>
			<path fill="#414042" d="M405.2,400.9c-0.1,1,0.6,11.7,1.1,12.7c8.1,13.5,53,25.1,53-12.7C459.3,377.9,407.4,378.7,405.2,400.9z"
				/>
			<path fill="#58595B" d="M405.2,400.9c-0.1,1,0.6,2,1.1,2.9c8.1,13.5,51.8,18.5,53-2.9C460.5,378,407.4,378.7,405.2,400.9z"/>
		</g>
	</g>
</g>
</svg>
