<?xml version="1.0" encoding="utf-8"?>
<!-- Generator: Adobe Illustrator 18.0.0, SVG Export Plug-In . SVG Version: 6.00 Build 0)  -->
<!DOCTYPE svg PUBLIC "-//W3C//DTD SVG 1.1//EN" "http://www.w3.org/Graphics/SVG/1.1/DTD/svg11.dtd">
<svg version="1.1" id="Layer_1" xmlns="http://www.w3.org/2000/svg" xmlns:xlink="http://www.w3.org/1999/xlink" x="0px" y="0px"
	 viewBox="0 0 640 640" enable-background="new 0 0 640 640" xml:space="preserve">
<g>
	<g>
		<path opacity="0.4" fill="#231F20" d="M292.4,228.3c-7.9,22.6,8,68.3,18.4,78.2c10.4,9.9,245.8,2.8,255.7-14.8
			c9.9-17.6,0-63.4,0-63.4"/>
		<g>
			<path fill="#808285" d="M570.4,205.4c-3.6-8.6-9-12.7-16.1-15.2c-15-5.3-31.3-5.7-46.8-6.3c-30.9-1.1-162-0.1-192.5,7.1
				c-6.1,1.4-12.9,3-17.6,8.6c-5.6,6.6-4.5,14.4-4.9,23.2c-0.8,18.8,5.8,26.7,12.1,43.2c3,7.8,5.6,15.4,11.1,20.6
				c5.9,5.5,13.4,7.9,20.5,9.5c15.5,3.6,31.7,3.1,47.4,1.5c11.3-1.2,121.4-3,132.7-5.4c11.2-2.4,23.1-4.9,33.5-10.8
				C567.4,271.4,573.4,212.5,570.4,205.4z"/>
			<path fill="#939598" d="M315.7,201c14.8-12.1,222.7-18.3,234.2,0s3.5,43.9-9.3,52.4s-205,25.6-217,0
				C311.6,227.9,306,208.9,315.7,201z"/>
			<g>
				<path fill="#A7A9AC" d="M551.6,199.5c-5.2-2.8-11-4.2-16.8-5.1c-8-1.4-16.1-2-24.2-2.3c-18.6-0.7-58.9-2.9-77.5-2.9
					c-59.6,0-93.3,4.1-102.5,6.7c-7.2,2.1-14.5,4.7-20.5,9.3c-2.3,1.8-2,5.7-0.2,7.6c2.2,2.3,5.3,2,7.6,0.2c0.8-0.6-1.1,0.8-0.3,0.2
					c0.2-0.2,0.5-0.3,0.7-0.5c0.5-0.3,1-0.6,1.5-0.9c1.2-0.7,2.5-1.3,3.7-1.9c0.6-0.3,1.3-0.6,1.9-0.8c1.2-0.5-1.1,0.4,0.1,0
					c0.4-0.1,0.7-0.3,1.1-0.4c1.6-0.6,3.3-1.1,4.9-1.7c7.6-2.3,15.4-3.9,23.2-5.1c2.1-0.3,4.2-0.6,6.3-0.9c1.1-0.1,2.1-0.3,3.2-0.4
					c0.5-0.1,1.1-0.1,1.6-0.2c0.2,0,2.2-0.3,1.3-0.2c4.6-0.5,9.2-0.9,13.9-1.3c9.2-0.6,114.7,3.8,123.9,3.9
					c8.6,0.1,17.1,0.6,25.6,1.8c0.4,0.1,0.8,0.1,1.3,0.2c-1.4-0.2,0,0,0.2,0c0.9,0.2,1.8,0.3,2.7,0.5c1.7,0.3,3.3,0.7,5,1.1
					c1.4,0.4,2.7,0.8,4,1.3c0.6,0.2,1.3,0.5,1.9,0.7c-1.8-0.8,0.2,0.1,0.6,0.4c2.6,1.4,5.8,0.8,7.4-1.8
					C554.8,204.5,554.2,200.9,551.6,199.5L551.6,199.5z"/>
			</g>
		</g>
	</g>
</g>
<g>
	<g>
		<path opacity="0.4" fill="#231F20" d="M68.6,229.5c-7.9,22.6,8,68.3,18.4,78.2c10.4,9.9,149.7,2.8,159.6-14.8s0-63.4,0-63.4"/>
		<g>
			<path fill="#808285" d="M250.5,206.6c-3.6-8.6-9-12.7-16.1-15.2c-15-5.3-31.3-5.7-46.8-6.3c-30.9-1.1-65.9-0.1-96.4,7.1
				c-6.1,1.4-12.9,3-17.6,8.6c-5.6,6.6-4.5,14.4-4.9,23.2c-0.8,18.8,5.8,26.7,12.1,43.2c3,7.8,5.6,15.4,11.1,20.6
				c5.9,5.5,13.4,7.9,20.5,9.5c15.5,3.6,31.7,3.1,47.4,1.5c11.3-1.2,25.4-3,36.6-5.4c11.2-2.4,23.1-4.9,33.5-10.8
				C247.5,272.7,253.5,213.8,250.5,206.6z"/>
			<path fill="#939598" d="M91.9,202.3c14.8-12.1,126.6-18.3,138.1,0s3.5,43.9-9.3,52.4s-108.9,25.6-120.9,0S82.2,210.1,91.9,202.3z
				"/>
		</g>
	</g>
	<g>
		<path fill="#A7A9AC" d="M229.6,198.2c-5.2-2.8-11-4.2-16.8-5.1c-8-1.4-16.1-2-24.2-2.3c-18.6-0.7-37.3,0.5-55.7,3
			c-9.4,1.3-18.8,3-28,5.6c-7.2,2.1-14.5,4.7-20.5,9.3c-2.3,1.8-2,5.7-0.2,7.6c2.2,2.3,5.3,2,7.6,0.2c0.8-0.6-1.1,0.8-0.3,0.2
			c0.2-0.2,0.5-0.3,0.7-0.5c0.5-0.3,1-0.6,1.5-0.9c1.2-0.7,2.5-1.3,3.7-1.9c0.6-0.3,1.3-0.6,1.9-0.8c1.2-0.5-1.1,0.4,0.1,0
			c0.4-0.1,0.7-0.3,1.1-0.4c1.6-0.6,3.3-1.1,4.9-1.7c7.6-2.3,15.4-3.9,23.2-5.1c2.1-0.3,4.2-0.6,6.3-0.9c1.1-0.1,2.1-0.3,3.2-0.4
			c0.5-0.1,1.1-0.1,1.6-0.2c0.2,0,2.2-0.3,1.3-0.2c4.6-0.5,9.2-0.9,13.9-1.3c9.2-0.6,18.4-0.9,27.6-0.8c8.6,0.1,17.1,0.6,25.6,1.8
			c0.4,0.1,0.8,0.1,1.3,0.2c-1.4-0.2,0,0,0.2,0c0.9,0.2,1.8,0.3,2.7,0.5c1.7,0.3,3.3,0.7,5,1.1c1.4,0.4,2.7,0.8,4,1.3
			c0.6,0.2,1.3,0.5,1.9,0.7c-1.8-0.8,0.2,0.1,0.6,0.4c2.6,1.4,5.8,0.8,7.4-1.8C232.9,203.2,232.2,199.6,229.6,198.2L229.6,198.2z"/>
	</g>
</g>
<g>
	<g>
		<path opacity="0.4" fill="#231F20" d="M292.4,384.3c-7.9,22.6,8,79,18.4,88.9c10.4,9.9,245.8,2.8,255.7-14.8
			c9.9-17.6,0-74.1,0-74.1"/>
		<g>
			<path fill="#808285" d="M570.4,361.4c-3.6-8.6-9-12.7-16.1-15.2c-15-5.3-31.3-5.7-46.8-6.3c-30.9-1.1-162-0.1-192.5,7.1
				c-6.1,1.4-12.9,3-17.6,8.6c-5.6,6.6-4.5,14.4-4.9,23.2c-0.8,18.8,5.8,37.4,12.1,53.8c3,7.8,5.6,15.4,11.1,20.6
				c5.9,5.5,13.4,7.9,20.5,9.5c15.5,3.6,31.7,3.1,47.4,1.5c11.3-1.2,121.4-3,132.7-5.4c11.2-2.4,23.1-4.9,33.5-10.8
				C567.4,438.1,573.4,368.6,570.4,361.4z"/>
			<path fill="#939598" d="M315.7,357c14.8-12.1,222.7-18.3,234.2,0c11.5,18.3,3.5,43.9-9.3,52.4s-205,25.6-217,0
				C311.6,383.9,306,364.9,315.7,357z"/>
		</g>
	</g>
	<g>
		<path fill="#E6E7E8" d="M339.4,422.5c8.5,2.2,17.4,2.9,26.2,3.5c12.3,0.9,24.7,1.1,37.1,1.1c28.5,0,57-1.2,85.4-3.8
			c12.2-1.1,24.5-2.5,36.6-4.6c8-1.3,16.4-2.8,23.9-5.9c2.1-0.9,3.6-2.7,2.9-5.1c-0.5-2-3-3.8-5.1-2.9c-7.5,3.2-15.9,4.6-23.9,5.9
			c-2.7,0.5-5.4,0.9-8.1,1.3c-0.7,0.1-1.4,0.2-2.1,0.3c-0.3,0-0.7,0.1-1,0.1c1-0.1-0.2,0-0.3,0c-1.6,0.2-3.1,0.4-4.7,0.6
			c-6.4,0.8-12.9,1.4-19.4,2c-28.4,2.6-56.9,3.8-85.4,3.7c-12,0-23.9-0.3-35.9-1.1c-4.8-0.3-9.5-0.8-14.2-1.4c1.4,0.2-0.3,0-0.7-0.1
			c-0.5-0.1-1-0.1-1.4-0.2c-0.9-0.1-1.8-0.3-2.7-0.5c-1.6-0.3-3.3-0.7-4.9-1.1C336.4,413.1,334.2,421.1,339.4,422.5L339.4,422.5z"/>
	</g>
</g>
<g>
	<g>
		<path opacity="0.4" fill="#231F20" d="M68.6,385.5c-7.9,22.6,8,79,18.4,88.9c10.4,9.9,149.7,2.8,159.6-14.8s0-74.1,0-74.1"/>
		<g>
			<path fill="#808285" d="M250.5,362.6c-3.6-8.6-9-12.7-16.1-15.2c-15-5.3-31.3-5.7-46.8-6.3c-30.9-1.1-65.9-0.1-96.4,7.1
				c-6.1,1.4-12.9,3-17.6,8.6c-5.6,6.6-4.5,14.4-4.9,23.2c-0.8,18.8,5.8,37.4,12.1,53.8c3,7.8,5.6,15.4,11.1,20.6
				c5.9,5.5,13.4,7.9,20.5,9.5c15.5,3.6,31.7,3.1,47.4,1.5c11.3-1.2,25.4-3,36.6-5.4c11.2-2.4,23.1-4.9,33.5-10.8
				C247.5,439.4,253.5,369.8,250.5,362.6z"/>
			<path fill="#939598" d="M91.9,358.3c14.8-12.1,126.6-18.3,138.1,0s3.5,43.9-9.3,52.4s-108.9,25.6-120.9,0S82.2,366.2,91.9,358.3z
				"/>
		</g>
	</g>
	<g>
		<path fill="#E6E7E8" d="M115.6,422.3c4.1,2.1,8.6,3,13,3.7c6.2,0.9,12.4,1.3,18.7,1.4c14.3,0.2,28.7-1,42.8-3.1
			c7.2-1.1,14.4-2.6,21.5-4.7c5.5-1.7,11.1-3.8,15.6-7.5c1.8-1.4,1.5-4.4,0-5.9c-1.7-1.7-4.1-1.4-5.9,0c-0.6,0.5,0.8-0.6,0.2-0.1
			c-0.2,0.1-0.3,0.2-0.5,0.4c-0.4,0.3-0.7,0.5-1.1,0.7c-0.9,0.6-1.9,1.1-2.8,1.5c-0.5,0.2-1,0.5-1.5,0.7c-0.9,0.4,0.9-0.4,0,0
			c-0.3,0.1-0.5,0.2-0.8,0.3c-1.2,0.5-2.5,0.9-3.8,1.4c-5.8,1.9-11.8,3.2-17.8,4.3c-1.6,0.3-3.2,0.6-4.8,0.8
			c-0.8,0.1-1.6,0.3-2.5,0.4c-0.4,0.1-0.8,0.1-1.2,0.2c-0.1,0-1.7,0.2-1,0.1c-3.5,0.5-7.1,0.9-10.7,1.2c-7.1,0.6-14.1,1-21.2,1.1
			c-6.6,0-13.2-0.2-19.8-1c-0.3,0-0.6-0.1-1-0.1c1.1,0.1,0,0-0.2,0c-0.7-0.1-1.4-0.2-2.1-0.3c-1.3-0.2-2.6-0.5-3.9-0.8
			c-1-0.3-2.1-0.6-3.1-0.9c-0.5-0.2-1-0.4-1.5-0.5c1.4,0.6-0.2-0.1-0.5-0.3c-2-1-4.5-0.5-5.7,1.5
			C113.1,418.5,113.6,421.3,115.6,422.3L115.6,422.3z"/>
	</g>
</g>
</svg>
