<?xml version="1.0" encoding="utf-8"?>
<!-- Generator: Adobe Illustrator 16.0.0, SVG Export Plug-In . SVG Version: 6.00 Build 0)  -->
<!DOCTYPE svg PUBLIC "-//W3C//DTD SVG 1.1//EN" "http://www.w3.org/Graphics/SVG/1.1/DTD/svg11.dtd">
<svg version="1.1" id="Layer_1" xmlns="http://www.w3.org/2000/svg" xmlns:xlink="http://www.w3.org/1999/xlink" x="0px" y="0px"
	 width="168px" height="95px" viewBox="91.14 70.445 168 95" enable-background="new 91.14 70.445 168 95" xml:space="preserve">
<g>
	<g>
		<path fill="#E6E7E8" stroke="#E6E7E8" stroke-miterlimit="10" d="M245.956,133.362c0-1.729-1.415-3.144-3.145-3.144
			c-0.262,0-0.472,0.052-0.681,0.052c-0.105-2.882-2.463-5.24-5.397-5.24c-2.987,0-5.397,2.411-5.397,5.397c0,0.052,0,0.157,0,0.209
			c-0.472-0.314-1.048-0.472-1.625-0.472c-0.576,0-1.1,0.157-1.571,0.419c0-0.053,0-0.105,0-0.157c0-2.987-2.411-5.397-5.397-5.397
			c-0.472,0-0.891,0.052-1.362,0.157c-0.943-3.773-4.297-6.55-8.332-6.55s-7.389,2.777-8.332,6.498
			c-0.419-0.105-0.839-0.157-1.258-0.157c-2.935,0-5.345,2.358-5.397,5.292c-0.314-0.105-0.629-0.157-0.943-0.157
			c-1.729,0-3.144,1.415-3.144,3.144c0,1.572,1.152,2.83,2.62,3.092v0.052h46.323l0,0
			C244.594,136.401,245.956,135.039,245.956,133.362z"/>
	</g>
	<g>
		<path fill="#E6E7E8" stroke="#E6E7E8" stroke-miterlimit="10" d="M161.065,122.725c0-1.729-1.415-3.144-3.145-3.144
			c-0.262,0-0.471,0.052-0.681,0.052c-0.104-2.882-2.463-5.24-5.397-5.24c-2.987,0-5.397,2.41-5.397,5.397c0,0.052,0,0.157,0,0.209
			c-0.472-0.314-1.048-0.471-1.624-0.471c-0.577,0-1.101,0.157-1.572,0.419c0-0.052,0-0.104,0-0.157c0-2.987-2.41-5.397-5.397-5.397
			c-0.472,0-0.891,0.052-1.362,0.157c-0.943-3.773-4.297-6.55-8.332-6.55s-7.389,2.777-8.332,6.498
			c-0.419-0.104-0.838-0.157-1.257-0.157c-2.935,0-5.346,2.358-5.397,5.292c-0.314-0.104-0.629-0.157-0.943-0.157
			c-1.729,0-3.145,1.415-3.145,3.144c0,1.572,1.153,2.83,2.62,3.092v0.053h46.323l0,0
			C159.756,125.764,161.065,124.401,161.065,122.725z"/>
	</g>
	<path fill="#FFFFFF" d="M240.191,119.686c-2.882-0.734-5.606-0.838-8.384-0.472c0.209-1.101,0.209-2.148,0.052-3.301
		s-0.733-2.201-1.571-3.04c1.52-2.201,2.148-4.978,2.096-7.86c0-0.157,0-0.314,0-0.524c-0.367-4.192-1.572-9.223-5.45-11.528
		c-3.72-2.201-9.799,0.838-13.152,2.463c0,0,0,0-0.053,0c-3.511,1.782-6.969,4.245-7.702,7.913
		c-1.992-0.524-4.035-0.471-6.184,0.786c-3.511,1.991-4.821,6.655-5.397,10.323c-0.053,0.419-0.104,0.786-0.053,1.153
		c0-0.053-0.052-0.053-0.052-0.105c-0.472,3.668-1.206,8.384,2.829,10.323c2.516,1.205,5.555,1.153,8.385,0.733
		c0.471,1.572,0.891,3.144,1.152,4.769l0,0c0,0.105,0,0.209,0,0.314c0,0.052,0,0.105,0,0.157c0,0.209,0,0.419,0.053,0.577
		c0,0.209,0.052,0.367,0.104,0.576c0,0.052,0,0.052,0,0.105c0.157,0.576,0.419,1.048,0.786,1.52
		c0.733,1.415,1.938,2.411,3.982,2.515c1.677,0.105,2.987-0.472,3.93-1.415c0.786,0.367,1.678,0.576,2.673,0.524
		c0.367-0.053,0.733-0.105,1.048-0.262c0,0.053,0,0.053,0,0.105c2.097-0.786,3.773-2.358,4.088-4.454
		c0.943,0.576,2.043,0.943,3.196,1.153c-0.104,2.567,2.148,4.402,4.454,5.24c2.358,0.891,5.083,0.524,7.336-0.472
		c1.991-0.891,2.673-2.725,2.673-4.664c4.035-0.471,8.384-1.624,9.432-5.292C252.138,122.043,243.912,120.628,240.191,119.686z"/>
	<g>
		<g>
			<polygon opacity="0.5" enable-background="new    " points="241.606,123.511 210.009,112.506 194.078,111.72 172.698,100.926 
				162.899,101.921 140.576,97.572 124.803,101.345 116.052,110.253 107.982,124.821 106.883,133.31 117.362,147.196 
				210.532,156.052 234.689,154.271 246.427,146.725 249.781,140.803 			"/>
			<path fill="#FFFFFF" d="M153.572,104.96c2.043-4.297,0.157-9.852-4.245-12c-1.781-5.711-9.327-8.174-14.2-4.664
				c-3.039-1.991-7.231-2.253-10.48-0.105c-2.306-1.572-5.293-2.096-8.227-1.1c-3.983,1.362-5.922,4.821-5.922,8.489
				c-4.192,2.83-5.345,8.804-2.096,12.943c0.314,4.14,3.196,7.493,7.074,8.384c0,0.052,0,0.104,0,0.157
				c-1.939,1.415-3.825,2.777-5.765,4.192c-3.039,2.201-2.201,7.336,1.991,7.336c1.048,0,2.097,0,3.092,0
				c1.572,0,2.62-0.996,3.668-1.991l0,0c0.576,1.153,1.677,1.991,3.406,1.991c1.048,0,2.096,0,3.092,0
				c1.572,0,2.62-0.996,3.668-1.991c0.104-0.053,0.157-0.157,0.262-0.21c0.524,1.258,1.677,2.201,3.512,2.201
				c2.148,0,4.297,0.314,6.025-1.258c1.572-1.415,3.092-2.83,4.664-4.245c1.467-1.31,2.62-2.358,2.673-4.506
				c2.567,0.052,5.135-0.943,7.021-3.04C155.668,112.401,155.563,108.209,153.572,104.96z"/>
			<path fill="#FFFFFF" d="M245.903,127.65c-1.415-3.249-2.83-6.445-4.244-9.694c-0.21-0.524-0.629-0.681-0.996-0.681
				c-5.502-1.939-11.004-3.825-16.506-5.764c-3.563-1.258-7.18-2.515-10.743-3.721c-1.362-0.471-2.829-1.205-4.244-1.31
				c-3.563-0.157-7.179-0.367-10.742-0.524c-1.415-0.052-2.777-0.157-4.192-0.209l0,0c-0.314-0.157-0.629-0.314-0.891-0.472
				c-6.341-3.196-12.629-6.393-18.97-9.589c-2.096-1.048-4.559-0.262-6.812-0.052c-1.362,0.157-2.726,0.262-4.14,0.419
				c0.262-0.052-0.157,0-0.367-0.052c-0.576-0.105-1.205-0.209-1.781-0.367c-6.498-1.258-12.996-2.568-19.546-3.826
				c-0.733-0.157-1.572,0.21-2.254,0.367c-1.886,0.471-3.825,0.891-5.711,1.362c-1.887,0.472-3.773,0.891-5.66,1.362
				c-0.891,0.209-2.096,0.262-2.934,0.786c-0.839,0.472-1.521,1.467-2.201,2.148c-1.468,1.52-2.987,2.987-4.454,4.506
				c-1.625,1.625-2.62,2.882-3.721,4.874c-1.887,3.458-3.825,6.917-5.712,10.323c-1.31,2.411-1.415,4.507-1.781,7.127
				c-0.157,1.101-0.733,2.83-0.419,3.982c0.209,0.838,1.152,1.677,1.677,2.358c2.41,3.197,4.769,6.393,7.179,9.537
				c0.524,0.681,1.048,1.363,1.572,2.044c0.786,0.996,2.41,0.628,3.563,0.576c2.567-0.052,6.235,0.681,8.384-0.943
				c1.467-1.048,2.882-2.148,4.35-3.196c0.681-0.472,0.104-0.262,0.943-0.367c0.471-0.053,0.942-0.157,1.414-0.21
				c0.21-0.052,0.367-0.052,0.524-0.052c2.463,1.834,4.979,3.668,7.441,5.555c0.838,0.629,2.253,0.419,3.196,0.419
				c2.306,0.053,4.611,0.157,6.969,0.21c0.157,0,0.314,0,0.42,0c0.681,0.367,1.31,0.733,1.991,1.1
				c2.096,1.153,4.244,2.358,6.34,3.511c2.83,1.572,43.022,5.554,44.908,5.711c1.048,0.053,2.568,0.472,3.616,0.157
				c3.196-0.996,6.445-1.991,9.642-2.935c2.41-0.733,4.926-0.891,7.441-1.205c2.306-0.314,4.926-0.209,6.917-1.52
				c3.301-2.096,6.603-4.245,9.851-6.341c2.358-1.52,2.254-5.711,2.83-8.227C248.576,132.262,246.951,130.061,245.903,127.65z
				 M136.594,138.445C136.908,138.445,136.803,138.498,136.594,138.445L136.594,138.445z"/>
			<polygon fill="#ADC136" points="126.952,99.039 141.31,95.581 163.056,99.825 172.384,98.882 193.187,109.415 209.012,110.201 
				238.776,120.576 244.541,133.572 243.126,140.069 232.908,146.672 221.38,148.244 210.637,151.545 205.973,151.545 
				198.795,148.087 193.187,148.087 183.493,150.13 175.947,147.458 166.83,147.301 155.51,141.013 145.607,140.698 137.38,134.567 
				132.507,135.354 126.952,139.441 119.563,139.598 110.602,127.65 111.494,120.733 119.039,107.057 			"/>
			<polygon opacity="0.2" fill="#E6E7E8" enable-background="new    " points="192.926,108.628 179.563,149.921 191.615,151.703 
				204.873,110.043 			"/>
			<polygon opacity="0.2" fill="#E6E7E8" enable-background="new    " points="221.694,113.45 209.851,153.222 221.903,150.55 
				232.645,116.594 			"/>
			<polygon opacity="0.2" fill="#E6E7E8" enable-background="new    " points="141.258,93.17 123.913,139.965 138.533,136.349 
				154.201,96.157 			"/>
			<polygon opacity="0.2" fill="#E6E7E8" enable-background="new    " points="171.284,97.729 154.724,142.428 165.991,147.982 
				182.602,102.865 			"/>
		</g>
		<g>
			<g>
				
					<ellipse transform="matrix(-0.0902 -0.9959 0.9959 -0.0902 56.9701 281.8798)" fill="#286784" cx="157.237" cy="114.918" rx="3.773" ry="6.812"/>
				
					<ellipse transform="matrix(-0.0901 -0.9959 0.9959 -0.0901 64.2981 292.7679)" fill="#286784" cx="165.883" cy="117.013" rx="2.882" ry="5.292"/>
				
					<ellipse transform="matrix(-0.0902 -0.9959 0.9959 -0.0902 67.8829 286.8127)" fill="#286784" cx="164.942" cy="112.401" rx="2.987" ry="4.768"/>
				
					<ellipse transform="matrix(-0.0903 -0.9959 0.9959 -0.0903 73.8745 296.894)" fill="#286784" cx="172.54" cy="114.706" rx="3.668" ry="6.287"/>
			</g>
			<g>
				
					<ellipse transform="matrix(-0.0903 -0.9959 0.9959 -0.0903 56.0679 283.1419)" fill="#4997B2" cx="157.344" cy="115.965" rx="3.773" ry="6.812"/>
				
					<ellipse transform="matrix(-0.0901 -0.9959 0.9959 -0.0901 63.3715 294.015)" fill="#4997B2" cx="165.99" cy="118.06" rx="2.882" ry="5.292"/>
				
					<ellipse transform="matrix(-0.0902 -0.9959 0.9959 -0.0902 67.0041 287.9993)" fill="#4997B2" cx="165.045" cy="113.396" rx="2.987" ry="4.768"/>
				
					<ellipse transform="matrix(-0.0903 -0.9959 0.9959 -0.0903 72.997 298.0809)" fill="#4997B2" cx="172.642" cy="115.7" rx="3.668" ry="6.288"/>
			</g>
		</g>
		<g>
			<g>
				
					<ellipse transform="matrix(-0.0903 -0.9959 0.9959 -0.0903 93.6837 314.3562)" fill="#286784" cx="190.406" cy="114.393" rx="3.616" ry="6.288"/>
				
					<ellipse transform="matrix(-0.0903 -0.9959 0.9959 -0.0903 101.7016 323.247)" fill="#286784" cx="198.476" cy="115.177" rx="3.616" ry="6.288"/>
				
					<ellipse transform="matrix(-0.0903 -0.9959 0.9959 -0.0903 92.4008 323.4501)" fill="#286784" cx="193.918" cy="119.526" rx="3.616" ry="6.288"/>
				
					<ellipse transform="matrix(-0.0902 -0.9959 0.9959 -0.0902 97.6549 332.4536)" fill="#286784" cx="200.678" cy="121.622" rx="3.616" ry="6.287"/>
			</g>
			<g>
				
					<ellipse transform="matrix(-0.0902 -0.9959 0.9959 -0.0902 91.9376 314.969)" fill="#4997B2" cx="189.833" cy="115.491" rx="3.616" ry="6.288"/>
				
					<ellipse transform="matrix(-0.0902 -0.9959 0.9959 -0.0902 99.8936 323.8131)" fill="#4997B2" cx="197.85" cy="116.28" rx="3.616" ry="6.287"/>
				
					<ellipse transform="matrix(-0.0902 -0.9959 0.9959 -0.0902 90.6402 323.9537)" fill="#4997B2" cx="193.288" cy="120.576" rx="3.616" ry="6.288"/>
				
					<ellipse transform="matrix(-0.0902 -0.9959 0.9959 -0.0902 95.9221 332.9712)" fill="#4997B2" cx="200.048" cy="122.673" rx="3.616" ry="6.288"/>
			</g>
		</g>
		<path fill="#F1F2F2" d="M178.305,114.236c0-1.52,6.078-3.092,6.655,0.209c-0.524,1.205-1.049,2.306-1.049,2.306
			s-0.733-2.148-2.882-1.991s-3.196,2.882-3.196,2.882L178.305,114.236z"/>
	</g>
	<g>
		<g>
			<g>
				<path opacity="0.4" fill="#231F20" enable-background="new    " d="M215.092,127.755c-15.721,1.153-17.346,7.703,1.152,7.126
					C234.742,134.305,226.882,126.864,215.092,127.755z"/>
				<path opacity="0.4" fill="#231F20" enable-background="new    " d="M235.947,132.209c-13.782,0.628-15.145,4.035,0.995,3.773
					C253.082,135.668,246.218,131.738,235.947,132.209z"/>
				<path fill="#FFFFFF" d="M220.802,103.284c-0.209-0.367-0.733-0.524-1.152-0.314c-1.153,0.734-1.939,1.887-2.62,3.04
					c-0.733,1.257-1.468,2.567-1.991,3.93c-1.153,2.725-1.887,5.607-2.358,8.489c-0.314,1.991-0.523,3.982-0.472,5.974
					c0,1.101,0.157,2.148,0.314,3.249c0.053,0.472,0.157,0.891,0.314,1.31c0.053,0.209,0.105,0.419,0.21,0.629
					c0.052,0.104,0.052,0.157,0.104,0.262c0.104,0.419,0.314,0.734,0.576,1.048c0.577,0.628,1.729,0.786,2.411,0.314
					c0.419-0.262,0.838-0.682,0.943-1.206c0.052-0.419,0.104-0.891-0.105-1.257c-0.052-0.053-0.052-0.157-0.104-0.21
					c-0.053-0.157-0.157-0.262-0.21-0.419c-0.366-0.943-0.576-1.991-0.733-2.987c-0.314-2.777-0.157-5.66,0.21-8.437
					c0.314-2.463,0.891-4.821,1.729-7.179c0.105-0.262,0.21-0.577,0.314-0.838c0.053-0.157,0.105-0.262,0.157-0.419c0,0,0,0,0-0.052
					s0.053-0.105,0.053-0.157c0.21-0.472,0.419-0.943,0.629-1.415s0.472-0.943,0.786-1.415c0.053-0.105,0.157-0.209,0.209-0.314
					l0.053-0.052c-0.053,0.052,0.053-0.105,0.104-0.105c0.157-0.209,0.367-0.367,0.577-0.577
					C220.96,104.017,220.96,103.546,220.802,103.284z"/>
				<path fill="#A7A9AC" d="M212.523,127.703c0.053,0.472,0.157,0.891,0.314,1.31c0.053,0.209,0.105,0.419,0.21,0.629
					c0.052,0.105,0.052,0.157,0.104,0.262c0.104,0.419,0.314,0.733,0.576,1.048c0.053,0.052,0.105,0.105,0.157,0.105
					c0.105,0,0.157,0.052,0.21,0.157l0,0c0.104,0.052,0.21,0.104,0.367,0.157l0,0c0.995,0.157-0.053-1.415-0.263-3.04
					c-0.419-3.092,0.053-16.244,1.625-18.288c0,0,0.262-1.205,0.314-2.358c-0.053,0.104-0.105,0.157-0.157,0.262l0,0
					c-0.053,0.053-0.105,0.157-0.105,0.262v0.052c-0.052,0.052-0.052,0.157-0.104,0.209c0,0,0,0.053-0.053,0.053
					c-0.052,0.052-0.052,0.157-0.104,0.209c0,0,0,0.052-0.053,0.052c-0.052,0.053-0.052,0.105-0.104,0.21
					c0,0.052,0,0.052-0.053,0.104c-0.052,0.053-0.052,0.105-0.104,0.157c0,0.053,0,0.053-0.052,0.105
					c-0.053,0.052-0.053,0.105-0.105,0.209c0,0.053,0,0.053-0.052,0.105c-0.053,0.105-0.053,0.157-0.105,0.262
					c-1.152,2.725-1.887,5.607-2.357,8.489c-0.314,1.991-0.524,3.982-0.472,5.974C212.209,125.554,212.314,126.603,212.523,127.703z
					"/>
				<path fill="#A7A9AC" d="M216.348,107.266c-0.472,0.838-0.891,1.677-1.257,2.516c0.471,0.891,1.257,1.991,1.991,2.148
					c0.209-0.786,0.472-1.572,0.733-2.358c0.104-0.262,0.209-0.576,0.314-0.838c0.052-0.105,0.104-0.262,0.157-0.367
					L216.348,107.266z"/>
				<g>
					<path fill="#FFFFFF" d="M224.576,116.803c-0.629-0.419-1.677,0-2.254,0.367c-0.576,0.314-1.152,0.734-1.624,1.258
						c-0.943,0.943-1.729,2.043-2.41,3.144c-0.472,0.786-0.891,1.572-1.258,2.411c-0.472,1.1-0.891,2.148-1.101,3.354
						c-0.104,0.419-0.157,0.838-0.157,1.31c-0.053,0.419,0,0.891,0.104,1.31c0.157,0.996,0.734,2.148,1.782,2.358
						c0.419,0.105,0.838,0.053,1.258-0.157c0.472-0.262,0.891-0.838,0.786-1.415c0-0.157,0-0.419-0.053-0.577
						s-0.157-0.367-0.21-0.524c-0.052-0.157-0.157-0.262-0.209-0.367c0.052,0.157,0.104,0.262,0.157,0.419
						c-0.105-0.262-0.157-0.524-0.21-0.786c0,0.157,0.053,0.314,0.053,0.471c-0.053-0.524-0.053-1.048,0.052-1.52
						c0,0.157-0.052,0.314-0.052,0.472c0.157-1.258,0.576-2.463,1.048-3.616c-0.053,0.105-0.105,0.262-0.157,0.367
						c0.523-1.257,1.205-2.463,1.938-3.616c0.104-0.157,0.21-0.314,0.314-0.471c0.053-0.105,0.104-0.157,0.157-0.262
						c0.21-0.314-0.157,0.209,0,0c0.262-0.314,0.524-0.629,0.786-0.943s0.576-0.524,0.839-0.838
						c0.314-0.367,0.733-0.576,0.838-1.048C225.048,117.38,224.89,117.013,224.576,116.803L224.576,116.803z"/>
				</g>
				<path fill="#A7A9AC" d="M219.65,119.581c-0.472,0.629-0.943,1.31-1.362,1.939l0,0c0.523,1.048,1.205,2.358,1.991,2.987
					c0.314-0.681,0.629-1.31,0.995-1.939C220.751,121.572,220.122,120.419,219.65,119.581z"/>
				<g>
					<path fill="#FFFFFF" d="M205.816,117.065c0.104,0.104-0.157-0.157-0.053-0.053L205.816,117.065
						C205.921,117.223,205.659,116.908,205.816,117.065c0,0,0,0.052,0.053,0.052c0.052,0.052,0.104,0.105,0.157,0.157
						c-0.105-0.157-0.157-0.209-0.105-0.105l0.053,0.053c0.053,0.052,0.053,0.104,0.104,0.104c0.053,0.105,0.157,0.209,0.21,0.314
						c0.314,0.577,0.629,1.206,0.891,1.782c0.157,0.367,0.367,0.733,0.524,1.153c0,0.052,0.052,0.105,0.052,0.157
						c0.105,0.209-0.104-0.314-0.052-0.105c0.052,0.105,0.104,0.21,0.104,0.314c0.104,0.21,0.157,0.419,0.262,0.681
						c0.367,0.891,0.682,1.834,0.996,2.725c0.681,1.886,1.258,3.878,1.52,5.869c0-0.157-0.053-0.262-0.053-0.419
						c0.053,0.314,0.104,0.577,0.104,0.891c0-0.157-0.052-0.262-0.052-0.419c0.052,0.576,0.104,1.153,0.157,1.677
						c0-0.105-0.053-0.262-0.053-0.367c0,0.052,0,0.104,0,0.157c0.053,0.629,0.367,1.205,1.048,1.362
						c0.734,0.209,1.52-0.262,1.729-0.996c0.262-0.838,0.104-1.782,0-2.62c-0.157-0.838-0.367-1.677-0.629-2.463
						c-0.576-1.939-1.31-3.877-2.201-5.711c-0.628-1.311-1.257-2.568-2.096-3.773c-0.314-0.471-0.681-0.891-1.101-1.31
						c-0.052-0.053-0.157-0.105-0.209-0.157c-0.053-0.053-0.157-0.105-0.21-0.157c0.314,0.262,0.053,0-0.053-0.053
						c-0.052,0-0.052-0.052-0.104-0.052c-0.262-0.105-0.472-0.209-0.733-0.209C205.397,115.65,205.24,116.699,205.816,117.065
						L205.816,117.065z"/>
				</g>
				<path fill="#C563AE" d="M224.995,96.367c3.092,1.52,5.607,11.948,1.101,15.511c-4.507,3.563-7.231-0.209-9.065-2.777
					c-1.834-2.567-6.55,0.524-7.284-4.401C209.117,100.402,222.846,95.319,224.995,96.367z"/>
				<path fill="#A7A9AC" d="M210.637,121.362c-0.42-0.891-0.892-1.782-1.363-2.672l-1.571,2.148c0,0.052,0.052,0.104,0.052,0.157
					c0.105,0.209,0.157,0.419,0.263,0.681c0.157,0.471,0.366,0.891,0.523,1.362c1.048,0,2.044-0.052,2.725-0.262
					C211.108,122.305,210.899,121.834,210.637,121.362z"/>
				<path fill="#C563AE" d="M197.956,120.891c0-7.965,2.253-18.236,10.376-12.209c8.122,6.026,10.899,9.38,6.812,11.318
					C211.056,121.938,197.956,124.768,197.956,120.891z"/>
				<path fill="#C563AE" d="M221.589,114.55c2.83-0.314,8.437-0.786,5.816,5.764c-2.672,6.55-6.917,4.979-8.646-0.943
					C216.977,113.45,219.126,114.864,221.589,114.55z"/>
			</g>
			<path fill="#FFFFFF" d="M233.799,128.017c-0.314,2.253-2.935,2.83-3.145,4.769c-0.209,1.939,6.865,2.777,6.708,0
				c-0.21-2.777-1.677-4.297-1.677-4.769"/>
			<path fill="#A7A9AC" d="M232.488,130.218c1.153,0.209,2.987,0.471,4.297,0.262c-0.419-1.153-0.995-1.939-1.152-2.306
				c-0.314-0.104-0.524-0.157-0.524-0.157h-1.362C233.693,128.96,233.117,129.642,232.488,130.218z"/>
			<path fill="#C563AE" d="M235.685,122.83c-2.935-0.157-12.263,1.415-11.058,4.611c1.206,3.196,23.948,2.253,22.114-1.52
				C246.742,125.921,239.248,123.091,235.685,122.83z"/>
			<path fill="#0E3173" d="M224.995,96.367c-1.101-0.524-5.449,0.629-9.17,2.463c1.991,3.196,4.716,4.14,6.445,4.035
				c1.362-0.105,3.878,1.257,6.288,1.624C228.244,100.821,226.724,97.205,224.995,96.367z"/>
			<path fill="#0E3173" d="M235.685,122.83c-1.363-0.105-4.088,0.209-6.498,0.891c0.052,1.048,0.891,1.258,2.777,0.838
				c2.777-0.629,4.401,0.629,6.131,0.209c0.629-0.157,1.258-0.576,1.729-1.1C238.304,123.249,236.785,122.934,235.685,122.83z"/>
			<path fill="#0E3173" d="M222.322,114.445c-0.419,0.996,0.053,2.201,0.786,2.358c0.943,0.209,2.673,3.93,3.563,3.458
				c0.262-0.157,0.682-0.524,1.101-0.943C229.292,114.288,225.099,114.183,222.322,114.445z"/>
			<path fill="#0E3173" d="M202.41,114.864c1.415-2.62,4.297-2.201,6.235-3.354c0.577-0.367,1.153-0.838,1.678-1.362
				c-0.629-0.472-1.258-0.943-1.939-1.467c-6.341-4.664-9.118,0.524-10.009,6.812C199.894,116.227,201.677,116.174,202.41,114.864z"
				/>
			<path fill="#A7A9AC" d="M217.606,132.262c0.262,0.052,0.524,0.052,0.786,0c-0.733-0.577-1.52-1.415-1.677-2.568
				c-0.367-2.306,1.31-6.969,2.725-7.65l-0.995-0.733c-0.053,0.052-0.105,0.157-0.157,0.209c-0.472,0.786-0.891,1.572-1.258,2.41
				c-0.472,1.101-0.891,2.148-1.101,3.354c-0.104,0.419-0.157,0.838-0.157,1.31c-0.053,0.419,0,0.891,0.104,1.31
				C215.929,130.899,216.506,132.052,217.606,132.262z"/>
			<g>
				<path fill="#FFFFFF" d="M228.087,124.454c2.253,0,1.991,2.83-0.053,2.83C226.043,127.284,225.834,124.454,228.087,124.454z"/>
				<path fill="#EF4136" d="M229.187,125.659c0-0.314-0.262-0.629-0.576-0.629c-0.21,0-0.42,0.157-0.524,0.314l0,0
					c-0.104-0.209-0.314-0.314-0.524-0.314c-0.314,0-0.576,0.262-0.576,0.629c0,0.472,1.205,1.257,1.205,1.257l0,0
					C228.139,126.917,229.187,126.235,229.187,125.659z"/>
			</g>
			<g>
				<path fill="#FFFFFF" d="M233.327,123.406c2.253,0,1.991,2.83-0.053,2.83C231.231,126.288,231.074,123.406,233.327,123.406z"/>
				<path fill="#EF4136" d="M234.427,124.611c0-0.314-0.263-0.628-0.577-0.628c-0.209,0-0.419,0.157-0.523,0.314l0,0
					c-0.104-0.21-0.314-0.314-0.524-0.314c-0.314,0-0.576,0.262-0.576,0.628c0,0.472,1.205,1.258,1.205,1.258l0,0
					C233.327,125.869,234.427,125.188,234.427,124.611z"/>
			</g>
			<g>
				<path fill="#FFFFFF" d="M239.877,124.873c2.254,0,1.991,2.83-0.052,2.83C237.781,127.703,237.624,124.873,239.877,124.873z"/>
				<path fill="#EF4136" d="M240.977,126.078c0-0.314-0.262-0.628-0.576-0.628c-0.21,0-0.419,0.157-0.524,0.314l0,0
					c-0.104-0.21-0.314-0.314-0.523-0.314c-0.314,0-0.577,0.262-0.577,0.628c0,0.472,1.206,1.258,1.206,1.258l0,0
					C239.877,127.336,240.977,126.603,240.977,126.078z"/>
			</g>
			<g>
				<path fill="#FFFFFF" d="M215.143,101.711c2.673,0,2.358,3.354-0.052,3.354C212.68,105.065,212.471,101.711,215.143,101.711z"/>
				<path fill="#EF4136" d="M216.454,103.126c0-0.419-0.314-0.733-0.734-0.733c-0.262,0-0.523,0.157-0.628,0.367c0,0,0,0-0.053,0
					c-0.104-0.209-0.367-0.367-0.629-0.367c-0.367,0-0.733,0.314-0.733,0.733c0,0.577,1.415,1.467,1.415,1.467l0,0
					C215.143,104.594,216.454,103.755,216.454,103.126z"/>
			</g>
			<g>
				<path fill="#FFFFFF" d="M220.645,98.043c2.673,0,2.358,3.354-0.052,3.354C218.182,101.397,217.973,98.043,220.645,98.043z"/>
				<path fill="#EF4136" d="M221.903,99.458c0-0.419-0.314-0.734-0.733-0.734c-0.262,0-0.524,0.157-0.629,0.367c0,0,0,0-0.053,0
					c-0.104-0.21-0.366-0.367-0.628-0.367c-0.367,0-0.734,0.314-0.734,0.734c0,0.576,1.415,1.467,1.415,1.467l0,0
					C220.645,100.978,221.903,100.14,221.903,99.458z"/>
			</g>
			<g>
				<path fill="#FFFFFF" d="M223.737,106.847c2.516,0.996,0.943,3.982-1.258,3.091C220.226,109.1,221.274,105.852,223.737,106.847z"
					/>
				<path fill="#EF4136" d="M224.47,108.681c0.157-0.367-0.052-0.786-0.419-0.943c-0.262-0.105-0.523-0.052-0.733,0.105l0,0
					c-0.053-0.262-0.21-0.472-0.419-0.577c-0.367-0.157-0.786,0.053-0.943,0.419c-0.21,0.524,0.786,1.886,0.786,1.886l0,0
					C222.689,109.572,224.209,109.257,224.47,108.681z"/>
			</g>
			<g>
				<path fill="#FFFFFF" d="M210.427,114.079c2.672-0.314,2.725,3.091,0.314,3.354C208.332,117.694,207.755,114.393,210.427,114.079
					z"/>
				<path fill="#EF4136" d="M211.894,115.336c-0.052-0.367-0.419-0.681-0.786-0.629c-0.262,0.053-0.471,0.21-0.576,0.472
					c0,0,0,0-0.052,0c-0.157-0.209-0.42-0.367-0.682-0.314c-0.367,0.053-0.682,0.419-0.629,0.786c0.053,0.577,1.572,1.31,1.572,1.31
					l0,0C210.794,116.96,211.947,116.017,211.894,115.336z"/>
			</g>
			<g>
				<path fill="#FFFFFF" d="M204.663,108.996c2.673-0.314,2.726,3.092,0.314,3.354C202.62,112.611,202.043,109.257,204.663,108.996z
					"/>
				<path fill="#EF4136" d="M206.131,110.253c-0.053-0.367-0.419-0.681-0.786-0.628c-0.262,0.052-0.472,0.209-0.576,0.471
					c0,0,0,0-0.053,0c-0.157-0.209-0.419-0.367-0.682-0.314c-0.366,0.052-0.681,0.419-0.628,0.786
					c0.052,0.577,1.571,1.31,1.571,1.31l0,0C205.03,111.877,206.182,110.882,206.131,110.253z"/>
			</g>
			<g>
				<path fill="#FFFFFF" d="M201.258,114.131c2.672-0.314,2.725,3.092,0.313,3.354C199.214,117.747,198.637,114.445,201.258,114.131
					z"/>
				<path fill="#EF4136" d="M202.724,115.388c-0.053-0.367-0.419-0.681-0.786-0.628c-0.262,0.052-0.472,0.209-0.576,0.472
					c0,0,0,0-0.053,0c-0.157-0.21-0.419-0.367-0.681-0.314c-0.367,0.052-0.682,0.419-0.629,0.786c0.052,0.577,1.571,1.31,1.571,1.31
					l0,0C201.624,117.013,202.829,116.07,202.724,115.388z"/>
			</g>
			<g>
				<path fill="#FFFFFF" d="M205.973,118.166c2.672-0.314,2.725,3.092,0.314,3.354C203.877,121.781,203.353,118.48,205.973,118.166z
					"/>
				<path fill="#EF4136" d="M207.44,119.476c-0.052-0.367-0.419-0.681-0.786-0.628c-0.262,0.052-0.472,0.209-0.576,0.471
					c0,0,0,0-0.052,0c-0.157-0.209-0.42-0.367-0.682-0.314c-0.367,0.052-0.682,0.419-0.629,0.786c0.053,0.577,1.572,1.31,1.572,1.31
					l0,0C206.34,121.048,207.493,120.104,207.44,119.476z"/>
			</g>
			<g>
				<path fill="#FFFFFF" d="M225.205,120.314c1.415,2.306-1.625,3.773-2.883,1.729C221.065,120,223.843,118.061,225.205,120.314z"/>
				<path fill="#EF4136" d="M224.68,122.201c0.314-0.209,0.419-0.629,0.21-0.996c-0.157-0.209-0.42-0.367-0.682-0.314l0,0
					c0.157-0.209,0.157-0.524,0-0.734c-0.209-0.314-0.629-0.419-0.995-0.209c-0.472,0.314-0.524,1.991-0.524,1.991l0,0
					C222.742,121.886,224.157,122.567,224.68,122.201z"/>
			</g>
			<g>
				<path fill="#FFFFFF" d="M223.737,115.703c2.148,1.572-0.104,4.087-2.043,2.673C219.807,116.96,221.589,114.131,223.737,115.703z
					"/>
				<path fill="#EF4136" d="M223.947,117.642c0.21-0.314,0.157-0.786-0.157-0.996c-0.21-0.157-0.524-0.157-0.733-0.052l0,0
					c0.052-0.262-0.053-0.524-0.263-0.681c-0.314-0.21-0.785-0.157-0.995,0.157c-0.367,0.472,0.262,2.043,0.262,2.043l0,0
					C222.06,118.061,223.58,118.166,223.947,117.642z"/>
			</g>
		</g>
	</g>
	<g>
		<g>
			<g>
				<rect x="140.471" y="111.301" fill="#A56637" width="1.415" height="7.65"/>
				<rect x="140.419" y="111.301" fill="#754C29" width="0.786" height="7.65"/>
				<path fill="#006838" d="M148.385,105.17c1.31-0.943,2.148-2.411,2.148-4.14c0-2.672-2.097-4.821-4.769-5.083
					c0-0.105,0-0.262,0-0.367c0-2.83-2.358-5.083-5.293-5.083s-5.293,2.306-5.293,5.083c0,0.891,0.21,1.677,0.629,2.411
					c-2.567,0.367-4.506,2.463-4.506,5.03c0,1.625,0.786,3.04,1.991,3.983c-0.105,0.367-0.157,0.733-0.157,1.153
					c0,2.83,2.357,5.083,5.292,5.083c1.101,0,2.097-0.314,2.935-0.838c0.943,1.415,2.568,2.306,4.454,2.306
					c2.935,0,5.293-2.306,5.293-5.083C151.109,107.738,150.009,106.061,148.385,105.17z"/>
				<ellipse fill="#9CB729" cx="140.21" cy="93.275" rx="1.729" ry="1.258"/>
				<path fill="#9CB729" d="M136.908,100.245c0.21,0.681-0.366,1.415-1.31,1.677c-0.891,0.262-1.834-0.053-1.991-0.734
					c-0.21-0.681,0.366-1.415,1.31-1.677C135.807,99.249,136.699,99.563,136.908,100.245z"/>
				<path fill="#9CB729" d="M148.07,100.769c-0.577,0.419-1.468,0.209-2.097-0.524c-0.629-0.734-0.629-1.677-0.104-2.148
					c0.576-0.419,1.467-0.21,2.096,0.524C148.594,99.354,148.646,100.297,148.07,100.769z"/>
				<path fill="#9CB729" d="M148.855,110.725c-0.681,0.157-1.414-0.472-1.624-1.415c-0.21-0.943,0.21-1.782,0.891-1.939
					c0.682-0.157,1.415,0.472,1.625,1.415C149.956,109.677,149.537,110.567,148.855,110.725z"/>
			</g>
			<path fill="#9CB729" d="M139.581,105.17c1.31-0.943,2.148-2.411,2.148-4.14c0-2.672-2.097-4.821-4.769-5.083
				c0-0.105,0-0.262,0-0.367c0-1.048-0.314-1.991-0.839-2.777c-0.523,0.786-0.838,1.782-0.838,2.777
				c0,0.891,0.209,1.677,0.629,2.411c-2.568,0.367-4.507,2.463-4.507,5.03c0,1.625,0.786,3.04,1.991,3.983
				c-0.104,0.367-0.157,0.733-0.157,1.153c0,2.83,2.358,5.083,5.293,5.083c1.1,0,2.096-0.314,2.935-0.838l0,0
				c0.523-0.786,0.838-1.782,0.838-2.777C142.305,107.738,141.205,106.061,139.581,105.17z"/>
			<g>
				<rect x="129.782" y="111.301" fill="#A56637" width="1.414" height="7.65"/>
				<rect x="129.729" y="111.301" fill="#754C29" width="0.786" height="7.65"/>
				<path fill="#006838" d="M137.747,105.17c1.31-0.943,2.148-2.411,2.148-4.14c0-2.672-2.097-4.821-4.769-5.083
					c0-0.105,0-0.262,0-0.367c0-2.83-2.358-5.083-5.293-5.083s-5.292,2.306-5.292,5.083c0,0.891,0.209,1.677,0.629,2.411
					c-2.568,0.367-4.507,2.463-4.507,5.03c0,1.625,0.786,3.04,1.991,3.983c-0.104,0.367-0.157,0.733-0.157,1.153
					c0,2.83,2.358,5.083,5.293,5.083c1.1,0,2.096-0.314,2.934-0.838c0.943,1.415,2.568,2.306,4.454,2.306
					c2.935,0,5.293-2.306,5.293-5.083C140.419,107.738,139.319,106.061,137.747,105.17z"/>
				<ellipse fill="#9CB729" cx="129.519" cy="93.275" rx="1.729" ry="1.258"/>
				<path fill="#9CB729" d="M126.219,100.245c0.209,0.681-0.367,1.415-1.311,1.677c-0.891,0.262-1.834-0.053-1.991-0.734
					c-0.209-0.681,0.367-1.415,1.311-1.677C125.118,99.249,126.009,99.563,126.219,100.245z"/>
				<path fill="#9CB729" d="M137.432,100.769c-0.576,0.419-1.468,0.209-2.097-0.524c-0.628-0.734-0.628-1.677-0.104-2.148
					c0.576-0.419,1.468-0.21,2.096,0.524C137.904,99.354,137.956,100.297,137.432,100.769z"/>
				<path fill="#9CB729" d="M138.166,110.725c-0.682,0.157-1.415-0.472-1.624-1.415c-0.21-0.943,0.209-1.782,0.891-1.939
					c0.681-0.157,1.415,0.472,1.624,1.415C139.266,109.677,138.847,110.567,138.166,110.725z"/>
			</g>
			<path fill="#9CB729" d="M129.258,105.17c1.31-0.943,2.148-2.411,2.148-4.14c0-2.672-2.096-4.821-4.769-5.083
				c0-0.105,0-0.262,0-0.367c0-1.153-0.367-2.201-1.048-3.039c-0.682,0.838-1.048,1.886-1.048,3.039
				c0,0.891,0.209,1.677,0.629,2.411c-2.568,0.367-4.507,2.463-4.507,5.03c0,1.625,0.786,3.04,1.991,3.983
				c-0.104,0.367-0.157,0.733-0.157,1.153c0,2.83,2.358,5.083,5.293,5.083c1.1,0,2.096-0.314,2.934-0.838
				c0.053,0.105,0.105,0.157,0.21,0.262c0.682-0.838,1.048-1.887,1.048-3.039C131.982,107.738,130.882,106.061,129.258,105.17z"/>
			<g>
				<ellipse fill="#006838" cx="115.634" cy="103.074" rx="5.292" ry="5.083"/>
				<rect x="119.459" y="111.301" fill="#A56637" width="1.415" height="7.65"/>
				<rect x="119.406" y="111.301" fill="#754C29" width="0.786" height="7.65"/>
				<ellipse fill="#006838" cx="124.856" cy="109.677" rx="5.292" ry="5.083"/>
				<ellipse fill="#006838" cx="117.468" cy="108.209" rx="5.292" ry="5.083"/>
				<ellipse fill="#006838" cx="119.51" cy="95.633" rx="5.293" ry="5.083"/>
				<ellipse fill="#006838" cx="124.279" cy="101.083" rx="5.293" ry="5.083"/>
				<ellipse fill="#9CB729" cx="119.196" cy="93.275" rx="1.729" ry="1.258"/>
				<path fill="#9CB729" d="M115.895,100.245c0.21,0.681-0.367,1.415-1.311,1.677c-0.891,0.262-1.834-0.053-1.991-0.734
					c-0.209-0.628,0.367-1.415,1.311-1.677C114.795,99.249,115.685,99.563,115.895,100.245z"/>
				<path fill="#9CB729" d="M127.109,100.769c-0.576,0.419-1.468,0.209-2.096-0.524c-0.629-0.734-0.629-1.677-0.105-2.148
					c0.577-0.419,1.468-0.21,2.097,0.524C127.581,99.354,127.634,100.297,127.109,100.769z"/>
				<path fill="#9CB729" d="M127.843,110.725c-0.681,0.157-1.415-0.472-1.624-1.415c-0.21-0.943,0.209-1.782,0.891-1.939
					s1.415,0.472,1.624,1.415C128.943,109.677,128.524,110.567,127.843,110.725z"/>
			</g>
		</g>
		<polygon opacity="0.4" fill="#231F20" enable-background="new    " points="135.546,124.716 132.454,124.716 140.419,118.952 
			141.834,118.952 		"/>
		<polygon opacity="0.4" fill="#231F20" enable-background="new    " points="125.013,124.716 121.869,124.716 129.834,118.952 
			131.302,118.952 		"/>
		<polygon opacity="0.4" fill="#231F20" enable-background="new    " points="114.795,124.716 111.703,124.716 119.616,118.952 
			121.083,118.952 		"/>
	</g>
</g>
</svg>
