<?xml version="1.0" encoding="utf-8"?>
<!-- Generator: Adobe Illustrator 18.0.0, SVG Export Plug-In . SVG Version: 6.00 Build 0)  -->
<!DOCTYPE svg PUBLIC "-//W3C//DTD SVG 1.1//EN" "http://www.w3.org/Graphics/SVG/1.1/DTD/svg11.dtd">
<svg version="1.1" id="Layer_1" xmlns="http://www.w3.org/2000/svg" xmlns:xlink="http://www.w3.org/1999/xlink" x="0px" y="0px"
	 viewBox="0 0 640 640" enable-background="new 0 0 640 640" xml:space="preserve">
<g>
	<g>
		<path fill="#FFCD8A" d="M496.6,417.7C495.6,417.7,494.5,417.7,496.6,417.7L496.6,417.7z"/>
	</g>
	<path fill="#A97C50" d="M588.6,425.4c1.8,39-14.1,67.9-83,71.1s-54.5-37.5-55.5-60.4s-3.7-42.7-3.7-42.7l108-1.2"/>
	<path fill="#754C29" d="M520.2,483.4c-2.3,6.3-41.9,1.9-42.2-3.1c-0.1-3.1,7.6-25,1.9-35.5C474.1,434.3,520.2,483.4,520.2,483.4z"
		/>
	<path fill="#A97C50" d="M201.7,412.3c1.8,39.9-4.3,59.8-7.1,73.3c-3.8,18.1-34.7,37.6-65.4,38.9c-68.9,2.8-64.5-33.2-65.5-56.1
		c-1.1-22.8-2.7-57.3-2.7-57.3l108-1.2"/>
	<path fill="#8B5E3C" d="M122,477.5c1.4,30.2,28.2,40.3,48.8,19.4c-0.7-7.6-3.7-26-3.7-26c-10.7-4.8-35.6-2.7-44.2,6.6"/>
	<path fill="#FFCD8A" d="M194.6,486.7c1.3-13.5-65.6-21.2-71.7-7.6c-4.4-33.2-0.3-55.9-0.3-55.9s85.1-17.2,84.4,1.8
		C206.5,444,194.6,486.7,194.6,486.7z"/>
	<path fill="#D3A56E" d="M207.1,425c0.6-19-84.4-1.8-84.4-1.8s-3.1,12.8-1.7,32.7c27.9-7,69.7-9.5,81.8-2.6
		C205,442.9,206.9,432.2,207.1,425z"/>
	<path fill="#FFCD8A" d="M520.2,483.4c1.3-13.5-63.5-26.3-69.6-12.6c-4.4-33.2-2.4-50.9-2.4-50.9s85.1-17.2,84.4,1.8
		S520.2,483.4,520.2,483.4z"/>
	<path fill="#D3A56E" d="M448.2,419.8c0,0-0.6,5-0.5,14.5c25.7-2.2,70.1,4.2,81.2,12.6c1.9-9.4,3.5-18.8,3.7-25.3
		C533.3,402.6,448.2,419.8,448.2,419.8z"/>
	<path fill="#FFCD8A" d="M94.7,436c44.5-25,86,1,110.4,5.7c0,0,20.1-2.1,31.7,0.8l22.3-10.1l-2.7,14.3c0.1,0,0.2,0,0.3,0.1
		l19.8-10.5l-1,12.9c9.1,0.8,18.4,1.1,27.9,0.7c28.9-1,59-3.9,86.2-9.8c17.6-3.8,33.3-9.2,49.7-14.1c22.5-6.7,52.7-10.8,76.7-6.2
		c13.8,2.7,62.2,10.8,69.7,34.5c0,0,3.8-12.7,3.5-18.3c-0.5-9.8-0.9-19.7-1.4-29.5c-0.9-18.4-1.7-36.9-2.6-55.3
		c-0.4-8.5-4.6-99.3-5-107.8c-0.8-18.1-3.3-72.1-4.2-90.1c-0.2-5.1-2-8.1-7.5-12.2c-12.1-9.1-28.1-17.7-48.3-22.4
		c-13.6-3.1-27.8-3.6-43-2.7c-26.5,1.7-52.7,6.1-74.5,14.6c-15.7,6.1-28.7,15.6-46.8,20c-21.2,5.1-44.2,2.4-64.6-0.9
		c-2.3-0.4-4.5-0.7-6.8-1.1l-17.1,12.3L236,141.2c-7.8-0.9-15.6-1.5-23.7-1.9c-17.4-0.8-35-0.6-52.6,0.4
		c-15.5,0.9-31.1,2.4-46.1,4.8c-12.3,2-24.7,4.9-35,9c-11.2,4.5-19.1,10-23.9,16.7c-5.4,7.5-3.6,15.9-3.2,23.5
		c1.3,29.1,8.2,176.3,9.5,205.4c0.8,16.9,1.6,33.7,2.3,50.6c0.2,5.1,0.9,34.4,0.7,27.6C63.6,454.8,80.3,444.1,94.7,436z
		 M447.1,423.5C448,423.3,449.2,423,447.1,423.5L447.1,423.5z M542.4,429.2C543,429.5,543.6,429.9,542.4,429.2L542.4,429.2z
		 M181.5,431.7c1,0,3,0.1-0.1,0C181.4,431.7,181.4,431.7,181.5,431.7z M342.8,151C342.8,151,342.8,151,342.8,151
		C345.9,151,343.8,151,342.8,151z"/>
</g>
</svg>
