<?xml version="1.0" encoding="utf-8"?>
<!-- Generator: Adobe Illustrator 16.0.0, SVG Export Plug-In . SVG Version: 6.00 Build 0)  -->
<!DOCTYPE svg PUBLIC "-//W3C//DTD SVG 1.1//EN" "http://www.w3.org/Graphics/SVG/1.1/DTD/svg11.dtd">
<svg version="1.1" id="Layer_1" xmlns="http://www.w3.org/2000/svg" xmlns:xlink="http://www.w3.org/1999/xlink" x="0px" y="0px"
	 width="985px" height="985px" viewBox="-194.86 -14.332 985 985" enable-background="new -194.86 -14.332 985 985"
	 xml:space="preserve">
<g>
	<g>
		<path fill="#FFCD8A" d="M589.006,633.765C587.365,633.765,585.559,633.765,589.006,633.765L589.006,633.765z"/>
	</g>
	<path fill="#A97C50" d="M740.033,646.405c2.954,64.021-23.147,111.463-136.254,116.717c-113.104,5.253-89.466-61.561-91.108-99.152
		c-1.641-37.593-6.073-70.097-6.073-70.097l177.293-1.971"/>
	<path fill="#754C29" d="M627.747,741.617c-3.774,10.341-68.781,3.118-69.274-5.09c-0.163-5.088,12.476-41.039,3.12-58.276
		C552.071,661.016,627.747,741.617,627.747,741.617z"/>
	<path fill="#A97C50" d="M104.903,624.9c2.954,65.498-7.06,98.166-11.657,120.327c-6.237,29.713-56.963,61.724-107.359,63.857
		c-113.106,4.597-105.883-54.5-107.524-92.092c-1.806-37.429-4.433-94.063-4.433-94.063l177.292-1.97"/>
	<path fill="#8B5E3C" d="M-25.934,731.931c2.299,49.576,46.293,66.157,80.11,31.848c-1.149-12.477-6.074-42.682-6.074-42.682
		c-17.564-7.88-58.44-4.432-72.558,10.834"/>
	<path fill="#FFCD8A" d="M93.246,747.034c2.134-22.161-107.687-34.802-117.701-12.477c-7.224-54.501-0.493-91.766-0.493-91.766
		s139.699-28.235,138.551,2.956C112.781,676.938,93.246,747.034,93.246,747.034z"/>
	<path fill="#D3A56E" d="M113.767,645.748c0.984-31.191-138.551-2.956-138.551-2.956s-5.088,21.014-2.79,53.682
		c45.8-11.492,114.419-15.596,134.281-4.269C110.32,675.133,113.437,657.566,113.767,645.748z"/>
	<path fill="#FFCD8A" d="M627.747,741.617c2.134-22.161-104.24-43.175-114.254-20.685c-7.223-54.5-3.939-83.558-3.939-83.558
		s139.698-28.235,138.551,2.956C646.954,671.521,627.747,741.617,627.747,741.617z"/>
	<path fill="#D3A56E" d="M509.554,637.211c0,0-0.986,8.208-0.82,23.805c42.188-3.613,115.074,6.894,133.297,20.683
		c3.118-15.432,5.745-30.862,6.074-41.532C649.252,608.977,509.554,637.211,509.554,637.211z"/>
	<path fill="#FFCD8A" d="M-70.748,663.806c73.051-41.039,141.176,1.641,181.231,9.357c0,0,32.996-3.447,52.039,1.313l36.606-16.581
		l-4.431,23.475c0.164,0,0.328,0,0.491,0.164l32.504-17.235l-1.643,21.176c14.94,1.312,30.205,1.806,45.802,1.149
		c47.441-1.643,96.853-6.403,141.503-16.088c28.892-6.237,54.666-15.104,81.587-23.147c36.937-10.998,86.513-17.729,125.911-10.178
		c22.654,4.434,102.106,17.73,114.419,56.637c0,0,6.237-20.851,5.745-30.042c-0.82-16.088-1.478-32.339-2.298-48.427
		c-1.479-30.205-2.79-60.575-4.27-90.78c-0.656-13.954-7.551-163.009-8.207-176.963c-1.313-29.712-5.417-118.359-6.895-147.907
		c-0.329-8.372-3.283-13.296-12.312-20.027c-19.862-14.939-46.128-29.056-79.289-36.772c-22.325-5.089-45.636-5.91-70.588-4.432
		c-43.502,2.791-86.512,10.013-122.299,23.967c-25.772,10.014-47.113,25.609-76.826,32.832c-34.802,8.372-72.558,3.94-106.046-1.477
		c-3.776-0.657-7.387-1.149-11.164-1.806l-28.071,20.191l-51.544-32.339c-12.806-1.477-25.61-2.462-38.906-3.119
		c-28.564-1.313-57.457-0.985-86.348,0.657c-25.445,1.477-51.053,3.939-75.678,7.879c-20.191,3.283-40.548,8.043-57.456,14.774
		c-18.385,7.387-31.355,16.416-39.233,27.415c-8.866,12.312-5.91,26.102-5.253,38.577c2.134,47.771,13.461,289.411,15.595,337.181
		c1.313,27.744,2.626,55.323,3.776,83.065c0.328,8.373,1.477,56.47,1.148,45.309C-121.803,694.668-94.388,677.103-70.748,663.806z
		 M507.747,643.285C509.225,642.958,511.195,642.465,507.747,643.285L507.747,643.285z M664.192,652.643
		C665.176,653.135,666.16,653.792,664.192,652.643L664.192,652.643z M71.741,656.746c1.643,0,4.924,0.165-0.164,0
		C71.577,656.746,71.577,656.746,71.741,656.746z M336.531,195.953L336.531,195.953
		C341.618,195.953,338.171,195.953,336.531,195.953z"/>
</g>
</svg>
