<?xml version="1.0" encoding="utf-8"?>
<!-- Generator: Adobe Illustrator 18.0.0, SVG Export Plug-In . SVG Version: 6.00 Build 0)  -->
<!DOCTYPE svg PUBLIC "-//W3C//DTD SVG 1.1//EN" "http://www.w3.org/Graphics/SVG/1.1/DTD/svg11.dtd">
<svg version="1.1" id="Layer_1" xmlns="http://www.w3.org/2000/svg" xmlns:xlink="http://www.w3.org/1999/xlink" x="0px" y="0px"
	 viewBox="0 0 1136 640" enable-background="new 0 0 1136 640" xml:space="preserve">
<rect x="-23.6" y="-19.7" fill="#80CCDD" width="1183.3" height="679.5"/>
<g>
	<defs>
		<rect id="SVGID_3_" x="-33.1" y="-19.7" width="1202.3" height="679.5"/>
	</defs>
	<clipPath id="SVGID_2_">
		<use xlink:href="#SVGID_3_"  overflow="visible"/>
	</clipPath>
	<g clip-path="url(#SVGID_2_)">
		<path opacity="0.4" fill="#231F20" d="M1149.3-55.9c0.1-0.7,0.1-1.5,0.1-2.2c0-0.8,0-1.6-0.1-2.3c-0.8-17.8-5.7-34.5-14.3-50.1
			c-7-115.6-15.4-231.8-33.5-346.2c-4.2-26.5-7.3-57.3-20.3-81.3c-12.9-23.7-46.8-29.9-70.9-34.5c-93.2-17.8-187.4-31.4-281.6-42.4
			c-149-17.4-302.6-30.5-452.3-13.3c-40.9,4.7-81.8,11.7-120.8,25.3c-29,10.1-56.7,23.9-77.9,45.1C73.2-569,66.1-578.3,53.3-584
			c-16.3-7.1-33.7-11.1-51.2-14.4c-56.1-10.7-113.6-14.8-170.6-18c-144.1-8.1-290.3-7.2-434,8.3c-53.5,5.8-109.2,12.4-160.1,31.1
			c-16.5,6.1-33.6,13.6-46.2,26.3c-19.4,19.6-27.2,51.9-34.5,77.5c-13,45.5-21.8,92.2-29.7,138.7c-9.8,57.4-17.5,115.1-24.1,173
			c-45.2,11.1-89.3,48.4-102.9,91.9c-18,57.6,29.8,115.1,84.5,128.5c-6.4,117.9-8.8,237.5,7.1,354.7c5.4,39.6,13.1,80.5,31.5,116.5
			c11.4,22.3,28.9,37,51.3,47.5c51.3,24.1,109.6,33.5,165.2,41.5c76.6,11,153.9,16.6,231.1,19.6c79,3.1,158.1,3.1,237.1-0.1
			c63.1-2.6,126.8-6.8,189-17.9c18.4-3.3,37-7.2,54.5-14c8.6-3.4,16.3-7.1,23.5-13.1c10.5-8.8,16.9-22.8,21.3-37.3
			c59,61.8,149.4,92.2,230,110.7c121.4,27.9,247,27.5,370.7,19.3c60.7-4,121.3-10.9,181.2-21.6c47.7-8.6,95.4-19.8,140.4-37.8
			c31.9-12.8,64.9-29.1,86.3-57c17.4-22.6,22.3-54.4,26.6-81.7c11.7-73.4,13.4-148.5,14.3-222.7c1.1-94.2-1.5-188.5-5.8-282.6
			C1145.4-29.5,1148.7-42.2,1149.3-55.9z"/>
		<g>
			<g>
				<path fill="#631E3A" d="M1076-482.1c16.3,3.7,47.9,9.2,59.1,25.4c43.7,63.9,105.7,999.3,29.9,1119.2
					c-50.2,79.5-305.4,124-569.8,122.6c-236.5-1.2-488.7-82.3-493.6-236.8c-7-222.1,1.3-410.6,1.3-410.6s-85.6-513.6,30.6-614.2
					C312.4-631.4,1076-482.1,1076-482.1z"/>
				<g>
					<path fill="#F7941E" d="M1064.5-63.4c-46.7,32.8-47.3,114.5-33.6,163.7c6.7,24,18.2,44.5,45,48.3
						c29.5,4.2,128.3-45.5,128.3-117.9S1111.9-96.7,1064.5-63.4z"/>
				</g>
				<g>
					<path fill="#D37C1E" d="M1047.2-53c-41.9,29.4-42.4,102.7-30.1,146.9c6,21.5,16.3,39.9,40.3,43.3c26.4,3.8,115-40.8,115-105.8
						S1089.7-82.9,1047.2-53z"/>
				</g>
				<g>
					<path fill="#FFCD8A" d="M149.3,498.7c-57.8,322.3,914.4,281.3,996.1,123c35.7-69.2,12.7-950.2-26.7-1000.6
						c-39.3-50.4-161.7-72.3-161.7-72.3"/>
					<g>
						<path fill="#FFCD8A" d="M147.5,498.2c-7.3,41.4,2.9,81.8,29.6,114.3c30.1,36.5,74.3,59.7,117.6,76.6
							c56.4,22,116.4,34.3,176.3,42.5c67.2,9.2,135.2,12.6,203.1,12c66.6-0.6,133.3-5.2,199.3-14.4c55.7-7.8,111.5-18.7,164.8-36.9
							c20.4-7,40.5-15.1,59.4-25.6c14.3-7.9,28.4-17.4,39.3-29.7c7.6-8.6,12.2-17.6,14.6-28.7c3.4-15.5,5-31.5,6.3-47.3
							c4.7-53.4,5.8-107.2,6.5-160.8c1-71.5,0.5-143-0.8-214.5c-1.4-75.4-3.7-150.8-7.1-226.1c-2.9-65.3-6.6-130.6-12.3-195.7
							c-3.6-41-6.5-83.3-16.3-123.4c-1.2-5.1-2.6-10.1-4.7-14.9c-3.4-8-10.4-14.1-16.9-19.6c-30.2-25.6-70.9-39-108.4-49.4
							c-13.3-3.7-26.8-7-40.4-9.5c-2.3-0.4-3.4,3.2-1,3.6c25.4,4.6,50.5,11.7,74.8,20.2c20,7,39.7,15.6,57.6,26.9
							c8.3,5.2,16.1,11.2,22.9,18.3c2.6,2.7,5.2,5.4,7,8.7c5.2,9.9,7,22.2,9,33.1c3.7,19.9,6.1,40,8.3,60.1
							c6.5,59.4,10.3,119.1,13.6,178.7c4,73.8,6.8,147.7,8.7,221.5c1.9,74.1,3,148.2,2.8,222.3c-0.2,60.3-0.9,120.7-4.2,181
							c-1.1,20.7-2.6,41.3-5.1,61.9c-1.5,11.8-2.8,24.4-7.3,35.5c-4.8,11.9-15.9,22.1-26,29.8c-15.1,11.6-32.3,20.3-49.7,27.8
							c-48.1,20.8-100.2,32.7-151.6,41.9c-64.3,11.5-129.5,17.7-194.7,20.2c-68.5,2.7-137.2,1.2-205.5-5.5
							c-62.7-6.1-125.4-16.5-185.7-35.3c-47.7-14.9-96.2-35.4-133.7-69.3c-30.9-27.9-50.3-65.4-49-107.6c0.2-7.3,1.1-14.6,2.3-21.8
							C151.6,496.8,148,495.8,147.5,498.2L147.5,498.2z"/>
					</g>
				</g>
				<path fill="#631E3A" d="M98.8-486.2c39.3,58.8,94.9,1116.4,1.7,1178c-90.4,59.8-795.1,61.1-927.4-34.7s-35-1021.9,41.3-1118.4
					S60-544.1,98.8-486.2z"/>
				<g>
					<path fill="#F9AD5A" d="M1144.3,596.5c-5.3,13.8-11.3,30.4-22.4,40.7c-4.2,3.8-9.8,6.4-14.9,8.7c-15.9,7.1-33.2,11.5-50.1,15.5
						c-24.4,5.8-49.2,10.1-73.9,13.8c-65.6,9.9-131.9,15.5-198.2,18.8c-75.9,3.8-152,4.4-227.9,1c-72.1-3.2-144.4-9.8-215.3-24
						c-53-10.6-108.3-25-154.6-53.9c4.3,4.3,8.8,8.5,13.6,12.6c25.5,13.5,53.6,22.9,80.4,30.6c65.1,18.7,133,27.8,200.3,33.6
						c75.9,6.5,152.2,8.1,228.3,6.5c71.1-1.5,142.1-5.7,212.8-13.6c51.6-5.7,103.8-12.6,153.9-26.5c14.3-3.9,29.1-8.4,41.9-15.9
						c8.5-5,13.8-12.9,18.5-21.5c7.4-13.7,12.8-28.5,17.7-43.2c0.6-5.4,1.2-11.2,1.8-17.4C1152.5,573.8,1148.6,585.3,1144.3,596.5z"
						/>
					<path fill="#F9AD5A" d="M472.9,679.7c74.4,7.2,149.2,9.5,223.9,8.6c70.5-0.8,141-4.4,211.1-11.7c52.7-5.5,105.9-12.4,157.3-26
						c15.7-4.2,31.7-8.9,46.1-16.5c5-2.6,10.1-5.7,13.7-10c7.4-8.9,11.6-20.3,15-31.2c11.7-37.3,14.8-77.6,17.4-116.4
						c3.8-55.7,4.1-111.5,3.3-167.3c-1.7-120.9-9.9-241.7-18.1-362.3c-6.2-91.9-13-183.8-20.3-275.7c-0.9-11.4-1.8-22.8-2.7-34.2
						c-0.2-0.4-0.5-0.7-0.7-1c-1.1-1.4-2.2-2.8-3.4-4.1c4,49.3,7.8,98.6,11.5,147.9c8.2,110,15.9,220,22.3,330.1
						c6.9,118.9,12.1,238.6,5.1,357.6c-2.4,40.4-5.5,81.9-16.8,120.9c-3.3,11.5-7.5,23.6-15.1,33c-3.5,4.4-8.7,7.2-13.6,9.8
						c-14.7,7.6-31,12.3-46.9,16.4c-23.2,6.1-46.8,10.5-70.4,14.3C928,672.3,864,677.8,800.1,681.3c-74.2,4-148.7,4.7-223,1.7
						c-71.8-2.9-143.8-9.1-214.5-22c-56-10.2-113.7-24.2-164-51.8c-13.4-7.3-26.2-15.9-37.5-26.1c1.9,3.5,4,7,6.3,10.4
						c31.6,25.3,72.2,40.1,110.2,51.5C341,663.8,407.1,673.4,472.9,679.7z"/>
					<path fill="#F9AD5A" d="M279.6,630.9c64.1,19,131,28.5,197.5,34.7c74.6,6.9,149.7,8.9,224.6,7.7c69.8-1.2,139.7-5.2,209-13.2
						c50.6-5.8,102.1-12.8,151-27.5c14-4.2,28.7-9,41-17.2c7.5-5,12.9-12,17.3-19.7c8.4-14.8,13.1-31.7,17-48.1
						c11.9-51,14.6-104.4,15.8-156.6c1.1-45.6,0.2-91.3-1.1-136.9c-2.8-94-8.5-187.9-15.4-281.7c-6-81.5-13-162.9-20.7-244.2
						c-3.4-35.6-6.9-71.1-10.7-106.7c-1.3-1.2-2.7-2.3-4.1-3.5c3.1,28.9,6,57.7,8.8,86.6c7.5,77.7,14.4,155.5,20.4,233.4
						c7.2,93.8,13.3,187.8,16.8,281.8c1.7,43.9,2.7,87.8,2.7,131.7c0,55.1-1.7,110.6-10.3,165.2c-3.2,20-7.3,40.1-14.2,59.2
						c-4.4,12-10.2,25-20.1,33.5c-10,8.6-23.9,13.2-36.2,17.3c-46.9,15.5-97,22.4-145.8,28.4c-68.5,8.4-137.6,12.7-206.6,14.3
						c-75,1.8-150.1,0.1-224.9-6.1c-67.7-5.7-135.7-14.9-201.2-33.1c-45.8-12.7-95.3-30.2-130.7-63.4l-6.5-1.6
						c0.1,0.2,0.2,0.4,0.2,0.6C186.6,599.6,234.9,617.7,279.6,630.9z"/>
					<path fill="#F9AD5A" d="M470.8,653.4c74.6,6.9,149.7,8.9,224.6,7.7c69.8-1.2,139.7-5.2,209-13.2c50.6-5.8,102.1-12.8,151-27.5
						c14-4.2,28.7-9,41-17.2c9.7-6.4,15.8-16.4,20.4-26.9c6.9-15.6,10.8-32.4,14-49c4.2-22.4,6.7-45.1,8.5-67.8
						c4.8-58.8,4.9-118,3.9-177c-1.2-68.5-4.5-137.1-8.8-205.5c-4.3-67.4-9.6-134.7-15.6-202c-5-55.6-10.4-111.1-16.3-166.5
						c-3.5-32.6-7.1-65.2-10.9-97.7c-1.3-1-2.7-1.9-4.1-2.9c1.6,13.2,3.1,26.4,4.6,39.6c5.1,45.4,9.9,90.7,14.4,136.2
						c6.2,62.6,11.8,125.2,16.7,187.9c5.4,69.2,9.9,138.4,13,207.7c2.9,65.1,4.6,130.3,3.4,195.5c-1,50.5-3,101.7-12.3,151.5
						c-3.1,16.6-7,33.4-13.9,48.9c-4.6,10.4-10.7,19.7-20.4,25.8c-13,8.1-28.2,12.8-42.8,17c-22.2,6.4-44.9,11-67.6,15
						C920.2,644,857,649.9,794,653.6c-74.2,4.4-148.6,5.3-222.9,2.5c-72.2-2.7-144.5-8.9-215.6-22c-56.4-10.4-114.5-24.6-164.8-52.9
						c-6.4-3.6-12.6-7.4-18.6-11.6l-9.7-2.3c32,25.2,72.7,40.1,110.9,51.4C337.5,637.7,404.4,647.2,470.8,653.4z"/>
				</g>
				<path fill="#FFCD8A" d="M1060.1-442.4c39.3,54.2,126.6,983.5,33.4,1040.3c-90.4,55.1-761.7,72.9-893.9-15.3
					c-16.2-10.8-43.6-5.6-52.8-37.5c-71.9-248.6-54.9-919.7,12-997.8C235.1-541.7,1021.4-495.9,1060.1-442.4z"/>
				<path fill="#F9AD5A" d="M1106.7,286.4c0,0-2.3,268.1-31.3,307.2c-29,39.1-711.1,73.4-881.8-50c-30.8-63.9-46.7-216-46.7-216"/>
				<path fill="#FFCD8A" d="M-785-439.5c-37.9,56.8-111.6,1012.9-21.9,1072.4c53.8,35.7,322.9,71.5,547.6,69
					c138.5-1.6,254.1-32,302.6-67.3c127.3-92.5,112.7-991.7,39.3-1084.9S-747.7-495.5-785-439.5z"/>
				<g>
					<path fill="#F9AD5A" d="M-163.6,653.5c-76,6.2-152.3,7.6-228.5,5.8c-70.7-1.6-141.4-6-211.6-14.1
						c-50.8-5.8-102.3-12.7-151.6-26.9c-13.4-3.9-27.5-8.2-39.2-16c-10.3-6.9-15.9-20.3-20.7-31.3c-4.9-11.2-9.1-22.8-12.9-34.5
						c0.7,6.5,1.5,12.5,2.4,18.2c0.7,1.9,1.4,3.7,2.1,5.6c5.4,14,11.3,29.3,21.5,40.5c4.1,4.5,9.9,7.5,15.4,10.1
						c15.2,7.2,31.8,11.7,48.1,15.7c23.8,5.9,48,10.2,72.2,14c64.5,10.1,129.7,15.8,194.9,19.4c75.7,4.2,151.7,5,227.5,2.1
						c72.3-2.8,144.8-9,216-22.3c22.8-4.3,46-9.2,68.8-15.5c1.7-1.8,3.3-3.7,4.9-5.6c-2.3,0.7-4.5,1.3-6.8,1.9
						C-27,639-95.6,647.9-163.6,653.5z"/>
					<path fill="#F9AD5A" d="M-154,639.2c-74.2,6.9-148.9,9.1-223.5,8.1c-70.1-0.9-140.2-4.7-209.8-12.1
						c-52.2-5.5-104.9-12.5-155.7-26.3c-15.1-4.1-30.6-8.8-44.3-16.5c-5.8-3.2-10.2-6.9-13.8-12.5c-7.1-11-10.9-24-14.2-36.6
						c-10.5-40.9-13.2-83.9-15.4-126c-2.9-57.2-2.8-114.6-1.5-171.8c2.8-127.1,11.8-254.1,19.2-381.1c0.3-4.6,0.5-9.1,0.8-13.7
						c-14.7,173-25.3,393-23,551.2c1.4,35.3,3.9,70.6,9.1,105.6c2.5,16.8,5.7,33.6,10.9,49.8c3.4,10.7,7.8,21.7,15.2,30.3
						c7.9,9.3,22.6,14,33.6,18c44.1,15.7,91.7,22.4,137.8,28.5c66.7,8.8,134,13.5,201.2,15.8c74.6,2.5,149.4,1.8,223.9-3
						c69-4.5,138.2-12.3,205.6-27.6c17.4-4,35.1-8.4,52.6-13.8c1-1.7,2-3.4,2.9-5.1c-5,1.6-10,3.1-14.9,4.5
						C-21.2,623.6-87.8,633.1-154,639.2z"/>
					<path fill="#F9AD5A" d="M-157.8,625.1c-74.4,6.7-149.3,8.5-223.9,7.1c-69.4-1.3-138.7-5.4-207.7-13.4
						c-50.1-5.8-101.1-12.8-149.4-27.7c-13.5-4.2-27.7-8.9-39.3-17.2c-8.5-6.1-13.9-15.6-18.2-24.9c-7.9-17-12.2-35.8-15.8-54.1
						c-10.6-54.5-12.6-110.7-13-166c-0.3-47,0.5-94,2-140.9c3-97.5,8.6-195,15.5-292.4c5.2-74,11.1-147.9,17.8-221.8
						c1.5-16.4,3-32.9,4.6-49.3c-3,15.7-6,34.8-9,56.9c-1.2,13.2-2.3,26.4-3.5,39.6c-7.2,83.5-13.5,167.1-18.7,250.8
						c-6.1,97.9-10.9,195.9-12.2,294c-0.7,53.4-0.6,106.9,3.8,160.1c2,24.3,4.9,48.6,9.6,72.5c3.5,17.9,8.1,35.8,15.7,52.4
						c4.4,9.6,10.1,19.1,18.6,25.6c4.7,3.6,10.1,6.4,15.5,8.8c16.3,7.4,33.9,12.2,51.2,16.4c54,13.1,109.7,19.9,165,25.1
						c71.3,6.7,143,9.7,214.6,9.6c74.1-0.1,148.4-3.5,222-12.2c59.4-7.1,119.3-17.3,176.2-36.4c0.6-1.5,1.1-2.9,1.7-4.4
						c-8.2,2.7-16.3,5.2-24.4,7.6C-23.7,609.7-91,619.1-157.8,625.1z"/>
					<path fill="#F9AD5A" d="M50.2,577.8c-62.9,18.7-128.5,28.2-193.8,34.4c-73,6.9-146.4,9.1-219.6,8.1
						c-68.8-0.9-137.7-4.7-206.2-12.1c-51.3-5.5-103.2-12.5-153.1-26.3c-14.9-4.1-30.2-8.8-43.8-16.5c-9.9-5.6-16.3-13.7-21.3-23.8
						c-7.1-14.5-11-30.6-14.1-46.3c-4.3-21.6-6.6-43.6-8.3-65.5c-4.4-57.2-4.1-114.7-2.5-172c1.8-67,5.8-133.8,10.9-200.6
						c5-66.1,11.1-132.1,17.8-198.1c5.6-54.8,11.8-109.6,18.4-164.3c4-33.1,8.2-66.3,12.6-99.4c0.7-5,1.4-10.1,2.1-15.2
						c0.3-2.3-3.3-3.4-3.6-1c-2.4,17.1-4.6,34.2-6.8,51.3c-5.7,44.2-11,88.5-16,132.8c-6.9,61.1-13.3,122.3-19,183.6
						c-6.2,67.6-11.6,135.3-15.5,203.1c-3.7,63.7-6.1,127.6-5.6,191.5c0.4,49.5,2,99.7,10.7,148.5c2.9,16.6,6.8,33.2,13.4,48.7
						c4.5,10.5,10.5,20.4,20,27c11.6,8.1,25.8,12.7,39.1,16.9c20.7,6.4,41.9,11,63.2,15c58.9,11,118.8,17.1,178.5,21.3
						c71.9,5,144.1,6.6,216.2,4.8c71.4-1.7,142.9-6.7,213.5-17.6c43.7-6.7,87.7-15.5,129.9-29.5c0.5-1.5,0.9-2.9,1.3-4.4
						C62.6,574,56.4,576,50.2,577.8z"/>
				</g>
			</g>
			<path fill="#FCDDB9" d="M1035.9-414.3c28.8,39.8,85,577.4,67.5,841.5L910.3,601.1c-221.3,22-594.9,15.3-687.7-46.6
				c-15.3-10.2-41.2-5.2-49.9-35.5c-68-235-51.9-869.3,11.3-943.1C256.1-508.1,999.2-464.8,1035.9-414.3z"/>
			<path fill="#FCDDB9" d="M-733.2-414.3c-34.5,51.2-111.2,929.6-29.4,983.3c79.4,52,669,68.9,785.2-14.5
				c14.2-10.2,38.3-5.2,46.4-35.5c63.2-235,48.3-869.3-10.5-943.1C-8.5-508.1-699.2-464.8-733.2-414.3z"/>
			<path fill="#FCDDB9" d="M1065.5,586.5c0,0-165.6,14.9-155.2,13.8l192.4-173.1C1100.7,423.1,1065.5,586.5,1065.5,586.5z"/>
		</g>
	</g>
</g>
<g>
	<g>
		<path fill="#E6E7E8" stroke="#E6E7E8" stroke-miterlimit="10" d="M293.9,106.6c0-3.3-2.7-6-6-6c-0.5,0-0.9,0.1-1.3,0.1
			c-0.2-5.5-4.7-10-10.3-10c-5.7,0-10.3,4.6-10.3,10.3c0,0.1,0,0.3,0,0.4c-0.9-0.6-2-0.9-3.1-0.9c-1.1,0-2.1,0.3-3,0.8
			c0-0.1,0-0.2,0-0.3c0-5.7-4.6-10.3-10.3-10.3c-0.9,0-1.7,0.1-2.6,0.3c-1.8-7.2-8.2-12.5-15.9-12.5c-7.7,0-14.1,5.3-15.9,12.4
			c-0.8-0.2-1.6-0.3-2.4-0.3c-5.6,0-10.2,4.5-10.3,10.1c-0.6-0.2-1.2-0.3-1.8-0.3c-3.3,0-6,2.7-6,6c0,3,2.2,5.4,5,5.9v0.1h88.4v0
			C291.3,112.4,293.9,109.8,293.9,106.6z"/>
	</g>
	<g>
		<path fill="#E6E7E8" stroke="#E6E7E8" stroke-miterlimit="10" d="M131.9,86.3c0-3.3-2.7-6-6-6c-0.5,0-0.9,0.1-1.3,0.1
			c-0.2-5.5-4.7-10-10.3-10c-5.7,0-10.3,4.6-10.3,10.3c0,0.1,0,0.3,0,0.4c-0.9-0.6-2-0.9-3.1-0.9c-1.1,0-2.1,0.3-3,0.8
			c0-0.1,0-0.2,0-0.3c0-5.7-4.6-10.3-10.3-10.3c-0.9,0-1.7,0.1-2.6,0.3c-1.8-7.2-8.2-12.5-15.9-12.5c-7.7,0-14.1,5.3-15.9,12.4
			c-0.8-0.2-1.6-0.3-2.4-0.3c-5.6,0-10.2,4.5-10.3,10.1c-0.6-0.2-1.2-0.3-1.8-0.3c-3.3,0-6,2.7-6,6c0,3,2.2,5.4,5,5.9v0.1h88.4v0
			C129.4,92.1,131.9,89.5,131.9,86.3z"/>
	</g>
	<path fill="#FFFFFF" d="M282.9,80.5c-5.5-1.4-10.7-1.6-16-0.9c0.4-2.1,0.4-4.1,0.1-6.3c-0.3-2.2-1.4-4.2-3-5.8
		c2.9-4.2,4.1-9.5,4-15c0-0.3,0-0.6,0-1c-0.7-8-3-17.6-10.4-22c-7.1-4.2-18.7,1.6-25.1,4.7c0,0,0,0-0.1,0
		c-6.7,3.4-13.3,8.1-14.7,15.1c-3.8-1-7.7-0.9-11.8,1.5c-6.7,3.8-9.2,12.7-10.3,19.7c-0.1,0.8-0.2,1.5-0.1,2.2
		c0-0.1-0.1-0.1-0.1-0.2c-0.9,7-2.3,16,5.4,19.7c4.8,2.3,10.6,2.2,16,1.4c0.9,3,1.7,6,2.2,9.1c0,0,0,0,0,0c0,0.2,0,0.4,0,0.6
		c0,0.1,0,0.2,0,0.3c0,0.4,0,0.8,0.1,1.1c0,0.4,0.1,0.7,0.2,1.1c0,0.1,0,0.1,0,0.2c0.3,1.1,0.8,2,1.5,2.9c1.4,2.7,3.7,4.6,7.6,4.8
		c3.2,0.2,5.7-0.9,7.5-2.7c1.5,0.7,3.2,1.1,5.1,1c0.7-0.1,1.4-0.2,2-0.5c0,0.1,0,0.1,0,0.2c4-1.5,7.2-4.5,7.8-8.5
		c1.8,1.1,3.9,1.8,6.1,2.2c-0.2,4.9,4.1,8.4,8.5,10c4.5,1.7,9.7,1,14-0.9c3.8-1.7,5.1-5.2,5.1-8.9c7.7-0.9,16-3.1,18-10.1
		C305.7,85,290,82.3,282.9,80.5z"/>
	<g>
		<g>
			<polygon opacity="0.5" points="285.6,87.8 225.3,66.8 194.9,65.3 154.1,44.7 135.4,46.6 92.8,38.3 62.7,45.5 46,62.5 30.6,90.3 
				28.5,106.5 48.5,133 226.3,149.9 272.4,146.5 294.8,132.1 301.2,120.8 			"/>
			<path fill="#FFFFFF" d="M117.6,52.4c3.9-8.2,0.3-18.8-8.1-22.9c-3.4-10.9-17.8-15.6-27.1-8.9c-5.8-3.8-13.8-4.3-20-0.2
				c-4.4-3-10.1-4-15.7-2.1c-7.6,2.6-11.3,9.2-11.3,16.2c-8,5.4-10.2,16.8-4,24.7c0.6,7.9,6.1,14.3,13.5,16c0,0.1,0,0.2,0,0.3
				c-3.7,2.7-7.3,5.3-11,8c-5.8,4.2-4.2,14,3.8,14c2,0,4,0,5.9,0c3,0,5-1.9,7-3.8c0,0,0,0,0,0c1.1,2.2,3.2,3.8,6.5,3.8
				c2,0,4,0,5.9,0c3,0,5-1.9,7-3.8c0.2-0.1,0.3-0.3,0.5-0.4c1,2.4,3.2,4.2,6.7,4.2c4.1,0,8.2,0.6,11.5-2.4c3-2.7,5.9-5.4,8.9-8.1
				c2.8-2.5,5-4.5,5.1-8.6c4.9,0.1,9.8-1.8,13.4-5.8C121.6,66.6,121.4,58.6,117.6,52.4z"/>
			<path fill="#FFFFFF" d="M293.8,95.7c-2.7-6.2-5.4-12.3-8.1-18.5c-0.4-1-1.2-1.3-1.9-1.3c-10.5-3.7-21-7.3-31.5-11
				c-6.8-2.4-13.7-4.8-20.5-7.1c-2.6-0.9-5.4-2.3-8.1-2.5c-6.8-0.3-13.7-0.7-20.5-1c-2.7-0.1-5.3-0.3-8-0.4c0,0,0,0,0,0
				c-0.6-0.3-1.2-0.6-1.7-0.9c-12.1-6.1-24.1-12.2-36.2-18.3c-4-2-8.7-0.5-13-0.1c-2.6,0.3-5.2,0.5-7.9,0.8c0.5-0.1-0.3,0-0.7-0.1
				c-1.1-0.2-2.3-0.4-3.4-0.7c-12.4-2.4-24.8-4.9-37.3-7.3c-1.4-0.3-3,0.4-4.3,0.7c-3.6,0.9-7.3,1.7-10.9,2.6
				c-3.6,0.9-7.2,1.7-10.8,2.6c-1.7,0.4-4,0.5-5.6,1.5c-1.6,0.9-2.9,2.8-4.2,4.1c-2.8,2.9-5.7,5.7-8.5,8.6c-3.1,3.1-5,5.5-7.1,9.3
				c-3.6,6.6-7.3,13.2-10.9,19.7C30.2,81,30,85,29.3,90c-0.3,2.1-1.4,5.4-0.8,7.6c0.4,1.6,2.2,3.2,3.2,4.5
				c4.6,6.1,9.1,12.2,13.7,18.2c1,1.3,2,2.6,3,3.9c1.5,1.9,4.6,1.2,6.8,1.1c4.9-0.1,11.9,1.3,16-1.8c2.8-2,5.5-4.1,8.3-6.1
				c1.3-0.9,0.2-0.5,1.8-0.7c0.9-0.1,1.8-0.3,2.7-0.4c0.4-0.1,0.7-0.1,1-0.1c4.7,3.5,9.5,7,14.2,10.6c1.6,1.2,4.3,0.8,6.1,0.8
				c4.4,0.1,8.8,0.3,13.3,0.4c0.3,0,0.6,0,0.8,0c1.3,0.7,2.5,1.4,3.8,2.1c4,2.2,8.1,4.5,12.1,6.7c5.4,3,82.1,10.6,85.7,10.9
				c2,0.1,4.9,0.9,6.9,0.3c6.1-1.9,12.3-3.8,18.4-5.6c4.6-1.4,9.4-1.7,14.2-2.3c4.4-0.6,9.4-0.4,13.2-2.9c6.3-4,12.6-8.1,18.8-12.1
				c4.5-2.9,4.3-10.9,5.4-15.7C298.9,104.5,295.8,100.3,293.8,95.7z M85.2,116.3C85.8,116.3,85.6,116.4,85.2,116.3L85.2,116.3z"/>
			<polygon fill="#ADC136" points="66.8,41.1 94.2,34.5 135.7,42.6 153.5,40.8 193.2,60.9 223.4,62.4 280.2,82.2 291.2,107 
				288.5,119.4 269,132 247,135 226.5,141.3 217.6,141.3 203.9,134.7 193.2,134.7 174.7,138.6 160.3,133.5 142.9,133.2 121.3,121.2 
				102.4,120.6 86.7,108.9 77.4,110.4 66.8,118.2 52.7,118.5 35.6,95.7 37.3,82.5 51.7,56.4 			"/>
			<polygon opacity="0.2" fill="#E6E7E8" points="192.7,59.4 167.2,138.2 190.2,141.6 215.5,62.1 			"/>
			<polygon opacity="0.2" fill="#E6E7E8" points="247.6,68.6 225,144.5 248,139.4 268.5,74.6 			"/>
			<polygon opacity="0.2" fill="#E6E7E8" points="94.1,29.9 61,119.2 88.9,112.3 118.8,35.6 			"/>
			<polygon opacity="0.2" fill="#E6E7E8" points="151.4,38.6 119.8,123.9 141.3,134.5 173,48.4 			"/>
		</g>
		<g>
			<g>
				
					<ellipse transform="matrix(0.9959 -9.024590e-02 9.024590e-02 0.9959 -5.9385 11.5401)" fill="#286784" cx="124.6" cy="71.4" rx="13" ry="7.2"/>
				
					<ellipse transform="matrix(0.9959 -9.024590e-02 9.024590e-02 0.9959 -6.2331 13.0433)" fill="#286784" cx="141.1" cy="75.4" rx="10.1" ry="5.5"/>
				
					<ellipse transform="matrix(0.9959 -9.024590e-02 9.024590e-02 0.9959 -5.441 12.8436)" fill="#286784" cx="139.3" cy="66.6" rx="9.1" ry="5.7"/>
				
					<ellipse transform="matrix(0.9959 -9.024590e-02 9.024590e-02 0.9959 -5.7801 14.1679)" fill="#286784" cx="153.8" cy="71" rx="12" ry="7"/>
			</g>
			<g>
				
					<ellipse transform="matrix(0.9959 -9.024590e-02 9.024590e-02 0.9959 -6.1129 11.5639)" fill="#4997B2" cx="124.8" cy="73.4" rx="13" ry="7.2"/>
				
					<ellipse transform="matrix(0.9959 -9.024590e-02 9.024590e-02 0.9959 -6.4075 13.067)" fill="#4997B2" cx="141.3" cy="77.4" rx="10.1" ry="5.5"/>
				
					<ellipse transform="matrix(0.9959 -9.024590e-02 9.024590e-02 0.9959 -5.6154 12.8674)" fill="#4997B2" cx="139.5" cy="68.5" rx="9.1" ry="5.7"/>
				
					<ellipse transform="matrix(0.9959 -9.024590e-02 9.024590e-02 0.9959 -5.9545 14.1917)" fill="#4997B2" cx="154" cy="72.9" rx="12" ry="7"/>
			</g>
		</g>
		<g>
			<g>
				
					<ellipse transform="matrix(0.9959 -9.024590e-02 9.024590e-02 0.9959 -5.5896 17.2471)" fill="#286784" cx="187.9" cy="70.4" rx="12" ry="6.9"/>
				
					<ellipse transform="matrix(0.9959 -9.024590e-02 9.024590e-02 0.9959 -5.6629 18.6383)" fill="#286784" cx="203.3" cy="71.9" rx="12" ry="6.9"/>
				
					<ellipse transform="matrix(0.9959 -9.024590e-02 9.024590e-02 0.9959 -6.4449 17.8868)" fill="#286784" cx="194.6" cy="80.2" rx="12" ry="6.9"/>
				
					<ellipse transform="matrix(0.9959 -9.024590e-02 9.024590e-02 0.9959 -6.7528 19.0671)" fill="#286784" cx="207.5" cy="84.2" rx="12" ry="6.9"/>
			</g>
			<g>
				
					<ellipse transform="matrix(0.9959 -9.024590e-02 9.024590e-02 0.9959 -5.778 17.1516)" fill="#4997B2" cx="186.8" cy="72.5" rx="12" ry="6.9"/>
				
					<ellipse transform="matrix(0.9959 -9.024590e-02 9.024590e-02 0.9959 -5.8513 18.5428)" fill="#4997B2" cx="202.1" cy="74" rx="12" ry="6.9"/>
				
					<ellipse transform="matrix(0.9959 -9.024590e-02 9.024590e-02 0.9959 -6.6333 17.7913)" fill="#4997B2" cx="193.4" cy="82.2" rx="12" ry="6.9"/>
				
					<ellipse transform="matrix(0.9959 -9.024590e-02 9.024590e-02 0.9959 -6.9412 18.9717)" fill="#4997B2" cx="206.3" cy="86.2" rx="12" ry="6.9"/>
			</g>
		</g>
		<path fill="#F1F2F2" d="M164.8,70.1c0-2.9,11.6-5.9,12.7,0.4c-1,2.3-2,4.4-2,4.4s-1.4-4.1-5.5-3.8s-6.1,5.5-6.1,5.5L164.8,70.1z"
			/>
	</g>
	<g>
		<path fill="#FFFFFF" d="M214.1,125.2c0.1-1.5-0.1-2.7-0.6-3.8c-3.5-14.8-20.5-16.8-34.1-13.1c-0.6,0.2-1.1,0.4-1.7,0.7
			c-1.4-1.2-3.2-2-5.1-1.9c-3.9,0.2-7.8,0.4-11.8,0.6c-0.9,0-1.8,0.2-2.7,0.5c-0.3-0.2-0.7-0.4-1.1-0.6c-1.1-0.7-2.5-1-4.1-1
			c-3.8,0-7.6,0-11.4,0c-2.3,0-4.1,0.9-5.5,2.3c-1.3-0.9-2.9-1.5-4.6-1.4c-3.6,0.1-7.2,0.3-10.9,0.4c-4.5,0.2-8.1,3.6-8.1,8.1
			c-0.1,9.7-0.3,19.5-0.4,29.2c-0.1,4.3,3.7,8.3,8.1,8.1c3.3-0.1,6.5-0.2,9.8-0.3c1.9-0.1,3.7-0.7,5-1.8c1.5,1.9,3.8,3.2,6.3,3.1
			c3.2-0.1,6.4-0.3,9.6-0.4c1.7-0.1,3.2-0.6,4.5-1.4c2.6,0.3,5.1,0.5,7.7,0.8c1.2,0.1,2.4-0.2,3.5-0.8c1.1,0.6,2.4,0.9,3.6,0.8
			c2.1-0.3,4.2-0.5,6.3-0.8c1.3,1,3,1.6,4.7,1.6c3.3,0,6.6,0,9.9,0c4.4,0,8.1-3.7,8.1-8.1c0-1,0-2,0-3c6.9-2,12.2-6.4,14.1-13.7
			C214,128,214.2,126.7,214.1,125.2z"/>
		<text transform="matrix(1 0 0 1 119.2753 145.5424)" fill="#6F9010" font-family="'LuckiestGuy-Regular'" font-size="43.3156">MAP</text>
	</g>
	<g>
		<g>
			<g>
				<path opacity="0.4" fill="#231F20" d="M235,95.9c-30,2.2-33.1,14.7,2.2,13.6S257.5,94.2,235,95.9z"/>
				<path opacity="0.4" fill="#231F20" d="M274.8,104.4c-26.3,1.2-28.9,7.7,1.9,7.2C307.5,111,294.4,103.5,274.8,104.4z"/>
				<path fill="#FFFFFF" d="M245.9,49.2c-0.4-0.7-1.4-1-2.2-0.6c-2.2,1.4-3.7,3.6-5,5.8c-1.4,2.4-2.8,4.9-3.8,7.5
					c-2.2,5.2-3.6,10.7-4.5,16.2c-0.6,3.8-1,7.6-0.9,11.4c0,2.1,0.3,4.1,0.6,6.2c0.1,0.9,0.3,1.7,0.6,2.5c0.1,0.4,0.2,0.8,0.4,1.2
					c0.1,0.2,0.1,0.3,0.2,0.5c0.2,0.8,0.6,1.4,1.1,2c1.1,1.2,3.3,1.5,4.6,0.6c0.8-0.5,1.6-1.3,1.8-2.3c0.1-0.8,0.2-1.7-0.2-2.4
					c-0.1-0.1-0.1-0.3-0.2-0.4c-0.1-0.3-0.3-0.5-0.4-0.8c-0.7-1.8-1.1-3.8-1.4-5.7c-0.6-5.3-0.3-10.8,0.4-16.1
					c0.6-4.7,1.7-9.2,3.3-13.7c0.2-0.5,0.4-1.1,0.6-1.6c0.1-0.3,0.2-0.5,0.3-0.8c0,0,0,0,0-0.1c0-0.1,0.1-0.2,0.1-0.3
					c0.4-0.9,0.8-1.8,1.2-2.7c0.4-0.9,0.9-1.8,1.5-2.7c0.1-0.2,0.3-0.4,0.4-0.6c0,0,0.1-0.1,0.1-0.1c-0.1,0.1,0.1-0.2,0.2-0.2
					c0.3-0.4,0.7-0.7,1.1-1.1C246.2,50.6,246.2,49.7,245.9,49.2z"/>
				<path fill="#A7A9AC" d="M230.1,95.8c0.1,0.9,0.3,1.7,0.6,2.5c0.1,0.4,0.2,0.8,0.4,1.2c0.1,0.2,0.1,0.3,0.2,0.5
					c0.2,0.8,0.6,1.4,1.1,2c0.1,0.1,0.2,0.2,0.3,0.2c0.2,0,0.3,0.1,0.4,0.3l0,0c0.2,0.1,0.4,0.2,0.7,0.3l0,0
					c1.9,0.3-0.1-2.7-0.5-5.8c-0.8-5.9,0.1-31,3.1-34.9c0,0,0.5-2.3,0.6-4.5c-0.1,0.2-0.2,0.3-0.3,0.5c0,0,0,0,0,0
					c-0.1,0.1-0.2,0.3-0.2,0.5c0,0,0,0.1,0,0.1c-0.1,0.1-0.1,0.3-0.2,0.4c0,0,0,0.1-0.1,0.1c-0.1,0.1-0.1,0.3-0.2,0.4
					c0,0,0,0.1-0.1,0.1c-0.1,0.1-0.1,0.2-0.2,0.4c0,0.1,0,0.1-0.1,0.2c-0.1,0.1-0.1,0.2-0.2,0.3c0,0.1,0,0.1-0.1,0.2
					c-0.1,0.1-0.1,0.2-0.2,0.4c0,0.1,0,0.1-0.1,0.2c-0.1,0.2-0.1,0.3-0.2,0.5c-2.2,5.2-3.6,10.7-4.5,16.2c-0.6,3.8-1,7.6-0.9,11.4
					C229.5,91.7,229.7,93.7,230.1,95.8z"/>
				<path fill="#A7A9AC" d="M237.4,56.8c-0.9,1.6-1.7,3.2-2.4,4.8c0.9,1.7,2.4,3.8,3.8,4.1c0.4-1.5,0.9-3,1.4-4.5
					c0.2-0.5,0.4-1.1,0.6-1.6c0.1-0.2,0.2-0.5,0.3-0.7L237.4,56.8z"/>
				<g>
					<path fill="#FFFFFF" d="M253.1,75c-1.2-0.8-3.2,0-4.3,0.7c-1.1,0.6-2.2,1.4-3.1,2.4c-1.8,1.8-3.3,3.9-4.6,6
						c-0.9,1.5-1.7,3-2.4,4.6c-0.9,2.1-1.7,4.1-2.1,6.4c-0.2,0.8-0.3,1.6-0.3,2.5c-0.1,0.8,0,1.7,0.2,2.5c0.3,1.9,1.4,4.1,3.4,4.5
						c0.8,0.2,1.6,0.1,2.4-0.3c0.9-0.5,1.7-1.6,1.5-2.7c0-0.3,0-0.8-0.1-1.1c-0.1-0.3-0.3-0.7-0.4-1c-0.1-0.3-0.3-0.5-0.4-0.7
						c0.1,0.3,0.2,0.5,0.3,0.8c-0.2-0.5-0.3-1-0.4-1.5c0,0.3,0.1,0.6,0.1,0.9c-0.1-1-0.1-2,0.1-2.9c0,0.3-0.1,0.6-0.1,0.9
						c0.3-2.4,1.1-4.7,2-6.9c-0.1,0.2-0.2,0.5-0.3,0.7c1-2.4,2.3-4.7,3.7-6.9c0.2-0.3,0.4-0.6,0.6-0.9c0.1-0.2,0.2-0.3,0.3-0.5
						c0.4-0.6-0.3,0.4,0,0c0.5-0.6,1-1.2,1.5-1.8c0.5-0.6,1.1-1,1.6-1.6c0.6-0.7,1.4-1.1,1.6-2C254,76.1,253.7,75.4,253.1,75
						L253.1,75z"/>
				</g>
				<path fill="#A7A9AC" d="M243.7,80.3c-0.9,1.2-1.8,2.5-2.6,3.7c0,0,0,0,0,0c1,2,2.3,4.5,3.8,5.7c0.6-1.3,1.2-2.5,1.9-3.7
					C245.8,84.1,244.6,81.9,243.7,80.3z"/>
				<g>
					<path fill="#FFFFFF" d="M217.3,75.5c0.2,0.2-0.3-0.3-0.1-0.1C217.2,75.4,217.3,75.5,217.3,75.5C217.5,75.8,217,75.2,217.3,75.5
						c0,0,0,0.1,0.1,0.1c0.1,0.1,0.2,0.2,0.3,0.3c-0.2-0.3-0.3-0.4-0.2-0.2c0,0,0.1,0.1,0.1,0.1c0.1,0.1,0.1,0.2,0.2,0.2
						c0.1,0.2,0.3,0.4,0.4,0.6c0.6,1.1,1.2,2.3,1.7,3.4c0.3,0.7,0.7,1.4,1,2.2c0,0.1,0.1,0.2,0.1,0.3c0.2,0.4-0.2-0.6-0.1-0.2
						c0.1,0.2,0.2,0.4,0.2,0.6c0.2,0.4,0.3,0.8,0.5,1.3c0.7,1.7,1.3,3.5,1.9,5.2c1.3,3.6,2.4,7.4,2.9,11.2c0-0.3-0.1-0.5-0.1-0.8
						c0.1,0.6,0.2,1.1,0.2,1.7c0-0.3-0.1-0.5-0.1-0.8c0.1,1.1,0.2,2.2,0.3,3.2c0-0.2-0.1-0.5-0.1-0.7c0,0.1,0,0.2,0,0.3
						c0.1,1.2,0.7,2.3,2,2.6c1.4,0.4,2.9-0.5,3.3-1.9c0.5-1.6,0.2-3.4,0-5c-0.3-1.6-0.7-3.2-1.2-4.7c-1.1-3.7-2.5-7.4-4.2-10.9
						c-1.2-2.5-2.4-4.9-4-7.2c-0.6-0.9-1.3-1.7-2.1-2.5c-0.1-0.1-0.3-0.2-0.4-0.3c-0.1-0.1-0.3-0.2-0.4-0.3c0.6,0.5,0.1,0-0.1-0.1
						c-0.1,0-0.1-0.1-0.2-0.1c-0.5-0.2-0.9-0.4-1.4-0.4C216.5,72.8,216.2,74.8,217.3,75.5L217.3,75.5z"/>
				</g>
				<path fill="#C563AE" d="M253.9,36c5.9,2.9,10.7,22.8,2.1,29.6s-13.8-0.4-17.3-5.3c-3.5-4.9-12.5,1-13.9-8.4
					C223.6,43.7,249.8,34,253.9,36z"/>
				<path fill="#A7A9AC" d="M226.5,83.7c-0.8-1.7-1.7-3.4-2.6-5.1l-3,4.1c0,0.1,0.1,0.2,0.1,0.3c0.2,0.4,0.3,0.8,0.5,1.3
					c0.3,0.9,0.7,1.7,1,2.6c2,0,3.9-0.1,5.2-0.5C227.4,85.5,227,84.6,226.5,83.7z"/>
				<path fill="#C563AE" d="M202.3,82.8c0-15.2,4.3-34.8,19.8-23.3s20.8,17.9,13,21.6S202.3,90.2,202.3,82.8z"/>
				<path fill="#C563AE" d="M247.4,70.7c5.4-0.6,16.1-1.5,11.1,11c-5.1,12.5-13.2,9.5-16.5-1.8S242.7,71.3,247.4,70.7z"/>
			</g>
			<path fill="#FFFFFF" d="M270.7,96.4c-0.6,4.3-5.6,5.4-6,9.1c-0.4,3.7,13.1,5.3,12.8,0c-0.4-5.3-3.2-8.2-3.2-9.1"/>
			<path fill="#A7A9AC" d="M268.2,100.6c2.2,0.4,5.7,0.9,8.2,0.5c-0.8-2.2-1.9-3.7-2.2-4.4c-0.6-0.2-1-0.3-1-0.3h-2.6
				C270.5,98.2,269.4,99.5,268.2,100.6z"/>
			<path fill="#C563AE" d="M274.3,86.5c-5.6-0.3-23.4,2.7-21.1,8.8c2.3,6,45.7,4.3,42.2-2.9C295.4,92.4,281.1,87,274.3,86.5z"/>
			<path fill="#0E3173" d="M253.9,36c-2.1-1-10.4,1.2-17.5,4.7c3.8,6.1,9,7.9,12.3,7.7c2.6-0.2,7.4,2.4,12,3.1
				C260.1,44.5,257.2,37.6,253.9,36z"/>
			<path fill="#0E3173" d="M274.3,86.5c-2.6-0.2-7.8,0.4-12.4,1.7c0.1,2,1.7,2.4,5.3,1.6c5.3-1.2,8.4,1.2,11.7,0.4
				c1.2-0.3,2.4-1.1,3.3-2.1C279.3,87.3,276.4,86.7,274.3,86.5z"/>
			<path fill="#0E3173" d="M248.8,70.5c-0.8,1.9,0.1,4.2,1.5,4.5c1.8,0.4,5.1,7.5,6.8,6.6c0.5-0.3,1.3-1,2.1-1.8
				C262.1,70.2,254.1,70,248.8,70.5z"/>
			<path fill="#0E3173" d="M210.8,71.3c2.7-5,8.2-4.2,11.9-6.4c1.1-0.7,2.2-1.6,3.2-2.6c-1.2-0.9-2.4-1.8-3.7-2.8
				c-12.1-8.9-17.4,1-19.1,13C206,73.9,209.4,73.8,210.8,71.3z"/>
			<path fill="#A7A9AC" d="M239.8,104.5c0.5,0.1,1,0.1,1.5,0c-1.4-1.1-2.9-2.7-3.2-4.9c-0.7-4.4,2.5-13.3,5.2-14.6l-1.9-1.4
				c-0.1,0.1-0.2,0.3-0.3,0.4c-0.9,1.5-1.7,3-2.4,4.6c-0.9,2.1-1.7,4.1-2.1,6.4c-0.2,0.8-0.3,1.6-0.3,2.5c-0.1,0.8,0,1.7,0.2,2.5
				C236.6,101.9,237.7,104.1,239.8,104.5z"/>
			<g>
				<path fill="#FFFFFF" d="M259.8,89.6c4.3,0,3.8,5.4-0.1,5.4C255.9,95,255.5,89.6,259.8,89.6z"/>
				<path fill="#EF4136" d="M261.9,91.9c0-0.6-0.5-1.2-1.1-1.2c-0.4,0-0.8,0.3-1,0.6c0,0,0,0,0,0c-0.2-0.4-0.6-0.6-1-0.6
					c-0.6,0-1.1,0.5-1.1,1.2c0,0.9,2.3,2.4,2.3,2.4c0,0,0,0,0,0C259.9,94.3,261.9,93,261.9,91.9z"/>
			</g>
			<g>
				<path fill="#FFFFFF" d="M269.8,87.6c4.3,0,3.8,5.4-0.1,5.4C265.8,93.1,265.5,87.6,269.8,87.6z"/>
				<path fill="#EF4136" d="M271.9,89.9c0-0.6-0.5-1.2-1.1-1.2c-0.4,0-0.8,0.3-1,0.6c0,0,0,0,0,0c-0.2-0.4-0.6-0.6-1-0.6
					c-0.6,0-1.1,0.5-1.1,1.2c0,0.9,2.3,2.4,2.3,2.4c0,0,0,0,0,0C269.8,92.3,271.9,91,271.9,89.9z"/>
			</g>
			<g>
				<path fill="#FFFFFF" d="M282.3,90.4c4.3,0,3.8,5.4-0.1,5.4C278.3,95.8,278,90.4,282.3,90.4z"/>
				<path fill="#EF4136" d="M284.4,92.7c0-0.6-0.5-1.2-1.1-1.2c-0.4,0-0.8,0.3-1,0.6c0,0,0,0,0,0c-0.2-0.4-0.6-0.6-1-0.6
					c-0.6,0-1.1,0.5-1.1,1.2c0,0.9,2.3,2.4,2.3,2.4c0,0,0,0,0,0C282.3,95.1,284.4,93.7,284.4,92.7z"/>
			</g>
			<g>
				<path fill="#FFFFFF" d="M235.1,46.2c5.1,0,4.5,6.4-0.1,6.4S230,46.2,235.1,46.2z"/>
				<path fill="#EF4136" d="M237.6,48.9c0-0.8-0.6-1.4-1.4-1.4c-0.5,0-1,0.3-1.2,0.7c0,0,0,0-0.1,0c-0.2-0.4-0.7-0.7-1.2-0.7
					c-0.7,0-1.4,0.6-1.4,1.4c0,1.1,2.7,2.8,2.7,2.8c0,0,0,0,0,0C235.1,51.7,237.6,50.1,237.6,48.9z"/>
			</g>
			<g>
				<path fill="#FFFFFF" d="M245.6,39.2c5.1,0,4.5,6.4-0.1,6.4S240.5,39.2,245.6,39.2z"/>
				<path fill="#EF4136" d="M248,41.9c0-0.8-0.6-1.4-1.4-1.4c-0.5,0-1,0.3-1.2,0.7c0,0,0,0-0.1,0c-0.2-0.4-0.7-0.7-1.2-0.7
					c-0.7,0-1.4,0.6-1.4,1.4c0,1.1,2.7,2.8,2.7,2.8c0,0,0,0,0,0C245.6,44.8,248,43.2,248,41.9z"/>
			</g>
			<g>
				<path fill="#FFFFFF" d="M251.5,56c4.8,1.9,1.8,7.6-2.4,5.9C244.8,60.3,246.8,54.1,251.5,56z"/>
				<path fill="#EF4136" d="M252.9,59.5c0.3-0.7-0.1-1.5-0.8-1.8c-0.5-0.2-1-0.1-1.4,0.2c0,0,0,0,0,0c-0.1-0.5-0.4-0.9-0.8-1.1
					c-0.7-0.3-1.5,0.1-1.8,0.8c-0.4,1,1.5,3.6,1.5,3.6c0,0,0,0,0,0C249.5,61.2,252.4,60.6,252.9,59.5z"/>
			</g>
			<g>
				<path fill="#FFFFFF" d="M226.1,69.8c5.1-0.6,5.2,5.9,0.6,6.4C222.1,76.7,221,70.4,226.1,69.8z"/>
				<path fill="#EF4136" d="M228.9,72.2c-0.1-0.7-0.8-1.3-1.5-1.2c-0.5,0.1-0.9,0.4-1.1,0.9c0,0,0,0-0.1,0c-0.3-0.4-0.8-0.7-1.3-0.6
					c-0.7,0.1-1.3,0.8-1.2,1.5c0.1,1.1,3,2.5,3,2.5c0,0,0,0,0,0C226.8,75.3,229,73.5,228.9,72.2z"/>
			</g>
			<g>
				<path fill="#FFFFFF" d="M215.1,60.1c5.1-0.6,5.2,5.9,0.6,6.4C211.2,67,210.1,60.6,215.1,60.1z"/>
				<path fill="#EF4136" d="M217.9,62.5c-0.1-0.7-0.8-1.3-1.5-1.2c-0.5,0.1-0.9,0.4-1.1,0.9c0,0,0,0-0.1,0c-0.3-0.4-0.8-0.7-1.3-0.6
					c-0.7,0.1-1.3,0.8-1.2,1.5c0.1,1.1,3,2.5,3,2.5c0,0,0,0,0,0C215.8,65.6,218,63.7,217.9,62.5z"/>
			</g>
			<g>
				<path fill="#FFFFFF" d="M208.6,69.9c5.1-0.6,5.2,5.9,0.6,6.4C204.7,76.8,203.6,70.5,208.6,69.9z"/>
				<path fill="#EF4136" d="M211.4,72.3c-0.1-0.7-0.8-1.3-1.5-1.2c-0.5,0.1-0.9,0.4-1.1,0.9c0,0,0,0-0.1,0c-0.3-0.4-0.8-0.7-1.3-0.6
					c-0.7,0.1-1.3,0.8-1.2,1.5c0.1,1.1,3,2.5,3,2.5c0,0,0,0,0,0C209.3,75.4,211.6,73.6,211.4,72.3z"/>
			</g>
			<g>
				<path fill="#FFFFFF" d="M217.6,77.6c5.1-0.6,5.2,5.9,0.6,6.4C213.6,84.5,212.6,78.2,217.6,77.6z"/>
				<path fill="#EF4136" d="M220.4,80.1c-0.1-0.7-0.8-1.3-1.5-1.2c-0.5,0.1-0.9,0.4-1.1,0.9c0,0,0,0-0.1,0c-0.3-0.4-0.8-0.7-1.3-0.6
					c-0.7,0.1-1.3,0.8-1.2,1.5c0.1,1.1,3,2.5,3,2.5c0,0,0,0,0,0C218.3,83.1,220.5,81.3,220.4,80.1z"/>
			</g>
			<g>
				<path fill="#FFFFFF" d="M254.3,81.7c2.7,4.4-3.1,7.2-5.5,3.3S251.7,77.4,254.3,81.7z"/>
				<path fill="#EF4136" d="M253.3,85.3c0.6-0.4,0.8-1.2,0.4-1.9c-0.3-0.4-0.8-0.7-1.3-0.6c0,0,0,0,0,0c0.3-0.4,0.3-1,0-1.4
					c-0.4-0.6-1.2-0.8-1.9-0.4c-0.9,0.6-1,3.8-1,3.8c0,0,0,0,0,0C249.6,84.7,252.3,86,253.3,85.3z"/>
			</g>
			<g>
				<path fill="#FFFFFF" d="M251.5,72.9c4.1,3-0.2,7.8-3.9,5.1C244,75.3,247.4,69.9,251.5,72.9z"/>
				<path fill="#EF4136" d="M251.9,76.6c0.4-0.6,0.3-1.5-0.3-1.9c-0.4-0.3-1-0.3-1.4-0.1c0,0,0,0,0,0c0.1-0.5-0.1-1-0.5-1.3
					c-0.6-0.4-1.5-0.3-1.9,0.3c-0.7,0.9,0.5,3.9,0.5,3.9c0,0,0,0,0,0C248.3,77.4,251.2,77.6,251.9,76.6z"/>
			</g>
		</g>
	</g>
	<g>
		<g>
			<g>
				<rect x="92.6" y="64.5" fill="#A56637" width="2.7" height="14.6"/>
				<rect x="92.5" y="64.5" fill="#754C29" width="1.5" height="14.6"/>
				<path fill="#006838" d="M107.7,52.8c2.5-1.8,4.1-4.6,4.1-7.9c0-5.1-4-9.2-9.1-9.7c0-0.2,0-0.5,0-0.7c0-5.4-4.5-9.7-10.1-9.7
					c-5.6,0-10.1,4.4-10.1,9.7c0,1.7,0.4,3.2,1.2,4.6c-4.9,0.7-8.6,4.7-8.6,9.6c0,3.1,1.5,5.8,3.8,7.6c-0.2,0.7-0.3,1.4-0.3,2.2
					c0,5.4,4.5,9.7,10.1,9.7c2.1,0,4-0.6,5.6-1.6c1.8,2.7,4.9,4.4,8.5,4.4c5.6,0,10.1-4.4,10.1-9.7
					C112.9,57.7,110.8,54.5,107.7,52.8z"/>
				<ellipse fill="#9CB729" cx="92.1" cy="30.1" rx="3.3" ry="2.4"/>
				<path fill="#9CB729" d="M85.8,43.4c0.4,1.3-0.7,2.7-2.5,3.2c-1.7,0.5-3.5-0.1-3.8-1.4c-0.4-1.3,0.7-2.7,2.5-3.2
					C83.7,41.5,85.4,42.1,85.8,43.4z"/>
				<path fill="#9CB729" d="M107.1,44.4c-1.1,0.8-2.8,0.4-4-1c-1.1-1.4-1.2-3.2-0.2-4.1s2.8-0.4,4,1
					C108.1,41.7,108.2,43.5,107.1,44.4z"/>
				<path fill="#9CB729" d="M108.6,63.4c-1.3,0.3-2.7-0.9-3.1-2.7c-0.4-1.8,0.4-3.4,1.7-3.7c1.3-0.3,2.7,0.9,3.1,2.7
					C110.7,61.4,109.9,63.1,108.6,63.4z"/>
			</g>
			<path fill="#9CB729" d="M90.9,52.8c2.5-1.8,4.1-4.6,4.1-7.9c0-5.1-4-9.2-9.1-9.7c0-0.2,0-0.5,0-0.7c0-2-0.6-3.8-1.6-5.3
				c-1,1.5-1.6,3.4-1.6,5.3c0,1.7,0.4,3.2,1.2,4.6c-4.9,0.7-8.6,4.7-8.6,9.6c0,3.1,1.5,5.8,3.8,7.6c-0.2,0.7-0.3,1.4-0.3,2.2
				c0,5.4,4.5,9.7,10.1,9.7c2.1,0,4-0.6,5.6-1.6c0,0,0,0,0,0c1-1.5,1.6-3.4,1.6-5.3C96.1,57.7,94,54.5,90.9,52.8z"/>
			<g>
				<rect x="72.2" y="64.5" fill="#A56637" width="2.7" height="14.6"/>
				<rect x="72.1" y="64.5" fill="#754C29" width="1.5" height="14.6"/>
				<path fill="#006838" d="M87.4,52.8c2.5-1.8,4.1-4.6,4.1-7.9c0-5.1-4-9.2-9.1-9.7c0-0.2,0-0.5,0-0.7c0-5.4-4.5-9.7-10.1-9.7
					c-5.6,0-10.1,4.4-10.1,9.7c0,1.7,0.4,3.2,1.2,4.6c-4.9,0.7-8.6,4.7-8.6,9.6c0,3.1,1.5,5.8,3.8,7.6c-0.2,0.7-0.3,1.4-0.3,2.2
					c0,5.4,4.5,9.7,10.1,9.7c2.1,0,4-0.6,5.6-1.6c1.8,2.7,4.9,4.4,8.5,4.4c5.6,0,10.1-4.4,10.1-9.7C92.5,57.7,90.4,54.5,87.4,52.8z"
					/>
				<ellipse fill="#9CB729" cx="71.7" cy="30.1" rx="3.3" ry="2.4"/>
				<path fill="#9CB729" d="M65.4,43.4c0.4,1.3-0.7,2.7-2.5,3.2s-3.5-0.1-3.8-1.4c-0.4-1.3,0.7-2.7,2.5-3.2
					C63.3,41.5,65,42.1,65.4,43.4z"/>
				<path fill="#9CB729" d="M86.8,44.4c-1.1,0.8-2.8,0.4-4-1c-1.1-1.4-1.2-3.2-0.2-4.1s2.8-0.4,4,1C87.7,41.7,87.8,43.5,86.8,44.4z"
					/>
				<path fill="#9CB729" d="M88.2,63.4c-1.3,0.3-2.7-0.9-3.1-2.7c-0.4-1.8,0.4-3.4,1.7-3.7c1.3-0.3,2.7,0.9,3.1,2.7
					C90.3,61.4,89.5,63.1,88.2,63.4z"/>
			</g>
			<path fill="#9CB729" d="M71.2,52.8c2.5-1.8,4.1-4.6,4.1-7.9c0-5.1-4-9.2-9.1-9.7c0-0.2,0-0.5,0-0.7c0-2.2-0.7-4.2-2-5.8
				c-1.3,1.6-2,3.6-2,5.8c0,1.7,0.4,3.2,1.2,4.6c-4.9,0.7-8.6,4.7-8.6,9.6c0,3.1,1.5,5.8,3.8,7.6c-0.2,0.7-0.3,1.4-0.3,2.2
				c0,5.4,4.5,9.7,10.1,9.7c2.1,0,4-0.6,5.6-1.6c0.1,0.2,0.2,0.3,0.4,0.5c1.3-1.6,2-3.6,2-5.8C76.4,57.7,74.3,54.5,71.2,52.8z"/>
			<g>
				<ellipse fill="#006838" cx="45.2" cy="48.8" rx="10.1" ry="9.7"/>
				<rect x="52.5" y="64.5" fill="#A56637" width="2.7" height="14.6"/>
				<rect x="52.4" y="64.5" fill="#754C29" width="1.5" height="14.6"/>
				<ellipse fill="#006838" cx="62.8" cy="61.4" rx="10.1" ry="9.7"/>
				<ellipse fill="#006838" cx="48.7" cy="58.6" rx="10.1" ry="9.7"/>
				<ellipse fill="#006838" cx="52.6" cy="34.6" rx="10.1" ry="9.7"/>
				<ellipse fill="#006838" cx="61.7" cy="45" rx="10.1" ry="9.7"/>
				<ellipse fill="#9CB729" cx="52" cy="30.1" rx="3.3" ry="2.4"/>
				<path fill="#9CB729" d="M45.7,43.4c0.4,1.3-0.7,2.7-2.5,3.2c-1.7,0.5-3.5-0.1-3.8-1.4C39,44,40.1,42.5,41.9,42
					C43.6,41.5,45.3,42.1,45.7,43.4z"/>
				<path fill="#9CB729" d="M67.1,44.4c-1.1,0.8-2.8,0.4-4-1c-1.1-1.4-1.2-3.2-0.2-4.1c1.1-0.8,2.8-0.4,4,1
					C68,41.7,68.1,43.5,67.1,44.4z"/>
				<path fill="#9CB729" d="M68.5,63.4c-1.3,0.3-2.7-0.9-3.1-2.7c-0.4-1.8,0.4-3.4,1.7-3.7c1.3-0.3,2.7,0.9,3.1,2.7
					C70.6,61.4,69.8,63.1,68.5,63.4z"/>
			</g>
		</g>
		<polygon opacity="0.4" fill="#231F20" points="83.2,90.1 77.3,90.1 92.5,79.1 95.2,79.1 		"/>
		<polygon opacity="0.4" fill="#231F20" points="63.1,90.1 57.1,90.1 72.3,79.1 75.1,79.1 		"/>
		<polygon opacity="0.4" fill="#231F20" points="43.6,90.1 37.7,90.1 52.8,79.1 55.6,79.1 		"/>
	</g>
</g>
<g>
	<defs>
		<rect id="SVGID_5_" x="1433.9" y="-19.7" width="1202.3" height="679.5"/>
	</defs>
	<clipPath id="SVGID_4_">
		<use xlink:href="#SVGID_5_"  overflow="visible"/>
	</clipPath>
	<g clip-path="url(#SVGID_4_)">
		<path opacity="0.4" fill="#231F20" d="M2616.4-55.9c0.1-0.7,0.1-1.5,0.1-2.2c0-0.8,0-1.6-0.1-2.3c-0.8-17.8-5.7-34.5-14.3-50.1
			c-7-115.6-15.4-231.8-33.5-346.2c-4.2-26.5-7.3-57.3-20.3-81.3c-12.9-23.7-46.8-29.9-70.9-34.5c-93.2-17.8-187.4-31.4-281.6-42.4
			c-149-17.4-302.6-30.5-452.3-13.3c-40.9,4.7-81.8,11.7-120.8,25.3c-29,10.1-56.7,23.9-77.9,45.1c-4.5-11.2-11.6-20.5-24.5-26.1
			c-16.3-7.1-33.7-11.1-51.2-14.4c-56.1-10.7-113.6-14.8-170.6-18c-144.1-8.1-290.3-7.2-434,8.3c-53.5,5.8-109.2,12.4-160.1,31.1
			c-16.5,6.1-33.6,13.6-46.2,26.3c-19.4,19.6-27.2,51.9-34.5,77.5c-13,45.5-21.8,92.2-29.7,138.7c-9.8,57.4-17.5,115.1-24.1,173
			c-45.2,11.1-89.3,48.4-102.9,91.9C449.2-12,497,45.5,551.7,58.9c-6.4,117.9-8.8,237.5,7.1,354.7c5.4,39.6,13.1,80.5,31.5,116.5
			c11.4,22.3,28.9,37,51.3,47.5c51.3,24.1,109.6,33.5,165.2,41.5c76.6,11,153.9,16.6,231.1,19.6c79,3.1,158.1,3.1,237.1-0.1
			c63.1-2.6,126.8-6.8,189-17.9c18.4-3.3,37-7.2,54.5-14c8.6-3.4,16.3-7.1,23.5-13.1c10.5-8.8,16.9-22.8,21.3-37.3
			c59,61.8,149.4,92.2,230,110.7c121.4,27.9,247,27.5,370.7,19.3c60.7-4,121.3-10.9,181.2-21.6c47.7-8.6,95.4-19.8,140.4-37.8
			c31.9-12.8,64.9-29.1,86.3-57c17.4-22.6,22.3-54.4,26.6-81.7c11.7-73.4,13.4-148.5,14.3-222.7c1.1-94.2-1.5-188.5-5.8-282.6
			C2612.5-29.5,2615.7-42.2,2616.4-55.9z"/>
		<g>
			<g>
				<g>
					<g>
						<path fill="#F7941E" d="M614.1,128.5C656,99.1,656.5,25.8,644.2-18.4c-6-21.5-16.3-39.9-40.3-43.3
							c-26.4-3.8-115,40.8-115,105.8S571.5,158.4,614.1,128.5z"/>
					</g>
					<g>
						<path fill="#F9AD5A" d="M593.8,107.9c22.7-15.9,22.9-55.5,16.3-79.4c-3.2-11.6-8.8-21.6-21.8-23.4c-14.3-2-62.2,22-62.2,57.2
							S570.8,124.1,593.8,107.9z"/>
					</g>
				</g>
				<path fill="#631E3A" d="M1565.9-486.2c39.3,58.8,94.9,1116.4,1.7,1178c-90.4,59.8-795.1,61.1-927.4-34.7s-35-1021.9,41.3-1118.4
					S1527.1-544.1,1565.9-486.2z"/>
				<path fill="#FFCD8A" d="M682.1-439.5c-37.9,56.8-111.6,1012.9-21.9,1072.4c53.8,35.7,322.9,71.5,547.6,69
					c138.5-1.6,254.1-32,302.6-67.3c127.3-92.5,112.7-991.7,39.3-1084.9C1476.3-543.5,719.4-495.5,682.1-439.5z"/>
				<g>
					<path fill="#F9AD5A" d="M1303.4,653.5c-76,6.2-152.3,7.6-228.5,5.8c-70.7-1.6-141.4-6-211.6-14.1
						c-50.8-5.8-102.3-12.7-151.6-26.9c-13.4-3.9-27.5-8.2-39.2-16c-10.3-6.9-15.9-20.3-20.7-31.3c-4.9-11.2-9.1-22.8-12.9-34.5
						c0.7,6.5,1.5,12.5,2.4,18.2c0.7,1.9,1.4,3.7,2.1,5.6c5.4,14,11.3,29.3,21.5,40.5c4.1,4.5,9.9,7.5,15.4,10.1
						c15.2,7.2,31.8,11.7,48.1,15.7c23.8,5.9,48,10.2,72.2,14c64.5,10.1,129.7,15.8,194.9,19.4c75.7,4.2,151.7,5,227.5,2.1
						c72.3-2.8,144.8-9,216-22.3c22.8-4.3,46-9.2,68.8-15.5c1.7-1.8,3.3-3.7,4.9-5.6c-2.3,0.7-4.5,1.3-6.8,1.9
						C1440.1,639,1371.5,647.9,1303.4,653.5z"/>
					<path fill="#F9AD5A" d="M1313.1,639.2c-74.2,6.9-148.9,9.1-223.5,8.1c-70.1-0.9-140.2-4.7-209.8-12.1
						c-52.2-5.5-104.9-12.5-155.7-26.3c-15.1-4.1-30.6-8.8-44.3-16.5c-5.8-3.2-10.2-6.9-13.8-12.5c-7.1-11-10.9-24-14.2-36.6
						c-10.5-40.9-13.2-83.9-15.4-126c-2.9-57.2-2.8-114.6-1.5-171.8c2.8-127.1,11.8-254.1,19.2-381.1c0.3-4.6,0.5-9.1,0.8-13.7
						c-14.7,173-25.3,393-23,551.2c1.4,35.3,3.9,70.6,9.1,105.6c2.5,16.8,5.7,33.6,10.9,49.8c3.4,10.7,7.8,21.7,15.2,30.3
						c7.9,9.3,22.6,14,33.6,18c44.1,15.7,91.7,22.4,137.8,28.5c66.7,8.8,134,13.5,201.2,15.8c74.6,2.5,149.4,1.8,223.9-3
						c69-4.5,138.2-12.3,205.6-27.6c17.4-4,35.1-8.4,52.6-13.8c1-1.7,2-3.4,2.9-5.1c-5,1.6-10,3.1-14.9,4.5
						C1445.9,623.6,1379.3,633.1,1313.1,639.2z"/>
					<path fill="#F9AD5A" d="M1309.3,625.1c-74.4,6.7-149.3,8.5-223.9,7.1c-69.4-1.3-138.7-5.4-207.7-13.4
						c-50.1-5.8-101.1-12.8-149.4-27.7c-13.5-4.2-27.7-8.9-39.3-17.2c-8.5-6.1-13.9-15.6-18.2-24.9c-7.9-17-12.2-35.8-15.8-54.1
						c-10.6-54.5-12.6-110.7-13-166c-0.3-47,0.5-94,2-140.9c3-97.5,8.6-195,15.5-292.4c5.2-74,11.1-147.9,17.8-221.8
						c1.5-16.4,3-32.9,4.6-49.3c-3,15.7-6,34.8-9,56.9c-1.2,13.2-2.3,26.4-3.5,39.6c-7.2,83.5-13.5,167.1-18.7,250.8
						c-6.1,97.9-10.9,195.9-12.2,294c-0.7,53.4-0.6,106.9,3.8,160.1c2,24.3,4.9,48.6,9.6,72.5c3.5,17.9,8.1,35.8,15.7,52.4
						c4.4,9.6,10.1,19.1,18.6,25.6c4.7,3.6,10.1,6.4,15.5,8.8c16.3,7.4,33.9,12.2,51.2,16.4c54,13.1,109.7,19.9,165,25.1
						c71.3,6.7,143,9.7,214.6,9.6c74.1-0.1,148.4-3.5,222-12.2c59.4-7.1,119.3-17.3,176.2-36.4c0.6-1.5,1.1-2.9,1.7-4.4
						c-8.2,2.7-16.3,5.2-24.4,7.6C1443.4,609.7,1376.1,619.1,1309.3,625.1z"/>
					<path fill="#F9AD5A" d="M1517.3,577.8c-62.9,18.7-128.5,28.2-193.8,34.4c-73,6.9-146.4,9.1-219.6,8.1
						c-68.8-0.9-137.7-4.7-206.2-12.1c-51.3-5.5-103.2-12.5-153.1-26.3c-14.9-4.1-30.2-8.8-43.8-16.5c-9.9-5.6-16.3-13.7-21.3-23.8
						c-7.1-14.5-11-30.6-14.1-46.3c-4.3-21.6-6.6-43.6-8.3-65.5c-4.4-57.2-4.1-114.7-2.5-172c1.8-67,5.8-133.8,10.9-200.6
						c5-66.1,11.1-132.1,17.8-198.1c5.6-54.8,11.8-109.6,18.4-164.3c4-33.1,8.2-66.3,12.6-99.4c0.7-5,1.4-10.1,2.1-15.2
						c0.3-2.3-3.3-3.4-3.6-1c-2.4,17.1-4.6,34.2-6.8,51.3c-5.7,44.2-11,88.5-16,132.8c-6.9,61.1-13.3,122.3-19,183.6
						c-6.2,67.6-11.6,135.3-15.5,203.1c-3.7,63.7-6.1,127.6-5.6,191.5c0.4,49.5,2,99.7,10.7,148.5c2.9,16.6,6.8,33.2,13.4,48.7
						c4.5,10.5,10.5,20.4,20,27c11.6,8.1,25.8,12.7,39.1,16.9c20.7,6.4,41.9,11,63.2,15c58.9,11,118.8,17.1,178.5,21.3
						c71.9,5,144.1,6.6,216.2,4.8c71.4-1.7,142.9-6.7,213.5-17.6c43.7-6.7,87.7-15.5,129.9-29.5c0.5-1.5,0.9-2.9,1.3-4.4
						C1529.7,574,1523.5,576,1517.3,577.8z"/>
				</g>
			</g>
			<path fill="#FCDDB9" d="M733.9-414.3c-34.5,51.2-111.2,929.6-29.4,983.3c79.4,52,669,68.9,785.2-14.5
				c14.2-10.2,38.3-5.2,46.4-35.5c63.2-235,48.3-869.3-10.5-943.1C1458.5-508.1,767.9-464.8,733.9-414.3z"/>
		</g>
	</g>
</g>
</svg>
