<?xml version="1.0" encoding="utf-8"?>
<!-- Generator: Adobe Illustrator 18.0.0, SVG Export Plug-In . SVG Version: 6.00 Build 0)  -->
<!DOCTYPE svg PUBLIC "-//W3C//DTD SVG 1.1//EN" "http://www.w3.org/Graphics/SVG/1.1/DTD/svg11.dtd">
<svg version="1.1" id="Layer_1" xmlns="http://www.w3.org/2000/svg" xmlns:xlink="http://www.w3.org/1999/xlink" x="0px" y="0px"
	 viewBox="0 0 640 640" enable-background="new 0 0 640 640" xml:space="preserve">
<g>
	<polygon opacity="0.4" fill="#231F20" points="127.8,355.2 85.1,416.1 206.1,413.4 177.5,481.8 491.1,468.9 550.1,428.4 	"/>
	<g>
		<g>
			<polygon fill="#F9AD5A" points="161.3,308.1 114.4,303.4 126.7,342.7 			"/>
			<polygon fill="#F15A29" points="134.9,280.7 114.7,304.4 163.6,308.7 190.2,285.1 			"/>
			<path fill="#F15A29" d="M126.3,368.2c-3.3-33.8,63.1-101.5,110.3-105.8c42.6-3.9,94.4,41.2,101.9,83.6L126.3,368.2z"/>
			<path fill="#F9AD5A" d="M126.4,375.1c-3-30.3,68.8-99.7,111.2-103.6c38.3-3.5,84.7,37,91.4,75l-42.4,38.3L126.4,375.1z"/>
			<path fill="#F15A29" d="M102.8,395.1c-3.3-33.8,34.7-81.2,81.9-85.5c42.6-3.9,94.4,41.2,101.9,83.6v10.4l-184,3.8L102.8,395.1z"
				/>
			<path fill="#F9AD5A" d="M112.2,395.4c-3-30.3,31.1-72.9,73.5-76.8c38.3-3.5,84.7,37,91.4,75L112.2,395.4z"/>
			<polygon fill="#F15A29" points="241.4,271.3 194.6,315.1 204.6,318.5 251.4,272.1 			"/>
			<g>
				<polygon fill="#F15A29" points="166.9,336.3 159.3,349 194.6,347.4 189.5,336.3 				"/>
				<polygon fill="#F9AD5A" points="170.9,331.1 166,343.7 189.1,342.1 185.8,331.1 				"/>
			</g>
		</g>
		<g>
			<polygon fill="#3DCDF9" points="265.7,384.8 376.6,227.4 531.3,372.9 554.9,433.9 226.6,433.9 			"/>
			<polygon fill="#00AEEF" points="226.6,433.9 376.6,227.4 554.9,433.9 			"/>
			<polygon fill="#EF866A" points="304.1,433.9 376.6,328.5 453.8,433.9 			"/>
			<polygon fill="#286784" points="304.1,433.9 376.6,328.5 344.1,350.4 			"/>
			<polygon fill="#286784" points="453.8,433.9 377.5,328.5 417.4,357.1 			"/>
			<polygon fill="#286784" points="335.8,283.5 417.4,283.5 410.3,273.8 342.9,273.8 			"/>
			<polygon fill="#00AEEF" points="328,278.5 376.6,211.5 429.9,270.2 425.2,278.5 			"/>
			<polygon fill="#FFCD8A" points="430.5,401.6 376.6,328.5 339.8,401.6 			"/>
		</g>
	</g>
</g>
</svg>
